<svg xmlns="http://www.w3.org/2000/svg" xmlns:xlink="http://www.w3.org/1999/xlink" width="1024" height="1024" xmlns:v="https://vecta.io/nano"><style><![CDATA[.B{fill:#a779ab}.C{fill:#77307d}.D{fill:#9f6da3}.E{fill:#79337f}.F{fill:#752d7b}.G{fill:#ac81b0}.H{fill:#c9adcb}.I{fill:#a373a7}.J{fill:#af86b3}.K{fill:#ad82b0}.L{fill:#a576a9}.M{fill:#935b98}.N{fill:#762e7c}.O{fill:#b188b4}.P{fill:#a677a9}.Q{fill:#bd9bc0}.R{fill:#b086b3}.S{fill:#c7aac9}.T{fill:#98629c}.U{fill:#b58eb8}.V{fill:#d0b7d2}.W{fill:#aa7eae}.X{fill:#732979}.Y{fill:#722878}]]></style><path d="M221.34-.381l7.854-.014 16.977-.003 25.247-.004 45.108-.006 39.476.006 2.651-.001 10.653-.003 99.825.015 88.585-.001 99.649-.013 10.633.003h2.644l39.44-.008 44.869.01 25.076-.002 18.771.015 7.558-.006c18.716-.05 36.544 1.431 54.706 6.142l3.04.78C911.342 19.02 955.908 48.696 984 89l1.335 1.905c15.318 22.133 26.375 46.261 33.04 72.345l.687 2.679c4.417 18.45 5.374 36.498 5.319 55.411l.014 7.854.003 16.977.004 25.247.006 45.108-.006 39.476.001 2.651.003 10.653-.015 99.825.001 88.585.013 99.649-.003 10.633v2.644l.008 39.44-.01 44.869.002 25.076-.015 18.771.006 7.558c.05 18.716-1.431 36.544-6.142 54.706l-.78 3.04C1004.98 911.342 975.304 955.908 935 984l-1.905 1.335c-22.133 15.318-46.261 26.375-72.345 33.04l-2.679.687c-18.45 4.417-36.498 5.374-55.411 5.319l-7.854.014-16.977.003c-8.416-.011-16.831-.006-25.247.004l-45.108.006-39.476-.006-2.651.001-10.653.003c-33.275.009-66.55.001-99.825-.015-29.528-.014-59.057-.013-88.585.001l-99.649.013-10.633-.003h-2.644c-13.147-.003-26.294.001-39.44.008-14.956.009-29.913.006-44.869-.01-8.359-.009-16.717-.009-25.076.002a5390.4 5390.4 0 0 1-18.771-.015c-2.519-.003-5.039-.002-7.558.006-18.716.05-36.544-1.431-54.706-6.142l-3.04-.78C112.658 1004.98 68.092 975.304 40 935l-1.335-1.905c-15.318-22.133-26.375-46.261-33.04-72.345l-.687-2.679C.521 839.621-.436 821.573-.381 802.66l-.014-7.854-.003-16.977-.004-25.247-.006-45.108.006-39.476-.001-2.651-.003-10.653.015-99.825-.001-88.585-.013-99.649.003-10.633v-2.644l-.008-39.44.01-44.869-.002-25.076.015-18.771-.006-7.558c-.05-18.716 1.431-36.544 6.142-54.706l.78-3.04C19.02 112.658 48.696 68.092 89 40l1.905-1.335c22.133-15.318 46.261-26.375 72.345-33.04l2.679-.687C184.379.521 202.427-.436 221.34-.381z" fill="#fefefe"/><path d="M650 164l2.383.108c5.361.392 8.811 1.733 13.367 4.767l3.234 2.117L672 173l2.66 1.512c2.477 1.575 4.126 3.2 6.027 5.426l1.762 2.027c3.686 4.837 3.749 8.093 3.551 14.035h2l.188 11.313.076 3.248.029 3.115.048 2.872c-.403 2.903-1.203 3.562-3.341 5.452-.417 2.542-.417 2.542 0 5 1.923 2.348 1.923 2.348 5.313 2.313 3.612-.029 3.612-.029 6.004-1.727 10.446-6.173 24.298-5.502 35.785-3.219L734 225l1 2c2.068.971 4.155 1.901 6.25 2.813 9.315 4.327 17.06 11.652 22.75 20.188a121.13 121.13 0 0 1 1.5 5.938c.909 4.158.909 4.158 2.574 8.035 3.348 7.331 1.008 18.083-1.094 25.543-1.33 3.371-3.217 5.181-5.98 7.484l-2.125 3.25c-3.654 5.269-8.836 8.887-13.875 12.75l-2.41 1.988c-8.607 6.71-19.685 9.902-30.59 9.012l-.812-3.312c-3.455-9.19-13.017-16.012-20.996-21.152C688 298 688 298 686.199 296.012c-2.99-2.735-6.186-3.867-9.949-5.262l-2.113-.812L669 288v-2l-9 2c-.765 3.355-.765 3.355-1 7 2.153 3.03 4.618 3.668 8.125 4.563 2.695.691 2.695.691 4.875 1.438l1 2c2.01 1.057 2.01 1.057 4.375 2 2.821 1.176 5.059 2.289 7.625 4v3l1.75.277c5.606 1.801 9.988 7.709 12.625 12.785 1.579 3.571 2.691 7.141 3.625 10.938l.75 2.801c1.876 7.386 2.705 14.406 3.039 21.984.126 3.38.126 3.38 1.211 7.215v45H513c0-29.041 0-29.041 2-41l.508-3.379c.894-5.558.894-5.558 1.492-7.621l2-1 1 5 5 1v-2c1.529-1.297 1.529-1.297 3.648-2.75l2.297-1.594 2.43-1.656 4.711-3.25 2.126-1.453c1.909-1.313 1.909-1.313 3.788-3.297 2.318-.719 4.651-1.391 7-2l1-6c-4.956.496-8.703 1.442-13 4l-1 2-2.18.832c-4.053 1.679-7.155 4.393-10.535 7.154-1.373 1.079-2.825 2.055-4.285 3.014l-3-1 2-14h2l1 2c4.952-.437 7.308-2.846 11-6l5-2 2.375-1.937c2.481-1.949 4.778-3.131 7.703-4.281 1.945-.761 1.945-.761 3.844-1.75 7.035-3.491 14.405-4.697 22.078-6.031l1-6c-8.578-.623-14.792.172-22.539 4.004C551 323 551 323 548 322c1.108-3.214 1.985-3.991 5-5.75 3-1.25 3-1.25 5-1.25v-2l2.484-.805 3.266-1.07 3.234-1.055c2.93-.965 2.93-.965 5.219-2.203C574 307 574 307 577 307v-3l-4.937.438-2.777.246c-2.247.077-2.247.077-3.285 1.316-1.578.321-3.162.607-4.75.875-4.058.786-6.823 1.752-10.25 4.125l-4.5 2.438c-3.467 1.904-6.435 4.055-9.5 6.563h-2v2l-5 2c.298-3.171 1.095-4.092 3.434-6.359l3.004-2.391 2.996-2.422C542 311 542 311 544 311v-2c6.625-4 6.625-4 10-4v-2l8-1 1-3 2.773-.402 3.602-.535 3.586-.527c2.946-.37 2.946-.37 5.039-1.535 3.193-.469 6.386-.867 9.59-1.25 3.826-.435 3.826-.435 7.41-1.75l.063-3.812.035-2.145c-.015-2.246-.015-2.246-1.098-5.043h-14l-1 3-3.375.375c-3.656.272-3.656.272-5.625 2.625a163.68 163.68 0 0 1-7.562.75c-6.268.625-10.455 1.78-15.504 5.75-1.908 1.48-3.672 2.4-5.871 3.375-8.151 3.922-19.112 11.93-23.082 20.266L516 324c-1.937 2.563-1.937 2.563-4 4-2.67-.245-3.798-.807-5.746-2.672l-1.691-2.078c-1.946-2.366-3.841-4.51-6.086-6.605-6.482-6.922-9.01-17.127-10.152-26.316-.2-2.347-.2-2.347-1.324-4.328-1.228-16.592-1.11-32.6 8-47l1.438-3.625c1.722-3.72 3.577-5.598 6.563-8.375 2.805-3.053 5.438-6.056 7.563-9.625 2.404-3.972 5-6.896 9.438-8.375l1.75-2.375c2.751-3.209 5.366-4.072 9.25-5.625l1.422-1.457c9.582-9.368 28.946-8.712 41.203-8.605l3.043.014L584 191v9c6.398.473 6.398.473 12-2l1-3c4.725.463 8.171 1.099 12 4v2l3.375-.062c6.411.773 10.275 5.69 14.625 10.063l1.898 1.754c3.027 2.827 4.926 5.249 6.102 9.246 2.333.042 4.667.041 7 0 1.52-1.52 1.353-2.882 1.5-5-.103-7.198-4.795-11.32-9.652-16.133-7.85-7.257-15.823-12.216-25.848-15.867l-5-2c.569-3.303 1.409-4.872 4-7l5-3 2.125-1.687C616 170 616 170 619 170v-2c9.917-5.095 20.16-4.592 31-4z" fill="#fdfcfd"/><path d="M637.535 151.76l5.99-.072c10.924-.044 20.593 1.596 30.475 6.313v2l2.063.188c7.567 2.093 13.323 8.345 17.199 14.969C696 180.46 696 180.46 696 183h2c3.832 9.99 4.488 18.438 4 29l2.595-.063 9.673-.156 4.16-.082c8.689-.213 15.704.375 23.572 4.302l3.375 1.188c11.844 5.168 23.47 15.784 28.555 27.648.928 2.202.928 2.202 2.598 3.57 5.911 6.397 4.937 20.386 4.695 28.676-.275 4.839-.827 9.278-2.223 13.918l-.707 2.402c-2.995 8.657-9.566 19.367-17.73 23.973-2.895 1.836-4.454 3.954-6.562 6.625l-3 1-1.375 1.5c-2.094 1.933-3.847 2.125-6.625 2.5l-1 3c-1.978.891-1.978.891-4.551 1.605l-2.807.791-2.955.791-2.92.826C724.65 337.152 721.306 338 717 338l.367 1.781c3.518 18.834 3.987 38.12 3.948 57.227l.046 10.127.002 6.479.028 3.039-.019 2.798.002 2.452c-.485 2.72-1.175 3.439-3.374 5.097-2.642.37-2.642.37-5.897.362l-3.754.014-4.147-.031c-1.463 0-2.925.001-4.388.003a2273.47 2273.47 0 0 1-12.088-.032l-13.025-.018-22.58-.039-35.682-.03-12.202.001h-3.08c-11.576 0-23.151-.006-34.727-.015l-3.207-.002-51.464-.085-52.81-.027c-10.863.01-21.726-.005-32.589-.052l-22.328-.011c-4.297.011-8.592.009-12.889-.027a702.08 702.08 0 0 0-11.797.003 213.69 213.69 0 0 1-4.27-.026c-7.591-.328-7.591-.328-14.218 2.726A32.35 32.35 0 0 0 357 436l-.936 1.968c-.732 1.659-1.402 3.344-2.064 5.032l-2 3h-2l-.848 1.762c-1.089 2.115-2.289 4.061-3.59 6.051-1.892 2.984-3.302 5.912-4.617 9.199-1.734 3.647-4.021 6.964-6.227 10.34-1.634 2.518-3.178 5.072-4.719 7.648l-4.5 7.188-1.184 1.904c-1.921 3.024-3.295 4.894-6.316 6.908-1.911 2.787-3.205 5.495-4.5 8.625-1.366 3.073-2.14 4.204-4.5 6.375-2.25 3.094-3.99 5.978-5.5 9.5-1.505 3.512-3.386 6.33-5.5 9.5l-1.5 3.625C295 538 295 538 293.125 539.813c-3.371 3.47-5.098 7.834-7.125 12.188h-2l-2 6 3.01-.551 11.132-2.013 4.804-.873 6.933-1.251 2.144-.398c6.432-1.136 11.988-1.759 17.977 1.085l3.625 1.5C335 557 335 557 338 559c.408 2.712.133 5.244 0 8-5.355 2.281-9.888 3.386-15.703 3.691-2.327.186-2.327.186-4.328 1.328-2.262 1.127-3.713 1.189-6.219 1.105L308 573a101.17 101.17 0 0 0 2 6l2 1c4.072 7.145 2.842 18.087 2 26-1.448 4.866-3.425 8.425-7 12l-.875 2.313C305 623 305 623 302.938 625.563c-1.827 2.299-2.515 3.589-2.937 6.438h-2l-.234 2.129c-.973 3.648-2.703 5.833-5.016 8.809l-1.241 1.604L288 649l-1.496 1.938c-2.364 2.976-4.975 5.313-7.933 7.682-1.707 1.5-3.111 3.099-4.574 4.837-4.777 5.52-9.903 10.692-15.059 15.855l-1.538 1.542c-9.829 9.823-19.898 18.696-31.825 25.927-1.886 1.227-1.886 1.227-2.574 4.219h-3v2c-8.22 4.147-15.742 6.7-25 5-4.761-2.164-8.098-4.647-11-9-.713-7.571.018-14.693 2-22h2l.332-3.176.48-4.137.213-2.092c.484-4.004.999-5.935 3.975-8.596 1.119-2.781 1.119-2.781 2-5.875 1.231-4.094 2.514-7.617 5-11.125h2v-4h2l.875-3.312C206 641 206 641 208 638h2l.375-2.437L211 633l2-1a126.53 126.53 0 0 0 2-6l1-2h2l.813-2.062L220 619l1.375-3.562c1.602-3.389 3.027-4.844 5.625-7.437 3.447-4.998 6.445-10.091 8-16l-3.687.375c-3.669-.026-4.237-.315-7.312-2.75-2.268-3.421-3.283-6.586-3.027-10.699 2.534-7.216 8.649-12.927 15.027-16.926 6.705-2.869 14.656-5 22-5l.688-2.973c1.327-4.635 3.729-8.43 6.313-12.465l1.367-2.217c1.15-1.822 2.385-3.59 3.633-5.346h2l.688-2.062c1.328-2.972 3.019-5.369 4.949-7.977 1.977-2.844 3.593-5.854 5.238-8.898.867-1.59 1.796-3.147 2.75-4.687 1.754-3.029 3.042-6.139 4.375-9.375h2l1-5h3l.25-1.562c.857-2.784 2.229-5.083 3.711-7.578 1.216-2.095 1.216-2.095 2.539-5.422A43.69 43.69 0 0 1 308 472h2l.25-2.125c.929-3.56 2.553-5.945 4.75-8.875l2-1 2.159-5.083c2.131-4.855 5.383-9.194 8.319-13.596l3.568-5.45c5.89-8.944 12.126-15.452 21.389-20.926 1.553-.851 1.553-.851 2.566-1.945 1.873-.109 3.749-.147 5.625-.158l3.701-.03 4.098-.017 4.286-.03 11.671-.068 12.184-.076 23.088-.138 26.278-.16L500 412l.077-2.676.299-9.981.126-4.292c.526-18.3 2.331-36.19 6.498-54.051l-1.687-.199c-3.266-1.131-4.931-3.133-7.312-5.613l-2.562-2.645L493 330l-2.121-1.957c-2.257-2.454-3.508-4.913-4.941-7.918l-1.473-3.055L483 314l-1.613-3.211c-3.076-6.187-3.875-11.98-4.387-18.789h-2c-.725-36.666-.725-36.666 6-54l.867-2.48c2.354-6.428 5.384-12.956 11.195-16.93 2.104-1.455 2.104-1.455 2.789-3.863 1.665-3.953 4.468-6.404 7.523-9.352l1.75-1.734C512.908 196 512.908 196 516 196v-2c5.432-4.61 11.266-7.028 18-9l7.813-2.562 1.959-.637c2.509-.827 4.913-1.63 7.24-2.89 5.008-2.292 10.606-1.978 15.988-1.691l5.961.2 4.078.205c8.201.694 8.201.694 15.365-2.56 1.765-2.277 3.185-4.558 4.596-7.064 3.25-3.637 5.533-5.257 10-7l4.395-3.762c7.66-5.908 16.993-5.452 26.141-5.479zM619 168v2l-1.687.25c-3.025.981-4.873 2.727-7.312 4.75l-5 3-2 2c-.114 2.074-.114 2.074 1 4 2.504 1.193 2.504 1.193 5.563 1.938C623.268 190.14 635.082 200.123 643 212c.23 2.227.23 2.227.188 4.625l-.02 2.414C643 221 643 221 642 222c-2.333.041-4.667.042-7 0l-1.141-2.613c-2.108-3.839-4.516-6.523-7.609-9.574l-1.516-1.576C620.088 203.596 615.768 201 609 201l-1-3c-3.976-2.025-6.505-3-11-3l-1 3c-4.202 2.802-7.001 2.145-12 2v-9l-10.375-.062-2.926-.025c-8.901-.03-17.351.437-25.949 2.9l-3.453.957c-4.334 1.617-7.746 4.009-11.359 6.855C528 203 528 203 525.438 203.938c-2.872 1.252-3.623 2.568-5.437 5.063l-5 3c-3.404 3.08-5.724 6.042-8 10-2.002 2.669-3.951 4.956-6.437 7.188-5.984 6.568-8.839 15.477-11.562 23.813l-1.098 3.016c-1.553 5.543-1.191 11.341-1.152 17.047l-.023 3.51.008 3.4.007 3.071c.284 3.243 1.145 5.907 2.259 8.957.299 1.537.571 3.079.813 4.625 1.657 8.557 4.469 16.594 11.188 22.375l4.313 4.813 2.113 2.395L509 328c3.271-.564 4.922-1.392 7-4 .57-1.334 1.087-2.692 1.563-4.062 5.816-13.52 20.947-21.294 33.355-27.809 2.01-.962 2.01-.962 3.082-2.129 3.392-.447 6.782-.822 10.186-1.162 4.364-.362 4.364-.362 7.814-2.838 2.323-.4 4.657-.74 7-1l1-3h14c1.283 3.85 1.066 6.947 1 11-4.834 1.576-9.321 2.284-14.379 2.723-6.391.676-12.589 2.055-18.621 4.277v2l-8 1v2l-1.625.313c-3 .868-5.613 2.244-8.375 3.688v2l-2.199.754c-3.062 1.362-5.116 2.96-7.613 5.184l-2.395 2.09c-2.129 1.898-2.129 1.898-1.793 4.973l5-2v-2l1.73-.816c2.339-1.22 4.42-2.612 6.582-4.121 3.801-2.569 7.425-4.391 11.688-6.062l2-1.125c2.901-1.269 5.877-1.463 9-1.875l1-1c1.682-.233 3.371-.413 5.063-.562l2.785-.254L577 304v3l-2.148.375c-2.953.647-5.647 1.565-8.477 2.625L558 313v2l-2.812.813c-2.983 1.111-4.306 1.712-6.187 4.188l-1 3c3.831-.393 6.693-1.303 10.063-3.062 5.81-2.756 11.642-2.288 17.938-1.937l-1 6-2.965.516C564.528 325.88 557.818 327.45 551 331l-2.145 1.004c-4.086 1.933-7.332 4.139-10.855 6.996l-2.437.938c-2.454 1.018-3.684 1.946-5.625 3.688C527 346 527 346 523 346l-1-2h-2l-2 15c4.435-1.109 6.442-2.689 10-5.5 6.069-4.794 6.069-4.794 10-5.5 1.021-.979 2.021-1.98 3-3 3.455-2.221 6.969-2.535 11-3 0 2.813 0 2.813-1 6-3.312 1.313-3.312 1.313-5.48 1.961-4.384 1.808-7.881 4.878-11.59 7.785a82.5 82.5 0 0 1-6.297 4.414L525 364v2l-5-1-1-5-2 1c-.893 3.086-.893 3.086-1.562 6.813l-.754 3.77C512.525 385.532 513 398.753 513 413h195c1.481-24.744 1.481-24.744-1-49l-.312-6.562c-.341-6.254-1.251-12.302-2.5-18.437l-.464-2.389c-1.517-7.073-4.379-12.46-9.286-17.861l-1.754-1.953L691 315l-1.527-1.734c-1.528-1.592-1.528-1.592-4.473-1.266l-.258-1.863c-.551-2.255-.551-2.255-2.484-3.367l-2.133-.957-2.117-.98c-1.642-.68-3.322-1.27-5.008-1.832l-1.187-1.437c-2.037-1.756-3.221-1.999-5.812-2.562-2.333-.537-3.975-.986-6.062-2.187-1.544-2.985-.597-5.635.063-8.812l9-2v2l3.543 1.355 4.645 1.832 2.33.885c4.867 1.943 7.919 3.968 11.482 7.928 1.585 1.295 3.189 2.567 4.813 3.813 7.494 5.962 13.495 10.765 16.188 20.188 12.388 1.011 23.557-3.233 33-11l2.773-2.066c6.034-4.621 10.446-9.426 14.668-15.746C764 293 764 293 766 292c3.739-9.794 5.12-21.577 1.125-31.437l-1.129-2.395C765 256 765 256 764.188 252.375c-1.691-4.807-4.697-7.748-8.187-11.375l-1.523-1.816c-4.117-4.671-9.001-7.227-14.59-9.787-3.199-1.473-5.454-2.883-7.886-5.396a55.72 55.72 0 0 0-8-1l-2.477-.16c-9.661-.328-19.227 1.096-27.523 6.16-3.687.313-3.687.313-7 0-2-2-2-2-2.312-4.437.313-2.562.313-2.562 1.814-3.89 2.098-2.341 1.843-3.893 1.792-6.997l-.029-3.115-.076-3.248-.041-3.283L688 196h-2l.375-3.437c.012-6.754-4.5-11.259-8.562-16.25-3.456-2.842-7.132-4.824-11.094-6.883-2.719-1.43-2.719-1.43-5-3.047-11.298-5.747-31.85-3.967-42.719 1.617z" class="E"/><path d="M621.125 510.875l3.82-.008C628 511 628 511 629 512c1.305 11.528-5.241 21.195-12 30 3.144-2.287 5.66-4.711 8.125-7.687 5.805-6.758 11.84-13.081 20.875-14.312l1-2c2.563-.625 2.563-.625 5-1v-2c7.374-3 16.33-5.292 24.059-2.168 1.566 1.043 1.566 1.043 3.941 3.168l3 2c.919 5.497.154 10.884-2 16h-2l-.625 3.5c-1.483 5.975-5.143 10.395-9.562 14.563-2.014 1.918-2.014 1.918-3.004 4.918-2.152 5.187-5.403 9.652-8.559 14.27l-3.785 5.625-4.753 7.023c-5.659 8.372-9.616 15.784-8.711 26.102 1.794 2.206 1.794 2.206 4.207 2.266 8.289-.019 8.289-.019 15.043-4.453L662 605l4.125-3.125c4.915-3.738 9.11-7.995 13.395-12.422 5.382-5.322 5.382-5.322 9.105-5.766C691 584 691 584 693 586c.736 7.37 1.032 14.626-3 21-6.467 7.76-14.629 14.291-24 18l-2 3c-1.918.794-3.845 1.574-5.812 2.238-2.467.818-2.467.818-5.812 2.449-6.565 2.422-14.494 2.664-21.102.363-5.561-2.948-11.037-6.952-13.273-13.051v-3h-2c-1.236-16.046 4.501-29.17 12-43h2l.125-2.062c1.064-3.573 2.793-5.33 5.258-8.055 4.556-5.304 7.6-11.624 10.617-17.883h2c1.523-2.937 2.801-5.917 4-9-6.428 2.738-10.863 6.339-15.898 11.172C634 550 634 550 632 550v2c-1.434 1.41-1.434 1.41-3.437 3.063-4.785 4.064-9.162 8.466-13.562 12.938l-2.336 2.32c-11.691 11.592-11.691 11.592-21.363 24.824-1.881 2.684-4.287 4.499-6.836 6.523-2.015 1.832-2.614 3.779-3.465 6.332-1.869 2.616-3.494 4.643-6.125 6.5-2.384 1.907-2.797 3.671-3.875 6.5-3.429 4.714-3.429 4.714-6 6l-1 3-3.176-.07-4.137-.055-2.092-.051c-3.767-.036-5.38.032-8.596 2.176-5.06 2.131-9.603 2.335-15 2.313l-2.367.049c-5.81.005-10.007-.993-14.461-5.01l-1.422-1.727-1.453-1.711c-3.496-5.16-3.553-9.697-3.422-15.727l.027-2.389L508 602h-3l-.789 1.785c-1.285 2.351-2.646 3.818-4.586 5.652-2.032 1.929-3.794 3.783-5.5 6.016-2.343 2.808-4.78 4.734-7.75 6.859l-2.914 2.113C481 626 481 626 479 626v2l-2.187.813c-2.79 1.178-5.226 2.622-7.812 4.188-7.105 2.368-15.978 1.861-22.934-.906-5.573-2.95-9.887-6.481-12.066-12.531-3.113-13.536-1.398-28.17 5.563-40.281L441 577a85.51 85.51 0 0 0 1.688-3.812L444 570h2l.191-2.113c1.058-3.779 3.197-6.198 5.746-9.074l1.511-1.732L458 552l2.355-2.613c5.077-5.34 10.652-9.934 16.457-14.449l2.211-1.736c6.46-4.908 6.46-4.908 10.976-5.201l1-3c2.18-.949 2.18-.949 4.875-1.687l2.68-.762C501 522 501 522 504 522v-2c5.744-.818 11.326-1.183 17.125-1.187l2.34-.037c4.542-.012 8.328.3 12.535 2.225l2 3 3 1 .75-1.812c1.469-2.57 2.745-3.623 5.25-5.187 4.783-.876 9.434-.801 13.563 1.938 3.401 2.878 3.401 2.878 3.781 4.813.447 6.432-1.456 9.392-5.602 14.188-2.105 2.492-3.367 5.116-4.742 8.063l-2 2.875c-1.956 3.056-3.044 5.757-4.094 9.195-.906 1.93-.906 1.93-2.809 3.719-2.672 2.816-3.836 5.884-5.16 9.461l-.78 2.031L537 580l-.98 2.551L534 588l-1.125 3.063c-1.971 6.617-1.999 13.1-1.875 19.938 6.5 1.011 10.165-1.518 15.484-5.129 2.799-2.082 5.19-4.272 7.516-6.871l2.375-2.062c3.559-3.983 5.956-8.421 8.563-13.066l6.25-10.684L576 565l1.164-1.982c2.507-4.281 2.507-4.281 3.836-9.018h2l.586-1.863.789-2.449.773-2.426C586 545 586 545 588 542h2l.875-3.312C592 535 592 535 594 532h2l.832-2.223c3.021-7.184 7.687-13.384 14.168-17.777 3.534-1.178 6.403-1.133 10.125-1.125z" class="C"/><path d="M258.813 416c6.715 2.107 11.403 5.087 15.188 11-.079 3.951-1.272 6.544-3 10l-.875 3.938c-.677 2.905-1.119 4.055-3.062 6.438-2.498 3.179-3.16 6.008-4.215 9.863-2.046 6.666-5.228 12.828-8.848 18.762-2.55 4.761-4.606 9.503-6.5 14.563-1.343 3.576-2.656 6.974-4.625 10.25-1.754 2.982-2.885 5.739-4.039 8.973-2.148 5.691-4.874 11.166-7.457 16.668l-1.629 3.484-1.516 3.215c-1.273 2.708-1.273 2.708-1.781 5.164L226 540l-2 1c-.672 1.999-1.263 4.026-1.812 6.063-1.435 4.891-3.031 8.682-5.898 12.852-2.707 4.381-4.381 9.318-6.289 14.086-1.854 4.489-3.733 8.706-6.437 12.75-2.873 4.415-4.559 9.161-6.383 14.082-3.715 9.977-8.009 21.072-16.18 28.168l-2.187 2.313C177 633 177 633 175 633l-1 4-3.254.402-4.309.535-2.135.264-2.119.264-2.11.261c-2.019.267-4.027.583-6.039.903L151 640c-1-1-1-1-1.062-4.625.734-6.272 3.984-11.336 7.055-16.727 1.948-3.445 3.49-6.992 5.008-10.648l3.188-6.937 1.605-3.465L168 595h2l-.25-2.125c.273-3.145 1.223-4.457 3.043-6.953 2.09-3.328 3.409-6.989 4.863-10.629a269.43 269.43 0 0 1 3.428-7.999l1.088-2.441L183 563l-22.56-.674-10.478-.307c-15.844-1.579-15.844-1.579-29.878 3.667-2.727 3.127-4.372 6.555-6.083 10.314-.992 1.407-2.02 2.79-3.102 4.129l-2.523 3.434-1.384 1.89c-4.564 6.273-8.87 12.709-13.074 19.228l-3.292 5.07-1.961 3.047L87 615h-2l-.551 1.934-.762 2.504-.738 2.496L82 624l-3 1-.875 2.25c-1.481 3.619-2.974 5.421-6.125 7.75-5.216.342-8.269-.765-12.5-3.812-2.513-2.385-3.405-3.725-4.105-7.145-.148-5.73.431-9.225 3.605-14.043l3-7 2-3h2l.793-2.203c1.232-2.855 2.678-5.049 4.52-7.547 2.266-3.15 4.286-6.24 6.063-9.687 2.576-4.835 5.985-8.836 9.539-12.984 1.964-2.427 3.553-4.863 5.086-7.578l-1.893.184L81.5 561l-2.977.289c-5.537.517-10.962.817-16.523.711-1.6-3.2-1.357-6.519-1-10 1.922-4.748 5.705-8.295 10-11 2.397-.781 4.692-1.284 7.18-1.676 1.834-.148 1.834-.148 2.82-1.324a182.88 182.88 0 0 1 6.992-.141l4.324-.059 6.84-.051 6.585-.078 3.996-.028c3.415-.299 3.415-.299 5.077-3.023L116 532c1.505-1.761 3.048-3.49 4.625-5.187 3.04-3.162 3.04-3.162 5.375-6.812h2l.637-1.598c1.92-3.384 4.513-6.037 7.176-8.84l1.899-2.011c7.29-7.654 14.762-15.131 22.226-22.614l1.918-1.926c6.538-6.559 13.073-13.022 20.144-19.011l4.625-4.25c5.648-5.093 11.589-9.767 17.616-14.398l3.476-2.685 4.846-3.73 2.816-2.16c2.506-1.699 4.797-2.728 7.621-3.777 3.966-2.437 3.966-2.437 7.438-5.5 3.749-3.599 7.566-5.749 12.75-5.875 3.267.321 5.129.586 7.813 2.375l.25-1.75c1.351-4.054 3.166-6.25 7.563-6.25z" class="F"/><path d="M403 512c.195 4.871-.294 8.45-2 13l-2 7-1 3 2.02-1.687c20.388-16.881 20.388-16.881 28.75-18.75 2.352-.55 2.352-.55 5.02-1.598 3.696-1.111 6.918-1.336 10.773-1.402l3.879-.121c4.462.7 5.855 2.001 8.559 5.559 2.24 6.141.763 11.435-1.678 17.219-2.41 5.071-5.312 9.82-8.259 14.593l-1.842 3.061c-3.037 4.964-5.918 9.212-10.221 13.127l-1.812 2.813C431 570 431 570 427.125 570.563c-4.223-.26-6.863-1.858-10.125-4.562-1.793-3.586-1.584-7.14-1-11 1.736-4.803 3.799-9.395 6-14-5.063 1.909-8.184 3.728-11.937 7.75-2.85 2.973-5.658 5.852-8.812 8.5-8.507 7.294-16.499 15.465-23.734 24.016-1.657 1.896-3.408 3.657-5.203 5.422-3.278 3.234-6.36 6.407-8.437 10.563C363 599 363 599 361 600l-1.262 2.105c-2.209 3.678-4.843 6.887-7.551 10.207l-9.812 12.5C340 628 340 628 338 630c-6.678.716-12.08-.838-18-4-1.74-3.481-.729-7.277 0-11 1.344-2.945 2.302-4.518 4.957-6.352 2.345-1.892 3.171-3.424 4.418-6.148 1.801-3.807 3.7-7.509 5.75-11.187 2.225-4.033 4.105-8.065 5.875-12.312l2-3h2l.329-2.186c.724-3.036 1.812-5.155 3.401-7.833l1.686-2.85 1.771-2.943 1.713-2.908c3.036-5.095 6.235-9.888 9.861-14.579 1.528-2.096 2.555-4.222 3.489-6.637C368.8 532.1 368.8 532.1 371 531l1-3c2.7-6.633 9.449-12.234 15.938-15.062 4.889-1.506 10.006-1.188 15.063-.937z" class="C"/><path d="M774.938 558.438c4.609.847 7.647 3.099 10.875 6.438 4.155 4.036 9.237 7.01 14.25 9.875L802 576v2l2 .688c5.099 2.231 10.331 5.04 14 9.313v2l2.125.688c3.499 1.597 5.957 3.82 8.875 6.313a132.04 132.04 0 0 0 5 3c4.53 2.678 8.269 5.269 12 9l5 2c2.498 1.828 4.706 3.694 6.85 5.926 2.207 2.128 4.424 3.721 6.994 5.387l2.777 1.82L870.5 626l5.656 3.688 2.525 1.637c2.363 1.708 4.275 3.604 6.318 5.676l2.75 1.625L890 640v2l1.625.75c3.669 1.931 7.085 4.21 10.313 6.813 2.174 1.639 2.174 1.639 5.5 2.75 3.51 1.663 4.724 2.978 6.984 6.008 2.804 2.985 6.367 4.879 9.859 6.969C927 667 927 667 929.324 668.879c3.491 2.768 7.22 5.064 10.988 7.434 5.326 3.387 10.241 6.78 14.844 11.121 3.015 2.562 6.413 4.446 9.84 6.402C967 695 967 695 968 696c.481 3.958.897 7.712-1.437 11.063-3.783 1.384-7.592 1.683-11.562.938-1.582-1.445-1.582-1.445-3-3l-4.957-1.977c-3.389-1.698-6.198-4.112-9.125-6.5-1.845-1.573-1.845-1.573-3.918-2.523v-2l-2.148-.75c-3.195-1.401-5.687-3.16-8.477-5.25-2.765-2.06-5.505-4.087-8.375-6v-2l-2.437-.812L910 676l-1-3c-2.262-1.073-2.262-1.073-5-2-4.646-2.103-8.536-4.769-12.5-7.937-4.062-3.218-8.176-6.196-12.5-9.062l-3-3-3-1v-2l-2.125-.687c-2.884-1.317-4.913-2.955-7.285-5.031-2.058-1.658-4.332-2.844-6.645-4.109-3.89-2.343-7.605-5.096-10.945-8.172v-2l-2.199-.812c-2.769-1.174-5.11-2.527-7.613-4.187l-2.395-1.562L832 620v-2l-2.187-.687C827 616 827 616 824.625 613.563c-2.528-2.468-4.404-3.382-7.652-4.609-3.383-1.634-6.156-4.065-9.055-6.43-1.845-1.573-1.845-1.573-3.918-2.523v-2l-2.219-.785c-2.861-1.249-4.873-2.681-7.281-4.652-3.063-2.452-6.067-4.644-9.5-6.562l-3-2v-2l-2.312-.875C777 580 777 580 774 578v-2l-2.375-.812C769 574 769 574 767 571c-.571-4.402-.508-6.298 2.125-9.937C772 559 772 559 774.938 558.438z" fill="#7a347f"/><path d="M945 281c2.5 1.625 2.5 1.625 4 4 .563 2.938.563 2.938 0 6-1.609 1.985-3.067 3.368-5 5l-2.172 1.996c-5.104 4.689-10.376 9.117-15.762 13.477-5.516 4.547-10.887 9.264-16.268 13.97l-3.738 3.181-1.889 1.583-1.7 1.409c-1.723 1.515-1.723 1.515-3.472 4.384l-5 3c-2.665 2.313-5.222 4.72-7.793 7.137C884 348 884 348 882 348v2c-1.622 1.71-3.294 3.373-5 5l-1.375 1.563C874 358 874 358 871 359.563c-4.637 2.552-8.239 6.181-12.086 9.773-3.672 3.357-7.514 6.462-11.406 9.559-2.619 2.128-2.619 2.128-5.203 4.867C840 386 840 386 838 386v2c-1.407 1.248-2.879 2.423-4.375 3.563-3.647 2.842-7.151 5.754-10.562 8.875-4.357 3.974-8.868 7.713-13.449 11.426-6.701 5.41-6.701 5.41-12.676 11.574C795 425 795 425 791.5 425.563 788 425 788 425 785.563 423c-1.993-3.826-2.802-6.857-1.562-11 4.181-5.86 10.559-10.165 16.125-14.633 3.934-3.239 7.667-6.681 11.422-10.125C819.47 380 819.47 380 822 380v-2c1.573-1.414 3.211-2.756 4.875-4.062 4.75-3.799 9.305-7.738 13.805-11.828 3.397-3.088 6.846-6.11 10.32-9.109l1.579-1.372 5.296-4.566 1.734-1.507C863.772 342 863.772 342 866 342v-2c1.552-1.393 3.17-2.714 4.813-4 4.027-3.217 7.898-6.5 11.688-10 4.447-4.094 9.047-7.924 13.75-11.719 2.831-2.348 5.544-4.79 8.25-7.281 4.402-4.047 8.93-7.871 13.586-11.621l6.391-5.352 1.776-1.524 3.421-2.962c4.817-4.136 8.967-5.45 15.327-4.541z" fill="#79327e"/><path d="M279.59 579.699c3.446.43 4.509 1.866 6.723 4.488 3.949 5.252 4.576 9.279 4.164 15.75-.635 4.081-1.742 7.316-3.477 11.063l-1 3h-2l-1 4h-2l-.719 2.539c-1.481 4.001-3.458 7.281-5.781 10.836l-1.223 1.941c-1.034 1.601-2.15 3.148-3.277 4.684h-2l-.812 2.313c-1.173 2.654-2.144 3.726-4.187 5.688l-1.344 2.363c-1.694 2.697-3.293 4.283-5.719 6.324-6.279 5.467-12.059 11.409-17.867 17.368l-2.289 2.323-2.061 2.112C232 678 232 678 230 678v2c-1.907 1.558-3.811 3.009-5.812 4.438-4.124 2.912-4.124 2.912-7.844 6.305-2.328 2.179-5.286 1.969-8.344 2.258 1.005-10.852 3.99-20.895 11-29.437 2.397-3.071 3.938-6.283 5.629-9.781 2.305-4.675 4.848-9.221 7.371-13.781h2l.32-1.656c.831-2.866 2.112-5.232 3.555-7.844l1.555-2.844C241 625 241 625 242.613 622.852c1.59-2.123 2.446-4.352 3.438-6.797 1.531-3.313 3.503-6.348 5.449-9.43 1.777-3.109 3.091-6.333 4.5-9.625 6.087-12.516 6.087-12.516 12.082-15.57 3.86-.98 7.574-1.274 11.508-1.73z" fill="#fcfbfc"/><path d="M239 448c-.667 3.229-1.844 5.837-3.375 8.75-1.638 3.186-3.074 6.304-4.25 9.688-1.304 3.378-1.95 4.198-4.375 6.563-1.058 1.679-1.058 1.679-1.937 3.512l-1.023 2.049-1.039 2.127-1.039 2.068c-2.02 4.082-3.72 8.186-5.273 12.465-.878 2.27-2.003 4.317-3.25 6.404-1.949 3.392-3.272 6.629-4.437 10.375l-3 6h-2l-.687 3.438c-1.05 4.283-2.916 7.731-5.191 11.484-1.104 2.047-1.603 3.826-2.121 6.078l-9.562.063-2.713.025c-5.032.018-9.739-.351-14.725-1.088-3.976-.26-7.956-.412-11.937-.562l-3.229-.131L146 537c1.15-2.47 2.016-4.015 4-5.937 2.127-1.919 2.127-1.919 2.896-4.446 1.217-2.884 2.532-4.378 4.772-6.542l2.209-2.166 2.311-2.221c4.968-4.821 9.745-9.677 14.256-14.93 2.014-2.273 4.199-4.271 6.494-6.257 4.016-3.525 7.786-7.195 11.469-11.066C196 482 196 482 198 482v-2c1.258-1.305 1.258-1.305 3.125-2.875l2.203-1.871L206 473l3.297-2.848c6.102-5.275 12.241-10.474 18.582-15.461 1.902-1.516 3.731-3.087 5.559-4.691 2.563-2 2.563-2 5.563-2z" fill="#fbfafc"/><path d="M746 626c7.226-.612 7.226-.612 10.688 2.125L759 631l2.625 3c2.062 2.605 3.724 5.129 5.375 8l2 2.938c5 7.656 5 7.656 5 11.063l3 1c1.902 2.441 1.902 2.441 3.938 5.563l2.027 3.066c1.444 2.392 2.681 4.652 3.875 7.156 2.453 5.018 5.602 9.513 8.785 14.09l1.773 2.586c3.043 4.48 3.043 4.48 6.602 8.539l1.125 2.938c1.903 4.666 4.942 8.462 7.945 12.473 1.489 1.998 2.895 3.996 4.242 6.09 1.538 2.45 1.538 2.45 3.25 4.063 1.911 1.911 3.089 4.108 4.438 6.438l1 1c.4 4.164.442 6.323-1.875 9.875-2.539 2.539-3.437 3.05-7 3.438C814 744 814 744 811.688 742.188 810 740 810 740 809 737l-2.238-2.227c-3.136-3.149-5.501-6.459-7.949-10.148l-1.326-1.922c-2.777-4.155-4.36-7.831-5.486-12.703h-2l-1.25-2.625c-2.188-4.219-4.437-8.062-7.812-11.437-2.752-2.752-4.491-5.632-5.75-9.312-1.429-3.158-3.381-5.295-5.668-7.871a40.16 40.16 0 0 1-7.02-11.379c-1.224-3.325-1.224-3.325-3.281-5.09-2.991-3.08-5.013-6.557-7.219-10.223-3.372-5.595-3.372-5.595-7.293-10.809-2.699-3.563-2.059-5.885-1.707-10.254l1-3h2v-2z" fill="#7a3480"/><path d="M807 498l4.438.938c5.93 1.317 11.711 3.108 17.469 5.035 3.122 1.037 6.259 2.008 9.406 2.965 7.264 2.235 14.315 4.44 21.25 7.563 5.533 2.365 10.924 3.563 16.83 4.512 4.038.649 7.763 1.59 11.607 2.988v2l2.309.332c17.853 2.742 17.853 2.742 21.691 7.668.515 4.562.551 6.899-1.5 11-3.085 2.468-4.759 2.485-8.594 2.242-2.031-.258-3.961-.594-5.906-1.242v-2l-1.937.188c-2.747-.168-4.42-.573-6.961-1.48-6.941-2.381-14.042-4.203-21.127-6.102-5.32-1.458-10.09-2.989-14.975-5.605-3.738-.714-3.738-.714-7-1v-2l-2.539.125c-3.901-.141-7.104-.998-10.836-2.125l-3.773-1.125L824 522v-2l-3.625.125c-3.798.014-6.825-.705-10.375-2.125v-2c-5.903-1.373-5.903-1.373-11.871-2.402-4.473-.637-7.513-1.187-11.316-3.723-2.557-4.056-2.501-6.133-1.812-10.875 4.562-6.348 15.676-2.595 22-1z" class="E"/><path d="M532 535c-.605 3.049-1.55 5.115-3.375 7.625l-1.273 1.789C526 546 526 546 523 548l-.875 2.313C521 553 521 553 518.785 555.188c-3.233 3.265-5.793 6.782-8.473 10.5-4.884 6.647-9.924 13.019-16.312 18.313h-2v2c-1.528 1.396-3.127 2.716-4.75 4l-3.023 2.422-1.601 1.275-8.001 6.553-2.898 2.391c-2.795 2.338-2.795 2.338-5.34 5.137C464 610 464 610 460.188 610.313L457 610c-1.515-3.03-1.17-5.651-1-9 1-2.937 1-2.937 2-5h2l.75-2.062c2.363-5.554 5.448-10.393 9.102-15.164 1.26-1.805 1.26-1.805 2.051-4.195 2.138-5.022 6.377-8.668 10.098-12.578l2.582-2.777c8.726-9.11 18.454-16.837 30.418-21.223l3.125-1.187C522.768 535.5 527.183 535 532 535z" fill="#f8f4f8"/><path d="M831.5 251.938c4.211 1.278 5.985 2.447 8.5 6.063.257 4.624-.87 7.162-3.812 10.563l-1.633 1.754c-3.545 3.839-5.693 7.956-7.645 12.754-2.26 4.792-5.299 9.364-9.098 13.055-2.032 2.102-2.767 4.176-3.873 6.842-1.742 3.771-4.046 7.187-6.314 10.658l-1.422 2.234c-2.732 4.211-5.512 7.737-9.203 11.141l-1 1c-1.642.125-3.291.176-4.937.188l-2.715.043C786 328 786 328 784 326c-.703-4.047-.879-8.235.98-11.969.85-1.151 1.735-2.277 2.652-3.375 1.406-1.703 2.434-3.409 3.492-5.344 1.492-2.637 2.877-5.042 4.875-7.312h2l.75-2c2.853-6.846 6.419-13.068 10.5-19.25l1.459-2.225 2.918-4.434 3.692-5.719 2.055-3.184 1.773-2.77c3.026-3.952 5.26-6.39 10.352-6.48z" fill="#7a347f"/><path d="M454.977 799.738c3.216 2.406 6.16 4.954 9.086 7.699l1.525 1.408c10.114 9.381 10.114 9.381 12.412 16.154.045 1.666.054 3.334 0 5-25.149.683-25.149.683-32-3l-1-3-5-2c-2.203-1.84-2.203-1.84-4.25-3.937l-2.078-2.09C432 814 432 814 431 811l-3-2c-1.071-2.301-2.08-4.634-3-7-5.66.142-8.22 2.633-12.07 6.406-2.044 1.688-3.31 2.304-5.93 2.594-1.812-1.187-1.812-1.187-3-3 .091-2.808.905-3.894 2.773-5.988 10.391-9.388 36.572-9.066 48.203-2.273z" class="F"/><path d="M562.875 758.688l3.68.012c3.28.286 5.468.986 8.445 2.301l3.063.188c7.835.947 15.95 6.97 20.938 12.813l1.809 1.805c4.509 4.663 6.301 7.639 6.191 14.195-.687 2.438-.687 2.438-2 4-7.44 2.712-17.366 1.328-24.504-1.781-5.029-2.424-9.849-5.121-14.496-8.219v-2l-2.187-.625c-5.444-2.661-8.63-7.86-10.812-13.375-.599-5.093-.599-5.093 1.094-7.656 2.879-2.029 5.305-1.704 8.781-1.656z" fill="#7b3580"/><path d="M470 736c3.731 7.876 2.807 17.963.629 26.25-.832 2.315-2.022 3.896-3.629 5.75l-2 3.563c-2.721 4.676-2.721 4.676-5 6.438h-2v2l-3 2-1 3c-2.285.949-2.285.949-5.062 1.688l-2.785.762L444 788v2h-5c-2.421-13.014-1.253-24.648 5.316-36.344C450.248 745.138 459.1 736 470 736z" fill="#7c3882"/><path d="M556 712c1.372 25.056 1.372 25.056-7 35l-.937 2.484c-2.602 6.161-9.587 10.991-15.375 14.078-3.273 1.276-5.245 1.868-8.687 1.438-3.497-6.995-1.443-19.83.563-27.062C528.478 727.015 536.768 719.622 546 713c3.317-1.216 6.498-1.024 10-1z" fill="#742c7a"/><path d="M598 699c3.387 7.831 2.837 16.07-.133 23.918L597 725l-.867 2.113L594 732h-2l-.305 2.25c-1.776 7.024-8.778 12.108-14.695 15.75h-3v2h-6c-3.382-8.831-3.164-19.109 0-28 2.913-6.406 6.811-12.203 12-17h2v-2c5.112-3.895 9.547-6 16-6z" class="E"/><path d="M534.828 774.035L537 775l2.422.996c9.134 4.099 18.953 11.571 22.828 21.066C563 800 563 800 563 804c-7.648 3.623-17.827 2.963-25.918.816C529.75 801.942 524.31 796.63 519 791l-2.187-1.937c-3.318-3.775-5.643-8.025-6.062-13.062l.25-2c6.829-4.15 16.667-2.801 23.828.035z" fill="#7c3782"/><path d="M511 726l.063 9.563.025 2.713c.031 8.398-.56 14.568-5.088 21.725h-2l-.797 1.754c-2.104 3.928-5.166 7.017-8.203 10.246l-1.477 1.594c-4.09 3.93-8.112 4.274-13.523 4.406-2.543-13.466-1.925-24.825 5.609-36.492 5.454-7.43 15.008-18.969 25.391-15.508z" class="F"/><path d="M498 789c8.752 6.349 17.437 13.498 21 24-.426 2.719-.426 2.719-1 5-14.035.573-27.793.751-39.039-9.012C473.246 803.194 466 795.446 466 787c9.381-2.285 23.388-2.895 32 2z" class="C"/><path d="M507.938 671.438c3.111 3.866 3.324 7.691 3.063 12.563-1.725 4.567-5.016 7.266-9 10-4.027.755-5.57.25-9.125-1.812L490 690l-2.375-1.75L486 687l-2.187 2.375c-3.578 3.339-5.965 4.471-10.812 4.875-4.286-.357-6.878-1.012-9.812-4.25-2.072-5.235-1.836-10.605-.375-16 1.188-2 1.188-2 4.188-4 4.628-.634 9.751-1.133 14.016 1.016 1.547 1.297 1.547 1.297 3.984 3.984l1.875 1.813L488 678l.25-1.75c.982-2.946 2.373-4.28 4.75-6.25 4.782-2.22 10.426-.77 14.938 1.438z" fill="#cbb0cd"/><path d="M574 317l2 1v6c-3.219 1.85-6.021 2.405-9.687 2.875-5.675.883-10.227 2.525-15.312 5.125l-2.156 1.008c-4.08 1.933-7.324 4.139-10.844 6.992l-2.437.938c-2.49 1.032-3.631 1.951-5.562 3.75-3 2.313-3 2.313-5.875 2.125L522 346v-2h-2l-1 14c5.275-2.11 8.37-4.659 12.598-8.32C534 348 534 348 538 348l1-3c4.434-2.851 7.784-3.313 13-3v6l-1.547.559c-8.243 3.288-14.796 8.73-21.684 14.219C527 364 527 364 525 364v2c-2.375-.25-2.375-.25-5-1l-2-4-3 15h-1l.375-10.375.094-2.984.117-2.852.095-2.634C515 355 515 355 517 353c.311-1.845.55-3.702.75-5.562.961-6.191 2.752-10.96 7.25-15.437 2.307-.754 4.646-1.411 7-2 2.646-1.92 5.103-3.981 7.57-6.125 3.416-2.636 6.103-3.875 10.43-3.875l-1 2c3.683-.977 6.827-1.914 10.25-3.625 4.956-1.817 9.519-1.826 14.75-1.375z" fill="#e1d1e2"/><path d="M620 722c.358 8.193.535 13.93-5.062 20.375C613 744 613 744 611 744v2l3.063.313c9.176 1.602 9.176 1.602 12.488 5.523 2.473 3.748 3.449 5.54 3.449 10.164-8.836.652-14.333-1.119-21.375-6.375-4.372-4.372-4.928-9.098-5-15.125.085-5.349.636-8.45 4.375-12.5l2-2.25c3.483-3.048 5.298-3.75 10-3.75z" fill="#7c3781"/><path d="M533 662h4v30l-7.687.688-2.393.241c-4.614.348-7.307 0-10.919-2.928-2.281-3.421-2.219-4.682-2.125-8.687l.055-3.012L514 676h2v-4h2v-2c9.41-1.517 9.41-1.517 14 1l-.062-3.937A59.19 59.19 0 0 1 532 663l1-1z" fill="#97619c"/><path d="M353.688 669.688c3.075 1.745 4.515 3.25 6.313 6.313.631 5.683.069 9.043-3 14-2.939 2.939-5.227 2.913-9.312 3.375-4.653-.473-7.307-2.224-10.687-5.375-1.864-3.727-1.565-7.942-1-12 3.74-7.235 10.209-8.226 17.688-6.312z" fill="#a372a7"/><path d="M505 341h2c-.483 4.835-1.082 9.592-1.937 14.375-2.584 15.449-3.373 30.845-3.721 46.478l-.095 3.936-.073 3.553C501 412 501 412 500 413a106.61 106.61 0 0 1-5.591.131l-3.679.012-4.074-.002-4.262.011-9.2.016-14.547.041-4.976.019-2.518.01-33.88.087-22.833.069-12.088.027a1326.67 1326.67 0 0 0-11.376.037c-1.391.007-2.782.007-4.173 0a384.14 384.14 0 0 0-5.703.028l-3.222.007c-3.582.629-5.213 2.091-7.877 4.505l-2.437 1.438c-3.146 1.918-5.77 4.16-8.562 6.563 2.547-6.251 7.157-9.143 13-12l2-3c2.511-.369 2.511-.369 5.745-.361l3.705-.012 4.087.033 4.287-.001 11.658.038 12.176.024 23.066.064 26.256.065L499 411l-.012-2.316-.035-10.544-.019-3.642c-.037-18.189 2.729-35.655 6.066-53.499z" fill="#dbc9dd"/><path d="M479 670c3.25 1.938 3.25 1.938 5 5 .83 4.514.304 8.119-1.187 12.438-2.144 3.031-3.327 3.459-6.812 4.563-3.73.496-7.273.548-11 0-2.698-2.312-2.898-3.923-3.227-7.383-.149-4.528-.144-8.625 2.227-12.617 4.683-3.122 9.523-2.694 15-2z" fill="#a06ea4"/><path d="M576 318v6c-3.219 1.85-6.021 2.405-9.687 2.875-5.675.883-10.227 2.525-15.312 5.125l-2.156 1.008c-4.08 1.933-7.324 4.139-10.844 6.992l-2.437.938c-2.454 1.018-3.684 1.946-5.625 3.688C527 347 527 347 523 347c0-5.965 0-5.965 2.672-8.73 3.606-2.745 7.071-4.712 11.328-6.27 2.359-1.291 4.688-2.625 7.012-3.977C546 327 546 327 548 327v-2c6.625-3 6.625-3 10-3v-2c6.12-1.405 11.717-2.233 18-2z" fill="#7a3580"/><path d="M364 670l7.688-.062 2.393-.028c3.792-.015 7.221.305 10.919 1.09l1-1c2.145-.273 2.145-.273 4.813-.375l2.645-.148c2.543.523 2.543.523 4.852 2.496 2.28 4.08 2.141 7.258 1.941 11.84l-.055 2.389L400 692h-4v-16h-11v16h-5l-.184-3.465-.254-4.473-.119-2.287c.116-3.695.116-3.695-1.443-6.775-4.651-.305-4.651-.305-9 1-.312 2.714-.513 5.339-.625 8.063l-.117 2.299L368 692h-4v-22z" fill="#87488c"/><path d="M419 669c2.912 1.577 5.169 3.228 7 6l1 8h-17v3h15c-1 4-1 4-3 6-2.934.301-2.934.301-6.437.313l-3.496.051C409 692 409 692 407.152 690.668c-2.876-4.163-2.476-8.829-2.152-13.668.815-3.406 1.495-4.581 4.188-6.812 3.677-1.553 5.847-1.803 9.813-1.187z" fill="#945b98"/><path d="M309 664h5v12h13v-12h5v28h-4v-12h-14v13h-5v-29z" fill="#813f86"/><path d="M442 663h16l1 5h-12v8h9v5h-8v12h-6v-30z" fill="#8a4d8f"/><path d="M548 359l1 6-5 2v3l-2.117 1.023-2.758 1.352-2.742 1.336c-2.478 1.194-2.478 1.194-4.383 3.289l-2.437.938c-2.604.852-2.604.852-4 2.75L524 382c-3.187-.312-3.187-.312-6-1 .25-3.552.758-4.774 3.406-7.246l3.094-2.191 1.633-1.17L531 367l2.656-1.844C542.71 359 542.71 359 548 359z" fill="#8b4f90"/><path d="M455.688 799.938C458 802 458 802 460 805l-1.723-.621c-4.798-1.674-9.244-2.75-14.277-3.379l-1-1a253.53 253.53 0 0 0-8.562-.562l-2.443-.131L426 799l1 5-2-2c-4.611-.11-6.85 1.525-10.125 4.5l-1.945 1.906c-2.044 1.688-3.31 2.304-5.93 2.594-1.812-1.187-1.812-1.187-3-3 .091-2.808.905-3.894 2.773-5.988 10.349-9.351 37.387-9.272 48.914-2.074z" class="M"/><path d="M552 342v6l-1.547.559c-8.2 3.271-14.825 8.645-21.605 14.207-2.62 1.751-4.776 1.444-7.848 1.234.495-5.609 3.643-8.986 7.746-12.492 3.503-2.667 4.628-3.508 9.254-3.508l1-3c4.434-2.851 7.784-3.313 13-3z" fill="#8b4e90"/><path d="M572 299l-6 3 2.336-.07 3.039-.055 3.023-.07C577 302 577 302 579 304l-1 6-2.598.586c-5.849 1.332-11.66 2.678-17.402 4.414v-2l2.484-.805 3.266-1.07 3.234-1.055c2.93-.965 2.93-.965 5.219-2.203C574 307 574 307 577 307v-3l-4.937.438-2.777.246c-2.247.077-2.247.077-3.285 1.316-1.578.321-3.162.607-4.75.875-4.058.786-6.823 1.752-10.25 4.125l-4.5 2.438c-3.467 1.904-6.435 4.055-9.5 6.563h-2v2l-5 2c.298-3.171 1.095-4.092 3.434-6.359l3.004-2.391 2.996-2.422C542 311 542 311 544 311v-2c6.625-4 6.625-4 10-4v-2l8-1 1-3c3.378-.845 5.675-1.108 9 0z" fill="#efe7f0"/><path d="M607 748l6.688-.187 3.762-.105c3.808.314 5.563.967 8.551 3.293 2.804 3.463 4 6.488 4 11-6.927.511-12.255.153-18-4-2.105-1.915-3.391-3.587-5-6v-4z" class="N"/><path d="M507.938 671.438c3.103 3.856 3.345 7.7 3.063 12.563-1.25 3.125-1.25 3.125-3 5h-3l.07-2.555.055-3.32.07-3.305c.105-2.957.105-2.957-2.195-4.82-1.91-.318-1.91-.318-4-.25l-2.125-.016c-2.119.109-2.119.109-3.875 2.266-.311 4.203-.46 7.483 2 11 2.185.699 2.185.699 4.625.75l2.477.172L504 689v2c-9.76.606-9.76.606-13.687-1.312-2.176-4.455-2.013-8.839-1.312-13.687 1.188-3.127 2.721-5.315 5.75-6.937 4.918-.137 8.789.222 13.188 2.375z" fill="#9d6aa1"/><path d="M569.285 303.902l2.777.035 2.785.027L577 304v3l-6.125 2.438-3.445 1.371c-3.172 1.102-6.109 1.752-9.43 2.191v2l-5.312 3-2.988 1.688C547 321 547 321 544 321l1-4-4-1c4.571-3.452 8.685-5.894 14-8l2-1.125c2.901-1.269 5.877-1.463 9-1.875 1-1 1-1 3.285-1.098z" fill="#834288"/><path d="M416 542l2 1c-8.825 9.653-17.91 19.04-27.134 28.311l-3.576 3.607c-6.125 6.19-12.093 12.119-19.29 17.082 1.795-3.879 4.101-6.27 7.188-9.25 3.143-3.07 6.235-6.133 9.063-9.5 7.618-8.909 16.214-17.324 25.164-24.887 2.326-2 4.451-4.162 6.586-6.363z" fill="#d6c1d8"/><path d="M344.602 670.805l3.023.07 3.039.055L353 671v2l1.938.938C357 675 357 675 358 676c.361 7.459.361 7.459-2 11l-1-12-5.375-.125-3.023-.07c-2.764-.077-2.764-.077-4.602 2.195-.356 2.138-.356 2.138-.312 4.5l-.051 2.406L342 686c2.901 1.934 3.897 2.301 7.188 2.625L353 689v2c-6.441 1.645-10.218.055-16-3-.557-10.622-.557-10.622 3-15 2-2 2-2 4.602-2.195z" fill="#7c3882"/><path d="M640 543l2 1c-7.79 8.746-15.977 17.088-24.25 25.375l-1.572 1.579C609.12 578.04 602.062 585.045 594 591c1.417-3.252 3.125-5.314 5.688-7.75 3.497-3.389 6.674-6.927 9.77-10.684C611 571 611 571 614 570c.703-1.314 1.366-2.651 2-4 1.48-1.739 1.48-1.739 3.188-3.453l1.867-1.875L623 558.75l1.945-1.969 1.867-1.859 1.707-1.7C630 552 630 552 632 552v-2c1.75-1.727 1.75-1.727 4-3.625l2.25-1.914L640 543z" fill="#d5c0d7"/><path d="M529 674c1.875 1 1.875 1 3 3 .537 3.577.657 6.763-1.062 10-3.106 1.603-5.517 1.428-8.937 1-2.625-2.202-2.945-3.62-3.437-7 .438-3 .438-3 2.063-5.375 3.053-2.089 4.745-2.166 8.375-1.625z" fill="#f3ecf3"/><path d="M497.875 674.734l2.125.016 2.125-.016C504 675 504 675 506 677c.464 7.304.464 7.304-2 11-1.875.363-1.875.363-4 .313l-2.125-.012C496 688 496 688 494 686c-.266-2.094-.266-2.094-.25-4.5l-.016-2.406c.359-2.827 1.272-3.953 4.141-4.359z" fill="#f4eff5"/><path d="M538 331l3 1-2 3h3v-2l7-1c-1 2-1 2-3.25 2.875-2.857 1.018-2.857 1.018-5.25 3.125-2.5 2-2.5 2-4.937 2.938-2.454 1.018-3.684 1.946-5.625 3.688C527 347 527 347 523 347c0-5.965 0-5.965 2.672-8.73 3.568-2.716 7.05-4.843 11.328-6.27l1-1z" fill="#824087"/><path d="M344 674c6.401-.483 6.401-.483 8.938 1.563 1.439 3.301 1.392 5.877 1.063 9.438-2 2-2 2-3.875 2.266L348 687.25l-2.125.016C344 687 344 687 342 685c-.314-4.24-.326-7.365 2-11z" fill="#f7f3f7"/><path d="M184 462l2 1-4 4.063-2.25 2.285-6.465 5.872c-4.013 3.5-7.826 7.16-11.594 10.921l-1.976 1.966-4.081 4.074-6.273 6.233-3.982 3.977-1.897 1.875-1.742 1.751-1.535 1.531c-1.442 1.56-1.442 1.56-2.205 4.453l-2 1-1.375 2.313c-1.638 2.71-3.208 4.649-5.625 6.688h-3v-2h2l.637-1.598c1.92-3.384 4.513-6.037 7.176-8.84l1.899-2.011c7.29-7.654 14.762-15.131 22.226-22.614l1.918-1.926c12.498-12.538 12.498-12.538 18.693-17.774 1.2-1.023 2.336-2.121 3.451-3.237z" class="O"/><path d="M470 674c3.07-.392 5.114-.473 7.875 1 1.771 3.149 1.673 6.47 1.125 10l-2 3c-3.5.313-3.5.313-7 0-2-2-2-2-2.266-4.059l.016-2.379-.016-2.371C468 677 468 677 470 674z" fill="#f8f4f8"/><path d="M124 560l16.473-.055 5.576-.021c12.687-.058 25.288.267 37.95 1.075v5l-1-3-22.974-.052-10.667-.024-12.257-.022-3.879-.016h-3.579l-3.163-.007c-2.482-.047-2.482-.047-4.48 1.12l2-4z" class="P"/><path d="M539 718l2 1-1.645 1.539c-4.066 3.913-7.25 7.198-9.355 12.461h-2l-.437 3.125c-.319 2.195-.664 4.387-1.094 6.563-.579 4.091-.577 8.063-.531 12.188l.014 2.375L526 763c8.898-2.586 14.562-7.587 21-14 0 3 0 3-1.906 5.121C533.315 764.64 533.315 764.64 526 765.25l-2-.25c-3.497-6.995-1.443-19.83.563-27.062 2.894-8.138 8.23-14.106 14.438-19.937z" fill="#ba97bd"/><path d="M436 588c1.008 3.239.993 5.839.66 9.203l-.283 2.969-.314 3.078-.303 3.125L435 614h2l.297 2.047c.906 5.586.906 5.586 3.516 10.516 2.429 1.596 4.314 2.118 7.188 2.438v2c9.456 2.045 16.598 1.736 25-3l2 1c-2.561 3.13-5.158 3.924-9 5-9.891.956-18.388.084-26.375-6.062-5.884-5.65-6.692-11.917-6.971-19.844-.099-7.085.674-13.477 3.346-20.094z" fill="#b087b3"/><path d="M327 664h5v28h-4v-12h-14v-1h15v-2h-15v-1h13v-12z" fill="#915896"/><path d="M414 522l2 1c-2.513 3.77-2.513 3.77-4.898 4.898-2.458 1.288-3.715 2.718-5.477 4.852-9.923 11.683-9.923 11.683-17.625 14.25.503-4.401 2.024-6.754 5-10l2-1 .938-3 1.063-3 3-1-2 6 2.23-1.828 2.957-2.422 2.918-2.391L414 522z" fill="#7d3882"/><path d="M454.852 799.574L457 801c-1.812.625-1.812.625-4 1l-3-2c-6.028-1.293-12.048-1.295-18.187-1.375l-3.252-.113c-7.436-.081-14.481.844-20.561 5.488-.868 2.584-.868 2.584-1 5 3.058-1.736 5.634-3.385 8-6l2 1-3.25 3.563-1.828 2.004C410 811 410 811 407.891 810.84 406 810 406 810 404 808c.255-3.821 2.251-5.526 5-8 11.348-6.746 34.393-6.751 45.852-.426z" fill="#b690b9"/><path d="M196 482l2 1c-7.847 8.487-15.775 16.878-23.937 25.063l-2.074 2.088c-6.013 5.995-12.295 11.621-18.989 16.85 1.388-3.139 2.995-5.223 5.449-7.609l2.072-2.039 2.166-2.102c4.792-4.672 9.373-9.404 13.738-14.478 2.022-2.276 4.211-4.281 6.512-6.272 4.539-3.997 8.84-8.171 13.063-12.5z" fill="#d7c2d8"/><path d="M152 527c0 3.589-.664 4.109-3 6.688l-1.687 1.887L146 537l2-.016 9.062-.047 3.146-.025c5.389-.017 10.457.256 15.791 1.088 3.476.254 6.956.41 10.438.563l2.795.131L196 539l1-5c.625 1.813.625 1.813 1 4l-2 3c-1.993.372-1.993.372-4.445.363l-2.74.002-2.939-.053-3.01-.028c-7.147-.119-14.08-.744-21.146-1.773-5.885-.81-11.789-1.16-17.719-1.512.57-3.626 1.924-5.255 4.563-7.75l1.941-1.859L152 527z" class="G"/><path d="M576 318v6c-3.219 1.85-6.021 2.405-9.687 2.875-5.025.756-9.071 2.086-13.57 4.418L551 332l-2-1 1-2c2.649-.594 5.292-.742 8-1v-3c3.823-1.423 6.913-2.24 11-2v-2l-11 1v-2c6.12-1.405 11.717-2.233 18-2z" fill="#9f6ca3"/><path d="M391 669.5l2.563-.094C396 670 396 670 398.297 671.98c2.298 4.075 2.153 7.247 1.953 11.832l-.055 2.389L400 692h-4v-16h-10v-2c2.957-1.478 5.742-1.06 9-1v-2c-4.379.52-8.688 1.057-13 2 3.023-2.631 4.994-3.451 9-3.5z" fill="#a16fa5"/><path d="M523 334c1.532 4.084.631 7.795 0 12l-1-2h-2l-1 14 5-1-3 7h4v2c-2.375-.25-2.375-.25-5-1l-2-4-3 15h-1l.375-10.375.094-2.984.117-2.852.095-2.634C515 355 515 355 517 353a86.48 86.48 0 0 0 .875-5.687c.798-5.35 2.093-8.866 5.125-13.312z" fill="#d6c1d8"/><path d="M283 552c0 3 0 3-1 6l3.01-.551 11.132-2.013 4.804-.873 6.933-1.251 2.144-.398c6.257-1.105 12.192-1.977 17.977 1.085l1 2-2.043-.496c-3.471-.591-6.75-.599-10.27-.566l-3.801.027L310 555v2l-3.648.402-4.727.535-2.406.264c-4.241.403-4.241.403-8.219 1.799a95.33 95.33 0 0 1-5.125.063l-2.758-.027L281 560c-.687-2.312-.687-2.312-1-5 1.438-1.812 1.438-1.812 3-3z" class="D"/><path d="M156 621l1 2c-.777 2.164-.777 2.164-1.937 4.625l-1.152 2.477L153 632h2v3l20-1-1 3-3.254.402-4.309.535-2.135.264-2.119.264-2.11.261-6.039.903L151 640c-1-1-1-1-1.055-2.75.51-6.39 2.618-10.885 6.055-16.25z" fill="#9e6ba2"/><path d="M533 663h3v28h-3v-2l-3-1 1-1v-6.5s-.047-4.334 0-6.5l1-1 .563-5.062.254-2.785L533 663z" fill="#803d85"/><path d="M504 671v2l-1.898.367-2.477.508-2.461.492c-2.351.499-2.351.499-4.164 2.633-.311 4.203-.46 7.483 2 11 2.185.699 2.185.699 4.625.75l2.477.172L504 689v2c-9.76.606-9.76.606-13.687-1.312-2.184-4.471-2.11-8.828-1.312-13.687 3.632-6.174 8.541-5.564 15-5z" class="N"/><path d="M476 672c6.875 1.875 6.875 1.875 8 3 .614 5.606.343 10.274-3 15-3.88 2.371-7.538 2.175-12 2l-1-3 7 1v-2l4-2 .188-4.75.105-2.672c-.344-3.025-1.295-4.334-3.293-6.578z" fill="#85458a"/><path d="M489 253h1l-.016 2.966-.039 10.914-.021 4.72-.022 6.792-.016 2.125c0 3.326.152 6.295 1.113 9.485v8h2l1 8c-2.855-1.427-3.003-3.01-4-6l-1.062-6.187C488.4 289.77 488.4 289.77 487 286c-.245-4.224-.185-8.457-.187-12.687l-.037-3.553c-.01-5.972.142-11.137 2.225-16.76z" fill="#ece2ec"/><path d="M418 671c2.541.343 4.545.724 6.75 2.063C426 675 426 675 427 683h-18v-3h13v-5h-2v-2h-2v-2z" fill="#8c5091"/><path d="M593 173c0 3 0 3-1 7h-42c5.236-3.491 11.011-3.114 17.141-2.957l3.992.064 6.208.139 6.05.109 3.626.083c3.097-.141 3.097-.141 4.896-2.46L593 173z" fill="#a87bac"/><path d="M421 670c2.622 1.049 3.794 1.649 5.25 4.125L427 676h2c.316 5.261-.334 8.446-3 13l-1-3-3 1a69.45 69.45 0 0 1-4.5.125l-2.344.008C413 687 413 687 410 686v-3h17c-2.011-7.013-2.011-7.013-6-13z" fill="#d4bdd6"/><path d="M574 317v1c-5.571 1.592-10.211 2.207-16 2v2l-10 3v2l-2.625 1.25c-3.333 1.728-6.291 3.621-9.375 5.75l-2-1c2.792-3.285 6.232-5.013 10-7h2v-3l-2.812 1.5C540 326 540 326 537 326c4.111-3.524 7.465-6 13-6l-1 2c3.683-.977 6.827-1.914 10.25-3.625 4.994-1.831 9.49-1.632 14.75-1.375z" fill="#c5a7c8"/><path d="M698 187c3.574 3.574 4.107 8.302 4.195 13.184l-.07 4.254-.027 2.217L702 212l2.706-.032 9.946-.078 4.304-.041 6.188-.044 3.761-.032C732 212 732 212 735 214h-35l-2-27z" fill="#a170a5"/><path d="M402 510l3 2c.561 5.611.092 9.124-3 14l-2 1c.875-6.875.875-6.875 2-8a235.65 235.65 0 0 0 1-7c-10.514.561-17.431 1.683-24.75 9.574L377 523c0-3.62.586-4.018 3.063-6.5 6.486-6.124 13.196-7.572 21.938-6.5z" fill="#c5a7c8"/><path d="M575 713c0 3.694-1.282 5.778-3 9h-2c-1.254 5.786-1.112 11.489-1.062 17.375l.014 3.098L569 750l2.355-1.023c2.833-1.046 3.878-1.001 6.645.023l-4 1v2h-6c-3.382-8.831-3.164-19.109 0-28 1.955-4.007 3.831-7.831 7-11z" class="H"/><path d="M805 498c7.512.501 13.935 2.474 21 5 4.084 1.386 8.187 2.683 12.313 3.938L845 509l2.773.855 2.414.77 2.105.664C854 512 854 512 856 514c-10.607-.384-10.607-.384-14.75-3-3.617-2.226-6.079-2.488-10.25-3-2.078-.695-4.098-1.489-6.133-2.301-2.253-.844-4.494-1.328-6.867-1.699v-2l-2.59-.367-3.348-.508-3.34-.492L806 500l-1-2z" fill="#c5a6c7"/><path d="M442 663h16v1h-15v27h3v-11h10v1h-8v12h-6v-30z" class="Q"/><path d="M519 192l2 1c-2.625 3.875-2.625 3.875-6 5-1.51 1.49-1.51 1.49-3 3.375-4.677 5.532-9.841 10.55-15 15.625-.677-1.791-.677-1.791-1-4 1.108-1.692 1.108-1.692 2.824-3.348l1.869-1.834 1.994-1.881 1.936-1.893C512.926 196 512.926 196 516 196v-2l3-2z" class="M"/><path d="M262 418c5.086 1.09 7.775 3.162 10.934 7.129C274 427 274 427 274 430.188c-.859 2.415-1.858 4.528-3 6.813-.494 2.058-.936 4.118-1.34 6.195C269 445 269 445 266 447l1-7h2c.382-1.656.714-3.325 1-5l-1-1c.009-2.297.133-4.578.258-6.871L269 425l-3-2v-2h-3l-1-3z" fill="#96609b"/><path d="M482 749c.86 2.485 1.004 3.977.531 6.594-.644 4.132-.64 8.109-.594 12.281l.014 2.375L482 776l1.898-.91 2.477-1.152 2.461-1.16L491 772l2 1c-1.827 2.463-3.23 3.834-6.27 4.488-2.245.237-4.475.415-6.73.512-.901-4.657-1.214-9.206-1.25-13.937l-.062-2.053c-.039-5.138 1.079-8.502 3.313-13.01z" class="R"/><path d="M282 580c4.585 3.544 7.682 7.787 8.512 13.559-.01 3.185-.155 6.277-.512 9.441l-2 1-.297-3.359-.453-4.391-.187-2.211c-.369-3.382-.842-5.725-2.809-8.531-4.097-2.741-8.513-1.975-13.254-1.508-2.456.498-4.632 1.158-7 2l1-3c2.547-.949 2.547-.949 5.75-1.687l3.172-.762c5.312-.95 5.312-.95 8.078-.551z" fill="#bf9dc2"/><path d="M597 282.75c1.153 2.594 1.234 4.44 1 7.25l-2 1-2-9h-14l-1 3-3.375.375c-3.656.272-3.656.272-5.625 2.625l-5.625.625-3.039.227L559 289c5.02-4.081 10.546-5.403 17-5v-2c5.63-2.815 16.135-3.507 21 .75z" fill="#d4bed6"/><path d="M424 536h3c-.613 2.962-1.254 4.381-3 7l-2 7-1 2h-2l-1 14c-2-2-2-2-2.5-5.75.09-6.911 3.575-13.131 6.5-19.25l-4 1 6-6z" fill="#9d6ba2"/><path d="M778 252c4.827 5.486 5.366 12.138 5.313 19.188l-.008 2.239c-.15 7.932-1.527 15.529-5.304 22.573-1-2-1-2-.125-4.687L779 288c.91-5.181 1.183-10.197 1.188-15.437l.037-2.158c.014-5.128-.908-9.454-2.225-14.404v-4z" class="S"/><path d="M609 727l1 2-1 3h-2c-.982 4.053-1.082 7.839-1 12 2.884 0 5.295-1.059 8-2l-1 2h-2v2l7 1v1h-11l1 6c-2-1-2-1-3.102-3.656-1.551-5.772-2.319-12.82-.035-18.484 1.204-1.803 2.605-3.327 4.137-4.859z" class="I"/><path d="M444 668h1v8h11v4h-10v11h-2v-23z" fill="#7b3681"/><path d="M468 671h7c-3 2-3 2-6 2-2.26 3.595-2.209 6.566-2.125 10.75l.055 3.547L467 690c-2.473-1.187-2.473-1.187-5-3-.559-2.375-.559-2.375-.437-5l.066-2.625C462 677 462 677 464 674l3-1 1-2z" fill="#925896"/><path d="M686 584c2.5-.312 2.5-.312 5 0 2.825 2.825 2.3 4.748 2.313 8.688-.145 7.906-1.117 12.223-6.687 18-2.754 2.596-5.606 5.026-8.625 7.313l-2-1 2.555-2.23 3.32-2.957 1.684-1.463c3.182-2.856 5.421-5.063 6.441-9.35.137-2.646.191-5.175.125-7.812l-.027-2.1L690 586l-6 1 2-3z" class="J"/><path d="M557 518c2.75 1.231 4.858 2.858 7 5 .368 3.033.42 5.972 0 9-2 2.063-2 2.063-4 3l1-1.562c1.32-3.218 1.132-5.995 1-9.437-4.765-2.814-9.615-2.55-15-2-3.09 1.293-3.09 1.293-5 3 0-3 0-3 1.875-5.187 4.392-2.548 8.156-2.63 13.125-1.812z" class="R"/><path d="M814 716c2.758 1.379 3.439 3.377 5 6l1.5 1.5c1.938 1.938 3.132 4.137 4.5 6.5l1 1c.4 4.164.442 6.323-1.875 9.875-2.631 2.631-3.397 3.095-7.125 3.25-3-.125-3-.125-5-1.125v-2l2.152-.184 2.785-.254 2.777-.246c2.247-.077 2.247-.077 3.285-1.316.658-5.552.658-5.552-1.812-10.187L819 727c-2.398-3.505-3.773-6.943-5-11z" fill="#c1a0c3"/><path d="M503 674v1l-3.437.438c-3.37.174-3.37.174-4.562 1.563l-.125 4.5-.008 2.469c-.092 2.027-.092 2.027 1.133 3.031l4.063.563L504 688l1-2v3l2 1c-2.769 2.606-4.369 3.913-8.187 4.438L496 694l-2-3h10v-2l-1.863.176c-2.453.137-4.701.161-7.137-.176-2.807-2.807-2.968-4.694-3.375-8.625C492 677 492 677 493 675.063c3.266-1.735 6.344-1.242 10-1.062z" fill="#af85b2"/><path d="M532 663h1l.125 4.75.07 2.672c-.204 2.692-.83 4.277-2.195 6.578l-2-2c-3.503-.381-5.363-.402-8.375 1.5L519 678c.813-1.937.813-1.937 2-4l3-1v-2l-8 3v-2h2v-2c9.41-1.517 9.41-1.517 14 1v-8z" class="T"/><path d="M561 309c-1.487 3.719-2.476 5.659-5.875 7.875-2.987 1.075-4.991 1.402-8.125 1.125l-1-3c3.681-4.547 9.263-6.522 15-6z" fill="#732a79"/><path d="M556 712l.188 11.688.076 3.342.029 3.232.048 2.968c-.397 3.229-1.505 5.119-3.341 7.771-1.367-2.734-.349-4.131.511-6.918.894-3.805.696-7.633.614-11.519l-.027-2.506L554 714l-8 1-1 3-4-1c5.287-4.553 8.161-5.037 15-5z" fill="#9e6ca2"/><path d="M634.352 163.77l2.582.006 2.691.037 2.621.002c4.247.029 8.48.169 12.715.51l2.142.171C659 165 659 165 662 168l-35-2c3.121-2.081 3.809-2.249 7.352-2.23z" fill="#bf9ec2"/><path d="M470 736c4.016 8.478 2.672 19.243 0 28l-2 1 .434-1.918c.756-4.112 1.186-8.239 1.629-12.395l.275-2.533L471 742h-2v-3l-4.25.875-2.391.492c-2.328.624-4.25 1.481-6.359 2.633 3.135-5.348 8-7 14-7z" fill="#c1a0c3"/><path d="M353.688 669.688c3.075 1.745 4.515 3.25 6.313 6.313.323 2.761.19 5.204 0 8h-1l-.75-3.812c-.734-3.015-.984-3.953-3.375-6.062L353 673v-2l-5.312.313-2.988.176c-2.669.324-2.669.324-4.48 1.699-1.643 2.443-1.963 4.601-2.406 7.5l-.48 3.012L337 686h-1c-.861-9.677-.861-9.677 2.313-13.562 4.593-4.166 9.476-4.259 15.375-2.75z" class="U"/><path d="M640 521l2 1c-3.625 4.875-3.625 4.875-7 6-2.334 2.762-4.479 5.638-6.648 8.531-2.541 2.668-3.744 3.214-7.352 3.469 2.737-4.422 5.572-7.707 9.5-11.187l2.844-2.543c2.167-1.852 4.349-3.599 6.656-5.27z" fill="#905795"/><path d="M551.598 627.902l4.465.035 2.299.014L564 628v2l-3.176-.07-4.137-.055-2.092-.051c-3.767-.036-5.38.032-8.596 2.176-5.06 2.131-9.603 2.335-15 2.313l-2.367.049c-4.971.004-8.276-.715-12.633-3.361 2.667-1.333 4.167-.671 7 0v2h15v-2l1.934-.402 2.504-.535 2.496-.527 6.664-1.633z" fill="#ab7fae"/><path d="M334 432l1 2c-1.064 2-1.064 2-2.711 4.43l-1.773 2.66-1.891 2.785-3.648 5.43-1.654 2.437c-1.249 2.132-1.879 3.844-2.323 6.258h-2l-1 5-3 1v2h-2c1.75-4.875 1.75-4.875 4-6l1.952-4.79c2.22-4.681 5.325-8.876 8.236-13.148l1.982-2.939L334 432z" fill="#bb97be"/><path d="M512 724c2.278 2.278 1.185 7.692 1.188 10.75l.037 2.75c.01 4.595-.013 8.339-2.225 12.5-.87-2.997-1.118-5.65-1.098-8.766l.01-2.695.025-2.789.014-2.836L510 726l-9 2c2-3 2-3 3.813-3.687 2.44-.349 4.726-.446 7.188-.312z" fill="#c1a1c4"/><path d="M425 686c-.573 2.867-.861 3.861-3 6-2.496.301-2.496.301-5.437.313l-2.934.051C411 692 411 692 409.152 690.605 408 689 408 689 408 687l2.301.289 3.012.336 2.988.352c3.626.031 5.012-1.977 8.699-1.977z" fill="#803e86"/><path d="M475 820l2 1c.414 2.066.414 2.066.625 4.563l.227 2.504L478 830c-24.406.663-24.406.663-32-3l-1-2 2.281.621c8.942 2.268 17.527 3.037 26.719 3.379l1-9z" fill="#a77aab"/><path d="M667.25 509.938l3.266.027L673 510l1 2-2.527.148c-6.694.445-12.97 1.198-19.473 2.852v2l-5 1-1 3-4-1c9.226-6.704 9.226-6.704 15-7v-2c3.462-1.067 6.64-1.102 10.25-1.062z" fill="#d5bfd7"/><path d="M620 592c1.125 3.75 1.125 3.75 0 6l-.316 5.008-.127 2.988-.119 3.129-.131 3.152L619 620l-1-3h-2c-.533-9.187.553-16.46 4-25z" class="B"/><path d="M764 252c3.236 1.618 3.898 4.29 5.172 7.57 1.071 4.435 1.202 8.632 1.203 13.18l.004 2.472c-.084 4.628-.626 8.428-2.379 12.778h-2l1-3.125c2.244-9.171 2.06-18.273-2.125-26.789C764 256 764 256 764 252z" fill="#ab7faf"/><path d="M479 242l1 4-1 1c-2.957 11.909-3.637 23.78-4 36h-1l-.062-12.062-.025-3.436c-.043-14.744-.043-14.744 3.15-21.439l1.098-2.34L479 242z" fill="#c4a5c7"/><path d="M422 800l-1.863 1.207-2.449 1.605-2.426 1.582c-2.262 1.495-2.262 1.495-3.867 3.305C410 809 410 809 407 809c-.687-1.812-.687-1.812-1-4 2.106-2.673 4.247-3.696 7.438-4.75l2.309-.797c2.459-.494 3.901-.246 6.254.547z" class="E"/><path d="M281 618l1 3-3.008 5.281c-1.079 1.87-1.651 3.588-1.992 5.719h-2l-.312 1.938L274 636l-3 1v3h-2l-1 4-4 1 4-7h2l.816-2.223c1.145-2.686 2.45-4.83 4.121-7.215 2.345-3.429 4.323-6.794 6.063-10.562z" fill="#a575a8"/><path d="M253 476c1 2 1 2 .215 4.684L252 484l-1.184 3.473-1.254 3.59-1.246 3.598c-1.201 3.048-2.423 5.669-4.316 8.34h-2l-1 5c-1.145-3.43-1.036-3.916.512-7.504l2.176-4.059c3.004-5.72 5.578-11.349 7.621-17.496C252 477 252 477 253 476z" fill="#c6a8c8"/><path d="M68 543l2 1-3 2.438c-2.069 2.025-2.92 3.081-3.398 5.965.021 2.203.199 4.403.398 6.598l14 1v1l-16 1c-1.597-3.193-1.375-6.526-1-10 1.688-3.713 4.03-6.234 7-9z" class="J"/><path d="M418.09 673.867C420 674 420 674 422 675v4h-12c1.48-5.92 2.236-5.112 8.09-5.133z" fill="#e2d4e4"/><path d="M556.563 288.938L559 289l-1.75.625c-2.526 1.285-2.526 1.285-3.875 4.375-3.077 3.887-5.108 3.77-9.824 4.434-4.008.89-6.417 2.977-9.551 5.566l-2-1c6.059-4.442 12.192-8.345 18.848-11.836 4.041-2.186 4.041-2.186 5.715-2.227z" fill="#ab7eae"/><path d="M236 448h3c-.599 3.356-1.846 5.378-4 8v-3c-6.135 3.877-11.661 8.083-17 13l-2-1c5.653-5.258 11.266-10.422 17.539-14.941 1.439-.984 1.439-.984 2.461-2.059z" class="Q"/><path d="M795 300c1 2 1 2 .25 4.563C794 307 794 307 791 308l-2 6-2 3h-2l.375 3.813.211 2.145c.341 2.343.341 2.343 2.414 5.043l-4-2c-.862-9.519-.862-9.519 2.25-13.687l1.379-1.648c1.435-1.741 2.48-3.498 3.559-5.477C793 302 793 302 795 300z" class="K"/><path d="M396 673l4 2v16h-3l-1-18z" fill="#78317d"/><path d="M505 673l4 2v13l-4 1v-16z" fill="#78317e"/><path d="M330 556c3.375.547 5.082 1.055 8 3 .408 2.712.133 5.244 0 8l-3.75 1.563-2.109.879C330 570 330 570 326 569l9-2v-8l-5-1v-2z" class="G"/><path d="M559 306l2 1-4.312 2.5-2.426 1.406C552 312 552 312 549 312l-2 6 3 1-4 3-2-1 1-4-4-1c4.571-3.452 8.685-5.894 14-8l2.313-1.25L559 306z" class="D"/><path d="M574 303l5 1-1 6-2.598.586c-5.849 1.332-11.66 2.678-17.402 4.414v-2l2.484-.805 3.266-1.07 3.234-1.055c2.93-.965 2.93-.965 5.219-2.203C574 307 574 307 577 307v-3l-3-1z" fill="#aa7dae"/><path d="M344 671h9v2l1.938.938C357 675 357 675 358 676c.361 7.459.361 7.459-2 11l-1-12-12-2 1-2z" fill="#742b7a"/><path d="M200 652h2c-1.488 5.434-2.916 10.234-6 15-.696 2.191-.696 2.191-1 4h-2l-.375 1.938L192 675l-2 1c.75-4.75.75-4.75 3-7 1.078-2.956 1.979-5.949 2.902-8.957 1.079-2.99 2.262-5.45 4.098-8.043z" class="P"/><path d="M619 748c3.192.594 5.368 1.259 7.512 3.773C628.963 755.552 630 757.357 630 762l-4.875.125-2.742.07C620 762 620 762 618 760l11 1v-2h-4l-.187-3.312c-.418-3.833-.418-3.833-3.375-5.562L619 749v-1z" fill="#925897"/><path d="M501 728v3l-2.125.625c-5.717 2.734-8.617 6.568-10.875 12.375-2.062 1.125-2.062 1.125-4 2l-1 3c1.182-8.525 8.063-14.381 14.301-19.785C499 728 499 728 501 728z" fill="#ae84b2"/><path d="M468 675l2 1-1 1-.062 4.563.027 2.504L469 686l6 2v2l-7-1 1 3h-4l-1-4 2 1-.07-2.555-.055-3.32-.07-3.305C466 677 466 677 468 675z" class="K"/><path d="M369 675h2l-.437 8.938-.119 2.576-.127 2.451-.111 2.269C370 693 370 693 369 694h-5v-2h4l-.035-3.465-.027-4.473-.025-2.287L368 676l1-1z" fill="#caaecc"/><path d="M473 628l2 1c-2.561 3.13-5.158 3.924-9 5-7.95.768-14.622.001-22-3v-2h4v2c9.456 2.045 16.598 1.736 25-3z" fill="#ab7fae"/><path d="M328 554l1 2-2.129-.492c-6.916-1.223-13.997-.758-20.871.492-2.673.083-5.324.046-8 0v-1l8.563-1.5 2.424-.434c13.031-2.234 13.031-2.234 19.014.934z" fill="#c2a2c4"/><path d="M572 299c-2.709 1.354-5.009 1.065-8 1v3l-2.379.734c-5.986 1.91-11.315 3.889-16.621 7.266l-1-2c6.625-4 6.625-4 10-4v-2l8-1 1-3c3.378-.845 5.675-1.108 9 0z" class="U"/><path d="M420 796c28.645-.544 28.645-.544 37 5-1.812.625-1.812.625-4 1l-3-2c-9.716-2.541-20.019-2.579-30-3v-1z" fill="#d5bfd6"/><path d="M92 560l-1 4-1-2-26 1v-1c9.499-1.617 18.368-2.263 28-2z" fill="#dfcfe0"/><path d="M80.328 557.805l2.422.02 2.5.051 2.547.027L94 558l-1 6-2-1 1-3H72c3.625-1.812 4.595-2.249 8.328-2.195z" fill="#8f5494"/><path d="M686 218l2 1-1.5 1.188c-1.727 1.755-1.727 1.755-1.812 4.375.083 2.615.083 2.615 2.313 4.438 5.187.489 7.669-.308 12-3 2.313.313 2.313.313 4 1-4.958 3.449-8.669 4.713-14.75 4.453-2.25-.453-2.25-.453-4.937-2.641C682 226 682 226 682.063 223.375c.973-2.464 1.913-3.702 3.938-5.375z" fill="#c1a1c4"/><path d="M476 672c6.875 1.875 6.875 1.875 8 3l.125 4.438.008 2.434C484 684 484 684 483 686h-2l-.078-1.793c-.379-5.279-1.028-8.313-4.922-12.207z" fill="#79327e"/><path d="M504 671v2l-1.863.332-2.449.48-2.426.457c-2.554.825-3.635 1.615-5.262 3.73-.727 3.108-.727 3.108-1 6h-1c-.606-7.872-.606-7.872 1.375-11.562 4.068-2.228 8.087-1.749 12.625-1.437z" class="F"/><path d="M399 529c0 3 0 3-1 6l6-5 2 1-3.687 3.875-2.074 2.18c-2.334 2.029-4.323 2.975-7.238 3.945l1.313-4.312.738-2.426c.991-2.361 2.03-3.601 3.949-5.262z" class="S"/><path d="M252 420l1 2-1 3-2.16-.105c-6.581-.242-6.581-.242-12.777 1.668-3.295 1.547-3.812 1.497-7.062.438 5.871-3.805 9.951-5.836 17-5 2.5 1 2.5 1 4 2l1-4z" class="J"/><path d="M468 542l2 1-1.461 1.391-1.914 1.859-1.898 1.828c-1.712 1.905-2.646 3.62-3.727 5.922-1.937 2.25-1.937 2.25-4 4h-3c1.659-4.325 4.871-7.094 8.125-10.25l1.707-1.68L468 542z" fill="#a170a5"/><path d="M621.188 510.938l3.855.027L628 511v1l-3.43.078-4.445.172-2.262.043c-2.435.067-2.435.067-5.863.707-1.333 1.833-1.333 1.833-2 4-1.945 1.484-1.945 1.484-4.125 2.75l-2.195 1.297L602 522c1.36-3.12 2.833-5.008 5.438-7.187l1.809-1.543c3.783-2.738 7.439-2.373 11.941-2.332zM798 399l2 1-1.437 1.25c-1.735 1.623-1.735 1.623-1.875 3.813L796 407l-6 2c-3.346 2.442-3.924 3.62-4.75 7.75L785 420h-1c-.957-6.698-.957-6.698 1.57-10.137 2.068-2.064 4.193-3.983 6.43-5.863l1.867-1.613c1.358-1.153 2.742-2.274 4.133-3.387z" fill="#ae83b1"/><path d="M542 311l2 1-4 3 1 2c-3.75 3-3.75 3-6 3v2l-5 2c.288-3.214 1.099-4.093 3.504-6.359l3.059-2.391 3.066-2.422L542 311z" fill="#d0b8d2"/><path d="M476 805l1.563.875c2.58 1.28 2.58 1.28 6.125 2.063L487 809l1 3c2.554 1.25 2.554 1.25 5.563 2.188l3.066 1.043L499 816c-4.573 1.624-7.796.056-12.16-1.613-4.256-2.078-7.648-4.902-10.84-8.387v-1z" fill="#9c68a0"/><path d="M559 799h3v4h-19v-2h16v-2z" fill="#712777"/><path d="M221 548c1 2 1 2 .441 4.164l-.879 2.461-.871 2.477L219 559h-2l.25 2c-.351 4.212-2.22 7.347-4.25 11h-2c1.262-5.276 3.27-9.741 5.758-14.555 1.571-3.093 2.918-6.24 4.242-9.445z" class="V"/><path d="M308 573h4l-1 5 2 1c2.587 4.586 2.23 9.212 2.125 14.313l-.027 2.533L315 602h-1l-.184-3.543-.254-4.645-.119-2.33c-.218-3.915-.53-7.654-1.443-11.482l-3-1-1-6z" class="H"/><path d="M442.813 509.938l2.957.027L448 510v2l-2.055.113c-6.676.472-12.622 1.706-18.945 3.887v-2c5.086-3.633 9.686-4.136 15.813-4.062z" fill="#d0b8d2"/><path d="M567 734h1l1 16 5-2c2.313.375 2.313.375 4 1l-4 1v2h-6c-1.594-3.188-1.102-6.629-1.062-10.125l.014-2.285L567 734z" fill="#a97dad"/><path d="M524 671v2l-2.375 2.25c-2.767 2.898-3.645 4.92-4.625 8.75h-2c-.25-7.625-.25-7.625 2-11 2.64-1.618 3.84-2 7-2z" fill="#732a79"/><path d="M82.766 537.886l2.269.016 2.451.01 2.576.025 2.588.014L99 538v1l-3 .113c-7.215.337-13.284 1.078-20 3.887-3.5.188-3.5.188-6 0l1-2c2.031-.598 2.031-.598 4.5-1.062 2.616-.501 4.856-1.896 7.266-2.051z" fill="#ad83b1"/><path d="M832 524l9.375 1.563L844 526v2l3.125-.187c4.11.199 6.364 1.132 9.875 3.188-2.898 1.449-4.592.507-7.687-.312l-3.262-.855L836 527l-4-1v-2z" fill="#d3bdd6"/><path d="M218 435l2 1c-4.632 6.176-8.566 9.251-16 11 3.588-5.382 8.7-8.49 14-12z" fill="#945d99"/><path d="M489 253h1c.125 7.625.125 7.625-1 11-.148 1.699-.247 3.402-.316 5.105l-.127 2.979-.119 3.104-.131 3.139L488 286h-1l-.125-12.562-.051-3.58c-.034-6.011.065-11.199 2.176-16.857z" fill="#c5a6c7"/><path d="M749 324l2 1c-2.395 2.899-4.312 3.502-8 4l-1 3c-1.707.766-1.707.766-3.812 1.25l-2.082.516c-2.3.256-3.912-.075-6.105-.766l2.75-1.125c4.694-1.985 9.17-4.391 13.676-6.766L749 324z" fill="#b791ba"/><path d="M442 768h1v17l2 1-4 1-.062-8.937-.025-2.576-.01-2.451-.016-2.269C441 769 441 769 442 768z" fill="#702576"/><path d="M560 316c-6.25 6.25-6.25 6.25-12 7 .974-3.603 1.69-4.798 4.875-6.875 3.086-1.111 4.175-1.373 7.125-.125z" fill="#ede4ee"/><path d="M137 510l2 1-3 2-3 5c-2 2.313-2 2.313-4 4h-3v-2h2l.773-1.797c1.345-2.415 2.719-3.715 4.852-5.453l1.914-1.578L137 510z" fill="#945b98"/><path d="M704 342l3 2c.432 2.43.432 2.43.512 5.445l.107 3.262.068 3.418.104 3.441L708 368c-2.102-3.844-2.355-6.918-2.562-11.312-.246-4.968-.669-9.78-1.437-14.687z" fill="#a271a6"/><path d="M523 334c1.532 4.084.631 7.795 0 12l-1-2h-2l-1 7c-1.613-4.032-.371-7.023 1-11 .956-2.022 1.943-4.03 3-6z" class="Q"/><path d="M568 305h9v2c-4.648 2.399-8.911 2.2-14 2v-2h5v-2z" fill="#702576"/><path d="M580 284c-1 1-1 1-4.437 1.438-3.603.211-3.603.211-5.562 2.563l-5.625.625-3.039.227L559 289c3.292-2.872 6.265-3.798 10.5-4.75l3.406-.797c2.847-.417 4.431-.419 7.094.547z" class="B"/><path d="M342 671c1.945.242 1.945.242 4.125.875l2.195.617L350 673v1c-6.625 2-6.625 2-10 2l-2 12h-1c-.557-10.622-.557-10.622 3-15l2-2z" fill="#8d5292"/><path d="M564 300l4 1-2 1h11c-3.451 2.3-5.941 2.474-10 3l-1 1c-2 .041-4 .043-6 0l1-3h3v-3z" fill="#ddccdf"/><path d="M629.297 165.707l3.652.029 3.801.076 3.848.041L650 166v1l-2.187.076-9.75.362-3.443.119-3.271.127-3.031.111c-2.277-.048-2.277-.048-3.317 1.205h-6c3.396-3.132 5.745-3.357 10.297-3.293z" fill="#e8dce9"/><path d="M418 671c4.75.75 4.75.75 7 3l1 7h-3l-1-6h-2v-2h-2v-2z" class="C"/><path d="M263 586c1.245 2.491.777 3.411 0 6h-2l-.75 2.625c-1.318 3.558-3.052 6.298-5.25 9.375-.637-1.793-.637-1.793-1-4 1.148-1.738 2.31-3.471 3.586-5.117 2.107-2.805 3.722-5.813 5.414-8.883z" fill="#c6a8c8"/><path d="M628 574h2l-1 6h-2l-.375 2.25c-.58 2.551-1.362 4.477-2.625 6.75h-2l-1 3c.645-4.333 2.189-7.867 4.063-11.812l1.66-3.52L628 574z" class="G"/><path d="M248 560v2l-2.449.48c-8.448 1.824-8.448 1.824-14.551 7.52l-2-1c5.753-6.724 9.967-9 19-9z" class="K"/><path d="M480 772h2v4l1.898-.91 2.477-1.152 2.461-1.16L491 772l2 1c-1.827 2.463-3.23 3.834-6.27 4.488L480 778v-6z" fill="#bc99bf"/><path d="M585 703l2 1-3.875 4.5-2.18 2.531L579 713h-2v3l-2-1c3.625-6.875 3.625-6.875 7-8v-2l3-2z" class="D"/><path d="M230 678h2v3l-3 1-1.875 2.438c-2.302 2.776-3.702 3.597-7.125 4.563h-3l5.375-4.5 3.023-2.531C228 680 228 680 230 680v-2z" fill="#9f6ea4"/><path d="M517 353c.934 3.01 1.044 3.867 0 7l-1.062 8.188-.275 2.271L515 376h-1l.375-10.375.094-2.984.117-2.852.095-2.634C515 355 515 355 517 353z" class="K"/><path d="M574 317v1c-5.571 1.592-10.211 2.207-16 2v2l-5 1c5.866-6.769 12.65-6.267 21-6z" fill="#d4bed6"/><path d="M381 675h3l-1 16h-2v-16z" fill="#6d2073"/><path d="M217 666c1 2 1 2 .582 3.883-1.815 5.289-3.973 10.169-6.582 15.117-1.864-5.174.806-9.285 3-14 .95-1.696 1.922-3.383 3-5z" fill="#ccb2cf"/><path d="M225 588l12 2v5h-2v-3h-8l-2-4z" fill="#a77aab"/><path d="M870 518c6.304.584 11.987 2.041 18 4-3.654 1.268-6.491.757-10.25.063l-3.266-.59L872 521v-2l-2-1z" class="W"/><path d="M223 480c1 2 1 2 .512 4.023l-.824 2.352-.801 2.336c-1.653 4.267-1.653 4.267-2.887 6.289l-3 1c1.74-5.813 3.811-10.832 7-16z" fill="#a87bac"/><path d="M779 286c1 2 1 2 .109 4.969l-1.359 3.531-1.328 3.531C775 301 775 301 772 303l3-12h2l.438-1.937C778 287 778 287 779 286z" fill="#965f9a"/><path d="M814 270h1c.366 4.517.366 4.517-1.375 6.813C812 278 812 278 810 278l-1 6h-3c1.323-3.598 2.919-6.637 5.063-9.812l1.598-2.395L814 270z" fill="#a87aab"/><path d="M215 497c1 2 1 2 .188 5-1.187 3-1.187 3-3.187 5l-1.625 4.625-.789 2.477L209 516h-2c1.786-6.954 4.256-12.873 8-19z" class="D"/><path d="M238 446h3c.375 3.188.375 3.188 0 7-1.812 2.14-3.658 3.39-6 5 1.109-3.487 2.263-6.775 4-10l-2-1 1-1z" fill="#88498d"/><use xlink:href="#B" fill="#ae83b1"/><use xlink:href="#B" x="44" y="-38" fill="#ad82b1"/><path d="M470 736v6l-1-3-4.25.875-2.391.492c-2.328.624-4.25 1.481-6.359 2.633 3.135-5.348 8-7 14-7z" fill="#ac80af"/><path d="M186 712l1.582 1.059c6.116 3.781 11.272 4.794 18.418 4.941v1c-14.401.577-14.401.577-19-3-.641-2.109-.641-2.109-1-4z" fill="#c7abca"/><path d="M209 677l3 1-.621 2.012-.816 2.676-.809 2.637c-.717 2.546-1.271 5.076-1.754 7.676l4 1-4 1c-1-1-1-1-1.187-3.937.05-4.797 1.137-9.401 2.188-14.062z" fill="#97609b"/><path d="M546 323v3l-6 4-4-2 3.313-2.5 1.863-1.406C543 323 543 323 546 323z" fill="#f3edf4"/><path d="M686 192h2c1.279 2.557 1.113 4.367 1.098 7.227l-.01 3.125-.025 3.273-.014 3.297L689 217h-1v-21h-2v-4z" fill="#b38cb7"/><path d="M523 794c3.038 1.439 5.78 3.117 8.563 5l2.316 1.563L536 802l3 2c-5.98-.725-10.512-3.321-14.437-7.75L523 794z" fill="#b58fb8"/><path d="M471 786l8.125-.125 2.305-.051c4.603-.04 8.235.417 12.57 2.176v1c-2.333.042-4.667.041-7 0l-1-1c-2.526-.237-5.031-.422-7.562-.562l-2.154-.131L471 787v-1z" fill="#97619c"/><path d="M873 649c5.363.335 9.128 3.541 13 7 1.035 1.306 2.046 2.634 3 4-4.894-2.259-9.274-5.097-13-9l-3-2z" fill="#a87aac"/><path d="M508 599h2v23c-2.031-3.047-2.247-3.601-2.195-7.012l.02-2.295.051-2.381.027-2.416L508 602l-2-1 2-2z" fill="#ad82b1"/><path d="M549 362c-.375 1.938-.375 1.938-1 4-2.709 1.354-5.009 1.065-8 1 .75-1.937.75-1.937 2-4 2.495-.966 4.297-1 7-1z" class="N"/><path d="M962 693c4.875 1.875 4.875 1.875 6 3 .368 3.033.42 5.972 0 9-2 2.063-2 2.063-4 3l-2-1 1.938-1.062c2.884-2.709 2.773-5.096 3.063-8.937l-1.937-.312L963 696l-1-3z" class="B"/><path d="M463 678h2v6h2v6c-2-1.5-2-1.5-4-4-.358-2.759-.187-5.201 0-8z" class="X"/><path d="M524 333l6 1c-1.098 2.993-1.677 3.846-4.625 5.25L523 340l1-7z" fill="#f6f2f7"/><path d="M814 716c2.758 1.379 3.439 3.377 5 6l1.563 1.438c2.053 2.232 2.607 4.688 3.438 7.563-5.731-4.182-7.967-8.275-10-15z" fill="#a778aa"/><path d="M411 684h11l-2 3c-6.125.438-6.125.438-9-1v-2z" fill="#f9f7fa"/><path d="M846 629c3.094.427 6.056.938 9 2 1.5 2.5 1.5 2.5 2 5l1 2c-3.015-1.406-5.595-3.061-8.25-5.062l-2.141-1.598L846 630v-1z" class="L"/><path d="M206 516l1 4h-2l-2 10h-3l1.438-4.875.809-2.742C203 520 203 520 204 518h2v-2z" fill="#a678aa"/><path d="M548 360c-2.647 1.461-3.894 2-7 2l-1 3c-3 2-3 2-5.187 1.625L533 366c10.39-7.646 10.39-7.646 15-6z" fill="#bd9ac0"/><path d="M837 256l3 2c-.437 5.685-.732 6.732-5 11l2-13z" class="R"/><path d="M549 181l-7.375 2.563-2.117.748L534 186l-2-1c5.415-4.094 10.188-5.948 17-4z" class="S"/><path d="M534 664h1v15h-2l-2-5 2-2c.458-1.972.458-1.972.625-4.125L534 664z" class="Y"/><path d="M393 537c.688 1.688.688 1.688 1 4-1.25 2.688-1.25 2.688-3 5l-3 1c.503-4.401 2.088-6.712 5-10z" fill="#a97cac"/><path d="M785 420l2 1c3.861 1.287 6.942 1.138 11 1-1.062 1.5-1.062 1.5-3 3-6.082.652-6.082.652-8.937-1.375C785 422 785 422 785 420z" class="G"/><path d="M234 700l2 1c-2.463 4.31-6.413 6.412-11 8l-2-1 11-8z" fill="#c09fc3"/><path d="M189 676c1.601 4.002.293 7.046-1 11h-2v5h-1c-.45-6.006 1.358-10.717 4-16z" fill="#bd9cc0"/><path d="M514 676h1v8l4 1v3l-5-1v-11z" fill="#915795"/><path d="M210 572c1.113 2.8 1.035 3.901.004 6.797l-1.441 2.953-1.434 2.984L206 587h-2c1.599-5.196 3.741-10.066 6-15z" fill="#d2bad4"/><path d="M427 536c-.25 1.875-.25 1.875-1 4-1.812 1.313-1.812 1.313-4 2-2.25-.375-2.25-.375-4-1 5.625-5 5.625-5 9-5z" class="H"/><path d="M236 448h3c-.599 3.356-1.846 5.378-4 8v-3l-3 1c1.152-2.468 2.048-4.048 4-6z" fill="#d1b9d3"/><path d="M569 321v2c-3.823 1.423-6.913 2.24-11 2v-2c3.634-2.326 6.771-2.163 11-2z" fill="#6f2375"/><path d="M601 195c3.752-.349 5.512-.329 8.688 1.813L615 202l-6-1-1-2-7-3v-1z" class="O"/><path d="M489 676c3 2 3 2 3.512 3.945L493 686h-2l-1 2c-1-1-1-1-1.098-3.504l.035-3.059.027-3.066L489 676z" fill="#813f86"/><path d="M746 626c7.566-.372 7.566-.372 9.762 1.512L757 629l-1.828-.035-2.422-.027-2.391-.035c-2.266.094-4.188.465-6.359 1.098v-2h2v-2z" class="I"/><path d="M486 622c-4.75 4-4.75 4-7 4v2l-4-1 2-1v-3c6.75-2.125 6.75-2.125 9-1z" fill="#a475a8"/><path d="M343 689h10v2c-6.625 1.125-6.625 1.125-10 0v-2z" fill="#772f7c"/><path d="M419 669l-8.75 4.125-2.422 1.07L406 675c1.789-3.844 1.789-3.844 3.688-5.25 3.148-1.021 6.028-.876 9.313-.75z" fill="#b48db7"/><path d="M674 597l3 1-3.375 3.5-1.898 1.969C670 605 670 605 668 605v-3c2.813-2.75 2.813-2.75 6-5z" class="Y"/><path d="M453 558l1 2c-1.374 3.664-2.145 5.562-5.687 7.375L446 568c1.668-3.941 4.227-6.789 7-10z" class="P"/><path d="M349 448l1 4-1.875.688c-2.748 1.697-3.057 3.338-4.125 6.313l-2 1c1.557-4.671 4.084-8.087 7-12z" fill="#ba97bd"/><path d="M271 434a29.11 29.11 0 0 1-.812 7.063l-.457 2.098C269 445 269 445 266 447l1-7h2l.438-2.437C270 435 270 435 271 434z" class="B"/><path d="M764 252c2.666 1.333 2.991 2.19 4 5 .165 2.692.09 5.298 0 8-2.876-4.314-4-7.807-4-13z" fill="#c7a9c9"/><path d="M548 195c-5.041 2.815-9.226 4.519-15 5 1.389-2.777 2.968-3.034 5.813-4.187l2.645-1.105c2.691-.748 3.958-.653 6.543.293z" fill="#cfb6d1"/><path d="M812 741h9l-1 3c-5.75.125-5.75.125-8-1v-2z" class="I"/><path d="M468 689h10v2c-2.957 1.478-5.742 1.06-9 1l-1-3z" class="C"/><path d="M425 686c-.573 2.867-.861 3.861-3 6-2.125-.375-2.125-.375-4-1h3v-2l-2-1c3-2 3-2 6-2z" fill="#86468b"/><path d="M676 538h2c-1.361 5.198-3.467 8.095-7 12l-1-2c1.145-2.383 1.145-2.383 2.813-5.125l1.645-2.758L676 538z" fill="#b58fb8"/><path d="M403 513h1c.324 5.504.533 9.437-3 14-1.493-2.987-.406-4.952.438-8.125l.871-3.32L403 513z" class="L"/><path d="M842 510c4.969.514 9.29 1.234 14 3-3.835 1.381-7.072.857-11 0-1.937-1.562-1.937-1.562-3-3z" fill="#a16fa5"/><path d="M202 447l2 1-2 5h-4c-2.201.933-2.201.933-4 2 2.416-3.192 4.68-5.747 8-8z" fill="#9e6ba2"/><path d="M805 397v2h-2v2c-4.471 4-4.471 4-7 4 1.526-3.885 4.502-8 9-8z" class="Y"/><path d="M730 335l-4.25 1.563-2.391.879c-2.55.604-3.913.406-6.359-.441 3.589-3.589 8.349-3.363 13-2z" fill="#a87aac"/><path d="M475 671c-3 2-3 2-6 2l-2 4h-2c0-3 0-3 1.063-4.687 2.911-1.972 5.518-1.506 8.938-1.312z" fill="#742a7a"/><path d="M305 622l1 2c-3.412 6.706-3.412 6.706-6 8 .503-4.401 2.088-6.712 5-10z" fill="#cbafcd"/><path d="M223 612h2c.313 2.813.313 2.813 0 6-2.5 1.875-2.5 1.875-5 3l3-9z" fill="#8f5493"/><path d="M354 558c.75 1.625.75 1.625 1 4-1.812 3.25-1.812 3.25-4 6h-2c1.156-3.912 2.355-6.875 5-10z" class="J"/><path d="M532 535l-1 4-1-2-11 1c3.481-3.481 8.275-3 13-3z" fill="#cdb3cf"/><path d="M414 522l2 1c-2.199 3.357-4.383 5.238-8 7l-2-1 8-7z" class="B"/><path d="M640 521l2 1c-2.883 4.214-5.043 5.761-10 7 2.416-3.192 4.68-5.747 8-8z" class="W"/><path d="M570 299l2 1v1h5c-3.9 2.6-7.474 2.151-12 2 1.634-1.708 2.869-2.935 5-4z" fill="#f7f3f7"/><path d="M740 215c4.38.509 7.41 1.407 11 4l2 3-1.703-.867c-2.326-1.147-4.675-2.211-7.047-3.258l-2.422-1.07L740 216v-1z" fill="#caaecc"/><path d="M692 174l3 2v2h2v4h2v5l-1-4h-2c-4-6.75-4-6.75-4-9z" class="V"/><path d="M466 787h5l-2 7c-1.5-1.25-1.5-1.25-3-3v-4z" fill="#905694"/><path d="M487 740h2c-.25 1.875-.25 1.875-1 4l-4 2-1 3c.526-3.788 1.381-6.172 4-9z" fill="#a779aa"/><path d="M920 682l7 1 1 5c-3.914-1.269-5.791-2.512-8-6z" fill="#98639d"/><path d="M115 567h2c.813 1.625.813 1.625 1 4-1.468 2.246-3.159 4.024-5 6 0-3.61.961-6.558 2-10z" fill="#9b679f"/><path d="M907 539h2l-1 4h-8v-2h7v-2z" class="X"/><path d="M296 531l1 4c-1.215 1.922-1.215 1.922-2.937 3.75l-1.715 1.859L291 542l-1-2 6-9z" fill="#b58fb9"/><path d="M310 509l1 4c-1.215 1.922-1.215 1.922-2.937 3.75l-1.715 1.859L305 520l-1-2 6-9z" fill="#be9cc1"/><path d="M218 435l2 1c-2.234 3.351-3.262 4.816-7.25 5.813L210 442c2.516-2.606 5.051-4.894 8-7z" fill="#9f6da4"/><path d="M834 269l1 4c-1.215 1.922-1.215 1.922-2.937 3.75l-1.715 1.859L829 280l-1-2 6-9z" fill="#be9cc0"/><path d="M475 820l2 1v8h-3l1-9z" fill="#955e9a"/><path d="M527 669c-2.502 1.668-4.411 2.624-7.187 3.625l-2.168.789L516 674v-2h2v-2c3.196-1.065 5.657-1.074 9-1z" fill="#ab7faf"/><path d="M64 600c.75 1.625.75 1.625 1 4-1.937 3.25-1.937 3.25-4 6-.75-1.625-.75-1.625-1-4l4-6z" class="U"/><path d="M441 577c1.333 2.667.671 4.167 0 7h-2l-2 4c.51-4.389 1.522-7.337 4-11z" fill="#a678aa"/><path d="M343 576h2l-1 4h-2l-.375 2.438L341 585l-2 1c.563-3.941 1.679-6.751 4-10z" fill="#b48eb8"/><path d="M85 570l1 2-3 6h-3c1.186-3.375 2.276-5.647 5-8z" class="B"/><path d="M768 565c2.834 3.203 3.521 5.781 4 10l-4-2v-8z" fill="#8c5091"/><path d="M517 556l1 2-3 6h-3c1.186-3.375 2.276-5.647 5-8z" fill="#a474a8"/><path d="M83 540v1c-4.537 1.452-8.181 2.235-13 2 1-2 1-2 2.563-2.625 3.501-.539 6.896-.434 10.438-.375z" class="T"/><path d="M253 476c1 2 1 2 .25 4.875-1.135 2.838-2.291 4.81-4.25 7.125.543-4.565 1.795-7.973 4-12z" class="O"/><path d="M798 399l2 1-1.437 1.25c-1.725 1.932-2.128 3.232-2.562 5.75l-4-1 6-7z" class="M"/><path d="M554 313h4v2c-5.75 3-5.75 3-8 3v-3h4v-2z" fill="#87488c"/><path d="M494 241c1 2 1 2 .25 4.875-1.135 2.838-2.291 4.81-4.25 7.125.468-4.776 1.243-8.045 4-12z" fill="#caaecd"/><path d="M529 186l2 1c-4.297 4.004-4.297 4.004-6 5-2.203-.348-2.203-.348-4-1l3.875-2.562 2.18-1.441L529 186z" fill="#b28ab5"/><path d="M554 732h2c-.615 5.538-.615 5.538-2.562 7.875L552 741c.875-7.875.875-7.875 2-9z" fill="#aa7dae"/><path d="M532 684h3v6l-5-1 2-5z" class="X"/><path d="M408 687c2.375.313 2.375.313 5 1l2 3h-5l-2-4z" fill="#78337f"/><path d="M415 670h6l-3 1v2l2 1h-7l2-1v-3z" fill="#905795"/><path d="M387 671h8v2l-9 1 1-3z" fill="#752c7b"/><path d="M181 567c1.264 3.793.401 5.341-1 9l-1 2h-2l1.438-4.375.809-2.461C180 569 180 569 181 567z" class="W"/><path d="M524 546c0 3.867-1.419 6.509-3 10h-3l1-3 2-1a124.97 124.97 0 0 0 2-5l1-1z" class="I"/><path d="M528 542l1 3-2 3-1 3h-3c1.249-3.459 2.675-6.147 5-9z" fill="#7e3b84"/><path d="M318 458l1 4-4 2v2h-2c1.186-3.375 2.276-5.647 5-8z" class="T"/><path d="M529 336l2 1c-1.312 2-1.312 2-3 4h-3v2l-2-1 6-6z" fill="#99659e"/><path d="M519 192l2 1c-2.354 3.923-4.645 4.839-9 6l2-3h2v-2l3-2z" class="L"/><path d="M532 677l1 2h2v5h-3v-7z" fill="#884a8d"/><path d="M162 608h1v6h-2v3h-2c1.875-6.75 1.875-6.75 3-9z" class="D"/><path d="M511 564l1 2c-1.25 2.563-1.25 2.563-3 5l-3 1c1.186-3.375 2.276-5.647 5-8z" class="B"/><path d="M888 523c7.508-.369 7.508-.369 10 1.5l1 1.5-3.812-.375-2.145-.211C891 525 891 525 888 523z" class="V"/><path d="M650.375 516.25L652 517l-5 1-1 3-4-1c5.415-4.062 5.415-4.062 8.375-3.75z" fill="#b087b4"/><path d="M307 474l1 2c-1.25 3.063-1.25 3.063-3 6l-3 1c1.249-3.459 2.675-6.147 5-9z" fill="#b48eb7"/><path d="M323 448c1.392 4.176-.177 6.135-2 10h-3c1.335-3.594 2.96-6.755 5-10z" fill="#b48cb7"/><path d="M488 322l3 1v3h2l1 4c-1.875-.625-1.875-.625-4-2-1.25-3.125-1.25-3.125-2-6z" class="L"/><path d="M534 317l2 1-2 2 1 2-5 2c.564-3.27 1.5-4.826 4-7z" fill="#b690b9"/><path d="M559 304v3c-1.812 1.063-1.812 1.063-4 2l-3-1c2.174-2.5 3.73-3.436 7-4z" fill="#f9f6f9"/><path d="M501 228l1 2c-1.25 3.063-1.25 3.063-3 6l-3 1c1.249-3.459 2.675-6.147 5-9z" fill="#bd9ac0"/><path d="M701.438 226.25L703 227c-6.4 4.062-6.4 4.062-9.437 3.75L692 230c6.4-4.062 6.4-4.062 9.438-3.75z" fill="#d1b9d3"/><path d="M609 727l1 2-1 3h-2l-1 5c-1-2-1-2-.187-5 1.188-3 1.188-3 3.188-5z" fill="#9a649e"/><path d="M546 343l1 2c-3.135 1.858-5.375 2.201-9 2 2.395-2.899 4.312-3.502 8-4z" fill="#9d69a1"/><path d="M490 296l1 2h2l1 8c-2-1-2-1-3.125-3.312C490 300 490 300 490 296z" class="H"/><defs ><path id="B" d="M836 366l2 1-2.336 2.082-3.039 2.73-1.539 1.369c-2.408 2.17-4.277 4.104-6.086 6.818h-3v-2l5.313-4.437c4.531-3.573 4.531-3.573 8.688-7.562z"/></defs></svg>