<svg xmlns="http://www.w3.org/2000/svg" viewBox="0 0 120 120" xmlns:v="https://vecta.io/nano"><defs><linearGradient id="A" x1="59.999" x2="59.999" y1="120" y2="0" gradientUnits="userSpaceOnUse"><stop offset="0" stop-color="#1d6ff2"/><stop offset="1" stop-color="#1ac8fc"/></linearGradient></defs><g fill-rule="evenodd"><path fill="url(#A)" d="M120 26v68a25.948 25.948 0 0 1-26 26H26A25.948 25.948 0 0 1 0 94V26A25.948 25.948 0 0 1 26 0h68a25.948 25.948 0 0 1 26 26z"/><g fill="#fff"><path d="M82.6,69H97.5a5.5,5.5,0,0,1,0,11H82.6Z"/><path d="M64.3 69a7.853 7.853 0 0 1 7.9 7.9 8.149 8.149 0 0 1-.6 3.1H22.5a5.5 5.5 0 0 1 0-11zm-1.4-36.2v9.6h-6.4L48.7 29a5.197 5.197 0 1 1 9-5.2zm5.5 9.3l27.3 47.3a5.489 5.489 0 0 1-9.5 5.5L69.7 66.2 66.4 60a15.039 15.039 0 0 1 2-17.9z"/><path d="M46 74H33.3L62 24.3a5.489 5.489 0 0 1 9.5 5.5zm-6.7 11.5L34 94.8a5.489 5.489 0 1 1-9.5-5.5l3.9-6.8a8.598 8.598 0 0 1 3.9-.9 7.778 7.778 0 0 1 7 3.9z"/></g></g></svg>