<svg xmlns="http://www.w3.org/2000/svg" width="118.875" height="122.877" xmlns:v="https://vecta.io/nano"><path fill-rule="evenodd" d="M1.432 20.714c9.427 6.476 18.779 12.989 26.673 21.375C23.58 62.076 41.64 78.045 58.111 87.453c6.448 3.683 9.298 6.265 16.476 5.024l28.268 27.696C49.657 138.039-10.045 63.084 1.432 20.714h0zm80.442 64.642l6.201-6.298c1.788-1.819 4.74-1.842 6.559-.053l22.862 22.509c1.818 1.789 1.841 4.741.053 6.559l-6.203 6.299c-1.789 1.818-4.741 1.841-6.56.052L81.924 91.915a4.65 4.65 0 0 1-.05-6.559h0zM7.004 7.467l4.5-5.464c1.929-2.342 5.425-2.68 7.767-.751l23.405 19.281c2.342 1.931 2.677 5.425.75 7.77l-4.502 5.461c-1.93 2.345-5.425 2.68-7.768.751L7.755 15.234c-2.342-1.929-2.682-5.425-.751-7.767h0z"/></svg>