<svg xmlns="http://www.w3.org/2000/svg" width="192" height="192" xmlns:v="https://vecta.io/nano"><path d="M39.094-.663l4.143-.031 11.157-.01 9.356-.01 22.09.008 22.7-.033 19.576-.028 11.654-.019 10.965.017 5.883-.032c10.55.137 18.964 3.344 26.82 10.49 7.914 8.709 9.302 17.994 9.225 29.406l.031 4.143.01 11.157.01 9.356-.008 22.09.033 22.7.028 19.576.019 11.654-.017 10.965.032 5.883c-.137 10.55-3.344 18.964-10.49 26.82-8.709 7.914-17.994 9.302-29.406 9.225l-4.143.031-11.157.01c-3.119-.007-6.237.001-9.356.01a3870.81 3870.81 0 0 1-22.09-.008 2854.93 2854.93 0 0 0-22.7.033l-19.576.028c-3.885-.006-7.769-.005-11.654.019-3.656.021-7.31.013-10.965-.017-1.961-.009-3.922.011-5.883.032-10.55-.137-18.964-3.344-26.82-10.49-7.914-8.709-9.302-17.994-9.225-29.406l-.031-4.143-.01-11.157-.01-9.356.008-22.09-.033-22.7-.028-19.576-.019-11.654.017-10.965-.032-5.883c.137-10.55 3.344-18.964 10.49-26.82C18.397.649 27.682-.74 39.094-.663z" fill="#b4191a"/><path d="M31 77c10.048-.471 17.384-.493 25.5 6 2.427 4.854 2.098 9.684 1.5 15-1.854 5.285-4.229 7.617-9.145 10.07-3.593 1.17-6.938 1.147-10.668 1.055l-2.1-.027L31 109v-8H17v-2h14v-5H21v-1h10v-5h-7v-2h7v-9z" fill="#faf1f1"/><path d="M143 87h19l4 9 4-9h5c-1.728 6.307-3.837 12.441-6.125 18.563l-.805 2.166c-1.944 5.145-1.944 5.145-3.07 6.271-1.666.041-3.334.043-5 0v-4l1.563-1.375c1.729-1.583 1.729-1.583 1.375-4.187-1.066-3.908-2.512-7.542-4.098-11.266C158 91 158 91 158 89l-1.687 1.5C154 92 154 92 149 92l-1 15h-5V87z" fill="#f8ebeb"/><path d="M73 87c2.938 2.063 2.938 2.063 5 5 .313 3.813.313 3.813 0 7H67l1 2h7l2 4c-3.75 2.5-5.559 2.536-10 2-2.937-1.812-2.937-1.812-5-5-.83-4.924-.984-9.308 1.563-13.687C67.013 86.454 69.136 86.39 73 87z" fill="#f9ecec"/><path d="M133 87c2.938 2.063 2.938 2.063 5 5 .313 3.813.313 3.813 0 7h-11l1 2h7l2 4c-3.415 2.102-6.023 2.568-10 2-2.875-1.812-2.875-1.812-5-5-.837-4.921-.982-9.311 1.563-13.687 3.451-1.858 5.573-1.923 9.438-1.312z" fill="#f4dede"/><path d="M38 83c8.429 0 8.429 0 11 2 2.446 3.844 2.23 7.544 1.598 11.906C50 99 50 99 47.875 101.563 45 103 45 103 38 103V83z" fill="#b51a1b"/><path d="M102 87h5l3 9c1.991-2.986 2.941-5.597 4-9h5c-.622 4.508-1.737 8.545-3.312 12.813l-1.238 3.457C113 106 113 106 110.832 106.887L109 107c-7-15.35-7-15.35-7-20z" fill="#f8ebeb"/><path d="M83 79h5v23h2v4h-6c-1.331-2.662-1.113-4.687-1.098-7.664l.01-3.398.025-3.562.014-3.586L83 79zm60 8h12v4l-1 1h-5l-1 15h-5V87z" fill="#fbf5f5"/><path d="M93 87h6v20h-6V87z" fill="#f1d5d5"/><path d="M93 79h6v6h-6v-6z" fill="#eabebe"/><path d="M67 99h11l-2 4-3-1c-1.666-.039-3.334-.045-5 0l-1-3z" fill="#b72021"/><path d="M68 92h5v3h-6l1-3z" fill="#b51819"/></svg>