<?xml version="1.0" encoding="UTF-8"?>
<svg version="1.1" xmlns="http://www.w3.org/2000/svg" width="192" height="192">
<path d="M0 0 C1.38116325 -0.00843315 2.762315 -0.01896704 4.14344788 -0.03141785 C7.8626994 -0.05827141 11.58127479 -0.0538175 15.30057979 -0.04171729 C18.41913126 -0.03454114 21.5375612 -0.04311551 24.65610319 -0.05162269 C32.01954666 -0.07151419 39.38266499 -0.06607507 46.74609375 -0.04394531 C54.31321983 -0.02158816 61.87949243 -0.0391853 69.44653791 -0.0769946 C75.97179963 -0.10833905 82.4967987 -0.11611136 89.02212626 -0.10504085 C92.90697752 -0.09858903 96.79133701 -0.10038513 100.67613029 -0.12436485 C104.33165045 -0.14578448 107.98597735 -0.13742603 111.64142418 -0.10727119 C113.60233644 -0.09803883 115.56332024 -0.1179999 117.5241394 -0.13922119 C128.07418875 -0.00265773 136.48852957 3.20510165 144.34399414 10.3503418 C152.25753936 19.0596655 153.64620048 28.34454288 153.56933594 39.75634766 C153.57776909 41.13751091 153.58830298 42.51866266 153.60075378 43.89979553 C153.62760735 47.61904706 153.62315344 51.33762245 153.61105323 55.05692744 C153.60387707 58.17547892 153.61245145 61.29390886 153.62095863 64.41245085 C153.64085013 71.77589431 153.63541101 79.13901265 153.61328125 86.50244141 C153.5909241 94.06956748 153.60852123 101.63584008 153.64633054 109.20288557 C153.67767498 115.72814728 153.6854473 122.25314635 153.67437679 128.77847391 C153.66792497 132.66332518 153.66972107 136.54768466 153.69370079 140.43247795 C153.71512042 144.0879981 153.70676196 147.742325 153.67660713 151.39777184 C153.66737476 153.3586841 153.68733584 155.3196679 153.70855713 157.28048706 C153.57199367 167.83053641 150.36423429 176.24487723 143.21899414 184.1003418 C134.50967044 192.01388702 125.22479306 193.40254814 113.81298828 193.32568359 C112.43182503 193.33411675 111.05067328 193.34465063 109.66954041 193.35710144 C105.95028888 193.383955 102.23171349 193.3795011 98.51240849 193.36740088 C95.39385702 193.36022473 92.27542708 193.3687991 89.15688509 193.37730628 C81.79344163 193.39719778 74.43032329 193.39175867 67.06689453 193.36962891 C59.49976845 193.34727175 51.93349585 193.36486889 44.36645037 193.40267819 C37.84118865 193.43402264 31.31618958 193.44179496 24.79086202 193.43072444 C20.90601076 193.42427262 17.02165127 193.42606873 13.13685799 193.45004845 C9.48133783 193.47146808 5.82701094 193.46310962 2.1715641 193.43295479 C0.21065184 193.42372242 -1.75033196 193.4436835 -3.71115112 193.46490479 C-14.26120047 193.32834133 -22.67554129 190.12058194 -30.53100586 182.9753418 C-38.44455108 174.26601809 -39.8332122 164.98114072 -39.75634766 153.56933594 C-39.76478081 152.18817269 -39.7753147 150.80702094 -39.7877655 149.42588806 C-39.81461907 145.70663653 -39.81016516 141.98806115 -39.79806495 138.26875615 C-39.79088879 135.15020468 -39.79946317 132.03177474 -39.80797035 128.91323274 C-39.82786185 121.54978928 -39.82242273 114.18667095 -39.80029297 106.82324219 C-39.77793581 99.25611611 -39.79553295 91.68984351 -39.83334225 84.12279803 C-39.8646867 77.59753631 -39.87245902 71.07253724 -39.8613885 64.54720968 C-39.85493669 60.66235841 -39.85673279 56.77799893 -39.88071251 52.89320564 C-39.90213214 49.23768549 -39.89377368 45.58335859 -39.86361885 41.92791176 C-39.85438648 39.9669995 -39.87434756 38.0060157 -39.89556885 36.04519653 C-39.75900539 25.49514719 -36.551246 17.08080637 -29.40600586 9.2253418 C-20.69668215 1.31179658 -11.41180478 -0.07686455 0 0 Z " fill="#B4191A" transform="translate(39.093505859375,-0.662841796875)"/>
<path d="M0 0 C10.04844397 -0.47102081 17.38368185 -0.49305452 25.5 6 C27.92707655 10.8541531 27.59785546 15.68412856 27 21 C25.14565972 26.28486979 22.77109404 28.61697675 17.85546875 31.0703125 C14.26289043 32.23998916 10.91728354 32.21779844 7.1875 32.125 C6.14819336 32.11146484 6.14819336 32.11146484 5.08789062 32.09765625 C3.39177605 32.07426157 1.69584129 32.03839641 0 32 C0 29.36 0 26.72 0 24 C-4.62 24 -9.24 24 -14 24 C-14 23.34 -14 22.68 -14 22 C-9.38 22 -4.76 22 0 22 C0 20.35 0 18.7 0 17 C-3.3 17 -6.6 17 -10 17 C-10 16.67 -10 16.34 -10 16 C-6.7 16 -3.4 16 0 16 C0 14.35 0 12.7 0 11 C-2.31 11 -4.62 11 -7 11 C-7 10.34 -7 9.68 -7 9 C-4.69 9 -2.38 9 0 9 C0 6.03 0 3.06 0 0 Z " fill="#FAF1F1" transform="translate(31,77)"/>
<path d="M0 0 C6.33333333 0 12.66666667 0 19 0 C20.32 2.97 21.64 5.94 23 9 C24.32 6.03 25.64 3.06 27 0 C28.65 0 30.3 0 32 0 C30.27172783 6.3066774 28.16302164 12.44105059 25.875 18.5625 C25.47643799 19.63467773 25.47643799 19.63467773 25.06982422 20.72851562 C23.12600343 25.87399657 23.12600343 25.87399657 22 27 C20.33382885 27.04063832 18.66611905 27.042721 17 27 C17 25.68 17 24.36 17 23 C17.7734375 22.319375 17.7734375 22.319375 18.5625 21.625 C20.29187518 20.04150831 20.29187518 20.04150831 19.9375 17.4375 C18.87157312 13.52910142 17.42531085 9.8957479 15.83984375 6.171875 C15 4 15 4 15 2 C14.443125 2.495 13.88625 2.99 13.3125 3.5 C11 5 11 5 6 5 C5.67 9.95 5.34 14.9 5 20 C3.35 20 1.7 20 0 20 C0 13.4 0 6.8 0 0 Z " fill="#F8EBEB" transform="translate(143,87)"/>
<path d="M0 0 C2.9375 2.0625 2.9375 2.0625 5 5 C5.3125 8.8125 5.3125 8.8125 5 12 C1.37 12 -2.26 12 -6 12 C-5.67 12.66 -5.34 13.32 -5 14 C-2.69 14 -0.38 14 2 14 C2.66 15.32 3.32 16.64 4 18 C0.24952518 20.50031654 -1.55856266 20.53603554 -6 20 C-8.9375 18.1875 -8.9375 18.1875 -11 15 C-11.83043914 10.07564157 -11.98388747 5.69228645 -9.4375 1.3125 C-5.98664949 -0.54565027 -3.86411566 -0.61012353 0 0 Z " fill="#F9ECEC" transform="translate(73,87)"/>
<path d="M0 0 C2.9375 2.0625 2.9375 2.0625 5 5 C5.3125 8.8125 5.3125 8.8125 5 12 C1.37 12 -2.26 12 -6 12 C-5.67 12.66 -5.34 13.32 -5 14 C-2.69 14 -0.38 14 2 14 C2.66 15.32 3.32 16.64 4 18 C0.58459721 20.10178633 -2.02251415 20.56821226 -6 20 C-8.875 18.1875 -8.875 18.1875 -11 15 C-11.83712385 10.07916762 -11.98195007 5.68895411 -9.4375 1.3125 C-5.98664949 -0.54565027 -3.86411566 -0.61012353 0 0 Z " fill="#F4DEDE" transform="translate(133,87)"/>
<path d="M0 0 C8.42857143 0 8.42857143 0 11 2 C13.44611076 5.84388834 13.23020327 9.54385679 12.59765625 13.90625 C12 16 12 16 9.875 18.5625 C7 20 7 20 0 20 C0 13.4 0 6.8 0 0 Z " fill="#B51A1B" transform="translate(38,83)"/>
<path d="M0 0 C1.65 0 3.3 0 5 0 C5.99 2.97 6.98 5.94 8 9 C9.99097846 6.01353231 10.94124926 3.40312738 12 0 C13.65 0 15.3 0 17 0 C16.37751436 4.50789051 15.26292287 8.5447136 13.6875 12.8125 C13.07455078 14.52373047 13.07455078 14.52373047 12.44921875 16.26953125 C11 19 11 19 8.83203125 19.88671875 C8.22746094 19.92410156 7.62289062 19.96148437 7 20 C0 4.64974619 0 4.64974619 0 0 Z " fill="#F8EBEB" transform="translate(102,87)"/>
<path d="M0 0 C1.65 0 3.3 0 5 0 C5 7.59 5 15.18 5 23 C5.66 23 6.32 23 7 23 C7 24.32 7 25.64 7 27 C5.02 27 3.04 27 1 27 C-0.3308911 24.33821779 -0.11268993 22.31260604 -0.09765625 19.3359375 C-0.09443359 18.21445313 -0.09121094 17.09296875 -0.08789062 15.9375 C-0.07951172 14.761875 -0.07113281 13.58625 -0.0625 12.375 C-0.05798828 11.19164063 -0.05347656 10.00828125 -0.04882812 8.7890625 C-0.03701467 5.85932493 -0.02054258 2.92968728 0 0 Z " fill="#FBF5F5" transform="translate(83,79)"/>
<path d="M0 0 C4 0 8 0 12 0 C12 1.32 12 2.64 12 4 C11.67 4.33 11.34 4.66 11 5 C9.35 5 7.7 5 6 5 C5.67 9.95 5.34 14.9 5 20 C3.35 20 1.7 20 0 20 C0 13.4 0 6.8 0 0 Z " fill="#FBF5F5" transform="translate(143,87)"/>
<path d="M0 0 C1.98 0 3.96 0 6 0 C6 6.6 6 13.2 6 20 C4.02 20 2.04 20 0 20 C0 13.4 0 6.8 0 0 Z " fill="#F1D5D5" transform="translate(93,87)"/>
<path d="M0 0 C1.98 0 3.96 0 6 0 C6 1.98 6 3.96 6 6 C4.02 6 2.04 6 0 6 C0 4.02 0 2.04 0 0 Z " fill="#EABEBE" transform="translate(93,79)"/>
<path d="M0 0 C3.63 0 7.26 0 11 0 C10.34 1.32 9.68 2.64 9 4 C8.01 3.67 7.02 3.34 6 3 C4.33378384 2.96125079 2.66605828 2.9549714 1 3 C0.67 2.01 0.34 1.02 0 0 Z " fill="#B72021" transform="translate(67,99)"/>
<path d="M0 0 C1.65 0 3.3 0 5 0 C5 0.99 5 1.98 5 3 C3.02 3 1.04 3 -1 3 C-0.67 2.01 -0.34 1.02 0 0 Z " fill="#B51819" transform="translate(68,92)"/>
</svg>
