<svg xmlns="http://www.w3.org/2000/svg" width="24" height="24" fill="none" xmlns:v="https://vecta.io/nano"><path fill-rule="evenodd" d="M7 2.75c-1.615 0-3.075.404-4.135 1.388C1.795 5.132 1.25 6.607 1.25 8.5v7c0 1.893.545 3.369 1.615 4.362 1.06.984 2.52 1.388 4.135 1.388h10c1.615 0 3.075-.404 4.135-1.388 1.07-.994 1.615-2.469 1.615-4.362v-7c0-1.893-.545-3.368-1.615-4.362-1.06-.984-2.52-1.388-4.135-1.388H7zm12.229 5.612a.75.75 0 1 0-.917-1.187l-5.547 4.286a1.25 1.25 0 0 1-1.529 0L5.689 7.175a.75.75 0 0 0-.917 1.187l5.547 4.286a2.75 2.75 0 0 0 3.363 0l5.547-4.286z" fill="#2d9cdb"/></svg>