<svg xmlns="http://www.w3.org/2000/svg" width="24" height="24" fill="none" xmlns:v="https://vecta.io/nano"><path d="M19.8 2.75H4.2A1.95 1.95 0 0 0 2.25 4.7v15.6a1.95 1.95 0 0 0 1.95 1.95h15.6a1.95 1.95 0 0 0 1.95-1.95V4.7a1.95 1.95 0 0 0-1.95-1.95z" fill="#2d9cdb"/><path d="M10 15.545h2v7.039h2v-7.039h2c.265 0 .52-.106.707-.294a1.01 1.01 0 0 0 0-1.422c-.187-.189-.442-.294-.707-.294h-2v-3.017a1.01 1.01 0 0 1 .293-.711c.188-.189.442-.295.707-.295h2c.265 0 .52-.106.707-.295a1.01 1.01 0 0 0 0-1.422C17.52 7.606 17.265 7.5 17 7.5h-2a2.99 2.99 0 0 0-2.121.884c-.563.566-.879 1.333-.879 2.133v3.017h-2c-.265 0-.52.106-.707.294a1.01 1.01 0 0 0 0 1.422c.188.189.442.294.707.294z" fill="#fff"/></svg>