<svg xmlns="http://www.w3.org/2000/svg" width="8334" height="8335" fill="#3b398f" xmlns:v="https://vecta.io/nano"><path d="M0 0h8334v8335H0V0zm3159.01 1632.133l-9.812 4.536c-18.54 8.531-36.838 17.546-55.098 26.658l-5.451 2.715c-14.607 7.279-29.047 14.788-43.33 22.682l-16.256 8.713c-20.645 11.015-40.897 22.696-61.062 34.563l-3.822 2.245c-15.891 9.341-31.668 18.802-47.148 28.814l-7.126 4.519-36.654 23.672-2.921 1.926-39.913 27.115-7.592 5.318L2790 1849l-2.291 1.67L2750 1879l-3.723 2.848-19.754 15.379-6.922 5.422c-8.691 6.775-17.207 13.749-25.695 20.777l-7.657 6.262-16.597 13.91-6.482 5.482L2655 1956l-1.755 1.489c-7.04 5.98-13.986 12.034-20.795 18.276l-8.43 7.465-9.457 8.457-7.437 6.688-24.937 22.875-1.848 1.716c-2.988 2.787-5.922 5.607-8.788 8.519-2.213 2.233-4.472 4.327-6.878 6.349-6.643 5.784-12.77 12.12-18.989 18.35l-4.153 4.15-8.666 8.672-11.062 11.058-8.563 8.563-4.077 4.075c-9.206 9.143-9.206 9.143-17.874 18.79-2.681 3.139-5.709 5.945-8.664 8.822-2.698 2.762-5.214 5.634-7.742 8.551-3.853 4.372-7.907 8.559-11.922 12.781-3.884 4.101-7.671 8.262-11.371 12.529-2.157 2.478-4.371 4.903-6.59 7.326-6.532 7.17-12.866 14.497-19.169 21.868l-9.853 11.406c-5.012 5.757-9.941 11.562-14.744 17.496l-7.609 9.043c-4.228 4.964-8.292 10.034-12.293 15.182-3.649 4.68-7.414 9.255-11.207 13.818-5.873 7.08-11.499 14.321-17.055 21.652l-8.383 10.785c-11.383 14.424-22.42 29.097-33.106 44.044l-6.5 8.999-18.483 25.933-4.888 6.907c-9.39 13.293-18.379 26.843-27.336 40.43l-1.838 2.786c-13.52 20.503-26.699 41.215-39.537 62.152l-1.981 3.227A1821.68 1821.68 0 0 0 2181 2528l-1.654 2.898c-12.976 22.759-25.698 45.652-37.702 68.94l-3.787 7.208-20.17 39.391-1.673 3.347-22.373 46.576-4.662 10.25c-40.633 88.949-75.21 180.707-124.98 351.389l-.802 3.066c-26.31 100.77-44.762 203.387-69.198 574.934l.029 2.95c.803 76.636 6.522 153.243 163.803 795.157l3.309 8.26 1.891 4.699.839 2.129c1.267 3.574 1.267 3.574 4.13 5.804l.844-1.856c8.871-19.439 18.216-38.632 27.626-57.815l1.405-2.864 1.38-2.812 13.505-28.046 7.178-14.981 3.035-6.32 1.52-3.165 4.441-9.257 16.129-33.508 15.238-31.727 22.592-46.996L2201 4178l19.895-41.352L2233 4111.5l12.875-26.75.884-1.83 7.137-14.774 6.229-12.896.884-1.831L2273 4028.5l12.875-26.75.884-1.83 7.137-14.774 6.229-12.896.886-1.835 11.864-24.665 15.233-31.528 12.392-25.722 14.484-30.03L2368 3831.5l15.041-31.145L2396 3773.5l15.041-31.145L2424 3715.5l15.041-31.145L2452 3657.5l13.875-28.75 20.407-42.189 9.595-19.878 2.63-5.448.876-1.815 6.046-12.529 19.726-40.765 12.782-26.501 14.438-29.875L2575 3403l23.02-47.602 15.687-32.436 13.418-27.712 13.813-28.625 15.54-32.143 14.585-30.107 15.959-32.981 13.916-28.769 16.654-34.371 16.17-33.402 14.26-29.458 13.916-28.769 16.654-34.371 14.471-29.879 14.813-30.625 1.009-2.081 8.137-16.773 7.104-14.646 1.01-2.083 13.802-28.542 16.655-34.373L2870 2793.5l16.593-34.249L2901 2729.5l18.624-38.436 1.083-2.228 1.084-2.23 16.226-33.452 7.05-14.537 18.871-38.992 18.686-38.56 1.083-2.229 1.084-2.23 11.272-23.231.994-2.051 4.96-10.232 8.983-18.528 5.001-10.315 2-4.125 1-2.062 20-41.25 2-4.125 5.002-10.317 8.972-18.507 22.597-46.569 21.445-44.202 4.979-10.271 2.003-4.131 4.982-10.27 9.25-19.146 4.299-8.939 2.021-4.217c10.915-22.858 22.089-39.451 46.45-49.119 10.118-3.435 20.005-4.147 30.623-4.16l3.149-.016 10.443-.034 7.564-.032 16.445-.06 24.456-.088 46.224-.165 35.701-.123 10.28-.036 2.581-.009 71.88-.245 2.737-.009 13.734-.045 2.755-.009 5.516-.018 85.8-.303 96.418-.339 10.285-.034 2.558-.008 40.719-.149 40.94-.137 24.306-.088 18.172-.055 7.334-.03c27.343-.149 49.943 2.066 70.378 22.192 7.919 7.903 12.353 17.111 16.449 27.395l1.035 2.595c4.778 12.086 9.241 24.293 13.742 36.484l8.645 23.343.898 2.421 19.168 51.137 1.616 4.282.811 2.149 3.256 8.629 1.632 4.325 18.34 48.801 2.526 6.74 11.013 29.386 7.082 18.898 1.778 4.744 9.539 25.435.836 2.226 3.272 8.715 9.38 25.091 4.723 12.651 2.087 5.619c8.739 23.647 19.914 41.485 43.171 52.935 17.235 6.89 37.57 7.842 55 1 16.47-7.08 27.222-18.391 37-33l1.335-1.978 7.184-10.78 12.668-18.805 1.233-1.815L4158 2557l2.209-3.25 8.38-12.322 15.786-23.241 1.196-1.763L4194 2504l9.625-14.187 1.197-1.764 18.769-27.622 15.784-23.239 1.196-1.763L4249 2423l9.625-14.187 1.197-1.764 18.769-27.622 15.784-23.239 1.196-1.763L4304 2342l9.625-14.187 1.197-1.764 18.765-27.616 13.502-19.879 4.804-7.073 10.619-15.731 3.429-5.117 4.191-6.289c12.755-18.958 28.236-31.445 50.869-36.344 6.251-.912 12.434-1.151 18.742-1.158l2.862-.015 9.48-.032 6.878-.03 18.911-.068 12.123-.044 2.062-.008 4.165-.016 49.306-.169 16.363-.053 147.456-.401 7.981-.018 132.942-.211 7.696-.006 5.109-.004 38.167-.051 43.509-.04 24.418-.029 18.279-.005 7.397-.014 10.069.004 2.895-.024c9.969.072 19.406 2.421 28.254 7.017l2.045 1.049c23.117 12.29 31.695 34.288 40.33 57.513l2.083 5.535 4.329 11.537 6.193 16.448 1.011 2.672 2.04 5.392 3.127 8.28 17.069 45.076 21.222 56.052L5154 2471l18.491 48.828L5182 2545l1.332 3.524 8.035 21.239 3.601 9.518 13.5 35.054.96 2.418c7.624 18.985 19.5 33.202 38.337 41.961 19.138 7.604 38.71 7.522 57.813-.152 17.791-8.151 28.139-20.998 36.961-38.07l1.594-3.07 16.18-31.547 3.125-6.127 4.816-9.442 14.831-29.037L5408 2492.5l24.927-48.792L5455 2400.5l24.927-48.792L5502 2308.5l24.927-48.792L5549 2216.5l22.077-43.216 8.509-16.647 7.625-14.917 8.154-15.954 3.092-6.049 1.477-2.889 1.442-2.82 4.077-8.023 5.083-9.749 1.173-2.233 2.187-4.068c1.077-1.983 1.077-1.983 2.105-4.935-1.094-2.926-2.66-4.909-4.854-7.097l-1.741-1.751-1.881-1.859-1.952-1.95-4.1-4.077-6.202-6.181-3.996-3.979-1.844-1.841c-3.758-3.718-7.642-7.238-11.64-10.697-2.088-1.83-4.063-3.743-6.008-5.724l-2.137-2.16-4.289-4.367c-4.05-4.094-8.177-8.008-12.562-11.742-1.846-1.621-3.574-3.32-5.293-5.074-2.258-2.293-4.56-4.464-7-6.562-4.105-3.536-8.05-7.231-12-10.937-4.457-4.179-8.925-8.322-13.559-12.305-2.459-2.147-4.852-4.361-7.254-6.57-4.517-4.124-9.179-8.004-13.937-11.844-2.831-2.348-5.544-4.79-8.25-7.281-4.371-4.019-8.875-7.8-13.496-11.527-3.501-2.881-6.907-5.86-10.316-8.848-5.391-4.713-10.896-9.219-16.558-13.601-3.964-3.078-7.818-6.259-11.63-9.524-6.105-5.222-12.387-10.191-18.729-15.121l-7.072-5.554-19.737-15.325-4.271-3.271L5346 1850l-2.252-1.643-33.166-23.553-7.52-5.296c-25.638-18.087-51.985-35.279-78.568-51.942l-8.014-5.062c-16.024-10.121-32.297-19.805-48.63-29.415l-5.214-3.072c-21.347-12.575-42.961-24.669-64.752-36.456l-5.84-3.17c-29.616-16.112-59.581-31.821-90.155-46.042l-8.192-3.861c-47.752-22.66-96.353-43.542-145.698-62.488l-2.427-.932c-37.498-14.376-75.393-27.621-113.573-40.068l-2.211-.722c-89.394-29.16-181.082-51.795-533.164-99.528l-2.135-.127c-25.19-1.496-50.387-2.602-75.615-3.185l-2.73-.063c-89.338-1.995-178.751 1.567-957.135 198.759zM6068 2760l-17.125 34.75c-4.813 10.157-9.831 20.206-14.875 30.25l-15.809 32.262c-4.462 9.398-9.147 18.683-13.817 27.979l-12.812 26.135c-4.704 9.951-9.623 19.789-14.562 29.625l-14.5 29.5c-5.062 10.714-10.38 21.295-15.697 31.883L5935.5 3029.5c-5.061 10.713-10.379 21.293-15.696 31.881l-14.613 29.88c-4.462 9.398-9.147 18.683-13.817 27.979l-12.812 26.135c-4.704 9.951-9.623 19.789-14.562 29.625l-14.5 29.5c-5.062 10.714-10.38 21.295-15.697 31.883L5820.5 3263.5c-5.061 10.713-10.379 21.293-15.696 31.881l-14.613 29.88c-4.462 9.398-9.147 18.683-13.817 27.979l-12.812 26.135c-4.704 9.951-9.623 19.789-14.562 29.625l-14.5 29.5c-5.062 10.714-10.38 21.295-15.697 31.883L5705.5 3497.5c-5.061 10.713-10.379 21.293-15.696 31.881l-14.613 29.88c-4.462 9.398-9.147 18.683-13.817 27.979l-12.812 26.135c-4.704 9.951-9.623 19.789-14.562 29.625l-14.5 29.5c-5.062 10.714-10.38 21.295-15.697 31.883L5590.5 3731.5c-5.061 10.713-10.379 21.293-15.696 31.881l-14.613 29.88c-4.462 9.398-9.147 18.683-13.817 27.979l-12.812 26.135c-4.704 9.951-9.623 19.789-14.562 29.625l-14.5 29.5c-5.062 10.714-10.38 21.295-15.697 31.883L5475.5 3965.5c-5.061 10.713-10.379 21.293-15.696 31.881l-14.613 29.88c-4.462 9.398-9.147 18.683-13.817 27.979l-12.812 26.135c-4.704 9.951-9.623 19.789-14.562 29.625l-14.5 29.5c-5.062 10.714-10.38 21.295-15.697 31.883L5360.5 4199.5c-5.062 10.714-10.38 21.295-15.697 31.883L5331.5 4258.5c-5.061 10.713-10.379 21.293-15.696 31.881l-14.613 29.88c-4.462 9.398-9.147 18.683-13.817 27.979l-12.812 26.135c-4.704 9.951-9.623 19.789-14.562 29.625l-14.5 29.5c-5.062 10.714-10.38 21.295-15.697 31.883L5216.5 4492.5c-5.061 10.713-10.379 21.293-15.696 31.881l-14.613 29.88c-4.462 9.398-9.147 18.683-13.817 27.979l-12.812 26.135c-4.704 9.951-9.623 19.789-14.562 29.625l-14.5 29.5c-5.062 10.714-10.38 21.295-15.697 31.883L5101.5 4726.5c-5.061 10.713-10.379 21.293-15.696 31.881l-14.613 29.88c-4.462 9.398-9.147 18.683-13.817 27.979l-12.812 26.135c-4.704 9.951-9.623 19.789-14.562 29.625l-14.5 29.5c-5.062 10.714-10.38 21.295-15.697 31.883L4986.5 4960.5c-5.061 10.713-10.379 21.293-15.696 31.881l-14.613 29.88c-4.462 9.398-9.147 18.683-13.817 27.979l-12.812 26.135c-4.704 9.951-9.623 19.789-14.562 29.625l-14.5 29.5c-5.062 10.714-10.38 21.295-15.697 31.883L4871.5 5194.5c-5.061 10.713-10.379 21.293-15.696 31.881l-14.613 29.88c-4.462 9.398-9.147 18.683-13.817 27.979l-12.812 26.135c-4.704 9.951-9.623 19.789-14.562 29.625l-14.5 29.5c-5.062 10.714-10.38 21.295-15.697 31.883L4756.5 5428.5c-5.061 10.713-10.379 21.293-15.696 31.881l-14.613 29.88c-4.462 9.398-9.147 18.683-13.817 27.979l-12.812 26.135c-4.704 9.951-9.623 19.789-14.562 29.625l-14.5 29.5c-5.061 10.713-10.378 21.292-15.695 31.879l-14.658 29.977c-2.717 5.739-5.534 11.422-8.405 17.085l-1.123 2.221-5.579 10.956-2.025 3.995-.97 1.868c-.743 1.477-1.403 2.995-2.045 4.518l1 2c101.345-26.862 200.629-60.687 297-102l2.238-.959a2020.37 2020.37 0 0 0 90.565-41.515l10.869-5.205c25.677-12.069 50.943-25.14 75.753-38.902l11.554-6.258c12.122-6.526 24.11-13.257 36.021-20.16l2.842-1.644c23.653-13.691 47.036-27.786 70.158-42.356l5.129-3.223c25.991-16.348 51.683-33.214 76.871-50.777l2.299-1.598 33.497-23.807 6.591-4.736c10.946-7.837 21.668-15.946 32.353-24.134l8.448-6.351c8.031-6.003 15.913-12.2 23.813-18.375l1.997-1.558L5432 5296l5.5-4.5 2.758-2.258 5.422-4.422 19.667-16.417 6.482-5.482L5480 5256l1.755-1.489c7.04-5.98 13.986-12.034 20.795-18.276 2.774-2.531 5.596-5.001 8.43-7.465l9.461-8.461 4.961-4.461 17.227-15.73 6.773-6.234c5.564-5.099 11.053-10.227 16.305-15.652 1.818-1.768 3.65-3.389 5.583-5.024 6.417-5.603 12.355-11.707 18.371-17.733l3.951-3.948 8.243-8.248 10.517-10.513 8.146-8.146 3.876-3.874c8.905-8.864 8.905-8.864 17.295-18.211 2.692-3.144 5.724-5.96 8.687-8.845 2.701-2.765 5.22-5.64 7.751-8.56 3.159-3.587 6.458-7.038 9.749-10.503l15.121-16.375 4.227-4.687c3.825-4.199 7.529-8.448 11.09-12.875 3.412-4.221 6.981-8.228 10.688-12.187 4.404-4.708 8.561-9.537 12.598-14.566 2.852-3.483 5.81-6.862 8.777-10.246a358.25 358.25 0 0 0 13.601-16.558c3.078-3.964 6.259-7.818 9.524-11.63 4.722-5.519 9.229-11.181 13.691-16.91l7.189-9.046c6.414-7.966 12.651-16.057 18.837-24.202l5.705-7.456c8.005-10.441 15.846-20.978 23.497-31.681l6.5-9 18.52-25.986 4.862-6.888c9.141-12.952 17.971-26.099 26.699-39.332l1.168-1.77L5910 4757l1.567-2.511L5935 4716l1.529-2.563c32.763-54.938 63.95-111.384 91.026-169.356l4.129-8.727c10.137-21.292 19.901-42.733 29.316-64.355l1.023-2.348c16.956-38.97 32.674-78.47 47.166-118.422l2.525-6.913c37.333-101.989 65.912-206.871 87.286-313.317l.673-3.345c20.411-101.827 32.662-205.268 38.515-316.717l.112-2.268.593-13.875.236-5.912c1.079-26.642 1.073-53.285 1.059-79.945l-.001-3.53c-.01-35.178-.203-70.277-2.187-105.408l-.407-7.44c-6.335-114.379-21.192-227.842-56.859-392.507l-2.153-8.996c-14.637-61.122-32.637-121.397-52.848-180.896l-2.208-6.539c-16.243-48.239-34.456-95.844-54.525-142.622h-1zm-2624 428c-7.203 9.151-12.306 19.077-17.25 29.563l-2.232 4.662-14.563 31.135-13.454 28.14-16.617 35.004-13.915 29.112-13.405 28.259-16.165 33.882-15.515 32.747L3308 3467.5l-14.5 30.5-15.532 32.616-13.406 28.259-16.165 33.882-15.515 32.747-13.915 29.112-13.405 28.259-16.165 33.882-15.515 32.747-13.915 29.112-13.405 28.259-16.165 33.882-15.515 32.747L3102 3900.5l-14.5 30.5-15.532 32.616-13.406 28.259-16.165 33.882-15.515 32.747-13.915 29.112-13.405 28.259-16.165 33.882-15.515 32.747L2955 4209.5l-14.5 30.5-15.532 32.616-13.406 28.259-16.165 33.882-15.515 32.747-13.915 29.112-13.405 28.259-16.165 33.882-15.515 32.747L2808 4518.5l-14.5 30.5-15.532 32.616-13.406 28.259-16.165 33.882-15.515 32.747-13.915 29.112-13.405 28.259-16.165 33.882-15.515 32.747-13.915 29.112-13.405 28.259-16.165 33.882-15.515 32.747L2602 4951.5l-14.5 30.5-15.532 32.616-13.406 28.259-15.062 31.625-15.812 33.125-1.578 3.408L2518 5129l14.087 14.142 4.783 4.804 6.911 6.933 2.129 2.144c3.986 3.987 8.079 7.776 12.348 11.458 1.998 1.742 3.887 3.563 5.742 5.456l2 2.023 4 4.078c3.925 3.971 7.94 7.746 12.189 11.369 1.851 1.628 3.585 3.332 5.311 5.092 2.258 2.293 4.56 4.464 7 6.563 4.105 3.536 8.05 7.231 12 10.938 4.476 4.197 8.963 8.359 13.613 12.363l6.887 6.137c7.651 6.898 15.45 13.616 23.277 20.313l7.352 6.313 18.59 15.594 9.344 7.844c4.493 3.818 9.034 7.557 13.656 11.219l8.518 6.899c6.529 5.332 13.111 10.568 19.814 15.679l9.75 7.561c27.246 21.292 55.233 41.654 83.515 61.543l11.746 8.287 4.316 3.047L2840 5399c3.31-3.07 4.94-6.664 6.816-10.707l1.116-2.364 3.63-7.742 2.558-5.43 5.281-11.229 7.294-15.438 1.134-2.389 2.242-4.724 18.911-40.066 15.893-33.66 1.134-2.392 9.137-19.274 7.979-16.833 1.134-2.393 16.722-35.444 18.238-38.6L2974.5 5118l17.563-37.125L3009 5045l16.875-35.75 1.134-2.392 9.137-19.274 7.979-16.833 1.134-2.393L3061 4935l16.875-35.75 1.134-2.392 9.137-19.274 7.979-16.833 1.134-2.393L3113 4825l16.875-35.75 1.134-2.392 9.137-19.274 7.979-16.833 1.134-2.393 16.722-35.444 18.238-38.6L3199.5 4642l17.563-37.125L3234 4569l16.875-35.75 1.134-2.392 9.137-19.274 7.979-16.833 1.134-2.393L3286 4459l16.875-35.75 1.134-2.392 9.137-19.274 7.979-16.833 1.134-2.393L3338 4349l16.875-35.75 1.134-2.392 9.137-19.274 7.979-16.833 1.134-2.393 16.722-35.444 18.238-38.6L3424.5 4166l17.563-37.125L3459 4093l16.875-35.75 1.134-2.392 9.137-19.274 7.979-16.833 1.134-2.393L3511 3983l16.875-35.75 1.134-2.392 9.137-19.274 7.979-16.833 1.134-2.393L3563 3873l16.875-35.75 1.134-2.392 9.137-19.274 7.979-16.833 1.134-2.393 16.722-35.444 18.238-38.6L3649.5 3690l16.424-34.723L3692 3600l.865-1.848 5.447-11.714 1.328-2.845c5.006-10.883 7.541-20.53 7.672-32.53l.088-2.572c.13-13.508-4.962-25.616-10.509-37.658l-3.14-6.9-3.338-7.378-11.11-25.066-5.666-12.929-1.151-2.624-12.986-29.435-19.615-44.542-17.385-39.458-18.5-42-21.009-47.693-2.358-5.323-1.169-2.638-6.864-15.657-4.33-9.913-1.992-4.599c-3.659-8.505-7.514-16.35-13.278-23.677l-1.891-2.411c-10.966-13.603-28.15-21.807-45.234-24.276L3502 3164l-1.93-.16c-21.213-.921-41.643 9.067-56.07 24.16zm1161.25 127.625l-2.146 1.047c-6.441 3.269-11.897 7.312-17.104 12.328l-2.164 2.078c-10.889 11.352-16.636 26.707-23.09 40.789l-12.559 26.758-4.637 9.773-1.158 2.441-11.518 24.411-.988 2.102-4.919 10.463-8.965 19.056-5.006 10.637-1.001 2.126-5.97 12.69-22.597 47.944-21.445 45.514-8.983 19.091L4446 3615.5l-2 4.25-1 2.125-20 42.5-2 4.25-5.002 10.63-8.972 19.069-22.597 47.944-21.445 45.514-8.983 19.091L4349 3821.5l-2 4.25-1 2.125-36 76.5-2 4.25-5.002 10.63-8.972 19.069-22.597 47.944-21.445 45.514-8.983 19.091L4236 4061.5l-2 4.25-1 2.125-20 42.5-2 4.25-5.002 10.63-8.972 19.069-22.597 47.944-21.445 45.514-8.983 19.091L4139 4267.5l-2 4.25-1 2.125-20 42.5-2 4.25-5.002 10.63-8.972 19.069-22.597 47.944-21.445 45.514-8.983 19.091L4042 4473.5l-2 4.25-1 2.125-36 76.5-2 4.25-5.002 10.63-8.972 19.069-22.597 47.944-21.445 45.514-8.983 19.091L3929 4713.5l-2 4.25-1 2.125-20 42.5-2 4.25-5.002 10.63-8.972 19.069-22.597 47.944-21.445 45.514-8.983 19.091L3832 4919.5l-2 4.25-1 2.125-36 76.5-2 4.25-5.002 10.63-8.972 19.069-22.597 47.944-21.445 45.514-8.983 19.091L3719 5159.5l-2 4.25-1 2.125-20 42.5-2 4.25-5.002 10.63-8.972 19.069-22.597 47.944-21.445 45.514-8.983 19.091L3622 5365.5l-2 4.25-1 2.125-20 42.5-2 4.25-5.002 10.63-8.972 19.069-22.597 47.944-21.445 45.514-8.983 19.091L3525 5571.5l-2 4.25-1 2.125-19 40.375-1 2.125-2.002 4.254-4.974 10.571-9.306 19.764-4.358 9.249-2.062 4.373L3473 5682l-1.565 3.34-1.392 3.007-1.206 2.598c-.962 1.993-.962 1.993-.837 4.054 11.971 3.863 24.03 7.276 36.188 10.5l2.905.772c104.054 27.586 209.646 47.63 325.22 60.666l2.117.238 13.934 1.54 3.566.397c5.389.58 10.65 1.049 16.071.889l1.405-2.812 10.151-20.274 23.565-47.799 11.787-23.92 11.593-23.695 13.405-27.299 12.982-26.619 12.28-24.896 10.271-21.062 13.467-27.424 12.982-26.619 12.28-24.896 10.271-21.062 13.467-27.424 12.982-26.619 12.28-24.896 10.271-21.062 13.467-27.424 12.982-26.619 12.28-24.896 10.271-21.062L4135 5226l12.5-25.5 13.405-27.299 12.982-26.619 12.28-24.896 10.271-21.062 13.467-27.424 12.982-26.619 12.28-24.896 10.271-21.062 13.467-27.424 12.982-26.619 12.28-24.896 10.271-21.062 13.467-27.424 12.982-26.619 12.28-24.896 10.271-21.062 13.467-27.424 12.982-26.619 12.28-24.896 10.271-21.062L4405 4675l12.5-25.5 13.405-27.299 12.982-26.619 12.28-24.896 10.271-21.062 13.467-27.424 12.982-26.619 12.28-24.896 10.271-21.062 13.467-27.424 12.982-26.619 12.28-24.896 10.271-21.062 13.467-27.424 12.982-26.619 12.28-24.896 10.271-21.062L4626 4224l12.5-25.5 13.405-27.299 12.982-26.619 12.28-24.896 10.271-21.062 13.467-27.424 12.982-26.619 12.28-24.896 10.271-21.062 13.467-27.424 12.982-26.619 12.28-24.896 10.271-21.062 13.467-27.424 12.982-26.619 12.28-24.896 11.597-23.86 10.392-21.089c15.436-28.987 15.436-28.987 21.22-60.738l.043-2.734c-.081-10.882-3.389-20.842-7.348-30.879l-1.159-2.992-3.786-9.707-4.048-10.436-2.809-7.239-13.749-35.831-6.628-17.377-1.281-3.356-11.172-29.136-.888-2.308-5.531-14.361-10.643-27.644-1.272-3.306-19.603-51.194-27.074-70.599-6.555-17.133-3.808-9.974-1.697-4.483c-8.442-22.467-20.4-38.438-42.338-49.025-9.868-4.189-19.745-5.441-30.367-5.488l-3.028-.017-6.342-.02-9.558-.072c-14.419-.077-28.312.337-41.482 6.938zM2271.938 6053.188c-15.618 18.2-25.128 41.801-25.069 65.876l-.006 2.384-.003 7.902-.009 5.726-.011 15.731-.016 16.968-.024 37.104-.012 23.176-.026 64.187v4.149l-.001 4.159-.001 8.343v2.089l-.043 67.039-.04 70.928-.025 38.643-.012 32.912-.011 16.781.001 15.388-.01 5.542c-.12 27.109 6.964 51.471 24.38 72.785l1.859 2.359c11.014 13.274 26.478 23.114 42.578 28.953l1.911.698c15.547 5.274 30.649 5.416 46.9 5.365l7.733.013h16.844 25.289l43.302.003 44.119-.006 2.826.001 14.285.006 104.345.005 105.776-.004 3.368.001 30.561.006 76.638.012h3.548l173.178-.004 7.587-.001h3.798l49.588-.005h3.829l175.576-.001 19.149.001 57.715.003 176.003.006h3.959l253.841-.009h4.094l135.758-.011h518.084l135.719.011h4.093l253.704.008h3.957l175.907-.006 57.691-.003 19.138-.001 175.581.002h3.826l49.558.005h3.795 7.58l172.936.003h3.543l76.516-.012 30.515-.005h3.362l105.644.005 103.994-.007 14.235-.006 2.815-.001 43.981.008 43.008-.007 25.098.006 18.586-.012 7.455.007c34.314.1 61.498-8.674 86.276-32.884 16.537-17.424 27.635-42.367 27.577-66.509l.006-2.402.003-7.981.009-5.775.011-15.88.016-17.123.024-37.451.012-23.389.026-64.768v-4.187l.001-4.197.001-8.42v-2.109l.043-67.662.04-71.575.025-39 .012-33.216.011-16.939-.001-15.529.01-5.596c.133-30.355-9.862-57.187-31.193-79.044-25.785-25.451-57.695-30.073-92.356-30.002l-7.706-.009-16.786-.001c-8.401.008-16.802.005-25.203-.001l-43.154-.004-43.967.002-2.816-.001-14.236-.004-103.987-.008c-35.138.004-70.276.003-105.413-.002l-3.357-.001-30.456-.005-76.376-.011h-3.535l-172.586-.005h-3.779-15.147l-41.839.001h-3.816c-57.057.001-114.114-.001-171.171-.005l-22.894-.001h-3.823-7.651l-19.157-.001h-3.837l-19.207-.001-179.256-.009h-3.945-248.908-12.24l-90.103.003h-8.217-8.221-4.112l-20.567.001c-129.498.004-258.996.005-388.494-.007h-4.132l-123.693-.013-135.252-.014h-4.079l-252.843-.014h-3.944c-57.158-.001-114.316 0-171.473.001l-65.165.001h-15.255c-58.328.001-116.656 0-174.984-.008h-3.813l-60.72-.008-172.342-.01h-3.531l-76.266.008-30.416.004h-3.351c-35.092.005-70.184 0-105.276-.01-34.548-.01-69.096-.01-103.644.002l-14.192.005-2.807.001c-14.607.005-29.214-.001-43.822-.01-14.289-.009-28.578-.008-42.867.005-8.335.007-16.67.006-25.006-.007-6.178-.009-12.356-.002-18.534.011-2.474.003-4.948 0-7.422-.007-37.369-.112-68.679 8.373-95.104 36.574z"/><path d="M5284 6168l.155 71.091.071 33.013.056 28.794.035 15.228.022 14.373.018 5.237c.169 26.733-5.761 49.736-24.533 69.658-21.238 19.593-48.394 20.128-75.702 19.997a1108.57 1108.57 0 0 0-10.789.011 1280.2 1280.2 0 0 1-8.471 0 934.24 934.24 0 0 0-5.866.015c-17.268-.134-32.136-4.599-46.996-13.417l-1.844 1.688c-10.417 9.069-22.501 15.656-36.156 18.313l-2.555.551c-23.64 3.082-45.867-.558-65.445-14.551-2.424-1.926-4.71-3.913-7-6l-1.879 1.355c-16.837 11.494-35.493 12.967-55.301 12.945l-4.522.013-9.404.002a1627.75 1627.75 0 0 0-11.895.034l-9.318.012-4.379.016c-19.051.117-36.897-2.932-52.963-13.828-2.065-1.368-4.101-2.501-6.34-3.551l-2.055 1.574c-12.726 9.535-25.829 15.447-41.972 15.603l-3.543.039-3.797.022-3.962.024-8.306.032-8.425.062c-43.059.479-43.059.479-58.439-13.294L4710 6411c-3.263.337-5.141 1.699-7.625 3.75-14.032 10.796-30.319 12.378-47.473 12.453l-3.131.017-6.527.02-9.821.072c-21.31.109-41.789-1.438-58.424-16.312-2.903 1.37-5.446 2.959-8.062 4.813-18.326 12.217-37.762 11.65-58.993 11.669l-11.566.052-20.252.077-30.219.114-53.994.203-46.572.167-3.092.012-12.426.049-150.858.527-51.618.167-3.778.012-15.204.05-141.021.456-123.844.403-140.894.46-15.159.049-3.767.012-51.455.169-149.9.446-3.068.008-12.184.03-45.134.128-50.96.123-28.202.074-18.726.037-10.616.028c-14.118.07-27.65-.06-41.436-3.336l-1.164 3.623c-7.592 23.623-21.341 41.154-43.648 52.627-21.032 10.416-45.866 12.099-68.187 4.75-6.567-2.429-13.162-5.108-19-9-.361-1.949-.361-1.949-.341-4.358l.001-2.73.047-2.952.013-3.018.093-9.568.041-6.477L3142 6435l1.638.703 7.444 3.172 2.576 1.105c15.073 6.394 30.693 8.844 46.439 3.277 10.673-4.625 18.394-12.164 22.759-23.007 5.363-15.249 4.617-31.345 4.655-47.282l.054-8.07.095-18.942.116-21.599L3228 6280l10.515-5.735 2.983-1.627L3250 6268l2.334-1.273 11.916-6.477 3.406-1.859 3.234-1.75 2.845-1.546C3276 6254 3276 6254 3278 6254l.018 3.995.218 37.34.111 19.195.117 18.537.034 7.059.07 9.916-.004 2.923c.103 7.5 1.063 15.303 5.687 21.472 5.626 5.242 12.32 6.688 19.81 6.687l3.043.007 3.33-.008 3.567.003 9.849-.005 10.73-.001 21.384-.012 17.904-.013 270.187-.645 51.749-.169 3.783-.012 15.221-.049 141.305-.461 124.161-.403 141.144-.456 15.182-.05 3.773-.012 51.583-.166 150.015-.528 3.053-.012 12.107-.049 41.619-.155 52.664-.216 27.404-.108 18.133-.084 10.279-.041 11.041-.059 3.193.008c7.683-.089 14.659-1.235 21.414-5.053 8.076-9.026 7.242-20.868 7.16-32.23l.018-7.51-.029-11.771.011-11.406-.068-3.558c.117-7.899.117-7.899 2.642-10.655 2.076-1.33 4.116-2.302 6.391-3.245l3.396-1.849 3.343-1.709 1.837-.944 5.737-2.935 7.551-3.871 1.84-.942c4.796-2.465 9.517-5.051 14.212-7.703C4599 6271 4599 6271 4601 6271l.025 2.95.263 27.669.134 14.221.136 13.752.045 5.218c-.559 18.665-.559 18.665 5.779 35.604 6.477 6.352 15.948 6.74 24.508 6.754l2.257.01 4.71.007 7.116.039c15.889.178 15.889.178 30.027-6.225 6.885-9.49 6.327-20.732 6.414-31.973l.059-4.602.128-12.029.141-12.308L4683 6286l1.794-.979 5.308-2.895 6.057-3.303 14.864-8.123 8.163-4.45 3.381-1.859 3.225-1.75 2.829-1.546C4731 6260 4731 6260 4734 6260l.011 3.691.173 34.515.087 17.742.097 17.137.024 6.523.062 9.169-.015 2.696c.12 7.326 1.732 14.462 6.811 19.964 7.036 3.998 12.879 5.015 20.84 4.961l2.86.009 5.958-.016 9.051.019 5.818-.012 2.7.018c7.09-.078 13.118-1.525 19.335-4.979 7.952-8.86 6.792-20.657 6.797-31.789l.05-5.607.079-14.667.102-15.003.16-29.371 11.297-6.055 3.826-2.051C4863.501 6249 4863.501 6249 4866 6249l.018 3.664.218 34.334.111 17.648.117 17.059.034 6.48c-.758 21.188-.758 21.188 7.502 39.815 6.747 6.56 15.699 8.11 24.831 8.145l3.41.019 3.646.003 3.796.01 7.946.007 8.091.021 11.73.025 3.615.022c14.452.088 14.452.088 26.935-6.252 6.616-8.086 6.273-17.253 6.406-27.194.42-27.939 4.061-56.265 23.594-77.806l2.121-2.367c9.11-9.646 19.274-14.788 31.879-18.633l2.328-.715c20.632-5.394 43.763-2.147 62.387 7.742 19.333 11.609 30.711 30.455 36.293 51.832 2.661 12.037 3.24 23.725 3.394 36.003-.067 15.645-.067 15.645 5.849 29.7 5.698 5.051 12.282 6.538 19.717 6.599l2.915.029 3.122.013 3.255.017 6.821.02 10.336.072 6.65.016 3.079.037c9.181-.028 19.778-.98 26.855-7.366 5.174-6.637 7.238-13.446 7.278-21.878l.018-1.986.023-6.527.03-4.703.055-12.724.068-13.313.117-25.191.138-28.687.272-58.99 2.899-1.525 10.858-5.726 4.66-2.455 6.778-3.575 2.248-1.188c6.04-3.212 11.952-6.616 17.83-10.115C5281 6168 5281 6168 5284 6168zm-247.336 128.023c-12.399 14.728-11.675 34.913-10.664 52.977 1.17 12.809 4.865 22.889 14.621 31.406 6.585 4.412 13.735 4.193 21.379 3.594 5.463-1.133 10.43-3.656 14-8 7.744-12.289 9.511-25.215 9.375-39.5l.035-3.684c-.04-12.571-1.734-26.473-10.523-36.141-6.985-6.539-12.431-8.121-21.922-7.922-6.442.535-11.554 2.87-16.301 7.27zM3068 6256l2.828 1.27c8.758 4.342 15.328 10.886 22.172 17.73.241 1.911.241 1.911.227 4.266v2.669l-.031 2.885-.009 2.951-.062 9.354-.027 6.332L3093 6319c-3.227-1.548-5.699-3.307-8.437-5.625-14.619-11.811-31.356-20.231-50.52-19.219-5.222.834-9.151 2.773-13.449 5.82C3019 6301 3019 6301 3017 6301c-4.916 9.077-6.746 17.568-3.937 27.688 3.905 10.022 12.643 15.678 21.938 20.313 4.355 1.888 8.787 3.488 13.267 5.045l16.042 5.732 5.869 2.089c16.833 6.073 31.807 14.296 39.823 31.134 6.867 17.596 5.743 38.235-1.715 55.504-12.702 24.67-35.171 39.323-60.902 47.757-10.899 3.379-22.05 5.462-33.383 6.739l-2.949.34c-35.067 3.346-75.936.243-104.926-21.84L2902 6478l-2.121-1.652c-18.973-15.456-30.952-40.349-33.879-64.348-1.273-24.134.054-47.07 12.496-68.512 3.878-3.838 11.012-4.339 16.227-5.434l2.494-.53 5.196-1.094 7.932-1.685 5.064-1.066 2.384-.511c3.8-.788 7.3-1.377 11.206-1.168l-1.574 3.156c-11.635 23.741-18.399 50.088-10.742 76.234 5.471 15.002 14.865 27.374 29.316 34.609 7.772 3.293 15.64 5.792 24 7l2.168.336c25.802 3.286 57.783 1.143 79.525-14.559 2.936-2.348 5.22-4.662 7.119-7.902l1.207-2.008c2.799-5.33 2.51-11.003 1.98-16.867-4.309-10.116-17.071-14.191-26.616-18.07-4.363-1.701-8.783-3.242-13.196-4.805-22.784-8.135-43.016-17.877-54.125-40.625-.731-1.817-1.419-3.651-2.062-5.5l-.961-2.73c-5.718-19.856-3.088-42.586 6.727-60.566 8.829-15.2 24.135-25.366 40.785-30.16 18.722-4.151 38.108-1.382 55.449 6.457zm2321-89v257h-51v-230l37.313-20.25 3.721-2.004 3.518-1.887 3.115-1.673C5388 6167 5388 6167 5389 6167zm-696.953-.746c5.162 4.048 7.797 8.989 9.703 15.184.935 9.583.091 19.202-6.125 27.027-6.568 6.204-14.851 7.754-23.625 7.535-7.102-.799-12.765-3.765-17.75-8.75-5.796-8.371-6.188-16.233-5.25-26.25 1.633-7.159 5.857-12.099 12-16 9.986-4.519 21.543-4.568 31.047 1.254zM4753 6166c6.604 5.418 9.265 11.945 10.277 20.285.343 7.785-1.519 15.003-6.465 21.09-6.201 6.316-11.287 8.018-20.187 8.188-8.12-.084-14.616-1.469-20.488-7.465-6.602-8.209-7.011-16.851-6.137-27.098 1.909-7.399 6.035-12.33 12.563-16.25 9.395-4.783 21.452-4.34 30.438 1.25zm-1790.062 375.625l2.135.033c7.394.227 12.212 1.509 17.74 6.592 6.094 6.677 7.165 13.958 7.188 22.75-.516 7.05-3.334 12.72-8 18-7.77 6.275-15.233 6.641-25 6-6.33-1.257-11.494-3.547-15.375-8.895-5.283-8.089-5.722-16.625-4.625-26.105 1.941-6.636 5.269-11.218 11-15 5.082-2.55 9.212-3.495 14.938-3.375zM3042 6547c6.575 6.686 8.853 12.612 9 22-.494 7.801-2.552 14.252-8 20-7.425 5.464-14.941 6.717-24 6-7.88-1.417-13.677-5.461-18.387-11.895-4.194-7.696-4.085-19.272-1.676-27.605 2.584-5.563 8.145-10.161 13.633-12.68 9.353-3.158 21.876-2.637 29.43 4.18zm1676.75-436.375c5.521 3.515 8.545 8.063 10.25 14.375 1.531 17.337 1.531 17.337-4 24-4.531 4.767-8.75 7.647-15.418 8.371-8.145.143-14.87-.24-21.582-5.371-5.484-5.354-7.002-11.988-7.312-19.437.213-7.737 2.665-14.166 8.313-19.562 7.268-6.06 21.324-6.202 29.75-2.375z"/></svg>