<svg xmlns="http://www.w3.org/2000/svg" width="230" height="230" xmlns:v="https://vecta.io/nano"><path d="M48.912 8.596l4.837-.021 13.085-.011 10.944-.009 25.828-.001 26.601-.029 22.882-.023 13.647-.016 12.837.007 4.696-.01c11.98-.074 20.125 1.475 29.013 9.798 7.899 7.899 9.098 15.246 9.136 26.085l-.014 4.545.021 4.837.011 13.085.009 10.944.001 25.828.029 26.601.023 22.882.016 13.647-.007 12.837.01 4.696c.074 11.98-1.475 20.125-9.798 29.013-7.899 7.899-15.246 9.098-26.085 9.136l-4.545-.014-4.837.021-13.085.011c-3.648-.003-7.296.003-10.944.009l-25.828.001a6161.79 6161.79 0 0 0-26.601.029l-22.882.023a3012.76 3012.76 0 0 0-13.647.016c-4.279.016-8.558.011-12.837-.007-1.565-.004-3.131-.001-4.696.01-11.98.074-20.125-1.475-29.013-9.798-7.899-7.899-9.098-15.246-9.136-26.085l.014-4.545-.021-4.837-.011-13.085-.009-10.944-.001-25.828-.029-26.601-.023-22.882-.016-13.647.007-12.837-.01-4.696c-.074-11.98 1.475-20.125 9.798-29.013 9.126-9.126 18.414-9.162 30.631-9.123z" fill="#fefefe"/><path d="M155.875 44.813l2.434-.037c4.354-.011 7.726.194 11.691 2.225v2c-1.328 1.305-1.328 1.305-3.25 2.875-3.883 3.298-7.523 6.777-11.125 10.375l-1.587 1.574c-4.312 4.013-4.312 4.013-6.269 9.333l.043 2.344.02 2.344c.095 2.34.095 2.34 1.168 5.156 3.806 1.269 7.072 1.807 11 1 3.133-1.829 5.48-4.413 8-7l5.812-5.857 4.084-4.163 1.908-1.945 1.718-1.769C183 62 183 62 185 62c3.101 8.333 3.493 18.444.238 26.805-4.285 7.597-10.785 14.144-19.198 16.818-2.041.377-2.041.377-5.878-.149-7.685-1-13.806-.89-20.278 3.763-4.478 3.679-8.552 7.714-12.554 11.9-2.517 2.611-5.121 5.101-7.751 7.598-10.257 10.041-10.257 10.041-13.669 23.499.158 3.267.565 6.472.997 9.712.282 6.272-4.067 11-7.994 15.383-8.343 8.138-16.216 9.007-27.461 8.973-3.254-.283-5.529-.9-8.453-2.301 1.491-3.545 3.503-5.638 6.316-8.23l2.564-2.436 5.375-4.984c4.744-4.548 7.768-7.682 7.991-14.427-.186-2.183-.186-2.183-1.622-4.985-3.263-2.409-5.283-2.798-9.289-2.52-4.575 1.14-7.141 4.265-10.336 7.582l-3.836 3.805L49 169c-3.702-3.702-4.15-8.702-4.375-13.75.252-9.232 3.746-16.671 10.082-23.305 4.526-3.84 9.705-6.083 15.293-7.945l3.492.641c6.538 1.048 11.791 1.308 17.376-2.697 5.87-5.256 11.134-11.038 16.263-17.016L109 103h2l.691-1.68c1.681-2.98 3.81-5.048 6.246-7.445l2.652-2.633C123 89 123 89 126 87l-.5-2.25c-1.531-11.48-.313-19.359 6.188-28.937 6.517-8.312 14.043-10.992 24.188-11z" fill="#61a384"/><path d="M191.625 99.5c6.85 1.191 6.85 1.191 9.375 4.5.388 2.313.388 2.313.398 5l.012 2.938-.035 3.063.035 3.063-.012 2.938-.01 2.688c-.464 2.763-1.179 3.641-3.388 5.313-2.234.555-2.234.555-4.75.875-6.394 1.139-10.333 3.528-14.187 8.75-2.025 6.433-2.175 12.796.813 18.938 1.239 2.207 2.314 3.627 4.125 5.438.453 2.242.453 2.242 0 5-1.69 2.244-3.302 4.137-5.25 6.125l-1.488 1.59c-6.58 6.931-6.58 6.931-10.637 7.785-3.178-.605-4.731-2.126-7.094-4.254-3.253-2.648-6.788-3.148-10.844-3.684-5.553.659-10.307 2.81-14.113 7.012-2.541 3.965-3.065 7.753-3.203 12.41-.49 2.663-1.157 3.461-3.371 5.016-4.504 1.116-8.999 1.194-13.625 1.25l-3.914.078c-3.65-.346-5.053-.599-7.461-3.328-.793-2.594-.793-2.594-1.187-5.5-.432-3.004-.85-5.613-1.812-8.5l1.609-1.617c6.954-7.335 9.877-14.749 12.391-24.383l2.309-.332c13.281-2.039 24.768-5.701 33.387-16.754 5.979-8.771 7.732-17.607 9.305-27.914l2.563-.699c11.745-3.327 11.745-3.327 20.625-11.238 3.62-2.655 5.066-2.147 9.438-1.562z" fill="#ee740b"/><path d="M109.746 29.602l2.787-.012 2.904.035 2.893-.035 2.791.012 2.545.01c2.846.473 4.234 1.44 6.334 3.388.574 2.086.574 2.086.688 4.375.154 2.554.338 4.715 1.027 7.191C132 47 132 47 130.742 48.816l-1.867 1.746C122.96 56.797 120.175 64.574 119 73l-2.711.297C103.677 74.857 94.141 77.813 85 87c-7.687 9.927-10.401 18.61-11 31l-2.273.445c-8.837 1.937-16.319 4.939-22.664 11.555-4.186 2.734-6.725 1.956-11.477 1.004-3.29-1.277-4.619-2.025-6.586-5.004-.562-3.532-.512-6.994-.437-10.562l-.021-2.904c.064-7.025.064-7.025 1.817-9.281 2.338-1.782 4.585-2.071 7.455-2.627C45.295 99.34 48.256 98.224 52 94c3.016-5.227 3.943-10.081 3-16-1.414-3.877-3.075-7.075-6-10-.56-3.011-.591-5.052 1.063-7.703C51.618 58.42 53.265 56.713 55 55l1.934-2.035c4.986-4.889 4.986-4.889 9.629-5.215 3.047 1.108 4.261 1.831 6.625 3.813 4.082 3.186 7.975 3.025 13.004 2.793 4.962-.628 7.699-2.153 11.059-5.793 3.161-4.629 4.019-7.897 4.309-13.441.965-4.637 3.804-5.502 8.188-5.52z" fill="#ee730a"/><path d="M48.912 8.596l4.837-.021 13.085-.011 10.944-.009 25.828-.001 26.601-.029 22.882-.023 13.647-.016 12.837.007 4.696-.01c11.98-.074 20.125 1.475 29.013 9.798 7.899 7.899 9.098 15.246 9.136 26.085l-.014 4.545.021 4.837.011 13.085.009 10.944.001 25.828.029 26.601.023 22.882.016 13.647-.007 12.837.01 4.696c.074 11.98-1.475 20.125-9.798 29.013-7.899 7.899-15.246 9.098-26.085 9.136l-4.545-.014-4.837.021-13.085.011c-3.648-.003-7.296.003-10.944.009l-25.828.001a6161.79 6161.79 0 0 0-26.601.029l-22.882.023a3012.76 3012.76 0 0 0-13.647.016c-4.279.016-8.558.011-12.837-.007-1.565-.004-3.131-.001-4.696.01-11.98.074-20.125-1.475-29.013-9.798-7.899-7.899-9.098-15.246-9.136-26.085l.014-4.545-.021-4.837-.011-13.085-.009-10.944-.001-25.828-.029-26.601-.023-22.882-.016-13.647.007-12.837-.01-4.696c-.074-11.98 1.475-20.125 9.798-29.013 9.126-9.126 18.414-9.162 30.631-9.123zM19 24c-4.575 5.899-6.243 11.25-6.281 18.677l-.018 1.957-.023 6.452-.03 4.644-.048 12.59-.023 7.879-.054 24.69-.102 28.428-.066 22.021-.05 13.13-.02 12.366-.027 4.513c-.132 10.64 1.412 19.682 8.737 27.887 8.865 8.611 18.622 9.358 30.432 9.314l4.645.031 12.552.023 10.511.017 24.817.011 25.526.055 21.983.041 13.099.029 12.329-.005 4.498.017c10.617.109 19.409-1.53 27.753-8.578 8.754-9.144 9.448-19.625 9.376-31.688l.021-4.631-.002-12.496.006-13.12-.021-22.023.007-25.412.01-21.876.006-13.04-.02-12.26.005-4.483c.06-11.081-1.324-19.96-9.296-28.168-8.882-7.928-18.687-8.866-30.05-8.74l-4.661-.022a1155.8 1155.8 0 0 0-12.551.027l-13.188.011a4217.9 4217.9 0 0 0-22.128.057l-25.531.037a5983.39 5983.39 0 0 0-24.642.022l-10.453.007a1431.01 1431.01 0 0 0-12.315.044l-4.502.005C36.499 12.402 27.957 14.678 19 24z" fill="#737373"/><path d="M195.105 98.16c4.004 1.162 5.476 2.503 7.895 5.84 1.682 3.363 1.227 7.118 1.25 10.813l.063 2.447c.031 4.743-.211 7.899-3.312 11.74-4.199 2.519-8.249 2.161-13 2 2.495-2.495 3.673-2.359 7.125-2.625l2.758-.227L200 128l.125-11.875.051-3.418.02-3.262.032-3.015c.017-2.612.017-2.612-2.227-4.43-4.32-1.359-8.467-2.103-13-2-2.37 1.437-3.681 2.962-5.41 5.113-5.06 6.005-13.238 6.86-20.59 7.887l-.078 2.492c-.66 12.99-4.419 22.039-13.684 31.262-9.097 8.156-19.06 11.835-31.238 11.246 2-2 2-2 5.141-2.402 4.411-.683 7.667-2.165 11.609-4.16C137.625 148 137.625 148 141 148v-2l2-2h3l.375-1.937L147 140l2-1c3.569-7.492 5.725-15.303 7.324-23.418C157 113 157 113 159 111a153.97 153.97 0 0 1 5.938-1.625c7.205-2.111 12.276-5.717 18.063-10.375 4.299-2.866 7.189-1.749 12.105-.84z" fill="#e5d9ce"/><path d="M141 49l-1.574 1.031C132.561 54.803 127.764 60.659 126 69c-.406 7.595-.406 7.595.867 15.027C127 87 127 87 124.613 89.816c-1.084.935-2.185 1.85-3.301 2.746l-3.262 2.754-1.593 1.348c-2.082 1.908-3.732 4.108-5.458 6.336a69.29 69.29 0 0 1-3.312 2.875c-2.955 2.432-5.459 4.986-7.91 7.91-9.895 11.451-9.895 11.451-16.398 12.043-3.826.01-7.61-.38-11.416-.745-6.296-.266-11.511 3.317-16.276 7.042-5.534 5.187-9.29 12.527-9.855 20.137-.047 5.846.642 11.096 2.168 16.738h-2v-5h-2c-2.672-9.166-1.162-17.602 3-26h2v-3c5.566-6.561 14.377-12.021 23-13l3.355.535c5.686.783 10.124 1.187 15.034-2.168C96.117 115.412 101.091 109.75 106 104c3.837-4.434 7.667-8.784 11.875-12.875 4.367-4.249 5.174-5.913 5.263-12.093C123.383 67.197 126.433 57.567 135 49c3-1 3-1 6 0z" fill="#e3e5e4"/><path d="M170 48l1 2c-5.313 6.299-10.845 12.509-17 18h-2c-1.801 3.827-2.281 6.779-2 11l1 2c3.413 1.008 5.227 1.39 8.453-.24 2.513-1.737 4.455-3.513 6.543-5.737l2.193-2.281 4.484-4.758c5.573-5.766 5.573-5.766 9.861-7.008L185 61l-1.926 1.922-7.43 7.469-4.832 4.859-2.482 2.508-2.373 2.383-2.157 2.173c-3.045 2.853-5.596 3.102-9.757 3.019C152 85 152 85 149 83.063c-2.273-3.481-2.985-5.5-2.727-9.617 1.565-5.269 5.878-8.721 9.727-12.445l3.199-3.266C167.53 49.235 167.53 49.235 170 48z" fill="#dbe0de"/><path d="M115.5 27.563l2.84-.021c8.781.081 8.781.081 12.66 3.459 1.005 3.015 1.103 5.042 1.063 8.188l-.027 2.73L132 44c-2.786-2.786-2.367-5.098-2.559-8.906-.269-2.484-.269-2.484-3.441-4.094-2.288-.307-2.288-.307-4.816-.266l-2.814-.008-2.932.023-2.943-.023-2.811.008-2.576.007c-2.325.066-2.325.066-4.107 2.259-.275 1.938-.275 1.938-.312 4.125-.599 6.521-3.582 10.919-8.312 15.313C89.092 55.913 83.112 55.835 77 55c-2.61-1.303-4.708-2.75-6.965-4.59C67.693 48.787 65.8 48.385 63 48l1-2c4.679.45 7.4 1 11 4 4.611 2.635 8.986 2.247 14 1 3.348-1.814 3.348-1.814 6-4l3-2c.626-3.273.888-6.517 1.18-9.836C100 32 100 32 101.914 29.613c4.519-2.362 8.564-2.158 13.586-2.051z" fill="#e5e0db"/><path d="M81 146c3.242 2.529 4.643 3.92 5.331 7.932-.206 7.04-3.907 10.482-8.786 15.226l-2.982 2.779-2.971 2.861L64 182l-2 2c-.375-3.258-.309-4.594 1.712-7.248l2.374-2.256 2.57-2.494 2.719-2.564 5.273-5.066 2.38-2.252c1.868-2.008 3.005-3.568 3.971-6.119-.075-2.627-.075-2.627-1-5-3.534-2.356-4.836-2.49-9-2-5.643 3.18-9.875 7.645-14.375 12.25l-2.23 2.258L51 169l-2-1 8.862-8.917 3.015-3.035 4.334-4.356 2.634-2.65c3.922-3.715 7.934-3.958 13.155-3.041z" fill="#dbdfdd"/><path d="M50 69c3.716 3.345 5.623 6.019 6.258 11.039.381 7.398-1.892 12.299-6.758 17.773-3.772 2.897-8.316 3.584-12.891 4.512-2.748.476-2.748.476-4.609 2.676-.37 2.129-.37 2.129-.414 4.57l-.117 2.715-.094 2.84-.117 2.863L31 125h-2l-.187-10.312-.076-2.959-.029-2.842-.048-2.618c.414-2.754 1.169-3.584 3.341-5.268 1.98-.809 1.98-.809 4.188-1.437L41 98l2.227-.727c4.37-1.751 6.362-3.58 8.336-7.898C53.311 84.183 53.447 79.297 52 74l-2-2v-3z" fill="#e8e4e1"/><path d="M183 91c.676 1.785.676 1.785 1 4-4.222 6.814-12.398 10.814-19.91 12.75-4.39.851-8.608 1.461-13.09 1.25l-1-1c-2.856-.308-4.439-.379-6.854 1.253l-1.743 1.776-2.001 2.002-2.109 2.187-2.198 2.22-6.907 7.062-4.701 4.77L112 141l-2-1 13.91-14.954 4.703-5.093c13.627-15.044 13.627-15.044 21.593-15.992 4.018-.119 7.879.308 11.849.882 5.442.44 9.977-2.214 14.024-5.561 2.709-2.598 4.836-5.152 6.922-8.281z" fill="#dee0df"/><path d="M157 113c2.35 6.234-.157 14.784-2 21-4.788 10.006-14.057 17.929-24.344 21.906-5.731 1.91-10.632 2.385-16.656 2.094 2-2 2-2 5.141-2.402 4.411-.683 7.667-2.165 11.609-4.16C137.625 148 137.625 148 141 148v-2l2-2h3l.375-1.937L147 140l2-1c3.948-8.287 6.196-17.038 8-26z" fill="#e6dfd9"/><path d="M107 143h1l.313 10.938.127 3.096c.148 9.28-2.782 15.458-8.939 22.342l-1.656 1.898c-5.888 5.514-13.949 7.67-21.895 7.762-4.724-.364-8.586-1.139-12.949-3.035v-2l2.047.484c9.935 1.735 20.815 1.739 29.32-4.113 5.559-4.511 9.921-9.312 11.633-16.371.461-6.065.258-12.14-.034-18.209C106 144 106 144 107 143z" fill="#dee1e0"/><path d="M181 135c1.024 2.663 1.08 3.786.063 6.5-1.56 5.14-1.218 10.167-1.062 15.5h2v2h2c1.86 3.139 2.444 5.36 2 9-3.3 6.255-8.738 13.609-15.656 15.867-2.469.258-2.469.258-6.344.133v-1l2.438-.5c6.504-2.739 12.827-8.491 16.563-14.5.751-2.413.751-2.413 0-5-1.167-1.884-2.43-3.616-3.809-5.352-3.242-4.486-2.755-10.382-2.191-15.648 1.063-2.706 2.3-4.609 4-7z" fill="#e8e2de"/><path d="M77 98h1v7l-1 1 .16 7.555C77 116 77 116 75 119l-6 1.813c-7.175 2.074-13.833 4.87-19.066 10.352C48 133 48 133 44.625 133.375c-3.499-.362-6.358-1.1-9.625-2.375v-1l3.75-.062 2.109-.035C43 130 43 130 45 130.734c2.153.52 2.153.52 4.078-1.246l2.172-2.176c7.159-6.68 12.976-8.912 22.75-9.312l-.105-2.344C73.721 108.963 74.189 104.09 77 98z" fill="#e3dad2"/><path d="M119 73c-1.207 1.504-1.207 1.504-3 3-2.199.152-2.199.152-4.687-.062-9.177-.213-14.411 4.629-20.914 10.672-2.825 2.815-5.421 5.758-7.926 8.859C81 97 81 97 78 98c3.47-9.508 10.221-16.166 19-21 7.336-3.275 13.989-4.638 22-4z" fill="#e6dfd9"/><path d="M147.941 106.585L150 107l-3 2c-7.335 5.963-14.189 12.595-20.994 19.149l-4.056 3.789c-8.509 7.196-8.509 7.196-12.751 17.01-.025 3.745-.025 3.745.504 7.221C110 159 110 159 108 162c-.175-3.249-.281-6.497-.375-9.75l-.152-2.789-.059-2.695-.095-2.476c.873-2.937 2.368-3.603 4.921-5.124 3.426-2.269 6.118-5.387 8.952-8.338l4.111-4.199 6.405-6.604 6.234-6.384 1.92-2.017c4.48-4.531 4.48-4.531 8.08-5.039z" fill="#f0f0f0"/><path d="M185 62l-1.258 1.039c-3.568 3.031-6.956 6.147-10.18 9.543l-1.839 1.917-3.622 3.876c-4.348 4.534-4.348 4.534-8.531 5.035L157 83l1.957-1.457c4.174-3.489 7.919-7.354 11.73-11.23l4.574-4.637 2.03-2.065c2.851-2.688 4.068-2.703 7.708-1.611z" fill="#ececec"/><path d="M83 160c-.56 3.848-2.226 5.578-4.965 8.258l-2.424 2.395-2.549 2.473-2.537 2.496-4.662 4.563L62 184c-.379-3.275-.283-4.618 1.712-7.312l2.374-2.333 2.57-2.549 2.719-2.619 2.695-2.678C80.706 160 80.706 160 83 160z" fill="#e8e9e8"/><path d="M112 158h2c-1.55 10.872-5.515 18.992-13 27l1 2c1.287 3.861 1.138 6.942 1 11-3.28-3.864-4.032-7.05-4.406-12.039.764-5.569 4.675-9.016 8.406-12.961 2.11-3.166 2.756-5.512 3.625-9.187l.789-3.293L112 158z" fill="#e5ded8"/><path d="M50 69c3.716 3.345 5.623 6.019 6.258 11.039C56.557 85.842 55.402 90.258 52 95c-1.904 1.914-3.805 3.404-6 5l-1-2h2v-3c.974-1.026 1.977-2.024 3-3 3.027-6.162 3.664-11.269 2-18l-2-2v-3z" fill="#e4dbd3"/><path d="M141 49l-1.574 1.031C132.561 54.803 127.764 60.659 126 69c-.318 6.062-.323 12.049 1 18l-3 2c-1.248-23.966-1.248-23.966 6-34l1.406-2.012c2.907-3.803 4.796-5.588 9.594-3.988z" fill="#e0e2e1"/><path d="M132 186c1.294 3.881 1.605 7.962 1 12-2.333 3.25-4.171 4.247-8 5-2.852.234-5.702.231-8.562.25l-2.326.063c-5.641.039-5.641.039-8.139-1.828L105 200l3.473.07 4.59.055 2.279.051c4.95.043 8.978-.533 13.658-2.176 1.563-1.563 1.306-3.277 1.5-5.437.39-4.343.39-4.343 1.5-6.562z" fill="#e7e3e0"/><path d="M168 44l1 3-1.743-.49c-3.69-.834-7.364-.695-11.132-.698l-2.395-.037c-4.648-.012-8.357.446-12.73 2.225v-2h2v-2c8.082-2.874 16.978-3.313 25 0z" fill="#dde2e0"/><path d="M141 148c-1.195 3.584-2.599 4.289-5.848 6.016-7.067 3.232-13.417 4.359-21.152 3.984 2-2 2-2 5.141-2.402 4.411-.683 7.667-2.165 11.609-4.16C137.625 148 137.625 148 141 148z" fill="#e7ddd4"/><path d="M185 62l2 1v3h2c2.096 7.522 1.436 14.958-2 22-1.605 1.758-1.605 1.758-3 3l1-3.687c1.844-8.278 1.546-17 0-25.312z" fill="#ececec"/><path d="M183 91c.676 1.785.676 1.785 1 4-3.626 5.851-10.507 10.15-17 12-5.328.545-10.664.298-16 0v-1l2.492-.078c10.674-.542 18.702-2.218 26.133-10.238 1.554-1.848 1.554-1.848 3.375-4.684z" fill="#d3dbd7"/><path d="M132 45l1 3c-1.293 2.129-1.293 2.129-3.187 4.563-3.607 4.915-5.787 9.726-7.812 15.438l-2 5h-1c.371-11.137 5.402-20.04 13-28z" fill="#e4dbd2"/><path d="M59 48l4 1-1.574 1.32c-8.196 6.391-8.196 6.391-11.738 15.555L50 69h-2c-1.062-8.376-1.062-8.376 1.453-12.223C51.23 54.959 52.864 53.381 55 52h3l1-4z" fill="#e7dcd2"/><path d="M152 175c4.918 1.596 9.444 3.23 12 8-5.651-1.798-5.651-1.798-7.781-3.031-2.995-1.308-5.716-1.399-8.969-1.594l-3.547-.227L141 178c3.869-3.164 5.938-3.581 11-3z" fill="#e5ded8"/><path d="M181 135c1.024 2.663 1.08 3.786.063 6.5-1.56 5.14-1.218 10.167-1.062 15.5h2l1 5c-3.854-3.469-5.678-6.464-6.336-11.648-.092-6.389.615-10.119 4.336-15.352z" fill="#e0d7cf"/><path d="M123 85c.658 1.812.658 1.812 1 4-1.919 2.29-3.763 4.233-5.937 6.25l-1.748 1.68L112 101l-3-1 2.809-2.773 3.629-3.602 1.854-1.828 1.768-1.758 1.635-1.619c1.415-1.407 1.415-1.407 2.307-3.42z" fill="#eaeaea"/><path d="M115.813 27.75l2.967.055L126 28v1l-3.762.113-4.926.199-2.475.068c-4.696.209-8.051.543-11.838 3.619-1.347 2.571-1.347 2.571-2 5h-1c-.312-2.75-.312-2.75 0-6 4.399-5.219 9.532-4.469 15.813-4.25z" fill="#ececec"/><path d="M119 73c-1.195 1.496-1.195 1.496-3 3-2.305.223-2.305.223-4.875.063-3.972-.139-6.466.323-10.125 1.938-2.133-.441-2.133-.441-4-1 7.513-2.892 13.924-4.643 22-4z" fill="#e3d6cc"/><path d="M157 113c1.336 3.824.83 7.157.313 11.125l-.449 3.758C156 131 156 131 153.918 132.43L152 133l1.938-8.312.553-2.381.537-2.295.492-2.111c.418-1.655.941-3.282 1.481-4.901z" fill="#eeeeed"/><path d="M186 67l2 1 .25 9.25.102 2.645c.1 6.521.1 6.521-2.367 9.715L184 91l1-3.562c1.532-6.733 1.163-13.577 1-20.437z" fill="#ced7d3"/><path d="M87 87l2 1-3.812 4.438-2.145 2.496C81 97 81 97 78 98c1.401-5.292 4.855-7.775 9-11z" fill="#edeae8"/><path d="M124 71h1l.184 1.977c.452 4.711.958 9.365 1.816 14.023l-3 2V71z" fill="#d6dbd8"/><path d="M35 130c4.921-.167 8.503-.248 13 2v1c-4.824.193-8.496-.243-13-2v-1z" fill="#e8e4e0"/><path d="M77 98h1c.193 4.824-.243 8.496-2 13l-2-1c.508-4.318 1.197-8.033 3-12z" fill="#e3d2c2"/><path d="M181 135c1.487 3.867.34 6.203-1 10-.375 2.327-.719 4.66-1 7h-1c-.207-5.784.343-10.446 2-16l1-1z" fill="#e8e5e2"/><path d="M186 97c2.918.145 2.918.145 6.188.813l3.293.645L198 99v1h-15l3-3z" fill="#ebe9e8"/><path d="M141 178c-1.502 4.206-4.286 5.739-8 8 1.344-4.145 3.122-8 8-8z" fill="#e4dad2"/><path d="M74 110l3 2c-.875 4.75-.875 4.75-2 7l-3-1h2v-8z" fill="#eae9e9"/><path d="M100 189l3 1v8c-2.097-2.36-2.969-3.546-3.187-6.75L100 189z" fill="#e5d8cd"/><path d="M186 131c2.25.25 2.25.25 4 1-1.187 1.5-1.187 1.5-3 3-2.687.188-2.687.188-5 0 1.75-2.062 1.75-2.062 4-4z" fill="#e6e2de"/></svg>