<?xml version="1.0" encoding="UTF-8"?>
<svg version="1.1" xmlns="http://www.w3.org/2000/svg" width="230" height="230">
<path d="M0 0 C1.61217724 -0.00570871 3.22435045 -0.0126749 4.83651733 -0.02079773 C9.1981377 -0.03868871 13.55955643 -0.03756846 17.92120242 -0.03185534 C21.56923201 -0.02875769 25.2172232 -0.03486233 28.86524731 -0.04089409 C37.47448795 -0.05492429 46.08362933 -0.05339049 54.69287109 -0.04199219 C63.56003424 -0.03051148 72.42689491 -0.04458924 81.29401821 -0.07138866 C88.92145487 -0.09357402 96.54879677 -0.10017668 104.17626339 -0.09431225 C108.72550234 -0.09094837 113.27454741 -0.09331987 117.82375908 -0.11056328 C122.10275227 -0.12607573 126.38129869 -0.12202951 130.66027451 -0.10325813 C132.22551834 -0.09958416 133.79079559 -0.10264583 135.35600853 -0.11314392 C147.33566892 -0.18732437 155.48141894 1.36165219 164.36938477 9.68530273 C172.26861814 17.5845361 173.46782754 24.93135941 173.50582886 35.77055359 C173.50159169 37.28567595 173.49703393 38.80079744 173.4921875 40.31591797 C173.49789621 41.92809521 173.5048624 43.54026842 173.51298523 45.1524353 C173.53087621 49.51405567 173.52975596 53.8754744 173.52404284 58.23712039 C173.52094519 61.88514998 173.52704983 65.53314116 173.53308159 69.18116528 C173.54711179 77.79040592 173.54557799 86.39954729 173.53417969 95.00878906 C173.52269898 103.87595221 173.53677674 112.74281288 173.56357616 121.60993618 C173.58576152 129.23737284 173.59236418 136.86471474 173.58649975 144.49218136 C173.58313587 149.04142031 173.58550737 153.59046538 173.60275078 158.13967705 C173.61826323 162.41867024 173.61421701 166.69721666 173.59544563 170.97619247 C173.59177166 172.54143631 173.59483333 174.10671356 173.60533142 175.6719265 C173.67951187 187.65158689 172.13053531 195.7973369 163.80688477 204.68530273 C155.9076514 212.5845361 148.56082809 213.78374551 137.72163391 213.82174683 C136.20651155 213.81750966 134.69139006 213.81295189 133.17626953 213.80810547 C131.56409229 213.81381418 129.95191908 213.82078037 128.3397522 213.8289032 C123.97813183 213.84679418 119.6167131 213.84567393 115.25506711 213.83996081 C111.60703752 213.83686316 107.95904634 213.8429678 104.31102222 213.84899956 C95.70178158 213.86302976 87.09264021 213.86149596 78.48339844 213.85009766 C69.61623529 213.83861695 60.74937462 213.85269471 51.88225132 213.87949413 C44.25481466 213.90167949 36.62747276 213.90828215 29.00000614 213.90241772 C24.45076719 213.89905384 19.90172212 213.90142534 15.35251045 213.91866875 C11.07351726 213.9341812 6.79497084 213.93013498 2.51599503 213.9113636 C0.95075119 213.90768963 -0.61452606 213.91075129 -2.179739 213.92124939 C-14.15939939 213.99542984 -22.3051494 212.44645327 -31.19311523 204.12280273 C-39.0923486 196.22356936 -40.29155801 188.87674606 -40.32955933 178.03755188 C-40.32532216 176.52242952 -40.32076439 175.00730803 -40.31591797 173.4921875 C-40.32162668 171.88001026 -40.32859287 170.26783705 -40.3367157 168.65567017 C-40.35460668 164.2940498 -40.35348643 159.93263107 -40.34777331 155.57098508 C-40.34467566 151.92295549 -40.3507803 148.2749643 -40.35681206 144.62694019 C-40.37084226 136.01769955 -40.36930846 127.40855817 -40.35791016 118.79931641 C-40.34642945 109.93215326 -40.36050721 101.06529259 -40.38730663 92.19816929 C-40.40949199 84.57073263 -40.41609465 76.94339073 -40.41023022 69.31592411 C-40.40686634 64.76668516 -40.40923784 60.21764009 -40.42648125 55.66842842 C-40.4419937 51.38943523 -40.43794748 47.11088881 -40.4191761 42.83191299 C-40.41550213 41.26666916 -40.41856379 39.70139191 -40.42906189 38.13617897 C-40.50324234 26.15651858 -38.95426577 18.01076856 -30.63061523 9.12280273 C-21.50451367 -0.00329883 -12.21648228 -0.03907694 0 0 Z " fill="#FEFEFE" transform="translate(48.911865234375,8.595947265625)"/>
<path d="M0 0 C1.20462891 -0.01836914 1.20462891 -0.01836914 2.43359375 -0.03710938 C6.78725649 -0.04786801 10.1599899 0.15683693 14.125 2.1875 C14.125 2.8475 14.125 3.5075 14.125 4.1875 C12.796875 5.4921875 12.796875 5.4921875 10.875 7.0625 C6.9922554 10.36074541 3.35151583 13.83924445 -0.25 17.4375 C-0.77368164 17.95683105 -1.29736328 18.47616211 -1.83691406 19.01123047 C-6.14849769 23.02458365 -6.14849769 23.02458365 -8.10546875 28.34375 C-8.09128906 29.1171875 -8.07710938 29.890625 -8.0625 30.6875 C-8.05605469 31.4609375 -8.04960937 32.234375 -8.04296875 33.03125 C-7.9480565 35.37098849 -7.9480565 35.37098849 -6.875 38.1875 C-3.0693241 39.45605863 0.19682526 39.99456136 4.125 39.1875 C7.25846722 37.3584938 9.60535186 34.7743915 12.125 32.1875 C14.05905541 30.23173742 15.9969599 28.27989417 17.93725586 26.33032227 C19.30598492 24.94992928 20.66758174 23.56242548 22.02172852 22.16772461 C22.65135498 21.52585205 23.28098145 20.88397949 23.9296875 20.22265625 C24.49671387 19.6387915 25.06374023 19.05492676 25.64794922 18.45336914 C27.125 17.1875 27.125 17.1875 29.125 17.1875 C32.2255507 25.52023001 32.61817014 35.63128808 29.36328125 43.9921875 C25.07836119 51.58879656 18.57837377 58.13646784 10.16560364 60.8102417 C8.125 61.1875 8.125 61.1875 4.2878418 60.66113281 C-3.3967131 59.66075614 -9.51825072 59.77076304 -15.98974609 64.42382812 C-20.46753108 68.10263865 -24.54154417 72.1380951 -28.54370117 76.32421875 C-31.06046845 78.93539224 -33.66467513 81.42563634 -36.29492188 83.921875 C-46.55233348 93.96264186 -46.55233348 93.96264186 -49.96406555 107.42047119 C-49.80561303 110.68779726 -49.39941071 113.89229591 -48.96737671 117.13275146 C-48.68539528 123.40490537 -53.03434669 128.13313788 -56.9609375 132.515625 C-65.30421115 140.65397614 -73.17692233 141.52298789 -84.421875 141.48828125 C-87.67563232 141.20486574 -89.95051952 140.58834848 -92.875 139.1875 C-91.38369052 135.64296002 -89.37238059 133.54911345 -86.55859375 130.95703125 C-85.71232422 130.15330078 -84.86605469 129.34957031 -83.99414062 128.52148438 C-82.21401149 126.84767031 -80.42235675 125.18602564 -78.61914062 123.53710938 C-73.87532847 118.98869451 -70.85152721 115.85463226 -70.62768555 109.11035156 C-70.81402955 106.92733728 -70.81402955 106.92733728 -72.25 104.125 C-75.51331457 101.71636305 -77.53286473 101.32672036 -81.5390625 101.60546875 C-86.11450247 102.74550312 -88.67995463 105.87073861 -91.875 109.1875 C-93.15119708 110.45819327 -94.43009651 111.72617535 -95.7109375 112.9921875 C-99.45514779 116.70154124 -103.17177688 120.43726331 -106.875 124.1875 C-110.57652946 120.48597054 -111.02494763 115.48510307 -111.25 110.4375 C-110.99782716 101.20517204 -107.5044789 93.76653232 -101.16796875 87.1328125 C-96.64156702 83.29269655 -91.46339358 81.05029786 -85.875 79.1875 C-84.72257812 79.39890625 -83.57015625 79.6103125 -82.3828125 79.828125 C-75.84453099 80.87643149 -70.5919345 81.13570023 -65.00683594 77.13085938 C-59.13635869 71.87471158 -53.87254075 66.09325843 -48.74414062 60.11523438 C-48.12732422 59.47908203 -47.51050781 58.84292969 -46.875 58.1875 C-46.215 58.1875 -45.555 58.1875 -44.875 58.1875 C-44.64683594 57.63320312 -44.41867188 57.07890625 -44.18359375 56.5078125 C-42.50305134 53.52798506 -40.37388301 51.4595288 -37.9375 49.0625 C-37.06222656 48.19367188 -36.18695313 47.32484375 -35.28515625 46.4296875 C-32.875 44.1875 -32.875 44.1875 -29.875 42.1875 C-30.04 41.445 -30.205 40.7025 -30.375 39.9375 C-31.9057199 28.45710076 -30.6879339 20.57863379 -24.1875 11 C-17.67053931 2.68755014 -10.14431466 0.00806384 0 0 Z " fill="#61A384" transform="translate(155.875,44.8125)"/>
<path d="M0 0 C6.85026906 1.19135114 6.85026906 1.19135114 9.375 4.5 C9.76318359 6.8125 9.76318359 6.8125 9.7734375 9.5 C9.77730469 10.469375 9.78117187 11.43875 9.78515625 12.4375 C9.77355469 13.448125 9.76195312 14.45875 9.75 15.5 C9.76160156 16.510625 9.77320313 17.52125 9.78515625 18.5625 C9.78128906 19.531875 9.77742188 20.50125 9.7734375 21.5 C9.77005371 22.386875 9.76666992 23.27375 9.76318359 24.1875 C9.29937833 26.95049587 8.58379029 27.82821225 6.375 29.5 C4.140625 30.0546875 4.140625 30.0546875 1.625 30.375 C-4.76901795 31.5137886 -8.7080372 33.90282459 -12.5625 39.125 C-14.587704 45.55800093 -14.73707579 51.92053518 -11.75 58.0625 C-10.51091283 60.26991085 -9.43585269 61.68914731 -7.625 63.5 C-7.171875 65.7421875 -7.171875 65.7421875 -7.625 68.5 C-9.31507881 70.74372532 -10.92677406 72.63711552 -12.875 74.625 C-13.36613281 75.14964844 -13.85726562 75.67429687 -14.36328125 76.21484375 C-20.9434911 83.14599813 -20.9434911 83.14599813 -25 84 C-28.17787538 83.3946904 -29.73087065 81.87389072 -32.09375 79.74609375 C-35.3472013 77.09851476 -38.88146158 76.59820319 -42.9375 76.0625 C-48.49062846 76.72134575 -53.24495114 78.87216523 -57.05078125 83.07421875 C-59.59226296 87.03893022 -60.11549625 90.82728574 -60.25390625 95.484375 C-60.74419142 98.14739761 -61.41056411 98.94568136 -63.625 100.5 C-68.12878609 101.61621212 -72.62393179 101.69437593 -77.25 101.75 C-79.18746094 101.78867188 -79.18746094 101.78867188 -81.1640625 101.828125 C-84.81399772 101.48208148 -86.21703782 101.2286351 -88.625 98.5 C-89.41796875 95.90625 -89.41796875 95.90625 -89.8125 93 C-90.24456669 89.99572323 -90.66254799 87.38735604 -91.625 84.5 C-91.09390625 83.96632813 -90.5628125 83.43265625 -90.015625 82.8828125 C-83.06164205 75.54813705 -80.13829084 68.13428154 -77.625 58.5 C-76.86316406 58.39042969 -76.10132812 58.28085938 -75.31640625 58.16796875 C-62.03514404 56.12852399 -50.54821234 52.46719888 -41.9296875 41.4140625 C-35.95097539 32.64289803 -34.19798221 23.80750946 -32.625 13.5 C-31.779375 13.26925781 -30.93375 13.03851563 -30.0625 12.80078125 C-18.31741552 9.47354341 -18.31741552 9.47354341 -9.4375 1.5625 C-5.81753063 -1.0921442 -4.3717153 -0.58450558 0 0 Z " fill="#EE740B" transform="translate(191.625,99.5)"/>
<path d="M0 0 C0.91974609 -0.00386719 1.83949219 -0.00773437 2.78710938 -0.01171875 C3.74552734 -0.00011719 4.70394531 0.01148437 5.69140625 0.0234375 C7.12323242 0.00603516 7.12323242 0.00603516 8.58398438 -0.01171875 C9.50501953 -0.00785156 10.42605469 -0.00398438 11.375 0 C12.63461548 0.00507568 12.63461548 0.00507568 13.91967773 0.01025391 C16.76553404 0.48352151 18.15397147 1.45074059 20.25390625 3.3984375 C20.828125 5.484375 20.828125 5.484375 20.94140625 7.7734375 C21.09501515 10.327734 21.27891918 12.48823801 21.96875 14.96484375 C22.25390625 17.3984375 22.25390625 17.3984375 20.99609375 19.21484375 C20.37992187 19.79105469 19.76375 20.36726563 19.12890625 20.9609375 C13.21355769 27.19571488 10.4290229 34.97260108 9.25390625 43.3984375 C7.91199219 43.54539062 7.91199219 43.54539062 6.54296875 43.6953125 C-6.06913019 45.2550177 -15.60509389 48.21142589 -24.74609375 57.3984375 C-32.43352309 67.32562539 -35.14723045 76.00816224 -35.74609375 88.3984375 C-36.49632812 88.54539062 -37.2465625 88.69234375 -38.01953125 88.84375 C-46.85686764 90.78039551 -54.33892738 93.78263154 -60.68359375 100.3984375 C-64.87004047 103.13244352 -67.40862484 102.35398099 -72.16015625 101.40234375 C-75.45019712 100.12509223 -76.77955705 99.3777633 -78.74609375 96.3984375 C-79.30853603 92.86665341 -79.25828602 89.40430051 -79.18359375 85.8359375 C-79.19068359 84.87751953 -79.19777344 83.91910156 -79.20507812 82.93164062 C-79.14108333 75.90698126 -79.14108333 75.90698126 -77.38818359 73.65014648 C-75.05062943 71.86830881 -72.80323596 71.57931788 -69.93359375 71.0234375 C-64.45082285 69.73882693 -61.48993788 68.62226165 -57.74609375 64.3984375 C-54.73033421 59.17112097 -53.80356489 54.31711335 -54.74609375 48.3984375 C-56.16031776 44.52094069 -57.82110232 41.32342893 -60.74609375 38.3984375 C-61.30633955 35.38711633 -61.33735766 33.34619876 -59.68359375 30.6953125 C-58.12767156 28.81805855 -56.4812165 27.11145677 -54.74609375 25.3984375 C-54.10800781 24.72683594 -53.46992187 24.05523437 -52.8125 23.36328125 C-47.8262597 18.47423862 -47.8262597 18.47423862 -43.18359375 18.1484375 C-40.13692721 19.25631624 -38.92266688 19.97945591 -36.55859375 21.9609375 C-32.47704243 25.14676376 -28.584093 24.98622585 -23.5546875 24.75390625 C-18.59318294 24.12595505 -15.85588847 22.60071511 -12.49609375 18.9609375 C-9.33501908 14.33222102 -8.47736645 11.0643959 -8.1875 5.51953125 C-7.22254272 0.88261263 -4.38341285 0.01768694 0 0 Z " fill="#EE730A" transform="translate(109.74609375,29.6015625)"/>
<path d="M0 0 C1.61217724 -0.00570871 3.22435045 -0.0126749 4.83651733 -0.02079773 C9.1981377 -0.03868871 13.55955643 -0.03756846 17.92120242 -0.03185534 C21.56923201 -0.02875769 25.2172232 -0.03486233 28.86524731 -0.04089409 C37.47448795 -0.05492429 46.08362933 -0.05339049 54.69287109 -0.04199219 C63.56003424 -0.03051148 72.42689491 -0.04458924 81.29401821 -0.07138866 C88.92145487 -0.09357402 96.54879677 -0.10017668 104.17626339 -0.09431225 C108.72550234 -0.09094837 113.27454741 -0.09331987 117.82375908 -0.11056328 C122.10275227 -0.12607573 126.38129869 -0.12202951 130.66027451 -0.10325813 C132.22551834 -0.09958416 133.79079559 -0.10264583 135.35600853 -0.11314392 C147.33566892 -0.18732437 155.48141894 1.36165219 164.36938477 9.68530273 C172.26861814 17.5845361 173.46782754 24.93135941 173.50582886 35.77055359 C173.50159169 37.28567595 173.49703393 38.80079744 173.4921875 40.31591797 C173.49789621 41.92809521 173.5048624 43.54026842 173.51298523 45.1524353 C173.53087621 49.51405567 173.52975596 53.8754744 173.52404284 58.23712039 C173.52094519 61.88514998 173.52704983 65.53314116 173.53308159 69.18116528 C173.54711179 77.79040592 173.54557799 86.39954729 173.53417969 95.00878906 C173.52269898 103.87595221 173.53677674 112.74281288 173.56357616 121.60993618 C173.58576152 129.23737284 173.59236418 136.86471474 173.58649975 144.49218136 C173.58313587 149.04142031 173.58550737 153.59046538 173.60275078 158.13967705 C173.61826323 162.41867024 173.61421701 166.69721666 173.59544563 170.97619247 C173.59177166 172.54143631 173.59483333 174.10671356 173.60533142 175.6719265 C173.67951187 187.65158689 172.13053531 195.7973369 163.80688477 204.68530273 C155.9076514 212.5845361 148.56082809 213.78374551 137.72163391 213.82174683 C136.20651155 213.81750966 134.69139006 213.81295189 133.17626953 213.80810547 C131.56409229 213.81381418 129.95191908 213.82078037 128.3397522 213.8289032 C123.97813183 213.84679418 119.6167131 213.84567393 115.25506711 213.83996081 C111.60703752 213.83686316 107.95904634 213.8429678 104.31102222 213.84899956 C95.70178158 213.86302976 87.09264021 213.86149596 78.48339844 213.85009766 C69.61623529 213.83861695 60.74937462 213.85269471 51.88225132 213.87949413 C44.25481466 213.90167949 36.62747276 213.90828215 29.00000614 213.90241772 C24.45076719 213.89905384 19.90172212 213.90142534 15.35251045 213.91866875 C11.07351726 213.9341812 6.79497084 213.93013498 2.51599503 213.9113636 C0.95075119 213.90768963 -0.61452606 213.91075129 -2.179739 213.92124939 C-14.15939939 213.99542984 -22.3051494 212.44645327 -31.19311523 204.12280273 C-39.0923486 196.22356936 -40.29155801 188.87674606 -40.32955933 178.03755188 C-40.32532216 176.52242952 -40.32076439 175.00730803 -40.31591797 173.4921875 C-40.32162668 171.88001026 -40.32859287 170.26783705 -40.3367157 168.65567017 C-40.35460668 164.2940498 -40.35348643 159.93263107 -40.34777331 155.57098508 C-40.34467566 151.92295549 -40.3507803 148.2749643 -40.35681206 144.62694019 C-40.37084226 136.01769955 -40.36930846 127.40855817 -40.35791016 118.79931641 C-40.34642945 109.93215326 -40.36050721 101.06529259 -40.38730663 92.19816929 C-40.40949199 84.57073263 -40.41609465 76.94339073 -40.41023022 69.31592411 C-40.40686634 64.76668516 -40.40923784 60.21764009 -40.42648125 55.66842842 C-40.4419937 51.38943523 -40.43794748 47.11088881 -40.4191761 42.83191299 C-40.41550213 41.26666916 -40.41856379 39.70139191 -40.42906189 38.13617897 C-40.50324234 26.15651858 -38.95426577 18.01076856 -30.63061523 9.12280273 C-21.50451367 -0.00329883 -12.21648228 -0.03907694 0 0 Z M-29.91186523 15.40405273 C-34.48669944 21.30318106 -36.15437448 26.65425917 -36.19274902 34.08108521 C-36.19869127 34.72702979 -36.20463351 35.37297437 -36.21075583 36.03849304 C-36.22801052 38.18920841 -36.23113601 40.33969958 -36.23413086 42.49047852 C-36.24339587 44.03838062 -36.25344635 45.5862782 -36.26422119 47.13417053 C-36.29039375 51.33076647 -36.30334473 55.52729851 -36.31224251 59.72396326 C-36.31811736 62.35031514 -36.32632955 64.97664983 -36.33525085 67.60299301 C-36.36258348 75.8330855 -36.38192413 84.06313837 -36.38965464 92.29327309 C-36.39860641 101.76964923 -36.4336645 111.24544702 -36.49165583 120.72164738 C-36.53500527 128.06203439 -36.55506939 135.40225939 -36.55773687 142.74277294 C-36.55982512 147.11958589 -36.57146964 151.49585457 -36.6073761 155.87253189 C-36.64053912 159.994872 -36.64455365 164.11626467 -36.62709808 168.23869133 C-36.62556783 169.74303554 -36.63410342 171.24743282 -36.65401459 172.75164604 C-36.78647483 183.39127267 -35.24189274 192.43384128 -27.91660309 200.6389637 C-19.05117764 209.24998026 -9.2948025 209.99742373 2.51513672 209.95336914 C4.0634865 209.96207687 5.61182769 209.97244765 7.16015625 209.98434448 C11.34427797 210.01100543 15.52803707 210.01229517 19.71222711 210.00721788 C23.21588964 210.00506994 26.71948007 210.01486706 30.22312707 210.02442873 C38.49548653 210.04657871 46.76766433 210.04751723 55.04003906 210.03540039 C63.5488761 210.02332798 72.0570511 210.04793289 80.56577522 210.09054053 C87.89351473 210.1258731 95.2210445 210.1377594 102.54886597 210.13126504 C106.91553053 210.12765431 111.28172297 210.13275955 115.64830971 210.16069412 C119.7584373 210.1860066 123.86754007 210.18181978 127.9776535 210.15587234 C129.47714027 210.15117475 130.97670093 210.15648752 132.47610283 210.17311859 C143.09315923 210.28229454 151.88548525 208.64290643 160.2294817 201.595438 C168.98354709 192.45171243 169.67741173 181.97062691 169.60571289 169.90771484 C169.61114276 168.36420535 169.61827025 166.82070104 169.62695312 165.27720642 C169.64508527 161.11190695 169.63816156 156.94700671 169.62543678 152.78170085 C169.61525819 148.40837635 169.62471572 144.03508437 169.63098145 139.66175842 C169.638243 132.32083036 169.62870865 124.98006368 169.60961914 117.63916016 C169.58784511 109.16842791 169.59491155 100.69808075 169.61692476 92.2273578 C169.63511172 84.93532274 169.63762126 77.64340318 169.62717009 70.35135275 C169.62095427 66.00447982 169.62004676 61.65778755 169.63331604 57.31092644 C169.6449224 53.22394075 169.63676228 49.13744882 169.61373901 45.05051613 C169.60847768 43.55623059 169.6099213 42.06190306 169.61878967 40.56763458 C169.67846175 29.48654662 168.29498987 20.60789612 160.3232317 12.3991909 C151.44116905 4.47070156 141.6362533 3.53338427 130.27294922 3.65942383 C128.71928944 3.65455652 127.16563596 3.6471068 125.61199951 3.63729858 C121.42801401 3.61863342 117.24497676 3.63719691 113.06106591 3.66396284 C108.66507511 3.68674992 104.26912563 3.67836502 99.87309265 3.67446899 C92.49694493 3.67270854 85.12116676 3.69475371 77.74511719 3.73168945 C69.23456016 3.77406398 60.72454302 3.78103137 52.21390182 3.76856554 C43.99976479 3.75715321 35.78581657 3.76849583 27.57170677 3.79091263 C24.08746004 3.80016681 20.6033295 3.80196889 17.11907387 3.79774094 C13.0139638 3.79395695 8.90939866 3.8103204 4.80441284 3.84186172 C3.30369001 3.8503016 1.80291164 3.85207952 0.30217552 3.84648132 C-12.41323255 3.80626463 -20.9551007 6.08170598 -29.91186523 15.40405273 Z " fill="#737373" transform="translate(48.911865234375,8.595947265625)"/>
<path d="M0 0 C4.00356163 1.16162719 5.47558887 2.5033715 7.89453125 5.83984375 C9.5761008 9.20298284 9.12127502 12.95750962 9.14453125 16.65234375 C9.16515625 17.45994141 9.18578125 18.26753906 9.20703125 19.09960938 C9.23810519 23.84226928 8.99584456 26.99869907 5.89453125 30.83984375 C1.69602362 33.35894833 -2.35455552 33.00089166 -7.10546875 32.83984375 C-4.61040913 30.34478413 -3.43217987 30.48035999 0.01953125 30.21484375 C0.92960937 30.14007813 1.8396875 30.0653125 2.77734375 29.98828125 C3.82535156 29.91480469 3.82535156 29.91480469 4.89453125 29.83984375 C4.95238772 25.8815714 4.98807842 21.92340705 5.01953125 17.96484375 C5.04466797 16.27294922 5.04466797 16.27294922 5.0703125 14.546875 C5.07675781 13.47050781 5.08320313 12.39414063 5.08984375 11.28515625 C5.10031738 10.29016113 5.11079102 9.29516602 5.12158203 8.27001953 C5.13832526 5.65812958 5.13832526 5.65812958 2.89453125 3.83984375 C-1.42518369 2.48049289 -5.57203072 1.73656399 -10.10546875 1.83984375 C-12.47524048 3.27646361 -13.78683782 4.80165147 -15.515625 6.953125 C-20.57592488 12.95834574 -28.75373236 13.81276293 -36.10546875 14.83984375 C-36.14414063 16.07347656 -36.14414063 16.07347656 -36.18359375 17.33203125 C-36.84361273 30.32240474 -40.60301713 39.37066243 -49.8671875 48.59375 C-58.96383354 56.75006859 -68.92743041 60.42910367 -81.10546875 59.83984375 C-79.10546875 57.83984375 -79.10546875 57.83984375 -75.96484375 57.4375 C-71.55369556 56.75439709 -68.29812791 55.27237669 -64.35546875 53.27734375 C-57.48046875 49.83984375 -57.48046875 49.83984375 -54.10546875 49.83984375 C-54.10546875 49.17984375 -54.10546875 48.51984375 -54.10546875 47.83984375 C-53.44546875 47.17984375 -52.78546875 46.51984375 -52.10546875 45.83984375 C-51.11546875 45.83984375 -50.12546875 45.83984375 -49.10546875 45.83984375 C-48.91984375 44.88078125 -48.91984375 44.88078125 -48.73046875 43.90234375 C-48.52421875 43.22171875 -48.31796875 42.54109375 -48.10546875 41.83984375 C-47.44546875 41.50984375 -46.78546875 41.17984375 -46.10546875 40.83984375 C-42.53639779 33.34832846 -40.38061495 25.53644441 -38.78125 17.421875 C-38.10546875 14.83984375 -38.10546875 14.83984375 -36.10546875 12.83984375 C-34.13870594 12.25473905 -32.1565499 11.72085608 -30.16796875 11.21484375 C-22.96328449 9.10381529 -17.89241596 5.49763053 -12.10546875 0.83984375 C-7.80689394 -2.02587279 -4.91643154 -0.90956956 0 0 Z " fill="#E5D9CE" transform="translate(195.10546875,98.16015625)"/>
<path d="M0 0 C-0.51949219 0.3403125 -1.03898437 0.680625 -1.57421875 1.03125 C-8.43944136 5.80264316 -13.2355132 11.65878967 -15 20 C-15.40641478 27.59473726 -15.40641478 27.59473726 -14.1328125 35.02734375 C-14 38 -14 38 -16.38671875 40.81640625 C-17.4703063 41.75144814 -18.57150774 42.6663825 -19.6875 43.5625 C-20.77776468 44.47687381 -21.86505762 45.39480374 -22.94921875 46.31640625 C-23.47475342 46.76113281 -24.00028809 47.20585938 -24.54174805 47.6640625 C-26.62390007 49.57156892 -28.27417677 51.77205148 -30 54 C-31.07332162 54.99275753 -32.17850143 55.95215979 -33.3125 56.875 C-36.26727918 59.30738728 -38.77169447 61.86096428 -41.22265625 64.78515625 C-51.11745382 76.23651494 -51.11745382 76.23651494 -57.62109375 76.828125 C-61.44668705 76.83846444 -65.23149904 76.44770495 -69.03662109 76.08300781 C-75.33215407 75.81684502 -80.54774936 79.39951105 -85.3125 83.125 C-90.84697098 88.31216612 -94.60279909 95.65164362 -95.16796875 103.26171875 C-95.21503738 109.10764244 -94.52644633 114.35760019 -93 120 C-93.66 120 -94.32 120 -95 120 C-95 118.35 -95 116.7 -95 115 C-95.66 115 -96.32 115 -97 115 C-99.67158588 105.8340712 -98.16200731 97.39833618 -94 89 C-93.34 89 -92.68 89 -92 89 C-92 88.01 -92 87.02 -92 86 C-86.43429403 79.43930749 -77.62344547 73.97935885 -69 73 C-67.89269531 73.17660156 -66.78539062 73.35320312 -65.64453125 73.53515625 C-59.9580908 74.31769393 -55.52003948 74.72242175 -50.61035156 71.36669922 C-44.88316064 66.41185693 -39.90921292 60.74951779 -35 55 C-31.16303302 50.56571377 -27.33285918 46.21637865 -23.125 42.125 C-18.75755429 37.8759935 -17.95055324 36.21229929 -17.86230469 30.03222656 C-17.61744098 18.19714728 -14.56686334 8.56686334 -6 0 C-3 -1 -3 -1 0 0 Z " fill="#E3E5E4" transform="translate(141,49)"/>
<path d="M0 0 C0.33 0.66 0.66 1.32 1 2 C-4.31345336 8.29872948 -9.84519771 14.50906121 -16 20 C-16.66 20 -17.32 20 -18 20 C-19.80098121 23.82708507 -20.28143104 26.77853434 -20 31 C-19.67 31.66 -19.34 32.32 -19 33 C-15.58737039 34.00827693 -13.77252076 34.39037321 -10.54663086 32.76025391 C-8.03322862 31.02296792 -6.09134654 29.24716758 -4.00390625 27.0234375 C-3.28009766 26.270625 -2.55628906 25.5178125 -1.81054688 24.7421875 C-0.30978961 23.16189401 1.18500676 21.57591854 2.67382812 19.984375 C8.24700571 14.21799393 8.24700571 14.21799393 12.53515625 12.9765625 C13.75525391 12.98816406 13.75525391 12.98816406 15 13 C14.36449219 13.63421875 13.72898438 14.2684375 13.07421875 14.921875 C10.59066621 17.40455212 8.11733096 19.89724062 5.64453125 22.390625 C4.03391388 24.01047605 2.42323528 25.6302662 0.8125 27.25 C-0.00669922 28.07757813 -0.82589844 28.90515625 -1.66992188 29.7578125 C-2.45302734 30.54414062 -3.23613281 31.33046875 -4.04296875 32.140625 C-5.11067505 33.21618652 -5.11067505 33.21618652 -6.19995117 34.31347656 C-9.2445886 37.16609495 -11.79585838 37.4154063 -15.95703125 37.33203125 C-18 37 -18 37 -21 35.0625 C-23.27316609 31.58171442 -23.98472743 29.56236367 -23.7265625 25.4453125 C-22.16111088 20.17664201 -17.84812664 16.72434074 -14 13 C-12.93063891 11.91436097 -11.86434179 10.82569724 -10.80078125 9.734375 C-2.47013616 1.23506808 -2.47013616 1.23506808 0 0 Z " fill="#DBE0DE" transform="translate(170,48)"/>
<path d="M0 0 C1.40572266 -0.01063477 1.40572266 -0.01063477 2.83984375 -0.02148438 C11.62123686 0.05947882 11.62123686 0.05947882 15.5 3.4375 C16.50496852 6.45240557 16.60335303 8.47931692 16.5625 11.625 C16.55347656 12.52605469 16.54445313 13.42710938 16.53515625 14.35546875 C16.52355469 15.04253906 16.51195312 15.72960938 16.5 16.4375 C13.71442216 13.65192216 14.1330631 11.33965707 13.94140625 7.53125 C13.67277038 5.04732179 13.67277038 5.04732179 10.5 3.4375 C8.21155138 3.13028362 8.21155138 3.13028362 5.68359375 3.171875 C4.29043945 3.16800781 4.29043945 3.16800781 2.86914062 3.1640625 C1.41797852 3.17566406 1.41797852 3.17566406 -0.0625 3.1875 C-1.03380859 3.17976563 -2.00511719 3.17203125 -3.00585938 3.1640625 C-3.93333984 3.16664062 -4.86082031 3.16921875 -5.81640625 3.171875 C-7.09173218 3.17525879 -7.09173218 3.17525879 -8.39282227 3.17871094 C-10.71769005 3.24476384 -10.71769005 3.24476384 -12.5 5.4375 C-12.77476212 7.37512434 -12.77476212 7.37512434 -12.8125 9.5625 C-13.41109112 16.08399272 -16.39402762 20.48195422 -21.125 24.875 C-26.40778817 28.35051854 -32.38780392 28.27270692 -38.5 27.4375 C-41.10987825 26.13451146 -43.20789718 24.68713293 -45.46484375 22.84765625 C-47.80748501 21.22444417 -49.70030468 20.82215379 -52.5 20.4375 C-52.17 19.7775 -51.84 19.1175 -51.5 18.4375 C-46.82093666 18.88740994 -44.10034782 19.43721015 -40.5 22.4375 C-35.88920432 25.07224039 -31.51405129 24.68438048 -26.5 23.4375 C-23.15247442 21.62371008 -23.15247442 21.62371008 -20.5 19.4375 C-19.51 18.7775 -18.52 18.1175 -17.5 17.4375 C-16.87354785 14.16406691 -16.61248589 10.92035256 -16.3203125 7.6015625 C-15.5 4.4375 -15.5 4.4375 -13.5859375 2.05078125 C-9.06696867 -0.31166701 -5.02211508 -0.10707398 0 0 Z " fill="#E5E0DB" transform="translate(115.5,27.5625)"/>
<path d="M0 0 C3.24208546 2.52882666 4.64341011 3.92037409 5.33129883 7.93212891 C5.12491183 14.97212821 1.42385971 18.41376392 -3.45507812 23.15820312 C-4.4487603 24.08512713 -5.44290597 25.01155449 -6.4375 25.9375 C-7.42956577 26.88937098 -8.41981938 27.84313443 -9.40820312 28.79882812 C-11.92298466 31.21668759 -14.45899523 33.60981392 -17 36 C-17.66 36.66 -18.32 37.32 -19 38 C-19.37499436 34.74228128 -19.30910491 33.40583792 -17.28759766 30.75170898 C-16.50433105 30.00735596 -15.72106445 29.26300293 -14.9140625 28.49609375 C-14.06585938 27.67302734 -13.21765625 26.84996094 -12.34375 26.00195312 C-11.4465625 25.15568359 -10.549375 24.30941406 -9.625 23.4375 C-7.86284109 21.75323362 -6.10484154 20.06460191 -4.3515625 18.37109375 C-3.56604004 17.62786865 -2.78051758 16.88464355 -1.97119141 16.11889648 C-0.10359807 14.11136087 1.03359263 12.55106512 2 10 C1.92466753 7.3727086 1.92466753 7.3727086 1 5 C-2.53430656 2.64379563 -3.83571287 2.51008387 -8 3 C-13.642775 6.17972431 -17.87528952 10.6445097 -22.375 15.25 C-23.47908203 16.36761719 -23.47908203 16.36761719 -24.60546875 17.5078125 C-26.40830047 19.33405762 -28.20626978 21.16482205 -30 23 C-30.66 22.67 -31.32 22.34 -32 22 C-29.04909391 19.02439537 -26.09493253 16.05207322 -23.13769531 13.08276367 C-22.13190797 12.07194415 -21.12701952 11.06022938 -20.12304688 10.04760742 C-18.68073517 8.59318144 -17.23523328 7.14199385 -15.7890625 5.69140625 C-14.91975098 4.81685791 -14.05043945 3.94230957 -13.15478516 3.04125977 C-9.2326581 -0.67422905 -5.22066602 -0.91653689 0 0 Z " fill="#DBDFDD" transform="translate(81,146)"/>
<path d="M0 0 C3.71620247 3.34458223 5.62314525 6.01942151 6.2578125 11.0390625 C6.63916523 18.43730543 4.36579911 23.338476 -0.5 28.8125 C-4.27158489 31.70923272 -8.81603535 32.39678329 -13.390625 33.32421875 C-16.13868553 33.80052285 -16.13868553 33.80052285 -18 36 C-18.36952049 38.12860662 -18.36952049 38.12860662 -18.4140625 40.5703125 C-18.45273437 41.46621094 -18.49140625 42.36210938 -18.53125 43.28515625 C-18.5621875 44.22230469 -18.593125 45.15945312 -18.625 46.125 C-18.66367187 47.06988281 -18.70234375 48.01476562 -18.7421875 48.98828125 C-18.83661346 51.32532375 -18.92218394 53.66235501 -19 56 C-19.66 56 -20.32 56 -21 56 C-21.08703823 52.56265937 -21.14040272 49.12560163 -21.1875 45.6875 C-21.21263672 44.71103516 -21.23777344 43.73457031 -21.26367188 42.72851562 C-21.27333984 41.79072266 -21.28300781 40.85292969 -21.29296875 39.88671875 C-21.3086792 39.02264404 -21.32438965 38.15856934 -21.34057617 37.26831055 C-20.92700596 34.51384399 -20.17130002 33.68394618 -18 32 C-16.01953125 31.19140625 -16.01953125 31.19140625 -13.8125 30.5625 C-12.2072994 30.04486202 -10.60313446 29.52400188 -9 29 C-8.26523437 28.76023437 -7.53046875 28.52046875 -6.7734375 28.2734375 C-2.40332114 26.52211746 -0.41101128 24.69374557 1.5625 20.375 C3.31111066 15.18308994 3.44658392 10.29734956 2 5 C1.34 4.34 0.68 3.68 0 3 C0 2.01 0 1.02 0 0 Z " fill="#E8E4E1" transform="translate(50,69)"/>
<path d="M0 0 C0.67578125 1.78515625 0.67578125 1.78515625 1 4 C-3.22237294 10.81372095 -11.39819851 14.81403237 -18.91015625 16.75 C-23.30047823 17.6008834 -27.51775776 18.21120513 -32 18 C-32.33 17.67 -32.66 17.34 -33 17 C-35.855847 16.69235003 -37.43917636 16.62104976 -39.8540802 18.25280762 C-40.4292186 18.83904907 -41.00435699 19.42529053 -41.59692383 20.02929688 C-42.58738457 21.0203241 -42.58738457 21.0203241 -43.59785461 22.03137207 C-44.64189705 23.11412415 -44.64189705 23.11412415 -45.70703125 24.21875 C-46.43242599 24.95121948 -47.15782074 25.68368896 -47.90519714 26.43835449 C-50.21962073 28.78076867 -52.51606108 31.13996444 -54.8125 33.5 C-56.37840361 35.09098007 -57.94544773 36.68083848 -59.51367188 38.26953125 C-63.35577732 42.16676817 -67.1832594 46.0779275 -71 50 C-71.66 49.67 -72.32 49.34 -73 49 C-68.43355639 43.94738428 -63.79065459 38.97443881 -59.09008789 34.04638672 C-57.50429261 32.36567899 -55.93603418 30.66822789 -54.38696289 28.95361328 C-40.75985109 13.90984325 -40.75985109 13.90984325 -32.79443359 12.96118164 C-28.77692082 12.84177287 -24.91584155 13.26953948 -20.94589233 13.84268188 C-15.50404011 14.28263528 -10.96888678 11.6284026 -6.921875 8.28125 C-4.21330853 5.68278785 -2.0859238 3.1288857 0 0 Z " fill="#DEE0DF" transform="translate(183,91)"/>
<path d="M0 0 C2.35006307 6.23419509 -0.15689802 14.78416452 -2 21 C-6.78827566 31.00610639 -16.05715893 38.92876812 -26.34375 42.90625 C-32.07484332 44.81661444 -36.97608599 45.29147971 -43 45 C-41 43 -41 43 -37.859375 42.59765625 C-33.44822681 41.91455334 -30.19265916 40.43253294 -26.25 38.4375 C-19.375 35 -19.375 35 -16 35 C-16 34.34 -16 33.68 -16 33 C-15.34 32.34 -14.68 31.68 -14 31 C-13.01 31 -12.02 31 -11 31 C-10.814375 30.0409375 -10.814375 30.0409375 -10.625 29.0625 C-10.41875 28.381875 -10.2125 27.70125 -10 27 C-9.34 26.67 -8.68 26.34 -8 26 C-4.05206717 17.71324991 -1.80407282 8.96169506 0 0 Z " fill="#E6DFD9" transform="translate(157,113)"/>
<path d="M0 0 C0.33 0 0.66 0 1 0 C1.14693721 3.64539921 1.23461003 7.2900238 1.3125 10.9375 C1.35439453 11.95908203 1.39628906 12.98066406 1.43945312 14.03320312 C1.58770296 23.3136427 -1.34246985 29.49134602 -7.5 36.375 C-8.0465625 37.00148437 -8.593125 37.62796875 -9.15625 38.2734375 C-15.04419912 43.78715257 -23.10555536 45.94359795 -31.05078125 46.03515625 C-35.77490892 45.67077834 -39.63701341 44.89661135 -44 43 C-44 42.34 -44 41.68 -44 41 C-42.98679687 41.23976563 -42.98679687 41.23976563 -41.953125 41.484375 C-32.01788177 43.21910001 -21.13819331 43.22380629 -12.6328125 37.37109375 C-7.07430723 32.86050341 -2.71212569 28.05935569 -1 21 C-0.53934593 14.9345145 -0.74166516 8.86044784 -1.03417969 2.79077148 C-1 1 -1 1 0 0 Z " fill="#DEE1E0" transform="translate(107,143)"/>
<path d="M0 0 C1.02406866 2.66257853 1.08041999 3.78554671 0.0625 6.5 C-1.49778919 11.63977615 -1.15531822 16.66740782 -1 22 C-0.34 22 0.32 22 1 22 C1 22.66 1 23.32 1 24 C1.66 24 2.32 24 3 24 C4.86019856 27.13908507 5.44395022 29.35960817 5 33 C1.69972321 39.2548103 -3.73818271 46.608642 -10.65625 48.8671875 C-13.125 49.125 -13.125 49.125 -17 49 C-17 48.67 -17 48.34 -17 48 C-15.7934375 47.7525 -15.7934375 47.7525 -14.5625 47.5 C-8.05828296 44.7613823 -1.73519079 39.00878518 2 33 C2.75085106 30.58736705 2.75085106 30.58736705 2 28 C0.83272246 26.11568054 -0.43032237 24.3840385 -1.80859375 22.6484375 C-5.05073855 18.1625847 -4.56398836 12.26633286 -4 7 C-2.93728539 4.29448638 -1.69998809 2.39060826 0 0 Z " fill="#E8E2DE" transform="translate(181,135)"/>
<path d="M0 0 C0.33 0 0.66 0 1 0 C1.04241723 2.33294775 1.04092937 4.66702567 1 7 C0.67 7.33 0.34 7.66 0 8 C-0.03165882 10.52366033 0.06824712 13.03270105 0.16015625 15.5546875 C0 18 0 18 -2 21 C-4.6875 21.95703125 -4.6875 21.95703125 -8 22.8125 C-15.17490484 24.8863097 -21.83259266 27.68290423 -27.06640625 33.1640625 C-29 35 -29 35 -32.375 35.375 C-35.87353326 35.01308277 -38.73324562 34.27483098 -42 33 C-42 32.67 -42 32.34 -42 32 C-40.7625 31.979375 -39.525 31.95875 -38.25 31.9375 C-37.55390625 31.92589844 -36.8578125 31.91429687 -36.140625 31.90234375 C-34 32 -34 32 -32 32.734375 C-29.84735114 33.25419776 -29.84735114 33.25419776 -27.921875 31.48828125 C-27.20515625 30.77027344 -26.4884375 30.05226562 -25.75 29.3125 C-18.5907608 22.63210062 -12.77429934 20.40058604 -3 20 C-3.05220703 18.83984375 -3.05220703 18.83984375 -3.10546875 17.65625 C-3.27943033 10.96287095 -2.81063067 6.08969979 0 0 Z " fill="#E3DAD2" transform="translate(77,98)"/>
<path d="M0 0 C-1.20703125 1.50390625 -1.20703125 1.50390625 -3 3 C-5.19921875 3.15234375 -5.19921875 3.15234375 -7.6875 2.9375 C-16.86486192 2.72499958 -22.09873407 7.56674673 -28.6015625 13.609375 C-31.42622377 16.42483542 -34.02255875 19.36700149 -36.52734375 22.46875 C-38 24 -38 24 -41 25 C-37.53027103 15.49160811 -30.77860633 8.83386882 -22 4 C-14.66420836 0.72457388 -8.01058744 -0.63801139 0 0 Z " fill="#E6DFD9" transform="translate(119,73)"/>
<path d="M0 0 C0.6794165 0.13696289 1.35883301 0.27392578 2.05883789 0.41503906 C1.06883789 1.07503906 0.07883789 1.73503906 -0.94116211 2.41503906 C-8.27639053 8.37845688 -15.12977016 15.00980626 -21.93481445 21.56420898 C-23.27369177 22.84101374 -24.62574808 24.10413831 -25.99047852 25.35327148 C-34.49904666 32.54931945 -34.49904666 32.54931945 -38.74194336 42.36376953 C-38.76651506 46.10917635 -38.76651506 46.10917635 -38.23803711 49.5847168 C-37.94116211 52.41503906 -37.94116211 52.41503906 -39.94116211 55.41503906 C-40.11571232 52.16571979 -40.22207964 48.91760458 -40.31616211 45.66503906 C-40.36643555 44.74464844 -40.41670898 43.82425781 -40.46850586 42.87597656 C-40.4878418 41.98652344 -40.50717773 41.09707031 -40.52709961 40.18066406 C-40.57423096 38.95524902 -40.57423096 38.95524902 -40.62231445 37.70507812 C-39.74882705 34.7684072 -38.25426009 34.10175323 -35.70135498 32.58087158 C-32.27568641 30.31194078 -29.5835343 27.19366166 -26.74975586 24.24316406 C-25.37973759 22.84300905 -24.0092819 21.44328193 -22.63842773 20.04394531 C-20.49809305 17.84765578 -18.36192534 15.64767945 -16.23339844 13.43994141 C-14.16657722 11.30073754 -12.08451277 9.17737185 -9.99975586 7.05566406 C-9.36629745 6.39012512 -8.73283905 5.72458618 -8.08018494 5.03887939 C-3.60030058 0.50805271 -3.60030058 0.50805271 0 0 Z " fill="#F0F0F0" transform="translate(147.941162109375,106.5849609375)"/>
<path d="M0 0 C-0.62261719 0.51433594 -0.62261719 0.51433594 -1.2578125 1.0390625 C-4.82603664 4.06981355 -8.21415939 7.18639036 -11.4375 10.58203125 C-12.34798096 11.53118408 -12.34798096 11.53118408 -13.27685547 12.49951172 C-14.49723131 13.77921363 -15.70496655 15.07110508 -16.89892578 16.37548828 C-21.24728987 20.90998341 -21.24728987 20.90998341 -25.4296875 21.41015625 C-26.27789062 21.27480469 -27.12609375 21.13945313 -28 21 C-27.35417969 20.51917969 -26.70835937 20.03835937 -26.04296875 19.54296875 C-21.86853302 16.05444801 -18.12441614 12.18907969 -14.3125 8.3125 C-12.79007973 6.76464246 -11.26544935 5.21895461 -9.73828125 3.67578125 C-9.06837158 2.99427002 -8.39846191 2.31275879 -7.70825195 1.6105957 C-4.85745743 -1.07722643 -3.64050691 -1.09215207 0 0 Z " fill="#ECECEC" transform="translate(185,62)"/>
<path d="M0 0 C-0.55969466 3.84796854 -2.2264315 5.57784289 -4.96484375 8.2578125 C-5.76470703 9.04800781 -6.56457031 9.83820313 -7.38867188 10.65234375 C-8.22978516 11.46832031 -9.07089844 12.28429687 -9.9375 13.125 C-11.19336914 14.36056641 -11.19336914 14.36056641 -12.47460938 15.62109375 C-14.02521593 17.14550341 -15.578873 18.66682045 -17.13647461 20.18408203 C-18.43285865 21.44734739 -19.72006818 22.72006818 -21 24 C-21.3785264 20.72462482 -21.28315576 19.38226431 -19.28759766 16.68823242 C-18.50433105 15.91842041 -17.72106445 15.1486084 -16.9140625 14.35546875 C-16.06585938 13.51435547 -15.21765625 12.67324219 -14.34375 11.80664062 C-13.4465625 10.94232422 -12.549375 10.07800781 -11.625 9.1875 C-10.73554687 8.30384766 -9.84609375 7.42019531 -8.9296875 6.50976562 C-2.29425072 0 -2.29425072 0 0 0 Z " fill="#E8E9E8" transform="translate(83,160)"/>
<path d="M0 0 C0.66 0 1.32 0 2 0 C0.45020208 10.87171676 -3.5147108 18.99248132 -11 27 C-10.67 27.66 -10.34 28.32 -10 29 C-8.71312989 32.86061033 -8.86242382 35.94150283 -9 40 C-12.28023877 36.13560912 -13.03171729 32.95024826 -13.40625 27.9609375 C-12.6421365 22.39172566 -8.73112246 18.94453972 -5 15 C-2.88955618 11.83433427 -2.24447923 9.48802585 -1.375 5.8125 C-1.11460938 4.72582031 -0.85421875 3.63914063 -0.5859375 2.51953125 C-0.39257812 1.68808594 -0.19921875 0.85664063 0 0 Z " fill="#E5DED8" transform="translate(112,158)"/>
<path d="M0 0 C3.71620247 3.34458223 5.62314525 6.01942151 6.2578125 11.0390625 C6.55693576 16.84205381 5.40201787 21.25779327 2 26 C0.09558059 27.91370926 -1.8049247 29.4035816 -4 31 C-4.33 30.34 -4.66 29.68 -5 29 C-4.34 29 -3.68 29 -3 29 C-3 28.01 -3 27.02 -3 26 C-2.02632063 24.9743546 -1.02331749 23.97612566 0 23 C3.02685415 16.83818976 3.66407466 11.73136967 2 5 C1.34 4.34 0.68 3.68 0 3 C0 2.01 0 1.02 0 0 Z " fill="#E4DBD3" transform="translate(50,69)"/>
<path d="M0 0 C-0.51949219 0.3403125 -1.03898438 0.680625 -1.57421875 1.03125 C-8.43944136 5.80264316 -13.2355132 11.65878967 -15 20 C-15.31815814 26.0617499 -15.32250354 32.04873409 -14 38 C-14.99 38.66 -15.98 39.32 -17 40 C-18.2475738 16.03378732 -18.2475738 16.03378732 -11 6 C-10.5359375 5.33613281 -10.071875 4.67226563 -9.59375 3.98828125 C-6.6862682 0.1855078 -4.79797694 -1.59932565 0 0 Z " fill="#E0E2E1" transform="translate(141,49)"/>
<path d="M0 0 C1.29369594 3.88108781 1.60525351 7.96221286 1 12 C-1.3333619 15.25003979 -3.17093678 16.24668355 -7 17 C-9.85173029 17.23360333 -12.70208073 17.23068915 -15.5625 17.25 C-16.33013672 17.270625 -17.09777344 17.29125 -17.88867188 17.3125 C-23.52936566 17.35184224 -23.52936566 17.35184224 -26.02734375 15.484375 C-26.34832031 14.99453125 -26.66929688 14.5046875 -27 14 C-25.85402344 14.02320313 -24.70804687 14.04640625 -23.52734375 14.0703125 C-21.9974024 14.08908479 -20.46745394 14.10728341 -18.9375 14.125 C-18.18533203 14.14175781 -17.43316406 14.15851563 -16.65820312 14.17578125 C-11.70834604 14.21863716 -7.68027585 13.6432698 -3 12 C-1.43694509 10.43694509 -1.69360032 8.72321782 -1.5 6.5625 C-1.10958904 2.21917808 -1.10958904 2.21917808 0 0 Z " fill="#E7E3E0" transform="translate(132,186)"/>
<path d="M0 0 C0.33 0.99 0.66 1.98 1 3 C0.42491699 2.83846436 -0.15016602 2.67692871 -0.74267578 2.51049805 C-4.43262799 1.67600853 -8.10620842 1.81554426 -11.875 1.8125 C-12.66519531 1.80025391 -13.45539063 1.78800781 -14.26953125 1.77539062 C-18.91731548 1.7637905 -22.62695373 2.22125289 -27 4 C-27 3.34 -27 2.68 -27 2 C-26.34 2 -25.68 2 -25 2 C-25 1.34 -25 0.68 -25 0 C-16.91813579 -2.87355172 -8.02196928 -3.31342209 0 0 Z " fill="#DDE2E0" transform="translate(168,44)"/>
<path d="M0 0 C-1.19454804 3.58364411 -2.59937744 4.28852379 -5.84765625 6.015625 C-12.91477 9.2477714 -19.26459845 10.37429362 -27 10 C-25 8 -25 8 -21.859375 7.59765625 C-17.44822681 6.91455334 -14.19265916 5.43253294 -10.25 3.4375 C-3.375 0 -3.375 0 0 0 Z " fill="#E7DDD4" transform="translate(141,148)"/>
<path d="M0 0 C0.66 0.33 1.32 0.66 2 1 C2 1.99 2 2.98 2 4 C2.66 4 3.32 4 4 4 C6.09608373 11.52223596 5.43610329 18.95810931 2 26 C0.39453125 27.7578125 0.39453125 27.7578125 -1 29 C-0.67 27.783125 -0.34 26.56625 0 25.3125 C1.8438926 17.0345992 1.54643428 8.31208423 0 0 Z " fill="#ECECEC" transform="translate(185,62)"/>
<path d="M0 0 C0.67578125 1.78515625 0.67578125 1.78515625 1 4 C-2.62559223 9.85068493 -9.50746292 14.14975195 -16 16 C-21.3277198 16.54530627 -26.6636217 16.29793675 -32 16 C-32 15.67 -32 15.34 -32 15 C-31.17757812 14.97421875 -30.35515625 14.9484375 -29.5078125 14.921875 C-18.83385988 14.37954946 -10.80596807 12.70403765 -3.375 4.68359375 C-1.82084487 2.83601539 -1.82084487 2.83601539 0 0 Z " fill="#D3DBD7" transform="translate(183,91)"/>
<path d="M0 0 C0.33 0.99 0.66 1.98 1 3 C-0.29296875 5.12890625 -0.29296875 5.12890625 -2.1875 7.5625 C-5.79494611 12.47782498 -7.97440463 17.28801306 -10 23 C-10.66062514 24.66907059 -11.32572538 26.33639669 -12 28 C-12.33 28 -12.66 28 -13 28 C-12.62875073 16.86252202 -7.59836177 7.96018852 0 0 Z " fill="#E4DBD2" transform="translate(132,45)"/>
<path d="M0 0 C1.32 0.33 2.64 0.66 4 1 C3.48050781 1.43570313 2.96101563 1.87140625 2.42578125 2.3203125 C-5.77013104 8.71095191 -5.77013104 8.71095191 -9.3125 17.875 C-9.209375 18.90625 -9.10625 19.9375 -9 21 C-9.66 21 -10.32 21 -11 21 C-12.06174484 12.62401294 -12.06174484 12.62401294 -9.546875 8.77734375 C-7.76982198 6.95922438 -6.13575702 5.38115336 -4 4 C-3.01 4 -2.02 4 -1 4 C-0.67 2.68 -0.34 1.36 0 0 Z " fill="#E7DCD2" transform="translate(59,48)"/>
<path d="M0 0 C4.91802685 1.59569923 9.44443365 3.22960949 12 8 C6.34862385 6.20183486 6.34862385 6.20183486 4.21875 4.96875 C1.22385115 3.66111811 -1.49768576 3.57013885 -4.75 3.375 C-6.50570312 3.26285156 -6.50570312 3.26285156 -8.296875 3.1484375 C-9.18890625 3.09945312 -10.0809375 3.05046875 -11 3 C-7.13116976 -0.1638807 -5.06171702 -0.58085277 0 0 Z " fill="#E5DED8" transform="translate(152,175)"/>
<path d="M0 0 C1.02406866 2.66257853 1.08041999 3.78554671 0.0625 6.5 C-1.49778919 11.63977615 -1.15531822 16.66740782 -1 22 C-0.34 22 0.32 22 1 22 C1.33 23.65 1.66 25.3 2 27 C-1.85389169 23.53149748 -3.67833426 20.53592295 -4.3359375 15.3515625 C-4.42747249 8.96241986 -3.72074331 5.23229529 0 0 Z " fill="#E0D7CF" transform="translate(181,135)"/>
<path d="M0 0 C0.65795898 1.81152344 0.65795898 1.81152344 1 4 C-0.91934784 6.29016466 -2.76347858 8.23281698 -4.9375 10.25 C-5.8027832 11.08144531 -5.8027832 11.08144531 -6.68554688 11.9296875 C-8.11277729 13.29794145 -9.55502058 14.6505038 -11 16 C-11.99 15.67 -12.98 15.34 -14 15 C-13.07316406 14.08476563 -12.14632812 13.16953125 -11.19140625 12.2265625 C-9.98163961 11.0261739 -8.77201135 9.82564583 -7.5625 8.625 C-6.95083984 8.02171875 -6.33917969 7.4184375 -5.70898438 6.796875 C-5.12568359 6.21679688 -4.54238281 5.63671875 -3.94140625 5.0390625 C-3.40201416 4.50490723 -2.86262207 3.97075195 -2.30688477 3.42041016 C-0.89153023 2.01347612 -0.89153023 2.01347612 0 0 Z " fill="#EAEAEA" transform="translate(123,85)"/>
<path d="M0 0 C0.97904297 0.01804687 1.95808594 0.03609375 2.96679688 0.0546875 C5.37470771 0.10167113 7.78059335 0.16734306 10.1875 0.25 C10.1875 0.58 10.1875 0.91 10.1875 1.25 C8.32544922 1.30607422 8.32544922 1.30607422 6.42578125 1.36328125 C4.78382489 1.4289595 3.14189913 1.4954062 1.5 1.5625 C0.27506836 1.59633789 0.27506836 1.59633789 -0.97460938 1.63085938 C-5.67080379 1.84000164 -9.02586543 2.17335941 -12.8125 5.25 C-14.15939915 7.82099402 -14.15939915 7.82099402 -14.8125 10.25 C-15.1425 10.25 -15.4725 10.25 -15.8125 10.25 C-16.125 7.5 -16.125 7.5 -15.8125 4.25 C-11.4135517 -0.9690912 -6.28096874 -0.21934881 0 0 Z " fill="#ECECEC" transform="translate(115.8125,27.75)"/>
<path d="M0 0 C-1.1953125 1.49609375 -1.1953125 1.49609375 -3 3 C-5.3046875 3.22265625 -5.3046875 3.22265625 -7.875 3.0625 C-11.8467154 2.92395179 -14.3414095 3.38591595 -18 5 C-20.1328125 4.55859375 -20.1328125 4.55859375 -22 4 C-14.48666996 1.1082716 -8.07613852 -0.64323227 0 0 Z " fill="#E3D6CC" transform="translate(119,73)"/>
<path d="M0 0 C1.33562012 3.82429357 0.83022386 7.15716436 0.3125 11.125 C0.16425781 12.36507812 0.01601562 13.60515625 -0.13671875 14.8828125 C-1 18 -1 18 -3.08203125 19.4296875 C-3.71496094 19.61789063 -4.34789062 19.80609375 -5 20 C-4.35587386 17.22875964 -3.70977252 14.45800555 -3.0625 11.6875 C-2.88009766 10.90181641 -2.69769531 10.11613281 -2.50976562 9.30664062 C-2.33251953 8.54931641 -2.15527344 7.79199219 -1.97265625 7.01171875 C-1.81031494 6.31522217 -1.64797363 5.61872559 -1.48071289 4.90112305 C-1.06234435 3.2465594 -0.53968631 1.61905892 0 0 Z " fill="#EEEEED" transform="translate(157,113)"/>
<path d="M0 0 C0.66 0.33 1.32 0.66 2 1 C2.11644156 4.08301416 2.18732432 7.16546123 2.25 10.25 C2.30027344 11.55904297 2.30027344 11.55904297 2.3515625 12.89453125 C2.45112665 19.41598332 2.45112665 19.41598332 -0.015625 22.609375 C-0.67046875 23.06828125 -1.3253125 23.5271875 -2 24 C-1.67 22.824375 -1.34 21.64875 -1 20.4375 C0.53227012 13.70414398 0.16270741 6.86082894 0 0 Z " fill="#CED7D3" transform="translate(186,67)"/>
<path d="M0 0 C0.66 0.33 1.32 0.66 2 1 C0.73657512 2.48549956 -0.5360103 3.96321189 -1.8125 5.4375 C-2.52019531 6.26121094 -3.22789063 7.08492188 -3.95703125 7.93359375 C-6 10 -6 10 -9 11 C-7.59928507 5.70841026 -4.14512755 3.22521956 0 0 Z " fill="#EDEAE8" transform="translate(87,87)"/>
<path d="M0 0 C0.33 0 0.66 0 1 0 C1.06058594 0.65226562 1.12117188 1.30453125 1.18359375 1.9765625 C1.63519991 6.68716217 2.14195039 11.34201638 3 16 C2.01 16.66 1.02 17.32 0 18 C0 12.06 0 6.12 0 0 Z " fill="#D6DBD8" transform="translate(124,71)"/>
<path d="M0 0 C4.92127034 -0.16682272 8.50343896 -0.24828052 13 2 C13 2.33 13 2.66 13 3 C8.17639811 3.19294408 4.50353262 2.75747614 0 1 C0 0.67 0 0.34 0 0 Z " fill="#E8E4E0" transform="translate(35,130)"/>
<path d="M0 0 C0.33 0 0.66 0 1 0 C1.19294408 4.82360189 0.75747614 8.49646738 -1 13 C-1.66 12.67 -2.32 12.34 -3 12 C-2.49202991 7.6822542 -1.80317221 3.96697886 0 0 Z " fill="#E3D2C2" transform="translate(77,98)"/>
<path d="M0 0 C1.48717691 3.86665996 0.34016247 6.20287302 -1 10 C-1.37531446 12.32694964 -1.71917202 14.65976685 -2 17 C-2.33 17 -2.66 17 -3 17 C-3.20658471 11.21562809 -2.65660398 6.5544957 -1 1 C-0.67 0.67 -0.34 0.34 0 0 Z " fill="#E8E5E2" transform="translate(181,135)"/>
<path d="M0 0 C2.91796875 0.14453125 2.91796875 0.14453125 6.1875 0.8125 C7.81751953 1.13154297 7.81751953 1.13154297 9.48046875 1.45703125 C10.72763672 1.72580078 10.72763672 1.72580078 12 2 C12 2.33 12 2.66 12 3 C7.05 3 2.1 3 -3 3 C-2.01 2.01 -1.02 1.02 0 0 Z " fill="#EBE9E8" transform="translate(186,97)"/>
<path d="M0 0 C-1.50223584 4.20626034 -4.28550034 5.73900021 -8 8 C-6.65580512 3.85539913 -4.87800266 0 0 0 Z " fill="#E4DAD2" transform="translate(141,178)"/>
<path d="M0 0 C0.99 0.66 1.98 1.32 3 2 C2.125 6.75 2.125 6.75 1 9 C0.01 8.67 -0.98 8.34 -2 8 C-1.34 8 -0.68 8 0 8 C0 5.36 0 2.72 0 0 Z " fill="#EAE9E9" transform="translate(74,110)"/>
<path d="M0 0 C0.99 0.33 1.98 0.66 3 1 C3 3.64 3 6.28 3 9 C0.90250005 6.64031256 0.03094296 5.45383006 -0.1875 2.25 C-0.125625 1.5075 -0.06375 0.765 0 0 Z " fill="#E5D8CD" transform="translate(100,189)"/>
<path d="M0 0 C2.25 0.25 2.25 0.25 4 1 C2.8125 2.5 2.8125 2.5 1 4 C-1.6875 4.1875 -1.6875 4.1875 -4 4 C-2.25 1.9375 -2.25 1.9375 0 0 Z " fill="#E6E2DE" transform="translate(186,131)"/>
</svg>
