<svg xmlns="http://www.w3.org/2000/svg" width="24" height="24" fill="none" xmlns:v="https://vecta.io/nano"><path d="M12.001 2.501C6.478 2.501 2 6.862 2 12.242c0 4.278 2.831 7.912 6.768 9.221l.071.02c.5.092.684-.209.684-.468l-.013-1.656c-2.782.588-3.369-1.307-3.369-1.307-.192-.601-.586-1.095-1.102-1.419l-.011-.006c-.906-.604.07-.592.07-.592.658.09 1.21.466 1.527.994l.005.01c.369.646 1.067 1.076 1.868 1.076a2.16 2.16 0 0 0 1.055-.272l-.011.005c.048-.514.281-.967.633-1.302h.001c-2.221-.244-4.556-1.082-4.556-4.813l-.001-.058c0-.988.391-1.887 1.032-2.558l-.002.003c-.135-.352-.214-.759-.214-1.183 0-.505.111-.985.31-1.417l-.009.022s.838-.261 2.75.998c.75-.209 1.611-.329 2.5-.329s1.751.12 2.567.344l-.067-.016c1.9-1.26 2.738-.998 2.738-.998.19.417.301.903.301 1.414 0 .417-.073.817-.209 1.189l.008-.025c.636.67 1.026 1.569 1.026 2.557l-.001.059v-.003c0 3.742-2.337 4.566-4.563 4.806.422.42.682.995.682 1.63 0 .061-.003.121-.007.181v-.008l-.013 2.667c0 .256.175.56.688.462C19.156 20.152 22 16.514 22 12.229 22 6.856 17.528 2.5 12.012 2.5H12l.001.001z" fill="#2d9cdb"/></svg>