<svg xmlns="http://www.w3.org/2000/svg" width="301" height="376" xmlns:v="https://vecta.io/nano"><path d="M0 0h301v376H0V0z" fill="#fbe7e5"/><path d="M227.539 88.148c2.535 2.237 5.007 4.526 7.461 6.852l2.531 2.371c22.863 22.052 36.179 52.767 36.888 84.483.06 11.047-.616 21.442-3.419 32.146l-.809 3.258c-6.49 23.481-23.071 50.566-44.617 63.16-1.646.811-3.305 1.595-4.977 2.352-2.817 1.334-5.385 2.903-8.035 4.543-29.87 17.481-64.313 23.178-97.937 15C103.797 299.295 93.677 294.686 84 289l2-1c1.733.649 1.733.649 3.824 1.73l2.345 1.179 2.518 1.278c8.329 4.083 16.196 6.925 25.313 8.813l3.102.676c7.641 1.482 15.135 1.531 22.898 1.324l-3.742-.445C112.654 298.753 88.459 286.703 67 266l-2.398-2.207c-21.622-20.446-33.653-50.82-34.727-80.215-.163-9.676.847-19.005 2.125-28.578-2.404 10.29-3.55 19.956-3.5 30.563l.003 2.088C28.56 200.238 30.211 211.972 34 224l1.164 3.738C39.314 239.525 45.88 250.53 54 260l2.051 2.418C63.47 270.917 71.595 278.73 81 285c-7.676 0-15.365-9.043-20.625-14.25-24.339-24.692-34.68-55.352-34.619-89.571.388-33.196 17.499-64.663 40.749-87.739 44.183-42.553 114.228-44.897 161.035-5.292z" fill="#f1aa92"/><path d="M196 118c6.756 2.377 11.727 5.453 15 12 .04 2 .043 4 0 6h-3v6l-3 1-1-9-1.875 2.5L200 139h-2l-.754 1.684C192.22 150.026 183.536 157.678 176 165l-4 4h3v3l2 1-3.211 1.863-4.164 2.449-2.117 1.225-2.031 1.201-1.873 1.095c-1.907 1.245-1.907 1.245-3.604 4.167l2.406 2.336 3.094 3.039 1.59 1.539c1.342 1.324 2.63 2.702 3.91 4.086v2h2c1.691 1.645 1.691 1.645 3.563 3.813l1.879 2.145C180 206 180 206 181 209h2c3 3.462 3 3.462 3 6h2c1.802 2.236 3.476 4.468 5.125 6.813l1.418 1.947C198 228.623 198 228.623 198 232c-3.95 1.156-5.633 1.167-9.437-.562-3.773-2.417-7.487-5.166-10.562-8.437v-2l-1.672-.676c-3.059-1.74-5.136-3.982-7.578-6.512-3.821-3.913-7.731-7.626-11.891-11.176-3.101-2.729-5.98-5.677-8.859-8.637-3.307 1.411-5.155 3.055-7.437 5.813-2.703 3.242-5.559 6.221-8.562 9.188l-2.605 2.676-2.582 2.637-2.605 2.676C122 219 122 219 120 219l-.75 1.625c-4.583 8.708-4.583 8.708-9.25 10.375l.563-2.437L111 226l-1-1-2 3c-.898-2.857-1.281-4.396.004-7.16 2.846-4.049 6.202-7.52 9.621-11.09l2.175-2.292c4.426-4.65 8.919-9.216 13.493-13.72 2.079-2.117 3.94-4.356 5.707-6.738-1.482-3.906-3.358-5.077-7-7-2.398-.865-4.817-1.674-7.25-2.437-5.773-1.849-11.27-3.967-16.75-6.562l-2.25 2c-2.75 2-2.75 2-6.75 2v-2l-2 1 1 2c-7.264-1.402-12.515-3.553-16.937-9.687-1.441-4.491-1.312-8.637-1.062-13.312l2 2 6-5h-5c1.634-1.708 2.869-2.935 5-4 1.712.087 3.422.241 5.125.438l2.758.309L98 147l-1.348-1.977c-4.6-7.105-4.6-7.105-4.84-11.336 1.572-3.557 3.054-5.354 6.188-7.687 5.616-1.591 9.421-1.169 14.633 1.445 7.824 5.139 13.461 12.125 17.367 20.555l1 2a80.75 80.75 0 0 1 .125 4.938l.008 2.652C131 160 131 160 130 163l3.813.313c7.096 1.48 11.553 7.508 16.188 12.688l5-2v3h-2l3 3 1.215-1.398L163 172l2.188-2.512 2.25-2.551 2.059-2.348c2.648-2.739 5.449-5.186 8.33-7.674 3.791-3.341 7.391-6.868 10.987-10.416l2.271-2.184c4.249-4.2 7.021-7.625 8.916-13.316-3.366 1.443-5.51 3.333-8 6l-3-1 4-5-3-1 8-3c-4.294-1.073-5.195-.797-9 1l1-2c-4.997.462-7.575 1.828-11.375 5.063l-2.648 2.223L174 135l-1-2c5.774-9.399 11.12-16.6 23-15z" fill="#eaa791"/><path d="M130 66l1 1 6.508-.113C161.501 66.235 182.767 68.757 204 81l1 2c-4.285-1.351-8.293-3.004-12.375-4.875-25.824-11.371-58.327-13.372-84.934-3.617C93.103 80.309 81.127 89.066 70 100l-2.523 2.477L62 108c0-3 0-3 2.625-5.918L68 98.813l1.734-1.693L74 93c-22.403 15.665-35.119 39.773-40.18 66.301-2.106 13.253-1.536 27.43.18 40.699l-.032-2.424C33.73 176.636 34.126 157.75 42 138l2-2c-1.059 4.944-2.208 9.849-3.471 14.745-8.097 31.621-5.047 64.136 11.596 92.692 15.712 25.956 40.386 43.221 69.602 50.563 30.856 7.356 63.169 1.945 90.508-13.871 26.788-17.044 41.786-40.698 48.949-71.355 5.239-24.213 1.391-51.8-9.516-73.965L251 133l1-2c9.632 17.419 13.233 35.477 13.313 55.188l.017 3.526c-.065 7.916-.921 15.499-2.329 23.286l.668-2.499 1.578-5.9c1.799-8.594 1.936-17.223 1.941-25.977l.037-3.172a95.1 95.1 0 0 0-1.794-18.784c-.421-2.609-.506-5.033-.431-7.669l2 2 1-3c8.761 20.025 8.466 45.13 3 66l-.809 3.258c-6.49 23.481-23.071 50.566-44.617 63.16-1.646.811-3.305 1.595-4.977 2.352-2.817 1.334-5.385 2.903-8.035 4.543-29.87 17.481-64.313 23.178-97.937 15C103.797 299.295 93.677 294.686 84 289l2-1c1.733.649 1.733.649 3.824 1.73l2.345 1.179 2.518 1.278c8.329 4.083 16.196 6.925 25.313 8.813l3.102.676c7.641 1.482 15.135 1.531 22.898 1.324l-3.742-.445C112.654 298.753 88.459 286.703 67 266l-2.398-2.207c-21.622-20.446-33.653-50.82-34.727-80.215-.163-9.676.847-19.005 2.125-28.578-2.404 10.29-3.55 19.956-3.5 30.563l.003 2.088C28.56 200.238 30.211 211.972 34 224l1.164 3.738C39.314 239.525 45.88 250.53 54 260l2.051 2.418C63.47 270.917 71.595 278.73 81 285c-7.676 0-15.365-9.043-20.625-14.25-24.339-24.692-34.68-55.352-34.619-89.571C26.156 146.924 44.147 115.685 68 92c2.601-2.421 5.237-4.766 8-7l2 1v1l2.281-1.504c11.334-7.249 23.226-12.334 35.844-16.934l2.116-.786c4.043-1.424 7.474-2.148 11.759-1.777z" fill="#678791"/><path d="M112.438 127.5c7.947 5.038 13.576 12.082 17.563 20.5l1 2a80.75 80.75 0 0 1 .125 4.938l.008 2.652C131 160 131 160 130 163l9 2 1 4-7 1v2l6 1v1h-19l-3 1c-2.262-.777-2.262-.777-4.687-1.937l-2.449-1.152L108 171l-2.25 2c-2.75 2-2.75 2-6.75 2v-2l-2 1 1 2c-7.264-1.402-12.515-3.553-16.937-9.687-1.441-4.491-1.312-8.637-1.062-13.312l2 2 6-5h-5c1.634-1.708 2.869-2.935 5-4 1.712.087 3.422.241 5.125.438l2.758.309L98 147l-1.348-1.977c-4.6-7.105-4.6-7.105-4.84-11.336 1.502-3.4 3.343-5.317 6.188-7.687 5.196-1.732 9.567-.625 14.438 1.5z" fill="#9f8c85"/><path d="M227.539 88.148c2.535 2.237 5.007 4.526 7.461 6.852l2.531 2.371c12.993 12.531 28.93 32.935 30.766 51.656.013 2.352-.059 4.634-.297 6.973l-2-4 .438 2.184c3.541 20.483 2.648 41.938-3.437 61.816-1.157-3.452-.811-5.87-.086-9.406 4.447-24.749 1.088-52.298-10.914-74.594-1.947-2.16-1.947-2.16-4-4-1.377-2.13-2.698-4.263-4-6.437-9.079-14.597-21.976-26.675-36.434-35.836C205 84 205 84 203.543 82.48c-16.641-15.967-46.322-15.081-67.484-14.649l-4.626.128c-5.221.146-5.221.146-7.433-.96-2.092.483-2.092.483-4.445 1.371l-2.741.979-2.938 1.087-2.999 1.103C98.881 76.049 87.377 81.39 77 89l-2-1c10.655-15.785 35.621-22.583 53.156-26.75 35.25-6.679 72.222 3.916 99.383 26.898z" fill="#dda490"/><path d="M251 131c10.275 9.426 13.445 31.101 14.191 44.407.413 12.749.063 25.02-2.191 37.593l.668-2.499 1.578-5.9c1.799-8.594 1.936-17.223 1.941-25.977l.037-3.172a95.1 95.1 0 0 0-1.794-18.784c-.421-2.609-.506-5.033-.431-7.669l2 2 1-3c8.761 20.025 8.466 45.13 3 66l-.809 3.258c-6.49 23.481-23.071 50.566-44.617 63.16-1.646.811-3.305 1.595-4.977 2.352-2.817 1.334-5.385 2.903-8.035 4.543C200.161 294.623 182.669 303.65 168 303l-1-3 1.829-.38c17.607-3.7 35.481-8.073 49.171-20.62v-3c1.871-1.762 1.871-1.762 4.438-3.687l2.777-2.16L228 268c17.51-13.671 26.659-33.965 32-55l.553-2.121c6.361-24.729 2.096-53.203-8.788-76.071C251 133 251 133 251 131z" fill="#64777d"/><path d="M140 68v1l-2.937.445C115.443 72.962 96.777 82.026 80 96l-2.68 2.18C63.419 110.002 53.806 126.229 47 143l-1.086 2.645C35.084 174.755 38.684 208.096 51 236c2.001 4.225 4.36 8.142 7 12l1.863 2.773C64.707 257.704 70.207 263.863 76 270c-3 0-3 0-5.164-1.766-23.661-23.886-36.036-53.787-36.157-87.36.206-14.542 3.47-29.198 8.321-42.875l-2.875 8.063-.816 2.221c-4.514 13.048-4.593 26.527-4.434 40.154l.027 4.564L35 204c-8.437-15.338-3.563-41.952 1-58 6.444-21.653 19.112-40.084 37-54l2 1-13 13c3.711-2.969 6.712-5.715 9.938-9.125C89.764 78.734 114.374 67.558 140 68z" fill="#f6e2df"/><g fill="#aa9087"><path d="M191 126l3-1 5 1-1 2-7 2 2 1-2 4c2.363.23 2.363.23 4.625-2.5L198 130l3 1c-3.248 8.222-9.104 13.591-15.312 19.625l-3.092 3.063c-4.095 4.045-8.199 8.054-12.6 11.77-2.472 2.098-4.554 4.126-6.621 6.605-2.667 3.137-5.42 6.072-8.375 8.938l-2-4 2-2-3-1 1.363-2.727.922-1.846 2.098-4.171 6.316-13.006 1.407-2.951 2.684-5.759c3.054-6.337 6.324-9.769 12.21-13.541l2.813-2.312c3.443-2.656 5.191-2.687 9.188-1.687z"/><path d="M196 118c6.756 2.377 11.727 5.453 15 12 .04 2 .043 4 0 6h-3v6l-3 1-1-9-1.875 2.5L200 139h-2l-.754 1.684C192.22 150.026 183.536 157.678 176 165l-4 4h3v3l2 1-3.211 1.863-4.164 2.449-2.117 1.225-2.031 1.201-1.873 1.095c-1.907 1.245-1.907 1.245-3.604 4.167l11 11-1 2-1.374-1.421-6.251-6.391-2.16-2.236c-3.849-3.902-7.119-6.745-12.215-8.951l-2.812-2.562c-3.14-2.797-6.237-3.32-10.332-3.883L133 172l-1-3h8l1-2 9 9 5-2v3h-2l3 3 1.215-1.398L163 172l2.188-2.512 2.25-2.551 2.059-2.348c2.648-2.739 5.449-5.186 8.33-7.674 3.791-3.341 7.391-6.868 10.987-10.416l2.271-2.184c4.249-4.2 7.021-7.625 8.916-13.316-3.366 1.443-5.51 3.333-8 6l-3-1 4-5-3-1 8-3c-4.294-1.073-5.195-.797-9 1l1-2c-4.997.462-7.575 1.828-11.375 5.063l-2.648 2.223L174 135l-1-2c5.774-9.399 11.12-16.6 23-15z"/></g><path d="M271 156c4.769 18.793 4.917 39.224 0 58l-.809 3.258C263.507 241.441 247.986 263.789 228 279c-2.789 1.242-2.789 1.242-5 2 2.643-2.692 5.313-5.313 8.121-7.832 5.969-5.356 11.37-10.469 15.879-17.168l-2.52 2.773-3.293 3.602-1.658 1.828-1.611 1.758-1.476 1.619C235 269 235 269 232 271c0-3.897 1.045-4.344 3.75-7.062C259.48 238.192 270.011 205.557 269 171c-.224-4.675-.586-9.338-1-14 2-1 2-1 3-1z" fill="#c99b8c"/><path d="M139 184c2.886.398 3.822.79 5.75 3.063L146 189c2.468-1.152 4.048-2.048 6-4 2.625.375 2.625.375 5 1l-2 2h-3c-1.705 1.94-1.705 1.94-3 4 6.829 6.467 13.798 12.586 21.278 18.294 3.126 2.395 6.013 4.844 8.722 7.706l-2 1 1 2c-3.932-1.589-6.33-4.163-9.25-7.187-3.821-3.913-7.731-7.626-11.891-11.176-3.101-2.729-5.98-5.677-8.859-8.637-3.307 1.411-5.155 3.055-7.437 5.813-2.703 3.242-5.559 6.221-8.562 9.188l-2.605 2.676-2.582 2.637-2.605 2.676C122 219 122 219 120 219l-.75 1.625c-4.583 8.708-4.583 8.708-9.25 10.375l.563-2.437L111 226l-1-1-2 3c-.898-2.857-1.281-4.396.004-7.16 2.846-4.049 6.202-7.52 9.621-11.09l2.175-2.292 11.45-11.708c4.166-4.122 4.166-4.122 7.75-8.75v-3zm65-52c1.109 3.326 1.542 6.531 2 10 1.356-1.125 1.356-1.125 1.063-4.062L207 135l4 1c.494 7.775-.443 13.694-5.52 19.84-5.211 5.006-11.608 8.12-17.992 11.363-3.41 1.701-3.41 1.701-6.238 3.488-2.724 1.584-5.143 1.947-8.25 2.309l2-4-6 2c3.323-4.257 6.875-7.718 10.965-11.234 6.331-5.492 11.263-11.578 16.117-18.387L198 139h2l.875-1.812C202 135 202 135 204 132z" fill="#ad9187"/><path d="M112.438 127.5c7.947 5.038 13.576 12.082 17.563 20.5l1 2c.121 1.643.175 3.291.188 4.938l.043 2.652C131 160 131 160 129 163l-.008-2.273c-.453-11.99-5.969-19.228-13.992-27.727l1 3c-2.34-1.17-4.646-2.358-6.937-3.625-4.231-1.9-6.714-1.825-11.062-.375-.873 5.785.032 8.65 3.438 13.438 4.115 5.271 8.689 9.993 13.563 14.563-3.875 1-3.875 1-5 1l5 7h-3c-1.465-1.539-1.465-1.539-2.937-3.625l-1.566-2.195L102 154l-1 3-1.937-2c-3.653-2.386-5.828-2.441-10.074-2.434-2.387.279-2.387.279-3.988 3.434.311 6.378.311 6.378 3 12 4.086 2.283 8.417 2.534 13 3v1c-8.364.909-8.364.909-12.152-1.195-4.254-3.58-6.535-6.653-7.348-12.242.534-3.806.734-4.204 3.5-6.5L88 150h-5c1.634-1.708 2.869-2.935 5-4 1.712.087 3.422.241 5.125.438l2.758.309L98 147l-1.348-1.977c-4.6-7.105-4.6-7.105-4.84-11.336 1.502-3.4 3.343-5.317 6.188-7.687 5.196-1.732 9.567-.625 14.438 1.5z" fill="#ce9d8c"/><path d="M106.926 130.348c8.155 2.565 12.74 9.717 17.074 16.652 1.936 4.183 2.429 7.364 2 12-1.187 2-1.187 2-3 3-4.709-.059-6.974-2.508-10.115-5.66l-1.823-1.902-1.88-1.927c-9.827-10.196-9.827-10.196-12.308-16.26C97 134 97 134 98.438 131.625c3.035-1.925 4.984-1.958 8.488-1.277z" fill="#f1aa92"/><path d="M217.375 278.25L219 279c-13.599 11.793-29.372 17.976-47 21v2c-11.339 7.559-33.803 4.839-46.617 2.684C110.497 301.676 97.081 296.687 84 289l2-1c1.733.649 1.733.649 3.824 1.73l2.345 1.179 2.518 1.278c8.329 4.083 16.196 6.925 25.313 8.813l3.102.676c7.641 1.482 15.135 1.531 22.898 1.324-2.815-2.815-5.217-2.628-9.125-3.125l-3.883-.508L130 299v-1h27v-1l2.832-.262c18.264-1.873 37.221-6.201 52.398-17.047C215 278 215 278 217.375 278.25z" fill="#8e9091"/><path d="M130 66l1 1 6.508-.113C161.501 66.235 182.767 68.757 204 81l1 2c-4.285-1.351-8.293-3.004-12.375-4.875-25.824-11.371-58.327-13.372-84.934-3.617C93.103 80.309 81.127 89.066 70 100l-2.523 2.477L62 108c0-3 0-3 2.625-5.918L68 98.813l1.734-1.693L74 93c-13.806 9.653-23.056 21.396-30.249 36.467C41.399 134.38 38.934 138.253 35 142c2.983-21.157 25.141-44.173 41-57l2 1v1l2.281-1.504c11.334-7.249 23.226-12.334 35.844-16.934l2.116-.786c4.043-1.424 7.474-2.148 11.759-1.777z" fill="#5d808b"/><path d="M174 64v-1c23.237 1.423 44.708 16.559 61 32l2.531 2.371C249.514 108.928 263.17 126.254 267 143c-.414 2.266-.414 2.266-1 4l-1-2-1 3-.639-1.661C255.928 127.12 247.473 110.975 233 96l-1.937-2.016c-18.948-18.208-47.472-28.268-73.5-28.082l-2.32.004-7.243.031-4.949.014L131 66c10.096-6.73 31.426-3.249 43-2z" fill="#4f7581"/><path d="M174 62v2l3 1-2.684-.219c-7.09-.531-14.143-.887-21.254-.906l-2.074-.014c-4.749.014-9.296.478-13.989 1.139l16 1v1l-13.375.563-3.852.17-3.672.146-3.396.143C126 68 126 68 124 67c-2.092.483-2.092.483-4.445 1.371l-2.741.979-2.938 1.087-2.999 1.103C98.881 76.049 87.377 81.39 77 89l-2-1c10.655-15.785 35.621-22.583 53.156-26.75 14.71-2.787 31.217-2.394 45.844.75z" fill="#9ba8ae"/><path d="M39 216c2.673 2.673 3.419 5.754 4.625 9.25C47.869 237.012 53.848 247.472 62 257l2.016 2.418C73.514 270.437 84.205 278.357 97 285l2.699 1.43c19.179 9.457 40.307 10.875 61.301 11.57v1h-27l31 2v1c-39.076.598-69.442-8.447-98-36l-2.398-2.207C53.228 253.038 42.917 237.955 38 223c.375-3.812.375-3.812 1-7z" fill="#487280"/><path d="M73 92l2 1-2.773 2.668-3.602 3.52-1.828 1.752c-3.26 3.205-5.33 5.653-6.797 10.061a99.38 99.38 0 0 1-3.125 4.375C52.204 121.865 48.643 128.902 45 136h-2c-1.803 5.806-3.496 11.643-5.125 17.5l-1.008 3.594c-2.448 10.164-1.989 20.651-1.93 31.031l.014 4.633L35 204c-8.437-15.338-3.563-41.952 1-58 6.444-21.653 19.112-40.084 37-54z" fill="#bebfc2"/><path d="M191 126l3-1 5 1-1 2-7 2 2 1c-1.447 3.375-3.26 5.386-5.937 7.875-5.506 5.374-10.08 11.331-14.749 17.422l-6.001 7.578-1.949 2.43L163 168c0-4.237 2.216-6.919 4.438-10.375l1.355-2.141c3.669-5.753 7.528-11.357 11.492-16.909 1.844-2.524 1.844-2.524 2.715-5.574-5.4 4.826-9.137 9.984-12.89 16.112-1.807 2.938-3.498 5.607-6.11 7.888 1.319-4.256 2.958-8.105 5-12.062 2.159-4.178 2.159-4.178 3.879-8.543 1.461-3.12 3.342-4.554 6.059-6.645l2.652-2.078c3.618-2.51 5.327-2.693 9.41-1.672z" fill="#efa992"/><path d="M182 89c2 2 2 2 2.188 5.375-.143 2.772-.35 5.009-1.187 7.625l1.875.438C187 103 187 103 189 104l.375-2.375C190 99 190 99 192 97c5.568.568 5.568.568 7 2 .157 3.526.04 6.619-1 10l2 1 .625-4.75.352-2.672c.026-2.807-.528-4.212-1.977-6.578h3c2.109 3.428 2.399 6.009 2 10-1.5 3.375-1.5 3.375-3 6-5.739-.74-10.049-3.786-14.941-6.699-2.899-1.639-2.899-1.639-5.289-.516L179 106c-2.75.125-2.75.125-5 0v-2l4-1-2.5-1.562c-2.5-2.437-2.5-2.437-3-6 .5-3.437.5-3.437 1.625-5.375 2.724-1.544 4.804-1.389 7.875-1.062z" fill="#51717a"/><path d="M91.25 151.563c3.458.072 5.477.513 8.188 2.688 3.46 3.713 4.431 5.247 4.875 10.313C104 168 104 168 103 169.938c-3.242 1.722-6.463 1.555-10 1.063-4.218-1.63-6.288-4.186-8.344-8.09-1.097-3.193-.53-5.726.344-8.91 2.36-2.36 3.019-2.344 6.25-2.437z" fill="#f0aa92"/><path d="M203 244c4.173 3.215 6.637 6.498 7.875 11.625-1.207 4.655-3.84 6.882-7.875 9.375h-2c-1.237-1.285-1.237-1.285-2.602-3.062l-1.484-1.914-1.539-2.023-1.562-2.023L190 251c2.856-6.037 6.105-8.286 13-7z" fill="#e9a790"/><path d="M271 156c5.251 23.959 3.149 50.581-7 73l-4-1c.718-4.238 2.022-8.133 3.438-12.187 2.004-5.884 3.662-11.656 4.563-17.812l.336-2.234c1.59-12.805.801-25.956-.336-38.766 2-1 2-1 3-1z" fill="#b29389"/><path d="M101.938 246.125c3.545 1.013 4.997 1.819 7.063 4.875.228 5.02-2.216 8.556-5.254 12.344C102 265 102 265 98.438 266.313 95 266 95 266 92 263.938c-2-2.937-2-2.937-2.125-5.812 1.987-5.521 5.482-12.28 12.063-12z" fill="#4d6f79"/><path d="M140 88c1.875 1.125 1.875 1.125 3 3-.333 6.333-.333 6.333-3 9-2.074.055-2.074.055-4.687-.125-8.627-.17-17.227 2.258-25.078 5.762C107 107 107 107 104 107v-2l9-3c-1.548-2.584-1.548-2.584-4-5-3.642-.891-3.642-.891-7-1v-2c5.224-.443 5.224-.443 8 0l5 5c2.803.447 5.141.242 8 0l-2-11h2c1.604 3.508 2.22 6.144 2 10l6-1-.25-3.312C131 90 131 90 132.688 88c2.955-1.278 4.302-1.081 7.313 0z" fill="#51717a"/><path d="M152 185c2.625.375 2.625.375 5 1l-2 2h-3c-1.705 1.94-1.705 1.94-3 4 6.829 6.467 13.798 12.586 21.278 18.294 3.126 2.395 6.013 4.844 8.722 7.706l-2 1 1 2c-3.932-1.589-6.33-4.163-9.25-7.187-3.821-3.913-7.731-7.626-11.891-11.176-3.101-2.729-5.98-5.677-8.859-8.637-3.307 1.411-5.155 3.055-7.437 5.813-2.703 3.242-5.559 6.221-8.562 9.188l-2.605 2.676-2.582 2.637-2.605 2.676C122 219 122 219 120 219l-.687 1.75c-1.643 2.816-3.708 4.331-6.312 6.25l1-5 3-1 1-3h2v-2c3.721-4.081 7.939-7.619 12.109-11.23 1.97-1.638 1.97-1.638 2.891-3.77h2l.824-1.777c2.841-5.371 6.809-9.39 12.176-12.223l2-2z" fill="#65777c"/><path d="M140 167l1.391 1.207c3.132 2.704 6.248 5.373 9.609 7.793l4-2v3h-2l3 3 1.391-1.715 1.859-2.223 1.828-2.215c2.029-1.951 3.176-2.465 5.922-2.848l-2 1.875c-2.228 1.881-2.228 1.881-2 4.125h4l.813-2.875C169 171 169 171 172 169h3v3l2 1-3.211 1.863-4.164 2.449-2.117 1.225-2.031 1.201-1.873 1.095c-1.907 1.245-1.907 1.245-3.604 4.167l11 11-1 2-1.374-1.421-6.251-6.391-2.16-2.236c-3.849-3.902-7.119-6.745-12.215-8.951l-2.812-2.562c-3.14-2.797-6.237-3.32-10.332-3.883L133 172l-1-3h8v-2z" fill="#a18c85"/><path d="M98 145l15 15h-3c1.498 3.112 3.199 6.053 5 9-3.614-1.444-5.041-3.154-7.062-6.437-1.775-2.858-3.46-5.276-5.937-7.562l-1 2-1.937-2c-3.653-2.386-5.828-2.441-10.074-2.434-2.387.279-2.387.279-3.988 3.434.311 6.378.311 6.378 3 12 4.086 2.283 8.417 2.534 13 3v1c-8.364.909-8.364.909-12.152-1.195-4.254-3.58-6.535-6.653-7.348-12.242.534-3.806.734-4.204 3.5-6.5L88 150h-5c1.634-1.708 2.869-2.935 5-4 1.712.087 3.422.241 5.125.438l2.758.309L98 147v-2z" fill="#a18d85"/><path d="M198 130l3 1c-3.248 8.222-9.104 13.591-15.312 19.625l-3.092 3.063c-5.037 4.975-10.181 9.747-15.596 14.313-1.862 2.198-1.862 2.198-3 4l-2-1 19.063-23.633c1.388-1.696 2.739-3.425 4.063-5.172L187 140h2v-2c1.715-1.691 1.715-1.691 3.938-3.562l2.215-1.879L197 131l1-1z" fill="#f0aa92"/><path d="M165.113 84.461C167 85.125 167 85.125 170 87c1.188 2.875 1.188 2.875 1 6-1.625 2.875-1.625 2.875-4 5-2.906.567-4.264.432-6.812-1.062-1.817-2.965-1.434-5.542-1.187-8.937l1-2-6 2-2 13h-3l-.062-4.75-.035-2.672c.089-2.36.429-4.323 1.098-6.578h2v-2c3.968-1.984 8.861-1.466 13.113-.539z" fill="#446b78"/><path d="M98 286l2.902 1.172c7.266 2.867 14.483 5.368 22.098 7.141l2.062.481c8.442 1.875 16.818 2.424 25.438 2.769l3.07.131L161 298v1h-27l31 2v1c-24.014.368-45.638-.87-67-13v-3z" fill="#617b83"/><path d="M273 172h1c.628 28.147.628 28.147-3 42l-.809 3.258C263.507 241.441 247.986 263.789 228 279c-2.789 1.242-2.789 1.242-5 2 3.069-3.131 6.212-6.094 9.503-8.994 22.601-20.121 37.754-49.277 39.667-79.709l.393-9.234.131-3.229L273 172z" fill="#ebac97"/><path d="M113 132c3.937 1.542 5.937 3.998 8.563 7.25l2.316 2.828c3.741 5.153 5.523 8.875 5.309 15.297l-.082 3.211L129 163l10 2 1 4c-5.363 1.372-5.363 1.372-8.25-.312L129 167c-2.62-.606-5.233-1.06-7.891-1.473L119 165l-1-2h5c2.377-3.715 2.49-6.657 2-11-2.14-5.534-4.651-9.941-9-14-1.06-1.969-2.075-3.964-3-6z" fill="#e5a690"/><path d="M142 188l3 2c-1.352 2.939-2.899 5.292-5 7.75l-1.562 1.859C137 201 137 201 135 201l-.754 1.781c-1.42 2.529-2.947 3.886-5.184 5.719-2.213 1.82-3.991 3.403-5.691 5.719L122 216h-2v2l-5 4-1 2-4-1c3.045-4.437 6.148-8.244 10-12l9.25-9.187 2.508-2.482 2.383-2.373 2.173-2.157c1.757-1.704 1.757-1.704 2.687-3.8h2l1-3z" fill="#eaa791"/><path d="M204 132c1.521 4.564-.062 7.723-2 12-4.603 8.116-11.795 12.733-19.326 17.832-3.099 2.162-5.998 4.576-8.905 6.988C172 170 172 170 169 170l1.326-1.218c14.244-12.636 14.244-12.636 26.112-27.407L198 139h2l.875-1.812C202 135 202 135 204 132z" fill="#eea992"/><path d="M114 253l3 1 1 14 4.313-4.5L127 259h3c-.695 4.109-1.919 7.849-3.375 11.75l-1.273 3.484L124 277l-3 1c.665-4.389 2.188-7.981 4-12l-1.426 1.313-1.887 1.688-1.863 1.688C118 272 118 272 115 272v-11h-2l-.551 2.152-.762 2.785-.738 2.777L110 271l-3 1c.588-4.453 1.733-8.188 3.5-12.312l1.344-3.176C113 254 113 254 114 253z" fill="#566d77"/><path d="M169 258h3l1.5 7.188.434 2.041c.747 3.647 1.24 7.048 1.066 10.771h-2c-1.193-3.877-2-6.916-2-11h-2l-1 10c-4-1-4-1-6.25-4.062L160 270l1 11h-3l-1.5-8.312-.434-2.381-.41-2.295-.381-2.111C155 264 155 264 155 261c5.277 2.088 7.07 6.338 10 11l4-14z" fill="#53727b"/><path d="M174 64v-1c10.093.618 20.108 4.321 29 9l-1 3-3.305-1.207c-22.654-8.069-43.9-8.18-67.695-7.793 10.096-6.73 31.426-3.249 43-2z" fill="#77919a"/><path d="M130 66l1 1 6.508-.113C161.501 66.235 182.767 68.757 204 81l1 2c-4.285-1.351-8.293-3.004-12.375-4.875-24.714-10.882-52.644-11.799-78.625-5.583-2.648.606-5.314 1.049-8 1.458 1.715-3.429 5.736-3.926 9.188-5.125l2.291-.84c4.293-1.512 7.903-2.48 12.521-2.035z" fill="#687a7f"/><path d="M43 132c1.358 3.053.899 4.315-.145 7.574l-1.668 4.113c-5.786 14.727-6.339 28.738-6.25 44.438l.014 4.633L35 204c-8.425-15.318-3.579-41.98 1-58 1.374-4.448 2.871-8.851 5-13l2-1z" fill="#eddedd"/><path d="M180 254c4.264.485 6.194 2.922 9.063 5.938 2.594 2.711 4.811 4.978 7.938 7.063v2a84.76 84.76 0 0 1-7-2c-3.15.883-3.15.883-6 2v6h-2c-1.723-7.093-2.249-13.71-2-21z" fill="#48707b"/><path d="M71 89l2 1-2 2v3c-1.906 1.945-1.906 1.945-4.5 4.125-12.009 10.521-19.944 22.438-26.078 37.195-1.486 2.8-2.756 4.028-5.422 5.68 2.806-19.902 22.362-39.5 36-53z" fill="#4f7784"/><path d="M147 193l2 1c-1.276 2.801-2.591 4.836-4.781 6.993l-1.688 1.678-1.815 1.774-1.868 1.852-5.91 5.828-5.921 5.849-3.686 3.633c-3.042 2.908-3.042 2.908-5.331 6.393l-3-1c1.569-3.85 4.052-6.12 7-9l2.5-2.5 10.086-10.051c2.739-2.779 5.248-5.701 7.766-8.68C144 195 144 195 147 193z" fill="#cb9c8c"/><path d="M109 126c9.775 4.265 16.512 12.523 21 22l1 2c.121 1.643.175 3.291.188 4.938l.043 2.652C131 160 131 160 129 163l-.008-2.273c-.453-11.99-5.969-19.228-13.992-27.727l1 3c-2.867-1.285-4.976-2.571-7-5v-2c-3.492-1.164-6.335-1.065-10-1h-3c4.327-3.38 7.87-3.408 13-2z" fill="#818180"/><path d="M133 260l4.875.438 2.742.246C143 261 143 261 145 262v2c-6.625.125-6.625.125-10-1v7l8 1v2l-9-1v6l9 1v3l-13-1 .938-7.687.264-2.186c.462-3.747.991-7.435 1.799-11.127z" fill="#506f79"/><path d="M169 197c3.767.549 5.267 2.008 7.688 4.875l1.824 2.117C180 206 180 206 181 209h2c3 3.462 3 3.462 3 6h2c1.289 1.531 1.289 1.531 2.625 3.5l1.352 1.969L193 222l-1 2c-5.252-4.45-10.162-9.108-14.922-14.082-1.978-1.825-3.648-2.821-6.078-3.918-1.75-1.5-1.75-1.5-3-3v-2l2-1-1-3z" fill="#d09e8c"/><path d="M203 244c4.173 3.215 6.637 6.498 7.875 11.625-1.207 4.655-3.84 6.882-7.875 9.375h-2c-1.237-1.285-1.237-1.285-2.602-3.062l-1.484-1.914-1.539-2.023-1.562-2.023L190 251c2.856-6.037 6.105-8.286 13-7zm-10 5c1.491 3.283 3.386 5.931 5.625 8.75l1.914 2.422L202 262c3.833-1.805 3.833-1.805 5.859-5.344.385-2.703.385-2.703-1.152-4.895l-1.895-2.074-1.855-2.113c-3.9-3.137-6.629-1.427-9.957 1.426z" fill="#486e79"/><path d="M193 119v2l7 1v1l-7 1v1l-3.875.5c-6.27 1.336-10.458 5.31-15.125 9.5l-1-2c9.824-15.991 9.824-15.991 20-14z" fill="#c59a8b"/><path d="M101.688 248.5C104 249 104 249 106 251c.647 2.831.362 4.417-1.168 6.883-3.875 4.922-3.875 4.922-7.582 5.68C95 263 95 263 93 261c.087-3.818.991-6.367 3.25-9.375C99 249 99 249 101.688 248.5z" fill="#eca891"/><path d="M126 65c-4.364 2.912-8.898 4.485-13.812 6.188C99.7 75.658 87.745 81.12 77 89l-2-1c10.663-9.027 36.515-27.828 51-23z" fill="#f0e0df"/><path d="M89 231l2 2-5 5c1.049 2.622 1.649 3.794 4.125 5.25L92 244l5-4 2 2-5.187 4.875-1.463 1.395c-2.944 2.726-5.519 4.512-9.35 5.73l4-8-5-5-2.312 2C77 245 77 245 74 245c1.133-3.4 1.852-3.877 4.688-5.875C82.261 236.55 85.644 233.852 89 231z" fill="#496e79"/><path d="M257 226l3 2c-7.962 15.886-17.765 34.844-33 45l-2-2 2.273-1.914C240.102 257.997 247.855 245.237 255 230l2-4z" fill="#51707a"/><path d="M209 229h2l-4 10 4 2 1.875-2.5L215 236h2l-1 2.25c-1.228 2.889-1.228 2.889-1 6.75h4l4-5h2c-.593 3.392-1.767 5.211-4.062 7.75l-1.66 1.859L218 251c-5.669-3.581-10.805-7.77-16-12 2.11-3.576 4.239-6.883 7-10z" fill="#4c6e79"/><path d="M139 65c26.382-.573 48.464 1.246 72 14l-2 1c-2.114-.821-4.192-1.735-6.25-2.687C182.427 68.377 160.919 67.472 139 66v-1z" fill="#f2dcd9"/><path d="M176 217c5.951 2.116 10.462 5.406 15.449 9.258 2.313 1.58 3.822 2.32 6.551 2.742v3c-3.95 1.156-5.633 1.167-9.437-.562-4.999-3.233-9.621-6.227-12-11.812L176 217z" fill="#cf9e8d"/><path d="M37 138l2 1-4 16h-3c-3.416 13.213-3.708 26.412-4 40h-1c-1.451-19.338-.16-34.887 7-53h2l1-4z" fill="#8398a1"/><path d="M217 278l2 1c-13.562 11.761-29.947 19.276-48 20v-2l3.043-.699C188.116 292.984 206.43 288.57 217 278z" fill="#e6a691"/><path d="M140 88c1.875 1.125 1.875 1.125 3 3-.062 3.563-.062 3.563-1 7-2.062 1.438-2.062 1.438-4 2l-5-4-2 1c-.485-6.425-.485-6.425 1.688-9 2.955-1.278 4.302-1.081 7.313 0z" fill="#57717a"/><path d="M97 137l1.637 2.098c7.15 8.781 14.898 17.592 24.363 23.902l-4 1 2.59.586 3.348.789 3.34.773L131 167l1 2c-7.605-.837-13.293-1.682-19-7v-3c-1.762-2.013-1.762-2.013-4.062-4.062-4.656-4.501-8.755-9.269-11.937-14.937v-3z" fill="#7c7f7f"/><path d="M247 255c0 4.145-2.229 5.836-4.937 8.688l-1.511 1.609C227.862 278.662 227.862 278.662 220 280l-3-3c5.323-4.952 5.323-4.952 8.625-5.187L228 272c7.954-3.386 13.518-10.593 19-17z" fill="#707b7f"/><path d="M188 137l3 1h-2v2h-2l-.742 1.715c-1.482 2.692-3.272 4.615-5.383 6.848-4.754 5.182-8.847 10.682-12.875 16.438-5.571 7.944-5.571 7.944-8 10h-3c1.3-2.834 2.703-4.964 4.813-7.25 3.671-4.093 7.117-8.343 10.563-12.625 5.022-6.228 10.174-12.266 15.625-18.125z" fill="#b99589"/><path d="M98 145l15 15h-3c1.498 3.112 3.199 6.053 5 9-3.565-1.434-4.962-3.057-6.937-6.312-3.58-5.613-7.801-9.628-13.062-13.687l3-2v-2z" fill="#8b8582"/><path d="M207 145l1 3-4 7-2 4h-3l-4 1 1-5-2-1 9-8v3l2 1 2-5z" fill="#cf9e8d"/><path d="M256 124c3 1 3 1 4.091 2.702l3.159 7.11 1.141 2.486 1.063 2.408.974 2.202c.663 2.418.38 3.748-.427 6.091l-1-2-1 3-3.937-9.812-1.131-2.814-1.084-2.705-1-2.491L255 125l1-1z" fill="#6c7b80"/><path d="M195.125 97.25C198 98 198 98 199 99c.309 3.473.387 5.387-1.5 8.375L196 109v-2l-5-1-2-6c2.005-2.785 2.595-3.032 6.125-2.75z" fill="#62757c"/><path d="M73 92l2 1-2.773 2.668-3.602 3.52-1.828 1.752C63.536 104.146 61.49 106.594 60 111c-2.649 1.902-4.905 2.968-8 4 4.119-9.061 13.169-17.067 21-23z" fill="#d5ced0"/><path d="M153 186c5.67 1.479 5.67 1.479 7.188 3.875L161 192l1.688 2.063L164 196l-1 3-2.062-1.25-6.625-3.812C151 192 151 192 149 190l4-4z" fill="#be9789"/><path d="M108 158l1.758 1.207c6.668 4.522 12.39 7.859 20.387 9.266L132 169l1 2-5.25.688-2.953.387c-3.374-.09-4.323-.86-6.797-3.074l-2.07-1.43-2.055-1.445-2.07-1.43c-2.165-2.034-2.886-3.901-3.805-6.695z" fill="#e9a791"/><path d="M113 132c3.937 1.542 5.937 3.998 8.563 7.25l2.316 2.828c5.221 7.192 5.221 7.192 4.934 12.172C128 157 128 157 126 159l-.227-1.871c-1.092-7.033-3.622-11.455-7.773-17.129l-2.875-4.562-1.242-2.004L113 132z" fill="#b39388"/><path d="M172 135c.775 2.268 1.15 3.552.379 5.859l-1.031 1.891-1.104 2.094-1.182 2.156-2.277 4.25-1.035 1.891c-1 2.143-1 2.143-.75 5.859-1.5 2.25-1.5 2.25-3 4l-2-1c.487-6.117 3.236-10.957 6-16.312l1.406-2.783c3.425-6.736 3.425-6.736 4.594-7.904z" fill="#ba9689"/><path d="M158 203c4.283.511 6.287 1.785 9.375 4.75 3.702 3.448 7.446 6.405 11.625 9.25l-2 2 1 2c-3.938-1.585-6.544-4.315-9.437-7.312l-1.408-1.436L163 208l-5-5z" fill="#7e8080"/><path d="M36 201c3.469 6.21 4.38 13.967 4 21l-1-2h-2l-2.125-6.187-1.195-3.48c-.748-3.669-.462-5.104 1.32-8.332l1-1z" fill="#879ba3"/><path d="M182 161l2 1-1 2 7-2c-2.112 3.161-4.023 4.852-7.375 6.625l-2.395 1.27c-2.367 1.173-4.74 2.222-7.23 3.105l2-4-2-1 9-7z" fill="#c2998a"/><path d="M39 216c2.805 2.805 3.69 6.211 5 9.875 2.193 6.194 2.193 6.194 5 12.125l-3 2-4.062-8.062-1.182-2.279c-2.494-5.097-3.16-8.124-1.756-13.658z" fill="#6e8b95"/><path d="M200 95c2.675 2.559 3.905 3.956 4.25 7.75-.286 3.712-1.417 6.043-3.25 9.25-4.86-.607-8.741-2.728-13-5l2-6h1l1 5 4 1v2l4 1 .625-4.75.352-2.672c.026-2.807-.528-4.212-1.977-6.578l1-1z" fill="#466c78"/><path d="M177 204l4 3v2h2c3 3.462 3 3.462 3 6h2c1.289 1.531 1.289 1.531 2.625 3.5l1.352 1.969L193 222l-1 2c-13.428-11.562-13.428-11.562-14-17l-1-3z" fill="#bf988a"/><path d="M158.625 83.938l2.477.027L163 84c-2.242 1.162-4.214 2.057-6.668 2.711-2.666 1.12-2.666 1.12-3.258 4.328l-.387 3.586-.426 3.602L152 101h-3l-.062-4.75-.035-2.672c.089-2.36.429-4.323 1.098-6.578h2v-2c2.405-1.203 3.95-1.101 6.625-1.062z" fill="#55747c"/><path d="M175 169v3l2 1-6.187 4.063-1.752 1.182c-2.874 1.835-4.535 2.801-7.986 2.502L159 180l2-4 6 1 .813-2.875C169.356 170.063 170.62 169 175 169z" fill="#a38e86"/><path d="M164 171l3 1-7 6 2 4-2 3 11 11-1 2-6.5-6.062-1.879-1.701c-3.145-3.024-4.498-4.509-5.246-8.924.689-3.651 1.372-4.841 4.125-7.25l1.969-1.777L164 171z" fill="#988a84"/><path d="M80 153h1v9h2l4 6c3.502 3.627 7.173 3.598 12 4l-2 2 1 2c-7.264-1.402-12.515-3.553-16.937-9.687-1.441-4.491-1.312-8.637-1.062-13.312z" fill="#b29388"/><path d="M190 119l-1.812.813c-2.16 1.172-3.545 2.381-5.187 4.188l2 1c-3.494 3.596-7.111 6.835-11 10l-1-2c9.297-15.133 9.297-15.133 17-14z" fill="#9f8c85"/><path d="M100 153c3.966 1.492 5.316 3.664 7.438 7.25 2.594 4.254 5.25 8.036 8.563 11.75-2.867-.573-3.861-.861-6-3-2.571-.648-2.571-.648-5-1l-.332-2.012c-.879-4.897-1.662-8.89-4.668-12.988z" fill="#e8a691"/><path d="M76 85l2 1-2 2 3 2c-5.344 6.335-11.088 12.195-17 18 0-3 0-3 2.625-5.918L68 98.813l1.734-1.693L74 93l-4-1 6-7z" fill="#6c8a94"/><path d="M86 151l3 1-2.062 1.5c-2.157 2.783-2.189 3.19-1.812 6.5.79 4.267.79 4.267 2.875 8 4.086 2.283 8.417 2.534 13 3v1c-8.364.909-8.364.909-12.152-1.195-4.278-3.599-6.615-6.638-7.223-12.305C82 155 82 155 84 152.563L86 151z" fill="#737c7e"/><path d="M48 238c3.204 2.803 5.266 6.365 7.5 9.938 2.381 3.783 4.743 7.537 7.5 11.063h-3c-4.862-4.964-10.269-11.537-13-18l1-3z" fill="#547a86"/><path d="M135 89c3.536.536 3.536.536 5 2v6c-2.375.625-2.375.625-5 1-2-2-2-2-2.25-4.5C133 91 133 91 135 89z" fill="#e5a790"/><path d="M163 87c2.625.375 2.625.375 5 1v6l-2 2c-3.536-.536-3.536-.536-5-2-.187-2.437-.187-2.437 0-5l2-2z" fill="#e4a68f"/><path d="M261 208c2.336 4.672 2.61 7.879 2 13-1.5 3.563-1.5 3.563-3 6l-3-1 4-18z" fill="#7d8080"/><path d="M177 91c2.625.375 2.625.375 5 1l-1 7c-1.875.625-1.875.625-4 1-2-2-2-2-2.25-4.5C175 93 175 93 177 91z" fill="#e7a790"/><path d="M199 126l-1 2-7 2v2l-7 3c.323-2.99.548-4.564 2.75-6.687 4.458-2.6 7.147-3.771 12.25-2.312z" fill="#b79589"/><path d="M207 135l4 1c.436 6.859-.269 12.098-4 18l-3 2c0-3 0-3 1.375-5.125 2.149-3.802 2.836-7.612 3.625-11.875l-2 2v-6z" fill="#bc978a"/><path d="M147 193c0 3 0 3-1.744 5.085l-2.412 2.365-2.598 2.568-2.746 2.67-2.746 2.705L128 215l-2-1c4.435-5.202 8.947-10.008 14.168-14.426 2.412-2.073 4.619-4.292 6.832-6.574z" fill="#e7a690"/><path d="M180 254c3.599.556 4.999 1.749 7.25 4.563l1.578 1.941L190 262c-3 0-3 0-5.187-2L183 258l-1 9c-2-2-2-2-2.195-4.602l.07-3.023.055-3.039L180 254z" fill="#456b78"/><path d="M71 89l2 1-2 2v3c-1.969 2.043-1.969 2.043-4.5 4.188l-2.531 2.168L62 103l-2-3 11-11z" fill="#5e818c"/><path d="M112 127l3 7 1 2c-2.867-1.285-4.976-2.571-7-5v-2c-3.492-1.164-6.335-1.065-10-1h-3c5.347-4.177 9.812-3.063 16-1z" fill="#908782"/><path d="M113 217c0 3 0 3-2 6 1.634 1.708 2.869 2.935 5 4l-4 4-2-1 .563-1.937L111 226l-1-1-2 3c-1.022-3.252-1.187-4.589.25-7.75C110 218 110 218 113 217z" fill="#918782"/><path d="M32 152h1l-1 13-.184 2.352c-.191 1.836-.191 1.836-.816 4.648l-3 2c.487-7.591 1.998-14.671 4-22z" fill="#eadcdb"/><path d="M113 161l10 1-4 2 2.59.586 3.348.789 3.34.773L131 167l1 2c-7.674-.844-13.14-1.806-19-7v-1z" fill="#938883"/><path d="M182 257l7 6v2l-6 2-1-10z" fill="#dfa28d"/><path d="M176 217l7 3v3l4 6c-4.768-2.119-8.312-4.297-10.312-9.25L176 217z" fill="#a38e86"/><path d="M98 145c3.596 3.494 6.835 7.111 10 11l-2 1-2.125-2.375c-2.967-2.709-5.033-3.642-8.875-4.625l1.5-1.375c1.726-1.501 1.726-1.501 1.5-3.625z" fill="#757d7e"/><path d="M248 112c3.372 1.394 4.905 2.843 6.813 5.938l1.332 2.09C257 122 257 122 256 125c-2.312-2.163-4.016-4.376-5.687-7.062l-1.324-2.098C248 114 248 114 248 112z" fill="#57757e"/><path d="M193 99c2.125.375 2.125.375 4 1l-1 6h-5c-.125-2.375-.125-2.375 0-5l2-2z" fill="#e3a690"/><path d="M181 299c-1 2-1 2-4.25 3.125-3.127.73-5.576 1.067-8.75.875l-1-3 4.75-1.062 2.672-.598c2.565-.338 4.149-.151 6.578.66z" fill="#607981"/><path d="M84 278l14 8v2c-5.803-1.488-10.176-4.591-15-8l1-2z" fill="#517884"/><path d="M89.25 148.875L93 149v1l-3.312.813c-4.117 1.177-4.117 1.177-6.687 4.188-.73 3.61-.73 3.61-1 7h-1v-11c3.611-1.806 4.545-2.249 8.25-2.125z" fill="#e2a48f"/><path d="M133 272h1v6l9 1v3l-10-1v-9z" fill="#637b7f"/><path d="M120 175l5.688.813 3.199.457c3.251.763 5.406 1.797 8.113 3.73 1.313 2.188 1.313 2.188 2 4l-2.75-1.75c-5.087-2.937-10.663-4.525-16.25-6.25v-1z" fill="#948883"/><path d="M124 69c-3.104 1.681-6.165 2.74-9.562 3.688l-2.879.824C109 74 109 74 106 73l5.625-2.562 3.164-1.441c3.555-1.103 5.64-.892 9.211.004z" fill="#4f7784"/><path d="M225 279l-10 7-2-1c1.157-3.472 1.943-4.132 5-6 4.455-1.273 4.455-1.273 7 0z" fill="#67787d"/><path d="M139 174h-17c5.678-3.785 11.158-3.895 17 0z" fill="#ab9086"/><path d="M112 128c4.86 2.503 8.279 6.086 12 10l-2 1-5-3.812-2.812-2.145L112 131v-3z" fill="#6d7a7d"/><path d="M107 74c-2.643 1.762-5.231 3.199-8.062 4.625l-2.66 1.352C94 81 94 81 92 81c1-3 1-3 3.398-4.422l2.977-1.328 2.961-1.359C104 73 104 73 107 74z" fill="#5b7e8a"/><path d="M157 267c2.4 4.68 4 8.673 4 14h-3c-1.206-4.672-1.094-9.215-1-14z" fill="#4c717c"/><path d="M125 264h1c.293 5.673.006 8.991-3 14h-2c.865-4.76 1.827-9.654 4-14z" fill="#5e7179"/><path d="M190 162l3 1c-1.44 2.88-3.501 3.547-6.312 5.063l-2.926 1.598c-2.307 1.119-4.261 1.859-6.762 2.34 2.31-2.489 4.78-4.281 7.625-6.125 2.833-1.755 2.833-1.755 5.375-3.875z" fill="#9b8b84"/><path d="M163 152l3 4a56.54 56.54 0 0 1-4 7l-2-1c.507-3.719 1.116-6.735 3-10z" fill="#c0988a"/><path d="M128 101l-1 4-6 1v-5c3.01-.934 3.867-1.044 7 0z" fill="#a79088"/><path d="M194 69c3.38.356 6.043 1.357 9 3l-1 3-10-4 2-2z" fill="#63848f"/><path d="M232 270c-2.107 5.997-2.107 5.997-5 8l-4-1 3.375-3.5 1.898-1.969C230 270 230 270 232 270z" fill="#a58f87"/><path d="M152 185c2.625.375 2.625.375 5 1l-2 2h-3l-1.5 1.5-1.5 1.5h-3l1 3-2 1-2-2c2.136-3.203 3.732-4.121 7-6l2-2z" fill="#757d7e"/><path d="M76 85l2 1-2 2 3 2-6 3-3-1 6-7z" fill="#889ca4"/><path d="M90 257h3l.75 2.375c1.404 2.948 2.257 3.527 5.25 4.625l-6 1c-2.624-3.061-3-3.732-3-8z" fill="#60737a"/><path d="M209 229h2c-1.37 3.995-3.257 6.8-6 10l-2-1c1.528-3.438 3.502-6.19 6-9z" fill="#51717b"/><path d="M106 224l5 1 1 3-2 3-3-1-1-6z" fill="#cc9c8c"/><path d="M173 213l6 4-2 2 1 2c-2.867-1.285-4.976-2.571-7-5v-2l2-1z" fill="#8c8582"/><path d="M154 174l2 2-3 1 3 3 2-1-1 5-7-6 4-4z" fill="#808180"/><path d="M165 167c-1.625 5.75-1.625 5.75-5 8h-3c1.517-3.54 3.753-8 8-8z" fill="#ca9c8c"/><path d="M86 151l3 1-2 1.625c-2.53 3.005-2.166 4.557-2 8.375l-2 2c-1.546-3.092-1.294-5.594-1-9 2-2.437 2-2.437 4-4z" fill="#8b8582"/><path d="M202 100c.179 3.947.094 6.598-2 10l-3-1 .875-3.937.492-2.215c.698-2.039 1.335-2.848 3.633-2.848z" fill="#ce9b89"/><path d="M89 79c-1.256 3.768-2.51 4.212-5.875 6.188l-2.68 1.605C78 88 78 88 75 88l4.313-3.375 2.426-1.898C86.62 79 86.62 79 89 79z" fill="#e0d6d6"/><path d="M39 131l3 1c-2.857 7.571-2.857 7.571-7 10 .607-4.128 2.038-7.332 4-11z" fill="#5f828d"/><path d="M182 126l1 2-9 7-1-2c1.25-2.625 1.25-2.625 3-5h3l3-2z" fill="#ae9287"/><path d="M130 66l3 2c-4.412 1.471-7.483 2.369-12 1v-2c3.255-1.085 5.59-1.213 9-1z" fill="#6a8993"/><path d="M110 291l4 1v2l6 1c-1.687 1.125-1.687 1.125-4 2-2.75-.875-2.75-.875-5-2v-2l-2-1 1-1z" fill="#81898c"/><path d="M196 228l2 1v3c-3.702.947-5.391 1.304-8.875-.437L187 230h3c2.211-.469 3.973-.987 6-2z" fill="#898481"/><path d="M200 95c2.799 2.678 3.938 4.01 4.188 8-.187 3-.187 3-2.187 5l-.375-3.75c-.382-3.126-.93-5.539-2.625-8.25l1-1z" fill="#537881"/><path d="M116 254h1v15l3 1-4 2v-18z" fill="#376d7d"/><path d="M159 173l1 3-5 5-2-4 6-4z" fill="#b99689"/><path d="M173 163l2 2-7 7-3-2 8-7z" fill="#ab9187"/><path d="M207 126h2l2 5-5 2c-.625-2.375-.625-2.375-1-5l2-2z" fill="#bd978a"/><path d="M196.813 125.188L199 126l-1 2c-2.066.633-2.066.633-4.562 1.125l-2.504.508L189 130c4.308-5.046 4.308-5.046 7.813-4.812z" fill="#f0a992"/><path d="M193 153l2 1-2 3-1 2.125C191 161 191 161 189 162l1-4-2-1 5-4z" fill="#ac9187"/><path d="M35 143h1c.082 4.161-.018 7.947-1 12l-2-1 .438-4.375.246-2.461C34 145 34 145 35 143z" fill="#9ba8af"/><path d="M97 132c.872 2.995 1.108 5.636 1.063 8.75l-.027 2.422L98 145l-4-4v-2h2l-.062-2.937C96 133 96 133 97 132z" fill="#9d8c85"/><path d="M82 84l3 3-5 4-2-1v-3c2-1.687 2-1.687 4-3z" fill="#6d8b95"/><path d="M119 221l3 2-4 5-3-1c1.152-2.468 2.048-4.048 4-6z" fill="#c3998a"/><path d="M140 167l3.438 2.875 1.934 1.617C147 173 147 173 148 175l-1.562-.812c-3.102-1.511-6.26-2.843-9.437-4.187l3-1v-2z" fill="#707b7d"/><path d="M168 89h1c1.332 5.447 1.332 5.447-.125 7.875-2.412 1.447-4.11 1.349-6.875 1.125v-2l2.438-.687L167 94c.894-2.548.894-2.548 1-5z" fill="#586f79"/><path d="M129 259c1.392 4.176-.177 6.135-2 10h-1c-.75-2.75-.75-2.75-1-6 1.938-2.375 1.938-2.375 4-4z" fill="#3b6c7a"/><path d="M44 230c3.247 1.624 3.702 4.754 5 8l-3 2c-1.316-3.62-2-6.096-2-10z" fill="#64848f"/><path d="M257 226l3 2-3 6-3-1 3-7z" fill="#60757c"/><path d="M170 147c2.625-.187 2.625-.187 5 0l-4 7-3-4 2-3z" fill="#bc9789"/><path d="M71 89l2 1-2 2v3l-4 1c0-3 0-3 2-5.187L71 89z" fill="#6d8a94"/><path d="M232 267c-1.37 3.161-1.989 3.993-5 6l-2-2c3.625-4 3.625-4 7-4z" fill="#60767c"/><path d="M132 166l8 1v2c-5.75 1.125-5.75 1.125-8 0v-3z" fill="#eba891"/><path d="M149 91h1v5h2v5h-3V91z" fill="#6a7c81"/><path d="M132 91h1l.813 2.813c1.099 2.95 1.812 4.244 4.188 6.188-3.344-.557-6.033-1.352-9-3h3v-6z" fill="#3c6a78"/><path d="M168.063 85.563C170 87 170 87 170.75 90.125L171 93l-2 1-.812-2.875c-.937-3.378-.937-3.378-4.187-5.125 2-1 2-1 4.063-.437z" fill="#4b747e"/><path d="M37 213l3 1v8l-1-2h-2c-.934-3.01-1.044-3.867 0-7z" fill="#a5afb4"/><path d="M107 168c1.875.313 1.875.313 4 1l2 3-2.25-.625c-3.073-.419-4.178.006-6.75 1.625l3-5z" fill="#918782"/><path d="M130 163l4.438.875 2.496.492L139 165l1 2c-2.75.25-2.75.25-6 0-2.375-2-2.375-2-4-4z" fill="#838280"/><path d="M145 181l5 1-1 3h-4v-4z" fill="#5f747a"/><path d="M166 146h2c-.531 3.821-1.497 6.062-4 9 .875-6.75.875-6.75 2-9z" fill="#ab9187"/><path d="M108 162c3.829 1.453 5.121 3.429 7 7-3.829-1.453-5.121-3.429-7-7z" fill="#777d7e"/><path d="M94 150c3.242.35 4.615.562 6.813 3.063L102 155l-1 2-5-4v-2l-2-1z" fill="#ac9187"/><path d="M109 68l3 1v2l-6 2c.375-1.937.375-1.937 1-4l2-1z" fill="#e7dada"/></svg>