<svg xmlns="http://www.w3.org/2000/svg" width="24" height="24" fill="none" xmlns:v="https://vecta.io/nano"><path d="M20.307 2.25H3.689c-.797 0-1.43.627-1.439 1.404v16.691a1.42 1.42 0 0 0 1.421 1.405h16.634a1.43 1.43 0 0 0 1.445-1.404v-.001-16.69a1.43 1.43 0 0 0-1.427-1.405h-.016zM8.033 18.867H5.137V9.563h2.896v9.305zM6.586 8.289c-.926 0-1.677-.751-1.677-1.677a1.68 1.68 0 0 1 1.677-1.677c.926 0 1.677.75 1.677 1.676S7.513 8.29 6.587 8.29l-.001-.001zm12.277 10.578h-2.887v-4.525c0-1.079-.022-2.467-1.504-2.467-1.506 0-1.735 1.174-1.735 2.388v4.605H9.848V9.563h2.774v1.268h.038c.538-.907 1.512-1.505 2.626-1.505l.118.002h-.006c2.926 0 3.467 1.926 3.467 4.432v5.107l-.001-.001z" fill="#2d9cdb"/></svg>