<svg xmlns="http://www.w3.org/2000/svg" width="271" height="167" xmlns:v="https://vecta.io/nano"><path d="M144 3c3.195 3.663 5.088 7.102 6.883 11.609l.776 1.928 2.466 6.212 1.718 4.291 3.472 8.715 4.759 11.916L171 65l4.273-.937 2.404-.527c4.252-.98 8.412-2.246 12.569-3.567 3.838-.989 7.236-1.313 11.191-1.452l2.072-.073 4.306-.131 6.536-.23 4.211-.129 3.816-.12c3.842.177 6.972.987 10.621 2.167l4.094 1.078C262.554 67.801 262.554 67.801 270 74c-5.823-.637-11.422-1.673-17.125-3l-4.633-1.062-2.036-.473C228.231 65.678 206.489 66.259 189 72l-2.029.649C176.492 76.087 166.745 80.886 157 86l-4.504 2.336L148 90.688l-2.066 1.079c-4.228 2.239-8.27 4.663-12.27 7.291C132 100 132 100 130 100l-1 2c-2.063 1.272-4.109 2.434-6.25 3.563l-1.973 1.045c-5.814 3.013-11.764 5.679-17.777 8.267l-2.677 1.155C88.564 121 88.564 121 82 121l-1 2c-17.856 2.932-37.769 2.773-55-3l-2.087-.698C15.649 116.49 7.681 113.173 0 109l1-2 1.753.519 8.059 2.356 2.756.816c11.43 3.312 22.077 4.7 33.994 4.684l1.997-.002c10.974-.042 21.006-.974 31.44-4.373l2.227-.714c9.851-3.018 9.851-3.018 17.773-9.286 1.417-2.7 1.417-2.7 2.559-5.761l1.398-3.528 1.48-3.828 1.578-4.005 4.149-10.609 4.09-10.434 1.624-4.134.811-2.066 3.242-8.266 3.245-8.272 1.666-4.249 4.995-12.679 1.551-3.943 2.15-5.438 1.225-3.106C137.952 8.105 139.102 6.105 141 4l3-1zm-7 45c-4.341 10.645-8.557 21.325-12.5 32.125l-1.061 2.889-.971 2.681-.861 2.375c-.708 1.91-.708 1.91-.607 3.929 5.023-1.439 9.046-3.641 13.438-6.375l3.809-2.336 1.867-1.147c2.93-1.772 5.906-3.457 8.887-5.142l-3.812-11.687-1.08-3.342-1.064-3.232-.968-2.968c-1.097-2.828-2.387-5.252-4.075-7.771h-1z" fill="#f98b00"/><path d="M198 87l-1 2-6.437 1.563c-4.409.849-4.409.849-8.562 2.438v2l2 1c.816 1.891.816 1.891 1.563 4.25l.781 2.453C187 105 187 105 187.563 108l.438 2 2 1c.682 1.662.682 1.662 1.324 3.844 1.803 5.715 4.109 11.161 6.488 16.656l1.252 2.973C204.556 147.37 204.556 147.37 215 156c3.158.635 6.291 1.122 9.488 1.508L227 158l1 2-1 2-21.143.537-7.193.187-10.336.253-3.252.098-3.033.061-2.665.067c-2.572-.219-4.17-.902-6.379-2.203v-3l4-2c-.61-4.5-1.767-8.415-3.398-12.648l-.714-1.867-2.263-5.859-1.5-3.906-2.869-7.454L162 113l-.949-2.531L159 105c-3.123.486-5.996.999-9 2v2l-2.687 1.313c-5.499 2.427-5.499 2.427-9.312 6.688-1.637.93-1.637.93-3.687 1.875-2.717 1.297-5.216 2.654-7.687 4.375C124 125 124 125 122 125l-1 2a123.2 123.2 0 0 1-6.937 3.125l-1.959.84C107.276 133 107.276 133 105 133c-3.767 11.329-3.767 11.329-3 23l11 2v4H61l-1-4 15-3v-2h2l1-2h2l2-6h2l2-7-16-1 1-2c2.759-.592 5.464-1.081 8.25-1.5 4.858-.746 9.221-1.506 13.75-3.5l4.813-1.375c4.736-1.381 8.815-3.361 13.188-5.625h2l1-2c1.924-1.243 3.889-2.422 5.875-3.562l3.242-1.879C126 114 126 114 129 113v-2l1.949-1.031c6.642-3.563 13.039-7.392 19.398-11.43C153 97 153 97 155 97l1-2c13.514-6.755 27.075-9.254 42-8z" fill="#f88a00"/><path d="M101 116l2 1z" fill="#a85d08"/><path d="M11 116l2 1z" fill="#8e4f0a"/><path d="M165 89l2 1z" fill="#b76507"/><path d="M181 75l2 1zm10-17l2 1z" fill="#8e4f0a"/></svg>