<?xml version="1.0" encoding="UTF-8"?>
<svg version="1.1" xmlns="http://www.w3.org/2000/svg" width="271" height="167">
<path d="M0 0 C3.19457438 3.66343196 5.08816022 7.1023148 6.8828125 11.609375 C7.13894821 12.24566833 7.39508392 12.88196167 7.65898132 13.53753662 C8.48908953 15.6052217 9.30710869 17.67745584 10.125 19.75 C10.69673242 21.18064944 11.26924955 22.61098552 11.8425293 24.04101562 C13.00473202 26.9441036 14.16205078 29.84906093 15.31494141 32.75585938 C16.89199454 36.73164637 18.48085775 40.70259991 20.07421875 44.671875 C22.39034809 50.44492579 24.69867611 56.22103229 27 62 C28.42473774 61.68868101 29.84915468 61.37589369 31.2734375 61.0625 C32.06669434 60.88847656 32.85995117 60.71445312 33.67724609 60.53515625 C37.92931094 59.55549195 42.08958089 58.28950451 46.24609375 56.96777344 C50.08379391 55.97839756 53.48220079 55.65428314 57.4375 55.515625 C58.12126709 55.4915155 58.80503418 55.46740601 59.50952148 55.44256592 C60.94468279 55.39460981 62.38000079 55.35114802 63.81542969 55.31201172 C65.9949081 55.25014454 68.17287501 55.16695981 70.3515625 55.08203125 C71.75516827 55.03777305 73.15881405 54.99476256 74.5625 54.953125 C75.82191406 54.91348633 77.08132812 54.87384766 78.37890625 54.83300781 C82.2209359 55.01018879 85.35057115 55.81962093 89 57 C90.36319561 57.3646036 91.72756227 57.72489822 93.09375 58.078125 C118.55414426 64.8012334 118.55414426 64.8012334 126 71 C120.1767032 70.36328418 114.577504 69.32705827 108.875 68 C107.33108032 67.64430565 105.78681527 67.29010668 104.2421875 66.9375 C103.5704248 66.78152344 102.89866211 66.62554687 102.20654297 66.46484375 C84.23068583 62.67794045 62.48879342 63.25923693 45 69 C44.33049316 69.21430664 43.66098633 69.42861328 42.97119141 69.64941406 C32.49222884 73.0865338 22.74537008 77.88625129 13 83 C11.49875859 83.77876281 9.99745518 84.5574061 8.49609375 85.3359375 C6.99686102 86.11876828 5.49814949 86.90259815 4 87.6875 C3.3181665 88.04368408 2.63633301 88.39986816 1.93383789 88.7668457 C-2.29416469 91.00623413 -6.33661103 93.43031579 -10.3359375 96.05786133 C-12 97 -12 97 -14 97 C-14.33 97.66 -14.66 98.32 -15 99 C-17.0626888 100.27239827 -19.10936885 101.43425497 -21.25 102.5625 C-21.90097656 102.90748535 -22.55195312 103.2524707 -23.22265625 103.60791016 C-29.03632021 106.62125407 -34.98657299 109.28732407 -41 111.875 C-41.88333008 112.25599854 -42.76666016 112.63699707 -43.67675781 113.02954102 C-55.43627245 118 -55.43627245 118 -62 118 C-62.33 118.66 -62.66 119.32 -63 120 C-80.85632321 122.93191748 -100.76944156 122.77312525 -118 117 C-119.03302246 116.65461182 -119.03302246 116.65461182 -120.08691406 116.30224609 C-128.35146361 113.4901869 -136.31937711 110.17264609 -144 106 C-143.505 105.01 -143.505 105.01 -143 104 C-142.42145264 104.17128418 -141.84290527 104.34256836 -141.24682617 104.51904297 C-138.56207497 105.31023122 -135.87483488 106.09263439 -133.1875 106.875 C-132.27806641 107.14441406 -131.36863281 107.41382812 -130.43164062 107.69140625 C-119.00180564 111.00323123 -108.35418108 112.39165821 -96.4375 112.375 C-95.77836609 112.37445618 -95.11923218 112.37391235 -94.44012451 112.37335205 C-83.46652899 112.33183949 -73.43386089 111.39906182 -63 108 C-62.26523438 107.76442383 -61.53046875 107.52884766 -60.7734375 107.28613281 C-50.9221784 104.26842132 -50.9221784 104.26842132 -43 98 C-41.5829601 95.29991114 -41.5829601 95.29991114 -40.44140625 92.23876953 C-39.97992188 91.07459503 -39.5184375 89.91042053 -39.04296875 88.71096802 C-38.54930494 87.43498357 -38.05582067 86.15892965 -37.5625 84.8828125 C-37.03739598 83.54755365 -36.51133437 82.21267104 -35.984375 80.87814331 C-34.59229191 77.34551681 -33.21264804 73.80816196 -31.83575439 70.26959229 C-30.4793658 66.78902368 -29.11256863 63.31255578 -27.74609375 59.8359375 C-27.20478922 58.45792367 -26.66352948 57.07989225 -26.12231445 55.70184326 C-25.85456207 55.02009789 -25.58680969 54.33835251 -25.3109436 53.63594818 C-24.22934771 50.88090695 -23.14900409 48.12537548 -22.06871033 45.36982346 C-20.98751686 42.61241186 -19.90551952 39.85531612 -18.82336426 37.09828186 C-18.26766411 35.68212185 -17.71225094 34.2658492 -17.15710449 32.84947205 C-15.49916285 28.62019014 -13.83505831 24.39343479 -12.16186523 20.1701622 C-11.64258082 18.85656688 -11.1254443 17.54212016 -10.6105957 16.22677994 C-9.89978859 14.41178404 -9.18054999 12.60009699 -8.4609375 10.78857422 C-8.05665527 9.76351776 -7.65237305 8.7384613 -7.23583984 7.68234253 C-6.04824935 5.10472335 -4.89828172 3.10500919 -3 1 C-2.01 0.67 -1.02 0.34 0 0 Z M-7 45 C-11.34127667 55.64536461 -15.5570736 66.32488809 -19.5 77.125 C-19.84998047 78.07842285 -20.19996094 79.0318457 -20.56054688 80.01416016 C-20.88087891 80.89894043 -21.20121094 81.7837207 -21.53125 82.6953125 C-21.95760742 83.8711792 -21.95760742 83.8711792 -22.39257812 85.07080078 C-23.10010749 86.98085167 -23.10010749 86.98085167 -23 89 C-17.97749546 87.56057651 -13.95416087 85.35917747 -9.5625 82.625 C-8.29341666 81.84562435 -7.02388714 81.06697474 -5.75390625 80.2890625 C-5.13789551 79.91040039 -4.52188477 79.53173828 -3.88720703 79.14160156 C-0.95733728 77.36927673 2.01902953 75.68472912 5 74 C3.73913602 70.1008689 2.46457502 66.20634872 1.1875 62.3125 C0.83107422 61.20970703 0.47464844 60.10691406 0.10742188 58.97070312 C-0.24384766 57.90400391 -0.59511719 56.83730469 -0.95703125 55.73828125 C-1.43619995 54.26935425 -1.43619995 54.26935425 -1.92504883 52.77075195 C-3.02238406 49.94230374 -4.31254064 47.51841178 -6 45 C-6.33 45 -6.66 45 -7 45 Z " fill="#F98B00" transform="translate(144,3)"/>
<path d="M0 0 C-0.33 0.66 -0.66 1.32 -1 2 C-3.12393804 2.60394973 -5.27615227 3.11034511 -7.4375 3.5625 C-11.84685844 4.41161711 -11.84685844 4.41161711 -16 6 C-16 6.66 -16 7.32 -16 8 C-15.01 8.495 -15.01 8.495 -14 9 C-13.18359375 10.890625 -13.18359375 10.890625 -12.4375 13.25 C-12.1796875 14.05953125 -11.921875 14.8690625 -11.65625 15.703125 C-11 18 -11 18 -10.4375 21 C-10.2209375 21.99 -10.2209375 21.99 -10 23 C-9.34 23.33 -8.68 23.66 -8 24 C-7.31762695 25.66210937 -7.31762695 25.66210937 -6.67578125 27.84375 C-4.87289647 33.55872522 -2.56702158 39.00435229 -0.1875 44.5 C0.4322168 45.97146484 0.4322168 45.97146484 1.06445312 47.47265625 C6.55587994 60.36965653 6.55587994 60.36965653 17 69 C20.15759048 69.63479446 23.29068566 70.12237047 26.48828125 70.5078125 C27.31714844 70.67023438 28.14601562 70.83265625 29 71 C29.33 71.66 29.66 72.32 30 73 C29.67 73.66 29.34 74.32 29 75 C21.95280007 75.19365491 14.9053257 75.37104918 7.85742188 75.53710938 C5.45954104 75.59553094 3.0617481 75.6576834 0.6640625 75.72363281 C-2.78108723 75.817747 -6.22632956 75.89846749 -9.671875 75.9765625 C-10.74491882 76.00875885 -11.81796265 76.0409552 -12.92352295 76.0741272 C-13.92425842 76.09429901 -14.9249939 76.11447083 -15.95605469 76.13525391 C-17.27509796 76.16856308 -17.27509796 76.16856308 -18.62078857 76.20254517 C-21.19313544 75.98355814 -22.79106186 75.30005089 -25 74 C-25 73.01 -25 72.02 -25 71 C-23.68 70.34 -22.36 69.68 -21 69 C-21.60962482 64.49965944 -22.7668008 60.58514477 -24.3984375 56.3515625 C-24.63406403 55.73534027 -24.86969055 55.11911804 -25.11245728 54.48422241 C-25.86137254 52.52907705 -26.61797657 50.57701827 -27.375 48.625 C-27.87552431 47.32311812 -28.37552877 46.02103626 -28.875 44.71875 C-29.82891154 42.23311145 -30.78557834 39.74859844 -31.74389648 37.26464844 C-33.18547421 33.5179473 -34.5990499 29.76205292 -36 26 C-36.31324219 25.1646875 -36.62648438 24.329375 -36.94921875 23.46875 C-37.97460938 20.734375 -37.97460938 20.734375 -39 18 C-42.12290635 18.48578543 -44.99580359 18.9986012 -48 20 C-48 20.66 -48 21.32 -48 22 C-49.3303125 22.6496875 -49.3303125 22.6496875 -50.6875 23.3125 C-56.186 25.7391236 -56.186 25.7391236 -60 30 C-61.63671875 30.9296875 -61.63671875 30.9296875 -63.6875 31.875 C-66.4044439 33.17249924 -68.90396632 34.5294284 -71.375 36.25 C-74 38 -74 38 -76 38 C-76.495 38.99 -76.495 38.99 -77 40 C-79.30151894 41.12311797 -81.57586626 42.14664231 -83.9375 43.125 C-84.58396484 43.40214844 -85.23042969 43.67929688 -85.89648438 43.96484375 C-90.72371459 46 -90.72371459 46 -93 46 C-96.76741638 57.32911922 -96.76741638 57.32911922 -96 69 C-92.37 69.66 -88.74 70.32 -85 71 C-85 72.32 -85 73.64 -85 75 C-102.16 75 -119.32 75 -137 75 C-137.33 73.68 -137.66 72.36 -138 71 C-133.05 70.01 -128.1 69.02 -123 68 C-123 67.34 -123 66.68 -123 66 C-122.34 66 -121.68 66 -121 66 C-120.67 65.34 -120.34 64.68 -120 64 C-119.34 64 -118.68 64 -118 64 C-117.34 62.02 -116.68 60.04 -116 58 C-115.34 58 -114.68 58 -114 58 C-113.34 55.69 -112.68 53.38 -112 51 C-117.28 50.67 -122.56 50.34 -128 50 C-127.67 49.34 -127.34 48.68 -127 48 C-124.24110793 47.40796307 -121.53570529 46.91900691 -118.75 46.5 C-113.89189622 45.75448998 -109.52934349 44.99385311 -105 43 C-103.40064446 42.52515056 -101.79628969 42.06683239 -100.1875 41.625 C-95.451125 40.24444226 -91.37259972 38.264382 -87 36 C-86.34 36 -85.68 36 -85 36 C-84.505 35.01 -84.505 35.01 -84 34 C-82.07648507 32.75689259 -80.11099421 31.57813696 -78.125 30.4375 C-77.05507812 29.81746094 -75.98515625 29.19742188 -74.8828125 28.55859375 C-72 27 -72 27 -69 26 C-69 25.34 -69 24.68 -69 24 C-68.35675781 23.6596875 -67.71351563 23.319375 -67.05078125 22.96875 C-60.40828939 19.40587277 -54.01177801 15.5770386 -47.65234375 11.5390625 C-45 10 -45 10 -43 10 C-42.67 9.34 -42.34 8.68 -42 8 C-28.48618436 1.24480757 -14.92501079 -1.25390989 0 0 Z " fill="#F88A00" transform="translate(198,87)"/>
<path d="M0 0 C2 1 2 1 2 1 Z " fill="#A85D08" transform="translate(101,116)"/>
<path d="M0 0 C2 1 2 1 2 1 Z " fill="#8E4F0A" transform="translate(11,116)"/>
<path d="" fill="#8E4F0A" transform="translate(0,0)"/>
<path d="M0 0 C2 1 2 1 2 1 Z " fill="#B76507" transform="translate(165,89)"/>
<path d="M0 0 C2 1 2 1 2 1 Z " fill="#8E4F0A" transform="translate(181,75)"/>
<path d="" fill="#BC6806" transform="translate(0,0)"/>
<path d="M0 0 C2 1 2 1 2 1 Z " fill="#8E4F0A" transform="translate(191,58)"/>
<path d="" fill="#9B550A" transform="translate(0,0)"/>
<path d="" fill="#8E4F0A" transform="translate(0,0)"/>
<path d="" fill="#8E4F0A" transform="translate(0,0)"/>
<path d="" fill="#8E4F0A" transform="translate(0,0)"/>
<path d="" fill="#9B550A" transform="translate(0,0)"/>
<path d="" fill="#9B550A" transform="translate(0,0)"/>
<path d="" fill="#8E4F0A" transform="translate(0,0)"/>
<path d="" fill="#8E4F0A" transform="translate(0,0)"/>
<path d="" fill="#8E4F0A" transform="translate(0,0)"/>
<path d="" fill="#9B550A" transform="translate(0,0)"/>
<path d="" fill="#9B550A" transform="translate(0,0)"/>
<path d="" fill="#AC5F08" transform="translate(0,0)"/>
<path d="" fill="#AC5F08" transform="translate(0,0)"/>
<path d="" fill="#8E4F0A" transform="translate(0,0)"/>
<path d="" fill="#AC5F08" transform="translate(0,0)"/>
<path d="" fill="#9B550A" transform="translate(0,0)"/>
<path d="" fill="#8E4F0A" transform="translate(0,0)"/>
<path d="" fill="#8E4F0A" transform="translate(0,0)"/>
<path d="" fill="#8E4F0A" transform="translate(0,0)"/>
<path d="" fill="#8E4F0A" transform="translate(0,0)"/>
<path d="" fill="#8E4F0A" transform="translate(0,0)"/>
<path d="" fill="#9B550A" transform="translate(0,0)"/>
<path d="" fill="#9B550A" transform="translate(0,0)"/>
<path d="" fill="#8E4F0A" transform="translate(0,0)"/>
<path d="" fill="#8E4F0A" transform="translate(0,0)"/>
<path d="" fill="#9B550A" transform="translate(0,0)"/>
<path d="" fill="#C36C06" transform="translate(0,0)"/>
<path d="" fill="#AC5F08" transform="translate(0,0)"/>
<path d="" fill="#AC5F08" transform="translate(0,0)"/>
<path d="" fill="#9B550A" transform="translate(0,0)"/>
<path d="" fill="#9B550A" transform="translate(0,0)"/>
<path d="" fill="#8E4F0A" transform="translate(0,0)"/>
<path d="" fill="#8E4F0A" transform="translate(0,0)"/>
<path d="" fill="#9B550A" transform="translate(0,0)"/>
<path d="" fill="#AC5F08" transform="translate(0,0)"/>
<path d="" fill="#FB8C00" transform="translate(0,0)"/>
<path d="" fill="#8E4F0A" transform="translate(0,0)"/>
<path d="" fill="#9B550A" transform="translate(0,0)"/>
<path d="" fill="#AC5F08" transform="translate(0,0)"/>
<path d="" fill="#8E4F0A" transform="translate(0,0)"/>
<path d="" fill="#8E4F0A" transform="translate(0,0)"/>
<path d="" fill="#9B550A" transform="translate(0,0)"/>
<path d="" fill="#C36C06" transform="translate(0,0)"/>
<path d="" fill="#FB8C00" transform="translate(0,0)"/>
<path d="" fill="#9B550A" transform="translate(0,0)"/>
<path d="" fill="#8E4F0A" transform="translate(0,0)"/>
<path d="" fill="#8E4F0A" transform="translate(0,0)"/>
<path d="" fill="#9B550A" transform="translate(0,0)"/>
<path d="" fill="#9B550A" transform="translate(0,0)"/>
<path d="" fill="#9B550A" transform="translate(0,0)"/>
<path d="" fill="#8E4F0A" transform="translate(0,0)"/>
<path d="" fill="#8E4F0A" transform="translate(0,0)"/>
</svg>
