<?xml version="1.0" encoding="UTF-8"?>
<svg version="1.1" xmlns="http://www.w3.org/2000/svg" width="586" height="453">
<path d="M0 0 C193.38 0 386.76 0 586 0 C586 149.49 586 298.98 586 453 C392.62 453 199.24 453 0 453 C0 303.51 0 154.02 0 0 Z " fill="#4B4A49" transform="translate(0,0)"/>
<path d="M0 0 C193.38 0 386.76 0 586 0 C586 18.15 586 36.3 586 55 C392.62 55 199.24 55 0 55 C0 36.85 0 18.7 0 0 Z " fill="#535250" transform="translate(0,0)"/>
<path d="M0 0 C193.38 0 386.76 0 586 0 C586 18.81 586 37.62 586 57 C539.91738397 57.02258615 493.83476927 57.04049867 447.75214881 57.05106533 C442.31702498 57.0523161 436.88190116 57.05361042 431.44677734 57.05493164 C429.82366045 57.05532511 429.82366045 57.05532511 428.16775332 57.05572652 C410.62541645 57.06008297 393.08308283 57.06797038 375.5407479 57.0771528 C357.55320105 57.08649003 339.56565593 57.09205576 321.57810676 57.09408849 C310.47049494 57.09546358 299.36289233 57.09981337 288.25528334 57.10791647 C280.64803397 57.11318478 273.0407894 57.1148041 265.43353833 57.11350138 C261.03845592 57.11285813 256.64338966 57.113874 252.24831009 57.11920547 C248.23031188 57.12404419 244.21234082 57.1243355 240.19434141 57.12089889 C238.73536472 57.12047367 237.2763864 57.12176543 235.81741299 57.12488318 C233.84480717 57.1288558 231.87219119 57.12615269 229.89958382 57.12304783 C228.80067318 57.12342755 227.70176255 57.12380727 226.56955159 57.1241985 C224 57 224 57 222 56 C222 55.34 222 54.68 222 54 C221.01 53.67 220.02 53.34 219 53 C218.01 52.34 217.02 51.68 216 51 C213.67612053 50.60612212 211.34206251 50.26513915 209 50 C210.32 49.67 211.64 49.34 213 49 C213 48.34 213 47.68 213 47 C142.71 47 72.42 47 0 47 C0 31.49 0 15.98 0 0 Z " fill="#504F4E" transform="translate(0,157)"/>
<path d="M0 0 C1.09825953 -0.00001007 2.19651907 -0.00002014 3.3280592 -0.00003052 C96.69994237 0.00082582 190.06817283 0.46364199 283.4375 1.125 C283.4375 16.635 283.4375 32.145 283.4375 48.125 C258.47923364 48.302686 233.52091269 48.46922683 208.5625 48.625 C207.61170909 48.63094854 206.66091818 48.63689708 205.68131542 48.64302588 C137.64144659 49.06774257 69.60363354 49.21490095 1.5625 49.1875 C0.47741559 49.18707577 -0.60766882 49.18665154 -1.72563457 49.18621445 C-29.3379318 49.17523383 -56.95021728 49.15532146 -84.5625 49.125 C-84.5625 48.465 -84.5625 47.805 -84.5625 47.125 C-97.7625 47.125 -110.9625 47.125 -124.5625 47.125 C-124.5625 46.795 -124.5625 46.465 -124.5625 46.125 C-112.3525 45.795 -100.1425 45.465 -87.5625 45.125 C-89.5425 42.65 -89.5425 42.65 -91.5625 40.125 C-91.2325 39.465 -90.9025 38.805 -90.5625 38.125 C-91.5525 38.125 -92.5425 38.125 -93.5625 38.125 C-93.8925 36.805 -94.2225 35.485 -94.5625 34.125 C-95.51616455 34.13547363 -96.4698291 34.14594727 -97.45239258 34.15673828 C-100.99141688 34.19294501 -104.5304248 34.21590284 -108.06958008 34.23486328 C-109.60118361 34.24491935 -111.13276795 34.258566 -112.66430664 34.27587891 C-114.86609636 34.30014498 -117.06763219 34.31148688 -119.26953125 34.3203125 C-119.95400833 34.33063507 -120.63848541 34.34095764 -121.34370422 34.35159302 C-124.99311661 34.35245382 -126.43398502 34.21067666 -129.5625 32.125 C-128.5725 32.125 -127.5825 32.125 -126.5625 32.125 C-126.5625 31.465 -126.5625 30.805 -126.5625 30.125 C-184.6425 30.125 -242.7225 30.125 -302.5625 30.125 C-302.5625 20.555 -302.5625 10.985 -302.5625 1.125 C-201.70883633 0.48362322 -100.85591679 -0.00092497 0 0 Z " fill="#494846" transform="translate(302.5625,53.875)"/>
<path d="M0 0 C54.78 0 109.56 0 166 0 C166 0.99 166 1.98 166 3 C166.66 3 167.32 3 168 3 C168 3.66 168 4.32 168 5 C168.57684099 5.00423194 169.15368198 5.00846388 169.74800301 5.01282406 C183.79512642 5.11620726 197.84220089 5.22485635 211.88923836 5.33933926 C218.68232668 5.39457621 225.47542026 5.4480423 232.26855469 5.49731445 C238.82379758 5.54486612 245.37898975 5.59738593 251.93416977 5.65294075 C254.43559355 5.67332715 256.93703148 5.69204631 259.43848038 5.70907402 C262.94097257 5.73320022 266.44336762 5.76324369 269.94580078 5.79467773 C270.98086258 5.8004332 272.01592438 5.80618866 273.08235168 5.81211853 C277.82850257 5.86056161 282.33357176 6.01549558 287 7 C287 7.33 287 7.66 287 8 C385.67 8.33 484.34 8.66 586 9 C586 16.92 586 24.84 586 33 C392.62 33 199.24 33 0 33 C0 22.11 0 11.22 0 0 Z " fill="#5D5D5C" transform="translate(0,420)"/>
<path d="M0 0 C1.61906281 -0.00001511 1.61906281 -0.00001511 3.27083397 -0.00003052 C91.97451782 0.00079741 180.67410958 0.44632321 269.375 1.125 C269.375 9.375 269.375 17.625 269.375 26.125 C223.2923842 26.14779132 177.20976914 26.16549867 131.12714881 26.17606533 C125.69202498 26.1773161 120.25690116 26.17861042 114.82177734 26.17993164 C113.19866045 26.18032511 113.19866045 26.18032511 111.54275332 26.18072652 C94.00041645 26.18508297 76.45808283 26.19297038 58.9157479 26.2021528 C40.92820105 26.21149003 22.94065593 26.21705576 4.95310676 26.21908849 C-6.15450506 26.22046358 -17.26210767 26.22481337 -28.36971666 26.23291647 C-35.97696603 26.23818478 -43.5842106 26.2398041 -51.19146167 26.23850138 C-55.58654408 26.23785813 -59.98161034 26.238874 -64.37668991 26.24420547 C-68.39468812 26.24904419 -72.41265918 26.2493355 -76.43065859 26.24589889 C-77.88963528 26.24547367 -79.3486136 26.24676543 -80.80758701 26.24988318 C-82.78019283 26.2538558 -84.75280881 26.25115269 -86.72541618 26.24804783 C-87.82432682 26.24842755 -88.92323745 26.24880727 -90.05544841 26.2491985 C-92.625 26.125 -92.625 26.125 -94.625 25.125 C-94.625 24.465 -94.625 23.805 -94.625 23.125 C-95.615 22.795 -96.605 22.465 -97.625 22.125 C-98.615 21.465 -99.605 20.805 -100.625 20.125 C-102.94887947 19.73112212 -105.28293749 19.39013915 -107.625 19.125 C-105.645 18.63 -105.645 18.63 -103.625 18.125 C-103.625 17.465 -103.625 16.805 -103.625 16.125 C-173.915 16.125 -244.205 16.125 -316.625 16.125 C-316.625 11.175 -316.625 6.225 -316.625 1.125 C-211.08388827 0.51059348 -105.54313079 -0.00098513 0 0 Z " fill="#454443" transform="translate(316.625,187.875)"/>
<path d="M0 0 C25.43431395 -0.06944347 50.86860507 -0.12298214 76.30299473 -0.15543652 C88.11259246 -0.1709061 99.92213022 -0.19199744 111.73168945 -0.22631836 C122.02476715 -0.25621783 132.31780141 -0.27557434 142.61092132 -0.28226548 C148.06116516 -0.28617679 153.51128471 -0.29537097 158.96148872 -0.31719017 C164.09222651 -0.33756387 169.22278891 -0.34383196 174.35356331 -0.33932304 C176.23571221 -0.34014784 178.11786703 -0.34610818 179.99998093 -0.35761642 C182.57263535 -0.37257438 185.14463026 -0.36894164 187.71730042 -0.36076355 C188.45953639 -0.36950207 189.20177237 -0.3782406 189.96650034 -0.38724393 C195.92805591 -0.33613138 199.76761506 1.38380753 205 4 C205 4.99 205 5.98 205 7 C205.92465718 6.99484627 206.84931437 6.98969254 207.80199146 6.98438263 C238.30545162 6.81466796 268.80895741 6.65417028 299.3125 6.5 C300.48742728 6.49405146 301.66235456 6.48810292 302.8728857 6.48197412 C373.12382265 6.12687839 443.37313128 5.90455104 513.625 5.9375 C515.02362487 5.93813635 515.02362487 5.93813635 516.45050478 5.93878555 C539.63368147 5.94951909 562.81684116 5.96928304 586 6 C586 11.61 586 17.22 586 23 C392.62 23 199.24 23 0 23 C0 15.41 0 7.82 0 0 Z " fill="#545453" transform="translate(0,348)"/>
<path d="M0 0 C68.97 0 137.94 0 209 0 C209 0.33 209 0.66 209 1 C210.0725 1.12375 211.145 1.2475 212.25 1.375 C216 2 216 2 217.94762325 3.02207851 C220.33291131 4.15862639 221.95483749 4.25774264 224.58802795 4.27174377 C225.51341212 4.28145989 226.43879629 4.29117601 227.3922224 4.30118656 C228.91715801 4.30207358 228.91715801 4.30207358 230.47290039 4.30297852 C231.56002728 4.31143767 232.64715418 4.31989683 233.76722431 4.32861233 C237.4607069 4.35485052 241.15410217 4.36678091 244.84765625 4.37890625 C247.53961044 4.39492713 250.23154989 4.41172462 252.92349243 4.42944336 C259.60715631 4.47159579 266.29083261 4.50295982 272.97456837 4.53112519 C280.90277468 4.5650139 288.83090534 4.61021676 296.7590524 4.65565574 C314.90452857 4.75904631 333.05007327 4.84472995 351.1956535 4.92745584 C352.20515889 4.93205948 353.21466428 4.93666311 354.25476074 4.94140625 C355.27812623 4.94607141 356.30149172 4.95073657 357.35586828 4.9555431 C368.82201109 5.0080098 380.28813936 5.06345142 391.75426805 5.1189059 C456.50276244 5.4319596 521.25133803 5.72389982 586 6 C586 12.6 586 19.2 586 26 C498.2068963 26.11823572 410.41482968 26.05897037 322.62240767 25.66698426 C314.97559946 25.63328198 307.32878249 25.60477167 299.6819458 25.57839966 C290.32446061 25.54597517 280.96703981 25.50635025 271.60962635 25.45731026 C266.80336427 25.4322536 261.99714127 25.41031126 257.19083214 25.39663887 C252.77680012 25.38392419 248.3629145 25.36200664 243.94896293 25.33261287 C242.34371111 25.32353481 240.73843603 25.31785001 239.13315988 25.31578743 C236.95817794 25.31248265 234.78361577 25.29706956 232.60871887 25.2784729 C231.39646543 25.27294214 230.18421198 25.26741138 228.93522358 25.26171303 C226 25 226 25 223 23 C223 22.34 223 21.68 223 21 C222.175 20.175 221.35 19.35 220.5 18.5 C219.675 17.675 218.85 16.85 218 16 C218 15.34 218 14.68 218 14 C208.1 14 198.2 14 188 14 C188 13.67 188 13.34 188 13 C194.27 12.67 200.54 12.34 207 12 C207 11.67 207 11.34 207 11 C138.69 10.67 70.38 10.34 0 10 C0 6.7 0 3.4 0 0 Z " fill="#464645" transform="translate(0,265)"/>
<path d="M0 0 C1.41008646 -0.00001511 1.41008646 -0.00001511 2.84865952 -0.00003052 C88.31756425 0.00088553 173.78367266 0.49507435 259.25 1.125 C259.25 6.735 259.25 12.345 259.25 18.125 C235.12508933 18.30533631 211.00008926 18.47043773 186.875 18.625 C185.48600534 18.63392281 185.48600534 18.63392281 184.06895018 18.64302588 C113.56662358 19.09478286 43.06617013 19.21356117 -27.4375 19.1875 C-28.61943656 19.18707577 -29.80137312 19.18665154 -31.01912594 19.18621445 C-61.26275851 19.17517414 -91.50638051 19.15514994 -121.75 19.125 C-121.75 18.135 -121.75 17.145 -121.75 16.125 C-124.72 15.795 -127.69 15.465 -130.75 15.125 C-130.75 14.465 -130.75 13.805 -130.75 13.125 C-195.43 12.795 -260.11 12.465 -326.75 12.125 C-326.75 8.495 -326.75 4.865 -326.75 1.125 C-110.62753129 0.01880383 -110.62753129 0.01880383 0 0 Z " fill="#383836" transform="translate(326.75,335.875)"/>
<path d="M0 0 C100.29283434 -0.12015485 200.58309542 -0.0385696 300.875 0.4375 C302.03027506 0.44297317 303.18555012 0.44844633 304.37583351 0.45408535 C339.91729303 0.62274587 375.45866121 0.80771358 411 1 C413.25020345 1.01215208 415.5004069 1.02430316 417.75061035 1.03645325 C473.83384703 1.33951616 529.91697614 1.65984406 586 2 C586 7.28 586 12.56 586 18 C447.07 18 308.14 18 165 18 C165 17.67 165 17.34 165 17 C203.28 16.67 241.56 16.34 281 16 C244.55985543 15.71060737 244.55985543 15.71060737 208.11962891 15.43188477 C201.08276367 15.3729248 201.08276367 15.3729248 197.7918396 15.34410095 C195.48610853 15.32483966 193.18036069 15.30752725 190.87460327 15.29173279 C187.38851538 15.26747886 183.90253019 15.23710285 180.41650391 15.20532227 C179.38381189 15.19955201 178.35111988 15.19378176 177.28713417 15.18783665 C176.35236433 15.17806262 175.41759449 15.16828859 174.45449829 15.15821838 C173.63778971 15.15176583 172.82108112 15.14531328 171.97962379 15.1386652 C170 15 170 15 168 14 C168 13.34 168 12.68 168 12 C167.34 12 166.68 12 166 12 C166 11.01 166 10.02 166 9 C111.22 9 56.44 9 0 9 C0 6.03 0 3.06 0 0 Z " fill="#464644" transform="translate(0,411)"/>
<path d="M0 0 C20.94585044 -0.02423739 41.89169778 -0.0413941 62.8375597 -0.05181217 C72.58092044 -0.05679534 82.32427206 -0.06348545 92.06762695 -0.07543945 C142.20424118 -0.13556349 192.33468472 0.06893273 242.46956283 0.48591083 C289.10843447 0.87377933 335.74651418 1.15044743 382.38671875 1.31640625 C383.14509247 1.31911753 383.90346618 1.32182881 384.68482092 1.32462224 C402.96207735 1.38996211 421.23934598 1.45124477 439.51662455 1.51004242 C451.29404669 1.54793079 463.07146339 1.58721849 474.84887695 1.62768555 C475.64185795 1.63040982 476.43483895 1.63313409 477.25184967 1.63594092 C481.23598437 1.64963547 485.22011898 1.66335274 489.20425355 1.67708123 C521.46949108 1.78823187 553.73474018 1.89551454 586 2 C586 8.27 586 14.54 586 21 C561.04174379 21.17876698 536.08341023 21.34422685 511.125 21.5 C510.17420909 21.50594854 509.22341818 21.51189708 508.24381542 21.51802588 C440.20394659 21.94274257 372.16613354 22.08990095 304.125 22.0625 C303.03991559 22.06207577 301.95483118 22.06165154 300.83686543 22.06121445 C273.2245682 22.05023383 245.61228272 22.03032146 218 22 C218 21.34 218 20.68 218 20 C204.8 20 191.6 20 178 20 C178 19.67 178 19.34 178 19 C190.21 18.67 202.42 18.34 215 18 C213.02 15.525 213.02 15.525 211 13 C211.33 12.34 211.66 11.68 212 11 C211.01 11 210.02 11 209 11 C208.67 9.68 208.34 8.36 208 7 C207.04633545 7.01047363 206.0926709 7.02094727 205.11010742 7.03173828 C201.57108312 7.06794501 198.0320752 7.09090284 194.49291992 7.10986328 C192.96131639 7.11991935 191.42973205 7.133566 189.89819336 7.15087891 C187.69640364 7.17514498 185.49486781 7.18648688 183.29296875 7.1953125 C182.60849167 7.20563507 181.92401459 7.21595764 181.21879578 7.22659302 C177.56938339 7.22745382 176.12851498 7.08567666 173 5 C173.99 5 174.98 5 176 5 C176 4.34 176 3.68 176 3 C117.92 3 59.84 3 0 3 C0 2.01 0 1.02 0 0 Z " fill="#3C3B39" transform="translate(0,81)"/>
<path d="M0 0 C76.23 0 152.46 0 231 0 C231 1.32 231 2.64 231 4 C348.15 4 465.3 4 586 4 C586 8.29 586 12.58 586 17 C392.62 17 199.24 17 0 17 C0 11.39 0 5.78 0 0 Z " fill="#4F4F4E" transform="translate(0,172)"/>
<path d="M0 0 C64.35 0 128.7 0 195 0 C195 0.66 195 1.32 195 2 C196.98 2 198.96 2 201 2 C201 2.66 201 3.32 201 4 C328.05 4 455.1 4 586 4 C586 8.29 586 12.58 586 17 C492.00002168 17.12194105 398.00294364 17.02267289 304.00390625 16.5625 C302.32411931 16.55429025 302.32411931 16.55429025 300.61039728 16.54591465 C272.1879951 16.40681764 243.76563717 16.25959248 215.34329259 16.10923576 C198.89057437 16.02227979 182.43784521 15.93766022 165.98510742 15.85449219 C164.80342885 15.8485182 163.62175028 15.84254421 162.40426327 15.83638918 C156.46817116 15.80639066 150.53207887 15.77642868 144.59598649 15.74648476 C96.39729456 15.503306 48.19863668 15.25387772 0 15 C0 10.05 0 5.1 0 0 Z " fill="#4A4948" transform="translate(0,396)"/>
<path d="M0 0 C58.08 0 116.16 0 176 0 C176 0.99 176 1.98 176 3 C191.84 3.495 191.84 3.495 208 4 C208.33 5.32 208.66 6.64 209 8 C209.99 8 210.98 8 212 8 C212 8.66 212 9.32 212 10 C212.99 10.66 213.98 11.32 215 12 C218 16.44444444 218 16.44444444 218 19 C218.83943209 18.99484627 219.67886417 18.98969254 220.5437336 18.98438263 C248.40410453 18.81383047 276.26452932 18.65338026 304.125 18.5 C305.74267163 18.49107719 305.74267163 18.49107719 307.39302349 18.48197412 C375.30396439 18.10806301 443.2130186 17.90647909 511.125 17.9375 C512.08212544 17.93792423 513.03925089 17.93834846 514.02538013 17.93878555 C538.01693099 17.94960494 562.00846614 17.96954074 586 18 C586 22.62 586 27.24 586 32 C539.69669747 32.19584821 493.39335951 32.37636366 447.08991493 32.53537826 C441.6273257 32.55415138 436.16473693 32.57305567 430.70214844 32.59204102 C429.6146139 32.59581856 428.52707937 32.59959611 427.40658924 32.60348812 C409.78150167 32.66502182 392.15647279 32.7371889 374.53144267 32.8132638 C356.45577741 32.8910479 338.38009637 32.95745575 320.30434966 33.01323253 C309.1444785 33.04802951 297.98471522 33.09177259 286.82492539 33.14684484 C279.17936966 33.18372599 271.53382692 33.20958873 263.8882015 33.22667392 C259.47254671 33.23687023 255.05705144 33.25203244 250.64147186 33.28024101 C246.60236373 33.30593764 242.56346242 33.31785974 238.5242748 33.31862888 C237.05986013 33.32137468 235.59544463 33.32926161 234.131089 33.34269472 C232.14643767 33.36016335 230.16163865 33.35739898 228.17691422 33.35352612 C226.52057413 33.3597915 226.52057413 33.3597915 224.83077264 33.36618346 C221.68106996 32.95874381 220.31451516 32.11942611 218 30 C218.99 30 219.98 30 221 30 C221 29.34 221 28.68 221 28 C220.34 28 219.68 28 219 28 C219 27.34 219 26.68 219 26 C217.35 25.67 215.7 25.34 214 25 C214.99 24.505 214.99 24.505 216 24 C215.67 22.68 215.34 21.36 215 20 C213.95545654 20.00523682 212.91091309 20.01047363 211.8347168 20.01586914 C207.96021379 20.03396598 204.08571452 20.04544918 200.21118164 20.05493164 C198.53409192 20.05996113 196.85700658 20.06678548 195.17993164 20.07543945 C192.769683 20.08756559 190.35949232 20.09324215 187.94921875 20.09765625 C187.19912033 20.10281754 186.44902191 20.10797882 185.67619324 20.11329651 C182.51048768 20.11363785 180.02662028 20.00887343 177 19 C177 18.34 177 17.68 177 17 C176.34 17 175.68 17 175 17 C175 16.34 175 15.68 175 15 C174.01 14.67 173.02 14.34 172 14 C172.99 14 173.98 14 175 14 C175 13.34 175 12.68 175 12 C117.25 12 59.5 12 0 12 C0 8.04 0 4.08 0 0 Z " fill="#403F3D" transform="translate(0,84)"/>
<path d="M0 0 C97.85536699 -0.12531607 195.70799068 -0.00979808 293.5625 0.4375 C294.76206676 0.44297317 295.96163351 0.44844633 297.19755077 0.45408535 C393.46541145 0.89401963 489.7328656 1.42359393 586 2 C586 5.96 586 9.92 586 14 C392.62 14 199.24 14 0 14 C0 9.38 0 4.76 0 0 Z " fill="#4B4B4A" transform="translate(0,439)"/>
<path d="M0 0 C70.29 0 140.58 0 213 0 C213 0.66 213 1.32 213 2 C213.56589844 2.17015625 214.13179687 2.3403125 214.71484375 2.515625 C215.44832031 2.75796875 216.18179688 3.0003125 216.9375 3.25 C217.66839844 3.48203125 218.39929688 3.7140625 219.15234375 3.953125 C219.76207031 4.29859375 220.37179688 4.6440625 221 5 C221.33 6.32 221.66 7.64 222 9 C342.12 9.33 462.24 9.66 586 10 C586 13.63 586 17.26 586 21 C564.52121557 21.0233335 543.04243321 21.0409814 521.56363869 21.05181217 C511.59124961 21.05697417 501.6188684 21.06401504 491.64648438 21.07543945 C482.9571944 21.08538923 474.26791011 21.09185413 465.57861459 21.09408849 C460.97533169 21.0953951 456.37206508 21.09847781 451.76878738 21.10573006 C447.44000334 21.11249488 443.11124237 21.11461601 438.78245354 21.11310768 C437.19008573 21.1133838 435.59771718 21.11538619 434.00535393 21.11920547 C431.83838956 21.12414993 429.67151335 21.12299548 427.50454712 21.12025452 C426.28962397 21.12117631 425.07470081 21.1220981 423.82296181 21.12304783 C421 21 421 21 419 20 C419 19.34 419 18.68 419 18 C417.54997841 18.00138269 417.54997841 18.00138269 416.07066345 18.00279331 C392.54273708 18.02499873 369.01481208 18.04142856 345.48687744 18.05181217 C334.10892362 18.05696715 322.73097672 18.06399466 311.35302734 18.07543945 C301.43533034 18.08541065 291.51763836 18.09185924 281.59993649 18.09408849 C276.3492413 18.09539145 271.09856046 18.09845113 265.84786987 18.10573006 C260.903486 18.11252868 255.95912237 18.11460913 251.01473427 18.11310768 C249.20235395 18.11338228 247.38997294 18.11536457 245.57759666 18.11920547 C243.09744216 18.12420277 240.6173634 18.12297611 238.13720703 18.12025452 C237.06907729 18.12462378 237.06907729 18.12462378 235.97936916 18.12908131 C231.2310647 18.11506048 226.69151135 17.66176275 222 17 C221.67 15.68 221.34 14.36 221 13 C148.07 13 75.14 13 0 13 C0 8.71 0 4.42 0 0 Z " fill="#4A4A49" transform="translate(0,204)"/>
<path d="M0 0 C193.38 0 386.76 0 586 0 C586 2.97 586 5.94 586 9 C497.16596074 9.71457262 408.33207686 10.08719131 285.5621866 10.12501526 C283.43736895 10.125 281.3125513 10.12501526 279.18773365 10.12503052 C194.29389527 10.12490964 109.40294977 9.92992369 0 9 C0 6.03 0 3.06 0 0 Z " fill="#4D4C4B" transform="translate(0,371)"/>
<path d="M0 0 C193.38 0 386.76 0 586 0 C586 4.62 586 9.24 586 14 C515.05 14 444.1 14 371 14 C371 13.34 371 12.68 371 12 C369.02 12 367.04 12 365 12 C365 11.34 365 10.68 365 10 C363.68 10 362.36 10 361 10 C361 9.34 361 8.68 361 8 C360.23204259 8.07193542 359.46408518 8.14387083 358.67285633 8.21798611 C350.19288214 8.94927958 341.81279475 9.10646411 333.30541992 9.02172852 C331.88480451 9.0115547 330.46418557 9.00186455 329.04356384 8.99261475 C325.23035615 8.96644377 321.41723304 8.93360558 317.6040895 8.89946485 C313.60297656 8.86481008 309.6018189 8.8364332 305.60066223 8.80735779 C298.04328894 8.75150299 290.48597163 8.69009583 282.92865878 8.62663645 C274.31670374 8.55459579 265.70470422 8.48883227 257.09269559 8.42356598 C239.39507245 8.2893051 221.69751953 8.14725894 204 8 C203.67 6.68 203.34 5.36 203 4 C202.33566106 4.02978156 201.67132212 4.05956312 200.98685169 4.09024715 C179.29346815 5.02812267 157.63394961 5.13518548 135.92391372 5.10139394 C131.12475851 5.09502953 126.32560226 5.09454648 121.52644348 5.09336853 C112.48924844 5.090293 103.45206589 5.08213202 94.41487628 5.07201904 C84.10484905 5.06073868 73.79482114 5.05531779 63.48478925 5.05032361 C42.32318594 5.03994504 21.16159376 5.02242094 0 5 C0 3.35 0 1.7 0 0 Z " fill="#5D5C5B" transform="translate(0,0)"/>
<path d="M0 0 C72.27 0 144.54 0 219 0 C219 0.33 219 0.66 219 1 C340.11 1 461.22 1 586 1 C586 4.3 586 7.6 586 11 C561.43758054 11.17903213 536.87507695 11.34412421 512.3125 11.5 C510.90982478 11.50892281 510.90982478 11.50892281 509.47881269 11.51802588 C442.92310079 11.94045095 376.36949394 12.09002924 309.8125 12.0625 C308.75601147 12.06207577 307.69952294 12.06165154 306.61101961 12.06121445 C279.74067074 12.05023954 252.87033394 12.03033808 226 12 C225.67 10.68 225.34 9.36 225 8 C224.37234521 8.00111031 223.74469042 8.00222061 223.09801579 8.00336456 C176.74920402 8.08092916 130.40478451 7.86826878 84.05713141 7.55461788 C74.85401419 7.49242599 65.65088092 7.43277209 56.44774616 7.37324238 C37.63181284 7.25148073 18.81589991 7.12681387 0 7 C0 4.69 0 2.38 0 0 Z " fill="#464543" transform="translate(0,125)"/>
<path d="M0 0 C59.73 0 119.46 0 181 0 C181 0.66 181 1.32 181 2 C191.56 2 202.12 2 213 2 C213.33 2.99 213.66 3.98 214 5 C336.76 5.33 459.52 5.66 586 6 C586 7.98 586 9.96 586 12 C392.62 12 199.24 12 0 12 C0 8.04 0 4.08 0 0 Z " fill="#4D4C4B" transform="translate(0,43)"/>
<path d="M0 0 C29.63174898 -0.04559783 59.26349631 -0.08100521 88.89527299 -0.10213066 C92.39136369 -0.10463216 95.88745432 -0.10722079 99.38354492 -0.10986328 C100.07957123 -0.1103879 100.77559754 -0.11091252 101.49271556 -0.11145304 C112.77155507 -0.12016226 124.05037424 -0.13593507 135.32920168 -0.15430559 C146.89715295 -0.17299027 158.4650899 -0.18396392 170.03305596 -0.18817699 C176.53277755 -0.19079002 183.03245298 -0.1969543 189.53215981 -0.21146011 C195.64450401 -0.22499146 201.75678286 -0.22923168 207.86914062 -0.22621536 C210.11740155 -0.22676752 212.36566457 -0.23077133 214.61391258 -0.23841095 C217.67390829 -0.2483026 220.7336544 -0.24599007 223.7936554 -0.24050903 C224.69150782 -0.24633472 225.58936025 -0.2521604 226.51442033 -0.25816262 C227.33202465 -0.25418052 228.14962896 -0.25019842 228.99200916 -0.24609566 C230.05199846 -0.24723482 230.05199846 -0.24723482 231.13340169 -0.24839699 C233 0 233 0 236 2 C236 2.66 236 3.32 236 4 C351.5 4 467 4 586 4 C586 6.31 586 8.62 586 11 C562.91676523 11.18102694 539.83342745 11.34560885 516.75 11.5 C515.86303751 11.50594854 514.97607502 11.51189708 514.06223488 11.51802588 C445.95798897 11.97360531 377.85565499 12.08839436 309.75 12.0625 C308.02640416 12.06186365 308.02640416 12.06186365 306.2679882 12.06121445 C276.84531735 12.0501667 247.42265744 12.03012884 218 12 C218 11.67 218 11.34 218 11 C215.36 10.67 212.72 10.34 210 10 C210.33 9.01 210.66 8.02 211 7 C141.37 7 71.74 7 0 7 C0 4.69 0 2.38 0 0 Z " fill="#323231" transform="translate(0,237)"/>
<path d="M0 0 C26.78997305 -0.04668287 53.57994002 -0.08197061 80.36994553 -0.10362434 C92.80849312 -0.11394496 105.24701548 -0.12802028 117.68554688 -0.15087891 C128.5246505 -0.17078876 139.36373585 -0.18371072 150.20285726 -0.18817699 C155.94416774 -0.19078845 161.68542592 -0.1969428 167.42671967 -0.21146011 C172.82745662 -0.22500603 178.22811959 -0.2292287 183.62887192 -0.22621536 C185.61386644 -0.22676687 187.59886337 -0.23076206 189.58384323 -0.23841095 C192.28879564 -0.24832538 194.99346671 -0.24598169 197.69842529 -0.24050903 C198.48830928 -0.24633472 199.27819326 -0.2521604 200.09201312 -0.25816262 C203.87543025 -0.23739759 206.79284057 -0.13276618 210 2 C210 2.66 210 3.32 210 4 C334.08 4 458.16 4 586 4 C586 6.64 586 9.28 586 12 C456.64 12 327.28 12 194 12 C194 11.67 194 11.34 194 11 C199.94 10.67 205.88 10.34 212 10 C212 9.67 212 9.34 212 9 C201.77 8.67 191.54 8.34 181 8 C181 7.34 181 6.68 181 6 C121.27 6 61.54 6 0 6 C0 4.02 0 2.04 0 0 Z " fill="#5F5E5C" transform="translate(0,37)"/>
<path d="M0 0 C72.93 0 145.86 0 221 0 C221 0.66 221 1.32 221 2 C221.928125 1.95875 222.85625 1.9175 223.8125 1.875 C227 2 227 2 230 4 C232.54778054 4.20078958 234.98739172 4.28525849 237.53593445 4.2784729 C238.31028912 4.2842653 239.08464379 4.2900577 239.88246375 4.29602563 C242.4850795 4.3130721 245.08751842 4.31590611 247.69018555 4.31884766 C249.55267779 4.32814263 251.41516585 4.33831065 253.27764893 4.34928894 C258.34135048 4.37665157 263.40502413 4.39175688 268.46878028 4.40471697 C273.75793148 4.42032015 279.04702545 4.44711929 284.33613586 4.4727478 C294.35519163 4.51958549 304.3742581 4.55630542 314.39336759 4.58942068 C325.79833409 4.62760685 337.20324318 4.67702616 348.60816133 4.72740483 C372.07206503 4.83079889 395.53600559 4.92003495 419 5 C419 5.66 419 6.32 419 7 C474.11 7.33 529.22 7.66 586 8 C586 10.31 586 12.62 586 15 C501.82865365 15.63895818 417.6561721 16.12735736 333.4823029 16.22839546 C331.92518437 16.23026769 331.92518437 16.23026769 330.33660889 16.23217773 C329.30184127 16.23341078 328.26707365 16.23464382 327.20094943 16.23591423 C319.88176667 16.24537288 312.5626281 16.26275457 305.24346924 16.28344727 C296.29695285 16.30858512 287.35049763 16.3231364 278.40394455 16.32373834 C273.81394034 16.32428735 269.22407188 16.32964239 264.63409996 16.3476181 C260.42364186 16.3639091 256.21341539 16.36638909 252.00293708 16.35758495 C250.47142141 16.35683266 248.93989349 16.36122691 247.40840936 16.37108326 C245.33581327 16.38366542 243.26407062 16.37800706 241.19148254 16.36749268 C240.03600324 16.36895924 238.88052393 16.3704258 237.6900301 16.3719368 C236.80232017 16.24919765 235.91461023 16.12645851 235 16 C234.01 14.515 234.01 14.515 233 13 C233.99 13 234.98 13 236 13 C236 12.34 236 11.68 236 11 C235.32453125 10.96261719 234.6490625 10.92523438 233.953125 10.88671875 C233.06109375 10.82097656 232.1690625 10.75523437 231.25 10.6875 C229.92742187 10.60048828 229.92742187 10.60048828 228.578125 10.51171875 C225.593543 9.91932444 224.16215963 9.12807152 222 7 C221.67 5.68 221.34 4.36 221 3 C148.07 3 75.14 3 0 3 C0 2.01 0 1.02 0 0 Z " fill="#31312F" transform="translate(0,217)"/>
<path d="M0 0 C68.97 0 137.94 0 209 0 C209 0.33 209 0.66 209 1 C210.0725 1.12375 211.145 1.2475 212.25 1.375 C216 2 216 2 217.94762325 3.02207851 C220.33291131 4.15862639 221.95483749 4.25774264 224.58802795 4.27174377 C225.51341212 4.28145989 226.43879629 4.29117601 227.3922224 4.30118656 C228.91715801 4.30207358 228.91715801 4.30207358 230.47290039 4.30297852 C231.56002728 4.31143767 232.64715418 4.31989683 233.76722431 4.32861233 C237.4607069 4.35485052 241.15410217 4.36678091 244.84765625 4.37890625 C247.53961044 4.39492713 250.23154989 4.41172462 252.92349243 4.42944336 C259.60715631 4.47159579 266.29083261 4.50295982 272.97456837 4.53112519 C280.90277468 4.5650139 288.83090534 4.61021676 296.7590524 4.65565574 C314.90452857 4.75904631 333.05007327 4.84472995 351.1956535 4.92745584 C352.20515889 4.93205948 353.21466428 4.93666311 354.25476074 4.94140625 C355.27812623 4.94607141 356.30149172 4.95073657 357.35586828 4.9555431 C368.82201109 5.0080098 380.28813936 5.06345142 391.75426805 5.1189059 C456.50276226 5.4319596 521.25133729 5.72410149 586 6 C586 8.64 586 11.28 586 14 C539.28042418 14.06860147 492.56085368 14.12149587 445.84123746 14.15319599 C440.33100718 14.1569483 434.82077701 14.16083125 429.31054688 14.16479492 C428.21351587 14.16558185 427.11648487 14.16636878 425.98621051 14.16717956 C408.20136524 14.18024898 390.41654892 14.20391123 372.63172086 14.23145839 C354.39557289 14.25946993 336.15944014 14.27616724 317.92327154 14.28226548 C306.66208073 14.28639077 295.40097176 14.29944031 284.13980614 14.3237494 C276.4274247 14.33955417 268.71508585 14.34441235 261.00268938 14.34050413 C256.54679907 14.33857435 252.09105222 14.34162224 247.63518715 14.35761642 C243.56160815 14.3721324 239.48827011 14.37300698 235.41468041 14.36269668 C233.93551116 14.36142097 232.45632734 14.36529674 230.97718711 14.37464955 C228.97738296 14.38656646 226.97748863 14.3784583 224.97767067 14.36914349 C223.86357122 14.37028265 222.74947177 14.37142181 221.60161173 14.37259549 C220.31381393 14.18816072 220.31381393 14.18816072 219 14 C218.01 12.515 218.01 12.515 217 11 C213.93443402 10.26656572 213.93443402 10.26656572 211 10 C211 9.67 211 9.34 211 9 C213.31 9 215.62 9 218 9 C218 8.34 218 7.68 218 7 C215.03 6.67 212.06 6.34 209 6 C209.33 5.01 209.66 4.02 210 3 C140.7 3 71.4 3 0 3 C0 2.01 0 1.02 0 0 Z " fill="#3E3E3D" transform="translate(0,265)"/>
<path d="M0 0 C52.14 0 104.28 0 158 0 C158 0.99 158 1.98 158 3 C176.15 3.33 194.3 3.66 213 4 C213 4.66 213 5.32 213 6 C215.31 6.66 217.62 7.32 220 8 C220 8.99 220 9.98 220 11 C220.66 11 221.32 11 222 11 C222.33 13.31 222.66 15.62 223 18 C232.57 18 242.14 18 252 18 C252 18.33 252 18.66 252 19 C230.55 19 209.1 19 187 19 C187 18.67 187 18.34 187 18 C125.29 17.67 63.58 17.34 0 17 C0 11.39 0 5.78 0 0 Z " fill="#5E5D5C" transform="translate(0,276)"/>
<path d="M0 0 C54.78 0 109.56 0 166 0 C166 0.99 166 1.98 166 3 C166.66 3 167.32 3 168 3 C168 3.66 168 4.32 168 5 C168.57684099 5.00423194 169.15368198 5.00846388 169.74800301 5.01282406 C183.79512642 5.11620726 197.84220089 5.22485635 211.88923836 5.33933926 C218.68232668 5.39457621 225.47542026 5.4480423 232.26855469 5.49731445 C238.82379758 5.54486612 245.37898975 5.59738593 251.93416977 5.65294075 C254.43559355 5.67332715 256.93703148 5.69204631 259.43848038 5.70907402 C262.94097257 5.73320022 266.44336762 5.76324369 269.94580078 5.79467773 C270.98086258 5.8004332 272.01592438 5.80618866 273.08235168 5.81211853 C277.82850257 5.86056161 282.33357176 6.01549558 287 7 C287 7.33 287 7.66 287 8 C385.67 8.33 484.34 8.66 586 9 C586 10.32 586 11.64 586 13 C486.64470619 13.13272065 387.29200936 12.9895951 287.9375 12.5625 C286.66185212 12.55702683 285.38620424 12.55155367 284.07190037 12.54591465 C189.38065514 12.13894404 94.69007241 11.6218438 0 11 C0 7.37 0 3.74 0 0 Z " fill="#525251" transform="translate(0,420)"/>
<path d="M0 0 C64.35 0 128.7 0 195 0 C195 0.66 195 1.32 195 2 C197.97 2 200.94 2 204 2 C204 2.66 204 3.32 204 4 C204.99 4 205.98 4 207 4 C207 4.66 207 5.32 207 6 C207.66 6 208.32 6 209 6 C209 6.66 209 7.32 209 8 C267.41 8 325.82 8 386 8 C386 8.66 386 9.32 386 10 C452 10 518 10 586 10 C586 10.99 586 11.98 586 13 C461.92 13 337.84 13 210 13 C210 12.34 210 11.68 210 11 C204.39 11 198.78 11 193 11 C193 10.67 193 10.34 193 10 C129.31 9.67 65.62 9.34 0 9 C0 6.03 0 3.06 0 0 Z " fill="#5D5B59" transform="translate(0,28)"/>
<path d="M0 0 C1.09825953 -0.00001007 2.19651907 -0.00002014 3.3280592 -0.00003052 C96.69986942 0.00082581 190.06826824 0.45761436 283.4375 1.125 C283.4375 2.775 283.4375 4.425 283.4375 6.125 C257.95841332 6.30436794 232.47924249 6.46937846 207 6.625 C206.02845506 6.63094854 205.05691011 6.63689708 204.05592442 6.64302588 C133.97453423 7.07112753 63.89513335 7.21471609 -6.1875 7.1875 C-7.31270349 7.18707577 -8.43790698 7.18665154 -9.59720755 7.18621445 C-38.25231345 7.17522559 -66.90740805 7.15529757 -95.5625 7.125 C-95.5625 6.795 -95.5625 6.465 -95.5625 6.125 C-163.8725 5.795 -232.1825 5.465 -302.5625 5.125 C-302.5625 3.805 -302.5625 2.485 -302.5625 1.125 C-201.70885446 0.48222283 -100.85590312 -0.00092497 0 0 Z " fill="#42413F" transform="translate(302.5625,53.875)"/>
<path d="M0 0 C1.61906281 -0.00001511 1.61906281 -0.00001511 3.27083397 -0.00003052 C91.97443163 0.00079741 180.67422159 0.439732 269.375 1.125 C269.375 3.105 269.375 5.085 269.375 7.125 C149.585 7.125 29.795 7.125 -93.625 7.125 C-93.625 6.795 -93.625 6.465 -93.625 6.125 C-106.24752451 5.23083314 -118.81357577 4.9581543 -131.46508789 4.91967773 C-133.49712817 4.91007292 -135.52916655 4.90006143 -137.561203 4.88967896 C-143.0228198 4.86290536 -148.484445 4.84174868 -153.94608998 4.82167697 C-159.67423441 4.79964519 -165.40235378 4.7723415 -171.13047791 4.74562073 C-181.95301758 4.69592423 -192.77557133 4.65090099 -203.59813827 4.60759836 C-215.9296325 4.55802765 -228.26110156 4.50318378 -240.59257138 4.44791877 C-265.93669072 4.33445297 -291.28083425 4.22753837 -316.625 4.125 C-316.625 3.135 -316.625 2.145 -316.625 1.125 C-211.08390287 0.50938301 -105.54311996 -0.00098513 0 0 Z " fill="#3C3B3A" transform="translate(316.625,187.875)"/>
<path d="M0 0 C19.73880961 -0.02379437 39.47761616 -0.04119974 59.21643734 -0.05181217 C68.38998342 -0.05687963 77.56352031 -0.06375711 86.73706055 -0.07543945 C132.83546461 -0.1329983 178.90965558 0.09022195 225 1 C225 1.66 225 2.32 225 3 C228.23459974 4.07819991 230.55761949 4.12423711 233.96016216 4.12304783 C235.83970531 4.1260344 235.83970531 4.1260344 237.75721902 4.12908131 C239.1554222 4.12622808 240.55362519 4.12328248 241.951828 4.12025452 C243.43109589 4.12069034 244.9103637 4.12156545 246.38963109 4.12284368 C250.46462628 4.12508645 254.53959533 4.12107032 258.61458719 4.11606562 C263.00516853 4.1117582 267.39574832 4.11320775 271.78633118 4.1139679 C279.39666787 4.11449294 287.00699601 4.11134813 294.61733055 4.10573006 C305.62067722 4.09761249 316.62401974 4.09499957 327.62736908 4.09374207 C345.47838838 4.09155195 363.32940311 4.08489296 381.18041992 4.07543945 C398.52384417 4.06626429 415.86726718 4.05918396 433.21069336 4.05493164 C434.27924961 4.05466892 435.34780585 4.05440619 436.44874259 4.05413551 C441.80922819 4.0528305 447.1697138 4.05156678 452.53019941 4.05032361 C497.0201361 4.03995226 541.51006781 4.02233504 586 4 C586 5.65 586 7.3 586 9 C540.44398241 9.02287024 494.88796542 9.0405002 449.33194323 9.05106533 C443.95819326 9.05231609 438.58444331 9.05361041 433.21069336 9.05493164 C432.1408402 9.05519395 431.07098705 9.05545626 429.9687141 9.05572652 C412.62751508 9.06008225 395.28631937 9.06796928 377.94512232 9.0771528 C360.1621029 9.08649201 342.37908521 9.09205618 324.59606344 9.09408849 C313.61589875 9.09546316 302.63574339 9.09981074 291.65558157 9.10791647 C284.13429296 9.11318722 276.6130092 9.11480354 269.09171887 9.11350138 C264.74714414 9.11285852 260.40258577 9.11386969 256.05801392 9.11920547 C252.08499024 9.12404952 248.11199401 9.12433197 244.1389691 9.12089889 C242.69747114 9.1204742 241.25597151 9.12176147 239.81447687 9.12488318 C237.8630426 9.12886536 235.91159803 9.12614864 233.96016216 9.12304783 C232.8737823 9.12342755 231.78740243 9.12380727 230.66810197 9.1241985 C228 9 228 9 225 8 C222.02500157 7.89376172 219.07282937 7.84513945 216.09736633 7.84178162 C215.17600378 7.83684364 214.25464122 7.83190566 213.30535859 7.82681805 C210.20528324 7.81140944 207.10522865 7.80307332 204.00512695 7.79467773 C201.787962 7.78510186 199.57079888 7.77509195 197.3536377 7.76467896 C191.32302766 7.7375924 185.29240977 7.71660315 179.26177239 7.69667697 C172.96365943 7.67484053 166.66557078 7.6474404 160.36747742 7.62062073 C149.7927659 7.57634325 139.2180454 7.53551336 128.64331055 7.49731445 C117.75072252 7.45795796 106.85814561 7.41653136 95.96557617 7.37231445 C95.29429034 7.36959018 94.6230045 7.36686591 93.93137667 7.36405908 C90.56377241 7.35037958 87.19616831 7.33665931 83.82856429 7.32291877 C55.88573228 7.20905009 27.94287687 7.1022217 0 7 C0 4.69 0 2.38 0 0 Z " fill="#656564" transform="translate(0,132)"/>
<path d="M0 0 C1.41008646 -0.00001511 1.41008646 -0.00001511 2.84865952 -0.00003052 C88.3175482 0.00088553 173.78369419 0.49366738 259.25 1.125 C259.25 2.775 259.25 4.425 259.25 6.125 C235.66677272 6.30750436 212.08343395 6.47166989 188.5 6.625 C187.13165433 6.63392281 187.13165433 6.63392281 185.73566532 6.64302588 C112.03206038 7.1222987 38.33001246 7.21246058 -35.375 7.1875 C-36.66488768 7.18707577 -37.95477535 7.18665154 -39.28375053 7.18621445 C-72.43917415 7.1751251 -105.59458818 7.15501182 -138.75 7.125 C-138.75 6.465 -138.75 5.805 -138.75 5.125 C-200.79 4.795 -262.83 4.465 -326.75 4.125 C-326.75 3.135 -326.75 2.145 -326.75 1.125 C-110.62753129 0.01880383 -110.62753129 0.01880383 0 0 Z " fill="#353433" transform="translate(326.75,335.875)"/>
<path d="M0 0 C193.38 0 386.76 0 586 0 C586 2.31 586 4.62 586 7 C541.22590722 7.02291824 496.45181507 7.04052457 451.67771758 7.05106533 C446.38467304 7.05231595 441.09162851 7.05361028 435.79858398 7.05493164 C434.74489025 7.05519395 433.69119652 7.05545626 432.60557268 7.05572652 C415.57264288 7.06007086 398.53971648 7.0679516 381.50678869 7.0771528 C364.01297518 7.08652374 346.51916345 7.09206289 329.02534753 7.09408849 C318.24176977 7.09545658 307.45820161 7.09976838 296.6746268 7.10791647 C289.26722351 7.11322641 281.85982514 7.11479468 274.45242008 7.11350138 C270.18687343 7.11286461 265.92134349 7.11379991 261.65579987 7.11920547 C228.85301563 7.15881603 228.85301563 7.15881603 213 6 C212.01 3.525 212.01 3.525 211 1 C141.37 1 71.74 1 0 1 C0 0.67 0 0.34 0 0 Z " fill="#31302F" transform="translate(0,157)"/>
<path d="M0 0 C77.64187897 -0.05905868 155.28395318 -0.11100337 368.64140701 0.74650192 C410.66057061 1.13111416 452.68128646 1.3132211 494.70158005 1.52910233 C501.15637118 1.56228861 507.6111601 1.59589292 514.06594849 1.62960815 C538.04395685 1.754821 562.0219722 1.87856476 586 2 C586 3.65 586 5.3 586 7 C458.95 7 331.9 7 201 7 C201 6.34 201 5.68 201 5 C199.02 5 197.04 5 195 5 C195 4.34 195 3.68 195 3 C130.65 3 66.3 3 0 3 C0 2.01 0 1.02 0 0 Z " fill="#30302F" transform="translate(0,393)"/>
<path d="M0 0 C25.4343107 -0.07007769 50.86860693 -0.12298214 76.30299473 -0.15543652 C88.11259246 -0.1709061 99.92213022 -0.19199744 111.73168945 -0.22631836 C122.02476715 -0.25621783 132.31780141 -0.27557434 142.61092132 -0.28226548 C148.06116516 -0.28617679 153.51128471 -0.29537097 158.96148872 -0.31719017 C164.09222651 -0.33756387 169.22278891 -0.34383196 174.35356331 -0.33932304 C176.23571221 -0.34014784 178.11786703 -0.34610818 179.99998093 -0.35761642 C182.57263535 -0.37257438 185.14463026 -0.36894164 187.71730042 -0.36076355 C188.45953639 -0.36950207 189.20177237 -0.3782406 189.96650034 -0.38724393 C195.92805591 -0.33613138 199.76761506 1.38380753 205 4 C205 4.99 205 5.98 205 7 C205.92465718 6.99484627 206.84931437 6.98969254 207.80199146 6.98438263 C238.30545162 6.81466796 268.80895741 6.65417028 299.3125 6.5 C300.48742728 6.49405146 301.66235456 6.48810292 302.8728857 6.48197412 C373.12382265 6.12687839 443.37313128 5.90455104 513.625 5.9375 C515.02362487 5.93813635 515.02362487 5.93813635 516.45050478 5.93878555 C539.63368094 5.94951909 562.816842 5.96892583 586 6 C586 6.99 586 7.98 586 9 C392.62 9 199.24 9 0 9 C0 6.03 0 3.06 0 0 Z " fill="#4B4B4B" transform="translate(0,348)"/>
<path d="M0 0 C28.61260289 -0.0227994 57.22520464 -0.04050285 85.83781483 -0.05106533 C89.21373529 -0.05231608 92.58965574 -0.05361039 95.96557617 -0.05493164 C96.97372826 -0.05532511 96.97372826 -0.05532511 98.00224706 -0.05572652 C108.89308697 -0.06008101 119.78392162 -0.06796736 130.67475841 -0.0771528 C141.84494476 -0.08649546 153.0151293 -0.09198203 164.1853196 -0.09408849 C170.46146072 -0.09539495 176.73758989 -0.09847675 183.01372719 -0.10573006 C188.91593999 -0.11249623 194.81813586 -0.11461573 200.72035217 -0.11310768 C202.89120768 -0.11338374 205.06206372 -0.11538533 207.23291588 -0.11920547 C210.18775377 -0.124152 213.14252706 -0.12299468 216.09736633 -0.12025452 C216.96409118 -0.12316736 217.83081602 -0.1260802 218.72380525 -0.12908131 C222.06938833 -0.12064658 224.80360565 -0.06546478 228 1 C230.11643499 1.08992217 232.23567861 1.11757077 234.35401917 1.11352539 C235.00413662 1.11367283 235.65425408 1.11382028 236.32407206 1.11397219 C238.51629198 1.11327159 240.70842926 1.10540837 242.90063477 1.09765625 C244.48079507 1.09575586 246.06095598 1.09431617 247.6411171 1.09329987 C251.08010525 1.0901614 254.51906905 1.08389147 257.95804787 1.07530212 C263.53564321 1.06151052 269.11323261 1.05516716 274.69084167 1.04992676 C282.75666764 1.04177979 290.82248551 1.03092672 298.88830566 1.01831055 C320.24453596 0.98555452 341.60077804 0.97362142 362.95703125 0.96875 C364.04713171 0.96846235 365.13723216 0.96817471 366.26036596 0.96787834 C414.15219271 0.95644074 462.04169427 1.17191294 509.93242025 1.48177338 C512.76262069 1.50008164 515.59282188 1.51827004 518.42302322 1.53643799 C540.94875168 1.68130572 563.47441108 1.83482545 586 2 C586 2.99 586 3.98 586 5 C495.8532979 5.72784476 405.70685828 6.09778846 288.34591746 6.12501526 C286.24991719 6.125 284.15391692 6.12501526 282.05791664 6.12503052 C195.84833513 6.12490608 109.6416933 5.90773963 0 5 C0 3.35 0 1.7 0 0 Z " fill="#343332" transform="translate(0,139)"/>
<path d="M0 0 C76.23 0 152.46 0 231 0 C231 1.32 231 2.64 231 4 C348.15 4 465.3 4 586 4 C586 5.65 586 7.3 586 9 C497.73363925 9.12046812 409.46949126 9.04200767 321.20397168 8.61044246 C314.64944261 8.5784313 308.09490977 8.54751512 301.54037052 8.51765925 C209.67027934 8.09910832 209.67027934 8.09910832 166 7 C166 6.67 166 6.34 166 6 C111.22 5.67 56.44 5.34 0 5 C0 3.35 0 1.7 0 0 Z " fill="#60605F" transform="translate(0,172)"/>
<path d="M0 0 C57.75 0 115.5 0 175 0 C175 1.65 175 3.3 175 5 C175.66 5 176.32 5 177 5 C177 5.66 177 6.32 177 7 C195.81 7.495 195.81 7.495 215 8 C215.99 10.475 215.99 10.475 217 13 C217.99 13.99 217.99 13.99 219 15 C204.15 15 189.3 15 174 15 C174 14.67 174 14.34 174 14 C87.87 13.505 87.87 13.505 0 13 C0 8.71 0 4.42 0 0 Z " fill="#71706F" transform="translate(0,96)"/>
<path d="M0 0 C69.63 0 139.26 0 211 0 C211 0.66 211 1.32 211 2 C213.64 2.33 216.28 2.66 219 3 C219 3.33 219 3.66 219 4 C340.11 4 461.22 4 586 4 C586 5.65 586 7.3 586 9 C562.70834034 9.0323265 539.41667898 9.05152063 516.125 9.0625 C514.78433055 9.06315145 514.78433055 9.06315145 513.41657686 9.06381607 C445.5056708 9.09588482 377.59740518 8.85750836 309.6875 8.5 C308.55080777 8.49402628 307.41411554 8.48805257 306.2429781 8.48189783 C277.16194203 8.32891571 248.08094969 8.16859673 219 8 C219 7.34 219 6.68 219 6 C146.73 5.67 74.46 5.34 0 5 C0 3.35 0 1.7 0 0 Z " fill="#666565" transform="translate(0,244)"/>
<path d="M0 0 C67.65 0 135.3 0 205 0 C205 0.99 205 1.98 205 3 C207.69178791 5.69178791 209.05498149 5.25922478 212.82119751 5.2784729 C214.06082748 5.28963638 215.30045746 5.30079987 216.57765198 5.31230164 C217.95883149 5.31466683 219.34001133 5.31684244 220.72119141 5.31884766 C222.16974958 5.32814173 223.61830237 5.33830961 225.06684875 5.34928894 C229.00667587 5.37666191 232.9464671 5.39175985 236.88636446 5.40471697 C241.00105707 5.42031571 245.11567602 5.44711623 249.23031616 5.4727478 C257.02527633 5.51959345 264.82025027 5.55630948 272.61527956 5.58942068 C281.4882376 5.62760128 290.36112177 5.67702201 299.23401761 5.72740483 C317.48929106 5.8308107 335.74460955 5.92004286 354 6 C354 6.33 354 6.66 354 7 C468.84 7.495 468.84 7.495 586 8 C586 9.65 586 11.3 586 13 C520 13 454 13 386 13 C386 12.34 386 11.68 386 11 C326.93 11.33 267.86 11.66 207 12 C207.66 11.67 208.32 11.34 209 11 C209 10.34 209 9.68 209 9 C208.34 9 207.68 9 207 9 C207 8.34 207 7.68 207 7 C206.01 7 205.02 7 204 7 C204 6.34 204 5.68 204 5 C201.03 5 198.06 5 195 5 C195 4.34 195 3.68 195 3 C130.65 3 66.3 3 0 3 C0 2.01 0 1.02 0 0 Z " fill="#3E3D3C" transform="translate(0,25)"/>
<path d="M0 0 C53.13 0 106.26 0 161 0 C161 0.66 161 1.32 161 2 C181.13 2 201.26 2 222 2 C222 2.66 222 3.32 222 4 C222.825 4.495 223.65 4.99 224.5 5.5 C225.325 5.995 226.15 6.49 227 7 C227 7.66 227 8.32 227 9 C228.98 9.33 230.96 9.66 233 10 C233 10.33 233 10.66 233 11 C156.11 11 79.22 11 0 11 C0 7.37 0 3.74 0 0 Z " fill="#6F6F6E" transform="translate(0,226)"/>
<path d="M0 0 C27.34603917 -0.06999199 54.69206497 -0.12293998 82.03817558 -0.15543652 C94.73462793 -0.17092434 107.43102472 -0.19205035 120.12744141 -0.22631836 C131.18992878 -0.25616218 142.25237592 -0.27556106 153.31490242 -0.28226548 C159.17578428 -0.28618627 165.03655102 -0.29544022 170.89739609 -0.31719017 C176.40813432 -0.33747614 181.91870948 -0.34384986 187.42948151 -0.33932304 C189.45724751 -0.34015179 191.4850187 -0.34616418 193.51275253 -0.35761642 C196.27106501 -0.37243722 199.02875338 -0.36899201 201.78707886 -0.36076355 C202.59835232 -0.36950207 203.40962578 -0.3782406 204.24548328 -0.38724393 C206.47425652 -0.36914349 206.47425652 -0.36914349 210 0 C210.99 1.485 210.99 1.485 212 3 C215.06556598 3.73343428 215.06556598 3.73343428 218 4 C218 4.66 218 5.32 218 6 C218.99 6.33 219.98 6.66 221 7 C222.88135214 8.86545339 224.37570485 10.89280629 226 13 C226 13.33 226 13.66 226 14 C344.8 14.66 463.6 15.32 586 16 C586 17.65 586 19.3 586 21 C562.3542552 21.17984269 538.70841829 21.34473487 515.0625 21.5 C514.1588631 21.50594854 513.25522619 21.51189708 512.32420635 21.51802588 C445.92422956 21.95408828 379.5263271 22.08930206 313.125 22.0625 C312.04249545 22.06207577 310.95999089 22.06165154 309.84468317 22.06121445 C282.22978007 22.05020714 254.61488868 22.03024432 227 22 C227 21.67 227 21.34 227 21 C278.81 20.67 330.62 20.34 384 20 C330.87 19.67 277.74 19.34 223 19 C223 18.01 223 17.02 223 16 C222.01 15.505 222.01 15.505 221 15 C221.33 14.01 221.66 13.02 222 12 C221.34 12 220.68 12 220 12 C220 11.01 220 10.02 220 9 C217.36 8.67 214.72 8.34 212 8 C212.33 7.01 212.66 6.02 213 5 C212.34045319 5.00222061 211.68090637 5.00444122 211.00137329 5.00672913 C204.15619446 5.02879894 197.31102568 5.04391373 190.46582031 5.05493164 C187.90884999 5.05997017 185.35188257 5.06680107 182.79492188 5.07543945 C179.12629483 5.08752602 175.45770577 5.09323301 171.7890625 5.09765625 C170.64007477 5.10281754 169.49108704 5.10797882 168.30728149 5.11329651 C167.2463327 5.11337204 166.18538391 5.11344757 165.09228516 5.11352539 C163.68663803 5.11685631 163.68663803 5.11685631 162.25259399 5.12025452 C160 5 160 5 158 4 C158 3.01 158 2.02 158 1 C105.86 1 53.72 1 0 1 C0 0.67 0 0.34 0 0 Z " fill="#2E2E2C" transform="translate(0,275)"/>
<path d="M0 0 C60.06 0 120.12 0 182 0 C182 0.66 182 1.32 182 2 C182.67579102 2.0093457 183.35158203 2.01869141 184.04785156 2.02832031 C187.1159711 2.08207301 190.18257387 2.16570992 193.25 2.25 C194.31347656 2.26417969 195.37695312 2.27835937 196.47265625 2.29296875 C197.49746094 2.32519531 198.52226562 2.35742188 199.578125 2.390625 C200.52075195 2.41157227 201.46337891 2.43251953 202.43457031 2.45410156 C205.74735716 3.15903032 206.85010676 4.42762378 209 7 C209.387892 7.69436157 209.775784 8.38872314 210.1754303 9.10412598 C211.93427906 11.30957149 211.93427906 11.30957149 215.13212585 11.51898193 C216.42230118 11.52786438 217.7124765 11.53674683 219.04174805 11.54589844 C220.11042114 11.56140495 220.11042114 11.56140495 221.20068359 11.57722473 C223.55459104 11.60671288 225.90764091 11.60815308 228.26171875 11.609375 C229.89412583 11.6243527 231.52651774 11.64107899 233.15888977 11.65948486 C237.45460699 11.70321715 241.7501198 11.72317031 246.04602051 11.73822021 C250.42989215 11.75777027 254.81354233 11.79974255 259.19726562 11.83984375 C267.79811923 11.91520944 276.39888603 11.96546216 285 12 C285 12.33 285 12.66 285 13 C249.69 13 214.38 13 178 13 C178 12.67 178 12.34 178 12 C119.26 11.67 60.52 11.34 0 11 C0 7.37 0 3.74 0 0 Z " fill="#686766" transform="translate(0,66)"/>
<path d="M0 0 C68.64 0 137.28 0 208 0 C208 0.33 208 0.66 208 1 C332.74 1.33 457.48 1.66 586 2 C586 3.32 586 4.64 586 6 C552.94169107 6.02331821 519.88338469 6.04075922 486.82506929 6.05106533 C482.83300516 6.05231456 478.84094105 6.05360903 474.84887695 6.05493164 C474.05483933 6.05519395 473.2608017 6.05545626 472.44270233 6.05572652 C461.46734098 6.05944475 450.49198344 6.06554926 439.51662455 6.07373493 C366.35416323 6.12826623 293.19968558 5.98663583 200.37205505 5.1880188 C176.66955384 4.98170838 152.96688186 4.83007977 129.2638514 4.70002437 C126.30298237 4.68377731 123.34211437 4.66735134 120.38124657 4.65088081 C110.01629091 4.59335281 99.65132716 4.53746038 89.2863571 4.48259121 C79.4724818 4.43057106 69.65861643 4.37676398 59.844751 4.32291877 C39.89651007 4.21350417 19.94825949 4.10597391 0 4 C0 2.68 0 1.36 0 0 Z " fill="#504F4E" transform="translate(0,77)"/>
<path d="M0 0 C9.30123943 0.06413655 18.6025121 0.12279599 27.90378791 0.18137598 C46.78966415 0.30042384 65.675498 0.42513402 84.56130546 0.55461836 C84.56130546 1.54461836 84.56130546 2.53461836 84.56130546 3.55461836 C-4.2727338 4.26919098 -93.10661767 4.64180967 -215.87650794 4.67963362 C-218.00132559 4.67961836 -220.12614324 4.67963362 -222.25096089 4.67964888 C-307.14479927 4.679528 -392.03574477 4.48454205 -501.43869454 3.55461836 C-501.43869454 2.56461836 -501.43869454 1.57461836 -501.43869454 0.55461836 C-467.93890629 0.42415408 -434.43910821 0.29660175 -400.93929606 0.17243609 C-396.89230186 0.15743382 -392.84530775 0.14240981 -388.79831368 0.12737226 C-387.99336283 0.12438165 -387.18841199 0.12139104 -386.3590687 0.1183098 C-375.23786957 0.07694701 -364.1166754 0.0344376 -352.99548448 -0.00907415 C-278.1343285 -0.30193054 -203.27357493 -0.54006643 0 0 Z " fill="#2D2D2B" transform="translate(501.43869453668594,376.44538164138794)"/>
<path d="M0 0 C72.6 0 145.2 0 220 0 C220 0.33 220 0.66 220 1 C228.9705558 1.90419783 237.87132124 2.16404101 246.88226318 2.19618225 C248.35280158 2.20489772 249.8233376 2.21402358 251.29387116 2.22352022 C255.3029013 2.24823981 259.31194047 2.26719597 263.32100582 2.2851516 C267.65623288 2.30559858 271.99142807 2.33147507 276.32662964 2.35667419 C283.8271115 2.39953733 291.32760497 2.4390015 298.82811737 2.4761219 C309.67244549 2.52979598 320.5167407 2.58865083 331.3610349 2.64874845 C348.95746827 2.74612579 366.55392109 2.83934435 384.15039062 2.92993164 C401.23829342 3.01790975 418.326184 3.10785639 435.4140625 3.20043945 C436.99542813 3.20900635 436.99542813 3.20900635 438.60874054 3.21774632 C443.89785432 3.24641172 449.1869679 3.27511569 454.47608137 3.30383885 C498.31735658 3.54187421 542.15866556 3.77315354 586 4 C586 4.99 586 5.98 586 7 C562.16675755 7.18024335 538.3334197 7.34503295 514.5 7.5 C513.13125921 7.50892281 513.13125921 7.50892281 511.7348671 7.51802588 C443.65636306 7.96074432 375.57985245 8.08897633 307.5 8.0625 C306.3765279 8.06207577 305.2530558 8.06165154 304.09553909 8.06121445 C275.3970177 8.05019263 246.69850756 8.03020268 218 8 C217.67 7.01 217.34 6.02 217 5 C221.62 5 226.24 5 231 5 C231 4.34 231 3.68 231 3 C154.77 3 78.54 3 0 3 C0 2.01 0 1.02 0 0 Z " fill="#2B2A29" transform="translate(0,169)"/>
<path d="M0 0 C70.29 0 140.58 0 213 0 C213 0.33 213 0.66 213 1 C214.31916696 0.99723462 214.31916696 0.99723462 215.66498375 0.99441338 C237.03773643 0.95029546 258.41048129 0.91717325 279.78326988 0.89637566 C290.11887621 0.88605146 300.4544522 0.87196935 310.79003906 0.84912109 C319.79575547 0.82922215 328.8014499 0.81629189 337.80718768 0.81182301 C342.57816513 0.80920969 347.34907972 0.80304365 352.12003708 0.78853989 C356.60642751 0.77501112 361.09272891 0.77076777 365.5791378 0.77378464 C367.22956132 0.77323236 368.87998767 0.76922697 370.5303936 0.76158905 C372.77626333 0.75170125 375.02179278 0.75400827 377.26766968 0.75949097 C379.1564235 0.75672559 379.1564235 0.75672559 381.08333397 0.75390434 C384 1 384 1 386 3 C388.64584909 3.1932389 391.18660315 3.26047205 393.83328247 3.24050903 C394.65170179 3.24221788 395.47012111 3.24392673 396.31334102 3.24568737 C399.07112345 3.24899634 401.82866556 3.23795553 404.58642578 3.22705078 C406.55713902 3.22648697 408.52785268 3.22680264 410.49856567 3.22793579 C415.86194907 3.22851148 421.22524367 3.21672223 426.58860636 3.20278788 C432.18869487 3.19031649 437.78878524 3.18911286 443.3888855 3.18673706 C453.99946241 3.1805117 464.60999828 3.16408664 475.22055709 3.14403808 C487.29775611 3.12171188 499.37495706 3.11069391 511.45217156 3.10064721 C536.30147049 3.0797213 561.15073295 3.04452486 586 3 C586 3.99 586 4.98 586 6 C454.66 6 323.32 6 188 6 C188 5.67 188 5.34 188 5 C125.96 4.67 63.92 4.34 0 4 C0 2.68 0 1.36 0 0 Z " fill="#575756" transform="translate(0,293)"/>
<path d="M0 0 C193.38 0 386.76 0 586 0 C586 0.99 586 1.98 586 3 C491.33378097 3.72697099 396.66911567 4.12579895 302 4.125 C300.80685558 4.12501007 299.61371117 4.12502014 298.38441086 4.12503052 C198.92092709 4.12419103 99.46098615 3.68021429 0 3 C0 2.01 0 1.02 0 0 Z " fill="#30302F" transform="translate(0,357)"/>
<path d="M0 0 C23.82132468 -0.02355968 47.64264757 -0.04109074 71.46398163 -0.05181217 C82.52937718 -0.05692685 93.59476541 -0.06387514 104.66015625 -0.07543945 C114.32619244 -0.08553633 123.99222332 -0.09188832 133.65826464 -0.09408849 C138.75683787 -0.09537068 143.85539595 -0.09829227 148.95396423 -0.10573006 C175.31887568 -0.14272837 201.64686527 0.19577948 228 1 C228 1.33 228 1.66 228 2 C346.14 2 464.28 2 586 2 C586 2.99 586 3.98 586 5 C392.62 5 199.24 5 0 5 C0 3.35 0 1.7 0 0 Z " fill="#6C6C6B" transform="translate(0,340)"/>
<path d="M0 0 C53.79 0 107.58 0 163 0 C163 0.66 163 1.32 163 2 C179.17 2 195.34 2 212 2 C212 2.66 212 3.32 212 4 C213.65 4 215.3 4 217 4 C217 4.66 217 5.32 217 6 C217.99 6.7425 217.99 6.7425 219 7.5 C219.99 8.2425 219.99 8.2425 221 9 C221 9.66 221 10.32 221 11 C221.95511475 10.98747192 222.91022949 10.97494385 223.89428711 10.96203613 C265.62334602 10.41733955 307.35223437 9.89547391 349.08538818 9.87661743 C351.44096285 9.87499762 353.7965279 9.87144094 356.15209961 9.86743164 C359.82106402 9.86165668 363.48998667 9.86129105 367.15895271 9.86568069 C369.12895332 9.86714683 371.09895567 9.86422379 373.06895447 9.86117554 C374.22625565 9.86428741 375.38355682 9.86739929 376.57592773 9.87060547 C378.08521095 9.87179886 378.08521095 9.87179886 379.62498474 9.87301636 C382 10 382 10 384 11 C386.64471483 11.10783622 389.26380069 11.15490171 391.90921021 11.15821838 C393.14908984 11.16562535 393.14908984 11.16562535 394.41401756 11.17318195 C397.19934945 11.18860883 399.9846582 11.19693158 402.77001953 11.20532227 C404.7604391 11.21489671 406.75085662 11.22490653 408.74127197 11.23532104 C414.15832306 11.26242313 419.57538292 11.28340392 424.99246454 11.30332303 C430.64862837 11.32514994 436.30476504 11.35255471 441.96090698 11.37937927 C452.67769724 11.42935081 463.39450254 11.47427306 474.11132228 11.51740164 C486.30946165 11.56673594 498.50757377 11.62166816 510.70568681 11.67708123 C535.8037658 11.79096975 560.90187091 11.89779378 586 12 C586 12.33 586 12.66 586 13 C372.992863 13.1977 372.992863 13.1977 285.05978775 12.59428024 C281.15142022 12.56753965 277.2430444 12.54236189 273.33466357 12.51765215 C265.32175388 12.46693886 257.30890961 12.41064724 249.29609108 12.34712219 C246.70044799 12.32698973 244.10479403 12.30820333 241.50913048 12.29090881 C238.01954002 12.266983 234.53005422 12.23706819 231.04052734 12.20532227 C230.04187999 12.19956712 229.04323263 12.19381197 228.01432323 12.18788242 C222.27213906 12.12758684 216.69723772 11.72848616 211 11 C211 10.67 211 10.34 211 10 C193.51 9.67 176.02 9.34 158 9 C158 8.67 158 8.34 158 8 C79.79 7.505 79.79 7.505 0 7 C0 4.69 0 2.38 0 0 Z " fill="#71706F" transform="translate(0,258)"/>
<path d="M0 0 C67.32 0 134.64 0 204 0 C204 0.33 204 0.66 204 1 C213.90128962 1.83498743 223.71854051 2.1619785 233.65426636 2.19618225 C235.18427796 2.20490143 236.71428729 2.21402748 238.24429429 2.22352022 C242.40842841 2.24819932 246.5725712 2.26717769 250.73673892 2.2851516 C255.24234737 2.3056238 259.74792541 2.3314875 264.25350952 2.35667419 C272.04643307 2.39950993 279.83936772 2.43898048 287.6323204 2.4761219 C298.89942277 2.52982614 310.16649374 2.58867312 321.43356372 2.64874845 C339.7165964 2.746094 357.99964765 2.83931889 376.28271484 2.92993164 C394.03598167 3.01792752 411.78923684 3.10787698 429.54248047 3.20043945 C430.63801671 3.20615072 431.73355296 3.21186199 432.86228727 3.21774632 C438.35863677 3.24641199 443.85498608 3.27511591 449.35133529 3.30383885 C494.90086061 3.54182308 540.45041815 3.77311111 586 4 C586 4.99 586 5.98 586 7 C464.56 7 343.12 7 218 7 C217.67 5.68 217.34 4.36 217 3 C145.39 3 73.78 3 0 3 C0 2.01 0 1.02 0 0 Z " fill="#2F2E2D" transform="translate(0,177)"/>
<path d="M0 0 C26.78997305 -0.04668287 53.57994002 -0.08197061 80.36994553 -0.10362434 C92.80849312 -0.11394496 105.24701548 -0.12802028 117.68554688 -0.15087891 C128.5246505 -0.17078876 139.36373585 -0.18371072 150.20285726 -0.18817699 C155.94416774 -0.19078845 161.68542592 -0.1969428 167.42671967 -0.21146011 C172.82745662 -0.22500603 178.22811959 -0.2292287 183.62887192 -0.22621536 C185.61386644 -0.22676687 187.59886337 -0.23076206 189.58384323 -0.23841095 C192.28879564 -0.24832538 194.99346671 -0.24598169 197.69842529 -0.24050903 C198.48830928 -0.24633472 199.27819326 -0.2521604 200.09201312 -0.25816262 C203.87543025 -0.23739759 206.79284057 -0.13276618 210 2 C210 2.66 210 3.32 210 4 C334.08 4 458.16 4 586 4 C586 5.65 586 7.3 586 9 C525.28 9 464.56 9 402 9 C402 8.34 402 7.68 402 7 C308.94 7.495 308.94 7.495 214 8 C214 7.34 214 6.68 214 6 C212.02 6 210.04 6 208 6 C208.33 5.01 208.66 4.02 209 3 C208.21463867 3.00523682 207.42927734 3.01047363 206.62011719 3.01586914 C202.99675322 3.03689807 199.37340217 3.04974154 195.75 3.0625 C194.51507813 3.07087891 193.28015625 3.07925781 192.0078125 3.08789062 C190.17089844 3.09272461 190.17089844 3.09272461 188.296875 3.09765625 C186.63156738 3.10551147 186.63156738 3.10551147 184.93261719 3.11352539 C181.8478167 3.02447447 178.87457296 2.80579847 175.80895996 2.5057373 C167.91634603 1.83812217 160.03786854 1.82387823 152.12402344 1.79467773 C150.45724761 1.78507774 148.79047411 1.77506649 147.123703 1.76467896 C142.63490237 1.73785332 138.14609146 1.71672412 133.65725613 1.69667697 C128.95273955 1.6746781 124.24825381 1.64735799 119.54376221 1.62062073 C110.65122941 1.57088048 101.75867931 1.52587309 92.86611295 1.48259836 C82.73541451 1.43306554 72.60474706 1.37820737 62.47407866 1.32291877 C41.64941468 1.20938563 20.82472108 1.10248515 0 1 C0 0.67 0 0.34 0 0 Z " fill="#383736" transform="translate(0,37)"/>
<path d="M0 0 C58.08 0 116.16 0 176 0 C176 0.99 176 1.98 176 3 C191.84 3.495 191.84 3.495 208 4 C208.33 5.32 208.66 6.64 209 8 C209.99 8.33 210.98 8.66 212 9 C142.04 9 72.08 9 0 9 C0 6.03 0 3.06 0 0 Z " fill="#797878" transform="translate(0,84)"/>
<path d="M0 0 C52.14 0 104.28 0 158 0 C158 0.99 158 1.98 158 3 C176.15 3.33 194.3 3.66 213 4 C213 4.66 213 5.32 213 6 C213.99 6.99 213.99 6.99 215 8 C192.13143191 9.09908007 169.28995184 9.13439352 146.40022945 9.10139394 C141.23404516 9.09504389 136.06785996 9.09454756 130.90167236 9.09336853 C121.16674991 9.09028895 111.43183901 9.08212217 101.69692159 9.07201904 C90.59370396 9.06075169 79.49048572 9.05532098 68.38726377 9.05032361 C45.59150284 9.03993581 22.79575207 9.02240337 0 9 C0 6.03 0 3.06 0 0 Z " fill="#868685" transform="translate(0,276)"/>
<path d="M0 0 C0.33 1.32 0.66 2.64 1 4 C52.81 4 104.62 4 158 4 C158 4.66 158 5.32 158 6 C159.32 6 160.64 6 162 6 C162 6.66 162 7.32 162 8 C163.98 8 165.96 8 168 8 C168 8.33 168 8.66 168 9 C112.89 9 57.78 9 1 9 C1 8.34 1 7.68 1 7 C-5.93 7 -12.86 7 -20 7 C-20 6.67 -20 6.34 -20 6 C-80.39 5.67 -140.78 5.34 -203 5 C-203 3.68 -203 2.36 -203 1 C-180.8140742 0.86857697 -158.62814277 0.73814511 -136.44220448 0.60884857 C-126.13765505 0.54877274 -115.83310761 0.48838947 -105.52856445 0.42724609 C-96.53248017 0.37386745 -87.53639251 0.32110265 -78.54030055 0.26903296 C-73.79028509 0.24151938 -69.04027169 0.21372705 -64.29026222 0.18519592 C-42.85986663 0.05668225 -21.43084962 -0.03695431 0 0 Z " fill="#484643" transform="translate(203,4)"/>
<path d="M0 0 C72.27 0 144.54 0 219 0 C219 0.33 219 0.66 219 1 C340.11 1.33 461.22 1.66 586 2 C586 2.99 586 3.98 586 5 C562.91676523 5.18102694 539.83342745 5.34560885 516.75 5.5 C515.86303751 5.50594854 514.97607502 5.51189708 514.06223488 5.51802588 C445.95798897 5.97360531 377.85565499 6.08839436 309.75 6.0625 C308.02640416 6.06186365 308.02640416 6.06186365 306.2679882 6.06121445 C276.84531735 6.0501667 247.42265744 6.03012884 218 6 C218 5.67 218 5.34 218 5 C215.36 4.67 212.72 4.34 210 4 C210.33 3.01 210.66 2.02 211 1 C141.37 1 71.74 1 0 1 C0 0.67 0 0.34 0 0 Z " fill="#222120" transform="translate(0,243)"/>
<path d="M0 0 C193.38 0 386.76 0 586 0 C586 0.99 586 1.98 586 3 C392.62 3 199.24 3 0 3 C0 2.01 0 1.02 0 0 Z " fill="#727271" transform="translate(0,144)"/>
<path d="M0 0 C26.30297911 -0.04666216 52.60595204 -0.08196041 78.90896416 -0.10362434 C91.12112687 -0.11394937 103.33326392 -0.12803306 115.54541016 -0.15087891 C126.18599563 -0.17077532 136.82656251 -0.18370751 147.46716607 -0.18817699 C153.10445526 -0.19079074 158.74169127 -0.1969595 164.37896347 -0.21146011 C169.67955991 -0.22498487 174.980081 -0.22923304 180.28069305 -0.22621536 C182.23105147 -0.22676782 184.18141228 -0.23077554 186.13175583 -0.23841095 C188.78486126 -0.2482924 191.43767835 -0.24599396 194.09078979 -0.24050903 C195.2610086 -0.24924756 195.2610086 -0.24924756 196.4548682 -0.25816262 C201.77175758 -0.22824242 201.77175758 -0.22824242 204 2 C204 2.99 204 3.98 204 5 C204.82560677 4.98120789 204.82560677 4.98120789 205.66789246 4.96203613 C239.05113285 4.21300078 272.42377279 3.88901298 305.81494522 3.87661743 C308.68590892 3.8750009 311.55686466 3.87144106 314.42782593 3.86743164 C318.99430897 3.86156417 323.56075855 3.86136166 328.12724304 3.86568069 C329.82123293 3.86667313 331.51522458 3.86609987 333.20921326 3.86384201 C335.54795617 3.86127807 337.88660574 3.86511333 340.2253418 3.87060547 C341.53963669 3.87140106 342.85393158 3.87219666 344.20805359 3.87301636 C348.21030614 4.00704267 352.0368932 4.44523147 356 5 C356 5.33 356 5.66 356 6 C357.98 6.33 359.96 6.66 362 7 C362 7.66 362 8.32 362 9 C362.99 9.33 363.98 9.66 365 10 C363.68 10 362.36 10 361 10 C361 9.34 361 8.68 361 8 C360.23204259 8.07193542 359.46408518 8.14387083 358.67285633 8.21798611 C350.19288214 8.94927958 341.81279475 9.10646411 333.30541992 9.02172852 C331.88480451 9.0115547 330.46418557 9.00186455 329.04356384 8.99261475 C325.23035615 8.96644377 321.41723304 8.93360558 317.6040895 8.89946485 C313.60297656 8.86481008 309.6018189 8.8364332 305.60066223 8.80735779 C298.04328894 8.75150299 290.48597163 8.69009583 282.92865878 8.62663645 C274.31670374 8.55459579 265.70470422 8.48883227 257.09269559 8.42356598 C239.39507245 8.2893051 221.69751953 8.14725894 204 8 C203.67 6.68 203.34 5.36 203 4 C202.33566106 4.02978156 201.67132212 4.05956312 200.98685169 4.09024715 C179.29346815 5.02812267 157.63394961 5.13518548 135.92391372 5.10139394 C131.12475851 5.09502953 126.32560226 5.09454648 121.52644348 5.09336853 C112.48924844 5.090293 103.45206589 5.08213202 94.41487628 5.07201904 C84.10484905 5.06073868 73.79482114 5.05531779 63.48478925 5.05032361 C42.32318594 5.03994504 21.16159376 5.02242094 0 5 C0 3.35 0 1.7 0 0 Z " fill="#61605E" transform="translate(0,0)"/>
<path d="M0 0 C70.29 0 140.58 0 213 0 C213 0.66 213 1.32 213 2 C213.56589844 2.17015625 214.13179687 2.3403125 214.71484375 2.515625 C215.44832031 2.75796875 216.18179688 3.0003125 216.9375 3.25 C217.66839844 3.48203125 218.39929688 3.7140625 219.15234375 3.953125 C219.76207031 4.29859375 220.37179688 4.6440625 221 5 C221.33 6.32 221.66 7.64 222 9 C342.12 9.33 462.24 9.66 586 10 C586 10.33 586 10.66 586 11 C465.55 11 345.1 11 221 11 C221 10.34 221 9.68 221 9 C218.36 9 215.72 9 213 9 C213 8.67 213 8.34 213 8 C211.35 7.67 209.7 7.34 208 7 C208 6.67 208 6.34 208 6 C139.36 5.67 70.72 5.34 0 5 C0 3.35 0 1.7 0 0 Z " fill="#747372" transform="translate(0,204)"/>
<path d="M0 0 C71.61 0 143.22 0 217 0 C217.33 1.32 217.66 2.64 218 4 C339.44 4 460.88 4 586 4 C586 4.33 586 4.66 586 5 C392.62 5 199.24 5 0 5 C0 3.35 0 1.7 0 0 Z " fill="#737271" transform="translate(0,180)"/>
<path d="M0 0 C95.98030595 -0.13745133 191.95796592 0.02494221 287.9375 0.4375 C289.21305724 0.44297317 290.48861448 0.44844633 291.80282497 0.45408535 C389.86904515 0.87553121 487.93472464 1.3985926 586 2 C586 2.33 586 2.66 586 3 C491.68076008 3.70955425 397.36204059 4.1053785 282.6632266 4.12501526 C280.62481022 4.125 278.58639383 4.12501526 276.54797745 4.12503052 C184.36262767 4.12489369 92.1817736 3.83100954 0 3 C0 2.01 0 1.02 0 0 Z " fill="#201F1E" transform="translate(0,431)"/>
<path d="M0 0 C54.78 0 109.56 0 166 0 C166 0.99 166 1.98 166 3 C166.66 3 167.32 3 168 3 C168 3.66 168 4.32 168 5 C168.57684099 5.00423194 169.15368198 5.00846388 169.74800301 5.01282406 C183.79512642 5.11620726 197.84220089 5.22485635 211.88923836 5.33933926 C218.68232668 5.39457621 225.47542026 5.4480423 232.26855469 5.49731445 C238.82379758 5.54486612 245.37898975 5.59738593 251.93416977 5.65294075 C254.43559355 5.67332715 256.93703148 5.69204631 259.43848038 5.70907402 C262.94097257 5.73320022 266.44336762 5.76324369 269.94580078 5.79467773 C270.98086258 5.8004332 272.01592438 5.80618866 273.08235168 5.81211853 C277.82850257 5.86056161 282.33357176 6.01549558 287 7 C287 7.33 287 7.66 287 8 C270.6666769 8.03244826 254.33335142 8.05156975 238 8.0625 C236.73041821 8.06335602 235.46083641 8.06421204 234.15278244 8.06509399 C181.62141985 8.09615966 129.09270462 7.82973204 76.5625 7.5 C75.13284912 7.49103943 75.13284912 7.49103943 73.67431641 7.48189783 C49.11616691 7.3278447 24.55806221 7.16738532 0 7 C0 4.69 0 2.38 0 0 Z " fill="#727171" transform="translate(0,420)"/>
<path d="M0 0 C21.66268718 -0.02341189 43.32537225 -0.04101978 64.98806953 -0.05181217 C75.04755197 -0.05695756 85.10702653 -0.06396662 95.16650391 -0.07543945 C103.93941086 -0.08544014 112.71231211 -0.0918662 121.4852246 -0.09408849 C126.12577832 -0.09538649 130.76631571 -0.09841422 135.40686417 -0.10573006 C139.78493211 -0.11257542 144.16297717 -0.11459983 148.54104996 -0.11310768 C150.13805262 -0.11338021 151.73505614 -0.11533438 153.33205414 -0.11920547 C161.96113137 -0.13907595 170.50647583 0.06291527 179.11140442 0.76519012 C182.71976697 1.05850885 186.31131779 1.20433285 189.9296875 1.31640625 C191.23808594 1.35830078 192.54648438 1.40019531 193.89453125 1.44335938 C195.20808594 1.48267578 196.52164063 1.52199219 197.875 1.5625 C199.25651843 1.60586532 200.63802893 1.64948404 202.01953125 1.69335938 C205.34628541 1.79804744 208.6730955 1.90022495 212 2 C212 2.66 212 3.32 212 4 C213.98 4.99 213.98 4.99 216 6 C202.22581898 6.76228109 188.50955101 7.14262073 174.71557617 7.11352539 C172.79132082 7.11324228 170.86706535 7.11340366 168.94281006 7.1139679 C163.79338163 7.11425105 158.6439772 7.10843339 153.49455428 7.10139394 C148.08542619 7.09507906 142.67629735 7.09455024 137.26716614 7.09336853 C127.05743691 7.09027894 116.84771857 7.082098 106.63799411 7.07201904 C95.00048697 7.06078363 83.36297927 7.05532886 71.72546804 7.05032361 C47.81697269 7.03991301 23.90848696 7.02236021 0 7 C0 4.69 0 2.38 0 0 Z " fill="#7C7B7B" transform="translate(0,48)"/>
<path d="M0 0 C64.35 0 128.7 0 195 0 C195 0.66 195 1.32 195 2 C196.98 2 198.96 2 201 2 C201 2.66 201 3.32 201 4 C328.05 4 455.1 4 586 4 C586 4.33 586 4.66 586 5 C392.62 5 199.24 5 0 5 C0 3.35 0 1.7 0 0 Z " fill="#737271" transform="translate(0,396)"/>
<path d="M0 0 C72.27 0 144.54 0 219 0 C219 0.66 219 1.32 219 2 C220.32 2 221.64 2 223 2 C223 2.99 223 3.98 223 5 C277.45 5.495 277.45 5.495 333 6 C333 6.33 333 6.66 333 7 C280.2 7 227.4 7 173 7 C173 6.67 173 6.34 173 6 C115.91 5.67 58.82 5.34 0 5 C0 3.35 0 1.7 0 0 Z " fill="#666563" transform="translate(0,120)"/>
<path d="M0 0 C100.29283434 -0.12015485 200.58309542 -0.0385696 300.875 0.4375 C302.03027506 0.44297317 303.18555012 0.44844633 304.37583351 0.45408535 C339.91729303 0.62274587 375.45866121 0.80771358 411 1 C413.25020345 1.01215208 415.5004069 1.02430316 417.75061035 1.03645325 C473.83384678 1.33951616 529.9169777 1.65961305 586 2 C586 2.33 586 2.66 586 3 C392.62 3 199.24 3 0 3 C0 2.01 0 1.02 0 0 Z " fill="#232322" transform="translate(0,411)"/>
<path d="M0 0 C28.42537513 -0.02339504 56.8507488 -0.04101158 85.27613163 -0.05181217 C98.47551356 -0.05696111 111.6748895 -0.06397703 124.87426758 -0.07543945 C136.38331924 -0.08542919 147.89236656 -0.09186363 159.40142244 -0.09408849 C165.49126914 -0.09538832 171.58110342 -0.09842795 177.67094612 -0.10573006 C183.41232441 -0.11255803 189.15368525 -0.11460326 194.89506721 -0.11310768 C196.99315486 -0.11338098 199.09124313 -0.11534565 201.18932724 -0.11920547 C212.50708855 -0.13899124 223.7184127 0.03526756 235 1 C235 1.66 235 2.32 235 3 C350.83 3.33 466.66 3.66 586 4 C586 4.33 586 4.66 586 5 C463.57 5 341.14 5 215 5 C215 4.67 215 4.34 215 4 C108.575 3.505 108.575 3.505 0 3 C0 2.01 0 1.02 0 0 Z " fill="#797876" transform="translate(0,240)"/>
<path d="M0 0 C69.3 0 138.6 0 210 0 C210 0.66 210 1.32 210 2 C212.64 2.66 215.28 3.32 218 4 C218 4.33 218 4.66 218 5 C146.06 5 74.12 5 0 5 C0 3.35 0 1.7 0 0 Z " fill="#767675" transform="translate(0,268)"/>
<path d="M0 0 C69.3 0 138.6 0 210 0 C210 1.65 210 3.3 210 5 C140.7 5 71.4 5 0 5 C0 3.35 0 1.7 0 0 Z " fill="#757473" transform="translate(0,152)"/>
<path d="M0 0 C53.46 0 106.92 0 162 0 C162 0.66 162 1.32 162 2 C183.78 2 205.56 2 228 2 C228.33 2.99 228.66 3.98 229 5 C153.43 5 77.86 5 0 5 C0 3.35 0 1.7 0 0 Z " fill="#797877" transform="translate(0,332)"/>
<path d="M0 0 C74.58 0 149.16 0 226 0 C226 0.33 226 0.66 226 1 C344.8 1.33 463.6 1.66 586 2 C586 2.33 586 2.66 586 3 C392.62 3 199.24 3 0 3 C0 2.01 0 1.02 0 0 Z " fill="#262626" transform="translate(0,297)"/>
<path d="M0 0 C20.88038422 -0.02341533 41.76076626 -0.04102146 62.64116096 -0.05181217 C72.33743861 -0.05695684 82.03370808 -0.06396449 91.72998047 -0.07543945 C100.18646115 -0.08544238 108.6429359 -0.09186672 117.09942234 -0.09408849 C121.57230227 -0.09538611 126.04516524 -0.09841141 130.5180397 -0.10573006 C134.73851891 -0.11257898 138.95897438 -0.11459913 143.17945862 -0.11310768 C144.71840927 -0.11338006 146.25736081 -0.11533206 147.79630661 -0.11920547 C156.23612306 -0.13938403 164.60421747 0.07609253 173.02032471 0.76519012 C177.23809254 1.09756646 181.45099679 1.22328763 185.6796875 1.31640625 C186.50332794 1.33718735 187.32696838 1.35796844 188.17556763 1.37937927 C190.74198165 1.44345176 193.30847455 1.50307846 195.875 1.5625 C197.64193442 1.60582153 199.4088616 1.64943945 201.17578125 1.69335938 C205.45044527 1.79898089 209.72518644 1.90062289 214 2 C214 2.66 214 3.32 214 4 C214.99 4.495 214.99 4.495 216 5 C144.72 5 73.44 5 0 5 C0 3.35 0 1.7 0 0 Z " fill="#7F7F7E" transform="translate(0,112)"/>
<path d="M0 0 C25.39029907 -0.02333147 50.78059654 -0.0409804 76.17090416 -0.05181217 C87.95931735 -0.0569746 99.74772389 -0.06401629 111.53613281 -0.07543945 C121.80755417 -0.08538791 132.07897071 -0.09185382 142.35039675 -0.09408849 C147.79204887 -0.09539532 153.23368721 -0.09847945 158.67533493 -0.10573006 C163.79206283 -0.11249281 168.90877121 -0.11461643 174.02550316 -0.11310768 C175.90813109 -0.11338389 177.79075964 -0.11538751 179.67338371 -0.11920547 C182.23445913 -0.12414669 184.79545989 -0.12299668 187.35653687 -0.12025452 C188.48590072 -0.12462378 188.48590072 -0.12462378 189.63808 -0.12908131 C194.77175758 -0.11412121 194.77175758 -0.11412121 197 1 C199.10520543 1.10025316 201.21366698 1.13392144 203.32125282 1.1386652 C203.98033787 1.14150742 204.63942293 1.14434964 205.31848025 1.14727798 C207.54848365 1.15566426 209.77843537 1.15689625 212.00845337 1.15821838 C213.61472809 1.16278106 215.22100161 1.16778065 216.82727373 1.17318195 C221.25796463 1.18680599 225.68864784 1.19419371 230.11935425 1.20060861 C234.8910157 1.20859388 239.66266103 1.22229807 244.43431091 1.23532104 C252.70709352 1.25711045 260.97987774 1.2752459 269.2526741 1.29092598 C281.21386904 1.31360222 293.17504615 1.34174812 305.13622598 1.37124526 C324.54067925 1.41894877 343.9451398 1.46220545 363.34960938 1.50268555 C382.20345629 1.54202645 401.05729672 1.58344929 419.91113281 1.62768555 C421.07254865 1.63040982 422.23396448 1.63313409 423.43057473 1.63594092 C429.25683726 1.64962016 435.08309969 1.66334048 440.90936208 1.67708123 C489.27289455 1.79108933 537.63644105 1.89788908 586 2 C586 2.33 586 2.66 586 3 C392.62 3 199.24 3 0 3 C0 2.01 0 1.02 0 0 Z " fill="#858583" transform="translate(0,354)"/>
<path d="M0 0 C22.63490729 -0.11669503 45.26976514 -0.20492032 67.90491199 -0.25906086 C78.4143306 -0.28486514 88.92356253 -0.3200581 99.43286133 -0.37719727 C108.59057556 -0.42696421 117.74815462 -0.45927483 126.90600032 -0.47044247 C131.75707678 -0.47697263 136.6077665 -0.49236626 141.45871925 -0.52865028 C146.02156597 -0.56250391 150.58386542 -0.57307461 155.14682579 -0.56553841 C156.82426804 -0.56691774 158.50172797 -0.57691366 160.17906189 -0.59602737 C162.46456167 -0.62080105 164.74797851 -0.61496507 167.03352356 -0.60127258 C168.31389401 -0.60588155 169.59426447 -0.61049051 170.91343403 -0.61523914 C171.9320008 -0.41221023 172.95056757 -0.20918131 174 0 C174.99 1.65 175.98 3.3 177 5 C89.385 4.505 89.385 4.505 0 4 C0 2.68 0 1.36 0 0 Z " fill="#777676" transform="translate(0,101)"/>
<path d="M0 0 C64.35 0 128.7 0 195 0 C195 0.66 195 1.32 195 2 C197.97 2 200.94 2 204 2 C204 2.66 204 3.32 204 4 C204.99 4 205.98 4 207 4 C207 4.66 207 5.32 207 6 C207.99 6.495 207.99 6.495 209 7 C205.04907941 7.07409401 201.09842706 7.12857406 197.14697266 7.16479492 C195.14080626 7.18732251 193.13483474 7.2254357 191.12890625 7.26367188 C189.87207031 7.27333984 188.61523438 7.28300781 187.3203125 7.29296875 C185.57645264 7.31653442 185.57645264 7.31653442 183.79736328 7.34057617 C182.8742334 7.22818604 181.95110352 7.1157959 181 7 C180.01 5.515 180.01 5.515 179 4 C179.66 4 180.32 4 181 4 C181 3.34 181 2.68 181 2 C180.40147311 2.07087043 179.80294622 2.14174086 179.18628216 2.21475887 C170.50233922 3.13215407 161.86410186 3.13425268 153.14575195 3.11352539 C151.4692739 3.11324281 149.79279573 3.11340263 148.11631775 3.1139679 C143.59644112 3.11425311 139.07659139 3.10840113 134.55672097 3.10139394 C129.82152206 3.09511433 125.08632243 3.09455297 120.35112 3.09336853 C111.39832389 3.09026875 102.44554009 3.08207369 93.49274939 3.07201904 C83.29438289 3.06081577 73.09601577 3.05533686 62.89764464 3.05032361 C41.93175624 3.03988987 20.9658789 3.02231676 0 3 C0 2.01 0 1.02 0 0 Z " fill="#81807F" transform="translate(0,28)"/>
<path d="M0 0 C25.4343107 -0.07007769 50.86860693 -0.12298214 76.30299473 -0.15543652 C88.11259246 -0.1709061 99.92213022 -0.19199744 111.73168945 -0.22631836 C122.02476715 -0.25621783 132.31780141 -0.27557434 142.61092132 -0.28226548 C148.06116516 -0.28617679 153.51128471 -0.29537097 158.96148872 -0.31719017 C164.09222651 -0.33756387 169.22278891 -0.34383196 174.35356331 -0.33932304 C176.23571221 -0.34014784 178.11786703 -0.34610818 179.99998093 -0.35761642 C182.57263535 -0.37257438 185.14463026 -0.36894164 187.71730042 -0.36076355 C188.45953639 -0.36950207 189.20177237 -0.3782406 189.96650034 -0.38724393 C195.81596971 -0.33709237 200.76301117 0.76301117 205 5 C188.5 5 172 5 155 5 C155 4.67 155 4.34 155 4 C78.275 3.505 78.275 3.505 0 3 C0 2.01 0 1.02 0 0 Z " fill="#7B7B7A" transform="translate(0,348)"/>
<path d="M0 0 C64.35 0 128.7 0 195 0 C195 0.66 195 1.32 195 2 C196.98 2 198.96 2 201 2 C201 2.66 201 3.32 201 4 C175.77679086 4.02960806 150.55577699 3.96412543 125.33312345 3.79807091 C120.89705034 3.76914012 116.46096823 3.74165491 112.02488708 3.71398926 C103.69634398 3.66184238 95.36780922 3.60847326 87.03927702 3.5546174 C77.52707245 3.49317051 68.01485897 3.43315867 58.50264466 3.37324238 C39.00175309 3.25037776 19.50087289 3.12579221 0 3 C0 2.01 0 1.02 0 0 Z " fill="#7D7D7C" transform="translate(0,396)"/>
<path d="M0 0 C28.12834257 -0.06999113 56.25667214 -0.12293955 84.38508415 -0.15543652 C97.44474061 -0.17092452 110.50434305 -0.19205088 123.56396484 -0.22631836 C134.94287848 -0.25616162 146.32175301 -0.27556092 157.70070469 -0.28226548 C163.7292592 -0.28618636 169.75770181 -0.29544092 175.78622055 -0.31719017 C181.45454655 -0.33747525 187.122714 -0.34385003 192.79107285 -0.33932304 C194.87689067 -0.34015183 196.96271351 -0.34616474 199.04850006 -0.35761642 C201.88563001 -0.37243579 204.72215308 -0.36899249 207.55929565 -0.36076355 C208.3939148 -0.36950207 209.22853395 -0.3782406 210.08844459 -0.38724393 C212.38055229 -0.36914349 212.38055229 -0.36914349 216 0 C216.99 1.485 216.99 1.485 218 3 C146.06 3 74.12 3 0 3 C0 2.01 0 1.02 0 0 Z " fill="#444444" transform="translate(0,117)"/>
<path d="M0 0 C60.06 0 120.12 0 182 0 C182 0.66 182 1.32 182 2 C183.02154175 2.02187378 183.02154175 2.02187378 184.0637207 2.04418945 C187.14722215 2.11862696 190.22963567 2.21530083 193.3125 2.3125 C194.9202832 2.34633789 194.9202832 2.34633789 196.56054688 2.38085938 C198.10258789 2.4340332 198.10258789 2.4340332 199.67578125 2.48828125 C200.62364502 2.51446533 201.57150879 2.54064941 202.5480957 2.56762695 C205 3 205 3 208 6 C198.76 6 189.52 6 180 6 C180 5.34 180 4.68 180 4 C120.6 3.67 61.2 3.34 0 3 C0 2.01 0 1.02 0 0 Z " fill="#8E8D8D" transform="translate(0,66)"/>
<path d="M0 0 C19.50309468 -0.0237326 39.0061863 -0.04117147 58.5092926 -0.05181217 C67.57211807 -0.05689188 76.63493431 -0.06379517 85.69775391 -0.07543945 C128.14472015 -0.12892226 170.56258147 -0.00369244 213 1 C213.33 1.99 213.66 2.98 214 4 C171.99293053 4.10614083 129.98858431 3.82426843 87.98264658 3.55461788 C78.361484 3.49291936 68.74031037 3.43302826 59.11913574 3.37324238 C39.41274484 3.25074894 19.70636793 3.12613214 0 3 C0 2.01 0 1.02 0 0 Z " fill="#888888" transform="translate(0,164)"/>
<path d="M0 0 C18.98155936 -0.02374414 37.96311557 -0.04117677 56.94468689 -0.05181217 C65.76537587 -0.05688959 74.58605534 -0.06378807 83.40673828 -0.07543945 C125.28430084 -0.12968437 167.13172781 0.0178872 209 1 C209 1.33 209 1.66 209 2 C210.98 2.33 212.96 2.66 215 3 C215 3.33 215 3.66 215 4 C171.59068096 4.09247187 128.18553458 3.84468212 84.77739751 3.55461788 C75.50193505 3.49271076 66.22645925 3.43291919 56.95098221 3.37324238 C37.96730657 3.25106051 18.98364786 3.1264205 0 3 C0 2.01 0 1.02 0 0 Z " fill="#878686" transform="translate(0,212)"/>
<path d="M0 0 C60.39 0 120.78 0 183 0 C183 0.66 183 1.32 183 2 C187.62 2 192.24 2 197 2 C197 2.66 197 3.32 197 4 C99.485 3.505 99.485 3.505 0 3 C0 2.01 0 1.02 0 0 Z " fill="#989898" transform="translate(0,20)"/>
<path d="M0 0 C52.47 0 104.94 0 159 0 C159.33 0.99 159.66 1.98 160 3 C107.2 3 54.4 3 0 3 C0 2.01 0 1.02 0 0 Z " fill="#505050" transform="translate(0,281)"/>
<path d="M0 0 C52.14 0 104.28 0 158 0 C158 0.66 158 1.32 158 2 C158.99 2.495 158.99 2.495 160 3 C107.2 3 54.4 3 0 3 C0 2.01 0 1.02 0 0 Z " fill="#515050" transform="translate(0,231)"/>
<path d="M0 0 C26.30296793 -0.06999322 52.60592195 -0.12294058 78.90896416 -0.15543652 C91.12114444 -0.17092408 103.33326695 -0.19204959 115.54541016 -0.22631836 C126.18599584 -0.25616298 136.8265397 -0.27556125 147.46716607 -0.28226548 C153.10448451 -0.28618613 158.74168328 -0.29543922 164.37896347 -0.31719017 C169.6795848 -0.3374774 174.98003659 -0.3438496 180.28069305 -0.33932304 C182.23105667 -0.34015174 184.18142567 -0.3461634 186.13175583 -0.35761642 C188.78497887 -0.37243926 191.43755321 -0.36899133 194.09078979 -0.36076355 C195.2610086 -0.37387134 195.2610086 -0.37387134 196.4548682 -0.38724393 C198.59919548 -0.36914349 198.59919548 -0.36914349 202 0 C202.99 1.485 202.99 1.485 204 3 C181.27338485 3.03750726 158.54866289 2.93478924 135.82251978 2.79807091 C131.02604188 2.76940679 126.2295581 2.74175828 121.43307495 2.71398926 C112.4029982 2.66156224 103.37292686 2.60825855 94.34285724 2.5546174 C84.04006411 2.4934603 73.73726515 2.43331475 63.43446565 2.37324238 C42.28963722 2.24993151 21.1448162 2.12538864 0 2 C0 1.34 0 0.68 0 0 Z " fill="#6E6D6D" transform="translate(0,0)"/>
<path d="M0 0 C0 0.99 0 1.98 0 3 C-57.09 2.67 -114.18 2.34 -173 2 C-173 1.67 -173 1.34 -173 1 C-152.06780342 0.86920038 -131.13560443 0.73879308 -110.20340252 0.60884857 C-100.48350091 0.54849956 -90.76360011 0.48802377 -81.04370117 0.42724609 C-72.56857309 0.37425219 -64.09344354 0.32149966 -55.61831218 0.26903296 C-51.13379705 0.2412625 -46.64928272 0.2133739 -42.16477013 0.18519592 C-37.93692133 0.15863449 -33.70907064 0.13239774 -29.48121834 0.10640144 C-27.93617047 0.09684555 -26.39112331 0.08717481 -24.84607697 0.07737541 C-16.56398574 0.02491642 -8.28228956 -0.01453023 0 0 Z " fill="#030201" transform="translate(173,110)"/>
</svg>
