<?xml version="1.0" encoding="UTF-8"?>
<svg version="1.1" xmlns="http://www.w3.org/2000/svg" width="1645" height="1654">
<path d="M0 0 C542.85 0 1085.7 0 1645 0 C1645 545.82 1645 1091.64 1645 1654 C1102.15 1654 559.3 1654 0 1654 C0 1108.18 0 562.36 0 0 Z " fill="#0070CF" transform="translate(0,0)"/>
<path d="M0 0 C8.89822677 7.10269172 13.92879325 16.86290726 16 28 C16.26343263 31.15503076 16.26897593 34.28971712 16.2515564 37.45439148 C16.25452654 38.37493736 16.25749667 39.29548323 16.26055682 40.24392444 C16.26816256 43.3120133 16.26171678 46.37990879 16.25537109 49.44799805 C16.25812264 51.65465931 16.26180354 53.86131959 16.26634216 56.06797791 C16.27444224 60.81292243 16.27662558 65.55781986 16.27439499 70.30277061 C16.27155684 77.81352445 16.28593327 85.3241846 16.30337524 92.83491516 C16.32655509 103.37227967 16.34567858 113.90963967 16.35839844 124.44702148 C16.35920881 125.11496638 16.36001918 125.78291127 16.3608541 126.47109691 C16.37206578 135.94127846 16.37735493 145.41145413 16.38024123 154.88164143 C16.38044522 155.54807036 16.38064921 156.2144993 16.38085938 156.90112305 C16.38105931 157.56673202 16.38125925 158.23234099 16.38146524 158.91811993 C16.3852074 170.04570933 16.40458523 181.17321782 16.43595374 192.30076438 C16.45611943 199.75861015 16.45856145 207.21618124 16.44767356 214.67404306 C16.4450572 219.32583551 16.45911578 223.9774697 16.47775459 228.62922096 C16.4830545 230.77652533 16.48161774 232.92385926 16.47271919 235.07115173 C16.41028544 251.46726817 17.27122266 265.3394027 29 278 C32.13953968 280.79590848 35.26237063 283.07485145 39 285 C39.65033203 285.3494165 40.30066406 285.69883301 40.97070312 286.05883789 C50.11480648 290.19892095 59.93540153 289.637886 69.76904297 289.57641602 C72.86144961 289.56256071 75.95081682 289.59668494 79.04296875 289.63476562 C93.0729027 289.6896346 104.87634475 288.49025173 116.00390625 278.99609375 C126.53645953 268.46354047 129.50172767 255.95372287 129.53100586 241.4370575 C129.52163878 239.85500858 129.51185969 238.27296205 129.50170898 236.69091797 C129.50550049 234.98945165 129.51100734 233.28798843 129.51808167 231.58653259 C129.53193459 227.00653479 129.5209435 222.42691685 129.50437045 217.84694052 C129.49044084 213.04241795 129.49698813 208.23791565 129.50050354 203.43338013 C129.50319683 195.37902754 129.4897972 187.32482476 129.46655273 179.27050781 C129.43985808 169.9561152 129.43822775 160.64197147 129.4499411 151.32755363 C129.46070724 142.3536427 129.45454682 133.37982188 129.44038582 124.40591812 C129.43462498 120.59016924 129.43470923 116.77448627 129.43945122 112.95873642 C129.44421288 108.47536849 129.43415335 103.99227458 129.41249657 99.50895882 C129.40692075 97.86218375 129.40647066 96.2153824 129.41144943 94.56860542 C129.41738167 92.32577487 129.40493878 90.08378829 129.38768005 87.84103394 C129.38525016 86.58492247 129.38282026 85.328811 129.38031673 84.03463554 C129.23937645 81.0391251 129.23937645 81.0391251 127.69842625 79.09196663 C124.86631774 77.27112337 122.25477046 77.70411178 119 78 C116.63704743 80.36295257 116.74573221 80.81298397 116.7215271 84.01760864 C116.71036362 84.85971893 116.69920013 85.70182922 116.68769836 86.56945801 C116.68445808 87.96037659 116.68445808 87.96037659 116.68115234 89.37939453 C116.67110672 90.35597015 116.6610611 91.33254578 116.65071106 92.3387146 C116.61959033 95.603408 116.60271432 98.86801621 116.5859375 102.1328125 C116.56718241 104.43635721 116.54760594 106.73989537 116.5272522 109.04342651 C116.47565095 115.16363392 116.43629048 121.2838652 116.39910889 127.4041748 C116.36775236 132.24355901 116.32794454 137.08285331 116.28748703 141.92216873 C116.23801558 147.86735995 116.19279815 153.81258121 116.1484375 159.7578125 C116.13506474 161.52528713 116.13506474 161.52528713 116.12142181 163.32846832 C116.02794308 176.14426359 115.98778565 188.95658854 116.08300781 201.77246094 C116.09600621 203.97199403 116.1088371 206.17152813 116.12149048 208.37106323 C116.14528444 212.44644461 116.18880542 216.52092265 116.24447632 220.59597778 C116.37695317 235.06164472 115.70259475 247.82103362 107 260 C106.4225 260.886875 105.845 261.77375 105.25 262.6875 C97.00692144 271.15955297 87.15209161 276.00342998 75.36743164 276.47094727 C62.03572216 276.63455183 52.04239974 273.05846321 42 264 C32.76734007 253.51690561 29.84430774 242.05326906 29.85955811 228.38044739 C29.85658698 227.53763786 29.85361586 226.69482834 29.8505547 225.82647914 C29.84191566 223.01557549 29.84036354 220.20471467 29.83886719 217.39379883 C29.83423563 215.37285268 29.82921051 213.3519074 29.82382202 211.33096313 C29.8107288 205.84934211 29.8042591 200.36773331 29.79981136 194.8860991 C29.79687573 191.45787979 29.79277 188.02966379 29.78830719 184.60144615 C29.7746405 173.86506091 29.76496973 163.12868327 29.7611053 152.39228994 C29.75662615 140.0177111 29.73908134 127.6432428 29.7101047 115.26869756 C29.68845811 105.69052653 29.67839943 96.11238653 29.67706418 86.53419131 C29.67601831 80.81953754 29.67015689 75.1049878 29.65224457 69.39035988 C29.63571234 64.01163061 29.63363337 58.63308301 29.64238358 53.25433731 C29.64315119 51.28720931 29.63884788 49.32007134 29.62892532 47.35296822 C29.54529014 29.73038705 31.16110814 15.56079656 43.640625 2.265625 C51.99271943 -5.75459813 62.85510785 -9.18840541 74.3125 -9.0625 C75.91544922 -9.04896484 75.91544922 -9.04896484 77.55078125 -9.03515625 C78.35902344 -9.02355469 79.16726563 -9.01195312 80 -9 C79.690625 -7.7625 79.38125 -6.525 79.0625 -5.25 C75.94661563 9.07410152 76.37937176 23.6725096 84.5 36.33984375 C92.22992301 46.80744782 101.90096268 54.6140187 115 57 C130.85719235 58.02467027 142.59350418 55.63125739 155 45 C163.34426814 37.37661895 168.58773485 25.80615102 169.1796875 14.59765625 C169.32720695 6.52506385 168.64762949 -1.10020504 167 -9 C179.78622482 -9.41245887 190.88905219 -6.56063689 201.3125 1.25 C215.787646 16.0617773 215.58139827 31.50419016 215.49829102 51.07421875 C215.5021177 53.62119361 215.50773971 56.16816632 215.51501465 58.71513367 C215.52693285 64.18090643 215.52698215 69.64647208 215.51642036 75.11224365 C215.50142586 83.01895494 215.51143512 90.92548786 215.52793955 98.83218908 C215.55434147 111.66889262 215.56526147 124.50555592 215.56420898 137.34228516 C215.5641215 138.49238611 215.5641215 138.49238611 215.56403225 139.66572142 C215.56376636 142.77297521 215.56344906 145.880229 215.56306899 148.98748279 C215.56210103 157.55855026 215.56343344 166.12961653 215.56616211 174.70068359 C215.566402 175.46890115 215.56664189 176.23711871 215.56688906 177.02861559 C215.57129285 189.8298151 215.58751034 202.6309772 215.6113829 215.43215466 C215.62545738 223.3222472 215.62833025 231.21219777 215.61676001 239.10229522 C215.60858441 245.13794105 215.6152744 251.1734728 215.62744904 257.20911598 C215.62986318 259.68755961 215.62709183 262.16601435 215.61884117 264.64444542 C215.6082763 268.01883976 215.61592837 271.39271283 215.62818909 274.76708984 C215.62061303 275.75500865 215.61303698 276.74292746 215.60523134 277.7607832 C215.61222109 278.66354646 215.61921084 279.56630972 215.62641239 280.49642944 C215.62600786 281.6645646 215.62600786 281.6645646 215.62559515 282.85629845 C216.1086018 285.62181315 217.05583593 286.99348136 219 289 C222.5 289.66666667 222.5 289.66666667 226 289 C228.06092916 287.23799842 228.88742494 285.77329281 229.27902794 283.08332062 C229.41141422 280.59834764 229.43637384 278.13013835 229.43237305 275.64160156 C229.4425647 274.69492111 229.45275635 273.74824066 229.46325684 272.77287292 C229.49343844 269.64539715 229.50266079 266.51822741 229.51171875 263.390625 C229.52856158 261.22156756 229.54671128 259.05251991 229.56611633 256.88348389 C229.61366529 251.17562924 229.6434431 245.46781426 229.66955566 239.75982666 C229.70457276 232.91064939 229.76159944 226.06162449 229.81494904 219.21257019 C229.89352029 208.80839924 229.94408295 198.40442852 230 188 C258.05 188 286.1 188 315 188 C315.03738281 195.03957031 315.07476563 202.07914063 315.11328125 209.33203125 C315.14354754 213.78452999 315.17468662 218.23698809 315.20898438 222.68945312 C315.26337204 229.76080317 315.31447924 236.83207283 315.34643555 243.90356445 C315.3723934 249.60303178 315.4127423 255.30223021 315.46318626 261.0015316 C315.47990596 263.17885691 315.49138834 265.35622879 315.49761391 267.53360939 C315.50719956 270.57713825 315.53519232 273.61997116 315.56762695 276.66333008 C315.56547432 278.0217099 315.56547432 278.0217099 315.5632782 279.40753174 C315.58208542 280.65059837 315.58208542 280.65059837 315.60127258 281.91877747 C315.60588155 282.63869779 315.61049051 283.35861811 315.61523914 284.10035419 C316.1181272 286.583219 317.00447722 287.47764068 319 289 C323.10414187 289.53657801 323.10414187 289.53657801 326.66397619 287.74741691 C328.33871685 285.55698428 328.37541224 284.40478278 328.37638092 281.66632938 C328.38779059 280.33084634 328.38779059 280.33084634 328.39943075 278.96838385 C328.38908985 277.49964564 328.38908985 277.49964564 328.37854004 276.00123596 C328.38533523 274.44200713 328.38533523 274.44200713 328.3922677 272.85127872 C328.40394105 269.35067817 328.39422442 265.85045612 328.38476562 262.34985352 C328.38886863 259.84674329 328.39432789 257.34363497 328.40104675 254.8405304 C328.412797 249.44013168 328.41558109 244.03984376 328.41069031 238.63943672 C328.40388502 230.81827176 328.41639608 222.99722754 328.43419749 215.17608415 C328.4628687 202.47001517 328.48036456 189.76395921 328.48876953 177.05786133 C328.4895303 175.9167316 328.4895303 175.9167316 328.49030644 174.75254875 C328.49383174 169.355866 328.4969604 163.95918304 328.5 158.5625 C328.50346601 152.41349265 328.50711629 146.26448547 328.51123047 140.11547852 C328.51173308 139.35838066 328.5122357 138.6012828 328.51275355 137.82124258 C328.5215135 125.17396602 328.54198584 112.52673402 328.57071257 99.87948745 C328.58785208 92.08445636 328.59449555 84.28955171 328.58740652 76.49450427 C328.58271339 70.51001654 328.59321675 64.52565402 328.60915565 58.54118156 C328.61314833 56.09352278 328.6120504 53.64584937 328.60538292 51.19819641 C328.59695536 47.84581791 328.60704497 44.49396411 328.62145996 41.14161682 C328.61111906 39.70299336 328.61111906 39.70299336 328.60056925 38.2353068 C328.71955526 23.94105375 332.91181847 12.63030124 342.640625 2.265625 C348.32261557 -3.19059111 354.47416075 -5.91435075 362 -8 C362.804375 -8.226875 363.60875 -8.45375 364.4375 -8.6875 C376.64829316 -10.17662112 388.73282695 -7.65721471 398.5390625 -0.0234375 C408.28794275 8.34507032 413.28360651 17.25252032 415 30 C415.1468707 33.47343256 415.14183354 36.94394426 415.13803101 40.42008972 C415.14085229 41.46848898 415.14367357 42.51688823 415.14658034 43.59705716 C415.15491196 47.10922725 415.15626333 50.62136576 415.15771484 54.13354492 C415.1623839 56.6516987 415.16752762 59.16985163 415.17311096 61.68800354 C415.18438408 67.10961555 415.19287192 72.53122105 415.19923019 77.95284081 C415.20956726 86.51922525 415.23013174 95.08557107 415.25234985 103.65193176 C415.25982869 106.58361709 415.26724248 109.51530257 415.27463722 112.44698811 C415.27648779 113.17954222 415.27833835 113.91209634 415.280245 114.66684907 C415.30115709 122.99884291 415.31999471 131.33084098 415.33789062 139.6628418 C415.3403479 140.80496796 415.3403479 140.80496796 415.34285481 141.97016738 C415.36917323 154.32528489 415.38780026 166.68040539 415.40448253 179.03553911 C415.42188654 191.72016802 415.45070952 204.40473809 415.4893719 217.08932 C415.5127954 224.91450165 415.52676856 232.73958742 415.52869953 240.56480441 C415.53105282 246.55382306 415.54888484 252.54269111 415.57256889 258.53166771 C415.57979244 260.99277786 415.5818482 263.45390919 415.57846642 265.91502762 C415.57459848 269.26384921 415.58893926 272.61210346 415.60800171 275.96086121 C415.60247201 276.94411273 415.59694232 277.92736425 415.59124506 278.94041127 C415.6000849 279.83443349 415.60892474 280.72845571 415.61803246 281.64956951 C415.61938898 282.42284515 415.62074551 283.19612079 415.62214315 283.99282902 C416.10071796 286.53501257 416.98056708 287.43059053 419 289 C421.05363606 289.3606631 421.05363606 289.3606631 423.1875 289.1875 C425.0746875 289.0946875 425.0746875 289.0946875 427 289 C427.9342641 286.19720771 428.12645445 284.51058681 428.13028526 281.61389065 C428.13390961 280.71188504 428.13753396 279.80987943 428.14126813 278.88054031 C428.14019988 277.88834442 428.13913163 276.89614854 428.13803101 275.87388611 C428.14085229 274.82073843 428.14367357 273.76759075 428.14658034 272.68252951 C428.1549465 269.13592052 428.15626633 265.58934267 428.15771484 262.04272461 C428.16238166 259.50681469 428.167525 256.97090562 428.17311096 254.43499756 C428.18440455 248.96423825 428.19288346 243.49348546 428.19923019 238.02271843 C428.20955734 229.37063949 428.23012238 220.71859896 428.25234985 212.06654358 C428.25982989 209.10590661 428.26724362 206.14526948 428.27463722 203.1846323 C428.27648779 202.44467997 428.27833835 201.70472764 428.280245 200.94235251 C428.30117705 192.51699201 428.3200016 184.09162724 428.33789062 175.66625977 C428.33952881 174.89601015 428.34116699 174.12576053 428.34285481 173.33217002 C428.36911563 160.86195989 428.38777196 148.3917468 428.40448253 135.92152076 C428.42192224 123.11378223 428.45078941 110.30610159 428.4893719 97.49840933 C428.51273471 89.60204803 428.52676312 81.70578114 428.52869953 73.80938501 C428.53106435 67.75091739 428.54897019 61.69259683 428.57256889 55.63417053 C428.57975707 53.15342722 428.5818652 50.67266309 428.57846642 48.1919117 C428.57456161 44.79940517 428.58905987 41.40744442 428.60800171 38.01499939 C428.59970717 36.55012814 428.59970717 36.55012814 428.59124506 35.05566353 C428.71177231 22.50833581 433.15917552 12.00784548 441.625 2.75 C450.19349401 -5.34337675 461.82020751 -9.57755529 473.55078125 -9.25 C485.08994391 -8.07215884 496.06871632 -3.66227757 504 5 C511.63039951 15.03666658 514.46683795 24.50890463 514.37854004 37.00827026 C514.38307017 38.07163231 514.3876003 39.13499436 514.3922677 40.2305795 C514.40383228 43.76956934 514.39426874 47.30817688 514.38476562 50.84716797 C514.38887328 53.39384707 514.3943353 55.9405243 514.40104675 58.48719788 C514.41275061 63.95842686 514.41560023 69.42954647 514.41069031 74.90078354 C514.40386562 82.81547062 514.41642793 90.7300391 514.43419749 98.64470495 C514.46280067 111.49360019 514.48034882 124.34248257 514.48876953 137.19140625 C514.48927671 137.95927122 514.48978389 138.72713619 514.49030644 139.51826979 C514.49434011 145.75150136 514.49783538 151.98473322 514.50130367 158.21796513 C514.50436227 163.67558369 514.5076342 169.13320207 514.51123047 174.59082031 C514.51198439 175.74393482 514.51198439 175.74393482 514.51275355 176.92034458 C514.52149215 189.73052573 514.54191292 202.5406626 514.57071257 215.35081398 C514.58789932 223.2484417 514.59447442 231.14594426 514.58740652 239.04358824 C514.58274065 245.08661544 514.59314805 251.12951727 514.60915565 257.17252922 C514.61317127 259.65419286 514.61201138 262.13587088 514.60538292 264.61752892 C514.59704863 267.99641858 514.60693754 271.37477444 514.62145996 274.75363159 C514.61456603 275.74291464 514.60767209 276.73219768 514.60056925 277.751459 C514.60817569 278.65545566 514.61578214 279.55945232 514.62361908 280.49084282 C514.62389146 281.27068374 514.62416385 282.05052465 514.62444448 282.85399711 C515.10856221 285.6203472 516.0549727 286.99278433 518 289 C521.5 289.66666667 521.5 289.66666667 525 289 C527.67631898 286.23939378 528.37474135 284.28231165 528.3707943 280.48360538 C528.37716734 279.57797543 528.38354039 278.67234547 528.39010656 277.73927218 C528.38184838 276.74814454 528.37359021 275.75701691 528.36508179 274.7358551 C528.36976028 273.15190167 528.36976028 273.15190167 528.3745333 271.53594917 C528.38149613 267.98549397 528.36712449 264.4354392 528.35302734 260.88500977 C528.35385787 258.34396791 528.35607319 255.80292618 528.35957336 253.2618866 C528.3645305 247.78237832 528.36068385 242.3029852 528.34955978 236.82348824 C528.333901 228.88689974 528.33947237 220.95043024 528.35117622 213.01383995 C528.37007897 200.11868216 528.37928814 187.22354054 528.37890625 174.32836914 C528.37888881 173.55648134 528.37887137 172.78459354 528.3788534 171.9893152 C528.37840171 163.38807653 528.37508429 154.78684369 528.36798096 146.18560791 C528.36734857 145.41363639 528.36671619 144.64166487 528.36606465 143.84630027 C528.36543208 143.07517427 528.36479952 142.30404826 528.36414778 141.5095548 C528.36287804 139.95469344 528.36161263 138.39983207 528.36035156 136.8449707 C528.35940928 135.69264413 528.35940928 135.69264413 528.35844795 134.51703823 C528.34847395 121.68099908 528.35786731 108.84505624 528.38253558 96.00903744 C528.39693183 88.09946683 528.39496142 80.19023626 528.37157358 72.28068548 C528.35500652 66.20755347 528.36432066 60.13473923 528.38294029 54.06160164 C528.38638224 51.57887953 528.3813365 49.09612822 528.36697197 46.61344528 C528.2780787 30.22913848 528.60055518 17.13404954 539.8359375 4.15234375 C548.27112856 -4.23716938 559.31833322 -8.74309481 571.125 -9.25 C583.22187993 -9.04669109 593.44079049 -4.45434516 602.25 3.6875 C611.56802037 13.55252966 614.31161657 24.61409402 614.25828552 37.77449036 C614.26196123 38.83684912 614.26563693 39.89920788 614.26942402 40.99375933 C614.27937681 44.54121767 614.27525866 48.08851842 614.27124023 51.63598633 C614.27562864 54.18399217 614.28093122 56.73199658 614.28707886 59.27999878 C614.29856768 64.7599726 614.3042303 70.23990387 614.30496025 75.71988869 C614.30628806 83.64620134 614.32141754 91.57244368 614.34045542 99.49873146 C614.37126158 112.3642986 614.39544601 125.22986753 614.41333008 138.09545898 C614.41440276 138.86471727 614.41547544 139.63397555 614.41658062 140.42654469 C614.42841127 149.01694618 614.43861688 157.60734838 614.44702148 166.19775391 C614.45009576 169.31730145 614.45318448 172.43684898 614.45629883 175.55639648 C614.45706417 176.32623034 614.45782951 177.0960642 614.45861804 177.88922635 C614.4716879 190.71403455 614.49630668 203.53879153 614.53004223 216.36356181 C614.5503506 224.27333483 614.56061912 232.18299843 614.55805302 240.09279772 C614.5568981 246.14493695 614.57101198 252.19693914 614.59086227 258.24905014 C614.59648336 260.7359664 614.59692735 263.22290031 614.59192467 265.70981789 C614.58582929 269.09355322 614.59793143 272.47674043 614.61473083 275.86042786 C614.60851902 276.85398798 614.6023072 277.84754811 614.59590715 278.87121612 C614.60413029 279.77445513 614.61235344 280.67769414 614.62082577 281.60830402 C614.62164022 282.38960881 614.62245468 283.17091359 614.62329382 283.97589427 C615.10297418 286.55329759 615.91911612 287.44284019 618 289 C622.07794425 289.42478586 623.53076119 289.31282587 627 287 C627.45186698 285.05437124 627.45186698 285.05437124 627.37638092 282.77375984 C627.38398736 281.88194547 627.39159381 280.99013109 627.39943075 280.07129204 C627.39253682 279.08532945 627.38564288 278.09936686 627.37854004 277.08352661 C627.38307017 276.04081159 627.3876003 274.99809658 627.3922677 273.92378414 C627.40395705 270.40625898 627.39421803 266.88910934 627.38476562 263.37158203 C627.38886792 260.85876722 627.39432676 258.34595431 627.40104675 255.83314514 C627.41280351 250.40871971 627.41557848 244.98440459 627.41069031 239.55997086 C627.40388868 231.70404097 627.41638973 223.84823142 627.43419749 215.99232303 C627.46287755 203.23023886 627.48036679 190.46816766 627.48876953 177.70605469 C627.48927671 176.94174542 627.48978389 176.17743615 627.49030644 175.389966 C627.49383159 169.96831083 627.49696015 164.54665546 627.5 159.125 C627.50346564 152.94921856 627.50711603 146.7734373 627.51123047 140.59765625 C627.51173308 139.83730867 627.5122357 139.07696109 627.51275355 138.29357268 C627.52151348 125.59208729 627.54198644 112.89064627 627.57071257 100.18919075 C627.5878539 92.35967806 627.59449472 84.53029128 627.58740652 76.70076232 C627.58271343 70.68908705 627.59321672 64.67753645 627.60915565 58.66587639 C627.61314849 56.20693054 627.61205011 53.74797013 627.60538292 51.28903008 C627.59695594 47.92127217 627.60704437 44.55403664 627.62145996 41.18630981 C627.61456603 40.22265444 627.60767209 39.25899906 627.60056925 38.26614201 C627.70778239 25.32841889 631.33198277 12.68417118 640.375 3.125 C648.77235755 -4.57257775 659.22988841 -9.09736447 670.70327759 -9.14044189 C671.6198111 -9.14615204 672.5363446 -9.15186218 673.48065186 -9.15774536 C674.9706369 -9.15942215 674.9706369 -9.15942215 676.49072266 -9.16113281 C678.07465317 -9.16858017 678.07465317 -9.16858017 679.69058228 -9.17617798 C683.18174901 -9.19077411 686.67287027 -9.19759822 690.1640625 -9.203125 C692.59679159 -9.20887957 695.02952068 -9.21463726 697.46224976 -9.22039795 C702.56484183 -9.2309014 707.66741817 -9.23674803 712.77001953 -9.24023438 C719.28975765 -9.24571059 725.80928603 -9.26972298 732.32895851 -9.29820633 C737.35631912 -9.31688653 742.38362981 -9.32204123 747.41102219 -9.32357025 C749.81344115 -9.32658632 752.21585945 -9.33457928 754.61824417 -9.34775543 C757.98995875 -9.36492448 761.36116889 -9.3629088 764.73291016 -9.35644531 C765.71408813 -9.3656601 766.69526611 -9.37487488 767.70617676 -9.3843689 C780.30558604 -9.30919845 791.88155002 -5.38012102 801.3046875 3.14453125 C810.84254491 13.58343049 813.45554427 24.27896218 813.39440918 38.02935791 C813.40050028 39.32236148 813.40659139 40.61536504 813.41286707 41.94755054 C813.42919778 45.51648316 813.42696279 49.0851939 813.4214921 52.65415072 C813.41881335 56.5111552 813.43336959 60.36810165 813.44558716 64.2250824 C813.46660845 71.7741307 813.47118388 79.32310214 813.46939927 86.87217626 C813.46808986 93.01125716 813.47190491 99.15031416 813.47932434 105.28939056 C813.48142362 107.06010333 813.48352122 108.83081611 813.48561716 110.60152888 C813.48718245 111.92368549 813.48718245 111.92368549 813.48877937 113.27255234 C813.50766877 129.93134814 813.50663566 146.59009987 813.49981004 163.24890193 C813.49423679 178.47151973 813.51505301 193.69396912 813.54817051 208.91654757 C813.58194727 224.56419146 813.5970708 240.21175478 813.59245348 255.8594358 C813.59021266 264.63751584 813.59539504 273.41544027 813.62034607 282.19348907 C813.64141087 289.66771123 813.64490014 297.14169247 813.62604648 304.61592469 C813.61691998 308.42526033 813.61564972 312.23414742 813.63640213 316.04344749 C813.65870607 320.18354634 813.64181828 324.32259864 813.62145996 328.46270752 C813.63397781 329.65213211 813.64649566 330.84155671 813.65939283 332.06702447 C813.53264085 344.14134474 809.67584816 355.37478909 801 364 C790.91932405 372.53632997 780.42061452 376.12313635 767.26754773 376.12649983 C766.3016618 376.12878965 766.3016618 376.12878965 765.31626302 376.13112573 C763.16358308 376.13501531 761.01097377 376.13181384 758.85829353 376.12863445 C757.29068621 376.12998145 755.7230792 376.13176554 754.15547282 376.13394669 C749.83552026 376.13868011 745.51558876 376.13717391 741.19563516 376.13466892 C736.50043655 376.13303749 731.80524248 376.1371753 727.11004531 376.14057809 C718.87696492 376.14573611 710.64389041 376.1471486 702.41080856 376.14612198 C690.16799069 376.14459908 677.92517934 376.14875427 665.68236274 376.1539966 C642.54665798 376.16367623 619.41095544 376.16648107 596.2752489 376.16705366 C578.41269479 376.16751287 560.55014156 376.16956944 542.68758774 376.17275429 C537.54946737 376.1736518 532.41134699 376.17454162 527.27322662 376.17542917 C525.35731154 376.17576074 525.35731154 376.17576074 523.40269111 376.17609901 C487.46735462 376.18225461 451.53201858 376.18620532 415.59668159 376.18575573 C414.22768067 376.18573995 412.85867974 376.18572422 411.48967881 376.18570852 C405.30871507 376.18563514 399.12775133 376.18554697 392.9467876 376.18545464 C390.19052162 376.18541351 387.43425565 376.18537337 384.67798967 376.18533332 C383.29842909 376.18531293 381.9188685 376.18529191 380.53930792 376.18527026 C336.91015364 376.18458993 293.28100747 376.19190893 249.65185547 376.20581055 C238.65830551 376.20931153 227.66475554 376.21278097 216.67120552 376.21607494 C215.99430125 376.21627782 215.31739697 376.21648069 214.61998045 376.21668971 C178.0787512 376.22757528 141.53752186 376.22955213 104.99629104 376.22884732 C99.85754196 376.22877269 94.71879288 376.22872399 89.58004379 376.22869301 C87.6820435 376.22867553 87.6820435 376.22867553 85.74569976 376.22865769 C65.3594079 376.22862688 44.97312287 376.23502003 24.58683304 376.24362527 C4.10901603 376.25209056 -16.36879095 376.25310053 -36.84660874 376.24651595 C-49.020145 376.2428129 -61.19365082 376.24467515 -73.36718387 376.25445829 C-81.49296065 376.26043811 -89.61871528 376.25918517 -97.74449102 376.25198779 C-102.37807612 376.24808937 -107.01160215 376.24737909 -111.64518319 376.25544515 C-115.86007301 376.2627183 -120.0748545 376.26079418 -124.28973948 376.25152128 C-125.80539417 376.24979927 -127.32105731 376.2514306 -128.83670338 376.25682249 C-140.64125085 376.29600591 -150.64478408 375.9633853 -160 368 C-167.55398532 360.03457757 -169.55840599 352.3632593 -169.28125 341.51953125 C-168.14028361 327.24160465 -161.033123 313.10039464 -150.30859375 303.62109375 C-138.25867464 294.08484747 -126.1510948 290.38420519 -111 289.625 C-98.47036266 288.81707803 -88.28752181 283.79527217 -79.6875 274.6875 C-71.54328516 265.00511337 -69.68010517 253.64156632 -69.7484436 241.29164124 C-69.74547346 240.36797538 -69.74250333 239.44430952 -69.73944318 238.49265379 C-69.7318609 235.42610863 -69.73827335 232.35975831 -69.74462891 229.29321289 C-69.74187633 227.08301159 -69.7381948 224.87281128 -69.73365784 222.66261292 C-69.72556826 217.91660791 -69.72337172 213.17064996 -69.72560501 208.42463875 C-69.72844602 200.91427409 -69.7140571 193.4040029 -69.69662476 185.8936615 C-69.67346073 175.35985737 -69.65432867 164.82605773 -69.64160156 154.29223633 C-69.64038601 153.29122857 -69.64038601 153.29122857 -69.6391459 152.26999842 C-69.62792435 142.79981688 -69.62264253 133.32964121 -69.61975877 123.85945391 C-69.61955478 123.19241859 -69.61935079 122.52538327 -69.61914062 121.83813477 C-69.61894069 121.17192043 -69.61874075 120.5057061 -69.61853476 119.81930346 C-69.6147952 108.68940034 -69.59543698 97.55957821 -69.56404626 86.42971796 C-69.54386448 78.9696423 -69.54144605 71.50984125 -69.55232644 64.04974949 C-69.55493906 59.40242521 -69.54090289 54.75525989 -69.52224541 50.10797691 C-69.51693691 47.95983078 -69.51839712 45.81165513 -69.52728081 43.66352081 C-69.58900266 27.42399164 -68.10204221 15.68225989 -57 3 C-54.49736203 0.66226453 -51.92586865 -1.22726782 -49 -3 C-48.36320312 -3.38800781 -47.72640625 -3.77601563 -47.0703125 -4.17578125 C-31.96628618 -12.51635803 -13.58831955 -10.07647345 0 0 Z " fill="#FEFEFE" transform="translate(549,643)"/>
<path d="M0 0 C1.56776688 -0.0076664 1.56776688 -0.0076664 3.16720581 -0.01548767 C6.59940424 -0.0293115 10.0314002 -0.02843216 13.46362305 -0.02612305 C15.86582004 -0.03001422 18.26801636 -0.03434976 20.67021179 -0.03910828 C25.69764438 -0.04655523 30.72500672 -0.04629046 35.75244141 -0.04101562 C42.17109622 -0.03522628 48.58946197 -0.05214682 55.00806904 -0.0753603 C59.96770386 -0.09014675 64.92726988 -0.09096259 69.88692284 -0.08785057 C72.25222534 -0.08836142 74.61753193 -0.09355434 76.98281288 -0.10366249 C106.42584278 -0.21404667 106.42584278 -0.21404667 120.1628418 9.2746582 C121.4931543 10.1409082 121.4931543 10.1409082 122.8503418 11.0246582 C132.77154116 20.67771704 136.44430878 31.83016706 136.67077637 45.35087585 C136.70903264 49.4061667 136.69692694 53.46024148 136.68041992 57.515625 C136.68584702 59.75892591 136.69297296 62.00222326 136.70166016 64.24551392 C136.71982322 70.3093535 136.71285573 76.37291945 136.70014381 82.43676353 C136.68998353 88.79466701 136.69941754 95.15254782 136.70568848 101.51045227 C136.71341919 112.86452025 136.70102954 124.21844984 136.68065113 135.57249013 C136.66276961 145.85356382 136.66589835 156.13445688 136.68432617 166.41552734 C136.70576065 178.37949914 136.71368619 190.34336138 136.70187712 202.30735904 C136.69564981 208.6316183 136.69478606 214.95575329 136.70802307 221.2800045 C136.71959575 227.22355512 136.71152949 233.16676517 136.68844604 239.11027908 C136.68316732 241.28829318 136.68465835 243.46633605 136.6934967 245.64433861 C136.70446815 248.6230736 136.69066895 251.60072505 136.67077637 254.57939148 C136.67969925 255.43601763 136.68862214 256.29264378 136.69781542 257.1752283 C136.58589345 265.84719563 133.39915564 273.17692911 127.1628418 279.2746582 C121.58993003 282.95997082 116.60943293 285.20106548 109.92456055 285.6340332 C88.20682197 287.26141058 71.63364912 293.84942027 56.1628418 309.2746582 C55.56600586 309.84829102 54.96916992 310.42192383 54.35424805 311.01293945 C42.41419184 323.53543742 38.19660333 341.13202121 37.4284668 357.8215332 C36.87489122 365.01801567 34.93666967 371.74706804 30.1628418 377.2746582 C22.27347212 383.6474306 15.061779 385.5830743 5.1159668 385.6105957 C4.26411804 385.6172525 3.41226929 385.6239093 2.53460693 385.63076782 C0.73948306 385.64084725 -1.05567793 385.64558631 -2.85083008 385.64526367 C-5.56566736 385.64962369 -8.27885921 385.685956 -10.9934082 385.72387695 C-21.55476935 385.79227593 -31.30246263 385.52685285 -40.2121582 379.0871582 C-46.42558151 372.42991894 -48.95703569 365.67514978 -48.96858597 356.63291073 C-48.97242711 355.50173571 -48.97626826 354.37056068 -48.9802258 353.20510763 C-48.97935932 351.96719003 -48.97849284 350.72927242 -48.9776001 349.45384216 C-48.98057122 348.13496586 -48.98354234 346.81608956 -48.9866035 345.45724732 C-48.99466316 341.79759761 -48.9964625 338.13796752 -48.99720097 334.47830999 C-48.99905336 330.5306142 -49.00660172 326.58292856 -49.01333618 322.63523865 C-49.02691347 314.0027743 -49.0329435 305.37031461 -49.03734684 296.73784137 C-49.04011072 291.34541459 -49.04434839 285.95298961 -49.04885101 280.56056404 C-49.06104372 265.62460537 -49.07134249 250.68864813 -49.0747261 235.75268459 C-49.07494567 234.7968729 -49.07516524 233.8410612 -49.07539146 232.85628552 C-49.07560973 231.89820838 -49.07582801 230.94013124 -49.0760529 229.95302147 C-49.07649637 228.01164973 -49.07694293 226.07027799 -49.07739258 224.12890625 C-49.07761401 223.1659223 -49.07783544 222.20293834 -49.07806358 221.21077306 C-49.08200954 205.61544776 -49.09945739 190.02016925 -49.1227521 174.42486202 C-49.14648648 158.40558813 -49.15892893 142.38633769 -49.16009402 126.36704594 C-49.1610097 117.37602857 -49.16673478 108.38507213 -49.18491364 99.39407158 C-49.20034291 91.73605746 -49.2054185 84.0781231 -49.19717553 76.42009639 C-49.19327879 72.51582617 -49.19415058 68.61171642 -49.20823288 64.70746613 C-49.22103089 61.12637595 -49.21972309 57.54556587 -49.20764217 53.96447576 C-49.20477992 52.06977675 -49.2165762 50.17507263 -49.22906423 48.28041261 C-49.15033395 34.54793655 -46.16931607 23.24616935 -36.73168945 12.9855957 C-26.02291182 2.86437932 -14.36611961 -0.03676665 0 0 Z " fill="#FEFEFE" transform="translate(328.837158203125,633.725341796875)"/>
<path d="M0 0 C28.05 0 56.1 0 85 0 C85 30.69 85 61.38 85 93 C56.95 93 28.9 93 0 93 C0 62.31 0 31.62 0 0 Z " fill="#FEFEFE" transform="translate(779,730)"/>
<path d="M0 0 C8.82443837 7.04379277 14.08485043 16.8937363 16 28 C16.25825042 31.98197601 16.23380748 35.94857167 16.1953125 39.9375 C16.19329834 40.93201172 16.19128418 41.92652344 16.18920898 42.95117188 C16.17881617 46.63416211 16.15089406 50.31708613 16.125 54 C16.08375 62.25 16.0425 70.5 16 79 C-12.05 79 -40.1 79 -69 79 C-69.0825 70.316875 -69.165 61.63375 -69.25 52.6875 C-69.28641602 49.96846436 -69.32283203 47.24942871 -69.36035156 44.44799805 C-69.37204847 42.26091295 -69.38223791 40.07381905 -69.390625 37.88671875 C-69.4213208 36.22219666 -69.4213208 36.22219666 -69.45263672 34.52404785 C-69.45818102 21.96481323 -65.24003874 12.41289097 -57 3 C-40.94938547 -11.9930159 -17.62519638 -13.07003583 0 0 Z " fill="#FEFEFE" transform="translate(848,643)"/>
<path d="M0 0 C21.78 0 43.56 0 66 0 C71.67581831 11.35163662 73.5369773 20.33466799 70.28125 32.73828125 C66.34983929 43.63438939 59.309854 50.86594315 49 56 C37.26933494 60.59737362 26.54940277 59.92079817 15 55 C5.21047121 49.09706025 -1.11677719 40.99565516 -4.5859375 30.171875 C-6.63111486 19.44434093 -4.82816655 9.65633309 0 0 Z " fill="#FDFEFE" transform="translate(639,634)"/>
<path d="M0 0 C2.19091034 1.51255035 2.19091034 1.51255035 4 4 C4.39279652 6.87367116 4.54066098 9.36392018 4.50793457 12.23669434 C4.51417453 13.07441801 4.5204145 13.91214168 4.52684355 14.77525091 C4.54281863 17.58678036 4.53015179 20.39744825 4.51757812 23.20898438 C4.52299724 25.22276822 4.53011871 27.23654809 4.53881836 29.25032043 C4.55707964 34.72341665 4.54997253 40.19621183 4.53730202 45.66931343 C4.52718891 51.3916519 4.53656299 57.11396425 4.54284668 62.83630371 C4.550128 72.44674314 4.54052261 82.05705969 4.52148438 91.66748047 C4.49971477 102.78520921 4.5067658 113.90264456 4.52879 125.02036619 C4.54693013 134.55846023 4.54950909 144.09646584 4.53903532 153.63457155 C4.53279278 159.33448885 4.53198569 165.03426815 4.54518127 170.73417664 C4.55671893 176.09240673 4.54875204 181.45025782 4.52560425 186.80844688 C4.52030602 188.77730873 4.52184988 190.74620236 4.53065491 192.71505165 C4.54155005 195.39823654 4.52792026 198.08019914 4.50793457 200.76330566 C4.51685746 201.54657022 4.52578034 202.32983478 4.53497362 203.13683462 C4.48448084 206.62013556 4.2654762 208.63497736 2.19091034 211.48744965 C-0.98434743 213.67956914 -3.23728793 213.47889063 -7 213 C-8.69103432 211.98509979 -8.69103432 211.98509979 -10 210 C-10.29485042 207.19338614 -10.40459567 204.60852868 -10.38095093 201.80090332 C-10.38797089 200.53229045 -10.38797089 200.53229045 -10.39513266 199.23804903 C-10.40713423 196.39356763 -10.39760535 193.54956342 -10.38818359 190.70507812 C-10.392247 188.67011737 -10.39758758 186.63515882 -10.40411377 184.60020447 C-10.41782059 179.06517848 -10.41247482 173.53031976 -10.40297651 167.99529076 C-10.39539734 162.21108921 -10.40242067 156.42690228 -10.40713501 150.6427002 C-10.41259765 140.92795228 -10.40538761 131.21327271 -10.39111328 121.49853516 C-10.37478583 110.25645168 -10.38007397 99.0145314 -10.3965925 87.77245188 C-10.41019288 78.13164574 -10.41213412 68.49088882 -10.40427649 58.8500762 C-10.39959201 53.08704038 -10.39899639 47.32408135 -10.40888596 41.56105042 C-10.41753228 36.14380287 -10.41157647 30.72676637 -10.39420319 25.3095417 C-10.39022584 23.31768202 -10.39139359 21.32580467 -10.39799118 19.33395195 C-10.40614758 16.6220912 -10.39595696 13.9109135 -10.38095093 11.19909668 C-10.38764309 10.40445527 -10.39433526 9.60981385 -10.40123022 8.7910924 C-10.34439076 3.52228262 -10.34439076 3.52228262 -8.69103432 1.01490021 C-5.75378305 -0.74793624 -3.31756164 -0.40741985 0 0 Z " fill="#0171CF" transform="translate(376,720)"/>
<path d="M0 0 C2.19091034 1.51255035 2.19091034 1.51255035 4 4 C4.39279652 6.87367116 4.54066098 9.36392018 4.50793457 12.23669434 C4.51417453 13.07441801 4.5204145 13.91214168 4.52684355 14.77525091 C4.54281863 17.58678036 4.53015179 20.39744825 4.51757812 23.20898438 C4.52299724 25.22276822 4.53011871 27.23654809 4.53881836 29.25032043 C4.55707964 34.72341665 4.54997253 40.19621183 4.53730202 45.66931343 C4.52718891 51.3916519 4.53656299 57.11396425 4.54284668 62.83630371 C4.550128 72.44674314 4.54052261 82.05705969 4.52148438 91.66748047 C4.49971477 102.78520921 4.5067658 113.90264456 4.52879 125.02036619 C4.54693013 134.55846023 4.54950909 144.09646584 4.53903532 153.63457155 C4.53279278 159.33448885 4.53198569 165.03426815 4.54518127 170.73417664 C4.55671893 176.09240673 4.54875204 181.45025782 4.52560425 186.80844688 C4.52030602 188.77730873 4.52184988 190.74620236 4.53065491 192.71505165 C4.54155005 195.39823654 4.52792026 198.08019914 4.50793457 200.76330566 C4.51685746 201.54657022 4.52578034 202.32983478 4.53497362 203.13683462 C4.48414888 206.64303663 4.2737156 208.63140242 2.15575409 211.4835434 C-0.79147331 213.55675874 -2.47159983 213.58806669 -6 213 C-8.15617466 211.48633671 -8.15617466 211.48633671 -10 209 C-10.39065307 206.11169391 -10.53640402 203.60572772 -10.50120544 200.71861267 C-10.50950704 199.45484349 -10.50950704 199.45484349 -10.51797634 198.16554362 C-10.53160731 195.33784702 -10.51660056 192.51102932 -10.50170898 189.68334961 C-10.50549124 187.65809249 -10.51099051 185.63283796 -10.51808167 183.60758972 C-10.53206476 178.10355884 -10.52084678 172.59983955 -10.50437045 167.09582591 C-10.49054143 161.34232878 -10.4969775 155.58885014 -10.50050354 149.83534241 C-10.50320714 140.17362432 -10.48971635 130.51203036 -10.46655273 120.8503418 C-10.43993459 109.67014701 -10.43819775 98.49015971 -10.4499411 87.30994409 C-10.46070867 76.56605933 -10.45454032 65.82224983 -10.44038582 55.07837105 C-10.43461791 50.50065907 -10.434715 45.92300203 -10.43945122 41.34528923 C-10.44421275 35.9583846 -10.43415351 30.57170809 -10.41249657 25.18484688 C-10.40691756 23.20427851 -10.40647355 21.22368826 -10.41144943 19.24311829 C-10.41737591 16.54662434 -10.40494824 13.85083408 -10.38768005 11.15440369 C-10.39669512 9.96930117 -10.39669512 9.96930117 -10.40589231 8.76025718 C-10.34457724 3.52166249 -10.34457724 3.52166249 -8.69061375 1.01769352 C-5.75467378 -0.74964517 -3.31830149 -0.40751071 0 0 Z " fill="#0070CF" transform="translate(1273,720)"/>
</svg>
