<svg xmlns="http://www.w3.org/2000/svg" width="1645" height="1654" xmlns:v="https://vecta.io/nano"><path d="M0 0h1645v1654H0V0z" fill="#0070cf"/><path d="M549 643c8.898 7.103 13.929 16.863 16 28 .263 3.155.269 6.29.252 9.454l.009 2.79-.005 9.204.011 6.62.008 14.235.029 22.532.055 31.612.002 2.024.019 28.411.001 2.019v2.017l.054 33.383.012 22.373.03 13.955-.005 6.442c-.062 16.396.799 30.268 12.527 42.929 3.14 2.796 6.262 5.075 10 7l1.971 1.059c9.144 4.14 18.965 3.579 28.798 3.518l9.274.058c14.03.055 25.833-1.145 36.961-10.639 10.533-10.533 13.498-23.042 13.527-37.559l-.029-4.746.016-5.104-.014-13.74-.004-14.414-.034-24.163-.017-27.943-.01-26.922-.001-11.447-.027-13.45-.001-4.94-.024-6.728-.007-3.806c-.141-2.996-.141-2.996-1.682-4.943-2.832-1.821-5.444-1.388-8.698-1.092-2.363 2.363-2.254 2.813-2.278 6.018l-.034 2.552-.007 2.81-.03 2.959-.065 9.794-.059 6.911-.128 18.361-.112 14.518-.139 17.836-.027 3.571-.038 38.444.038 6.599.123 12.225c.132 14.466-.542 27.225-9.244 39.404l-1.75 2.688c-8.243 8.472-18.098 13.316-29.883 13.783-13.332.164-23.325-3.412-33.367-12.471-9.233-10.483-12.156-21.947-12.14-35.62l-.009-2.554-.012-8.433-.015-6.063-.024-16.445-.012-10.285-.027-32.209-.051-37.124-.033-28.735-.025-17.144-.01-16.136-.013-5.901c-.084-17.623 1.532-31.792 14.012-45.087 8.352-8.02 19.214-11.454 30.672-11.328l3.238.027L629 634l-.937 3.75c-3.116 14.324-2.683 28.923 5.438 41.59 7.73 10.468 17.401 18.274 30.5 20.66 15.857 1.025 27.594-1.369 40-12 8.344-7.623 13.588-19.194 14.18-30.402.148-8.073-.532-15.698-2.18-23.598 12.786-.412 23.889 2.439 34.313 10.25 14.475 14.812 14.269 30.254 14.186 49.824l.017 7.641.001 16.397.012 23.72.036 38.51v2.323l-.001 9.322.003 25.713.001 2.328.044 38.404.005 23.67.011 18.107-.009 7.435.009 10.123-.023 2.994.021 2.736v2.36c.483 2.766 1.43 4.137 3.374 6.144 3.5.667 3.5.667 7 0 2.061-1.762 2.887-3.227 3.279-5.917.132-2.485.157-4.953.153-7.442l.031-2.869.048-9.382.054-6.507.103-17.124.145-20.547L779 831h85l.113 21.332.096 13.357.137 21.214.117 17.098.034 6.532.07 9.13-.004 2.744.038 2.511.014 2.182c.503 2.483 1.389 3.377 3.385 4.9 4.104.537 4.104.537 7.664-1.253 1.675-2.19 1.711-3.343 1.712-6.081l.023-2.698-.021-2.967.014-3.15-.008-10.501.016-7.509.01-16.201.024-23.463.055-38.118.002-2.305.01-16.19.011-18.447.002-2.294.058-37.942.017-23.385.022-17.953-.004-7.343.016-10.057-.021-2.906c.119-14.294 4.311-25.605 14.04-35.97 5.682-5.456 11.834-8.18 19.359-10.266l2.438-.687c12.211-1.489 24.295 1.03 34.102 8.664 9.749 8.369 14.745 17.276 16.461 30.023.147 3.473.142 6.944.138 10.42l.009 3.177.011 10.536.015 7.554.026 16.265.053 25.699.022 8.795.006 2.22.058 24.996.005 2.307.062 37.065.085 38.054.039 23.475.044 17.967.006 7.383.03 10.046-.017 2.98.027 2.709.004 2.343c.479 2.542 1.358 3.438 3.378 5.007 2.054.361 2.054.361 4.188.188L976 932c.934-2.803 1.126-4.489 1.13-7.386l.011-2.733-.003-3.007.009-3.191.011-10.64.015-7.608.026-16.412.053-25.956.022-8.882.006-2.242.058-25.276.005-2.334.062-37.411.085-38.423.039-23.689.044-18.175.006-7.442.03-10.177-.017-2.959c.121-12.547 4.568-23.048 13.034-32.306 8.568-8.093 20.195-12.328 31.926-12 11.539 1.178 22.518 5.588 30.449 14.25 7.63 10.037 10.467 19.509 10.379 32.008l.014 3.222-.008 10.617.016 7.64.01 16.414.024 23.744.055 38.547.002 2.327.011 18.7.01 16.373.002 2.33.058 38.43.017 23.693.022 18.129-.004 7.445.016 10.136-.021 2.998.023 2.739v2.363c.484 2.766 1.431 4.139 3.376 6.146 3.5.667 3.5.667 7 0 2.676-2.761 3.375-4.718 3.371-8.516l.019-2.744-.025-3.003.009-3.2-.022-10.651.007-7.623-.01-16.438.002-23.81.028-38.685v-2.339l-.011-25.804-.002-2.339-.002-2.337-.004-4.665-.002-2.328.024-38.508-.011-23.728.011-18.219-.016-7.448c-.089-16.384.234-29.479 11.469-42.461 8.435-8.39 19.482-12.895 31.289-13.402 12.097.203 22.316 4.796 31.125 12.938 9.318 9.865 12.062 20.927 12.008 34.087l.011 3.219.002 10.642.016 7.644.018 16.44.035 23.779.073 38.597.003 2.331.03 25.771.009 9.359.002 2.333.071 38.474.028 23.729.033 18.156.001 7.461.023 10.151-.019 3.011.025 2.737.002 2.368c.48 2.577 1.296 3.467 3.377 5.024 4.078.425 5.531.313 9-2 .452-1.946.452-1.946.376-4.226l.023-2.702-.021-2.988.014-3.16-.008-10.552.016-7.538.01-16.273.024-23.568.055-38.286.002-2.316.01-16.265.011-18.527.002-2.304.058-38.104.017-23.488.022-18.035-.004-7.377.016-10.103-.021-2.92c.107-12.938 3.731-25.582 12.774-35.141 8.397-7.698 18.855-12.222 30.328-12.265l2.777-.017 3.01-.003 3.2-.015 10.473-.027 7.298-.017 15.308-.02 19.559-.058 15.082-.025 7.207-.024 10.115-.009 2.973-.028c12.599.075 24.175 4.004 33.599 12.529 9.538 10.439 12.151 21.134 12.09 34.885l.018 3.918.009 10.707.024 11.571.024 22.647.01 18.417.006 5.312.003 2.671.011 49.976.048 45.668.044 46.943.028 26.334.006 22.422.01 11.428-.015 12.419.038 3.604c-.127 12.074-3.984 23.308-12.659 31.933-10.081 8.536-20.579 12.123-33.732 12.126l-1.951.005c-2.153.004-4.305.001-6.458-.002l-4.703.005-12.96.001c-4.695-.002-9.39.003-14.086.006l-24.699.006c-12.243-.002-24.486.003-36.728.008l-69.407.013-53.588.006-15.414.003-3.871.001-107.806.01h-4.107-18.543-8.269-4.139c-43.629-.001-87.258.007-130.887.021l-32.981.01-2.051.001-109.624.012H638.58h-3.834l-61.159.015-61.433.003c-12.174-.004-24.347-.002-36.521.008-8.126.006-16.252.005-24.377-.002a5367.72 5367.72 0 0 0-13.901.003 3221.01 3221.01 0 0 1-12.645-.004c-1.516-.002-3.031 0-4.547.005-11.805.039-21.808-.293-31.163-8.257-7.554-7.965-9.558-15.637-9.281-26.48 1.141-14.278 8.248-28.419 18.973-37.898 12.05-9.536 24.157-13.237 39.309-13.996 12.53-.808 22.712-5.83 31.313-14.937 8.144-9.682 10.007-21.046 9.939-33.396l.009-2.799-.005-9.199.011-6.631.008-14.238.029-22.531.055-31.601.002-2.022.019-28.411.001-2.021v-2.019l.054-33.39.012-22.38.03-13.942-.005-6.444c-.062-16.24 1.425-27.981 12.527-40.664 2.503-2.338 5.074-4.227 8-6l1.93-1.176c15.104-8.341 33.482-5.901 47.07 4.176zm-220.163-9.275l3.167-.015 10.296-.011 7.207-.013 15.082-.002 19.256-.034 14.879-.012 7.096-.016c29.443-.11 29.443-.11 43.18 9.378l2.688 1.75c9.921 9.653 13.594 20.806 13.82 34.326l.01 12.165.021 6.73-.002 18.191.006 19.074-.025 34.062.004 30.843.018 35.892.006 18.973-.02 17.83.005 6.534-.023 8.935.027 2.596c-.112 8.672-3.299 16.002-9.535 22.099-5.573 3.685-10.553 5.926-17.238 6.359-21.718 1.627-38.291 8.215-53.762 23.641l-1.809 1.738c-11.94 12.522-16.158 30.119-16.926 46.809-.554 7.196-2.492 13.926-7.266 19.453-7.889 6.373-15.101 8.308-25.047 8.336l-2.581.02-5.385.014-8.143.079c-10.561.068-20.309-.197-29.219-6.637-6.213-6.657-8.745-13.412-8.756-22.454l-.012-3.428.003-3.751-.009-3.997-.011-10.979-.016-11.843-.024-25.897-.012-16.177-.026-44.808v-2.896l-.001-2.903-.001-5.824-.001-2.918-.045-46.786-.037-48.058-.025-26.973-.012-22.974-.011-11.713.001-10.743-.021-5.684c.079-13.732 3.06-25.034 12.497-35.295 10.709-10.121 22.366-13.022 36.732-12.986zM779 730h85v93h-85v-93zm69-87c8.824 7.044 14.085 16.894 16 28 .258 3.982.234 7.949.195 11.938l-.006 3.014-.064 11.049-.125 25h-85l-.25-26.312-.11-8.24-.03-6.561-.062-3.363c-.006-12.56 4.212-22.112 12.452-31.525 16.051-14.993 39.375-16.07 57-3z" fill="#fefefe"/><path d="M639 634h66c5.676 11.352 7.537 20.335 4.281 32.738C705.35 677.634 698.31 684.866 688 690c-11.731 4.597-22.451 3.921-34-1-9.79-5.903-16.117-14.004-19.586-24.828-2.045-10.728-.242-20.516 4.586-30.172z" fill="#fdfefe"/><path d="M376 720c2.191 1.513 2.191 1.513 4 4 .393 2.874.541 5.364.508 8.237l.019 2.539-.009 8.434.021 6.041-.002 16.419.006 17.167-.021 28.831.007 33.353.01 28.614.006 17.1-.02 16.074.005 5.907-.023 8.048.027 2.374c-.05 3.483-.269 5.498-2.344 8.351-3.175 2.192-5.428 1.991-9.191 1.513-1.691-1.015-1.691-1.015-3-3-.295-2.807-.405-5.391-.381-8.199l-.014-2.563.007-8.533-.016-6.105.001-16.605-.004-17.353.016-29.144-.005-33.726-.008-28.922-.005-17.289.015-16.252-.004-5.976.017-8.135-.02-2.408c.057-5.269.057-5.269 1.71-7.776 2.937-1.763 5.373-1.422 8.691-1.015z" fill="#0171cf"/><path d="M1273 720c2.191 1.513 2.191 1.513 4 4 .393 2.874.541 5.364.508 8.237l.019 2.539-.009 8.434.021 6.041-.002 16.419.006 17.167-.021 28.831.007 33.353.01 28.614.006 17.1-.02 16.074.005 5.907-.023 8.048.027 2.374c-.051 3.506-.261 5.495-2.379 8.347-2.947 2.073-4.627 2.105-8.156 1.516-2.156-1.514-2.156-1.514-4-4-.391-2.888-.536-5.394-.501-8.281l-.017-2.553.016-8.482-.016-6.076.014-16.512.004-17.26.034-28.985.017-33.54.01-32.232.001-13.733.027-16.16.001-5.942.024-8.089-.018-2.394c.061-5.239.061-5.239 1.715-7.743 2.936-1.767 5.372-1.425 8.691-1.018z" fill="#0070cf"/></svg>