<svg xmlns="http://www.w3.org/2000/svg" width="1024" height="1024" xmlns:v="https://vecta.io/nano"><path d="M0 0h1024v1024H0V0z" fill="#fcfefe"/><path d="M433 0h591v1024H667c.782-3.129 1.612-5.551 2.938-8.437 1.434-3.161 2.809-6.325 4.063-9.562h2l3-10h2l.938-3.875c.539-2.226 1.036-4.072 2.063-6.125h2l1-6h2l1.125-3.75c2.016-6.057 4.945-11.595 7.875-17.25l2.813-5.562 1.207-2.379c1.087-2.174 1.087-2.174 1.98-5.059h2l.938-3.875c.539-2.226 1.036-4.072 2.063-6.125h2l.188-2.398c1.106-4.903 3.39-8.852 5.813-13.227l2.75-5.039 1.234-2.233c.982-2.034 1.557-3.898 2.016-6.103h2l.773-3.5c1.112-4.447 2.843-8.394 4.852-12.5l.984-2.059L734 884h2l.25-2.562c.735-3.368 1.935-5.74 3.715-8.668 1.272-2.174 2.237-4.447 3.195-6.773 1.018-2.42 2.116-4.799 3.215-7.184 1.7-3.723 3.324-7.463 4.875-11.25 2.647-6.42 5.511-12.735 8.375-19.061l7.969-18.256c1.474-3.402 3.024-6.762 4.594-10.121 2.168-4.649 4.106-9.289 5.813-14.125h2l.289-2.473c.86-4.265 2.38-7.979 4.086-11.965l.922-2.197 3.557-8.339c1.57-3.631 2.95-7.254 4.146-11.027h2l.289-2.402c.906-4.586 2.45-8.79 4.086-13.16l.922-2.537c1.578-4.258 3.282-8.04 5.703-11.9l2-7 2-3a102.92 102.92 0 0 0 1.438-5.25c1.175-4.477 2.666-8.519 4.563-12.75l2.5-6.375 1.219-3.148c1.219-3.306 2.352-6.627 3.456-9.973l2.728-8.175L836 633l.613-2.066L841 616l.968-3.299c1.573-5.643 2.807-11.357 4.063-17.077l1.402-6.272c1.779-8.018 3.171-15.982 4.148-24.138.373-2.865.874-5.641 1.481-8.464 2.204-10.511 2.1-21.186 2.105-31.879l.01-4.676.007-9.786.021-9.863c.42-29.359.42-29.359-2.206-58.546l-1-1c-.156-1.342-.253-2.69-.324-4.039-.771-12.052-2.356-23.749-4.676-35.586l-.399-2.059c-1.167-5.987-2.292-11.663-4.601-17.316-.341-1.424-.64-2.859-.895-4.301l-.449-2.439-.469-2.573C837.95 360.971 834.732 349.975 830 339l-2.312-6.562c-2.578-7.298-5.559-14.355-8.687-21.437l-1.094-2.527c-2.136-4.901-4.488-9.662-6.953-14.406C810 292 810 292 810 290h-2l-1.469-3.078c-4.254-8.789-8.873-16.94-14.531-24.922l-2.34-3.43c-5.619-8.165-11.85-15.386-18.66-22.57l-4.125-4.562-1.633-1.816C764 228 764 228 763 225h-2v-2l-4-1v-3h-3v-2l-1.75-.312c-2.607-.796-4.224-1.878-6.25-3.687v-2h-2v-2l-3-1v-2l-2.66-.301c-3.584-.75-5.712-1.917-8.777-3.887-5.854-3.559-11.735-6.041-18.117-8.453C708 192 708 192 704.793 190.367c-3.265-1.598-6.204-1.945-9.793-2.367l-1-1a235.65 235.65 0 0 0-7-1v-3l-13.977-.165-4.742-.062c-8.913-.144-16.826.067-25.281 3.226-1.928.439-3.865.846-5.812 1.188l-2.645.48c-2.546.332-4.979.392-7.543.332l-1 3c-1.969.879-1.969.879-4.5 1.563l-2.711.742c-3.916.976-7.839 1.867-11.789 2.695v2h-4v2h-3v2c-1.977 1.332-1.977 1.332-4.625 2.813-3.184 1.836-6.105 3.644-8.875 6.063C584 213 584 213 582 213v2l-5 2v2c-1.469 1.445-1.469 1.445-3.5 3.125-7.694 6.144-7.694 6.144-13.5 13.875h-2l-.814 1.763c-1.198 2.261-2.526 4.053-4.154 6.022l-1.73 2.107-1.801 2.17-3.531 4.285-1.58 1.906c-2.728 3.181-2.728 3.181-3.162 7.16.779 2.606 1.759 4.629 3.148 6.961 1.515 2.556 2.787 5.013 3.934 7.762 2.081 4.965 4.767 9.601 7.379 14.301 4.386 7.962 8.623 15.967 12.625 24.129 1.869 3.803 3.81 7.567 5.777 11.32 1.012 2.35 1.491 4.595 1.91 7.113h2l1.223 2.48 10.578 20.828 1.011 1.94 4.082 7.814 2.911 5.569 1.718 3.278c1.427 2.984 2.506 5.931 3.477 9.089h2l.938-1.875L608 378h2l.938-1.875L613 372h3l1-4h3v-3h2v-2l1.75-.75c2.56-1.422 4.22-3.154 6.25-5.25 3-2 3-2 7-2v-2l1.688-.551 2.313-.762 2.25-.738c2.926-.966 2.926-.966 6.344-2.543 5.237-1.977 10.379-1.735 15.906-1.594l3.07.041L676 347v2l2.75-.25c7.829 0 16.219 3.396 22.25 8.25l5 5 3 1c1.648 1.672 1.648 1.672 3.375 3.75 2.103 2.491 4.201 4.878 6.563 7.125C721 376 721 376 721 378h2c1.474 2.013 2.811 4.01 4.125 6.125l1.202 1.914L732 392l1.122 1.812c5.156 8.375 8.887 16.814 11.878 26.188l1.625 4.938.602 1.902c.811 2.361.811 2.361 2.23 5.34 1.826 4.215 2.72 8.516 3.605 13.008l.515 2.535c2.508 12.488 4.573 24.803 4.591 37.563l.01 2.604.007 5.428.039 8.142c.044 13.643-.565 26.925-4.506 40.088-.694 2.369-1.225 4.723-1.719 7.141-.759 3.544-1.876 6.773-3.211 10.137-1.253 3.455-2.132 7.004-3.043 10.563-.751 2.631-1.724 5.077-2.746 7.613l-1.937 6.25c-2.712 8.9-5.605 17.409-9.5 25.875-1.444 3.34-2.462 6.764-3.5 10.25-1.368 4.546-2.923 8.777-4.937 13.066-1.486 3.38-2.733 6.842-4 10.309-1.876 5.117-3.905 10.073-6.25 15-2.822 5.935-4.952 11.972-6.875 18.25h-2l-.187 2.875c-.608 4.272-2.433 7.616-4.426 11.402-2.432 4.775-4.355 9.767-6.387 14.723-5.068 12.12-10.532 24.057-16 36l-1.527 3.336L666 765h-3l-.805-2.047-1.07-2.703-1.055-2.672c-1.007-2.54-1.007-2.54-2.203-4.719C657 751 657 751 657 748h-2l-.734-1.871c-2.812-7.105-5.711-14.14-9.203-20.941-1.58-3.112-2.938-6.266-4.25-9.5-2.265-5.537-4.79-10.92-7.375-16.312-4.365-9.13-8.069-18.327-11.504-27.844A111.03 111.03 0 0 0 616 658.188c-1.95-3.825-3.124-7.704-4.293-11.824-.973-3.251-2.319-6.268-3.707-9.363-3.094-7.041-5.719-14.048-7.891-21.426-1.527-4.92-3.288-9.75-5.092-14.575A53.38 53.38 0 0 1 592 588h-2l-.734-3.043-1.016-4.145-.538-2.191c-1.156-4.624-2.482-9.15-3.962-13.684-1.448-4.547-2.192-8.19-1.75-12.937h-2l-3.464-17.343-1.075-5.164C570.909 508.03 572 485.763 572 464H433V0z" fill="#fefefe"/><path d="M340 2h93v462h139l1 33 1.438 18.25.369 4.191c.739 7.972.739 7.972 3.193 15.559a115.58 115.58 0 0 1 1.125 6l.508 3.063c.336 2.687.437 5.234.367 7.938h2l.516 2.859c1.395 7.391 3.111 14.294 5.633 21.398 1.218 3.923 1.579 7.652 1.852 11.742h2l.953 3.078 7.152 22.262 1.633 4.977c2.426 7.578 5.533 14.881 8.824 22.121 1.779 4.409 3.072 8.907 4.375 13.477 1.041 3.024 2.349 5.399 4.063 8.086 1.84 4 3.39 8.043 4.875 12.188 4.024 11.114 8.899 21.677 14.115 32.276 2.719 5.586 5.062 11.149 7.033 17.044 1.062 2.711 2.447 5.02 3.977 7.492 6 13.25 6 13.25 6 17h2l3 6.25 1.688 3.516C663 761 663 761 663 765h3l1-3.437c1.826-5.495 4.314-10.623 6.808-15.836 4.524-9.469 8.708-19.08 12.692-28.789 1.874-4.544 3.902-8.994 6-13.437A328.62 328.62 0 0 0 704 676h2l.289-2.441c.88-4.403 2.417-8.34 4.086-12.496l.922-2.342c1.823-4.609 3.732-9.173 5.703-13.721 3.213-7.473 6.115-15 8.809-22.676 1.33-3.712 2.792-7.355 4.285-11.004 1.208-3.093 2.217-6.238 3.195-9.41C734 600 734 600 736 597a135.22 135.22 0 0 0 1.938-6l1.055-3.508 2.57-9.367c.808-3.037 1.674-5.667 2.938-8.562 1.763-4.188 2.749-8.37 3.754-12.793.746-2.77.746-2.77 1.742-4.742 1.33-2.686 1.866-5.352 2.504-8.277.8-3.633 1.615-7.233 2.625-10.812 2.653-10.781 2.061-22.341 2.06-33.371l.039-7.996c.048-14.338-.657-28.606-4.162-42.57l-.525-2.117c-1.345-5.349-2.878-10.624-4.537-15.883l-1.5-5.187c-1.228-4.085-2.733-7.925-4.5-11.812l-.762-1.832C736.433 400.796 730.696 389.669 723 380v-2h-2c-1.551-1.574-1.551-1.574-3.312-3.687-2.124-2.511-4.243-4.921-6.625-7.187C709 365 709 365 709 363l-1.75-.312c-2.607-.796-4.224-1.878-6.25-3.687v-2l-1.937-.75c-1.69-.69-3.372-1.402-5.012-2.203-5.897-2.837-11.586-4.129-18.051-5.047v-2l-10.5.313-2.977.068c-6.167.226-10.877 1.115-16.523 3.619-3.544 1.53-5.018 2-9 2v2c-6.625 2.875-6.625 2.875-10 4l-1 3c-2.062.688-2.062.688-4 1v2h-2v3l-3 1-1 3h-3l-.937 1.875L610 378h-2l-.937 1.875L605 384h-2l-1.223-2.48-13.63-26.852-2.04-3.957-2.911-5.636-1.718-3.325c-1.473-2.845-1.473-2.845-3.477-5.749v-3h-2l-1.031-2.316c-3.062-6.768-6.324-13.348-9.863-19.876-2.495-4.616-4.853-9.286-7.168-13.995-2.914-5.915-6.094-11.602-9.477-17.266-1.204-2.099-2.23-4.127-3.148-6.359-1.047-2.543-2.113-4.517-3.562-6.812C540 263 540 263 540.102 260.68c1.18-3.52 3.213-6.088 5.523-8.93l2.727-3.434 1.36-1.695c2.371-2.985 4.632-6.056 6.913-9.11L558 236h2l.814-1.798c1.188-2.208 2.393-3.668 4.154-5.437l1.73-1.738 1.801-1.777 1.801-1.824 1.73-1.723 1.58-1.573C575 219 575 219 577 219v-2l5-2v-2c11.948-11 11.948-11 18-11v-2h3v-2h4v-2c5.637-1.92 11.285-3.684 17.031-5.254 2.16-.564 2.16-.564 2.969-2.746 1.747-.562 1.747-.562 4.008-1l2.492-.5 2.625-.5 5.07-1 2.508-.493c2.503-.512 2.503-.512 5.676-1.62 5.161-1.264 10.141-1.136 15.434-1.074l3.119.002c6.411.036 12.704.418 19.068 1.186v3l3.438-.062C694 186 694 186 695 187l2.813.25c11.992 1.626 23.663 9.401 34.346 14.851l2.139 1.083 1.933.982c1.938.956 1.938.956 4.771 1.834 1.688 1.438 1.688 1.438 3 3v2h2l5 5 3 1v2h3l1 3 3 1v2h2c1.41 1.398 1.41 1.398 3.063 3.375a293.59 293.59 0 0 0 8.25 9.313c11.54 12.831 21.273 27.09 29.813 42.063l1.184 2.06C808 286.632 808 286.632 808 290h2l11.75 25.375 1.14 2.481c2.097 4.633 3.915 9.263 5.456 14.11 1.456 4.53 3.17 8.94 5.095 13.291 1.611 3.747 2.855 7.579 3.996 11.492l.646 2.202c2.043 7.159 3.548 14.406 5.018 21.7a178.08 178.08 0 0 0 2.398 10.223 243.54 243.54 0 0 1 6.905 42.925l.201 2.809.161 2.499c.038 1.901.038 1.901 1.234 2.892 2.922 19.077 2.316 38.859 2.261 58.107l.007 12.128c.103 43.024.103 43.024-3.268 49.766l-.85 6.324C850.114 584.46 846.586 600.397 842 616l-1.805 6.422-2.07 7.328-1.027 3.672c-1.837 6.483-3.828 12.841-6.191 19.152-1.242 3.325-2.356 6.681-3.469 10.051l-.645 1.943-2.602 7.932c-2.531 7.778-5.57 15.364-8.555 22.977-2.662 6.74-2.662 6.74-4.824 13.648C810 712 810 712 808 715a74.32 74.32 0 0 0-1.375 4.063c-1.311 4.07-2.829 8.006-4.441 11.965-2.502 6.283-4.825 12.635-7.184 18.973h-2l-.297 1.906c-.883 5.056-2.043 9.247-4.488 13.75-1.623 3.131-3.013 6.354-4.402 9.594l-1.543 3.578c-.967 2.417-1.748 4.633-2.27 7.172h-2l-.312 3.188c-.694 3.85-1.61 5.581-3.687 8.813-.613 1.293-1.201 2.598-1.773 3.91l-1.065 2.428L770 807l-2.551 5.785L759 832l-1.158 2.634-2.904 6.616-1.598 3.641c-.8 1.856-1.577 3.722-2.309 5.605-1.318 3.2-2.89 6.237-4.469 9.316-1.958 3.852-3.858 7.674-5.312 11.75-1.137 3.128-2.525 5.615-4.25 8.438-.696 2.191-.696 2.191-1 4h-2l-.516 1.688c-1.501 4.728-3.269 9.057-5.566 13.449-1.25 2.538-2.106 5.158-2.918 7.863h-2l-.187 2.398c-1.106 4.903-3.39 8.852-5.812 13.227l-2.75 5.039-1.234 2.233c-.982 2.034-1.557 3.898-2.016 6.103h-2l-3 10h-2l-.328 2.145c-.745 3.167-1.926 5.656-3.422 8.543l-1.629 3.18L697 963c-2.849 5.602-5.6 11.19-8 17h-2l-1 6h-2l-3 10h-2l-.375 2.188c-.615 2.77-1.509 5.21-2.625 7.813h-2l-.344 2.18c-.69 2.967-1.741 5.255-3.156 7.945-1.382 2.644-2.555 5.039-3.5 7.875h-2l-2-8h-2l-1.07-2.247-4.805-10.065-1.684-3.537-1.621-3.389-1.492-3.126c-1.326-2.763-1.326-2.763-3.329-5.635v-3h-2l-.775-1.658c-5.157-11.001-10.446-21.887-16.217-32.58-2.088-3.879-4.054-7.814-6.008-11.762l-1.859-3.719-8.156-16.312-.995-1.99-1.971-3.949-5.3-10.488-1.125-2.209-2.156-4.195c-1.478-2.913-2.437-4.827-2.437-8.14h-2l-.559-1.59c-2.209-5.901-4.951-11.379-7.941-16.91-4.09-7.587-7.945-14.948-9.5-23.5h-2l-.77-2.012c-1.789-4.59-3.625-8.797-6.23-12.988-7-15.217-7-15.217-7-20h-2l-.664-2.238a89.06 89.06 0 0 0-7.895-18.117c-1.783-3.272-3.134-6.613-4.461-10.09-1.017-2.651-2.117-5.255-3.23-7.867-2.454-5.878-4.772-11.806-7.062-17.75l-1.097-2.816-1.017-2.657-.919-2.387C533 745 533 745 533 742h-2l-.77-2.379c-1.47-4.486-2.923-8.908-4.793-13.246-1.531-3.595-2.597-7.192-3.676-10.941-.692-2.21-1.5-4.262-2.449-6.371C518 706 518 706 518 703h-2l-.77-3.035-1.043-4.027-.502-1.99c-.881-3.373-1.879-6.516-3.322-9.693C509 681 509 681 509 677h-2l-.503-1.769-2.309-8.106-.791-2.781-.791-2.773-.795-2.792c-1.034-3.548-2.141-7.071-3.266-10.591C498 646 498 646 498 642h-2l-.586-2.922-.789-3.828-.773-3.797c-.663-3.273-.663-3.273-1.84-5.348-1.164-2.422-1.597-4.591-2.047-7.238l-.514-2.941-.514-3.051-1.035-6.008-.453-2.684c-.358-2.216-.358-2.216-1.449-4.183l-146-1V2zM213 2h95v596c-223.35 0-223.35 0-243-11l-2.699-1.461L56 582l-3.062-1.687L51 579v-2h-2v-2h-3l-1.187-2c-1.698-2.81-3.284-4.556-5.625-6.812C32.247 559.387 27.173 551.79 23 543v-2h-2l-.918-2.457c-2-5.285-4.008-10.479-6.52-15.543C-1.429 490.51-.36 452.364-.261 417.382l-.007-12.2c-.058-24.19.297-48.427 4.143-72.37l.513-3.341c1.239-7.803 2.822-15.464 4.78-23.116.771-3.11 1.352-6.189 1.832-9.355h2l.297-2.238C15.239 281.584 20.612 270.063 26 258h2l.25-2.055c.957-3.757 2.746-6.795 4.75-10.07l1.204-1.99C37.971 237.798 42.343 232.434 47 227l1.633-2.301L50 223h2v-2h2v-2h2v-2c4.471-4 4.471-4 7-4v-2c2.11-2.854 4.8-3.886 8.035-5.172 2.106-.888 4.077-1.935 6.09-3.016 3.093-1.583 5.341-2.254 8.875-1.812v-3c3.541-2.124 6.95-2.465 11-3l1-1c19.303-1.135 38.664-1 58-1v133l-31 1-8 1v2l-6 2v2h-2l-.816 1.664a143.95 143.95 0 0 1-2.586 4.859C101.429 348.267 99.459 355.351 98 364h-2c-1.088 13.181-1.219 26.344-1.24 39.564l-.072 10.879-.016 7.037-.037 3.224c.033 11.331 2.043 21.772 8.366 31.296l1.813 2.938C131.08 483.704 176.9 463.632 213 464V2z" fill="#25b2fb"/><path d="M0 0h308v2h-95v462c-103.508 0-103.508 0-109.051-4.762l-1.262-1.926-1.41-2.148L100 453l-1.184-1.914c-5.05-8.99-5.12-19.353-5.082-29.41l-.006-3.47.011-7.228-.013-10.913C93.72 387.891 93.97 376.024 96 364h2l.043-1.984c.551-10.536 4.146-19.916 10.957-28.016h2v-2l6-2v-2c12.628-3.157 25.983-2 39-2V193c-32.381-5.222-32.381-5.222-59 3l-7 1c-1.339.309-2.677.629-4 1v3l-1.723.516c-3.949 1.239-7.547 2.508-11.09 4.672C70 208 70 208 66 208l-1 3h-2v2c-4.471 4-4.471 4-7 4v2h-2v2h-2v2h-2l-.746 1.699c-1.478 2.712-3.288 4.784-5.316 7.113-3.724 4.477-6.891 9.064-9.875 14.063l-1.143 1.909c-1.94 3.317-3.608 6.602-4.92 10.216h-2l-.48 1.836c-1.251 4.492-2.616 8.526-4.895 12.602-4.03 7.607-5.619 16.249-7.625 24.563h-2l-.113 1.984-.199 2.766-.176 2.672c-.453 3.17-1.122 6.094-1.926 9.188-1.606 6.255-2.714 12.504-3.648 18.891l-.513 3.46C2.595 348.921 1.733 361.937 1 375H0V0z" fill="#fefefe"/><path d="M1 700h475v133l-135.527.042h-2.024l-43.552.008-21.356.004h-2.147l-68.949.021-70.824.018-45.66.014-29.892.006c-5.758-.001-11.516 0-17.274.006l-15.786.002-5.738.004c-2.582.004-5.164.002-7.746-.002l-2.296.008C2.114 833.114 2.114 833.114 1 832V700zm929-447h93l.153 155.138.012 18.342.002 3.688.064 59.015.051 60.618.041 37.362.017 25.669.017 14.779c.058 18.528.097 36.691-2.996 55.02-.777 5.083-1.186 10.213-1.625 15.335-.388 4.072-1.215 7.272-2.737 11.033-.981 4.447-1.717 8.942-2.5 13.428l-.5 2.764-.437 2.506c-.573 2.344-1.46 4.166-2.562 6.302l-1.437 5.797c-.774 3.031-1.769 5.968-2.785 8.926l-1.461 4.461c-1.564 4.956-3.473 9.643-5.687 14.344l-3.789 8.352C989.848 786.983 984.536 797.182 976 806h-2l-2 4h-2v3c-2.062 1.375-2.062 1.375-5 3l-3.312 2.438C957.282 821.619 952.55 825 947 825l-1 3c-2.813 1.475-5.953 2.137-9 3l-2.766.792c-9.086 2.362-17.735 2.6-27.035 2.501l-4.19-.009-15.322-.096L853 834V698l52-1c16.816-12.612 19.347-30.578 22.203-50.375 1.597-12.497 1.947-24.967 1.955-37.551l.015-4.642.027-12.622.035-13.662.056-23.626.08-34.158.131-55.43.125-53.821.008-3.355.041-16.665L930 253z" fill="#25b2fb"/><path d="M646 184c-3.069 2.046-4.807 2.509-8.375 3.125l-2.836.508c-2.636.347-5.134.435-7.789.367l-1 3c-2.215.984-2.215.984-4.937 1.75l-2.715.797C616 194 616 194 614 193c3.858-2.153 6.551-3.393 11-3l1-3c2.949-.949 2.949-.949 6.688-1.687l3.699-.762c3.28-.5 6.304-.658 9.613-.551z" fill="#ade2fd"/><path d="M1023 644h1l.125 12.688.051 3.631.02 3.506.032 3.221c-.233 3.036-.945 5.211-2.227 7.954h-1c-.126-7.414-.126-7.414.469-10.187.76-4.022.897-8.041 1.094-12.125l.131-2.533L1023 644z" fill="#eff9fe"/><path d="M54 219l2 1-1 2h-2l-.25 2.25c-.904 3.313-2.082 4.631-4.75 6.75h-3v2l-2-1 3.375-4.5 1.898-2.531L50 223h2v-2h2v-2z" fill="#51c1fb"/><path d="M71 589l8 1 1 3 5.957.586C88 594 88 594 91 596c-15.42-1.676-15.42-1.676-20-7z" fill="#6fcbfc"/><path d="M100.563 193.938L103 194l-3 1v2c-4.873 1.591-8.808 2.212-14 2 3.438-3.163 6.443-3.484 11-4 1-1 1-1 3.563-1.062z" fill="#90d8fc"/><path d="M704 676c1.24 3.581 1.027 6.366 0 10-2.051 1.18-2.051 1.18-4 2l4-12z" fill="#4abffb"/><path d="M66 208l3 1h-2v4l-5 1v2l-3-1 4-2v-2l3-3z" fill="#66c9fc"/><path d="M627 190c-4.362 2.447-8.027 3.503-13 4 1-2 1-2 3.215-2.887l2.723-.801 2.715-.824C625 189 625 189 627 190z" fill="#81d2fc"/><path d="M1022 662h1c1.429 8.429 1.429 8.429-1 13h-1c-.077-4.516-.102-8.591 1-13z" fill="#b5e5fd"/><path d="M724 627c.959 3.836.919 5.324 0 9l-3 1 3-10zm34-404h3v2h2l1 3-6-1v-4z" fill="#54c2fb"/><path d="M737 205c3.27.564 4.826 1.5 7 4l-1 2-4-1v-2h-2v-3z" fill="#78cffc"/><path d="M694 700h1c.25 5.625.25 5.625-2 9h-2l3-9z" fill="#51c1fb"/></svg>