<?xml version="1.0" encoding="UTF-8"?>
<svg version="1.1" xmlns="http://www.w3.org/2000/svg" width="1024" height="1024">
<path d="M0 0 C337.92 0 675.84 0 1024 0 C1024 337.92 1024 675.84 1024 1024 C686.08 1024 348.16 1024 0 1024 C0 686.08 0 348.16 0 0 Z " fill="#FCFEFE" transform="translate(0,0)"/>
<path d="M0 0 C195.03 0 390.06 0 591 0 C591 337.92 591 675.84 591 1024 C473.19 1024 355.38 1024 234 1024 C234.78230598 1020.87077609 235.61194613 1018.44870598 236.9375 1015.5625 C238.37177176 1012.4018866 239.74660591 1009.23793473 241 1006 C241.66 1006 242.32 1006 243 1006 C243.99 1002.7 244.98 999.4 246 996 C246.66 996 247.32 996 248 996 C248.4640625 994.081875 248.4640625 994.081875 248.9375 992.125 C249.47605244 989.89898325 249.9737 988.05260001 251 986 C251.66 986 252.32 986 253 986 C253.33 984.02 253.66 982.04 254 980 C254.66 980 255.32 980 256 980 C256.37125 978.7625 256.7425 977.525 257.125 976.25 C259.14075584 970.19322419 262.06950348 964.65534417 265 959 C265.94120389 957.14771074 266.87899722 955.29368233 267.8125 953.4375 C268.40998047 952.25994141 268.40998047 952.25994141 269.01953125 951.05859375 C270.10645498 948.88469228 270.10645498 948.88469228 271 946 C271.66 946 272.32 946 273 946 C273.309375 944.72125 273.61875 943.4425 273.9375 942.125 C274.47605244 939.89898325 274.9737 938.05260001 276 936 C276.66 936 277.32 936 278 936 C278.061875 935.20851563 278.12375 934.41703125 278.1875 933.6015625 C279.29368267 928.6981951 281.57742174 924.74909964 284 920.375 C284.92059881 918.69746439 285.83741785 917.01784763 286.75 915.3359375 C287.15734375 914.59907715 287.5646875 913.8622168 287.984375 913.10302734 C288.96642974 911.06951303 289.541751 909.20470069 290 907 C290.66 907 291.32 907 292 907 C292.25523437 905.845 292.51046875 904.69 292.7734375 903.5 C293.88518529 899.05300885 295.61689714 895.10599894 297.625 891 C298.11226562 889.98099609 298.11226562 889.98099609 298.609375 888.94140625 C299.39966248 887.29110005 300.19888224 885.64507604 301 884 C301.66 884 302.32 884 303 884 C303.0825 883.154375 303.165 882.30875 303.25 881.4375 C303.98491382 878.06914498 305.18515536 875.6974057 306.96484375 872.76953125 C308.23651035 870.59570118 309.2017347 868.32220875 310.16015625 865.99609375 C311.17846171 863.57584217 312.27661668 861.19746317 313.375 858.8125 C315.07541394 855.08970025 316.6987358 851.34972431 318.25 847.5625 C320.8965447 841.1423332 323.76118311 834.82702439 326.62524414 828.50195312 C329.36179795 822.44834712 332.00025652 816.36241586 334.59375 810.24609375 C336.06771543 806.84369022 337.61760027 803.48412369 339.1875 800.125 C341.35536952 795.47631392 343.29323999 790.83582002 345 786 C345.66 786 346.32 786 347 786 C347.09539062 785.18402344 347.19078125 784.36804688 347.2890625 783.52734375 C348.14860632 779.26268404 349.66909204 775.54882624 351.375 771.5625 C351.67921875 770.83740234 351.9834375 770.11230469 352.296875 769.36523438 C353.46824591 766.57947406 354.65381266 763.80018081 355.85375977 761.02661133 C357.42379337 757.39551863 358.80388818 753.77235267 360 750 C360.66 750 361.32 750 362 750 C362.09539062 749.20722656 362.19078125 748.41445313 362.2890625 747.59765625 C363.19533 743.01154436 364.73918415 738.80756177 366.375 734.4375 C366.67921875 733.60025391 366.9834375 732.76300781 367.296875 731.90039062 C368.87476597 727.64210795 370.57937137 723.86030281 373 720 C373.68255989 717.67126625 374.35050775 715.33817209 375 713 C375.66 712.01 376.32 711.02 377 710 C377.52795793 708.26409645 378.00207199 706.51139239 378.4375 704.75 C379.61227451 700.27299864 381.10313895 696.23145926 383 692 C383.84486366 689.87955787 384.67697805 687.75401487 385.5 685.625 C385.9021875 684.58601562 386.304375 683.54703125 386.71875 682.4765625 C387.93729835 679.17013557 389.07075419 675.8493622 390.17431641 672.50341797 C391.07418187 669.77508548 391.98755945 667.05149033 392.90234375 664.328125 C398.13646439 648.7231166 398.13646439 648.7231166 403 633 C403.30333252 631.97737061 403.30333252 631.97737061 403.61279297 630.93408203 C405.08686539 625.95949376 406.55625035 620.98348408 408 616 C408.31952637 614.91122559 408.63905273 613.82245117 408.96826172 612.70068359 C410.54141414 607.05803228 411.77525239 601.34347338 413.03173828 595.62402344 C413.49298763 593.53180792 413.96313478 591.44172335 414.43359375 589.3515625 C416.21255452 581.33390773 417.60431538 573.36928224 418.58178711 565.21386719 C418.95464014 562.34857977 419.45553076 559.57313843 420.0625 556.75 C422.26695286 546.23863926 422.16268199 535.56356207 422.16796875 524.87109375 C422.17119551 523.31242342 422.17456055 521.75375337 422.17805481 520.19508362 C422.18401362 516.93318993 422.1858985 513.67132257 422.18530273 510.40942383 C422.18522212 507.12160666 422.19206479 503.83393074 422.20581055 500.54614258 C422.62571618 471.18729888 422.62571618 471.18729888 420 442 C419.67 441.67 419.34 441.34 419 441 C418.84368683 439.65839071 418.74731876 438.30972647 418.67578125 436.9609375 C417.90440199 424.90924491 416.31940714 413.21210642 414 401.375 C413.86848541 400.69556335 413.73697083 400.01612671 413.60147095 399.31610107 C412.43469616 393.328921 411.30936935 387.65349024 409 382 C408.65892016 380.57600381 408.3599569 379.14120918 408.10546875 377.69921875 C407.88298462 376.492052 407.88298462 376.492052 407.65600586 375.26049805 C407.42409546 373.98686401 407.42409546 373.98686401 407.1875 372.6875 C404.95047993 360.97074562 401.73191682 349.9750741 397 339 C396.21179843 336.81869797 395.44110877 334.63099358 394.6875 332.4375 C392.10979757 325.1391859 389.1283161 318.08216006 386 311 C385.6390625 310.16597656 385.278125 309.33195312 384.90625 308.47265625 C382.77014321 303.5716693 380.41806494 298.81067318 377.953125 294.06640625 C377 292 377 292 377 290 C376.34 290 375.68 290 375 290 C374.5153125 288.98421875 374.030625 287.9684375 373.53125 286.921875 C369.27746781 278.1332993 364.65848011 269.98231264 359 262 C358.21880881 260.85762003 357.4389096 259.71435572 356.66015625 258.5703125 C351.04083183 250.40530969 344.8103224 243.18463019 338 236 C336.61514308 234.4881368 335.23867459 232.96849662 333.875 231.4375 C333.33617187 230.83808594 332.79734375 230.23867187 332.2421875 229.62109375 C331 228 331 228 330 225 C329.34 225 328.68 225 328 225 C328 224.34 328 223.68 328 223 C326.68 222.67 325.36 222.34 324 222 C324 221.01 324 220.02 324 219 C323.01 219 322.02 219 321 219 C321 218.34 321 217.68 321 217 C320.13375 216.8453125 320.13375 216.8453125 319.25 216.6875 C316.64338842 215.89103535 315.0264689 214.80934723 313 213 C313 212.34 313 211.68 313 211 C312.34 211 311.68 211 311 211 C311 210.34 311 209.68 311 209 C310.01 208.67 309.02 208.34 308 208 C308 207.34 308 206.68 308 206 C307.12214844 205.90074219 306.24429687 205.80148438 305.33984375 205.69921875 C301.75585204 204.94888598 299.62752873 203.78194399 296.5625 201.8125 C290.70834384 198.25323152 284.82738558 195.77128372 278.4453125 193.359375 C275 192 275 192 271.79296875 190.3671875 C268.52781089 188.76885848 265.58892858 188.42222689 262 188 C261.67 187.67 261.34 187.34 261 187 C258.67182036 186.63239269 256.3381615 186.29758419 254 186 C254 185.01 254 184.02 254 183 C249.3410177 182.92512761 244.68239545 182.87106168 240.02294922 182.83520508 C238.44215789 182.82023729 236.86140722 182.79985563 235.28076172 182.77368164 C226.3679478 182.62992658 218.45469745 182.84099856 210 186 C208.07186191 186.43917396 206.13528216 186.84583506 204.1875 187.1875 C203.31480469 187.34605469 202.44210937 187.50460938 201.54296875 187.66796875 C198.99720239 188.00036528 196.56417687 188.05984614 194 188 C193.67 188.99 193.34 189.98 193 191 C191.03125 191.87890625 191.03125 191.87890625 188.5 192.5625 C187.60539063 192.80742187 186.71078125 193.05234375 185.7890625 193.3046875 C181.8726627 194.28104487 177.95053636 195.17166173 174 196 C174 196.66 174 197.32 174 198 C172.68 198 171.36 198 170 198 C170 198.66 170 199.32 170 200 C169.01 200 168.02 200 167 200 C167 200.66 167 201.32 167 202 C165.0234375 203.33203125 165.0234375 203.33203125 162.375 204.8125 C159.19072651 206.64819307 156.27000432 208.45641414 153.5 210.875 C151 213 151 213 149 213 C149 213.66 149 214.32 149 215 C146.525 215.99 146.525 215.99 144 217 C144 217.66 144 218.32 144 219 C142.53125 220.4453125 142.53125 220.4453125 140.5 222.125 C132.80625164 228.26911567 132.80625164 228.26911567 127 236 C126.34 236 125.68 236 125 236 C124.73123047 236.58193115 124.46246094 237.1638623 124.18554688 237.76342773 C122.98718561 240.02417476 121.66003772 241.81636665 120.03125 243.78515625 C119.46019531 244.48060547 118.88914062 245.17605469 118.30078125 245.89257812 C117.70652344 246.60865234 117.11226562 247.32472656 116.5 248.0625 C115.32176121 249.48993246 114.14463252 250.91828213 112.96875 252.34765625 C112.18661133 253.29137085 112.18661133 253.29137085 111.38867188 254.25415039 C108.66034029 257.43541957 108.66034029 257.43541957 108.2265625 261.4140625 C109.00597553 264.01997878 109.98601322 266.04318584 111.375 268.375 C112.88984418 270.93071871 114.16204678 273.38842856 115.30859375 276.13671875 C117.38992828 281.10154106 120.07512516 285.73759238 122.6875 290.4375 C127.07346658 298.39945113 131.31079726 306.40498262 135.3125 314.56640625 C137.18176326 318.36983775 139.12295895 322.13296912 141.08984375 325.88671875 C142.10193213 328.23667504 142.58104876 330.48188258 143 333 C143.66 333 144.32 333 145 333 C145.60521484 334.22783203 145.60521484 334.22783203 146.22265625 335.48046875 C149.68140793 342.45878964 153.19858465 349.40302878 156.80078125 356.30859375 C157.13427078 356.94893051 157.46776031 357.58926727 157.81135559 358.24900818 C159.1689503 360.85540208 160.52654265 363.46174162 161.89334106 366.06332397 C162.86764108 367.91783421 163.83653742 369.77508607 164.8046875 371.6328125 C165.65522705 373.25533936 165.65522705 373.25533936 166.52294922 374.91064453 C167.94977735 377.89495581 169.0285526 380.84146235 170 384 C170.66 384 171.32 384 172 384 C172.309375 383.38125 172.61875 382.7625 172.9375 382.125 C173.625 380.75 174.3125 379.375 175 378 C175.66 378 176.32 378 177 378 C177.309375 377.38125 177.61875 376.7625 177.9375 376.125 C178.625 374.75 179.3125 373.375 180 372 C180.99 372 181.98 372 183 372 C183.33 370.68 183.66 369.36 184 368 C184.99 368 185.98 368 187 368 C187 367.01 187 366.02 187 365 C187.66 365 188.32 365 189 365 C189 364.34 189 363.68 189 363 C189.5775 362.7525 190.155 362.505 190.75 362.25 C193.30958921 360.82800599 194.96987323 359.09561473 197 357 C200 355 200 355 204 355 C204 354.34 204 353.68 204 353 C204.8353125 352.72736328 204.8353125 352.72736328 205.6875 352.44921875 C206.450625 352.19785156 207.21375 351.94648438 208 351.6875 C208.7425 351.44386719 209.485 351.20023437 210.25 350.94921875 C213.1761204 349.98278214 213.1761204 349.98278214 216.59375 348.40625 C221.83100833 346.42935726 226.97248129 346.67104775 232.5 346.8125 C233.51320313 346.82603516 234.52640625 346.83957031 235.5703125 346.85351562 C238.04744404 346.88856937 240.52342927 346.93770236 243 347 C243 347.66 243 348.32 243 349 C243.9075 348.9175 244.815 348.835 245.75 348.75 C253.57925604 348.75 261.9690384 352.1458114 268 357 C269.66666667 358.66666667 271.33333333 360.33333333 273 362 C273.99 362.33 274.98 362.66 276 363 C277.6484375 364.671875 277.6484375 364.671875 279.375 366.75 C281.47775626 369.24116346 283.575801 371.62768528 285.9375 373.875 C288 376 288 376 288 378 C288.66 378 289.32 378 290 378 C291.47439858 380.01276819 292.81092791 382.01004374 294.125 384.125 C294.52170898 384.75664062 294.91841797 385.38828125 295.32714844 386.0390625 C296.56208293 388.01967343 297.78238562 390.00870341 299 392 C299.3702832 392.59780273 299.74056641 393.19560547 300.12207031 393.81152344 C305.27816933 402.18607916 309.00891096 410.62562898 312 420 C312.53985289 421.64642917 313.08126373 423.29234924 313.625 424.9375 C313.82351563 425.56527344 314.02203125 426.19304687 314.2265625 426.83984375 C315.03720038 429.20117192 315.03720038 429.20117192 316.45703125 432.1796875 C318.28291554 436.39460552 319.17752072 440.69522399 320.0625 445.1875 C320.31737183 446.44216064 320.31737183 446.44216064 320.57739258 447.72216797 C323.08588778 460.21045182 325.15022342 472.52530392 325.16796875 485.28515625 C325.17129715 486.14451279 325.17462555 487.00386932 325.17805481 487.88926697 C325.18308513 489.69855216 325.18546435 491.5078465 325.18530273 493.31713867 C325.18747499 496.0312503 325.20563353 498.74494513 325.22460938 501.45898438 C325.26898258 515.10218886 324.6598728 528.38352483 320.71875 541.546875 C320.02464651 543.91588038 319.49341928 546.26974553 319 548.6875 C318.24099463 552.23161596 317.1235967 555.46092295 315.7890625 558.82421875 C314.53594373 562.2796007 313.6575413 565.8284687 312.74609375 569.38671875 C311.99503409 572.01739368 311.02215524 574.46397091 310 577 C309.33533864 579.07740313 308.69063488 581.16126233 308.0625 583.25 C305.35044777 592.14954916 302.45703029 600.65862981 298.5625 609.125 C297.11811346 612.46514387 296.1002026 615.88896784 295.0625 619.375 C293.69494483 623.92147588 292.13989591 628.15188176 290.125 632.44140625 C288.63864743 635.82182616 287.39158299 639.28315586 286.125 642.75 C284.24869967 647.8669118 282.21986035 652.82342473 279.875 657.75 C277.05254322 663.68458676 274.92302065 669.72190316 273 676 C272.34 676 271.68 676 271 676 C270.938125 676.94875 270.87625 677.8975 270.8125 678.875 C270.20467048 683.1469286 268.37960813 686.49142495 266.38671875 690.27734375 C263.95449658 695.05272079 262.03122933 700.04428989 260 705 C254.93202267 717.12040361 249.46840266 729.05650714 244 741 C243.4961377 742.10085938 242.99227539 743.20171875 242.47314453 744.3359375 C239.31899722 751.22559635 236.16119203 758.11357078 233 765 C232.01 765 231.02 765 230 765 C229.73445312 764.32453125 229.46890625 763.6490625 229.1953125 762.953125 C228.84210938 762.06109375 228.48890625 761.1690625 228.125 760.25 C227.60292969 758.92742187 227.60292969 758.92742187 227.0703125 757.578125 C226.06284557 755.0384159 226.06284557 755.0384159 224.8671875 752.859375 C224 751 224 751 224 748 C223.34 748 222.68 748 222 748 C221.63648438 747.07380859 221.63648438 747.07380859 221.265625 746.12890625 C218.45398811 739.02411611 215.55418595 731.98857504 212.0625 725.1875 C210.48234714 722.07581437 209.12403886 718.92143144 207.8125 715.6875 C205.54721228 710.15091168 203.02205075 704.76708853 200.4375 699.375 C196.07214582 690.24509733 192.36855073 681.04755106 188.93359375 671.53125 C187.23580311 666.92803522 185.28126004 662.52535053 183 658.1875 C181.05047214 654.36257082 179.87619609 650.48349318 178.70703125 646.36328125 C177.73437305 643.11213091 176.38767099 640.09557375 175 637 C171.90646845 629.95883055 169.28090086 622.95206687 167.109375 615.57421875 C165.58233058 610.65433973 163.82150758 605.82405654 162.01782227 600.99926758 C160.43176446 596.64575882 159.49951959 592.61002414 159 588 C158.34 588 157.68 588 157 588 C156.63648438 586.49373047 156.63648438 586.49373047 156.265625 584.95703125 C155.92804244 583.57528615 155.58942417 582.19379386 155.25 580.8125 C155.07243164 580.0894165 154.89486328 579.36633301 154.71191406 578.62133789 C153.55605 573.99737379 152.22943813 569.47092113 150.75 564.9375 C149.30211919 560.39024932 148.55836612 556.74756416 149 552 C148.34 552 147.68 552 147 552 C144.0703125 537.3515625 144.0703125 537.3515625 143.53564453 534.65698242 C143.18820179 532.93354608 142.83041328 531.21215074 142.46044922 529.4934082 C137.90897396 508.03007879 139 485.76280255 139 464 C93.13 464 47.26 464 0 464 C0 310.88 0 157.76 0 0 Z " fill="#FEFEFE" transform="translate(433,0)"/>
<path d="M0 0 C30.69 0 61.38 0 93 0 C93 152.46 93 304.92 93 462 C138.87 462 184.74 462 232 462 C232.33 472.89 232.66 483.78 233 495 C233.407102 501.11350892 233.83732268 507.16204748 234.4375 513.25 C234.56125197 514.64707314 234.68429273 516.04420945 234.80664062 517.44140625 C235.54583678 525.4134671 235.54583678 525.4134671 238 533 C238.42852836 534.98921805 238.80211347 536.99092825 239.125 539 C239.29257812 540.010625 239.46015625 541.02125 239.6328125 542.0625 C239.96864471 544.74915771 240.06956677 547.29683403 240 550 C240.66 550 241.32 550 242 550 C242.17015625 550.94359375 242.3403125 551.8871875 242.515625 552.859375 C243.91076161 560.25063066 245.62624426 567.15331398 248.1484375 574.2578125 C249.36662343 578.18059471 249.72734122 581.91011827 250 586 C250.66 586 251.32 586 252 586 C252.31453125 587.01578125 252.6290625 588.0315625 252.953125 589.078125 C255.26518389 596.52375377 257.61007728 603.95308732 260.10546875 611.33984375 C260.66193023 612.99464842 261.20811964 614.65298912 261.73828125 616.31640625 C264.16477779 623.89412449 267.27161387 631.19755052 270.5625 638.4375 C272.34150523 642.84633906 273.63493753 647.34423917 274.9375 651.9140625 C275.97867423 654.93806118 277.28666964 657.31349799 279 660 C280.84019048 664.00041409 282.39015258 668.04304635 283.875 672.1875 C287.89889712 683.30183295 292.77358639 693.86418415 297.99047852 704.46386719 C300.70950315 710.05013126 303.05277127 715.61287418 305.02319336 721.50756836 C306.08563693 724.21851222 307.46976386 726.52761351 309 729 C315 742.25 315 742.25 315 746 C315.66 746 316.32 746 317 746 C318.00936536 748.078812 319.00717846 750.1632362 320 752.25 C320.8353125 753.99023438 320.8353125 753.99023438 321.6875 755.765625 C323 759 323 759 323 763 C323.99 763 324.98 763 326 763 C326.33 761.865625 326.66 760.73125 327 759.5625 C328.82593713 754.06746277 331.31387276 748.93967876 333.80786133 743.72607422 C338.33215382 734.25672074 342.51545391 724.64577516 346.5 714.9375 C348.37429307 710.39357238 350.40226615 705.94338171 352.5 701.5 C356.74928013 692.49491821 360.58226472 683.35380182 364 674 C364.66 674 365.32 674 366 674 C366.09539062 673.19433594 366.19078125 672.38867188 366.2890625 671.55859375 C367.16872295 667.15545822 368.70565832 663.21860895 370.375 659.0625 C370.67921875 658.28970703 370.9834375 657.51691406 371.296875 656.72070312 C373.12019667 652.11175112 375.02932783 647.547705 377 643 C380.21307574 635.52700771 383.11488156 628.00003185 385.80859375 620.32421875 C387.13896504 616.61226477 388.60059331 612.96891312 390.09375 609.3203125 C391.30193022 606.22695452 392.31025615 603.08264035 393.2890625 599.91015625 C394 598 394 598 396 595 C396.69579972 593.01682995 397.33491608 591.01345308 397.9375 589 C398.28554688 587.84242188 398.63359375 586.68484375 398.9921875 585.4921875 C399.89064155 582.37893976 400.73791373 579.25842783 401.5625 576.125 C402.3708921 573.0880675 403.23630636 570.4584646 404.5 567.5625 C406.26341332 563.37439336 407.24893207 559.19255323 408.25390625 554.76953125 C409 552 409 552 409.99609375 550.02734375 C411.32598459 547.34168871 411.86227859 544.67520037 412.5 541.75 C413.30008147 538.11730684 414.11518305 534.51707502 415.125 530.9375 C417.77788353 520.15672764 417.18630622 508.59677123 417.18530273 497.56640625 C417.18747887 494.90087652 417.20566879 492.23576891 417.22460938 489.5703125 C417.27244161 475.2325801 416.56765005 460.96429257 413.0625 447 C412.88920166 446.30124756 412.71590332 445.60249512 412.53735352 444.88256836 C411.19192228 439.53371932 409.65905141 434.25819573 408 429 C407.49962135 427.27094287 406.99962581 425.54177482 406.5 423.8125 C405.27208572 419.72793539 403.7672275 415.88790051 402 412 C401.74863281 411.39542969 401.49726562 410.79085938 401.23828125 410.16796875 C396.43280351 398.79572958 390.69591844 387.66923086 383 378 C383 377.34 383 376.68 383 376 C382.34 376 381.68 376 381 376 C379.44921875 374.42578125 379.44921875 374.42578125 377.6875 372.3125 C375.56355316 369.80197706 373.44498656 367.39176579 371.0625 365.125 C369 363 369 363 369 361 C368.4225 360.896875 367.845 360.79375 367.25 360.6875 C364.64338842 359.89103535 363.0264689 358.80934723 361 357 C361 356.34 361 355.68 361 355 C360.360625 354.7525 359.72125 354.505 359.0625 354.25 C357.37295602 353.56039021 355.69015091 352.84849063 354.05078125 352.046875 C348.15361388 349.20945875 342.46447473 347.91831791 336 347 C336 346.34 336 345.68 336 345 C332.4991057 345.08174173 328.99984507 345.19450268 325.5 345.3125 C324.51773437 345.33505859 323.53546875 345.35761719 322.5234375 345.38085938 C316.35665676 345.60697467 311.64640583 346.49616393 306 349 C302.45623494 350.53026218 300.98231961 351 297 351 C297 351.66 297 352.32 297 353 C290.375 355.875 290.375 355.875 287 357 C286.67 357.99 286.34 358.98 286 360 C283.9375 360.6875 283.9375 360.6875 282 361 C282 361.66 282 362.32 282 363 C281.34 363 280.68 363 280 363 C280 363.99 280 364.98 280 366 C279.01 366.33 278.02 366.66 277 367 C276.67 367.99 276.34 368.98 276 370 C275.01 370 274.02 370 273 370 C272.5359375 370.928125 272.5359375 370.928125 272.0625 371.875 C271.375 373.25 270.6875 374.625 270 376 C269.34 376 268.68 376 268 376 C267.5359375 376.928125 267.5359375 376.928125 267.0625 377.875 C266.375 379.25 265.6875 380.625 265 382 C264.34 382 263.68 382 263 382 C262.59652344 381.18144531 262.19304687 380.36289062 261.77734375 379.51953125 C257.32078412 370.52425759 252.75209421 361.58727948 248.14700317 352.66732788 C247.46628937 351.34864688 246.78617339 350.0296571 246.10665894 348.71035767 C245.13810548 346.83065854 244.16708749 344.95225403 243.1953125 343.07421875 C242.62828613 341.97682373 242.06125977 340.87942871 241.47705078 339.7487793 C240.0040481 336.90339114 240.0040481 336.90339114 238 334 C238 333.01 238 332.02 238 331 C237.34 331 236.68 331 236 331 C235.6596875 330.23558594 235.319375 329.47117187 234.96875 328.68359375 C231.9062767 321.91520197 228.64436674 315.33520363 225.10571289 308.80712891 C222.61113185 304.19112073 220.25280452 299.52064167 217.9375 294.8125 C215.0234774 288.89734117 211.84380683 283.21050238 208.4609375 277.546875 C207.25707522 275.44816322 206.23110144 273.41980027 205.3125 271.1875 C204.26544306 268.64464743 203.19988154 266.6702362 201.75 264.375 C200 261 200 261 200.1015625 258.6796875 C201.28171116 255.15976585 203.31494255 252.59155641 205.625 249.75 C206.53392182 248.60552247 207.44277559 247.46099091 208.3515625 246.31640625 C209.02493652 245.47746826 209.02493652 245.47746826 209.71191406 244.62158203 C212.08299973 241.63660268 214.34400907 238.56583401 216.625 235.51171875 C217.07875 235.01285156 217.5325 234.51398438 218 234 C218.66 234 219.32 234 220 234 C220.4031543 233.11006348 220.4031543 233.11006348 220.81445312 232.20214844 C222.00290732 229.99459967 223.20742389 228.53457118 224.96875 226.765625 C225.53980469 226.19199219 226.11085938 225.61835938 226.69921875 225.02734375 C227.29347656 224.44082031 227.88773438 223.85429687 228.5 223.25 C229.09425781 222.64800781 229.68851563 222.04601562 230.30078125 221.42578125 C230.87183594 220.85730469 231.44289063 220.28882813 232.03125 219.703125 C232.55267578 219.18395508 233.07410156 218.66478516 233.61132812 218.12988281 C235 217 235 217 237 217 C237 216.34 237 215.68 237 215 C239.475 214.01 239.475 214.01 242 213 C242 212.34 242 211.68 242 211 C253.94827586 200 253.94827586 200 260 200 C260 199.34 260 198.68 260 198 C260.99 198 261.98 198 263 198 C263 197.34 263 196.68 263 196 C264.32 196 265.64 196 267 196 C267 195.34 267 194.68 267 194 C272.6374461 192.08000024 278.28530458 190.3155881 284.03125 188.74609375 C286.19156663 188.18178418 286.19156663 188.18178418 287 186 C288.74658203 185.4375 288.74658203 185.4375 291.0078125 185 C291.83023437 184.835 292.65265625 184.67 293.5 184.5 C294.36625 184.335 295.2325 184.17 296.125 184 C297.81558632 183.66912072 299.50570133 183.33582334 301.1953125 183 C302.43680054 182.75600464 302.43680054 182.75600464 303.70336914 182.50708008 C306.20668265 181.99483034 306.20668265 181.99483034 309.37890625 180.88671875 C314.54039739 179.62279373 319.52025607 179.75023831 324.8125 179.8125 C325.84181641 179.81314453 326.87113281 179.81378906 327.93164062 179.81445312 C334.34222152 179.850946 340.63568279 180.23239533 347 181 C347 181.99 347 182.98 347 184 C348.7015625 183.9690625 348.7015625 183.9690625 350.4375 183.9375 C354 184 354 184 355 185 C355.928125 185.0825 356.85625 185.165 357.8125 185.25 C369.80454658 186.87645166 381.47522969 194.6508242 392.15820312 200.10107422 C392.86396484 200.45830566 393.56972656 200.81553711 394.296875 201.18359375 C394.93463867 201.5077124 395.57240234 201.83183105 396.22949219 202.16577148 C398.16731188 203.1214923 398.16731188 203.1214923 401 204 C402.6875 205.4375 402.6875 205.4375 404 207 C404 207.66 404 208.32 404 209 C404.66 209 405.32 209 406 209 C407.66666667 210.66666667 409.33333333 212.33333333 411 214 C411.99 214.33 412.98 214.66 414 215 C414 215.66 414 216.32 414 217 C414.99 217 415.98 217 417 217 C417.33 217.99 417.66 218.98 418 220 C418.99 220.33 419.98 220.66 421 221 C421 221.66 421 222.32 421 223 C421.66 223 422.32 223 423 223 C424.41015625 224.3984375 424.41015625 224.3984375 426.0625 226.375 C428.74937105 229.54484167 431.49398472 232.63410845 434.3125 235.6875 C445.85282472 248.5187763 455.58598407 262.77736234 464.125 277.75 C464.5156665 278.42973877 464.90633301 279.10947754 465.30883789 279.80981445 C468 284.63237206 468 284.63237206 468 288 C468.66 288 469.32 288 470 288 C473.97335732 296.43220525 477.89124611 304.88971544 481.75 313.375 C482.12632568 314.19387695 482.50265137 315.01275391 482.89038086 315.85644531 C484.98749982 320.48966953 486.80584087 325.11906376 488.34667969 329.96679688 C489.80242722 334.49723986 491.51653545 338.9072915 493.44140625 343.2578125 C495.05225062 347.00518703 496.29684513 350.83672643 497.4375 354.75 C497.65067871 355.47662842 497.86385742 356.20325684 498.08349609 356.9519043 C500.12682017 364.11115721 501.63148118 371.35793315 503.1015625 378.65234375 C503.79805995 382.09139193 504.60227596 385.48198924 505.5 388.875 C509.09735022 403.04816671 511.36674058 417.21597582 512.40454102 431.80004883 C512.47084717 432.72712646 512.53715332 433.6542041 512.60546875 434.609375 C512.65856201 435.43405273 512.71165527 436.25873047 512.76635742 437.10839844 C512.80427192 439.00930317 512.80427192 439.00930317 514 440 C516.92167618 459.07651372 516.31589419 478.85947919 516.26074219 498.10668945 C516.24928065 502.14933816 516.25616288 506.19172541 516.26763153 510.23436546 C516.37102186 553.25795627 516.37102186 553.25795627 513 560 C512.70486549 562.10628368 512.41462433 564.21337817 512.15014648 566.32373047 C510.11442409 582.45936958 506.58611157 598.3970669 502 614 C501.39695869 616.14020887 500.79559552 618.28089085 500.1953125 620.421875 C499.50531796 622.8646143 498.81521056 625.30732173 498.125 627.75 C497.78597656 628.96171875 497.44695312 630.1734375 497.09765625 631.421875 C495.26021793 637.90530754 493.26944632 644.26309445 490.90625 650.57421875 C489.66423706 653.89874477 488.54986596 657.25486154 487.4375 660.625 C487.22480469 661.26614746 487.01210938 661.90729492 486.79296875 662.56787109 C485.9172073 665.20917296 485.04775894 667.85233951 484.19140625 670.5 C481.66067253 678.27807426 478.62185347 685.86404129 475.63671875 693.4765625 C472.97490926 700.21630099 472.97490926 700.21630099 470.8125 707.125 C470 710 470 710 468 713 C467.50132851 714.33983714 467.04647862 715.69641341 466.625 717.0625 C465.31394327 721.13264627 463.7959726 725.06854587 462.18359375 729.02734375 C459.68208432 735.31001264 457.35880823 741.66266855 455 748 C454.34 748 453.68 748 453 748 C452.85304688 748.94359375 452.85304688 748.94359375 452.703125 749.90625 C451.81982293 754.9623929 450.65986461 759.15372103 448.21484375 763.65625 C446.59183883 766.78744921 445.201356 770.01044752 443.8125 773.25 C443.30332031 774.43078125 442.79414062 775.6115625 442.26953125 776.828125 C441.30206975 779.24529034 440.52154144 781.46141276 440 784 C439.34 784 438.68 784 438 784 C437.896875 785.051875 437.79375 786.10375 437.6875 787.1875 C436.99329316 791.03719245 436.07709397 792.76896493 434 796 C433.38738553 797.29343359 432.79898618 798.59844055 432.2265625 799.91015625 C431.8752124 800.71130859 431.5238623 801.51246094 431.16186523 802.33789062 C430.77844971 803.21638672 430.39503418 804.09488281 430 805 C429.15015374 806.92856797 428.29987249 808.8569443 427.44921875 810.78515625 C424.6308361 817.18923522 421.81496332 823.59441741 419 830 C418.61779297 830.86931152 418.23558594 831.73862305 417.84179688 832.63427734 C416.87274322 834.83910081 415.90483933 837.04442396 414.9375 839.25 C414.14666016 841.05210937 414.14666016 841.05210937 413.33984375 842.890625 C412.54017488 844.74641631 411.7623828 846.61224755 411.03125 848.49609375 C409.71319338 851.69637517 408.14134953 854.73289458 406.5625 857.8125 C404.60402564 861.66466842 402.70468439 865.48627208 401.25 869.5625 C400.11259406 872.69036633 398.72507757 875.17714579 397 878 C396.30420546 880.19130534 396.30420546 880.19130534 396 882 C395.34 882 394.68 882 394 882 C393.82984375 882.556875 393.6596875 883.11375 393.484375 883.6875 C391.98297894 888.41530035 390.21546139 892.7441945 387.91796875 897.13671875 C386.66771033 899.67447734 385.81162491 902.29458365 385 905 C384.34 905 383.68 905 383 905 C382.938125 905.79148437 382.87625 906.58296875 382.8125 907.3984375 C381.70631733 912.3018049 379.42257826 916.25090036 377 920.625 C376.07940119 922.30253561 375.16258215 923.98215237 374.25 925.6640625 C373.84265625 926.40092285 373.4353125 927.1377832 373.015625 927.89697266 C372.03357026 929.93048697 371.458249 931.79529931 371 934 C370.34 934 369.68 934 369 934 C368.01 937.3 367.02 940.6 366 944 C365.34 944 364.68 944 364 944 C363.89171875 944.70769531 363.7834375 945.41539062 363.671875 946.14453125 C362.92659477 949.31197224 361.7457664 951.80005404 360.25 954.6875 C359.44369141 956.26144531 359.44369141 956.26144531 358.62109375 957.8671875 C358.08613281 958.90101563 357.55117188 959.93484375 357 961 C354.15124512 966.60228675 351.39994393 972.18960944 349 978 C348.34 978 347.68 978 347 978 C346.67 979.98 346.34 981.96 346 984 C345.34 984 344.68 984 344 984 C343.01 987.3 342.02 990.6 341 994 C340.34 994 339.68 994 339 994 C338.87625 994.721875 338.7525 995.44375 338.625 996.1875 C338.0095069 998.95721894 337.11555626 1001.3970354 336 1004 C335.34 1004 334.68 1004 334 1004 C333.8865625 1004.71929688 333.773125 1005.43859375 333.65625 1006.1796875 C332.96588124 1009.14662944 331.91512646 1011.43461423 330.5 1014.125 C329.11780882 1016.76884242 327.94548313 1019.1635506 327 1022 C326.34 1022 325.68 1022 325 1022 C324.34 1019.36 323.68 1016.72 323 1014 C322.34 1014 321.68 1014 321 1014 C320.64695801 1013.25838623 320.29391602 1012.51677246 319.93017578 1011.75268555 C318.33083197 1008.3964828 316.72795959 1005.04197722 315.125 1001.6875 C314.56941406 1000.52025391 314.01382812 999.35300781 313.44140625 998.15039062 C312.63896484 996.47299805 312.63896484 996.47299805 311.8203125 994.76171875 C311.32805176 993.73006592 310.83579102 992.69841309 310.32861328 991.63549805 C309.00235168 988.87269648 309.00235168 988.87269648 307 986 C307 985.01 307 984.02 307 983 C306.34 983 305.68 983 305 983 C304.74420166 982.45287354 304.48840332 981.90574707 304.22485352 981.34204102 C299.06827325 970.34080039 293.77868746 959.45461085 288.0078125 948.76171875 C285.91942539 944.88285275 283.95413722 940.94778645 282 937 C281.38079043 935.76012579 280.7610065 934.52053824 280.140625 933.28125 C277.421875 927.84375 274.703125 922.40625 271.984375 916.96875 C271.65598633 916.31221436 271.32759766 915.65567871 270.98925781 914.97924805 C270.33157481 913.6633951 269.67466919 912.34715332 269.01855469 911.03051758 C267.27033337 907.52499664 265.50596331 904.028792 263.71875 900.54296875 C263.161875 899.44952148 263.161875 899.44952148 262.59375 898.33398438 C261.87989414 896.93304226 261.16134924 895.53447676 260.4375 894.13867188 C258.95933857 891.22705149 258 889.31318891 258 886 C257.34 886 256.68 886 256 886 C255.81566406 885.47535156 255.63132812 884.95070313 255.44140625 884.41015625 C253.2322067 878.50913877 250.49044687 873.03162757 247.5 867.5 C243.40969627 859.91297224 239.55491351 852.55202428 238 844 C237.34 844 236.68 844 236 844 C235.74605469 843.33613281 235.49210938 842.67226563 235.23046875 841.98828125 C233.44150816 837.39862581 231.60537512 833.19125563 229 829 C222 813.7826087 222 813.7826087 222 809 C221.34 809 220.68 809 220 809 C219.67128906 807.89205078 219.67128906 807.89205078 219.3359375 806.76171875 C217.30376799 800.2604285 214.81385123 794.55264914 211.44140625 788.64453125 C209.65792262 785.37239461 208.30743011 782.03186789 206.98046875 778.5546875 C205.96313107 775.90393513 204.86350051 773.29923209 203.75 770.6875 C201.29559532 764.80923925 198.97796572 758.88110718 196.6875 752.9375 C196.3255957 752.00832764 195.96369141 751.07915527 195.59082031 750.12182617 C195.2553418 749.24502197 194.91986328 748.36821777 194.57421875 747.46484375 C194.27088623 746.677146 193.96755371 745.88944824 193.6550293 745.07788086 C193 743 193 743 193 740 C192.34 740 191.68 740 191 740 C190.74605469 739.21496094 190.49210938 738.42992187 190.23046875 737.62109375 C188.76068284 733.13466858 187.30725433 728.71283005 185.4375 724.375 C183.90615729 720.77967364 182.84041537 717.18334867 181.76171875 713.43359375 C181.07012287 711.22403357 180.26207194 709.17117383 179.3125 707.0625 C178 704 178 704 178 701 C177.34 701 176.68 701 176 701 C175.74605469 699.99839844 175.49210938 698.99679687 175.23046875 697.96484375 C174.88310265 696.62232073 174.53542995 695.27987701 174.1875 693.9375 C174.02185547 693.28072266 173.85621094 692.62394531 173.68554688 691.94726562 C172.80503931 688.5747555 171.80626761 685.43085152 170.36328125 682.25390625 C169 679 169 679 169 675 C168.34 675 167.68 675 167 675 C166.83395264 674.41621582 166.66790527 673.83243164 166.49682617 673.23095703 C165.72778118 670.52876288 164.95764526 667.82688076 164.1875 665.125 C163.79594727 663.74828125 163.79594727 663.74828125 163.39648438 662.34375 C163.13544922 661.42851563 162.87441406 660.51328125 162.60546875 659.5703125 C162.3429834 658.64895508 162.08049805 657.72759766 161.81005859 656.77832031 C160.77570484 653.23071763 159.66897857 649.70692294 158.54418945 646.18701172 C158 644 158 644 158 640 C157.34 640 156.68 640 156 640 C155.80664062 639.03578125 155.61328125 638.0715625 155.4140625 637.078125 C155.15367187 635.81484375 154.89328125 634.5515625 154.625 633.25 C154.36976563 631.99703125 154.11453125 630.7440625 153.8515625 629.453125 C153.18886024 626.17969084 153.18886024 626.17969084 152.01147461 624.10498047 C150.84774288 621.68313761 150.41419911 619.5143253 149.96484375 616.8671875 C149.79533203 615.89652344 149.62582031 614.92585937 149.45117188 613.92578125 C149.28166016 612.91902344 149.11214844 611.91226563 148.9375 610.875 C148.59517077 608.87192859 148.25024716 606.86929829 147.90234375 604.8671875 C147.75273193 603.98144043 147.60312012 603.09569336 147.44897461 602.18310547 C147.0910513 599.96721095 147.0910513 599.96721095 146 598 C97.82 597.67 49.64 597.34 0 597 C0 399.99 0 202.98 0 0 Z " fill="#25B2FB" transform="translate(340,2)"/>
<path d="M0 0 C31.35 0 62.7 0 95 0 C95 196.68 95 393.36 95 596 C-128.35022026 596 -128.35022026 596 -148 585 C-148.89074219 584.51789062 -149.78148437 584.03578125 -150.69921875 583.5390625 C-152.81533003 582.38481999 -154.90972053 581.20013927 -157 580 C-158.5159375 579.1646875 -158.5159375 579.1646875 -160.0625 578.3125 C-161.0215625 577.6628125 -161.0215625 577.6628125 -162 577 C-162 576.34 -162 575.68 -162 575 C-162.66 575 -163.32 575 -164 575 C-164 574.34 -164 573.68 -164 573 C-164.99 573 -165.98 573 -167 573 C-167.391875 572.34 -167.78375 571.68 -168.1875 571 C-169.88520337 568.19000821 -171.4711705 566.44425676 -173.8125 564.1875 C-180.75266222 557.38690229 -185.8269486 549.79004443 -190 541 C-190 540.34 -190 539.68 -190 539 C-190.66 539 -191.32 539 -192 539 C-192.45439453 537.78376953 -192.45439453 537.78376953 -192.91796875 536.54296875 C-194.91756631 531.25787858 -196.92586329 526.06404674 -199.4375 521 C-214.42921412 488.51007066 -213.35964707 450.36439053 -213.26074219 415.38232422 C-213.24934863 411.31553684 -213.25613643 407.24901134 -213.26761818 403.18223286 C-213.32558737 378.99244379 -212.9702777 354.75497975 -209.125 330.8125 C-208.95572998 329.71010986 -208.78645996 328.60771973 -208.61206055 327.47192383 C-207.37354036 319.66941777 -205.78991693 312.00760363 -203.83203125 304.35546875 C-203.06088299 301.24553281 -202.48005469 298.16642136 -202 295 C-201.34 295 -200.68 295 -200 295 C-199.85304687 293.89205078 -199.85304687 293.89205078 -199.703125 292.76171875 C-197.76077103 279.58385171 -192.38807795 268.06263518 -187 256 C-186.34 256 -185.68 256 -185 256 C-184.9175 255.32195312 -184.835 254.64390625 -184.75 253.9453125 C-183.79329722 250.18826095 -182.0042118 247.15016517 -180 243.875 C-179.60280762 243.21846436 -179.20561523 242.56192871 -178.79638672 241.88549805 C-175.02932425 235.79790733 -170.6573607 230.43358748 -166 225 C-165.46117187 224.24074219 -164.92234375 223.48148438 -164.3671875 222.69921875 C-163.91601562 222.13847656 -163.46484375 221.57773438 -163 221 C-162.34 221 -161.68 221 -161 221 C-161 220.34 -161 219.68 -161 219 C-160.34 219 -159.68 219 -159 219 C-159 218.34 -159 217.68 -159 217 C-158.34 217 -157.68 217 -157 217 C-157 216.34 -157 215.68 -157 215 C-152.52941176 211 -152.52941176 211 -150 211 C-150 210.34 -150 209.68 -150 209 C-147.89016833 206.14552186 -145.19957936 205.11381273 -141.96484375 203.828125 C-139.85872512 202.94045671 -137.88810989 201.89326221 -135.875 200.8125 C-132.78162878 199.229705 -130.53433512 198.55820811 -127 199 C-127 198.01 -127 197.02 -127 196 C-123.45917084 193.8755025 -120.05008109 193.53491637 -116 193 C-115.67 192.67 -115.34 192.34 -115 192 C-95.69716039 190.86453885 -76.33620668 191 -57 191 C-57 234.89 -57 278.78 -57 324 C-67.23 324.33 -77.46 324.66 -88 325 C-90.64 325.33 -93.28 325.66 -96 326 C-96 326.66 -96 327.32 -96 328 C-97.98 328.66 -99.96 329.32 -102 330 C-102 330.66 -102 331.32 -102 332 C-102.66 332 -103.32 332 -104 332 C-104.26941406 332.54914063 -104.53882812 333.09828125 -104.81640625 333.6640625 C-105.64573011 335.30081388 -106.51104327 336.91959319 -107.40234375 338.5234375 C-111.57130722 346.26731367 -113.54148675 353.3512723 -115 362 C-115.66 362 -116.32 362 -117 362 C-118.08777186 375.18101229 -118.21870157 388.34396515 -118.24023438 401.56420898 C-118.25000895 405.19081988 -118.28116337 408.81687897 -118.3125 412.44335938 C-118.31902637 414.7890592 -118.32427828 417.134763 -118.328125 419.48046875 C-118.3466452 421.0763105 -118.3466452 421.0763105 -118.36553955 422.70439148 C-118.33247645 434.03532672 -116.32275908 444.4760956 -110 454 C-109.401875 454.969375 -108.80375 455.93875 -108.1875 456.9375 C-81.92009589 481.70390959 -36.10008127 461.63163182 0 462 C0 309.54 0 157.08 0 0 Z " fill="#25B2FB" transform="translate(213,2)"/>
<path d="M0 0 C101.64 0 203.28 0 308 0 C308 0.66 308 1.32 308 2 C276.65 2 245.3 2 213 2 C213 154.46 213 306.92 213 464 C109.49223947 464 109.49223947 464 103.94921875 459.23828125 C103.32466797 458.28501953 103.32466797 458.28501953 102.6875 457.3125 C102.22214844 456.60351562 101.75679688 455.89453125 101.27734375 455.1640625 C100.85582031 454.44992187 100.43429688 453.73578125 100 453 C99.60941406 452.36835938 99.21882813 451.73671875 98.81640625 451.0859375 C93.76673018 442.09640428 93.69647078 431.73326899 93.734375 421.67578125 C93.73246155 420.53070602 93.7305481 419.3856308 93.72857666 418.20585632 C93.72722366 415.79649637 93.73085781 413.3871289 93.73925781 410.9777832 C93.74991989 407.33983485 93.73935739 403.70238586 93.7265625 400.06445312 C93.7203138 387.89104472 93.97045444 376.02355495 96 364 C96.66 364 97.32 364 98 364 C98.01417969 363.34515625 98.02835937 362.6903125 98.04296875 362.015625 C98.59359504 351.47931652 102.18933158 342.09917325 109 334 C109.66 334 110.32 334 111 334 C111 333.34 111 332.68 111 332 C112.98 331.34 114.96 330.68 117 330 C117 329.34 117 328.68 117 328 C129.62842525 324.84289369 142.98291721 326 156 326 C156 282.11 156 238.22 156 193 C123.61908985 187.77787632 123.61908985 187.77787632 97 196 C94.6693782 196.35179197 92.33564933 196.68330179 90 197 C88.66082739 197.30903983 87.32346746 197.62942911 86 198 C86 198.99 86 199.98 86 201 C85.43152344 201.17015625 84.86304687 201.3403125 84.27734375 201.515625 C80.32816969 202.75509866 76.73014659 204.02340502 73.1875 206.1875 C70 208 70 208 66 208 C65.67 208.99 65.34 209.98 65 211 C64.34 211 63.68 211 63 211 C63 211.66 63 212.32 63 213 C58.52941176 217 58.52941176 217 56 217 C56 217.66 56 218.32 56 219 C55.34 219 54.68 219 54 219 C54 219.66 54 220.32 54 221 C53.34 221 52.68 221 52 221 C52 221.66 52 222.32 52 223 C51.34 223 50.68 223 50 223 C49.75378906 223.56074219 49.50757813 224.12148437 49.25390625 224.69921875 C47.77600399 227.41100825 45.96629307 229.483145 43.9375 231.8125 C40.21361504 236.28959793 37.04670481 240.87638026 34.0625 245.875 C33.68536865 246.50510986 33.3082373 247.13521973 32.91967773 247.78442383 C30.97924988 251.10184399 29.31216075 254.38640548 28 258 C27.34 258 26.68 258 26 258 C25.84144531 258.60585938 25.68289062 259.21171875 25.51953125 259.8359375 C24.2687706 264.3276194 22.90358518 268.36192335 20.625 272.4375 C16.59488474 280.04449568 15.00583585 288.68645058 13 297 C12.34 297 11.68 297 11 297 C10.96261719 297.65484375 10.92523438 298.3096875 10.88671875 298.984375 C10.82097656 299.89703125 10.75523438 300.8096875 10.6875 301.75 C10.62949219 302.63171875 10.57148438 303.5134375 10.51171875 304.421875 C10.05843492 307.59140165 9.38948377 310.51581054 8.5859375 313.609375 C6.97979791 319.86410423 5.87218453 326.1134669 4.9375 332.5 C4.76831055 333.64186768 4.59912109 334.78373535 4.42480469 335.96020508 C2.59527649 348.9211257 1.73258831 361.9369975 1 375 C0.67 375 0.34 375 0 375 C0 251.25 0 127.5 0 0 Z " fill="#FEFEFE" transform="translate(0,0)"/>
<path d="M0 0 C156.75 0 313.5 0 475 0 C475 43.89 475 87.78 475 133 C384.22331141 133.03311921 384.22331141 133.03311921 339.47325134 133.04234314 C338.8051738 133.0424812 338.13709627 133.04261925 337.44877395 133.04276149 C322.93140575 133.04575405 308.41403751 133.04852428 293.89666921 133.05106533 C286.77787387 133.05231272 279.65907853 133.05360927 272.5402832 133.05493164 C271.83185853 133.0550624 271.12343385 133.05519316 270.39354176 133.05532788 C247.41067255 133.05959305 224.4278058 133.06710721 201.44493808 133.07629722 C177.83696002 133.0857201 154.22898331 133.09188318 130.6210034 133.09391499 C115.4008918 133.09523188 100.1807869 133.09944445 84.9606775 133.10791647 C74.99679099 133.11318187 65.03290814 133.11480477 55.06902034 133.11350138 C49.31105898 133.11285767 43.55310995 133.11387914 37.79515076 133.11920547 C32.53310594 133.12403784 27.27108185 133.12433973 22.00903612 133.12089889 C20.09651373 133.12047304 18.1839901 133.12177014 16.2714702 133.12488318 C13.68951457 133.12884446 11.10763571 133.12676509 8.5256815 133.12304783 C7.38893241 133.12698835 7.38893241 133.12698835 6.22921869 133.13100848 C1.1141458 133.1141458 1.1141458 133.1141458 0 132 C0 88.44 0 44.88 0 0 Z " fill="#25B2FB" transform="translate(1,700)"/>
<path d="M0 0 C30.69 0 61.38 0 93 0 C93.06621603 51.71268529 93.12157785 103.42533038 93.15319599 155.13804597 C93.15694782 161.25210559 93.16083081 167.36616512 93.16479492 173.48022461 C93.16558185 174.69735291 93.16636878 175.91448121 93.16717956 177.16849219 C93.18021065 196.84030803 93.20385176 216.51209739 93.23145839 236.18389756 C93.25957665 256.38975871 93.2761898 276.59560605 93.28226548 296.80148596 C93.28636864 309.25567546 93.29929784 321.70979012 93.3237494 334.16395658 C93.33968596 342.72028356 93.34438255 351.27657221 93.34050413 359.83291293 C93.33859484 364.75923672 93.34138755 369.68543032 93.35761642 374.61173058 C93.41566483 393.14008333 93.45455473 411.3022973 90.36183703 429.63175571 C89.58519117 434.71494778 89.17595555 439.84523572 88.73661119 444.96683496 C88.34874642 449.03926573 87.52137957 452.23834723 86 456 C85.01853224 460.44678566 84.28270114 464.94248993 83.5 469.42773438 C83.335 470.33974609 83.17 471.25175781 83 472.19140625 C82.855625 473.01842041 82.71125 473.84543457 82.5625 474.69750977 C81.9897622 477.04190657 81.10255751 478.86379482 80 481 C79.50946516 482.92943705 79.02167391 484.85973507 78.5625 486.796875 C77.78851694 489.82830865 76.79356695 492.76499171 75.77734375 495.72265625 C75.27189014 497.20345752 74.78387468 498.69036603 74.31640625 500.18359375 C72.75272628 505.13966415 70.84367672 509.82674135 68.62890625 514.52734375 C67.3291178 517.29835558 66.07691448 520.0798937 64.83984375 522.87890625 C59.84765146 533.98311998 54.53594536 544.182487 46 553 C45.34 553 44.68 553 44 553 C43.34 554.32 42.68 555.64 42 557 C41.34 557 40.68 557 40 557 C40 557.99 40 558.98 40 560 C37.9375 561.375 37.9375 561.375 35 563 C33.88793638 563.80165752 32.78421226 564.61496581 31.6875 565.4375 C27.28227549 568.61851551 22.5500068 572 17 572 C16.67 572.99 16.34 573.98 16 575 C13.18676988 576.47489735 10.04740908 577.1373301 7 578 C6.08728836 578.26150345 5.17457672 578.5230069 4.23420715 578.79243469 C-4.85151457 581.15415256 -13.50045717 581.3928977 -22.80078125 581.29296875 C-24.19738402 581.28854316 -25.59399181 581.28549174 -26.99060059 581.28381348 C-32.0979776 581.26825545 -37.20524723 581.22637287 -42.3125 581.1875 C-53.759375 581.125625 -65.20625 581.06375 -77 581 C-77 536.12 -77 491.24 -77 445 C-59.84 444.67 -42.68 444.34 -25 444 C-8.18429213 431.38821909 -5.65320724 413.42160301 -2.796875 393.625 C-1.20018517 381.12790674 -0.84980153 368.65758781 -0.84178162 356.07362366 C-0.83720238 354.52625083 -0.83220043 352.9788792 -0.82681805 351.43150896 C-0.81338228 347.22401638 -0.80586146 343.01653177 -0.79939139 338.8090235 C-0.79132254 334.25504298 -0.77764753 329.70107871 -0.76467896 325.14710999 C-0.74300737 317.2718005 -0.72482924 309.3964893 -0.70907402 301.52116585 C-0.68628994 290.13499323 -0.65815933 278.74883866 -0.62875474 267.36268144 C-0.58118299 248.88608274 -0.53789085 230.40947662 -0.49731445 211.93286133 C-0.45790634 193.99242578 -0.41646752 176.05199679 -0.37231445 158.11157227 C-0.36959018 157.00435076 -0.36686591 155.89712926 -0.36405908 154.75635559 C-0.35037873 149.20134052 -0.33665863 143.64632555 -0.32291877 138.09131062 C-0.20911779 92.06088668 -0.10306536 46.03044947 0 0 Z " fill="#25B2FB" transform="translate(930,253)"/>
<path d="M0 0 C-3.06910021 2.0460668 -4.80688201 2.50913306 -8.375 3.125 C-9.77878906 3.37636719 -9.77878906 3.37636719 -11.2109375 3.6328125 C-13.84737023 3.97990588 -16.34496388 4.06758274 -19 4 C-19.33 4.99 -19.66 5.98 -20 7 C-22.21484375 7.984375 -22.21484375 7.984375 -24.9375 8.75 C-25.83339844 9.01296875 -26.72929688 9.2759375 -27.65234375 9.546875 C-30 10 -30 10 -32 9 C-28.14243493 6.84694043 -25.44870215 5.60746746 -21 6 C-20.67 5.01 -20.34 4.02 -20 3 C-17.05078125 2.05078125 -17.05078125 2.05078125 -13.3125 1.3125 C-11.48138672 0.93544922 -11.48138672 0.93544922 -9.61328125 0.55078125 C-6.33347937 0.05083307 -3.30915434 -0.10674691 0 0 Z " fill="#ADE2FD" transform="translate(646,184)"/>
<path d="M0 0 C0.33 0 0.66 0 1 0 C1.05817206 4.22910869 1.09365463 8.45811409 1.125 12.6875 C1.14175781 13.88568359 1.15851563 15.08386719 1.17578125 16.31835938 C1.18222656 17.47529297 1.18867187 18.63222656 1.1953125 19.82421875 C1.20578613 20.88729248 1.21625977 21.95036621 1.22705078 23.0456543 C0.99375431 26.08126781 0.28205135 28.25623267 -1 31 C-1.33 31 -1.66 31 -2 31 C-2.12565445 23.58638743 -2.12565445 23.58638743 -1.53125 20.8125 C-0.77146513 16.79010952 -0.63410596 12.77110254 -0.4375 8.6875 C-0.39431641 7.85154297 -0.35113281 7.01558594 -0.30664062 6.15429688 C-0.20114693 4.10303065 -0.10012685 2.0515352 0 0 Z " fill="#EFF9FE" transform="translate(1023,644)"/>
<path d="M0 0 C0.66 0.33 1.32 0.66 2 1 C1.67 1.66 1.34 2.32 1 3 C0.34 3 -0.32 3 -1 3 C-1.0825 3.7425 -1.165 4.485 -1.25 5.25 C-2.15363095 8.56331349 -3.33182899 9.88115832 -6 12 C-6.99 12 -7.98 12 -9 12 C-9 12.66 -9 13.32 -9 14 C-9.66 13.67 -10.32 13.34 -11 13 C-9.88266271 11.49428343 -8.75589965 9.99555708 -7.625 8.5 C-6.99851562 7.6646875 -6.37203125 6.829375 -5.7265625 5.96875 C-5.15679687 5.3190625 -4.58703125 4.669375 -4 4 C-3.34 4 -2.68 4 -2 4 C-2 3.34 -2 2.68 -2 2 C-1.34 2 -0.68 2 0 2 C0 1.34 0 0.68 0 0 Z " fill="#51C1FB" transform="translate(54,219)"/>
<path d="M0 0 C2.64 0.33 5.28 0.66 8 1 C8.33 1.99 8.66 2.98 9 4 C10.98567708 4.1953125 12.97135417 4.390625 14.95703125 4.5859375 C17 5 17 5 20 7 C4.58038585 5.32395498 4.58038585 5.32395498 0 0 Z " fill="#6FCBFC" transform="translate(71,589)"/>
<path d="M0 0 C1.2065625 0.0309375 1.2065625 0.0309375 2.4375 0.0625 C1.4475 0.3925 0.4575 0.7225 -0.5625 1.0625 C-0.5625 1.7225 -0.5625 2.3825 -0.5625 3.0625 C-5.435761 4.6537689 -9.37040596 5.27442221 -14.5625 5.0625 C-11.12438831 1.89943724 -8.11909404 1.57834083 -3.5625 1.0625 C-2.5625 0.0625 -2.5625 0.0625 0 0 Z " fill="#90D8FC" transform="translate(100.5625,193.9375)"/>
<path d="M0 0 C1.23967448 3.58128182 1.02699061 6.36603322 0 10 C-2.05078125 11.1796875 -2.05078125 11.1796875 -4 12 C-2.66666667 8 -1.33333333 4 0 0 Z " fill="#4ABFFB" transform="translate(704,676)"/>
<path d="M0 0 C0.99 0.33 1.98 0.66 3 1 C2.34 1 1.68 1 1 1 C1 2.32 1 3.64 1 5 C-0.65 5.33 -2.3 5.66 -4 6 C-4 6.66 -4 7.32 -4 8 C-4.99 7.67 -5.98 7.34 -7 7 C-5.68 6.34 -4.36 5.68 -3 5 C-3 4.34 -3 3.68 -3 3 C-1.5 1.375 -1.5 1.375 0 0 Z " fill="#66C9FC" transform="translate(66,208)"/>
<path d="M0 0 C-4.36200187 2.44697666 -8.02693484 3.50269348 -13 4 C-12 2 -12 2 -9.78515625 1.11328125 C-8.88667969 0.84902344 -7.98820313 0.58476562 -7.0625 0.3125 C-6.16660156 0.04050781 -5.27070312 -0.23148438 -4.34765625 -0.51171875 C-2 -1 -2 -1 0 0 Z " fill="#81D2FC" transform="translate(627,190)"/>
<path d="M0 0 C0.33 0 0.66 0 1 0 C2.42857143 8.42857143 2.42857143 8.42857143 0 13 C-0.33 13 -0.66 13 -1 13 C-1.07654536 8.48382401 -1.10228696 4.40914783 0 0 Z " fill="#B5E5FD" transform="translate(1022,662)"/>
<path d="M0 0 C0.95904856 3.83619425 0.91892116 5.32431536 0 9 C-0.99 9.33 -1.98 9.66 -3 10 C-2.01 6.7 -1.02 3.4 0 0 Z " fill="#54C2FB" transform="translate(724,627)"/>
<path d="M0 0 C0.99 0 1.98 0 3 0 C3 0.66 3 1.32 3 2 C3.66 2 4.32 2 5 2 C5.33 2.99 5.66 3.98 6 5 C3.03 4.505 3.03 4.505 0 4 C0 2.68 0 1.36 0 0 Z " fill="#54C2FB" transform="translate(758,223)"/>
<path d="M0 0 C3.26954202 0.56371414 4.82575883 1.49962266 7 4 C6.67 4.66 6.34 5.32 6 6 C4.68 5.67 3.36 5.34 2 5 C2 4.34 2 3.68 2 3 C1.34 3 0.68 3 0 3 C0 2.01 0 1.02 0 0 Z " fill="#78CFFC" transform="translate(737,205)"/>
<path d="M0 0 C0.33 0 0.66 0 1 0 C1.25 5.625 1.25 5.625 -1 9 C-1.66 9 -2.32 9 -3 9 C-2.01 6.03 -1.02 3.06 0 0 Z " fill="#51C1FB" transform="translate(694,700)"/>
</svg>
