<svg xmlns="http://www.w3.org/2000/svg" width="512" height="512" xmlns:v="https://vecta.io/nano"><path d="M136.997-.407l10.483-.018 20.476-.013L184.62-.44l2.406-.002 4.842-.005 45.29.003 41.307-.027 42.554-.027 23.834-.016 20.292.002 10.324-.005c18.618-.066 36.75.815 54.28 7.705l2.334.893c31.203 12.377 56.478 37.201 70.037 67.824 1.533 3.653 2.904 7.349 4.191 11.095l.698 2.007c5.236 16.186 5.435 32.045 5.396 48.905l.018 10.446.013 20.403.003 16.606.002 2.398.005 4.825-.003 45.131.027 41.161.027 42.404.016 23.751-.002 20.221.005 10.288c.066 18.591-.825 36.699-7.705 54.203l-.893 2.334c-12.377 31.203-37.201 56.478-67.824 70.037-3.653 1.533-7.349 2.904-11.095 4.191l-2.007.698c-16.213 5.245-32.101 5.435-48.989 5.396-3.494-.005-6.989.008-10.483.018l-20.476.013c-5.555-.004-11.11-.003-16.665.003l-2.406.002-4.842.005c-15.097.014-30.193.008-45.29-.003-13.769-.01-27.538.003-41.307.027l-42.554.027c-7.945-.003-15.89-.001-23.834.016-6.764.015-13.528.015-20.292-.002-3.442-.008-6.883-.011-10.324.005-18.618.066-36.75-.815-54.28-7.705l-2.334-.893c-31.19-12.371-56.466-37.187-70.032-67.794-5.664-13.63-9.189-26.753-9.157-41.545l-.016-3.72-.015-10.159-.026-10.982-.036-23.989-.017-15.004-.039-41.609-.001-2.687-.001-5.391-.001-2.703v-2.706l-.068-43.357-.058-44.604-.038-25.007-.017-21.305-.016-10.846C-.848 92.738 10.612 62.706 37.063 35.5 50.889 21.677 67.567 12.024 86 5.687l2.007-.698c16.213-5.245 32.101-5.435 48.989-5.396z" fill="#142e73"/><path d="M224 14h9v45h25v29h13v51h14v54h13v-34h104v105h-8v-97h-88v27h32v70h-40v-62h-13v62h-44v-70h36v-47h-14V96h-13V67h-42v29h-13v48h-13v11h29v109h-37V163h-43v101h-8V155h51v-19h13V88h14V59h23V14z" fill="#f8f9fb"/><path d="M320.438 331.438c5.327 3.137 8.648 8.818 10.563 14.563.195 3.311.344 6.616.43 9.932.21 4.666.946 8.06 3.57 12.068 3.749 2.737 8.048 2.253 12.484 2.195l2.471-.009 7.794-.062 5.293-.027L376 370l-1.791-1.552c-4.374-3.832-8.539-7.61-12.272-12.073l-2.285-2.664c-1.997-3.276-2.268-4.937-1.652-8.711 4.801-7.275 12.806-12.387 21-15 8.483-1.212 16.621-.57 24 4 11.806 9.388 11.806 9.388 12.34 13.824-.403 3.766-1.344 5.129-3.777 7.988l-1.934 2.332c-3.753 4.076-7.688 7.962-11.629 11.855l15.161.11 5.156.041 7.417.044 2.324.031c5.321.061 5.321.061 9.942-2.227 2.423-3.356 2.24-6.588 2.238-10.629l.049-3.885.018-6.09.058-5.901.009-3.557c.628-2.939.628-2.939 2.98-4.845C446 332 446 332 449 332l.22 13.66.082 4.638c.353 16.092.353 16.092-4.302 22.703-4.332 3.448-7.834 5.124-13.348 5.129l-2.649.01-2.851-.006-2.932.003a2583.69 2583.69 0 0 1-6.135-.005c-3.138-.005-6.276 0-9.415.006l-5.955-.004-2.857.006-2.64-.01-2.328-.002C392 378 392 378 390 377l-6.423.724c-7.281.778-14.674.583-21.988.626l-6.179.082-9.004.091-2.756.069c-6.699-.022-11.11-1.875-16.65-5.592l-2.687 2.375c-5.298 4.682-10.536 5.005-17.371 4.879-6.157-.531-10.314-3.187-14.941-7.254l-2.812 1.938c-5.433 3.515-10.04 3.342-16.312 3.438l-2.766.113c-6.924.089-11.404-1.602-17.109-5.488l-2.812 1.938c-5.524 3.574-10.191 3.278-16.562 3.313l-2.867.063c-5.073.028-8.634.021-12.758-3.312l.313 2.875c0 6.305-3.382 12.09-7.625 16.563-7.093 4.124-13.444 5.516-21.687 4.563-2.572-.774-4.616-1.729-7-3v-7l2.25 1c6.49 1.731 13.004 2.177 19.25-.5 5.26-5.26 6.949-10.663 6.952-18.012l-.053-2.753.016-5.883-.074-9.19-.004-8.927-.066-2.778c.019-2.462.091-4.578.73-6.956 4.472-4 4.472-4 8-4l.06 2.966.257 10.914.104 4.72.164 6.792.035 2.125c.109 3.614.289 6.465 2.379 9.485 4.07 2.334 7.946 2.268 12.563 2.25l3.941.016c4.077-.306 4.077-.306 7.496-2.266 2.287-3.492 2.24-6.521 2.238-10.629l.049-3.885.018-6.09.058-5.901.009-3.557c.628-2.939.628-2.939 2.98-4.845C254 332 254 332 257 332l.044 2.659.218 9.829.084 4.242.142 6.122.079 3.713c.472 3.753 1.472 6.216 3.432 9.435 3.983 2.445 7.975 2.268 12.563 2.25l3.941.016c4.077-.306 4.077-.306 7.496-2.266 2.378-3.328 2.291-6.626 2.438-10.625.608-9.752 2.027-17.66 9.563-24.375 6.251-4.726 16.343-4.542 23.438-1.562zM179 308l-21 24 2.09.297c9.248 1.472 16.643 3.364 22.719 10.824 4.29 6.765 3.847 14.165 3.191 21.879-1.264 4.813-3.151 7.31-7 10.438-3.882 2.022-7.002 2.68-11.35 2.755l-2.58.049-11.675.109-6.136.082-8.895.091-2.738.069c-6.689-.022-11.093-1.884-16.626-5.592l-2.812 1.938c-4.162 2.693-6.922 3.188-11.773 3.273l-3.32.086-6.914.133-3.328.094-3.037.06c-3.302.489-5.165 1.399-7.815 3.417-2.121 3.047-2.292 5.763-2.414 9.422l-.117 3.105-.094 3.223-.117 3.27L77 409c-5.75 3-5.75 3-8 3l-.25-13-.102-3.699c-.091-8.449.528-14.259 6.539-20.613 3.748-2.249 7.627-3.484 11.813-4.687l-2-3c-3.558-7.166-3.287-16.507-1.117-24.082C86.47 337.205 89.595 334.103 95 331c5.758-1.919 12.749-2.182 18.492-.094 4.433 2.61 7.075 5.495 9.508 10.094.534 3.313.56 6.586.563 9.938.033 6.368.118 11.491 3.438 17.063 4.434 2.524 8.924 2.29 13.879 2.266l2.573.006 5.368-.011 8.209.013 5.225-.008 2.475.012c5.474.022 5.474.022 10.271-2.278 3.401-5.101 2.656-11.054 2-17-1.612-3.959-4.301-5.624-8.031-7.633-4.716-1.948-9.381-1.696-14.406-1.555l-2.795.041L145 342c-.375-6.436-.375-6.436 1.285-8.934l1.777-1.504c2.568-2.312 4.903-4.602 7.125-7.25L159 320l1.35-1.526 4.588-4.974 1.448-1.639c4.185-4.365 6.912-4.402 12.615-3.861z" fill="#f7f8fa"/><path d="M182 163h21v93h-21v-93z" fill="#183175"/><path d="M249 201h28v55h-28v-55z" fill="#193276"/><path d="M306 202h24v54h-24v-54z" fill="#142e73"/><path d="M315 337c3.873 1.968 6.492 4.943 8 9 .795 8.197 1.592 16.732-3.516 23.652-3.969 3.604-7.897 3.83-13.074 3.738-3.702-.6-5.229-2.46-7.41-5.391-4.264-6.396-3.635-14.479-2.312-21.812 3.551-8.623 9.719-10.374 18.313-9.187zm83.109 1.867c3.702 2.218 6.805 5.137 9.891 8.133-3.278 7.901-12.449 17.074-20 21-8.214-2.308-17.725-10.653-22-18 .157-2.566.714-3.678 2.418-5.598 8.882-7.352 18.525-10.368 29.691-5.535z" fill="#183175"/><path d="M108 337c2.969 1.39 4.697 2.697 7 5 .482 3.75.37 7.535.375 11.313l.074 3.17c.029 7.719.029 7.719-2.348 11.686-3.732 3.254-6.733 3.232-11.555 3.176-4.247-.573-5.745-2.121-8.547-5.344-3.119-5.813-2.948-13.844-1.5-20.191 3.051-8.027 8.525-10.039 16.5-8.809z" fill="#163074"/><path d="M359 436c4.433 2.256 4.433 2.256 6 5 1.059 5.048 1.065 10.245-1.812 14.688-4.052 2.94-6.741 3.048-11.652 2.777C349 458 349 458 346.375 456.188c-2.812-4.474-3.051-9.046-2.375-14.187 3.894-6.23 8.014-6.971 15-6z" fill="#162f74"/><path d="M262 436c13.699-.415 13.699-.415 18 3 .609 3.576.444 5.297-1.5 8.375L277 449l1.5 2.813C280 455 280 455 280 458h-2l-4-9-10-1v10h-2v-22z" fill="#c2c9db"/><path d="M388 436c3 1 3 1 3.983 2.582l.841 2.015.928 2.178.936 2.287.971 2.299L398 453c2.753-2.753 3.749-6.057 5.125-9.625l.84-2.141L406 436h3v22h-2l-1-14-6 14h-3l-6-14-1 14h-2v-22zm-211 0c3 1 3 1 3.983 2.582l.841 2.015.928 2.178.936 2.287.971 2.299L187 453c2.753-2.753 3.749-6.057 5.125-9.625l.84-2.141L195 436h3v22h-2l-1-14-6 14h-3l-6-14-1 14h-2v-22z" fill="#c6ccdd"/><path d="M143 436c1.866.239 1.866.239 4 1 1.188 1.826 1.188 1.826 2.141 4.184l1.055 2.561 1.055 2.693 1.102 2.682C155 455.656 155 455.656 155 458l-3-1-1-6h-12l-2 7h-2c.594-5.3 2.374-9.581 4.563-14.375l.998-2.23L143 436z" fill="#d9dde8"/><path d="M359 436c4.433 2.256 4.433 2.256 6 5 1.059 5.048 1.065 10.245-1.812 14.688-4.052 2.94-6.741 3.048-11.652 2.777C349 458 349 458 346.375 456.188c-2.812-4.474-3.051-9.046-2.375-14.187 3.894-6.23 8.014-6.971 15-6zm-11.562 3.438c-2.161 3.853-2.166 7.252-1.437 11.563 1.215 3.207 1.215 3.207 4 5 4.263.876 7.714.69 11.563-1.375 2.257-4.122 2.161-8.04 1.438-12.625-1.231-2.814-1.231-2.814-4-4-4.297-.741-7.722-.717-11.562 1.438z" fill="#d3d8e5"/><path d="M222 436h16v2h-14v8h13v2h-13v8h15v2h-17v-22z" fill="#d4d8e5"/><path d="M264 438l5.313-.125 2.988-.07C275 438 275 438 278 440c-.875 4.875-.875 4.875-2 6l-6.062.063-3.348-.027L264 446v-8z" fill="#152f73"/><path d="M317 436c2.563 1.875 2.563 1.875 4 4v2h-2l-1.125-1.5c-2.609-2.087-4.683-1.861-7.937-1.898-2.546.524-3.423 1.3-4.937 3.398-.399 2.145-.399 2.145-.25 4.438l.047 2.309c.196 2.18.609 4.151 1.203 6.254l5.375.188 3.023.105L317 455l2-3h2c-.312 1.875-.312 1.875-1 4-4.226 2.817-8.036 2.675-13 2-3.098-2.191-3.804-3.411-5-7-.531-4.648-.648-7.963 1.875-12 3.935-3.703 7.913-3.694 13.125-3z" fill="#ced4e2"/><path d="M98 436h18v2h-8v20h-2v-20h-8v-2z" fill="#dadee9"/><path d="M243.5 388.75c2.5.25 2.5.25 4.5 2.25.188 3.063.188 3.063 0 6-1 1-1 1-4.5 1.125C240 398 240 398 239 397c-.187-2.937-.187-2.937 0-6 2-2 2-2 4.5-2.25z" fill="#f1f3f7"/><path d="M445.063 307.813C448 308 448 308 449 309v7c-1 1-1 1-3.937 1.188C442 317 442 317 440 315c-.25-2.5-.25-2.5 0-5 2-2 2-2 5.063-2.187z" fill="#f6f7f9"/><path d="M432.063 307.813C435 308 435 308 436 309v7c-1 1-1 1-3.937 1.188C429 317 429 317 427 315c-.25-2.5-.25-2.5 0-5 2-2 2-2 5.063-2.187z" fill="#f5f6f9"/><path d="M256.5 388.75c2.5.25 2.5.25 4.5 2.25.188 3.063.188 3.063 0 6-1 1-1 1-4.562 1.063L253 398l-1-7c2-2 2-2 4.5-2.25z" fill="#f1f2f6"/><path d="M144 438c3.287 3.287 5 7.359 5 12h-9l4-12z" fill="#29407f"/><path d="M262 437h2v10h11l-1 2-10-1v10h-2v-21z" fill="#eef0f5"/><path d="M359 436c3.101 1.275 3.825 2.196 6 5 .189 3.133-.271 5.957-1 9h-1l-.488-5.957c-.641-2.558-1.38-3.501-3.512-5.043-2.177-.436-2.177-.436-4.5-.312l-2.344.012c-2.449.183-2.449.183-5.156 2.301v-3c4.054-2.702 7.242-2.759 12-2z" fill="#c6ccdd"/><path d="M262 436l6.25-.125 3.516-.07c3.062.185 4.676.587 7.234 2.195l-2 2-2-1-8.469-.621C264 438 264 438 262 436z" fill="#cfd4e2"/><path d="M388 436l3 1-.48 1.743c-.499 2.166-.719 4.15-.836 6.366l-.127 2.285-.119 2.355-.131 2.402L389 458h-1v-22zm-211 0l3 1-.48 1.743c-.499 2.166-.719 4.15-.836 6.366l-.127 2.285-.119 2.355-.131 2.402L178 458h-1v-22z" fill="#f7f8fa"/><path d="M142 438l2 1-1.437 4.375-.809 2.461C141 448 141 448 140 450h-2l1.438-4.875.809-2.742C141 440 141 440 142 438z" fill="#c9cfdf"/><path d="M319 452h2c-.312 1.875-.312 1.875-1 4-3.089 2.059-3.709 2.239-7.187 2.125L309 458v-1l3.313-.25c3.722-.37 3.722-.37 5.5-2.812L319 452z" fill="#dde1eb"/><path d="M319 438c1.25 2.125 1.25 2.125 2 4h-2l-1.25-1.437c-2.408-2.15-4.604-2.213-7.75-2.562v-1c3.726-1.035 5.794-1.322 9 1z" fill="#c6ccdd"/><path d="M357 437v1l-3.312.375c-3.761.38-3.761.38-6.687 2.625v-3c3.85-2.567 5.586-1.833 10-1z" fill="#b7bfd4"/><path d="M151 449c1.991 2.986 2.941 5.597 4 9l-3-1c-1.354-2.709-1.065-5.009-1-8z" fill="#d0d6e3"/></svg>