<?xml version="1.0" encoding="UTF-8"?>
<svg version="1.1" xmlns="http://www.w3.org/2000/svg" width="512" height="512">
<path d="M0 0 C3.49436315 0.00478233 6.98867394 -0.00782244 10.48301959 -0.01801741 C17.30821972 -0.03511361 24.13332743 -0.03606452 30.95854339 -0.03080451 C36.51339583 -0.02674379 42.06822121 -0.02822879 47.62307239 -0.03355277 C48.41720949 -0.03430119 49.21134659 -0.03504961 50.02954845 -0.03582071 C51.64346229 -0.03735238 53.25737612 -0.03889073 54.87128994 -0.04043568 C69.96803242 -0.0541279 85.06472292 -0.04874651 100.16146418 -0.03725047 C113.93038857 -0.02732491 127.69917845 -0.04025288 141.4680821 -0.06418466 C155.6526148 -0.08865045 169.83708504 -0.09816502 184.02163839 -0.09153193 C191.96647483 -0.08805583 199.91120799 -0.0901643 207.85602832 -0.10778296 C214.620232 -0.12259909 221.38425967 -0.12301909 228.14846024 -0.10571205 C231.59006215 -0.09727557 235.03135094 -0.09486845 238.47293544 -0.1103636 C257.09126601 -0.1766398 275.22318317 0.70470373 292.75320697 7.59433305 C293.52358294 7.88912553 294.29395892 8.18391801 295.08767962 8.4876436 C326.29049197 20.86426764 351.56593968 45.68840576 365.12430072 76.31210649 C366.65706469 79.96519395 368.02794447 83.66083623 369.31570697 87.40683305 C369.54620746 88.06925004 369.77670794 88.73166704 370.0141933 89.41415727 C375.24999699 105.60034731 375.44915064 121.45944698 375.41004002 138.31908309 C375.4052574 141.80117627 375.41786271 145.28321691 375.42805743 148.76529253 C375.44515309 155.56642928 375.44610466 162.36747328 375.44084453 169.16862592 C375.43678371 174.70393225 375.43826893 180.23921141 375.44359279 185.77451646 C375.44434121 186.5658782 375.44508963 187.35723994 375.44586073 188.17258234 C375.4473924 189.78085918 375.44893075 191.38913601 375.4504757 192.99741283 C375.46416773 208.04122025 375.45878667 223.08497551 375.44729049 238.12878171 C375.43736496 251.84920733 375.45029288 265.56949796 375.47422468 279.28990278 C375.4986909 293.42471498 375.50820494 307.55946451 375.50157195 321.69429743 C375.49809594 329.61118834 375.50020369 337.52797559 375.51782298 345.44485033 C375.53263966 352.18526564 375.53305841 358.92550433 375.51575207 365.66591653 C375.50731603 369.09536723 375.50490735 372.52450372 375.52040362 375.95393693 C375.58682104 394.5450146 374.69508449 412.652894 367.81570697 430.15683305 C367.52091449 430.92720903 367.22612201 431.69758501 366.92239642 432.49130571 C354.54577238 463.69411805 329.72163426 488.96956577 299.09793353 502.5279268 C295.44484607 504.06069077 291.74920379 505.43157055 288.00320697 506.71933305 C287.34078998 506.94983354 286.67837298 507.18033403 285.99588275 507.41781938 C269.782452 512.66243472 253.89447861 512.85270208 237.00641394 512.81366611 C233.51205079 512.80888377 230.01774 512.82148855 226.52339435 512.83168352 C219.69819421 512.84877972 212.87308651 512.84973063 206.04787055 512.84447061 C200.4930181 512.8404099 194.93819273 512.84189489 189.38334155 512.84721887 C188.58920445 512.84796729 187.79506735 512.84871572 186.97686549 512.84948682 C185.36295165 512.85101848 183.74903782 512.85255683 182.135124 512.85410178 C167.03838152 512.86779401 151.94169102 512.86241261 136.84494975 512.85091657 C123.07602536 512.84099101 109.30723549 512.85391899 95.53833184 512.87785076 C81.35379914 512.90231655 67.16932889 512.91183113 52.98477554 512.90519804 C45.0399391 512.90172194 37.09520595 512.90383041 29.15038562 512.92144907 C22.38618194 512.93626519 15.62215427 512.93668519 8.8579537 512.91937815 C5.41635179 512.91094168 1.975063 512.90853455 -1.4665215 512.92402971 C-20.08485207 512.99030591 -38.21676924 512.10896237 -55.74679303 505.21933305 C-56.51716901 504.92454057 -57.28754498 504.62974809 -58.08126569 504.32602251 C-89.27084842 491.954646 -114.54741818 467.13861837 -128.11349225 436.53232133 C-133.77767914 422.90257808 -137.30239876 409.7797391 -137.27094769 394.98730791 C-137.27618437 393.75979102 -137.28142105 392.53227413 -137.28681642 391.26755977 C-137.29917397 387.88123361 -137.30266129 384.49511566 -137.30221951 381.10878146 C-137.30387512 377.44799128 -137.3169557 373.78723825 -137.32841229 370.12646806 C-137.35120706 362.13011301 -137.35917741 354.1337846 -137.36423874 346.13740146 C-137.36750315 341.13619823 -137.37403023 336.13500263 -137.38124013 331.13380373 C-137.40080132 317.26398853 -137.41720753 303.3941804 -137.42011666 289.52435052 C-137.42030423 288.63772769 -137.4204918 287.75110487 -137.42068506 286.83761468 C-137.42105129 285.04049838 -137.42141499 283.24338207 -137.42177617 281.44626577 C-137.42195898 280.55427348 -137.42214179 279.66228119 -137.42233014 278.74325883 C-137.42260096 277.40362046 -137.42260096 277.40362046 -137.42287726 276.03691868 C-137.42641447 261.58463986 -137.45341061 247.13251045 -137.49082803 232.68028338 C-137.5290109 217.8123256 -137.54827488 202.94444175 -137.54857618 188.0764339 C-137.54915862 179.74080966 -137.55751165 171.40536355 -137.58657384 163.06978548 C-137.61122203 155.96794091 -137.61828107 148.86633939 -137.60332631 141.7644635 C-137.59621097 138.14879348 -137.59677799 134.53360201 -137.61973691 130.91798723 C-137.84509433 93.14521044 -126.38431366 63.11247131 -99.93429303 35.90683305 C-86.10828941 22.08431249 -69.42948623 12.43094578 -50.99679303 6.09433305 C-50.00316754 5.74858232 -50.00316754 5.74858232 -48.98946881 5.39584672 C-32.77603807 0.15123139 -16.88806467 -0.03903597 0 0 Z " fill="#142E73" transform="translate(136.9967930316925,-0.40683305263519287)"/>
<path d="M0 0 C2.97 0 5.94 0 9 0 C9 14.85 9 29.7 9 45 C17.25 45 25.5 45 34 45 C34 54.57 34 64.14 34 74 C38.29 74 42.58 74 47 74 C47 90.83 47 107.66 47 125 C51.62 125 56.24 125 61 125 C61 142.82 61 160.64 61 179 C65.29 179 69.58 179 74 179 C74 167.78 74 156.56 74 145 C108.32 145 142.64 145 178 145 C178 179.65 178 214.3 178 250 C175.36 250 172.72 250 170 250 C170 217.99 170 185.98 170 153 C140.96 153 111.92 153 82 153 C82 161.91 82 170.82 82 180 C92.56 180 103.12 180 114 180 C114 203.1 114 226.2 114 250 C100.8 250 87.6 250 74 250 C74 229.54 74 209.08 74 188 C69.71 188 65.42 188 61 188 C61 208.46 61 228.92 61 250 C46.48 250 31.96 250 17 250 C17 226.9 17 203.8 17 180 C28.88 180 40.76 180 53 180 C53 164.49 53 148.98 53 133 C48.38 133 43.76 133 39 133 C39 116.17 39 99.34 39 82 C34.71 82 30.42 82 26 82 C26 72.43 26 62.86 26 53 C12.14 53 -1.72 53 -16 53 C-16 62.57 -16 72.14 -16 82 C-20.29 82 -24.58 82 -29 82 C-29 97.84 -29 113.68 -29 130 C-33.29 130 -37.58 130 -42 130 C-42 133.63 -42 137.26 -42 141 C-32.43 141 -22.86 141 -13 141 C-13 176.97 -13 212.94 -13 250 C-25.21 250 -37.42 250 -50 250 C-50 216.67 -50 183.34 -50 149 C-64.19 149 -78.38 149 -93 149 C-93 182.33 -93 215.66 -93 250 C-95.64 250 -98.28 250 -101 250 C-101 214.03 -101 178.06 -101 141 C-84.17 141 -67.34 141 -50 141 C-50 134.73 -50 128.46 -50 122 C-45.71 122 -41.42 122 -37 122 C-37 106.16 -37 90.32 -37 74 C-32.38 74 -27.76 74 -23 74 C-23 64.43 -23 54.86 -23 45 C-15.41 45 -7.82 45 0 45 C0 30.15 0 15.3 0 0 Z " fill="#F8F9FB" transform="translate(224,14)"/>
<path d="M0 0 C5.32672424 3.1373503 8.64778442 8.81835326 10.5625 14.5625 C10.75749252 17.87376185 10.90662211 21.17848178 10.9921875 24.49414062 C11.20169308 29.16000444 11.93801793 32.55387327 14.5625 36.5625 C18.31167304 39.29977948 22.61058746 38.81587612 27.046875 38.7578125 C27.86246887 38.7549826 28.67806274 38.75215271 29.51837158 38.74923706 C32.11656528 38.73806558 34.71441095 38.71296675 37.3125 38.6875 C39.07681793 38.67746627 40.84114128 38.66834111 42.60546875 38.66015625 C46.92461273 38.63813619 51.24349741 38.60362733 55.5625 38.5625 C54.97154541 38.05025879 54.38059082 37.53801758 53.77172852 37.01025391 C49.39725422 33.17806981 45.23225372 29.40040657 41.5 24.9375 C40.74589844 24.05835938 39.99179687 23.17921875 39.21484375 22.2734375 C37.21797788 18.99725568 36.94693632 17.3359554 37.5625 13.5625 C42.36398694 6.28751978 50.36813071 1.17562619 58.5625 -1.4375 C67.04500835 -2.64928691 75.18374861 -2.00702088 82.5625 2.5625 C94.36854144 11.95063747 94.36854144 11.95063747 94.90234375 16.38671875 C94.49933956 20.15272341 93.55793097 21.51523903 91.125 24.375 C90.48691406 25.14457031 89.84882813 25.91414063 89.19140625 26.70703125 C85.43874282 30.78310401 81.50353796 34.66934828 77.5625 38.5625 C82.61619645 38.61198633 87.66975142 38.64826045 92.72363281 38.67236328 C94.44240781 38.6824127 96.16116575 38.69605445 97.87988281 38.71337891 C100.35225641 38.73767391 102.82440369 38.74899368 105.296875 38.7578125 C106.06368591 38.76813507 106.83049683 38.77845764 107.62054443 38.78909302 C112.9417118 38.85054897 112.9417118 38.85054897 117.5625 36.5625 C119.98548916 33.20652351 119.80216686 29.9748634 119.80078125 25.93359375 C119.81689453 24.65162109 119.83300781 23.36964844 119.84960938 22.04882812 C119.86610225 20.01872778 119.87496319 17.98939081 119.86791992 15.95922852 C119.86530459 13.99225744 119.89509744 12.02532723 119.92578125 10.05859375 C119.92876221 8.88482178 119.93174316 7.7110498 119.93481445 6.50170898 C120.5625 3.5625 120.5625 3.5625 122.91479492 1.65649414 C125.5625 0.5625 125.5625 0.5625 128.5625 0.5625 C128.66208121 5.11565922 128.73429985 9.66817152 128.78222656 14.22216797 C128.80222503 15.76817887 128.82943331 17.31411527 128.86425781 18.85986328 C129.21747311 34.95193675 129.21747311 34.95193675 124.5625 41.5625 C120.23007256 45.01075857 116.72850741 46.68618965 111.21459961 46.69189453 C109.90325294 46.69662277 109.90325294 46.69662277 108.56541443 46.70144653 C107.6247261 46.6994223 106.68403778 46.69739807 105.71484375 46.6953125 C104.26338707 46.69674759 104.26338707 46.69674759 102.78260803 46.69821167 C100.73747696 46.69889214 98.69234372 46.69704712 96.6472168 46.69287109 C93.50890277 46.68751519 90.37073148 46.69282357 87.23242188 46.69921875 C85.24739552 46.69855806 83.26236925 46.69727708 81.27734375 46.6953125 C80.3346312 46.69733673 79.39191864 46.69936096 78.42063904 46.70144653 C77.54956009 46.69829437 76.67848114 46.69514221 75.78100586 46.69189453 C75.01284042 46.69109894 74.24467499 46.69030334 73.45323181 46.68948364 C71.5625 46.5625 71.5625 46.5625 69.5625 45.5625 C67.42000742 45.78911992 65.27791273 46.02140621 63.13989258 46.28692627 C55.85938622 47.06535495 48.46605497 46.86945636 41.15185547 46.91259766 C39.09217056 46.92920014 37.03254426 46.95654612 34.97314453 46.99462891 C31.97138228 47.04965882 28.97094995 47.07130195 25.96875 47.0859375 C25.05911499 47.10860687 24.14947998 47.13127625 23.21228027 47.15463257 C16.51294589 47.13271654 12.10255914 45.27918311 6.5625 41.5625 C5.675625 42.34625 4.78875 43.13 3.875 43.9375 C-1.42333807 48.61975225 -6.66144415 48.94219735 -13.49609375 48.81640625 C-19.65293421 48.28493928 -23.80961191 45.62943196 -28.4375 41.5625 C-29.365625 42.201875 -30.29375 42.84125 -31.25 43.5 C-36.68287567 47.01539014 -41.29003923 46.84246272 -47.5625 46.9375 C-48.47515625 46.97488281 -49.3878125 47.01226562 -50.328125 47.05078125 C-57.25219125 47.13955133 -61.73250354 45.44835939 -67.4375 41.5625 C-68.365625 42.201875 -69.29375 42.84125 -70.25 43.5 C-75.77354018 47.07405541 -80.44147411 46.77806202 -86.8125 46.8125 C-87.75867188 46.833125 -88.70484375 46.85375 -89.6796875 46.875 C-94.75256147 46.90349929 -98.31397997 46.89640981 -102.4375 43.5625 C-102.2828125 44.985625 -102.2828125 44.985625 -102.125 46.4375 C-102.125 52.74242051 -105.50698528 58.52763313 -109.75 63 C-116.84274789 67.12369063 -123.19396279 68.51649986 -131.4375 67.5625 C-134.00913112 66.78834115 -136.05359064 65.83391832 -138.4375 64.5625 C-138.4375 62.2525 -138.4375 59.9425 -138.4375 57.5625 C-137.695 57.8925 -136.9525 58.2225 -136.1875 58.5625 C-129.6979065 60.29305827 -123.18325933 60.739254 -116.9375 58.0625 C-111.67710079 52.80210079 -109.98873496 47.39998984 -109.98574829 40.05023193 C-110.00334198 39.14162415 -110.02093567 38.23301636 -110.0390625 37.296875 C-110.03433112 35.33593629 -110.02910842 33.37499872 -110.0234375 31.4140625 C-110.03822836 28.35038272 -110.06278852 25.28715066 -110.09765625 22.22363281 C-110.12425443 19.24748616 -110.11475436 16.27307164 -110.1015625 13.296875 C-110.12320465 12.38017029 -110.1448468 11.46346558 -110.16714478 10.51898193 C-110.14797152 8.05697392 -110.07608591 5.94082641 -109.4375 3.5625 C-104.96501778 -0.4375 -104.96501778 -0.4375 -101.4375 -0.4375 C-101.407771 1.03058105 -101.407771 1.03058105 -101.37744141 2.52832031 C-101.30125376 6.16643597 -101.21255705 9.80415853 -101.12011719 13.44189453 C-101.08188171 15.01505765 -101.04701934 16.58830658 -101.015625 18.16162109 C-100.96985578 20.42576723 -100.91188239 22.68932547 -100.8515625 24.953125 C-100.84001129 25.65431458 -100.82846008 26.35550415 -100.81655884 27.07794189 C-100.70782046 30.6919359 -100.52780453 33.54281322 -98.4375 36.5625 C-94.3673196 38.89675954 -90.49134251 38.83083701 -85.875 38.8125 C-83.92400391 38.82023437 -83.92400391 38.82023437 -81.93359375 38.828125 C-77.85623296 38.5218296 -77.85623296 38.5218296 -74.4375 36.5625 C-72.15065579 33.0701915 -72.19781027 30.04156374 -72.19921875 25.93359375 C-72.18310547 24.65162109 -72.16699219 23.36964844 -72.15039062 22.04882812 C-72.13389775 20.01872778 -72.12503681 17.98939081 -72.13208008 15.95922852 C-72.13469541 13.99225744 -72.10490256 12.02532723 -72.07421875 10.05859375 C-72.07123779 8.88482178 -72.06825684 7.7110498 -72.06518555 6.50170898 C-71.4375 3.5625 -71.4375 3.5625 -69.08520508 1.65649414 C-66.4375 0.5625 -66.4375 0.5625 -63.4375 0.5625 C-63.42291748 1.43986816 -63.40833496 2.31723633 -63.39331055 3.22119141 C-63.3320032 6.49799321 -63.25780667 9.77398944 -63.17504883 13.05029297 C-63.14193709 14.4642449 -63.11386284 15.87832464 -63.09106445 17.29248047 C-63.05726225 19.33355823 -63.00494036 21.37347928 -62.94921875 23.4140625 C-62.92303467 24.63947754 -62.89685059 25.86489258 -62.86987305 27.12744141 C-62.3974284 30.88085543 -61.39759853 33.34352968 -59.4375 36.5625 C-55.45436098 39.00717792 -51.462057 38.83072068 -46.875 38.8125 C-44.92400391 38.82023437 -44.92400391 38.82023437 -42.93359375 38.828125 C-38.85623296 38.5218296 -38.85623296 38.5218296 -35.4375 36.5625 C-33.05927036 33.23449814 -33.14629178 29.93614205 -33 25.9375 C-32.39237367 16.18509736 -30.97297885 8.27728314 -23.4375 1.5625 C-17.18658938 -3.16379827 -7.09418022 -2.97982907 0 0 Z " fill="#F7F8FA" transform="translate(320.4375,331.4375)"/>
<path d="M0 0 C-6.90557297 8.08457323 -13.92604335 16.06246942 -21 24 C-19.96552734 24.14695312 -19.96552734 24.14695312 -18.91015625 24.296875 C-9.66216982 25.76843388 -2.26703121 27.66071096 3.80859375 35.12109375 C8.09815027 41.88593534 7.65513835 49.28574589 7 57 C5.73558061 61.81341471 3.84933426 64.30991592 0 67.4375 C-3.88236564 69.45956544 -7.0019746 70.1178714 -11.3503418 70.19287109 C-12.20190353 70.20893402 -13.05346527 70.22499695 -13.93083191 70.24154663 C-17.82261029 70.28637859 -21.71422438 70.32707005 -25.60620117 70.35009766 C-27.65156455 70.36662781 -29.69687086 70.39387881 -31.74194336 70.43212891 C-34.70717005 70.48723128 -37.67104725 70.50882342 -40.63671875 70.5234375 C-41.54016525 70.54610687 -42.44361176 70.56877625 -43.37443542 70.59213257 C-50.06333125 70.57015274 -54.46789206 68.70785448 -60 65 C-60.928125 65.639375 -61.85625 66.27875 -62.8125 66.9375 C-66.97441943 69.63050669 -69.73467896 70.12571797 -74.5859375 70.2109375 C-75.68164062 70.23929687 -76.77734375 70.26765625 -77.90625 70.296875 C-80.21077823 70.34877879 -82.51549017 70.39310302 -84.8203125 70.4296875 C-85.91859375 70.460625 -87.016875 70.4915625 -88.1484375 70.5234375 C-89.65156494 70.5531665 -89.65156494 70.5531665 -91.18505859 70.58349609 C-94.48748355 71.07212896 -96.35029601 71.98251412 -99 74 C-101.12093184 77.04738062 -101.2921134 79.76340193 -101.4140625 83.421875 C-101.45273438 84.44667969 -101.49140625 85.47148437 -101.53125 86.52734375 C-101.57765625 88.12255859 -101.57765625 88.12255859 -101.625 89.75 C-101.68300781 91.36841797 -101.68300781 91.36841797 -101.7421875 93.01953125 C-101.83634631 95.67951775 -101.92197387 98.3394994 -102 101 C-107.75 104 -107.75 104 -110 104 C-110.116965 99.66689672 -110.1875089 95.3342042 -110.25 91 C-110.28351563 89.77925781 -110.31703125 88.55851562 -110.3515625 87.30078125 C-110.44290299 78.85178622 -109.82308915 73.04155138 -103.8125 66.6875 C-100.06409724 64.43845835 -96.18550608 63.20367495 -92 62 C-92.66 61.01 -93.32 60.02 -94 59 C-97.55772086 51.83355152 -97.28690639 42.4927838 -95.1171875 34.91796875 C-92.53042235 29.20481526 -89.40474153 26.10272199 -84 23 C-78.24229932 21.08076644 -71.25126739 20.81772095 -65.5078125 22.90625 C-61.07487304 25.51582946 -58.43266811 28.40089998 -56 33 C-55.46589551 36.31339263 -55.43997701 39.58610728 -55.4375 42.9375 C-55.40440517 49.30589058 -55.31975501 54.4283324 -52 60 C-47.56556818 62.52410976 -43.07604687 62.2902468 -38.12109375 62.265625 C-37.27200943 62.26753845 -36.42292511 62.2694519 -35.54811096 62.27142334 C-33.75871483 62.27278056 -31.96930869 62.26911656 -30.17993164 62.26074219 C-27.44329728 62.25002271 -24.70731735 62.26065992 -21.97070312 62.2734375 C-20.22916522 62.27211608 -18.48762772 62.26955406 -16.74609375 62.265625 C-15.92934677 62.26967346 -15.11259979 62.27372192 -14.27110291 62.27789307 C-8.79690643 62.2996648 -8.79690643 62.2996648 -4 60 C-0.59949858 54.89924788 -1.34391356 48.94578338 -2 43 C-3.6124457 39.04086993 -6.30139822 37.37630869 -10.03125 35.3671875 C-14.74711888 33.4192343 -19.41270534 33.67141505 -24.4375 33.8125 C-25.35982422 33.82603516 -26.28214844 33.83957031 -27.23242188 33.85351562 C-29.48890383 33.88859047 -31.74413226 33.93773613 -34 34 C-34.37497674 27.56417473 -34.37497674 27.56417473 -32.71484375 25.06640625 C-32.12832031 24.57011719 -31.54179687 24.07382812 -30.9375 23.5625 C-28.36973701 21.2504903 -26.03400808 18.96080027 -23.8125 16.3125 C-22.54842025 14.86905759 -21.27650349 13.43246726 -20 12 C-19.55462891 11.49645996 -19.10925781 10.99291992 -18.65039062 10.47412109 C-17.14415305 8.79328333 -15.60729326 7.14540919 -14.0625 5.5 C-13.58466064 4.95899658 -13.10682129 4.41799316 -12.61450195 3.8605957 C-8.42969742 -0.50404934 -5.70257447 -0.54134472 0 0 Z " fill="#F7F8FA" transform="translate(179,308)"/>
<path d="M0 0 C6.93 0 13.86 0 21 0 C21 30.69 21 61.38 21 93 C14.07 93 7.14 93 0 93 C0 62.31 0 31.62 0 0 Z " fill="#183175" transform="translate(182,163)"/>
<path d="M0 0 C9.24 0 18.48 0 28 0 C28 18.15 28 36.3 28 55 C18.76 55 9.52 55 0 55 C0 36.85 0 18.7 0 0 Z " fill="#193276" transform="translate(249,201)"/>
<path d="M0 0 C7.92 0 15.84 0 24 0 C24 17.82 24 35.64 24 54 C16.08 54 8.16 54 0 54 C0 36.18 0 18.36 0 0 Z " fill="#142E73" transform="translate(306,202)"/>
<path d="M0 0 C3.87299112 1.96798329 6.49214849 4.94300041 8 9 C8.79465123 17.19745481 9.59153485 25.73245741 4.484375 32.65234375 C0.51505633 36.25606728 -3.4130586 36.48211458 -8.58984375 36.390625 C-12.29194274 35.79060896 -13.8188954 33.93085931 -16 31 C-20.26433317 24.60350024 -19.63496344 16.52116091 -18.3125 9.1875 C-14.76176443 0.56428504 -8.59334496 -1.18619792 0 0 Z " fill="#183175" transform="translate(315,337)"/>
<path d="M0 0 C3.70247696 2.21842628 6.80495199 5.13741184 9.890625 8.1328125 C6.61274715 16.03382442 -2.55873594 25.20648019 -10.109375 29.1328125 C-18.32313456 26.82437027 -27.83391995 18.47980384 -32.109375 11.1328125 C-31.95236174 8.56662698 -31.3948763 7.45449303 -29.69140625 5.53515625 C-20.8097817 -1.81718196 -11.16646574 -4.8325461 0 0 Z " fill="#183175" transform="translate(398.109375,338.8671875)"/>
<path d="M0 0 C2.96912882 1.38980498 4.69657028 2.69657028 7 5 C7.48230766 8.750246 7.37039583 12.53477567 7.375 16.3125 C7.39949219 17.35857422 7.42398438 18.40464844 7.44921875 19.48242188 C7.47869843 27.20118431 7.47869843 27.20118431 5.1015625 31.16796875 C1.36919478 34.4216499 -1.63143801 34.39949205 -6.453125 34.34375 C-10.70051116 33.77048316 -12.19768068 32.22266721 -15 29 C-18.11899551 23.18732654 -17.94836154 15.15649082 -16.5 8.80859375 C-13.44868247 0.7815482 -7.97536467 -1.23031941 0 0 Z " fill="#163074" transform="translate(108,337)"/>
<path d="M0 0 C4.43346774 2.25562394 4.43346774 2.25562394 6 5 C7.05867665 10.04789303 7.06482513 15.2445715 4.1875 19.6875 C0.13509144 22.62748268 -2.55339079 22.73586605 -7.46484375 22.46484375 C-10 22 -10 22 -12.625 20.1875 C-15.43721358 15.71352386 -15.67646614 11.1411427 -15 6 C-11.10637389 -0.22980177 -6.98649324 -0.97132151 0 0 Z " fill="#162F74" transform="translate(359,436)"/>
<path d="M0 0 C13.69917479 -0.41512651 13.69917479 -0.41512651 18 3 C18.608676 6.57597151 18.44405832 8.29690766 16.5 11.375 C16.005 11.91125 15.51 12.4475 15 13 C15.495 13.928125 15.99 14.85625 16.5 15.8125 C18 19 18 19 18 22 C17.34 22 16.68 22 16 22 C14.68 19.03 13.36 16.06 12 13 C8.7 12.67 5.4 12.34 2 12 C2 15.3 2 18.6 2 22 C1.34 22 0.68 22 0 22 C0 14.74 0 7.48 0 0 Z " fill="#C2C9DB" transform="translate(262,436)"/>
<path d="M0 0 C3 1 3 1 3.9831543 2.58227539 C4.26070557 3.24735107 4.53825684 3.91242676 4.82421875 4.59765625 C5.13037109 5.31630859 5.43652344 6.03496094 5.75195312 6.77539062 C6.06068359 7.53013672 6.36941406 8.28488281 6.6875 9.0625 C7.00783203 9.82111328 7.32816406 10.57972656 7.65820312 11.36132812 C8.44850702 13.23682542 9.22552197 15.1179123 10 17 C12.75307198 14.24692802 13.74908236 10.9431692 15.125 7.375 C15.40214844 6.66859375 15.67929687 5.9621875 15.96484375 5.234375 C16.64789908 3.49140623 17.32456494 1.74593591 18 0 C18.99 0 19.98 0 21 0 C21 7.26 21 14.52 21 22 C20.34 22 19.68 22 19 22 C18.67 17.38 18.34 12.76 18 8 C16.02 12.62 14.04 17.24 12 22 C11.01 22 10.02 22 9 22 C7.02 17.38 5.04 12.76 3 8 C2.67 12.62 2.34 17.24 2 22 C1.34 22 0.68 22 0 22 C0 14.74 0 7.48 0 0 Z " fill="#C6CCDD" transform="translate(388,436)"/>
<path d="M0 0 C3 1 3 1 3.9831543 2.58227539 C4.26070557 3.24735107 4.53825684 3.91242676 4.82421875 4.59765625 C5.13037109 5.31630859 5.43652344 6.03496094 5.75195312 6.77539062 C6.06068359 7.53013672 6.36941406 8.28488281 6.6875 9.0625 C7.00783203 9.82111328 7.32816406 10.57972656 7.65820312 11.36132812 C8.44850702 13.23682542 9.22552197 15.1179123 10 17 C12.75307198 14.24692802 13.74908236 10.9431692 15.125 7.375 C15.40214844 6.66859375 15.67929688 5.9621875 15.96484375 5.234375 C16.64789908 3.49140623 17.32456494 1.74593591 18 0 C18.99 0 19.98 0 21 0 C21 7.26 21 14.52 21 22 C20.34 22 19.68 22 19 22 C18.67 17.38 18.34 12.76 18 8 C16.02 12.62 14.04 17.24 12 22 C11.01 22 10.02 22 9 22 C7.02 17.38 5.04 12.76 3 8 C2.67 12.62 2.34 17.24 2 22 C1.34 22 0.68 22 0 22 C0 14.74 0 7.48 0 0 Z " fill="#C6CCDD" transform="translate(177,436)"/>
<path d="M0 0 C1.86621094 0.23852539 1.86621094 0.23852539 4 1 C5.18847656 2.82592773 5.18847656 2.82592773 6.140625 5.18359375 C6.66269531 6.45106445 6.66269531 6.45106445 7.1953125 7.74414062 C7.54335937 8.63294922 7.89140625 9.52175781 8.25 10.4375 C8.61351562 11.32244141 8.97703125 12.20738281 9.3515625 13.11914062 C12 19.65560385 12 19.65560385 12 22 C11.01 21.67 10.02 21.34 9 21 C8.67 19.02 8.34 17.04 8 15 C4.04 15 0.08 15 -4 15 C-4.66 17.31 -5.32 19.62 -6 22 C-6.66 22 -7.32 22 -8 22 C-7.40644629 16.69981613 -5.62627368 12.41863107 -3.4375 7.625 C-3.10814453 6.88894531 -2.77878906 6.15289062 -2.43945312 5.39453125 C-1.63252195 3.59355443 -0.8171174 1.79637819 0 0 Z " fill="#D9DDE8" transform="translate(143,436)"/>
<path d="M0 0 C4.43346774 2.25562394 4.43346774 2.25562394 6 5 C7.05867665 10.04789303 7.06482513 15.2445715 4.1875 19.6875 C0.13509144 22.62748268 -2.55339079 22.73586605 -7.46484375 22.46484375 C-10 22 -10 22 -12.625 20.1875 C-15.43721358 15.71352386 -15.67646614 11.1411427 -15 6 C-11.10637389 -0.22980177 -6.98649324 -0.97132151 0 0 Z M-11.5625 3.4375 C-13.72370996 7.29009166 -13.72863251 10.68956347 -13 15 C-11.78475509 18.2071208 -11.78475509 18.2071208 -9 20 C-4.73744611 20.87597438 -1.28583277 20.68995905 2.5625 18.625 C4.81981342 14.5029494 4.72358826 10.58526458 4 6 C2.76922685 3.18573025 2.76922685 3.18573025 0 2 C-4.29679178 1.25890197 -7.72228508 1.28323309 -11.5625 3.4375 Z " fill="#D3D8E5" transform="translate(359,436)"/>
<path d="M0 0 C5.28 0 10.56 0 16 0 C16 0.66 16 1.32 16 2 C11.38 2 6.76 2 2 2 C2 4.64 2 7.28 2 10 C6.29 10 10.58 10 15 10 C15 10.66 15 11.32 15 12 C10.71 12 6.42 12 2 12 C2 14.64 2 17.28 2 20 C6.95 20 11.9 20 17 20 C17 20.66 17 21.32 17 22 C11.39 22 5.78 22 0 22 C0 14.74 0 7.48 0 0 Z " fill="#D4D8E5" transform="translate(222,436)"/>
<path d="M0 0 C1.77049689 -0.05410687 3.54146849 -0.09284119 5.3125 -0.125 C6.29863281 -0.14820313 7.28476562 -0.17140625 8.30078125 -0.1953125 C11 0 11 0 14 2 C13.125 6.875 13.125 6.875 12 8 C9.98035801 8.07244053 7.95832876 8.08377188 5.9375 8.0625 C4.83277344 8.05347656 3.72804688 8.04445313 2.58984375 8.03515625 C1.30787109 8.01775391 1.30787109 8.01775391 0 8 C0 5.36 0 2.72 0 0 Z " fill="#152F73" transform="translate(264,438)"/>
<path d="M0 0 C2.5625 1.875 2.5625 1.875 4 4 C4 4.66 4 5.32 4 6 C3.34 6 2.68 6 2 6 C1.62875 5.505 1.2575 5.01 0.875 4.5 C-1.73363627 2.41309098 -3.80786141 2.63854703 -7.0625 2.6015625 C-9.60873432 3.12518327 -10.48544733 3.90112917 -12 6 C-12.39923762 8.1453229 -12.39923762 8.1453229 -12.25 10.4375 C-12.23453125 11.19933594 -12.2190625 11.96117187 -12.203125 12.74609375 C-12.00665883 14.92611261 -11.59405998 16.89683604 -11 19 C-9.20906809 19.08086147 -7.41710372 19.13912702 -5.625 19.1875 C-4.62726563 19.22230469 -3.62953125 19.25710938 -2.6015625 19.29296875 C-1.31378906 19.14794922 -1.31378906 19.14794922 0 19 C0.66 18.01 1.32 17.02 2 16 C2.66 16 3.32 16 4 16 C3.6875 17.875 3.6875 17.875 3 20 C-1.22583705 22.8172247 -5.03570016 22.67547031 -10 22 C-13.09799981 19.80873184 -13.80352112 18.58943664 -15 15 C-15.53094699 10.35203781 -15.64784823 7.03655716 -13.125 3 C-9.19030867 -0.7032389 -5.21236198 -0.69436438 0 0 Z " fill="#CED4E2" transform="translate(317,436)"/>
<path d="M0 0 C5.94 0 11.88 0 18 0 C18 0.66 18 1.32 18 2 C15.36 2 12.72 2 10 2 C10 8.6 10 15.2 10 22 C9.34 22 8.68 22 8 22 C8 15.4 8 8.8 8 2 C5.36 2 2.72 2 0 2 C0 1.34 0 0.68 0 0 Z " fill="#DADEE9" transform="translate(98,436)"/>
<path d="M0 0 C2.5 0.25 2.5 0.25 4.5 2.25 C4.6875 5.3125 4.6875 5.3125 4.5 8.25 C3.5 9.25 3.5 9.25 0 9.375 C-3.5 9.25 -3.5 9.25 -4.5 8.25 C-4.6875 5.3125 -4.6875 5.3125 -4.5 2.25 C-2.5 0.25 -2.5 0.25 0 0 Z " fill="#F1F3F7" transform="translate(243.5,388.75)"/>
<path d="M0 0 C2.9375 0.1875 2.9375 0.1875 3.9375 1.1875 C4.0625 4.6875 4.0625 4.6875 3.9375 8.1875 C2.9375 9.1875 2.9375 9.1875 0 9.375 C-3.0625 9.1875 -3.0625 9.1875 -5.0625 7.1875 C-5.3125 4.6875 -5.3125 4.6875 -5.0625 2.1875 C-3.0625 0.1875 -3.0625 0.1875 0 0 Z " fill="#F6F7F9" transform="translate(445.0625,307.8125)"/>
<path d="M0 0 C2.9375 0.1875 2.9375 0.1875 3.9375 1.1875 C4.0625 4.6875 4.0625 4.6875 3.9375 8.1875 C2.9375 9.1875 2.9375 9.1875 0 9.375 C-3.0625 9.1875 -3.0625 9.1875 -5.0625 7.1875 C-5.3125 4.6875 -5.3125 4.6875 -5.0625 2.1875 C-3.0625 0.1875 -3.0625 0.1875 0 0 Z " fill="#F5F6F9" transform="translate(432.0625,307.8125)"/>
<path d="M0 0 C2.5 0.25 2.5 0.25 4.5 2.25 C4.6875 5.3125 4.6875 5.3125 4.5 8.25 C3.5 9.25 3.5 9.25 -0.0625 9.3125 C-1.196875 9.291875 -2.33125 9.27125 -3.5 9.25 C-4.125 5.875 -4.125 5.875 -4.5 2.25 C-2.5 0.25 -2.5 0.25 0 0 Z " fill="#F1F2F6" transform="translate(256.5,388.75)"/>
<path d="M0 0 C3.28670403 3.28670403 5 7.35868331 5 12 C2.03 12 -0.94 12 -4 12 C-2.66666667 8 -1.33333333 4 0 0 Z " fill="#29407F" transform="translate(144,438)"/>
<path d="M0 0 C0.66 0 1.32 0 2 0 C2 3.3 2 6.6 2 10 C5.63 10 9.26 10 13 10 C12.67 10.66 12.34 11.32 12 12 C8.7 11.67 5.4 11.34 2 11 C2 14.3 2 17.6 2 21 C1.34 21 0.68 21 0 21 C0 14.07 0 7.14 0 0 Z " fill="#EEF0F5" transform="translate(262,437)"/>
<path d="M0 0 C3.10140531 1.27522853 3.82513887 2.1955738 6 5 C6.18862618 8.13329042 5.72919078 10.95728574 5 14 C4.67 14 4.34 14 4 14 C3.83723958 12.01432292 3.67447917 10.02864583 3.51171875 8.04296875 C2.87089973 5.48458442 2.13146081 4.54231546 0 3 C-2.17718256 2.56391196 -2.17718256 2.56391196 -4.5 2.6875 C-5.66015625 2.69330078 -5.66015625 2.69330078 -6.84375 2.69921875 C-9.29324946 2.88174539 -9.29324946 2.88174539 -12 5 C-12 4.01 -12 3.02 -12 2 C-7.94625301 -0.70249799 -4.75775551 -0.75930224 0 0 Z " fill="#C6CCDD" transform="translate(359,436)"/>
<path d="M0 0 C2.08304538 -0.05418326 4.16649768 -0.09287551 6.25 -0.125 C7.99023438 -0.15980469 7.99023438 -0.15980469 9.765625 -0.1953125 C12.82786046 -0.0103949 14.44202751 0.39176977 17 2 C16.34 2.66 15.68 3.32 15 4 C14.34 3.67 13.68 3.34 13 3 C10.17956274 2.72579082 7.35946953 2.5538093 4.53125 2.37890625 C2 2 2 2 0 0 Z " fill="#CFD4E2" transform="translate(262,436)"/>
<path d="M0 0 C0.99 0.33 1.98 0.66 3 1 C2.84152588 1.57524414 2.68305176 2.15048828 2.51977539 2.74316406 C2.02086674 4.90939777 1.80111676 6.89322683 1.68359375 9.109375 C1.64169922 9.86347656 1.59980469 10.61757813 1.55664062 11.39453125 C1.51732422 12.17183594 1.47800781 12.94914062 1.4375 13.75 C1.39431641 14.54277344 1.35113281 15.33554687 1.30664062 16.15234375 C1.20097009 18.10137815 1.10002034 20.05066748 1 22 C0.67 22 0.34 22 0 22 C0 14.74 0 7.48 0 0 Z " fill="#F7F8FA" transform="translate(388,436)"/>
<path d="M0 0 C0.99 0.33 1.98 0.66 3 1 C2.84152588 1.57524414 2.68305176 2.15048828 2.51977539 2.74316406 C2.02086674 4.90939777 1.80111676 6.89322683 1.68359375 9.109375 C1.64169922 9.86347656 1.59980469 10.61757813 1.55664062 11.39453125 C1.51732422 12.17183594 1.47800781 12.94914062 1.4375 13.75 C1.39431641 14.54277344 1.35113281 15.33554687 1.30664062 16.15234375 C1.20097009 18.10137815 1.10002034 20.05066748 1 22 C0.67 22 0.34 22 0 22 C0 14.74 0 7.48 0 0 Z " fill="#F7F8FA" transform="translate(177,436)"/>
<path d="M0 0 C0.66 0.33 1.32 0.66 2 1 C1.52269162 2.4589426 1.04308958 3.91713496 0.5625 5.375 C0.29566406 6.18710937 0.02882812 6.99921875 -0.24609375 7.8359375 C-1 10 -1 10 -2 12 C-2.66 12 -3.32 12 -4 12 C-3.52309796 10.37433394 -3.04340334 8.74948689 -2.5625 7.125 C-2.29566406 6.22007812 -2.02882812 5.31515625 -1.75390625 4.3828125 C-1 2 -1 2 0 0 Z " fill="#C9CFDF" transform="translate(142,438)"/>
<path d="M0 0 C0.66 0 1.32 0 2 0 C1.6875 1.875 1.6875 1.875 1 4 C-2.08888522 6.05925681 -2.70935927 6.2390374 -6.1875 6.125 C-8.0746875 6.063125 -8.0746875 6.063125 -10 6 C-10 5.67 -10 5.34 -10 5 C-8.906875 4.9175 -7.81375 4.835 -6.6875 4.75 C-2.96556057 4.37989701 -2.96556057 4.37989701 -1.1875 1.9375 C-0.795625 1.298125 -0.40375 0.65875 0 0 Z " fill="#DDE1EB" transform="translate(319,452)"/>
<path d="M0 0 C1.25 2.125 1.25 2.125 2 4 C1.34 4 0.68 4 0 4 C-0.4125 3.525625 -0.825 3.05125 -1.25 2.5625 C-3.65788428 0.41260332 -5.85408584 0.34954602 -9 0 C-9 -0.33 -9 -0.66 -9 -1 C-5.27367653 -2.03508985 -3.20634389 -2.32183523 0 0 Z " fill="#C6CCDD" transform="translate(319,438)"/>
<path d="M0 0 C0 0.33 0 0.66 0 1 C-1.093125 1.12375 -2.18625 1.2475 -3.3125 1.375 C-7.07381802 1.75464801 -7.07381802 1.75464801 -10 4 C-10 3.01 -10 2.02 -10 1 C-6.1496895 -1.56687367 -4.41430237 -0.83288724 0 0 Z " fill="#B7BFD4" transform="translate(357,437)"/>
<path d="M0 0 C1.99097846 2.98646769 2.94124926 5.59687262 4 9 C3.01 8.67 2.02 8.34 1 8 C-0.35439668 5.29120665 -0.06501451 2.99066732 0 0 Z " fill="#D0D6E3" transform="translate(151,449)"/>
</svg>
