<svg xmlns="http://www.w3.org/2000/svg" width="178" height="291.638" xmlns:v="https://vecta.io/nano"><path d="M86.105 0a36 36 0 0 0-36.03 36.03c0 27.022 36.03 66.913 36.03 66.913s36.03-39.891 36.03-66.913A36 36 0 0 0 86.105 0zm0 48.9a12.87 12.87 0 0 1-12.866-12.869 12.87 12.87 0 0 1 12.867-12.867A12.87 12.87 0 0 1 98.975 36.03c-.002 7.107-5.763 12.868-12.87 12.87z" fill="#ffa300"/><path d="M170.632 145.975h-37.047v-45.762c.001-1.734-.688-3.397-1.914-4.624s-2.89-1.915-4.624-1.914H87.821c-1.734-.001-3.397.688-4.624 1.914s-1.915 2.89-1.914 4.624v19.613H63.85V98.033c0-1.156-.459-2.265-1.276-3.082s-1.926-1.276-3.083-1.276h-4.359c-1.156 0-2.265.459-3.082 1.276s-1.276 1.926-1.276 3.082v21.793H33.341V98.033c0-1.156-.459-2.265-1.276-3.082s-1.926-1.276-3.082-1.276h-4.359c-1.156 0-2.265.459-3.082 1.276s-1.276 1.926-1.276 3.082v21.793H9.37c-1.734-.001-3.397.688-4.623 1.914s-1.915 2.889-1.915 4.623v98.064a8.72 8.72 0 0 0 8.717 8.717h156.9a8.72 8.72 0 0 0 8.717-8.717v-71.913a6.54 6.54 0 0 0-6.534-6.539zm-132.933 57.75a3.27 3.27 0 0 1-3.269 3.269H23.532a3.27 3.27 0 0 1-3.269-3.269v-10.9a3.27 3.27 0 0 1 3.269-3.265h10.9a3.27 3.27 0 0 1 3.269 3.269zm0-26.151a3.27 3.27 0 0 1-3.267 3.269h-10.9a3.27 3.27 0 0 1-3.266-3.268v-10.9a3.27 3.27 0 0 1 3.266-3.265h10.9a3.27 3.27 0 0 1 3.267 3.265zm0-26.151a3.27 3.27 0 0 1-3.267 3.27h-10.9a3.27 3.27 0 0 1-3.269-3.269v-10.9a3.27 3.27 0 0 1 3.269-3.265h10.9a3.27 3.27 0 0 1 3.269 3.269zm34.867 52.3a3.27 3.27 0 0 1-3.269 3.269H58.402a3.27 3.27 0 0 1-3.27-3.267v-10.9a3.27 3.27 0 0 1 3.269-3.269h10.9a3.27 3.27 0 0 1 3.269 3.269zm0-26.151a3.27 3.27 0 0 1-3.269 3.269H58.402a3.27 3.27 0 0 1-3.27-3.266v-10.9a3.27 3.27 0 0 1 3.269-3.269h10.9a3.27 3.27 0 0 1 3.266 3.269zm0-26.151a3.27 3.27 0 0 1-3.269 3.269H58.402a3.27 3.27 0 0 1-3.27-3.266v-10.9a3.27 3.27 0 0 1 3.269-3.269h10.9a3.27 3.27 0 0 1 3.269 3.269zm43.585 26.154a3.27 3.27 0 0 1-3.269 3.269h-10.9a3.27 3.27 0 0 1-3.265-3.269v-10.9a3.27 3.27 0 0 1 3.269-3.269h10.9a3.27 3.27 0 0 1 3.265 3.269zm0-26.151a3.27 3.27 0 0 1-3.269 3.269h-10.9a3.27 3.27 0 0 1-3.269-3.269v-10.9a3.27 3.27 0 0 1 3.269-3.269h10.9a3.27 3.27 0 0 1 3.269 3.269zm0-26.151a3.27 3.27 0 0 1-3.269 3.269h-10.9a3.27 3.27 0 0 1-3.265-3.267v-10.9a3.27 3.27 0 0 1 3.269-3.269h10.9a3.27 3.27 0 0 1 3.269 3.269zm43.581 78.452a3.27 3.27 0 0 1-3.269 3.269h-10.9a3.27 3.27 0 0 1-3.269-3.269v-10.9a3.27 3.27 0 0 1 3.269-3.269h10.9a3.27 3.27 0 0 1 3.269 3.269zm0-26.151a3.27 3.27 0 0 1-3.269 3.269h-10.9a3.27 3.27 0 0 1-3.269-3.269v-10.899a3.27 3.27 0 0 1 3.269-3.269h10.9a3.27 3.27 0 0 1 3.269 3.269z" fill="#023d83"/></svg>