<svg xmlns="http://www.w3.org/2000/svg" width="178" height="291.638" viewBox="0 0 178 291.638">
  <g id="Group_172" data-name="logo" transform="translate(-125 -302.362)">
    <g id="Group_51" data-name="Group 51" transform="translate(127.832 302.362)">
      <path id="Icon_material_location_on" data-name="Icon material-location-on" d="M43.53,3A36,36,0,0,0,7.5,39.03c0,27.022,36.03,66.913,36.03,66.913S79.56,66.052,79.56,39.03A36,36,0,0,0,43.53,3Zm0,48.9A12.868,12.868,0,1,1,56.4,39.03,12.873,12.873,0,0,1,43.53,51.9Z" transform="translate(39.743 -3)" fill="#ffa300"/>
      <path id="Icon_awesome_city" data-name="Icon awesome-city" d="M167.8,52.3H130.753V6.538A6.536,6.536,0,0,0,124.215,0H84.989a6.536,6.536,0,0,0-6.538,6.538V26.151H61.018V4.358A4.357,4.357,0,0,0,56.659,0H52.3a4.357,4.357,0,0,0-4.358,4.358V26.151H30.509V4.358A4.357,4.357,0,0,0,26.151,0H21.792a4.357,4.357,0,0,0-4.358,4.358V26.151H6.538A6.536,6.536,0,0,0,0,32.688v98.064a8.718,8.718,0,0,0,8.717,8.717h156.9a8.718,8.718,0,0,0,8.717-8.717V58.839A6.538,6.538,0,0,0,167.8,52.3ZM34.867,110.05a3.268,3.268,0,0,1-3.269,3.269H20.7a3.268,3.268,0,0,1-3.269-3.269v-10.9A3.268,3.268,0,0,1,20.7,95.885H31.6a3.268,3.268,0,0,1,3.269,3.269Zm0-26.151A3.268,3.268,0,0,1,31.6,87.168H20.7A3.268,3.268,0,0,1,17.434,83.9V73A3.268,3.268,0,0,1,20.7,69.735H31.6A3.268,3.268,0,0,1,34.867,73Zm0-26.151A3.268,3.268,0,0,1,31.6,61.018H20.7a3.268,3.268,0,0,1-3.269-3.269v-10.9A3.268,3.268,0,0,1,20.7,43.584H31.6a3.268,3.268,0,0,1,3.269,3.269Zm34.867,52.3a3.268,3.268,0,0,1-3.269,3.269H55.57A3.268,3.268,0,0,1,52.3,110.05v-10.9a3.268,3.268,0,0,1,3.269-3.269h10.9a3.268,3.268,0,0,1,3.269,3.269Zm0-26.151a3.268,3.268,0,0,1-3.269,3.269H55.57A3.268,3.268,0,0,1,52.3,83.9V73a3.268,3.268,0,0,1,3.269-3.269h10.9A3.268,3.268,0,0,1,69.735,73Zm0-26.151a3.268,3.268,0,0,1-3.269,3.269H55.57A3.268,3.268,0,0,1,52.3,57.749v-10.9a3.268,3.268,0,0,1,3.269-3.269h10.9a3.268,3.268,0,0,1,3.269,3.269ZM113.319,83.9a3.268,3.268,0,0,1-3.269,3.269h-10.9A3.268,3.268,0,0,1,95.885,83.9V73a3.268,3.268,0,0,1,3.269-3.269h10.9A3.268,3.268,0,0,1,113.319,73Zm0-26.151a3.268,3.268,0,0,1-3.269,3.269h-10.9a3.268,3.268,0,0,1-3.269-3.269v-10.9a3.268,3.268,0,0,1,3.269-3.269h10.9a3.268,3.268,0,0,1,3.269,3.269Zm0-26.151a3.268,3.268,0,0,1-3.269,3.269h-10.9A3.268,3.268,0,0,1,95.885,31.6V20.7a3.268,3.268,0,0,1,3.269-3.269h10.9a3.268,3.268,0,0,1,3.269,3.269ZM156.9,110.05a3.268,3.268,0,0,1-3.269,3.269h-10.9a3.268,3.268,0,0,1-3.269-3.269v-10.9a3.268,3.268,0,0,1,3.269-3.269h10.9a3.268,3.268,0,0,1,3.269,3.269Zm0-26.151a3.268,3.268,0,0,1-3.269,3.269h-10.9a3.268,3.268,0,0,1-3.269-3.269V73a3.268,3.268,0,0,1,3.269-3.269h10.9A3.268,3.268,0,0,1,156.9,73Z" transform="translate(0 93.675)" fill="#023d83"/>
    </g>
  </g>
</svg>
