<svg xmlns="http://www.w3.org/2000/svg" viewBox="134.806 124.666 200 100" width="200" height="100" xmlns:v="https://vecta.io/nano"><defs><clipPath id="A"><path fill="#fff" transform="translate(134 1)" d="M0 0h118v31H0z"/></clipPath></defs><g clip-path="url(#A)" transform="matrix(1.694915 0 0 3.225806 -92.312822 121.440241)"><g fill="#444"><path d="M146.387 10.053L139.588 32h7.916l6.799-21.947h-7.916zm44.89 9.693L196.679 32h-7.451l-4.563-9.693L181.591 32h-7.916l6.705-21.581h7.917l-1.956 6.401 7.823-6.401h8.662l-11.549 9.327zm35.67-7.498a3.1 3.1 0 0 0-.838-1.28c-.182-.18-.4-.322-.641-.416s-.497-.139-.756-.132h-18.534l-1.676 5.304h14.622l-.838 2.835H207.11c-.588.023-1.162.179-1.677.457a10.18 10.18 0 0 0-1.676 1.28 8.19 8.19 0 0 0-1.397 1.737 8.45 8.45 0 0 0-.931 1.829l-.839 2.835c-.19.591-.284 1.209-.279 1.829a5.24 5.24 0 0 0 .279 1.737 3.09 3.09 0 0 0 .839 1.28 1.83 1.83 0 0 0 .649.373 1.84 1.84 0 0 0 .748.084h19.092l5.029-16.277c.191-.591.285-1.209.28-1.829a5.1 5.1 0 0 0-.28-1.646zm-11.176 14.448H208.6l.838-2.835h7.171l-.838 2.835zm-39.209-16.277l-1.676 5.304h-7.824L162.033 32h-7.916l5.029-16.277c.652-2.743 2.887-5.03 5.215-5.304h12.201zm71.992 0l-1.676 5.304h-7.824L234.025 32h-7.916l5.029-16.277c.652-2.743 2.887-5.03 5.216-5.304h12.2z"/></g><path d="M252 1l-2.049 6.584h-16.019L235.981 1H252z" fill="#facf9c"/><path d="M235.981 1l-2.049 6.584h-27.661L208.32 1h27.661z" fill="#f6a647"/><path d="M208.32 1l-2.048 6.584h-36.788L171.533 1h36.787z" fill="#f28400"/><path d="M136.049 1L134 7.584h32.597L168.552 1h-32.503z" fill="#444"/></g></svg>