<?xml version="1.0" encoding="UTF-8"?>
<svg version="1.1" xmlns="http://www.w3.org/2000/svg" width="500" height="500">
<path d="M0 0 C165 0 330 0 500 0 C500 165 500 330 500 500 C335 500 170 500 0 500 C0 335 0 170 0 0 Z " fill="#000000" transform="translate(0,0)"/>
<path d="M0 0 C3.38084626 2.37572981 3.92879305 3.64396525 4.75 7.75 C4.8325 8.8225 4.915 9.895 5 11 C5.99 11.33 6.98 11.66 8 12 C8 12.66 8 13.32 8 14 C8.845625 14.2475 9.69125 14.495 10.5625 14.75 C14 16 14 16 21 20 C21 29.9 21 39.8 21 50 C17.37 51.98 13.74 53.96 10 56 C6.92367516 57.86715348 3.86850597 59.76091438 0.82421875 61.6796875 C-2.4170253 63.19495789 -4.46196715 63.40016371 -8 63 C-9.485 62.01 -9.485 62.01 -11 61 C-11 60.34 -11 59.68 -11 59 C-11.721875 58.89945313 -12.44375 58.79890625 -13.1875 58.6953125 C-17.20459945 57.70219625 -20.10595876 55.48127172 -23.5 53.1796875 C-26.65926375 51.68890992 -27.72478538 51.84175174 -31 53 C-33.41102107 54.28145908 -35.73289348 55.58691948 -38.0625 57 C-41.69726926 59.19081983 -44.82343489 60.95585872 -49 62 C-49 70.91 -49 79.82 -49 89 C-47.35 89.66 -45.7 90.32 -44 91 C-41.09017469 92.74383148 -38.19261179 94.49413894 -35.34765625 96.34179688 C-32.10397016 98.30583098 -30.17617758 99.00679785 -26.35546875 98.859375 C-21.6420861 97.65222228 -17.62730388 96.3476992 -14 93 C-13.06168164 90.37354638 -12.70170508 88.08270978 -12.51171875 85.3046875 C-12 83 -12 83 -10.23828125 81.19140625 C-6.44832331 79.17406389 -3.03585428 79.9262406 1 81 C3.5625 82.625 3.5625 82.625 5 85 C5.25 88.75 5.25 88.75 5 92 C4.34 92 3.68 92 3 92 C2.9175 92.61875 2.835 93.2375 2.75 93.875 C2 96 2 96 0.265625 97.18359375 C-2.5509178 98.19852038 -4.08806676 97.78981953 -7 97.1875 C-13.43421662 96.40157555 -17.12708713 98.83062282 -22.37109375 102.3359375 C-24.80154231 103.87437893 -26.20517939 104.6037664 -29 105 C-31.72219045 103.74791024 -34.18478726 102.45612501 -36.75 100.9375 C-37.42804688 100.55400391 -38.10609375 100.17050781 -38.8046875 99.77539062 C-40.1880173 98.97721459 -41.55541038 98.1508367 -42.90625 97.29882812 C-44.99418216 95.9597398 -44.99418216 95.9597398 -47.28125 94.85742188 C-49.76208696 93.43006089 -51.291694 92.3097106 -53 90 C-53.97745287 85.17316137 -53.75550939 80.52390128 -53.5 75.625 C-53.46390625 74.31660156 -53.4278125 73.00820312 -53.390625 71.66015625 C-53.29652136 68.43710655 -53.16516394 65.22006152 -53 62 C-53.59329102 61.86859619 -54.18658203 61.73719238 -54.79785156 61.60180664 C-58.03428035 60.71735022 -60.83406127 59.05568578 -63.75 57.4375 C-64.35199219 57.10814453 -64.95398438 56.77878906 -65.57421875 56.43945312 C-67.05170503 55.6303535 -68.52616036 54.81572338 -70 54 C-70 53.34 -70 52.68 -70 52 C-71.98 51.34 -73.96 50.68 -76 50 C-76 40.1 -76 30.2 -76 20 C-69.625 16.375 -69.625 16.375 -67.5300293 15.18920898 C-62.97243939 12.59736681 -58.54604483 9.84441466 -54.18359375 6.93359375 C-51.30183556 5.70150036 -49.94655779 5.996429 -47 7 C-44.57464419 8.53964567 -42.35970901 10.26179442 -40.0859375 12.015625 C-35.67784067 14.85019866 -30.77106087 16.83133597 -26 19 C-26 28.57 -26 38.14 -26 48 C-24.02 48.66 -22.04 49.32 -20 50 C-17.62109375 51.4375 -17.62109375 51.4375 -15.4375 53 C-11.45564815 55.83911005 -8.20053316 58.06990644 -3.171875 57.91015625 C0.94822617 56.72791047 4.16213165 54.7389519 7.75 52.4375 C14.76650228 48 14.76650228 48 17 48 C16.505 35.13 16.505 35.13 16 22 C13.7725 20.80375 11.545 19.6075 9.25 18.375 C8.55551758 17.99134277 7.86103516 17.60768555 7.14550781 17.21240234 C5.20140729 16.16676441 5.20140729 16.16676441 2 15 C-0.24305093 15.69385722 -0.24305093 15.69385722 -2 17 C-5.78825503 16.86470518 -8.23184073 16.49240979 -11.4375 14.4375 C-13.65456515 10.97887837 -13.82963533 8.00032082 -13 4 C-9.343307 -0.91762162 -5.77832349 -1.5330246 0 0 Z " fill="#CCBD35" transform="translate(126,158)"/>
<path d="M0 0 C3.89189208 2.13389031 7.73180977 4.33723395 11.54492188 6.60742188 C14.64176039 8.41865392 17.10909335 9.56145303 20.62890625 10.44140625 C20.62890625 19.35140625 20.62890625 28.26140625 20.62890625 37.44140625 C16.99890625 39.42140625 13.36890625 41.40140625 9.62890625 43.44140625 C6.20162984 45.53070612 6.20162984 45.53070612 2.796875 47.65625 C-1.17957991 49.09637151 -4.42777459 47.87199435 -8.15234375 46.171875 C-9.04953125 45.66269531 -9.94671875 45.15351563 -10.87109375 44.62890625 C-11.76828125 44.12746094 -12.66546875 43.62601563 -13.58984375 43.109375 C-14.50765625 42.55894531 -15.42546875 42.00851563 -16.37109375 41.44140625 C-17.46679688 40.98894531 -18.5625 40.53648437 -19.69140625 40.0703125 C-22.9601496 36.86351327 -22.80631581 35.82282006 -22.95703125 31.36328125 C-22.91717581 28.97195457 -22.84565981 26.58099164 -22.74609375 24.19140625 C-22.71902344 22.969375 -22.69195312 21.74734375 -22.6640625 20.48828125 C-22.59334213 17.47087884 -22.49468491 14.45703055 -22.37109375 11.44140625 C-21.05109375 11.11140625 -19.73109375 10.78140625 -18.37109375 10.44140625 C-18.37109375 9.78140625 -18.37109375 9.12140625 -18.37109375 8.44140625 C-17.26701172 7.84392578 -17.26701172 7.84392578 -16.140625 7.234375 C-15.16480469 6.70457031 -14.18898438 6.17476562 -13.18359375 5.62890625 C-12.22066406 5.10683594 -11.25773437 4.58476562 -10.265625 4.046875 C-7.36275045 2.50880013 -7.36275045 2.50880013 -4.8203125 0.6171875 C-2.37109375 -0.55859375 -2.37109375 -0.55859375 0 0 Z " fill="#020202" transform="translate(76.37109375,168.55859375)"/>
<path d="M0 0 C4.13982621 2.36561498 6.5397169 4.18165069 8.0625 8.75 C8.15475211 10.24774018 8.1925019 11.74942974 8.1875 13.25 C8.19136719 14.41015625 8.19136719 14.41015625 8.1953125 15.59375 C8.0625 17.75 8.0625 17.75 7.0625 20.75 C6.4025 20.75 5.7425 20.75 5.0625 20.75 C4.8975 21.348125 4.7325 21.94625 4.5625 22.5625 C2.21659982 25.98360444 -1.05496326 26.85998327 -4.9375 27.75 C-10.93209552 28.43246164 -15.83114494 28.27581659 -20.9375 24.75 C-24.34140898 21.0700984 -25.8065782 18.48471382 -26.1875 13.4375 C-25.86190021 8.63490308 -24.93253055 5.60811669 -21.34375 2.265625 C-14.9471703 -2.40073232 -7.35225907 -2.83992839 0 0 Z " fill="#070707" transform="translate(440.9375,215.25)"/>
<path d="M0 0 C3.68410271 2.16355929 5.74720878 4.44186903 7.5625 8.375 C8.22781314 13.614341 7.87069726 17.37175191 4.94140625 21.83203125 C1.5962774 25.5751641 -2.26856164 27.10426727 -7.19140625 27.71875 C-12.62992669 27.89633434 -16.87162763 27.60451948 -21.4375 24.375 C-25.5257121 19.95531125 -26.8224374 16.51033815 -26.7109375 10.43359375 C-26.05725945 5.51233182 -23.13254559 2.91401494 -19.375 0 C-13.32675989 -3.08901534 -6.11839302 -2.71674914 0 0 Z " fill="#0B0B0B" transform="translate(297.4375,215.625)"/>
<path d="M0 0 C4.24424537 2.37515798 6.46723859 4.49399886 8.5625 8.875 C8.5625 9.865 8.5625 10.855 8.5625 11.875 C6.0875 11.38 6.0875 11.38 3.5625 10.875 C3.48 10.25625 3.3975 9.6375 3.3125 9 C2.76327462 6.73779272 2.76327462 6.73779272 0.75 5.75 C-0.3328125 5.316875 -0.3328125 5.316875 -1.4375 4.875 C-2.015 4.50375 -2.5925 4.1325 -3.1875 3.75 C-8.80905321 1.56384042 -14.35628973 2.71428122 -19.7421875 4.953125 C-23.21297678 6.84046663 -24.22979914 9.25189741 -25.4375 12.875 C-26.1709423 19.75252449 -25.53260366 24.25885784 -21.4375 29.875 C-16.10211359 33.43192427 -9.71674603 33.72432051 -3.4375 32.875 C1.96738665 30.68210828 4.69347864 27.89578738 7.5625 22.875 C8.8825 22.875 10.2025 22.875 11.5625 22.875 C11.30020575 26.63455091 10.83687625 28.53606463 8.4375 31.5 C2.46943434 36.4301412 -2.06989298 38.63980485 -9.75 38.5625 C-10.8649585 38.55271118 -10.8649585 38.55271118 -12.00244141 38.54272461 C-17.89698278 38.28680274 -22.02589717 36.87022382 -26.609375 32.99609375 C-31.02037443 27.87820339 -32.05127018 21.70392664 -31.78515625 15.07421875 C-30.94540408 9.7620786 -28.51325226 5.54659502 -24.5 2 C-16.82339876 -3.32662127 -8.51295893 -3.91646483 0 0 Z " fill="#DCDCDC" transform="translate(397.4375,205.125)"/>
<path d="M0 0 C4.13982621 2.36561498 6.5397169 4.18165069 8.0625 8.75 C8.15475211 10.24774018 8.1925019 11.74942974 8.1875 13.25 C8.19136719 14.41015625 8.19136719 14.41015625 8.1953125 15.59375 C8.0625 17.75 8.0625 17.75 7.0625 20.75 C6.4025 20.75 5.7425 20.75 5.0625 20.75 C4.8975 21.348125 4.7325 21.94625 4.5625 22.5625 C2.21659982 25.98360444 -1.05496326 26.85998327 -4.9375 27.75 C-10.93209552 28.43246164 -15.83114494 28.27581659 -20.9375 24.75 C-24.34140898 21.0700984 -25.8065782 18.48471382 -26.1875 13.4375 C-25.86190021 8.63490308 -24.93253055 5.60811669 -21.34375 2.265625 C-14.9471703 -2.40073232 -7.35225907 -2.83992839 0 0 Z M-16.9375 3.75 C-16.9375 4.41 -16.9375 5.07 -16.9375 5.75 C-17.9275 6.08 -18.9175 6.41 -19.9375 6.75 C-21.66619779 10.20739557 -21.42716895 13.96975568 -20.9375 17.75 C-19.14356332 20.62029869 -17.95486724 22.24131638 -14.9375 23.75 C-10.06054083 24.15837661 -5.49475515 24.39885631 -0.9375 22.5 C2.75750405 19.26687145 3.921145 17.86317061 4.5625 12.8125 C4.43919632 9.33403837 4.05345988 8.73851661 1.75 5.8125 C-1.70497648 3.16100642 -4.13737661 2.61070785 -8.375 2.625 C-9.13683594 2.62242187 -9.89867187 2.61984375 -10.68359375 2.6171875 C-12.89065859 2.74723985 -14.81719276 3.14143801 -16.9375 3.75 Z " fill="#E2E2E2" transform="translate(440.9375,215.25)"/>
<path d="M0 0 C1.65 0 3.3 0 5 0 C10.94021623 11.53440044 10.94021623 11.53440044 12.5 16.0625 C14.34573165 21.35359738 17.24091263 26.14257758 20 31 C20.21914062 30.48953125 20.43828125 29.9790625 20.6640625 29.453125 C22.64359054 24.91469486 24.75130496 20.47427987 27 16.0625 C29.6531831 10.81673951 31.93133458 5.5002163 34 0 C35.65 0 37.3 0 39 0 C38.295294 3.23252732 37.17509755 6.10977802 35.85546875 9.140625 C35.21061523 10.62369141 35.21061523 10.62369141 34.55273438 12.13671875 C34.10220703 13.16410156 33.65167969 14.19148437 33.1875 15.25 C32.74857422 16.26191406 32.30964844 17.27382812 31.85742188 18.31640625 C29.91044838 22.77737672 27.93677428 27.20353495 25.73828125 31.546875 C23.96677482 34.85950083 23.96677482 34.85950083 23 38 C20.69 38 18.38 38 16 38 C15.68546875 37.154375 15.3709375 36.30875 15.046875 35.4375 C12.93463465 29.83879063 10.8196943 24.34425459 8.0390625 19.04296875 C6.27047111 15.56562553 4.72788103 11.98429188 3.1484375 8.41796875 C1.98966093 5.82840043 1.98966093 5.82840043 0 3 C0 2.01 0 1.02 0 0 Z " fill="#E4E4E4" transform="translate(168,204)"/>
<path d="M0 0 C3.38084626 2.37572981 3.92879305 3.64396525 4.75 7.75 C4.87375 9.35875 4.87375 9.35875 5 11 C5.99 11.33 6.98 11.66 8 12 C8 12.66 8 13.32 8 14 C8.86625 14.2475 9.7325 14.495 10.625 14.75 C17.17647059 17.17647059 17.17647059 17.17647059 20 20 C20.77746614 24.75932162 20.56057779 29.44401097 20.375 34.25 C20.33439453 36.22613281 20.33439453 36.22613281 20.29296875 38.2421875 C20.22222422 41.49643587 20.12354061 44.74739748 20 48 C19.01 47.505 19.01 47.505 18 47 C18 38.42 18 29.84 18 21 C16.35 20.67 14.7 20.34 13 20 C10.16170336 18.69961728 7.39691454 17.29161622 4.62109375 15.86328125 C2.06348414 14.70721977 2.06348414 14.70721977 -0.12109375 15.86328125 C-0.74113281 16.23839844 -1.36117187 16.61351562 -2 17 C-5.78825503 16.86470518 -8.23184073 16.49240979 -11.4375 14.4375 C-13.65456515 10.97887837 -13.82963533 8.00032082 -13 4 C-9.343307 -0.91762162 -5.77832349 -1.5330246 0 0 Z " fill="#D1C030" transform="translate(126,158)"/>
<path d="M0 0 C2.18361949 1.43799333 3.954754 2.63315789 5.5625 4.6875 C5.5625 5.3475 5.5625 6.0075 5.5625 6.6875 C3.06928728 6.27196455 0.95285113 5.89921587 -1.28125 4.6875 C-3.81276662 3.51346331 -5.91323164 3.28152119 -8.6875 3.0625 C-10.02554688 2.95035156 -10.02554688 2.95035156 -11.390625 2.8359375 C-12.40382812 2.76246094 -12.40382812 2.76246094 -13.4375 2.6875 C-13.4375 3.3475 -13.4375 4.0075 -13.4375 4.6875 C-14.0975 4.6875 -14.7575 4.6875 -15.4375 4.6875 C-15.4375 6.0075 -15.4375 7.3275 -15.4375 8.6875 C-14.19613281 8.85765625 -12.95476562 9.0278125 -11.67578125 9.203125 C-10.03373066 9.4470868 -8.39181006 9.69192471 -6.75 9.9375 C-5.93337891 10.04707031 -5.11675781 10.15664062 -4.27539062 10.26953125 C0.68164476 11.03215208 3.98598724 11.8968248 7.5625 15.6875 C8.1875 18.625 8.1875 18.625 7.5625 21.6875 C4.50677451 25.40392289 2.23407454 27.39803988 -2.63671875 27.92578125 C-9.65030081 28.13497758 -14.74098837 26.79726375 -20.16015625 22.23828125 C-21.4375 20.6875 -21.4375 20.6875 -21.4375 17.6875 C-18.15837409 18.06225725 -16.69423245 18.44543797 -14.25 20.75 C-10.17764845 23.55539774 -6.25518258 23.3611922 -1.4375 22.6875 C0.80418653 21.74258372 0.80418653 21.74258372 2.5625 20.6875 C2.5625 19.6975 2.5625 18.7075 2.5625 17.6875 C1.46550781 17.42195313 0.36851562 17.15640625 -0.76171875 16.8828125 C-2.21619247 16.52623185 -3.67061698 16.1694504 -5.125 15.8125 C-6.2068457 15.55146484 -6.2068457 15.55146484 -7.31054688 15.28515625 C-17.30397727 12.82102273 -17.30397727 12.82102273 -19.4375 10.6875 C-19.875 7.4375 -19.875 7.4375 -19.4375 3.6875 C-14.20837856 -2.78009757 -7.50210271 -2.86443921 0 0 Z " fill="#E4E4E4" transform="translate(245.4375,215.3125)"/>
<path d="M0 0 C3.68410271 2.16355929 5.74720878 4.44186903 7.5625 8.375 C8.22781314 13.614341 7.87069726 17.37175191 4.94140625 21.83203125 C1.5962774 25.5751641 -2.26856164 27.10426727 -7.19140625 27.71875 C-12.62992669 27.89633434 -16.87162763 27.60451948 -21.4375 24.375 C-25.5257121 19.95531125 -26.8224374 16.51033815 -26.7109375 10.43359375 C-26.05725945 5.51233182 -23.13254559 2.91401494 -19.375 0 C-13.32675989 -3.08901534 -6.11839302 -2.71674914 0 0 Z M-21.24609375 6.53125 C-22.97909879 9.21314633 -23.28640382 11.25480672 -23.0078125 14.41015625 C-21.98686167 17.92754164 -20.04307679 19.83146075 -17.4375 22.375 C-13.5094941 24.33900295 -8.72962962 23.71041968 -4.4375 23.375 C-0.74183958 21.98912734 0.2416378 20.87288961 2.375 17.5625 C3.66998056 14.08649956 4.18576359 12.03667357 3.5625 8.375 C0.4008618 4.52976436 -1.90318083 2.69380767 -6.890625 2.06640625 C-12.90013119 1.7894318 -16.91142681 2.10257823 -21.24609375 6.53125 Z " fill="#EAEAEA" transform="translate(297.4375,215.625)"/>
<path d="M0 0 C4.28912697 1.73390239 6.09615981 3.8266102 8 8 C8.36192336 11.44620401 8.28286923 14.85230866 8.1875 18.3125 C8.16719727 19.70952148 8.16719727 19.70952148 8.14648438 21.13476562 C8.11126882 23.42377646 8.06202099 25.71158458 8 28 C6.68 28 5.36 28 4 28 C3.98541748 27.40985107 3.97083496 26.81970215 3.95581055 26.21166992 C3.88131156 23.53628771 3.78466005 20.86215108 3.6875 18.1875 C3.66494141 17.25873047 3.64238281 16.32996094 3.61914062 15.37304688 C3.5659668 14.0340332 3.5659668 14.0340332 3.51171875 12.66796875 C3.48553467 11.84578857 3.45935059 11.0236084 3.43237305 10.17651367 C2.90649561 7.52931018 2.12755928 6.61955219 0 5 C-2.56299065 4.44913355 -2.56299065 4.44913355 -5.375 4.5 C-6.31085938 4.4690625 -7.24671875 4.438125 -8.2109375 4.40625 C-12.24004076 5.26398627 -13.59900641 6.6693144 -16 10 C-16.71753816 13.10812648 -16.78990332 16.13138925 -16.8125 19.3125 C-16.83763672 20.14845703 -16.86277344 20.98441406 -16.88867188 21.84570312 C-16.9472699 23.89663409 -16.97656493 25.94836593 -17 28 C-18.32 28 -19.64 28 -21 28 C-21 19.09 -21 10.18 -21 1 C-19.68 1 -18.36 1 -17 1 C-16.67 1.99 -16.34 2.98 -16 4 C-14.824375 3.01 -14.824375 3.01 -13.625 2 C-9.35202158 -0.85203548 -4.95898319 -0.67999435 0 0 Z " fill="#F1F1F1" transform="translate(333,214)"/>
<path d="M0 0 C3.07005076 0.93361618 4.42515573 1.87991083 6.09375 4.63671875 C6.34375 8.38671875 6.34375 8.38671875 6.09375 11.63671875 C5.43375 11.63671875 4.77375 11.63671875 4.09375 11.63671875 C4.01125 12.25546875 3.92875 12.87421875 3.84375 13.51171875 C3.09375 15.63671875 3.09375 15.63671875 1.46875 16.94921875 C-1.91490136 17.92869678 -4.49624914 17.38071894 -7.90625 16.63671875 C-8.89625 15.97671875 -9.88625 15.31671875 -10.90625 14.63671875 C-9.91625 14.30671875 -8.92625 13.97671875 -7.90625 13.63671875 C-8.56625 12.31671875 -9.22625 10.99671875 -9.90625 9.63671875 C-10.56625 10.62671875 -11.22625 11.61671875 -11.90625 12.63671875 C-12.5041285 5.5817525 -12.5041285 5.5817525 -9.96875 1.57421875 C-6.22316742 -0.79543553 -4.26610776 -0.77500958 0 0 Z " fill="#C1B131" transform="translate(124.90625,238.36328125)"/>
<path d="M0 0 C0 0.33 0 0.66 0 1 C-0.59167969 1.01417969 -1.18335938 1.02835938 -1.79296875 1.04296875 C-6.19614307 1.30873947 -8.41467687 1.52676002 -11.9375 4.375 C-14.6295964 7.80130451 -16.22918232 9.88578449 -16.4140625 14.23046875 C-16.45273437 15.03291016 -16.49140625 15.83535156 -16.53125 16.66210938 C-16.5621875 17.49548828 -16.593125 18.32886719 -16.625 19.1875 C-16.66367187 20.03248047 -16.70234375 20.87746094 -16.7421875 21.74804688 C-16.83636279 23.83167524 -16.91926675 25.91580753 -17 28 C-18.32 28 -19.64 28 -21 28 C-21 19.09 -21 10.18 -21 1 C-19.68 1 -18.36 1 -17 1 C-16.67 1.99 -16.34 2.98 -16 4 C-14.824375 3.01 -14.824375 3.01 -13.625 2 C-9.38807768 -0.89251428 -4.93324584 -0.35098192 0 0 Z " fill="#E4E4E4" transform="translate(333,214)"/>
<path d="M0 0 C3.0625 0.1875 3.0625 0.1875 5.0625 2.1875 C4.7325 3.1775 4.4025 4.1675 4.0625 5.1875 C3.4025 4.1975 2.7425 3.2075 2.0625 2.1875 C0.7425 2.1875 -0.5775 2.1875 -1.9375 2.1875 C-2.2675 3.5075 -2.5975 4.8275 -2.9375 6.1875 C-2.37160156 6.32027344 -1.80570312 6.45304687 -1.22265625 6.58984375 C-0.48917969 6.76644531 0.24429688 6.94304687 1 7.125 C2.09634766 7.38603516 2.09634766 7.38603516 3.21484375 7.65234375 C5.0625 8.1875 5.0625 8.1875 6.0625 9.1875 C6.3125 11.625 6.3125 11.625 6.0625 14.1875 C2.80486778 16.35925481 1.83810787 16.64793998 -1.9375 16.1875 C-5.0234725 14.64451375 -5.77745721 13.66762836 -6.875 10.375 C-6.95069729 6.51443832 -5.9159489 4.4595501 -3.9375 1.1875 C-2.9375 0.1875 -2.9375 0.1875 0 0 Z " fill="#575757" transform="translate(81.9375,289.8125)"/>
<path d="M0 0 C1.32 0 2.64 0 4 0 C3.73770575 3.75955091 3.27437625 5.66106463 0.875 8.625 C-6.64213074 14.83480366 -11.32175865 15.57211279 -21 15 C-20.67 14.01 -20.34 13.02 -20 12 C-18.21484375 11.4453125 -18.21484375 11.4453125 -15.9375 11.125 C-10.88802314 10.15053955 -6.95907575 8.30235702 -3 5 C-1.9731657 3.3497306 -0.96432076 1.68756133 0 0 Z " fill="#E4E4E4" transform="translate(405,228)"/>
<path d="M0 0 C3 0.5625 3 0.5625 4.9375 2.1875 C6.39828486 5.45278379 6.16738223 7.20627608 5 10.5625 C2.46337108 12.13932338 0.78262201 12.5625 -2.1875 12.5625 C-4 11.5625 -4 11.5625 -5.4375 8.8125 C-6 5.5625 -6 5.5625 -5 2.6875 C-3 0.5625 -3 0.5625 0 0 Z " fill="#414141" transform="translate(111,293.4375)"/>
<path d="M0 0 C1.32 0 2.64 0 4 0 C4 8.91 4 17.82 4 27 C2.68 27 1.36 27 0 27 C0 18.09 0 9.18 0 0 Z " fill="#FAFAFA" transform="translate(260,215)"/>
<path d="M0 0 C1.32 0 2.64 0 4 0 C4 8.91 4 17.82 4 27 C2.68 27 1.36 27 0 27 C0 18.09 0 9.18 0 0 Z " fill="#F3F3F3" transform="translate(213,215)"/>
<path d="M0 0 C0.33 0 0.66 0 1 0 C1 9.9 1 19.8 1 30 C-10 36 -10 36 -13 37 C-13 36.34 -13 35.68 -13 35 C-13.66 34.67 -14.32 34.34 -15 34 C-13.37829621 32.99466333 -11.75252763 31.99588093 -10.125 31 C-9.22007812 30.443125 -8.31515625 29.88625 -7.3828125 29.3125 C-5 28 -5 28 -3 28 C-3.33 19.09 -3.66 10.18 -4 1 C-3.34 1 -2.68 1 -2 1 C-1.67 9.58 -1.34 18.16 -1 27 C-0.67 18.09 -0.34 9.18 0 0 Z " fill="#C4B648" transform="translate(146,178)"/>
<path d="M0 0 C2.9375 0.8125 2.9375 0.8125 4.9375 3.8125 C4.38194444 9.36805556 4.38194444 9.36805556 2.9375 10.8125 C0.26691149 10.95365161 -2.38682238 10.85497107 -5.0625 10.8125 C-6.58400158 7.76949684 -6.30149393 5.158415 -6.0625 1.8125 C-3.0625 -0.1875 -3.0625 -0.1875 0 0 Z " fill="#4B4B4B" transform="translate(355.0625,294.1875)"/>
<path d="M0 0 C2.57636902 1.74078988 3.76833415 2.98183832 4.46484375 6.04296875 C4.72030996 8.02020719 4.8673828 10.01074197 5 12 C4.01 12.33 3.02 12.66 2 13 C1.01 10.03 0.02 7.06 -1 4 C-3.33294775 3.95758277 -5.66702567 3.95907063 -8 4 C-9.49743119 5.49743119 -9.33202693 6.98824239 -9.5625 9.0625 C-9.7790625 11.0115625 -9.7790625 11.0115625 -10 13 C-10.99 12.67 -11.98 12.34 -13 12 C-13.48945148 4.65822785 -13.48945148 4.65822785 -11.1875 1.5625 C-7.23814633 -1.25846691 -4.58583056 -1.21664892 0 0 Z " fill="#D1C140" transform="translate(126,158)"/>
<path d="M0 0 C7.89467279 -0.6640379 13.65301022 -0.00934462 20 5 C22.37365923 8.02102083 23 9.17172555 23 13 C20.525 12.505 20.525 12.505 18 12 C17.9175 11.38125 17.835 10.7625 17.75 10.125 C17.20077462 7.86279272 17.20077462 7.86279272 15.1875 6.875 C14.465625 6.58625 13.74375 6.2975 13 6 C12.40316406 5.67515625 11.80632812 5.3503125 11.19140625 5.015625 C8.71667272 3.86868968 6.42916409 3.36853023 3.75 2.875 C2.85796875 2.70742187 1.9659375 2.53984375 1.046875 2.3671875 C0.03367187 2.18542969 0.03367187 2.18542969 -1 2 C-0.67 1.34 -0.34 0.68 0 0 Z " fill="#E2E2E2" transform="translate(383,204)"/>
<path d="M0 0 C0.33 0.66 0.66 1.32 1 2 C0.01 2.495 0.01 2.495 -1 3 C-0.67 3.66 -0.34 4.32 0 5 C-1.45537568 5.83848804 -2.91440373 6.67063934 -4.375 7.5 C-5.59316406 8.19609375 -5.59316406 8.19609375 -6.8359375 8.90625 C-9 10 -9 10 -11 10 C-11 10.66 -11 11.32 -11 12 C-12.32 12.33 -13.64 12.66 -15 13 C-15 21.58 -15 30.16 -15 39 C-15.33 39 -15.66 39 -16 39 C-16.33 30.42 -16.66 21.84 -17 13 C-17.99 13.495 -17.99 13.495 -19 14 C-19 13.01 -19 12.02 -19 11 C-18.04738281 10.45730469 -17.09476563 9.91460937 -16.11328125 9.35546875 C-14.84633756 8.63284161 -13.57941141 7.91018373 -12.3125 7.1875 C-11.68666016 6.83107422 -11.06082031 6.47464844 -10.41601562 6.10742188 C-6.91884475 4.1116542 -3.44373714 2.08731295 0 0 Z " fill="#A09224" transform="translate(69,167)"/>
<path d="M0 0 C1.32 0 2.64 0 4 0 C4 10.23 4 20.46 4 31 C3.01 31 2.02 31 1 31 C1 21.43 1 11.86 1 2 C0.34 1.67 -0.32 1.34 -1 1 C-0.67 0.67 -0.34 0.34 0 0 Z " fill="#D5C840" transform="translate(96,177)"/>
<path d="M0 0 C2.5 0.25 2.5 0.25 4.5 2.25 C4.76991906 4.93839385 4.58737357 7.54141936 4.5 10.25 C5.16 10.58 5.82 10.91 6.5 11.25 C2.87 11.25 -0.76 11.25 -4.5 11.25 C-4.6953125 4.4140625 -4.6953125 4.4140625 -4.5 2.25 C-2.5 0.25 -2.5 0.25 0 0 Z " fill="#6E6E6E" transform="translate(221.5,293.75)"/>
<path d="M0 0 C2.4375 0.75 2.4375 0.75 4.4375 2.75 C4.8008156 5.58386167 4.7943671 7.15522151 3.3125 9.625 C1.4375 10.75 1.4375 10.75 -1.6875 10.5 C-4.5625 9.75 -4.5625 9.75 -5.5625 8.75 C-5.8125 5.3125 -5.8125 5.3125 -5.5625 1.75 C-2.5625 -0.25 -2.5625 -0.25 0 0 Z " fill="#110D06" transform="translate(122.5625,241.25)"/>
<path d="M0 0 C0.66 0 1.32 0 2 0 C2 8.91 2 17.82 2 27 C-9 33 -9 33 -14 35 C-13.505 32.03 -13.505 32.03 -13 29 C-11.02 29.33 -9.04 29.66 -7 30 C-6.814375 28.7934375 -6.814375 28.7934375 -6.625 27.5625 C-6.41875 26.716875 -6.2125 25.87125 -6 25 C-5.34 24.67 -4.68 24.34 -4 24 C-3.34 24.33 -2.68 24.66 -2 25 C-2 24.34 -2 23.68 -2 23 C-2.66 22.67 -3.32 22.34 -4 22 C-2.35 22.33 -0.7 22.66 1 23 C0.67 15.41 0.34 7.82 0 0 Z " fill="#2B2007" transform="translate(95,179)"/>
<path d="M0 0 C3.5625 0.1875 3.5625 0.1875 5.5625 2.1875 C5.1875 5.8125 5.1875 5.8125 4.5625 9.1875 C1.1875 9.8125 1.1875 9.8125 -2.4375 10.1875 C-4.4375 8.1875 -4.4375 8.1875 -4.625 4.625 C-4.38577586 0.23922414 -4.38577586 0.23922414 0 0 Z " fill="#0B0809" transform="translate(121.4375,160.8125)"/>
<path d="M0 0 C0.66 0.33 1.32 0.66 2 1 C2.33 9.91 2.66 18.82 3 28 C1.68 28.33 0.36 28.66 -1 29 C-1.02891546 24.54168018 -1.04676981 20.08338431 -1.0625 15.625 C-1.07087891 14.35398438 -1.07925781 13.08296875 -1.08789062 11.7734375 C-1.09111328 10.56171875 -1.09433594 9.35 -1.09765625 8.1015625 C-1.10289307 6.98088379 -1.10812988 5.86020508 -1.11352539 4.70556641 C-1 2 -1 2 0 0 Z " fill="#DECE30" transform="translate(51,179)"/>
<path d="M0 0 C1.65 0 3.3 0 5 0 C4.36953397 2.78162695 3.52684767 5.28492526 2.37109375 7.890625 C1.90219727 8.95410156 1.90219727 8.95410156 1.42382812 10.0390625 C1.09833984 10.76867187 0.77285156 11.49828125 0.4375 12.25 C0.10814453 12.99507812 -0.22121094 13.74015625 -0.56054688 14.5078125 C-1.37085066 16.33980368 -2.18504434 18.17007345 -3 20 C-3.66 18.68 -4.32 17.36 -5 16 C-5.66 16.33 -6.32 16.66 -7 17 C-5.49637741 13.21283842 -3.94512999 9.44754813 -2.375 5.6875 C-1.92898437 4.61886719 -1.48296875 3.55023438 -1.0234375 2.44921875 C-0.68570313 1.64097656 -0.34796875 0.83273438 0 0 Z " fill="#E1E1E1" transform="translate(202,204)"/>
<path d="M0 0 C0.78375 0.04125 1.5675 0.0825 2.375 0.125 C2.705 0.785 3.035 1.445 3.375 2.125 C2.405625 2.24875 1.43625 2.3725 0.4375 2.5 C-0.573125 2.70625 -1.58375 2.9125 -2.625 3.125 C-2.955 3.785 -3.285 4.445 -3.625 5.125 C0.83 4.63 0.83 4.63 5.375 4.125 C5.41754356 6.12454746 5.41580783 8.12541636 5.375 10.125 C4.375 11.125 4.375 11.125 0.9375 11.3125 C-2.625 11.125 -2.625 11.125 -4.625 9.125 C-4.875 5.625 -4.875 5.625 -4.625 2.125 C-2.625 0.125 -2.625 0.125 0 0 Z " fill="#656565" transform="translate(435.625,293.875)"/>
<path d="M0 0 C1.5 1.375 1.5 1.375 3 3 C3 3.66 3 4.32 3 5 C3.66 5.33 4.32 5.66 5 6 C4.13761719 6.25394531 3.27523437 6.50789062 2.38671875 6.76953125 C-2.24556351 8.45254037 -6.13289075 11.02555029 -10.29296875 13.63671875 C-11.63294922 14.31154297 -11.63294922 14.31154297 -13 15 C-13.99 14.67 -14.98 14.34 -16 14 C-15.34 14 -14.68 14 -14 14 C-14 13.34 -14 12.68 -14 12 C-5.38461538 4 -5.38461538 4 0 4 C0 2.68 0 1.36 0 0 Z " fill="#D0C13B" transform="translate(114,247)"/>
<path d="M0 0 C0.66 0 1.32 0 2 0 C1 3 1 3 -2.0625 4.6875 C-3.031875 5.120625 -4.00125 5.55375 -5 6 C-4.98839844 7.24136719 -4.97679688 8.48273438 -4.96484375 9.76171875 C-4.95546132 11.40364432 -4.9463616 13.04557153 -4.9375 14.6875 C-4.92912109 15.50412109 -4.92074219 16.32074219 -4.91210938 17.16210938 C-4.89557949 21.24499084 -4.96964902 25.01651707 -6 29 C-6.66 29 -7.32 29 -8 29 C-8 20.75 -8 12.5 -8 4 C-5.69 3.01 -3.38 2.02 -1 1 C-0.67 0.67 -0.34 0.34 0 0 Z " fill="#01010B" transform="translate(86,217)"/>
<path d="M0 0 C0.66 0.33 1.32 0.66 2 1 C2.02712066 2.43739513 2.04645067 3.87493863 2.0625 5.3125 C2.07410156 6.11300781 2.08570313 6.91351563 2.09765625 7.73828125 C2 10 2 10 1 13 C0.34 13 -0.32 13 -1 13 C-1.66 14.32 -2.32 15.64 -3 17 C-3.99 16.67 -4.98 16.34 -6 16 C-5.525625 15.01 -5.05125 14.02 -4.5625 13 C-3.32799702 10.1733343 -2.7364828 7.69234209 -2.4375 4.625 C-2.2209375 2.830625 -2.2209375 2.830625 -2 1 C-1.34 0.67 -0.68 0.34 0 0 Z " fill="#F3F3F3" transform="translate(447,223)"/>
<path d="M0 0 C2.14401709 0.89334045 4.21908628 1.8092146 6.25 2.9375 C6.25 3.2675 6.25 3.5975 6.25 3.9375 C3.875 4.0625 3.875 4.0625 1.25 3.9375 C0.59 3.2775 -0.07 2.6175 -0.75 1.9375 C-1.595625 2.515 -2.44125 3.0925 -3.3125 3.6875 C-15.6875 11.9375 -15.6875 11.9375 -20.75 11.9375 C-21.08 12.9275 -21.41 13.9175 -21.75 14.9375 C-21.75 13.6175 -21.75 12.2975 -21.75 10.9375 C-21.04875 10.56238281 -20.3475 10.18726563 -19.625 9.80078125 C-15.08221001 7.35039045 -10.64134939 4.90961759 -6.375 2 C-3.83657232 0.38369503 -3.08815929 -0.07018544 0 0 Z " fill="#221A04" transform="translate(98.75,209.0625)"/>
<path d="M0 0 C0.33 0 0.66 0 1 0 C1.33 10.23 1.66 20.46 2 31 C0.35 31.66 -1.3 32.32 -3 33 C-3.33 33.99 -3.66 34.98 -4 36 C-4.99 35.34 -5.98 34.68 -7 34 C-7.66 33.67 -8.32 33.34 -9 33 C-2.25 29 -2.25 29 0 29 C0 19.43 0 9.86 0 0 Z " fill="#110800" transform="translate(147,179)"/>
<path d="M0 0 C0 0.99 0 1.98 0 3 C-9.22551253 8.74031891 -9.22551253 8.74031891 -15 8 C-15.33 6.68 -15.66 5.36 -16 4 C-13.69 4.33 -11.38 4.66 -9 5 C-9 4.34 -9 3.68 -9 3 C-3.375 0 -3.375 0 0 0 Z " fill="#D3C238" transform="translate(133,213)"/>
<path d="M0 0 C0.66 0 1.32 0 2 0 C2 3.3 2 6.6 2 10 C3.65 9.67 5.3 9.34 7 9 C7.33 6.36 7.66 3.72 8 1 C8.66 1 9.32 1 10 1 C10 4.3 10 7.6 10 11 C3.9453125 11.9765625 3.9453125 11.9765625 2 12 C0 10 0 10 -0.1953125 7.6171875 C-0.17210937 6.71226562 -0.14890625 5.80734375 -0.125 4.875 C-0.10695313 3.96492188 -0.08890625 3.05484375 -0.0703125 2.1171875 C-0.04710937 1.41851562 -0.02390625 0.71984375 0 0 Z " fill="#6F6F6F" transform="translate(377,294)"/>
<path d="M0 0 C3.5 0.1875 3.5 0.1875 7 1 C9.56616632 4.84924948 9.55097676 7.4349304 10 12 C9.01 12.33 8.02 12.66 7 13 C6.77957031 12.06027344 6.77957031 12.06027344 6.5546875 11.1015625 C5.86616966 8.59282507 5.16286191 6.3299834 4 4 C0.97115156 2.31963489 0.97115156 2.31963489 -2 2 C-1.34 1.34 -0.68 0.68 0 0 Z " fill="#D6C63A" transform="translate(121,158)"/>
<path d="M0 0 C0 5.94 0 11.88 0 18 C-0.99 18 -1.98 18 -3 18 C-3 12.39 -3 6.78 -3 1 C-1 0 -1 0 0 0 Z " fill="#FEFEFE" transform="translate(315,224)"/>
<path d="M0 0 C2.97 0.495 2.97 0.495 6 1 C5.67 2.65 5.34 4.3 5 6 C3.35 6 1.7 6 0 6 C0 8.97 0 11.94 0 15 C-0.33 15 -0.66 15 -1 15 C-1 12.03 -1 9.06 -1 6 C-1.66 6 -2.32 6 -3 6 C-3 5.34 -3 4.68 -3 4 C-2.34 4 -1.68 4 -1 4 C-0.67 2.68 -0.34 1.36 0 0 Z " fill="#747474" transform="translate(137,290)"/>
<path d="M0 0 C0.33 0.99 0.66 1.98 1 3 C-2.52679099 5.35119399 -4.02879485 5.21443452 -8.1875 5.125 C-9.27417969 5.10695312 -10.36085938 5.08890625 -11.48046875 5.0703125 C-12.72763672 5.03550781 -12.72763672 5.03550781 -14 5 C-13.67 4.01 -13.34 3.02 -13 2 C-11.07421875 1.26953125 -11.07421875 1.26953125 -8.6875 0.8125 C-7.90761719 0.65394531 -7.12773437 0.49539062 -6.32421875 0.33203125 C-4 0 -4 0 0 0 Z " fill="#F1F1F1" transform="translate(398,238)"/>
<path d="M0 0 C6.93 0.495 6.93 0.495 14 1 C13.67 1.66 13.34 2.32 13 3 C12.34 3 11.68 3 11 3 C11 4.32 11 5.64 11 7 C7.98782888 6.35550393 5.48344164 5.34977818 2.75 3.9375 C2.04359375 3.57527344 1.3371875 3.21304687 0.609375 2.83984375 C0.07828125 2.56269531 -0.4528125 2.28554688 -1 2 C-0.67 1.34 -0.34 0.68 0 0 Z " fill="#BFB12D" transform="translate(89,256)"/>
<path d="M0 0 C3.69876091 1.37287342 6.9514476 3.06355453 10.3125 5.125 C11.19550781 5.66382813 12.07851562 6.20265625 12.98828125 6.7578125 C13.65214844 7.16773438 14.31601563 7.57765625 15 8 C14.01 8.66 13.02 9.32 12 10 C7.42906548 9.00631858 4.47908237 7.06977856 1 4 C1.33 3.67 1.66 3.34 2 3 C1.34 2.67 0.68 2.34 0 2 C0 1.34 0 0.68 0 0 Z " fill="#C1B434" transform="translate(77,247)"/>
<path d="M0 0 C0.66 0 1.32 0 2 0 C2 0.99 2 1.98 2 3 C3.32 3 4.64 3 6 3 C6 3.66 6 4.32 6 5 C4.68 5 3.36 5 2 5 C2 7.64 2 10.28 2 13 C3.32 12.67 4.64 12.34 6 12 C6 12.66 6 13.32 6 14 C4.33388095 14.042721 2.66617115 14.04063832 1 14 C0 13 0 13 -0.09765625 11.15234375 C-0.06510417 9.1015625 -0.03255208 7.05078125 0 5 C-0.66 5 -1.32 5 -2 5 C-2 4.34 -2 3.68 -2 3 C-1.34 3 -0.68 3 0 3 C0 2.01 0 1.02 0 0 Z " fill="#797979" transform="translate(160,291)"/>
<path d="M0 0 C2.125 0.375 2.125 0.375 4 1 C3.0409375 1.433125 3.0409375 1.433125 2.0625 1.875 C-0.15206079 2.82823451 -0.15206079 2.82823451 -1 5 C1.31 5 3.62 5 6 5 C6.33 4.01 6.66 3.02 7 2 C7.33 3.32 7.66 4.64 8 6 C5.03 6 2.06 6 -1 6 C-0.67 6.99 -0.34 7.98 0 9 C4.14093698 9.20970559 4.14093698 9.20970559 8 8 C7.67 8.99 7.34 9.98 7 11 C5.72125 11.061875 4.4425 11.12375 3.125 11.1875 C2.40570313 11.22230469 1.68640625 11.25710938 0.9453125 11.29296875 C0.30335938 11.19628906 -0.33859375 11.09960938 -1 11 C-3 8 -3 8 -2.75 4.9375 C-2 2 -2 2 0 0 Z " fill="#989898" transform="translate(273,294)"/>
<path d="M0 0 C5.70709064 0.46588495 9.15939723 1.93757784 14 5 C14 5.33 14 5.66 14 6 C13.28972656 5.91621094 12.57945313 5.83242187 11.84765625 5.74609375 C10.46900391 5.59333984 10.46900391 5.59333984 9.0625 5.4375 C8.14597656 5.33308594 7.22945312 5.22867188 6.28515625 5.12109375 C5.15400391 5.06115234 5.15400391 5.06115234 4 5 C3.67 5.33 3.34 5.66 3 6 C1.33382885 6.04063832 -0.33388095 6.042721 -2 6 C-1.34 5.34 -0.68 4.68 0 4 C0.99 4 1.98 4 3 4 C3 3.34 3 2.68 3 2 C2.01 2 1.02 2 0 2 C0 1.34 0 0.68 0 0 Z " fill="#07050F" transform="translate(74,170)"/>
<path d="M0 0 C0.99 0.33 1.98 0.66 3 1 C3 3.31 3 5.62 3 8 C2.01 7.01 1.02 6.02 0 5 C-0.66 6.98 -1.32 8.96 -2 11 C-2.99 10.67 -3.98 10.34 -5 10 C-5.73046875 7.93359375 -5.73046875 7.93359375 -6.1875 5.4375 C-6.34605469 4.61121094 -6.50460938 3.78492188 -6.66796875 2.93359375 C-6.83232422 1.97646484 -6.83232422 1.97646484 -7 1 C-5.04783565 2.95216435 -4.15173355 4.53199953 -3 7 C-2.01 4.69 -1.02 2.38 0 0 Z " fill="#8A8A8A" transform="translate(191,294)"/>
<path d="M0 0 C3.375 -0.125 3.375 -0.125 7 0 C7.66 0.66 8.32 1.32 9 2 C8.625 5.625 8.625 5.625 8 9 C7.67 9 7.34 9 7 9 C7 7.35 7 5.7 7 4 C6.34 4 5.68 4 5 4 C4.67 3.67 4.34 3.34 4 3 C3.67 3.99 3.34 4.98 3 6 C2.67 5.34 2.34 4.68 2 4 C1.01 3.67 0.02 3.34 -1 3 C-0.67 2.01 -0.34 1.02 0 0 Z " fill="#1C1803" transform="translate(118,161)"/>
<path d="M0 0 C3.17808687 2.00721276 3.52123506 3.92971026 4.375 7.5 C-0.13302601 6.24194623 -3.1162812 4.59592835 -6.625 1.5 C-4.09774972 -0.18483352 -3.03524863 -0.5781426 0 0 Z " fill="#1C1609" transform="translate(89.625,248.5)"/>
<path d="M0 0 C0 0.33 0 0.66 0 1 C-0.59167969 1.01417969 -1.18335938 1.02835938 -1.79296875 1.04296875 C-6.28332158 1.31400147 -8.40722177 1.49550789 -11.9375 4.5 C-12.618125 5.325 -13.29875 6.15 -14 7 C-14.99 7.495 -14.99 7.495 -16 8 C-16.66 7.67 -17.32 7.34 -18 7 C-18 5.02 -18 3.04 -18 1 C-17.01 2.485 -17.01 2.485 -16 4 C-15.21625 3.34 -14.4325 2.68 -13.625 2 C-9.38807768 -0.89251428 -4.93324584 -0.35098192 0 0 Z " fill="#C7C7C7" transform="translate(333,214)"/>
<path d="M0 0 C1.65 0.33 3.3 0.66 5 1 C5 3.31 5 5.62 5 8 C2.69 8 0.38 8 -2 8 C-1.67 7.05125 -1.34 6.1025 -1 5.125 C0.10159191 2.22937548 0.10159191 2.22937548 0 0 Z " fill="#2E2E2E" transform="translate(274,291)"/>
<path d="M0 0 C6.76923077 3.44615385 6.76923077 3.44615385 7.9375 6.25 C7.958125 6.8275 7.97875 7.405 8 8 C6.35 7.67 4.7 7.34 3 7 C3 6.34 3 5.68 3 5 C1.35 4.67 -0.3 4.34 -2 4 C-1.34 2.68 -0.68 1.36 0 0 Z " fill="#100A0A" transform="translate(84,255)"/>
<path d="M0 0 C3.91211733 1.15585285 6.8745041 2.35534962 10 5 C8.4375 6.25 8.4375 6.25 6 7 C3.42998985 5.93237266 1.3469597 4.53455057 -1 3 C-0.67 2.01 -0.34 1.02 0 0 Z " fill="#D6C535" transform="translate(87,172)"/>
<path d="M0 0 C0 1.98 0 3.96 0 6 C-1.65 5.01 -3.3 4.02 -5 3 C-5.33 3.99 -5.66 4.98 -6 6 C-6.33 4.02 -6.66 2.04 -7 0 C-4.3333581 -1.33332095 -2.83319697 -0.67102033 0 0 Z " fill="#1D180F" transform="translate(125,242)"/>
<path d="M0 0 C1.65 0 3.3 0 5 0 C6.125 3.75 6.125 3.75 5 6 C3.35 6 1.7 6 0 6 C0 4.02 0 2.04 0 0 Z " fill="#D0D0D0" transform="translate(259,204)"/>
<path d="M0 0 C0 0.66 0 1.32 0 2 C-1.5778125 2.2165625 -1.5778125 2.2165625 -3.1875 2.4375 C-6.15460549 2.87526966 -9.06794366 3.37804866 -12 4 C-11.67 3.34 -11.34 2.68 -11 2 C-10.34 2 -9.68 2 -9 2 C-9 1.01 -9 0.02 -9 -1 C-5.79937313 -2.60031344 -3.27728194 -1.03173691 0 0 Z " fill="#D7C730" transform="translate(79,167)"/>
<path d="M0 0 C0.66 0.33 1.32 0.66 2 1 C2.99 1 3.98 1 5 1 C4.67 2.32 4.34 3.64 4 5 C2.02 5.33 0.04 5.66 -2 6 C-2 5.34 -2 4.68 -2 4 C-3.98 4 -5.96 4 -8 4 C-8 3.67 -8 3.34 -8 3 C-7.236875 2.87625 -6.47375 2.7525 -5.6875 2.625 C-2.79732864 2.11897208 -2.79732864 2.11897208 0 0 Z " fill="#0B0B0B" transform="translate(392,233)"/>
<path d="M0 0 C1.2065625 0.0309375 1.2065625 0.0309375 2.4375 0.0625 C2.4375 1.7125 2.4375 3.3625 2.4375 5.0625 C0.7875 5.3925 -0.8625 5.7225 -2.5625 6.0625 C-2.94468767 4.40635343 -3.27645102 2.73792976 -3.5625 1.0625 C-2.5625 0.0625 -2.5625 0.0625 0 0 Z " fill="#D4D4D4" transform="translate(215.5625,203.9375)"/>
<path d="M0 0 C0.33 0 0.66 0 1 0 C1.33 7.92 1.66 15.84 2 24 C1.01 24 0.02 24 -1 24 C-0.67 16.08 -0.34 8.16 0 0 Z " fill="#E2D425" transform="translate(98,184)"/>
<path d="M0 0 C7.50769231 -0.36923077 7.50769231 -0.36923077 10 1.5 C10.495 2.2425 10.495 2.2425 11 3 C8.2780754 4.3609623 6.8168043 3.70366248 3.875 3.0625 C2.96492188 2.86785156 2.05484375 2.67320312 1.1171875 2.47265625 C0.41851562 2.31667969 -0.28015625 2.16070312 -1 2 C-0.67 1.34 -0.34 0.68 0 0 Z " fill="#FDFDFD" transform="translate(383,204)"/>
<path d="M0 0 C1.2684375 0.37125 1.2684375 0.37125 2.5625 0.75 C3.67625 0.935625 3.67625 0.935625 4.8125 1.125 C5.39 1.33125 5.9675 1.5375 6.5625 1.75 C6.8925 2.74 7.2225 3.73 7.5625 4.75 C6.345625 4.54375 5.12875 4.3375 3.875 4.125 C0.21443227 3.65036156 -2.11361512 3.98418616 -5.4375 5.75 C-5.4375 2.75 -5.4375 2.75 -4.25 1 C-2.4375 -0.25 -2.4375 -0.25 0 0 Z " fill="#211A05" transform="translate(120.4375,154.25)"/>
<path d="M0 0 C0 0.66 0 1.32 0 2 C0.99 2 1.98 2 3 2 C3 1.34 3 0.68 3 0 C3.66 0.33 4.32 0.66 5 1 C5.625 3.0625 5.625 3.0625 6 5 C4.88625 4.814375 3.7725 4.62875 2.625 4.4375 C-0.82568861 3.68319343 -0.82568861 3.68319343 -3 5 C-3.99 4.01 -4.98 3.02 -6 2 C-3 0 -3 0 0 0 Z " fill="#BDAD2F" transform="translate(97,206)"/>
<path d="M0 0 C0.66 0.33 1.32 0.66 2 1 C2 1.99 2 2.98 2 4 C1.29875 4.0825 0.5975 4.165 -0.125 4.25 C-3.65272947 5.17027725 -6.06111614 6.88126977 -9 9 C-9.99 8.34 -10.98 7.68 -12 7 C-11.21753906 6.57847656 -10.43507812 6.15695313 -9.62890625 5.72265625 C-8.61699219 5.17480469 -7.60507812 4.62695312 -6.5625 4.0625 C-5.55316406 3.51722656 -4.54382813 2.97195312 -3.50390625 2.41015625 C-1.13329507 1.22300532 -1.13329507 1.22300532 0 0 Z " fill="#2C2409" transform="translate(70,170)"/>
<path d="M0 0 C3.02419525 0.58803797 6.01758453 1.22678118 9 2 C9 2.66 9 3.32 9 4 C9.66 4.33 10.32 4.66 11 5 C3.5340751 5.36717663 3.5340751 5.36717663 1 3.625 C0 2 0 2 0 0 Z " fill="#040311" transform="translate(71,251)"/>
<path d="M0 0 C-0.99 1.485 -0.99 1.485 -2 3 C-2.66 3 -3.32 3 -4 3 C-4.33 3.99 -4.66 4.98 -5 6 C-5.99 5.34 -6.98 4.68 -8 4 C-8.66 3.67 -9.32 3.34 -10 3 C-3.375 -1.125 -3.375 -1.125 0 0 Z " fill="#1D1A0A" transform="translate(148,209)"/>
<path d="M0 0 C1.5 1.375 1.5 1.375 3 3 C3 3.66 3 4.32 3 5 C3.66 5.33 4.32 5.66 5 6 C-1.75 8.125 -1.75 8.125 -4 7 C-4 6.34 -4 5.68 -4 5 C-2.68 4.67 -1.36 4.34 0 4 C0 2.68 0 1.36 0 0 Z " fill="#E0CF3B" transform="translate(114,247)"/>
<path d="M0 0 C0.99 0.33 1.98 0.66 3 1 C2.67 3.31 2.34 5.62 2 8 C1.34 7.34 0.68 6.68 0 6 C-0.66 6.99 -1.32 7.98 -2 9 C-2 6.36 -2 3.72 -2 1 C-1.34 0.67 -0.68 0.34 0 0 Z " fill="#C3B238" transform="translate(115,242)"/>
<path d="M0 0 C0.99 0 1.98 0 3 0 C3 2.97 3 5.94 3 9 C2.01 9 1.02 9 0 9 C0 6.03 0 3.06 0 0 Z " fill="#0E0E0E" transform="translate(420,224)"/>
<path d="M0 0 C2.475 0.99 2.475 0.99 5 2 C5 2.66 5 3.32 5 4 C6.98 4.66 8.96 5.32 11 6 C7.69564916 7.12377697 5.9493138 6.89554742 2.75 5.5625 C2.04359375 5.27503906 1.3371875 4.98757812 0.609375 4.69140625 C0.07828125 4.46324219 -0.4528125 4.23507813 -1 4 C-0.67 2.68 -0.34 1.36 0 0 Z " fill="#1E1504" transform="translate(51,208)"/>
<path d="M0 0 C2.4375 0.6875 2.4375 0.6875 5 2 C5.8125 4.625 5.8125 4.625 6 7 C4.68 6.67 3.36 6.34 2 6 C2 5.34 2 4.68 2 4 C0.68 3.34 -0.64 2.68 -2 2 C-1.34 1.34 -0.68 0.68 0 0 Z " fill="#C2B238" transform="translate(54,206)"/>
<path d="M0 0 C2 3 2 3 3 5 C3.66 5 4.32 5 5 5 C5 6.65 5 8.3 5 10 C2.5625 9.1875 2.5625 9.1875 0 8 C-1.09658936 4.71023192 -0.79953138 3.28696233 0 0 Z " fill="#18130C" transform="translate(109,203)"/>
<path d="M0 0 C0.99 0 1.98 0 3 0 C3 0.66 3 1.32 3 2 C4.65 1.67 6.3 1.34 8 1 C5.11912454 3.40072955 2.43595166 5.47291037 -1 7 C-0.67 4.69 -0.34 2.38 0 0 Z " fill="#161102" transform="translate(64,164)"/>
<path d="M0 0 C0 0.99 0 1.98 0 3 C-2.64 3 -5.28 3 -8 3 C-7.67 2.01 -7.34 1.02 -7 0 C-4.3333581 -1.33332095 -2.83319697 -0.67102033 0 0 Z " fill="#181818" transform="translate(440,296)"/>
<path d="M0 0 C0.66 0.99 1.32 1.98 2 3 C-2.43076923 6.07692308 -2.43076923 6.07692308 -5.3125 5.6875 C-5.869375 5.460625 -6.42625 5.23375 -7 5 C-7 4.34 -7 3.68 -7 3 C-3.535 2.505 -3.535 2.505 0 2 C0 1.34 0 0.68 0 0 Z " fill="#111111" transform="translate(296,233)"/>
<path d="M0 0 C0.66 0 1.32 0 2 0 C2 3.3 2 6.6 2 10 C0.35 10 -1.3 10 -3 10 C-2.34 9.34 -1.68 8.68 -1 8 C-0.54188325 6.02764667 -0.54188325 6.02764667 -0.375 3.875 C-0.25125 2.59625 -0.1275 1.3175 0 0 Z " fill="#828282" transform="translate(385,295)"/>
<path d="M0 0 C-0.969375 0.45375 -1.93875 0.9075 -2.9375 1.375 C-6.07079582 2.65786221 -6.07079582 2.65786221 -7 5 C-8.9375 5.75 -8.9375 5.75 -11 6 C-11.66 5.34 -12.32 4.68 -13 4 C-11.59248779 3.13083113 -10.1735479 2.28014851 -8.75 1.4375 C-7.96109375 0.96183594 -7.1721875 0.48617187 -6.359375 -0.00390625 C-3.69155375 -1.13022151 -2.65498232 -1.0169313 0 0 Z " fill="#292007" transform="translate(117,255)"/>
<path d="M0 0 C0 0.99 0 1.98 0 3 C-2.31 3.33 -4.62 3.66 -7 4 C-7 3.01 -7 2.02 -7 1 C-4.53721199 -0.231394 -2.7204945 -0.07159196 0 0 Z " fill="#110E0B" transform="translate(135,208)"/>
<path d="M0 0 C2.97 0 5.94 0 9 0 C5.80009492 2.74277578 2.99500618 4.6302836 -1 6 C-0.67 4.02 -0.34 2.04 0 0 Z " fill="#150D02" transform="translate(82,208)"/>
<path d="M0 0 C0.53625 0.226875 1.0725 0.45375 1.625 0.6875 C0.635 1.0175 -0.355 1.3475 -1.375 1.6875 C-0.715 2.3475 -0.055 3.0075 0.625 3.6875 C-3.83 4.1825 -3.83 4.1825 -8.375 4.6875 C-8.375 4.0275 -8.375 3.3675 -8.375 2.6875 C-2.95961538 -0.38942308 -2.95961538 -0.38942308 0 0 Z " fill="#C3B53C" transform="translate(122.375,157.3125)"/>
<path d="M0 0 C0.99 0.66 1.98 1.32 3 2 C2.01 2.99 1.02 3.98 0 5 C-1.98 4.34 -3.96 3.68 -6 3 C-6 2.34 -6 1.68 -6 1 C-4 0 -4 0 0 0 Z " fill="#111111" transform="translate(412,295)"/>
<path d="M0 0 C0.763125 0.20625 1.52625 0.4125 2.3125 0.625 C0.33829865 3.14759061 -0.65495642 3.6179808 -3.875 4.3125 C-5.2671875 4.4671875 -5.2671875 4.4671875 -6.6875 4.625 C-5.39900677 0.7595203 -4.17039106 -0.58191503 0 0 Z " fill="#D4C43E" transform="translate(91.6875,209.375)"/>
<path d="M0 0 C0.33 0.99 0.66 1.98 1 3 C0.030625 3.45375 -0.93875 3.9075 -1.9375 4.375 C-5.07079582 5.65786221 -5.07079582 5.65786221 -6 8 C-6.66 8 -7.32 8 -8 8 C-7.34 6.68 -6.68 5.36 -6 4 C-5.34 4 -4.68 4 -4 4 C-3.67 3.01 -3.34 2.02 -3 1 C-2.01 0.67 -1.02 0.34 0 0 Z " fill="#050211" transform="translate(59,168)"/>
<path d="M0 0 C5.52628901 1.19194469 8.17819158 2.5991297 12 7 C4.61538462 5.64615385 4.61538462 5.64615385 1.5 2.375 C1.005 1.59125 0.51 0.8075 0 0 Z " fill="#070214" transform="translate(84,166)"/>
<path d="M0 0 C0.33 0.99 0.66 1.98 1 3 C-2.22791555 5.1519437 -3.28400809 5.20086443 -7 5 C-6.67 4.01 -6.34 3.02 -6 2 C-2.9375 0.8125 -2.9375 0.8125 0 0 Z " fill="#D3BD30" transform="translate(126,251)"/>
<path d="M0 0 C1.5 1.0625 1.5 1.0625 3 3 C3.1875 6.6875 3.1875 6.6875 3 10 C1 9 1 9 0.33203125 7.1875 C0.16058594 6.465625 -0.01085937 5.74375 -0.1875 5 C-0.36667969 4.278125 -0.54585937 3.55625 -0.73046875 2.8125 C-0.86388672 1.9153125 -0.86388672 1.9153125 -1 1 C-0.67 0.67 -0.34 0.34 0 0 Z " fill="#151515" transform="translate(178,211)"/>
<path d="M0 0 C3.35595828 0.59927826 5.37801226 1.84622436 8 4 C5.125 4.625 5.125 4.625 2 5 C1.34 4.34 0.68 3.68 0 3 C0 2.01 0 1.02 0 0 Z " fill="#1F190D" transform="translate(112,171)"/>
<path d="M0 0 C0 0.99 0 1.98 0 3 C-2.31 3 -4.62 3 -7 3 C-7 2.01 -7 1.02 -7 0 C-3.86650268 -1.04449911 -3.01031744 -0.93423645 0 0 Z " fill="#242424" transform="translate(411,301)"/>
<path d="M0 0 C2.97 0 5.94 0 9 0 C6.37801226 2.15377564 4.35595828 3.40072174 1 4 C0.67 2.68 0.34 1.36 0 0 Z " fill="#161616" transform="translate(272,300)"/>
<path d="M0 0 C-0.33 1.32 -0.66 2.64 -1 4 C-2.65 4 -4.3 4 -6 4 C-6 3.01 -6 2.02 -6 1 C-4 0 -4 0 0 0 Z " fill="#0C0C0C" transform="translate(224,300)"/>
<path d="M0 0 C0.33 1.32 0.66 2.64 1 4 C0.21625 3.649375 -0.5675 3.29875 -1.375 2.9375 C-2.24125 2.628125 -3.1075 2.31875 -4 2 C-4.99 2.495 -4.99 2.495 -6 3 C-6.33 2.01 -6.66 1.02 -7 0 C-4.3333581 -1.33332095 -2.83319697 -0.67102033 0 0 Z " fill="#111110" transform="translate(86,299)"/>
<path d="M0 0 C-0.99 1.485 -0.99 1.485 -2 3 C-2.66 3 -3.32 3 -4 3 C-4 2.34 -4 1.68 -4 1 C-5.32 1.33 -6.64 1.66 -8 2 C-8.33 1.01 -8.66 0.02 -9 -1 C-5.79937313 -2.60031344 -3.27728194 -1.03173691 0 0 Z " fill="#04020F" transform="translate(71,163)"/>
<path d="M0 0 C0.6875 1.625 0.6875 1.625 1 4 C-0.4375 7.25 -0.4375 7.25 -2 10 C-2.66 10 -3.32 10 -4 10 C-4 9.01 -4 8.02 -4 7 C-3.34 7 -2.68 7 -2 7 C-1.855625 6.030625 -1.71125 5.06125 -1.5625 4.0625 C-1 1 -1 1 0 0 Z " fill="#8B8B8B" transform="translate(198,295)"/>
<path d="M0 0 C0.33 0 0.66 0 1 0 C1 2.97 1 5.94 1 9 C1.99 9.33 2.98 9.66 4 10 C2.68 10.33 1.36 10.66 0 11 C-1.05404945 7.01803543 -0.84098656 4.01804691 0 0 Z " fill="#D6C640" transform="translate(76,240)"/>
<path d="M0 0 C-3.26545761 1.88391785 -6.28111761 2.49287967 -10 3 C-9.67 2.01 -9.34 1.02 -9 0 C-5.8033 -1.37001429 -3.30096158 -0.8252404 0 0 Z " fill="#D3BF29" transform="translate(124,240)"/>
<path d="M0 0 C0.99 0 1.98 0 3 0 C2.8125 2.375 2.8125 2.375 2 5 C-0.5625 6.3125 -0.5625 6.3125 -3 7 C-1.125 2.25 -1.125 2.25 0 0 Z " fill="#161616" transform="translate(197,227)"/>
<path d="M0 0 C0.99 0.33 1.98 0.66 3 1 C-1 5 -1 5 -3.5625 5.0625 C-4.7690625 5.0315625 -4.7690625 5.0315625 -6 5 C-2.25 1.125 -2.25 1.125 0 0 Z " fill="#212121" transform="translate(380,208)"/>
<path d="M0 0 C2.1519437 3.22791555 2.20086443 4.28400809 2 8 C0.68 8.33 -0.64 8.66 -2 9 C-3 6 -3 6 -2 3 C-1.34 3 -0.68 3 0 3 C0 2.01 0 1.02 0 0 Z " fill="#151515" transform="translate(218,206)"/>
<path d="M0 0 C-0.33 1.32 -0.66 2.64 -1 4 C-2.98 4.33 -4.96 4.66 -7 5 C-7 4.01 -7 3.02 -7 2 C-4.35261084 0.5393715 -3.10551666 0 0 0 Z " fill="#CBBE37" transform="translate(57,176)"/>
<path d="M0 0 C3.3 1.65 6.6 3.3 10 5 C10 5.33 10 5.66 10 6 C7.69 5.67 5.38 5.34 3 5 C3 4.34 3 3.68 3 3 C2.01 2.67 1.02 2.34 0 2 C0 1.34 0 0.68 0 0 Z " fill="#1C1106" transform="translate(78,170)"/>
<path d="M0 0 C0.33 0 0.66 0 1 0 C0.67 2.97 0.34 5.94 0 9 C-1.32 9.33 -2.64 9.66 -4 10 C-3.34 9.01 -2.68 8.02 -2 7 C-1.29187186 4.67891331 -0.61975848 2.34622853 0 0 Z " fill="#04040F" transform="translate(133,246)"/>
<path d="M0 0 C-0.66 1.65 -1.32 3.3 -2 5 C-2.99 5 -3.98 5 -5 5 C-5.99 5.495 -5.99 5.495 -7 6 C-7.66 5.34 -8.32 4.68 -9 4 C-2.25 0 -2.25 0 0 0 Z " fill="#211803" transform="translate(138,213)"/>
<path d="M0 0 C2.95662966 0.22743305 4.55033688 0.61235938 6.8125 2.5625 C7.204375 3.036875 7.59625 3.51125 8 4 C5.525 3.01 5.525 3.01 3 2 C3 2.66 3 3.32 3 4 C0.525 3.01 0.525 3.01 -2 2 C-1.34 1.34 -0.68 0.68 0 0 Z " fill="#1B1B0D" transform="translate(64,209)"/>
<path d="M0 0 C1.98 0 3.96 0 6 0 C6 1.32 6 2.64 6 4 C4.02 3.34 2.04 2.68 0 2 C0 1.34 0 0.68 0 0 Z " fill="#211A06" transform="translate(134,170)"/>
<path d="M0 0 C1.65 0 3.3 0 5 0 C5.33 0.99 5.66 1.98 6 3 C3.69 3 1.38 3 -1 3 C-0.67 2.01 -0.34 1.02 0 0 Z " fill="#050505" transform="translate(273,296)"/>
<path d="M0 0 C0 0.66 0 1.32 0 2 C-0.99 2 -1.98 2 -3 2 C-3.33 2.99 -3.66 3.98 -4 5 C-5.65 4.67 -7.3 4.34 -9 4 C-8.1028125 3.566875 -8.1028125 3.566875 -7.1875 3.125 C-1.11111111 0 -1.11111111 0 0 0 Z " fill="#3D3105" transform="translate(129,218)"/>
<path d="M0 0 C-1.28524261 0.86380259 -2.57842419 1.71580369 -3.875 2.5625 C-4.59429687 3.03816406 -5.31359375 3.51382813 -6.0546875 4.00390625 C-6.69664063 4.33261719 -7.33859375 4.66132813 -8 5 C-8.66 4.67 -9.32 4.34 -10 4 C-7.06485676 -0.40271486 -5.03472644 -1.47460607 0 0 Z " fill="#1E1602" transform="translate(62,172)"/>
<path d="M0 0 C0.33 0 0.66 0 1 0 C1.33 2.64 1.66 5.28 2 8 C1.01 8.33 0.02 8.66 -1 9 C-1.09765625 2.84765625 -1.09765625 2.84765625 -1 1 C-0.67 0.67 -0.34 0.34 0 0 Z " fill="#DACB2F" transform="translate(129,162)"/>
<path d="M0 0 C0.99 0 1.98 0 3 0 C3 1.98 3 3.96 3 6 C2.01 6 1.02 6 0 6 C0 4.02 0 2.04 0 0 Z " fill="#111111" transform="translate(355,297)"/>
<path d="M0 0 C4.75 0.75 4.75 0.75 7 3 C2.25 4.125 2.25 4.125 0 3 C0 2.01 0 1.02 0 0 Z " fill="#D4C539" transform="translate(85,253)"/>
<path d="M0 0 C2.475 0.99 2.475 0.99 5 2 C4.01 3.485 4.01 3.485 3 5 C1.68 4.34 0.36 3.68 -1 3 C-0.67 2.01 -0.34 1.02 0 0 Z " fill="#141414" transform="translate(225,229)"/>
<path d="M0 0 C0.66 0 1.32 0 2 0 C1 3 1 3 -0.84765625 3.94921875 C-1.57855469 4.19285156 -2.30945313 4.43648437 -3.0625 4.6875 C-4.16271484 5.06455078 -4.16271484 5.06455078 -5.28515625 5.44921875 C-5.85105469 5.63097656 -6.41695313 5.81273437 -7 6 C-7 5.34 -7 4.68 -7 4 C-6.030625 3.525625 -5.06125 3.05125 -4.0625 2.5625 C-1.19522563 1.29806053 -1.19522563 1.29806053 0 0 Z " fill="#030314" transform="translate(86,217)"/>
<path d="M0 0 C2.625 0.375 2.625 0.375 5 1 C4.01 2.485 4.01 2.485 3 4 C0.525 3.01 0.525 3.01 -2 2 C-1.34 1.34 -0.68 0.68 0 0 Z " fill="#C9B937" transform="translate(92,175)"/>
<path d="M0 0 C0.33 0.66 0.66 1.32 1 2 C0.01 2.495 0.01 2.495 -1 3 C-0.67 3.66 -0.34 4.32 0 5 C-1.65 5.33 -3.3 5.66 -5 6 C-5 5.01 -5 4.02 -5 3 C-2.5 1.3125 -2.5 1.3125 0 0 Z " fill="#C9B829" transform="translate(69,167)"/>
<path d="M0 0 C2.375 0.1875 2.375 0.1875 5 1 C6.3125 3.5625 6.3125 3.5625 7 6 C6.01 6.495 6.01 6.495 5 7 C4.34 6.34 3.68 5.68 3 5 C3.66 5 4.32 5 5 5 C4.67 4.34 4.34 3.68 4 3 C1.97536745 2.34786708 1.97536745 2.34786708 0 2 C0 1.34 0 0.68 0 0 Z " fill="#A59721" transform="translate(74,164)"/>
</svg>
