<svg xmlns="http://www.w3.org/2000/svg" width="4500" height="4500" xmlns:v="https://vecta.io/nano"><path d="M0 0h4500v4500H0V0z" fill="#fff"/><g fill="#0ab6d2"><path d="M1551.085 1279.22c2.881 1.173 4.573 3.12 6.727 5.342l2.664 2.742c2.701 2.885 5.31 5.83 7.879 8.832 2.159 2.446 4.476 4.707 6.804 6.991 1.766 1.796 3.415 3.645 5.056 5.556 4.486 5.161 9.2 10.096 13.912 15.049 14.9 15.73 14.9 15.73 15.248 27.268-.263 8.379-2.477 13.833-8.207 19.965-3.796 3.564-7.987 6.546-12.201 9.593l-11.905 9.004-5.496 4.191-2.796 2.133-15.891 12.109-13.165 10.039-25.902 19.59-21.312 16.321-16.26 12.381-16.49 12.485-20.937 15.813-18.875 14.438c-6.846 5.363-13.805 10.551-20.826 15.683-6.274 4.601-12.426 9.345-18.551 14.143l-16.604 12.652-14.145 10.709-2.104 1.611-4.374 3.351-12.897 9.85-2.677 2.041-18.613 14.004-1.801 1.342-1.531 1.135c-1.673 1.303-3.303 2.644-4.93 4.004L1298 1602l1.69.01 41.324.277 19.986.134 73.75 1.504 2.242.118c68.066 3.707 138.109 24.971 185.008 76.956 3.868 4.514 7.448 9.237 11 14l1.289 1.694c35.881 47.262 48.685 109.285 52.711 167.306l.25 3.395c.981 14.474.932 28.964.95 43.465l.012 6.639.027 20.873.051 23.918.033 18.631.025 11.069.009 12.336.028 3.626c-.063 12.815-2.079 25.292-11.154 34.927-6.488 5.866-12.139 6.414-20.648 6.381l-3.229.012-10.784.003-7.782.016-16.959.016c-8.407-.001-16.814.01-25.222.022l-50.314.039h-2.634l-2.639.001-28.958.016-87.518.039h-2.829l-11.35.001-8.542.001h-2.851l-88.537.061-99.518.065h-10.634-2.645l-41.983.042-42.293.012a6169.1 6169.1 0 0 0-25.063.023 2863.6 2863.6 0 0 1-16.821-.004 1105.16 1105.16 0 0 0-9.533.01c-51.082.274-105.385-15.742-144.895-49.042-1.948-1.514-3.809-2.582-6.051-3.594l-1 3.563c-4.041 12.009-10.996 22.717-19 32.438l-2.301 2.801c-26.765 30.971-65.911 40.786-105.199 43.887-74.342 3.638-161.054-8.356-226.5-45.687l-1-1c-7.909.051-15.386 1.886-22.937 4.063l-3.293.94c-10.226 2.998-20.02 6.715-29.769 10.998l-2.412 1.038c-17.584 7.627-32.944 17.478-46.588 30.962l-2.602 2.383c-19.752 18.529-31.24 46.009-32.555 72.811-1.356 47.294 5.76 94.639 13.21 141.204l.589 3.685 1.113 6.884.498 3.083.439 2.691C428 2316 428 2316 428 2319h131c1.199 3.598 2.267 6.827 3.064 10.469l.565 2.56.601 2.769.655 2.98 2.163 9.898 1.562 7.125 3.37 15.402 4.909 22.438 8.1 37.013 13.804 63.067 2.034 9.289 1.009 4.606 6.39 29.193 3.257 14.881 2.15 9.828 1.592 7.275 1.518 6.943 3.977 17.843.847 3.746 1.617 7.075.723 3.199.642 2.803c.451 2.589.535 4.976.452 7.597h2l.365-2.965c.616-4.288 1.678-8.41 2.799-12.59l.669-2.533 2.222-8.357 1.589-5.996 4.325-16.275 3.648-13.736 33.621-126.016 11.702-43.79 4.867-18.238 3.835-14.384 3.529-13.227 1.286-4.827 1.747-6.547.985-3.693C704 2321 704 2321 705 2319h118l34.563 136.188.508 2.038 2.033 8.148 5.498 22.03.491 1.966 19.381 76.878 1.898 7.456.894 3.509L899 2620c1.357-3.221 2.4-6.315 3.14-9.729l.616-2.811.657-3.063.714-3.275 2.357-10.888 1.697-7.804 3.653-16.834 5.796-26.695 1.49-6.852 1.004-4.617 3.583-16.487 20.267-92.876.497-2.269.495-2.259 3.893-17.799 3.707-16.942 2.128-9.73 2.333-10.654.647-2.966L966 2319h104l-6.675 29.156-.724 2.97-2.343 9.589-1.684 6.906-3.582 14.676-9.047 37.094-1.452 5.954-17.742 73.155-4.664 19.313-1.334 5.523-15.932 65.792-6.769 27.915-.752 3.101-16.064 66.288-2.948 12.17-13.357 55.417-.891 3.731-3.856 16.224-1.269 5.33-.558 2.383c-1.243 5.199-1.243 5.199-2.356 6.312-1.391.095-2.788.122-4.182.12l-2.732.004-3.021-.011h-3.163l-10.405-.016-7.193-.004-18.973-.025-19.344-.02L849 2788l-33.204-124.601-2.771-10.415-19.354-72.859-2.646-9.986-6.666-25.17L762 2462l-24.125 90.125-.765 2.905-3.119 11.842-1.593 6.05-1.614 6.129-27.825 105.222-9.912 37.465-5.465 20.668-3.65 13.812-3.354 12.686-1.219 4.618-1.654 6.252-.931 3.522C676 2786 676 2786 675 2788H566l-12-50-8.137-33.677-28.872-120.382-16.104-67.462-5.242-21.944-15.502-64.705-1.883-7.82-.603-2.506-1.169-4.859-3.301-13.661-1.5-6.216-1.786-7.375-.771-3.215-.668-2.762C468 2379 468 2379 468 2375l-13.715-.012c-1.553.008-3.106.002-4.658-.019-8.949-.411-8.949-.411-16.967 2.738-1.744 2.027-1.744 2.027-2.944 4.188-4.314 5.29-11.833 6.979-18.217 8.59l-2.458.632c-9.556 2.375-19.241 4.024-28.952 5.624l-9.344 1.572-6.059 1.016-2.763.467c-6.29 1.03-12.571 1.704-18.925 2.205-2.171-4.783-3.739-9.358-4.98-14.484l-.526-2.167-1.681-7.098-.592-2.518c-10.624-45.416-17.35-91.662-23.095-137.92l-.296-2.344a535.63 535.63 0 0 1-4.145-67.631l-.046-10.408c-.056-19.609 1.221-39.304 6.111-58.367l.776-3.111c6.98-26.979 20.73-52.529 38.474-73.951l1.458-1.766c16.586-19.967 36.039-36.253 58.542-49.234l1.735-1.037c20.114-11.942 43.426-19.401 66.265-23.963l-1.73-2.598-1.111-1.668-3.272-4.855C455.498 1907.64 446.758 1871.565 443 1837l-.286-2.436c-1.119-11.02-.958-22.125-.964-33.189l-.002-3.322c.016-16.223.432-32.039 3.252-48.053l.472-2.888c6.252-37.516 21.431-75.484 45.528-105.112l2.094-2.668c8.382-10.524 17.448-20.828 27.906-29.332l3.445-2.918C568.924 1569.735 626.492 1549.519 684 1545l3.166-.259c66.521-4.981 132.074 8.064 196.459 23.509l3.24.777 9.237 2.239 2.71.656c7.467 1.835 14.778 3.961 22.188 6.078l1 338 4 2 4.313 3.125c47.304 33.209 107.194 32.179 162.351 32.192l18.072.028 36.897.052 36.471.045 2.301.004 11.569.019 81.696.113 79.31.104 2.474.004 24.603.037 50.108.075 2.327.003L1592 1954l-.236-29.007-.111-13.48c-.166-26.584-1.046-52.862-5.966-79.075l-.641-3.472c-7.678-39.959-27.573-75.925-61.719-99.101-44.084-28.997-96.539-35.994-148.22-36.022l-5.83-.015-12.455-.026-19.723-.053-56.05-.149-31.032-.088-16.382-.039-15.395-.044-5.626-.006c-25.208.039-25.208.039-34.363-7.047l-2.484-1.852c-7.632-6.964-12.968-14.651-18.078-23.586l-2.026-3.481-4.333-7.458-11.37-19.238-3.75-6.311-1.187-2-2.193-3.694c-1.503-2.531-3.002-5.004-4.696-7.414-1.132-2.341-1.132-2.341-.538-4.469 1.492-1.987 2.927-3.334 4.906-4.833l2.161-1.657 2.339-1.757 4.918-3.758 2.552-1.938 11.842-9.179 18.301-14.141 19.056-14.795 13.568-10.555 11.438-8.9 22.938-17.75 19.056-14.795 13.568-10.555 11.438-8.9 22.938-17.75 19.056-14.795 13.568-10.555 11.438-8.9 22.938-17.75 19.056-14.795 13.568-10.555 11.438-8.9 22.938-17.75 19.056-14.795 13.568-10.555 11.438-8.9 22.938-17.75 9.789-7.582 4.563-3.542 12.046-9.529 2.468-1.976 4.683-3.803 2.142-1.706 1.875-1.523c1.821-.949 1.821-.949 3.906-.729z"/><path d="M2228 2317h155c3.092 6.802 6.096 13.53 8.833 20.465l1.067 2.683 3.484 8.789 2.514 6.33 5.395 13.592 13.866 34.897 1.515 3.81 31.499 78.638 45.656 114.14 47.774 119.346 22.115 55.279 1.364 3.461 1.196 3.053 1.02 2.603c.7 1.914.7 1.914.7 2.914h-112l-26.75-68.937-3.834-9.992-2.324-6.061-1.056-2.751-.904-2.357L2419 2684l-66.081-.259-30.683-.118-26.747-.093-14.159-.058-13.336-.037-4.886-.03c-11.013-.343-11.013-.343-20.743 4.186-1.975 2.041-3.017 3.883-3.962 6.56l-1.126 3.056-1.124 3.31-1.27 3.518-2.634 7.445-3.856 10.901L2220 2746l-15 41h-109c1.929-6.43 3.884-12.58 6.355-18.781l.929-2.364 2.903-7.355 2.935-7.44 1.82-4.601c1.524-3.619 1.524-3.619 2.058-7.459l-3.173 1.215-55.594 21.024-10.811 4.037-22.515 8.116-8.654 2.986c-1.922.657-3.863 1.256-5.805 1.852-6.845 2.434-10.068 4.749-13.222 11.384a198.53 198.53 0 0 0-2.377 6.158c-1.527 4.006-3.336 7.889-5.092 11.799l-2.264 5.156-21.119 47.149-1.044 2.264-5.216 11.289-10.927 23.697-1.079 2.345-13.608 30.155c-7.887 17.802-16.268 34.887-26.004 51.763l-3.835 6.854c-6.35 11.591-13.464 22.677-20.66 33.758l-1.248 1.924c-24.826 38.146-58.003 84.205-104.752 95.451-22.89 3.455-50.078-2.084-69-15.375-7.388-5.677-12.537-11.838-17-20l-1.211-2.172c-13.059-26.118-4.567-59.25 3.953-85.309 12.846-37.825 33.304-73.267 59.563-103.367 3.708-4.266 7.183-8.725 10.695-13.152l-27.186 12.183-4.988 2.235-7.889 3.582-2.3 1.019-2.11.981-1.789.813c-5.945 4.062-8.08 11.113-10.746 17.484l-1.449 3.407-3.072 7.26-4.861 11.467-.822 1.932-1.645 3.864-2.47 5.809-13.923 32.152-1.079 2.452L1667 3004l-1.194 2.698-52.709 116.924-4.541 9.848-5.806 12.591-1.153 2.499-11.058 23.852-17.289 37.961-1.01 2.277-8.308 18.762c-12.584 28.436-25.267 56.698-40.434 83.876l-4.572 8.452c-7.624 14.292-15.719 28.261-24.058 42.144l-5.059 8.493c-20.121 33.901-41.874 67.276-65.809 98.621l-2.32 3.063c-22.54 29.641-47.093 59.068-76.68 81.938l-1.779 1.377c-43.548 33.556-83.831 50.381-139.249 43.232-37.723-5.398-75.015-19.142-98.816-50.483-24.373-33.325-27.399-75.699-21.656-115.439 13.514-84.562 54.644-164.527 153.894-291.938l3.354-3.743c7.14-8.112 14.796-15.702 22.445-23.33l7.102-7.108 4.584-4.58 2.109-2.115c3.941-3.922 7.977-7.669 12.206-11.281 1.848-1.629 3.582-3.333 5.306-5.092 2.967-3.014 6.073-5.799 9.277-8.559 2.552-2.229 5.042-4.521 7.535-6.816 4.539-4.144 9.222-8.051 14.004-11.91 2.631-2.171 5.163-4.417 7.684-6.715 5.175-4.705 10.561-9.105 16-13.5l3.656-3c8.926-7.319 18.007-14.404 27.207-21.375l6.355-4.875c10.111-7.797 20.378-15.348 30.781-22.75l2.209-1.578c31.218-22.263 63.49-43.167 96.332-62.941l6.385-3.86c35.448-21.448 71.82-41.261 108.637-60.246l2.251-1.163C1656.468 2846 1656.468 2846 1660 2846l1.109-3.633c1.989-5.954 4.613-11.592 7.24-17.286l4.717-10.362.99-2.186c12.483-27.618 23.607-55.71 34.444-84.009l7.594-19.742 11.337-29.487 6.871-17.836c11.093-28.69 21.843-57.514 30.386-87.083l.955-3.3c1.944-6.965 3.309-13.921 4.357-21.075-11.097 4.569-19.718 13.749-28.411 21.803-5.482 5.063-11.157 9.895-16.849 14.719l-5.06 4.329c-6.765 5.8-13.68 11.359-20.798 16.722l-6.093 4.685c-10.109 7.769-20.499 15.045-31.102 22.117l-1.876 1.255c-11.964 7.988-24.197 15.51-36.811 22.432l-2.281 1.253-4.567 2.5-5.96 3.349c-9.656 5.432-19.652 9.438-30.191 12.836l-3.406 1.102c-16.728 4.43-36.314 3.599-52.594-2.102l-3.246-1.098c-16.096-6.049-27.609-17.491-35.129-32.68-8.412-18.651-9.579-41.999-8.625-62.223l.125-2.658c3.133-61.143 24.515-120.634 50.875-175.342l1.208-2.516c13.51-28.012 13.51-28.012 22.792-38.484l1.707-1.953c7.376-7.925 16.415-10.966 27.105-11.359 11.619.324 21.998 4.112 30.289 12.418 4.251 5.111 6.873 10.588 8.898 16.895l.582 1.797c.639 3.368.685 6.725.73 10.141l.088 2.072c.133 11.25-4.854 21.624-9.775 31.49l-1.579 3.233L1605 2437c-14.762 30.047-29.137 60.289-40 92l-.928 2.695c-4.804 14.121-9.356 28.527-9.51 43.555l-.031 2.094c.08 4.576 1.028 7.793 3.468 11.656 3.833 2.453 6.49 3.394 11 2.688 13.796-3.925 25.321-13.294 36.534-21.823l9.904-7.33 21.003-15.784 13.871-10.625 2.751-2.097 16.124-12.153 21.566-16.566 10.871-8.371c6.964-5.346 13.762-10.888 20.555-16.449l4.789-3.895c10.878-8.83 21.466-17.945 31.703-27.512 2.617-2.445 5.288-4.824 7.965-7.203 5.46-4.906 10.689-10.018 15.877-15.208l4.652-4.613c9.106-9.052 17.212-18.488 23.896-29.496l3.086-4.969 1.479-2.391c11.184-17.958 23.464-37.05 43.622-45.578 11.076-1.846 20.96-1.358 30.328 5.172 2.652 2.412 4.007 4.507 5.609 7.703l1.48 2.844c22.3 61.21-26.997 148.929-48.668 205.656l-.734 1.921-15.784 41.071-6.739 17.488-41.988 106.169-9.644 24.084-.957 2.395-4.459 11.173L1753 2801c6.077-1.925 11.929-4.146 17.766-6.703l5.076-2.198 2.668-1.159c19.944-8.659 40.003-16.995 60.206-25.031l6.748-2.692c21.504-8.577 43.164-16.719 64.875-24.753l16.198-6.063 8.983-3.374 2.205-.828c8.687-3.25 17.371-6.249 26.287-8.821 16.752-4.691 16.752-4.691 28.555-16.797 3.111-6.015 5.144-12.404 7.061-18.88 2.009-6.775 4.436-13.335 7.006-19.917l1.25-3.206 2.536-6.496 6.136-16.201 1.172-3.133 2.237-5.982 2.858-7.597c10.398-23.964 10.398-23.964 15.179-49.171-5.011 3.737-9.776 7.64-14.375 11.875-25.183 23.105-62.063 54.973-97.875 56.563-11.744-.611-22.39-4.593-30.625-13.125-11.537-14.204-9.391-37.435-7.841-54.428.821-6.393 2.152-12.636 3.716-18.885l.715-2.867c5.225-20.322 13.06-39.607 21.972-58.57l1.294-2.778c3.86-8.009 8.483-17.582 16.585-22.004 6.079-1.952 12.886-1.988 18.938.07 5.967 3.329 9.373 8.779 11.496 15.148 1.373 12.068-4.414 22.179-9.657 32.681-19.632 35.173-19.632 35.173-24.343 73.319 1.247 1.836 1.247 1.836 3 3 10.268.21 19.273-8.52 26.938-14.5l5.531-4.262 2.793-2.15 12.676-9.401a663.65 663.65 0 0 0 21.393-16.365l5.15-4.025c27.447-20.867 27.447-20.867 50.332-46.297l2.012-2.828 5.995-8.942c12.255-18.588 12.255-18.588 23.18-22.23 5.47-.421 9.178.361 14 3 5.123 4.707 5.745 10.454 6.223 17.098.405 15.331-3.336 29.482-8.223 43.902l-.92 2.717c-5.59 16.435-11.537 32.706-17.767 48.908l-2.72 7.099L2035 2691l68.313-27.5 3.453-1.405 9.973-4.064 3.182-1.297 14.8-6.168 2.673-1.141 4.896-2.116c5.383-2.31 5.383-2.31 8.711-2.31l.531-1.86c1.735-5.947 3.742-11.702 6.031-17.456l1.04-2.645 2.228-5.646 6.079-15.439 1.275-3.24 13.252-34.025 2.376-6.133 4.782-12.346 12.092-31.208 1.202-3.101 17.076-43.869 16.847-43.343L2256 2373h-28v-56zm1763.813-760.312l3.949.008c19.921.059 39.494.488 59.239 3.305l2.349.331c35.805 5.089 71.275 12.135 106.213 21.481l2.623.699 7.381 2.008 2.147.58c3.955 1.107 7.742 2.442 11.55 3.983l2.697 1.089 2.039.829.127 141.884.001 2.128.025 45.801.012 22.467.001 2.258.063 72.205.053 74.322.003 10.545v2.096l.035 33.138.02 33.474.017 18.072c.125 48.638-1.789 97.359-14.358 144.611l-.722 2.718c-7.858 28.955-20.302 57.595-40.278 80.282l-2.398 2.801c-5.685 6.483-11.757 11.969-18.602 17.199l-2.578 2.02c-10.656 8.088-22.487 14.013-34.422 19.98l-1 469h-96l-1-279c-4.439 8.878-8.743 17.688-12.75 26.75l-3.41 7.652-.914 2.052-12.113 26.858-17.876 39.622-18.249 40.253-18.043 39.9-11.457 25.537-1.149 2.556-18.737 41.177-.947 2.061-2.491 5.413L3855 2787h-56l-5.312-11.875-18.091-40.124-16.659-36.936-18.249-40.253-18.043-39.9-11.457-25.537-1.155-2.569-16.407-36.118-14.625-32.25-1.548-3.445-1.389-3.122-1.215-2.721c-.85-2.15-.85-2.15-.85-4.15h-2v280h-96v-414h-40v-56h139l16.75 32.438 2.678 5.372 5.489 11.034 18.021 35.532c4.212 7.915 8.248 15.915 12.25 23.938l.959 1.922 7.843 15.754 6.823 13.698.961 1.926L3758 2481.5c4.192 7.873 8.206 15.831 12.188 23.813l.959 1.923 7.843 15.754 6.823 13.698.958 1.92 12.587 24.48c4.891 9.22 9.556 18.555 14.223 27.89l4.731 9.424 3.008 6.01 1.429 2.837 1.298 2.604 1.147 2.289C3826 2616 3826 2616 3826 2618h2l.695-2.376c1.703-4.73 3.919-9.119 6.18-13.604l1.467-2.932 3.087-6.15 4.615-9.209 13.77-26.842c4.25-8.004 8.33-16.09 12.375-24.199l.958-1.921L3878 2517l7.813-15.687.961-1.926 12.392-24.074 11.023-21.625.959-1.923L3918 2438l7.813-15.687.959-1.922 12.523-24.346c5.199-9.805 10.131-19.746 15.087-29.676l5.133-10.26 3.271-6.547 1.546-3.087 1.419-2.847 1.248-2.498c1.102-2.236 1.102-2.236 2.002-5.131l-1.916.063c-43.044 1.197-117.828 2.794-152.084-27.063-4.45-4.607-7.521-9.481-8-16 .191-9.385 1.674-18.237 3.906-27.328l.863-3.625 2.731-11.297 1.84-7.707 1.754-7.309.837-3.481.779-3.199.684-2.819C3821 2224 3821 2224 3822 2222c6.475.532 12.711 1.431 19.047 2.855l5.19 1.128 2.721.596c99.625 21.714 99.625 21.714 194.585-5.208 4.946-3.288 9.248-7.195 13.457-11.371l2.688-2.562L4062 2205l1.57-1.586c16.221-17.24 23.86-42.734 27.617-65.539l.469-2.828c3.298-21.547 3.614-43.021 3.48-64.758l-.04-11.307L4095 2037l-3.575 1.22c-16.527 5.603-16.527 5.603-24.738 7.405l-2.687.601c-25.089 5.355-50.239 7.011-75.813 7.024l-3.508.002c-18.755-.017-37.081-.717-55.679-3.252l-1.978-.264c-50.786-6.799-100.788-21.153-140.022-55.736l-2.945-2.578c-35.652-31.672-56.919-74.453-65.305-120.984l-.458-2.495c-2.967-17.628-3.622-35.397-3.553-53.238l-.013-9.804c-.012-17.402 1.073-34.606 4.023-51.775l.513-2.995c6.587-36.887 21.097-72.805 44.737-102.13l2.238-2.816c7.322-9.092 14.803-17.682 23.762-25.184l2.758-2.453c36.877-32.581 84.546-48.686 132.43-56.297l3.772-.603c20.935-3.161 41.693-4.025 62.853-3.96zM2820 1288l2.306.236c82.105 8.47 82.105 8.47 98.694 16.764-2.329 55.506-2.329 55.506-10.383 63.309-8.934 5.774-21.679 2.189-31.58.84l-12.971-1.711-2.736-.358c-99.728-16.05-99.728-16.05-193.58 9.733a151.63 151.63 0 0 0-3.75 3.188l-2.02 1.668c-12.207 10.947-16.945 28.958-17.887 44.844L2646 1429l-.156 2.332c-.583 14.637 3.377 29.015 12.781 40.355 16.919 17.685 41.13 26.133 64.426 31.527l3.895.904c18.996 4.352 38.187 7.797 57.336 11.391 117.935 22.143 117.935 22.143 144.804 59.965 16.614 24.489 21.353 55.45 21.914 84.525l.062 2.509c1.143 51.96-7.518 105.265-44.375 144.241-31.31 29.924-79.215 39.427-121.148 39.39l-3.298.009-10.837.012-7.815.015-21.17.024-13.266.012-36.856.026h-2.377l-2.383.001-4.779.001-2.394.001-38.282.045-39.472.037-22.093.025-18.839.012c-3.19-.004-6.379-.002-9.568.011-60.907.227-125.491-12.167-170.629-55.938l-4.164-3.96c-11.736-11.297-20.206-24.467-28.316-38.473l-1.133-1.945c-42.408-73.582-31.079-167.853-8.796-254.465 10.404-38.539 10.404-38.539 14.93-47.59 6.215.651 12.133 1.866 18.195 3.363l2.882.707 5.995 1.485 9.15 2.232 5.848 1.451 2.747.657c6.313 1.601 11.998 3.819 16.183 9.105 2.718 9.001.142 17.731-2 26.563l-1.93 8.32-.509 2.209c-15.067 65.779-32.484 145.66 5.439 206.908 21.445 32.094 51.649 53.576 89.676 61.184 11.687 2.185 23.474 3.832 35.324 4.816l2.903.252c11.867.916 23.712.896 35.609.893l7.032.01 18.979.012 13.879.007 37.364.011h2.136 2.138l34.325.023 35.36.02 19.806.013 18.623.002 6.808.007c28.927.072 54.819-4.203 76.732-24.783 20.699-21.522 25.033-50.469 24.63-79.162-.412-20.303-5.967-39.062-20.083-54.217-4.021-3.748-8.435-6.457-13.242-9.09l-3.23-1.777c-11.088-5.624-22.703-8.445-34.77-11.223l-3.897-.91c-28.661-6.654-57.632-11.514-86.679-16.142-16.182-2.583-31.786-6.019-47.423-10.949l-2.713-.852c-34.325-10.957-69.014-31.138-86.579-63.952-9.421-18.543-12.993-38.523-13.708-59.196l-.125-3.457c-.683-38.737 7.663-77.721 34.698-106.565 7.031-7.253 14.768-12.829 23.427-17.978l1.771-1.073c55.067-32.917 133.472-31.248 195.229-24.927zM1145 2319h156l19.924 48.811 3.628 9.139 5.27 13.271 14.315 36.009.743 1.868 31.65 78.996 40.97 102.343 1.114 2.802 10.118 25.466 26.181 65.834 8.529 21.438 5.319 13.367 2.449 6.158 3.407 8.562 1.083 2.72 5.857 14.432 1.269 3.077 2.43 5.854 1.09 2.635.969 2.327C1488 2786 1488 2786 1488 2788h-112l-19-50-11.851-30.434-3.563-9.116-1.063-2.694-.967-2.483-.842-2.147C1338 2689 1338 2689 1337 2684l-176 1c-3.214 7.713-6.315 15.367-9.152 23.211l-1.143 3.138-2.405 6.616-3.766 10.352-5.091 13.977-9.659 26.416-1.81 4.942-2.482 6.765-.73 2.003c-1.648 4.465-1.648 4.465-2.763 5.579-1.404.095-2.813.122-4.22.12l-2.758.004-3.049-.011h-3.193l-10.503-.016-7.26-.004-19.151-.025-19.525-.02L1014 2788c.539-3.672 1.217-6.979 2.604-10.421l.998-2.505 1.09-2.683 1.141-2.855 2.447-6.097 6.533-16.352 1.337-3.357 11.913-30.854 16.75-43.437 4.555-11.609 1.151-2.935 12.919-33.205 1.192-3.077 5.979-15.437 10.705-27.614 5.936-15.309 2.375-6.125 1.188-3.062 4.75-12.25 2.375-6.126 5.93-15.294 10.771-27.785 6.048-15.607 1.196-3.086 17.475-44.866L1173 2375h-28v-56zm1434-2l143 1v195h2l.77-1.766c1.364-2.476 2.873-4.04 4.918-5.984 3.365-3.21 6.402-6.618 9.446-10.127 2.999-3.41 6.122-6.7 9.242-9.998l14.254-15.504 9.37-10.121 11.5-12.5c3.773-4.224 7.628-8.366 11.5-12.5l13.738-14.988 12.709-13.834 7.615-8.24 1.507-1.632 11.286-12.286 11.664-12.664 9.98-10.855 11.5-12.5 14.039-15.258 1.361-1.434c1.728-1.902 1.728-1.902 3.591-4.487 6.099-7.707 6.099-7.707 11.124-9.323 3.605-.348 7.067-.361 10.688-.247l4.083-.005 10.994.138 11.523.088 21.78.235 24.813.239L3040 2318c-1.922 4.202-4.805 7.041-8.074 10.234l-1.824 1.809-5.789 5.707-7.574 7.484-1.845 1.828c-3.525 3.513-6.869 7.109-10.087 10.907-4.853 5.457-10.212 10.483-15.408 15.612-7.155 7.014-7.155 7.014-13.897 14.418-5.308 6.221-11.287 11.841-17.103 17.582-7.155 7.014-7.155 7.014-13.897 14.418-5.308 6.221-11.287 11.841-17.103 17.582-7.155 7.014-7.155 7.014-13.897 14.418-5.308 6.221-11.287 11.841-17.103 17.582-5.435 5.371-10.798 10.737-15.761 16.555-3.027 3.447-6.311 6.642-9.574 9.863l-2.072 2.059L2864 2501c1.343 3.632 2.972 6.752 5.063 10.008l1.888 2.949 2.049 3.168 2.131 3.314 17.413 26.368c4.658 6.952 9.243 13.931 13.628 21.059 3.933 6.368 8.037 12.624 12.14 18.884l1.116 1.702 5.506 8.394 8.816 13.528 1.577 2.429 3.112 4.793L2946.5 2630l3.25 5 1.625 2.5 17.875 27.5 1.625 2.501 3.245 4.993 8.2 12.612 16.521 25.468 15.502 23.878 9.764 15.021 8.424 12.949 1.76 2.703 3.309 5.078 4.4 6.797 1.484 2.283 1.391 2.17 1.242 1.927c.883 1.62.883 1.62.883 3.62l-50.826.674-23.601.307-20.577.242-10.89.151c-22.045.554-22.045.554-27.062-2.606-3.34-3.378-4.673-7.25-6.044-11.768-1.078-2.033-1.078-2.033-2.199-3.678l-1.703-2.916-1.981-3.386-2.054-3.52-2.208-3.776-4.571-7.819-6.674-11.393-1.081-1.842-2.147-3.659-18.081-30.925-20.128-34.38-11.732-20.012-3.18-5.424-1.061-1.809-8.646-14.743-8.478-14.469-6.175-10.511-4.84-8.238-1.774-3.003-1.628-2.778-1.418-2.408c-1.28-2.381-2.287-4.783-3.242-7.311l-1.247 1.206c-4.165 3.844-8.537 7.028-13.337 10.027-8.75 5.532-16.913 11.69-24.854 18.33l-2.195 1.834c-19.962 17.048-29.866 35.43-32.013 61.363-1.237 17.02-1.155 34.068-.729 51.116l.061 2.492.52 17.272.076 2.197c.548 15.083 1.696 30.098 2.718 45.164h-102v-414h-41v-56zm-743-1038l27.932-.311 12.973-.142 12.546-.117 4.76-.065c12.892-.255 23.345 2.431 33.034 11.513 7.313 8.844 8.909 18.212 8.884 29.271l.006 2.777.002 9.244.009 6.682.01 18.388.014 17.788.027 34.169.052 54.277.025 20.893.003 2.345.06 55.264.002 2.442.048 56.376.002 2.447.013 19.523.083 80.589.016 11.395.003 2.265.023 36.011.037 36.24.013 19.614.023 17.987-.002 6.477c-.077 29.843 5.208 57.913 24.401 81.658l1.789 2.32c18.714 22.855 51.232 31.691 79.286 35.048l9.214.757 3.496.251c13.847.907 27.701.936 41.572.941l11.796.033 20.335.047 29.399.068 47.723.113 46.3.104 2.893.007 14.372.037L2388 1954v95l-130.703.153-15.476.012-3.112.002-49.699.064-51.102.051-31.462.041-21.656.017a2866.74 2866.74 0 0 0-12.442.017c-25.651.096-51.126-.932-76.348-6.108l-3.876-.778c-29.931-6.235-60.303-17.907-84.124-37.472l-1.702-1.383c-42.493-34.681-59.388-85.909-66.485-138.68l-.469-3.41c-3.877-30.794-3.627-61.718-3.575-92.694l.005-17.735.016-36.197.022-35.769v-2.258l.002-11.355.037-80.144.041-77.793.001-2.428.008-24.141.017-49.166.001-2.283L1836 1279zm1246 1039h143l.184 60.152.123 37.803.066 19.873.008 2.515.124 40.051.132 41.193.078 25.358.057 17.458.031 10.028c-2.142 55.521-2.142 55.521 21.243 103.74 19.243 18.011 45.042 23.577 70.66 23.016 21.75-.793 43.182-5.462 59.293-21.187 17.228-20.2 17.653-44.609 18.542-69.966l.129-3.677c.434-13.26.504-26.515.534-39.78l.03-8.14.056-17.326.08-25.049.131-40.667.125-39.44.008-2.467.041-12.255L3397 2318h102l.102 102.369.008 12.17.002 2.447.043 38.881.034 40.091.023 22.436c.314 161.604.314 161.604-42.086 205.857-38.308 36.749-90.373 44.993-141.375 44.938l-3.092-.002c-54.101-.087-106.995-8.212-147.283-47.311-48.883-49.312-42.733-127.599-42.578-191.657l.016-18.453.043-34.75.043-39.644.1-81.372h-41v-56z"/></g><path d="M1609 2954l1 2-2.84 6.438-.948 1.997-3.149 6.565-2.197 4.61-4.583 9.602-6.419 13.588-1.005 2.144-1.992 4.251-19.648 41.152-8.531 17.777-31.162 63.805-9.838 20.195c-8.835 18.613-17.995 37.109-27.684 55.293l-8.191 15.739-1.144 2.236-2.35 4.59-19.334 36.581-9.456 17.562a1364.79 1364.79 0 0 1-19.811 35.866l-5.487 9.677c-25.288 44.673-52.424 89.195-88.23 126.332l-1.95 2.032c-22.714 23.559-49.398 42.472-81.05 51.968l-3.203 1.023c-16.271 4.547-33.277 3.38-48.047-4.773-14.813-9.56-21.525-24.352-25.395-41.027-12.499-64.112 18.929-128.898 52.645-181.223l2.098-3.262L1237 3268l1.535-2.229c7.221-10.47 14.521-20.832 22.465-30.771l1.495-1.873c10.214-12.759 20.71-25.241 31.837-37.213 1.952-2.132 3.843-4.281 5.722-6.475 4.375-5.005 9.051-9.687 13.755-14.381l2.805-2.808 5.847-5.842 7.426-7.429 7.172-7.171 2.659-2.665c4.39-4.374 8.834-8.616 13.545-12.644 2.935-2.533 5.731-5.215 8.551-7.875 5.021-4.703 10.171-9.147 15.543-13.449 2.803-2.306 5.475-4.717 8.145-7.176 4.808-4.415 9.774-8.567 14.854-12.663l7.764-6.396 23.012-18.485 6.072-4.756c10.022-7.859 20.181-15.507 30.475-23.005l6.677-4.901c12.278-9.003 24.92-17.436 37.645-25.793l2.339-1.539L1529 3001l2.588-1.649c25.076-15.935 50.809-32.05 77.412-45.351zM768 1638l2.496.472c43.469 8.494 43.469 8.494 50.504 15.528.099 1.433.129 2.871.131 4.308l.012 2.835-.003 3.151.009 3.32.012 11.107.015 7.927.024 21.616.012 13.51.026 37.429v2.422l.001 2.428.001 4.871.001 2.441.045 39.046.037 40.121.025 22.512.012 19.197.011 9.776c.083 22.84-.382 45.931-16.371 63.982-13.531 13.555-34.724 20.096-53.492 20.203l-2.468.021-7.915.026-2.73.002c-14.33-.017-28.271-.652-42.395-3.252l-2.832-.504c-39.143-7.159-73.03-23.436-102.168-50.496l-1.832-1.668c-21.557-20.446-35.226-50.216-41.418-78.895l-.458-2.103c-2.848-14.153-3.672-28.312-3.605-42.71l.006-2.488c.145-39.088 6.54-80.918 30.307-113.137l1.895-2.57c23.207-30.155 58.145-44.9 95.105-50.43l2.737-.444c30.206-4.763 64.178-5.485 94.263.444z" fill="#fff"/><path d="M3415.289 1586.707l4.665.013 12.182.074 12.469.06L3469 1587l.102 104.537.008 12.382.002 2.49.043 39.746.034 40.877.028 25.16.011 17.326.011 9.95c.111 39.736-3.008 79.517-21.238 115.532l-.94 1.863c-11.526 22.382-29.015 41.408-50.06 55.137l-1.938 1.271c-40.972 26.425-93.099 35.961-141.229 35.849l-4.142.003c-3.756.002-7.512-.002-11.268-.007l-12.194-.002c-7.03.001-14.059-.003-21.089-.008l-30.49-.012-49.477-.018-48.042-.021-2.995-.001-14.875-.004L2936 2049v-95l27.434-.06 87.142-.22 13.562-.037 2.727-.007 43.571-.103 44.79-.115 27.583-.064 18.977-.052 10.909-.025c45.854-.026 92.843-3.643 127.458-37.32 23.99-24.526 28.161-58.04 28.119-90.745l.016-6.785.018-14.526.041-22.985.068-32.231.003-2.06.03-22.769.009-8.271.002-2.062.071-34.085.028-22.835.033-14.207.001-6.572.023-8.993-.019-2.604c.101-10.061 2.876-18.235 9.654-25.767 11.598-10.543 21.626-11.958 37.039-11.793z" fill="#0ab6d2"/><path d="M3987.563 1644.75l2.647-.003c74.399.057 74.399.057 102.791 14.253v283c-14.661 7.331-26.907 12.199-42.562 15.188l-2.407.47c-18.267 3.23-36.903 3.724-55.406 3.655l-3.099-.006c-15.363-.046-30.382-.493-45.526-3.307l-2.896-.52c-26.714-4.926-53.134-13.589-74.104-31.48l-3-2.512c-11.931-10.277-20.779-22.569-28-36.488l-1.836-3.477c-10.743-21.126-14.397-45.053-15.164-68.523l-.125-3.668c-.681-41.066 7.115-84.784 35.125-116.332l2.355-2.66c26.147-27.637 64.556-41.976 101.645-46.34l2.342-.286c9.052-.969 18.127-.957 27.22-.964zM1945 2803c-2.186 7.14-5.09 13.636-8.418 20.313l-1.604 3.255-5.165 10.432-3.574 7.24-.894 1.812-1.781 3.611-2.658 5.382-12.479 25.653c-12.082 25.134-24.863 49.934-38.426 74.302l-3.422 6.188c-15.777 28.442-32.05 56.145-54.578 79.813l-2.391 2.621c-9.357 9.93-20.887 17.463-33.609 22.379l-2.289.926c-8.243 3.073-17.384 4.494-25.711 1.074-7.693-3.62-12.675-9.237-15.812-17.125-8.526-24.079.789-52.329 11-74.312 11.976-25.013 28.854-48.318 47.891-68.43 2.149-2.275 4.211-4.61 6.254-6.98 3.852-4.426 7.946-8.578 12.105-12.715l2.158-2.17c4.07-4.063 8.238-7.948 12.594-11.702 2.423-2.095 4.771-4.267 7.123-6.441 4.881-4.447 9.911-8.649 15.05-12.792l7.65-6.341 8.887-7.255c1.892-1.564 3.724-3.173 5.553-4.81 12.165-10.462 27.376-15.525 42.15-21.224l12.756-5.034 14.516-5.754 2.867-1.126c2.257-.79 2.257-.79 4.257-.79z" fill="#fff"/><path d="M2832.688 1944.75c9.841 9.303 16.406 19.762 21.313 32.25l1.32 3.27c6.733 20.223 4.389 44.787-4.445 63.918-10.744 20.197-28.038 36.018-50.113 42.809-23.259 6.054-48.014 4.173-69.055-7.883-19.193-12.382-33.575-30.669-38.677-53.19-4.208-22.308-1.083-45.849 11.006-65.177 14.176-19.733 33.013-32.811 57.188-37.145 26.717-3.695 51.136 3.554 71.465 21.148zm-215.075-2.695c15.106 12.827 26.057 31.064 28.387 50.945 2.004 27.69-3.345 50.621-21.672 71.945-14.249 15.131-35.13 24.563-55.859 25.258-25.41.4-47.289-6.735-65.871-24.414-10.79-11.585-18.268-25.244-21.598-40.789l-.555-2.578c-3.082-23.685.483-46.703 14.805-66.172 1.22-1.443 2.473-2.857 3.75-4.25l2.613-2.891c30.802-32.971 81.192-34.422 116-7.055z" fill="#0ab6d2"/><path d="M2329 2444c2.13 3.196 3.385 6.396 4.703 9.969l.818 2.188 2.729 7.344 1.975 5.297 4.372 11.742 9.027 24.23 1.386 3.715.698 1.871 4.212 11.302 14.491 38.722 1.286 3.417 6.022 15.96 2.118 5.623.981 2.582c2.183 5.811 2.183 5.811 2.183 8.039h-111c3.375-12.375 3.375-12.375 5.074-17.055l1.16-3.215 1.238-3.39 2.003-5.535 2.853-7.849 3.708-10.226 4.54-12.526 12.988-36.016L2329 2444zm-1083 3h2l19.488 52.043 1.145 3.075 5.852 15.729 12.648 33.769 2.221 5.889.732 1.943 1.453 3.855 3.573 9.454 3.963 10.493 1.209 3.174 1.09 2.904.957 2.528C1303 2594 1303 2594 1303 2597h-111l20.625-58 2.271-6.296 3.523-9.768 8.527-23.693 3.634-10.111 2.304-6.414L1246 2447z" fill="#fff"/></svg>