<svg xmlns="http://www.w3.org/2000/svg" width="24" height="24" fill="none" xmlns:v="https://vecta.io/nano"><path d="M21.75 6.686a12.31 12.31 0 0 0-.098-1.258c-.073-.365-.194-.72-.361-1.053a3.57 3.57 0 0 0-.692-.975c-.287-.281-.616-.514-.975-.692a4.17 4.17 0 0 0-1.053-.351c-.413-.062-.83-.098-1.248-.107H6.686c-.421.011-.84.043-1.258.098-.365.073-.72.194-1.053.361a3.57 3.57 0 0 0-.975.692 3.81 3.81 0 0 0-.692.975c-.163.334-.281.688-.351 1.053-.062.413-.098.83-.107 1.248v.527 9.594.517c.011.421.043.84.098 1.258.073.366.194.72.361 1.053a3.57 3.57 0 0 0 .692.975c.287.281.616.514.975.692a4.17 4.17 0 0 0 1.053.351c.413.062.83.098 1.248.107h10.637a12.31 12.31 0 0 0 1.258-.098c.366-.073.72-.194 1.053-.361a3.57 3.57 0 0 0 .975-.692c.281-.287.514-.616.692-.975a4.17 4.17 0 0 0 .351-1.053c.062-.413.098-.83.107-1.248v-.526-9.594-.517zm-9.526 12.139a6.94 6.94 0 0 1-3.344-.877l-3.705.975.975-3.627a6.93 6.93 0 0 1-.975-3.491 7 7 0 0 1 4.324-6.449 7 7 0 0 1 7.616 1.508 7 7 0 0 1 1.54 7.61 7 7 0 0 1-6.431 4.351zm0-12.802a5.85 5.85 0 0 0-5.052 3.018 5.85 5.85 0 0 0 .128 5.884l.136.224-.585 2.135 2.223-.605.215.127a5.85 5.85 0 0 0 2.925.809 5.85 5.85 0 0 0 5.85-5.85 5.85 5.85 0 0 0-5.85-5.85l.01.107zm3.412 8.307c-.128.213-.299.397-.502.54s-.434.241-.678.289a2.27 2.27 0 0 1-1.092-.068 8.7 8.7 0 0 1-.975-.37 7.8 7.8 0 0 1-2.984-2.633c-.408-.519-.655-1.146-.712-1.804a1.95 1.95 0 0 1 .614-1.463c.059-.067.131-.12.211-.157s.168-.057.257-.058h.273c.107 0 .253 0 .39.302l.546 1.297a.33.33 0 0 1 0 .302 1.11 1.11 0 0 1-.176.293l-.263.312c-.078.078-.175.175-.078.351.265.448.594.855.975 1.209a4.87 4.87 0 0 0 1.404.868c.175.088.283.078.38 0s.439-.507.556-.682.234-.146.39-.088 1.024.478 1.199.566.283.127.332.205a1.52 1.52 0 0 1-.068.761v.029z" fill="#2d9cdb"/></svg>