<?xml version="1.0" standalone="no"?>
<!DOCTYPE svg PUBLIC "-//W3C//DTD SVG 20010904//EN"
 "http://www.w3.org/TR/2001/REC-SVG-20010904/DTD/svg10.dtd">
<svg version="1.0" xmlns="http://www.w3.org/2000/svg"
 width="512.000000pt" height="512.000000pt" viewBox="0 0 512.000000 512.000000"
 preserveAspectRatio="xMidYMid meet">
<rect width="100%" height="100%" fill="white"/>
<g transform="translate(0.000000,512.000000) scale(0.100000,-0.100000)"
fill="black" stroke="none">
<path d="M0 2560 l0 -2560 2560 0 2560 0 0 2560 0 2560 -2560 0 -2560 0 0
-2560z m2665 1862 l51 -157 172 -3 c95 -1 172 -6 171 -10 0 -4 -61 -50 -135
-102 -122 -86 -134 -97 -129 -120 3 -14 23 -79 44 -145 21 -66 42 -131 46
-145 l8 -24 -34 25 c-19 14 -82 61 -142 104 l-107 77 -73 -53 c-107 -78 -194
-139 -200 -139 -3 0 6 35 20 78 77 242 77 242 57 257 -11 8 -72 52 -136 97
-64 46 -117 86 -117 91 -1 4 77 7 172 7 l172 0 48 149 c26 81 47 153 47 159 0
40 21 -8 65 -146z m-819 -1013 c168 -51 286 -151 364 -307 82 -166 84 -376 5
-533 -67 -132 -198 -229 -565 -414 -181 -91 -265 -146 -286 -187 -25 -48 -15
-229 18 -319 121 -331 457 -473 752 -316 81 43 199 156 230 220 32 66 43 175
50 512 4 138 9 314 12 393 l6 142 134 0 134 0 0 -302 c0 -579 26 -730 148
-861 90 -95 175 -138 311 -157 246 -33 438 69 545 292 68 140 94 305 62 382
-21 50 -76 89 -261 183 -421 214 -552 317 -616 481 -30 77 -33 295 -5 386 33
112 77 187 151 261 231 231 589 218 839 -31 78 -78 121 -146 140 -219 19 -79
34 -282 42 -587 l7 -248 231 -116 c372 -188 441 -229 513 -307 54 -59 76 -102
68 -135 -3 -14 -29 -74 -57 -133 -35 -75 -56 -109 -68 -109 -24 0 -55 37 -83
100 -31 68 -71 110 -156 165 -72 47 -440 239 -446 234 -2 -2 -13 -61 -25 -131
-39 -232 -97 -361 -225 -497 -207 -221 -528 -296 -830 -195 -142 47 -329 164
-361 226 -22 43 -52 36 -131 -28 -131 -108 -219 -159 -353 -203 -228 -77 -464
-58 -647 50 -70 42 -195 164 -246 241 -87 131 -124 229 -157 408 -13 69 -24
126 -25 128 -4 5 -341 -165 -417 -210 -101 -60 -154 -111 -187 -181 -17 -35
-41 -73 -55 -86 l-25 -23 -39 79 c-68 135 -93 203 -81 224 15 29 154 145 254
211 50 33 194 112 321 175 l232 114 5 317 c5 343 16 430 71 571 66 167 195
285 375 342 83 26 239 25 327 -2z"/>
<path d="M1577 3145 c-80 -30 -161 -108 -199 -191 -21 -46 -23 -65 -26 -299
-1 -137 1 -269 5 -292 l8 -42 85 37 c436 195 584 321 567 485 -14 136 -98 253
-210 295 -67 26 -171 28 -230 7z"/>
<path d="M3313 3140 c-133 -53 -234 -224 -204 -347 35 -142 160 -244 486 -398
144 -68 160 -73 169 -57 17 27 14 525 -3 590 -18 70 -99 160 -179 198 -78 37
-194 43 -269 14z"/>
</g>
</svg>