<svg xmlns="http://www.w3.org/2000/svg" width="1024" height="1024" xmlns:v="https://vecta.io/nano"><path d="M0 0h1024v1024H0V0z" fill="#1a1a1a"/><path d="M491 531l3 2 1-6h20v88h-20v-7l-1.906 1.023-2.594 1.352-2.531 1.336c-6.406 2.782-12.439 3.657-19.344 3.602l-2.254-.017c-12.233-.269-22.628-5.29-31.711-13.471-8.332-9.156-12.236-18.989-12.098-31.199l.023-2.819c.257-10.667 3.517-17.761 10.415-25.806l1.379-1.77c14.403-16.659 37.764-17.301 56.621-9.23z" fill="#fbfbfb"/><path d="M312 533v-6h20v88h-19l-1-7-2.414 1.277-3.211 1.66-3.164 1.652c-8.864 3.893-21.418 3.899-30.738 1.504C258.51 608.487 248.141 599.84 242 586c-3.835-11.216-3.341-23.32 1.449-34.129 6.493-12.021 16.642-20.545 29.676-24.684 14.102-3.461 26.388-.894 38.875 5.813z" fill="#fcfcfc"/><path d="M896.938 523.563l2.803-.061c6.853.005 12.109 1.539 18.26 4.498l2.848 1.352C932.149 535.85 938.423 544.937 943 557c1 4 1 4 1 19l-77 1c4.317 10.792 7.136 15.557 17 21 8.434 3.333 16.948 3.168 25.375-.125 3.666-1.662 6.169-3.237 8.875-6.187 3.007-2.962 5.803-3.038 9.938-3.098 3.28.052 6.538.199 9.812.411-1.434 4.623-4.061 7.602-7.437 10.938l-1.61 1.597c-10.1 9.677-21.053 12.891-34.749 12.829-12.166-.264-22.524-5.242-31.496-13.465-9.996-10.615-13.334-22.186-13.02-36.406.587-11.729 6.954-21.906 15.336-29.863 9.642-7.946 19.561-11.161 31.914-11.066z" fill="#e66b40"/><path d="M145 494c3.999-.263 7.995-.422 12-.562l3.41-.229c8.247-.217 8.247-.217 12.005 2.604 2.059 2.297 3.836 4.647 5.585 7.187l2.73 3.379 2.457 3.184c4.766 6.141 9.644 12.185 14.573 18.196l1.587 1.941 1.406 1.714c1.157 1.473 2.207 3.029 3.246 4.587 3.073-1.332 4.769-2.621 6.742-5.316l1.522-2.042 1.611-2.204c5.285-7.086 10.766-13.96 16.455-20.727l1.674-2.004 1.615-1.894c1.609-1.972 1.609-1.972 2.956-5.278 3.041-3.178 4.199-2.965 8.504-3.121l7.172.211 3.703.082L265 494c-1.751 3.008-3.533 5.814-5.75 8.496l-1.577 1.92-1.673 2.021-3.523 4.301-1.776 2.17-7.325 9.216-1.35 1.724-2.683 3.433L232.5 536l-1.194 1.582c-2.268 2.967-4.458 5.559-7.207 8.114-7.805 7.485-9.121 14.724-9.391 25.359-.051 4.6-.013 9.193.074 13.793l.037 10.219L215 615h-21l.115-5.162.168-17.087.126-10.337c.867-19.303.867-19.303-7.646-35.883a109.14 109.14 0 0 0-5.121-4.958c-2.71-2.597-4.894-5.577-7.141-8.573l-12-15-12.812-15.875-1.437-1.785C145 496.231 145 496.231 145 494z" fill="#fafafa"/><path d="M430 493h172v14h-38v107h-16V507H430v-14z" fill="#dc3156"/><path d="M188 410c1.182 2.206 2.009 4.154 2.813 6.5l.751 2.101C205.491 458.726 205.491 458.726 204 471c-1.531 2.02-1.531 2.02-3.5 3.813l-1.969 1.832L197 478c-2.432-2.432-2.775-4.133-3.699-7.434l-.967-3.382-1.021-3.622C188.028 452.163 184.307 441.05 180 430c-3.594.544-6.754 1.337-10 3-1.632 2.317-2.589 4.626-3.68 7.238-4.157 8.695-11.815 14.651-20.32 18.762l-2.105 1.027c-11.248 4.58-23.011 2.227-33.895-2.027-3.197-1.096-4.703-1.027-7.75.438L99 460c.7 3.898 2.544 7.119 4.43 10.547l2.144 3.961 1.138 2.095c19.619 36.208 35.136 73.244 42.795 113.804l1.053 5.189c.578 3.153.503 6.206.44 9.403-2.622-2.622-3.025-5.392-3.937-8.875C140.471 572.684 129.918 550.673 119 529l-1.387-2.777c-12.05-24.03-26.882-47.159-43.488-68.297L73 456c1-3 1-3 3.066-4.195l2.711-1.145 2.998-1.283 3.162-1.314 3.057-1.303 6.056-2.537 5.794-2.466 2.66-1.136 2.342-1.022c2.508-.698 3.742-.525 6.154.401 2.184 1.777 2.184 1.777 4.438 3.938 4.358 4.176 8.073 6.335 14.188 6.438 6.594-.167 13.075-1.726 18.297-5.918 5.201-5.625 7.041-11.707 7.652-19.223l.249-2.978L156 420l11.743-4.755 3.992-1.621 5.749-2.316 3.491-1.412c2.967-.879 4.262-1.232 7.024.104z" fill="#e14f4a"/><path d="M754 493h15l1 72 10-9 5.5-4.5c4.453-3.603 8.71-7.368 12.941-11.227 3.638-3.233 7.416-6.282 11.211-9.328 2.308-1.839 2.308-1.839 4.039-3.703C815 526 815 526 817 526v-2h22c-1.239 3.718-2.675 4.551-5.75 6.938-4.481 3.572-8.75 7.277-12.937 11.188-4.698 4.381-9.437 8.691-14.312 12.875l-2.039 1.754L799 561c.566 3.884 2.338 5.758 5 8.563 3.207 3.459 6.29 6.953 9.25 10.625 3.641 4.498 7.386 8.888 11.188 13.25l12.375 14.438 2.457 2.93C841 613 841 613 841 614c-16.492 2.048-16.492 2.048-21.882-1.099-3.274-2.921-5.646-6.481-7.987-10.166-1.664-2.554-3.607-4.843-5.568-7.173l-2.156-2.652c-3.413-4.128-6.911-8.183-10.422-12.228-2.155-2.493-4.154-4.936-5.985-7.682-3.905 1.619-6.562 4.193-9.625 7.063-5.181 4.84-5.181 4.84-7.375 5.938l-1 28h-15V493z" fill="#e86344"/><path d="M716 528c9.867 5.757 18.388 13.939 22 25v3c-5.45.524-10.566.793-16 0-2.425-2.02-3.403-3.805-4.801-6.613-3.051-6.073-9.118-9.44-15.324-11.691-9.124-2.207-17.832-1.569-25.875 3.305l-1.891 1.027c-6.713 4.101-10.7 11.646-13.109 18.973-1.167 10.994.523 21.562 7.457 30.438 6.986 7.075 14.642 9.602 24.418 9.938 6.297-.1 10.762-1.125 16.125-4.375l1.891-1.027c4.145-2.532 5.574-4.859 7.547-9.285 1.41-2.637 1.41-2.637 3.563-4.687 5.453-.894 10.526-.585 16 0-1.198 10.104-7.771 17.632-15.312 24.059-4.26 3.078-8.772 5.131-13.687 6.941l-2.922 1.078c-12.34 3.696-25.499 2.041-36.891-3.766-11.196-6.708-20.42-16.373-23.754-29.316-2.094-14.466-.728-27.12 7.563-39.391C667.748 522.425 694.685 517.008 716 528z" fill="#e25448"/><path d="M388 498h20v117h-20V498z" fill="#f9f9f9"/><path d="M349 498h20v117h-20V498z" fill="#fcfcfc"/><path d="M480 546c6.691 3.823 12.394 9.743 14.688 17.25.964 8.483.723 16.099-4.492 23.211-4.237 4.941-8.491 9.484-15.195 10.539-7.935.596-15.516 1.158-22-4-6.162-5.514-10.02-12.088-11.379-20.285-.413-7.549 2.461-14.578 7.004-20.527 8.086-8.531 20.585-11.325 31.375-6.187z" fill="#1c1c1c"/><path d="M299.137 546.797c2.719 1.755 4.766 3.747 6.863 6.203l2.188 2.5c4.794 6.613 4.523 13.603 3.813 21.5-2.071 7.745-6.54 13.843-13.5 17.875-7.223 3.342-15.394 3.433-22.937.938-8.04-4.09-12.425-9.292-15.562-17.812-1.296-8.176-.265-15.855 4-23 8.592-11.312 22.223-14.908 35.137-8.203z" fill="#1b1b1b"/><path d="M954 509h15v15h13v13h-13l.262 23.169.084 7.88.142 11.334.019 3.552c.097 7.97.097 7.97 3.492 15.065 4.278 2.852 7.896 2.602 13 3v13c-15.977.808-15.977.808-22-4-5.45-4.987-9.3-10.603-10.271-18.087-.095-2.214-.101-4.409-.07-6.624l-.001-2.516.049-8.148.013-5.683.074-14.894.06-15.224L954 509z" fill="#eb6f40"/><path d="M97 501l1 2c-3.766 6.327-8.802 11.809-15.836 14.539C76.366 518.774 69.63 518.877 64 517l-.812 2.25C62 522 62 522 60.313 524.125L59 526c.714 3.236.714 3.236 3.746 4.621l3.691 1.816C79.967 539.346 92.582 547.984 104 558l2.605 2.273L114 567l2.016 1.852C126.586 578.95 135.169 591.114 142 604v2h-2c-1.242-1.434-2.415-2.927-3.562-4.437-10.076-12.555-21.78-23.826-34.767-33.336l-4.913-3.695C79.087 551.263 58.762 540.531 38 533c1.5-3.448 3.504-5.824 6.063-8.562 4.208-4.575 8.132-9.317 11.992-14.187C58 508 58 508 61 506l5.574 2.242c8.451 2.64 15.993.653 23.832-2.855 2.404-1.285 4.473-2.681 6.594-4.387z" fill="#de494c"/><path d="M614 524h16v90h-16v-90z" fill="#dd474c"/><path d="M914.266 541.406c7.454 5.233 11.946 11.65 13.734 20.594h-62c1.385-8.31 5.337-14.229 12-19.437 1.316-.881 2.648-1.738 4-2.562l3.063-1.875c9.443-3.655 20.827-1.917 29.203 3.281z" fill="#1b1a1a"/><path d="M83 563h1c-.361 6.254-.361 6.254-2.875 9.188-3.752 2.176-7.544 3.381-11.699 4.59-2.623 1.034-2.623 1.034-3.758 3.664-.794 2.602-.794 2.602-.668 5.559l2.073.288c25.693 3.64 25.693 3.64 36.927 8.712l1.962.875c10.201 4.613 20.444 9.723 27.038 19.125-3.989-1.196-7.537-2.737-11.198-4.716C99.775 598.463 75.509 596.073 51 594c2.426-7.882 5.642-16.606 11-23 3.146-1.36 5.088-1.418 8.477-1.176 3.457.241 5.598-1.099 8.523-2.824h2l2-4z" fill="#d9444c"/><path d="M622.5 492.375c4.459.796 5.908 1.933 8.5 5.625.656 4.083.378 6.228-1.437 9.938-3.254 2.619-5.337 2.793-9.434 2.543-2.129-.48-2.129-.48-4.691-2.543-1.815-3.71-2.094-5.854-1.437-9.937 2.592-3.692 4.041-4.829 8.5-5.625z" fill="#de474c"/></svg>