<svg xmlns="http://www.w3.org/2000/svg" width="240" height="240" xmlns:v="https://vecta.io/nano"><path d="M0 0h240v240H0V0z" fill="#1c1d1a"/><path d="M21.025 87.399l3.58.034 1.982-.002 6.46.082 4.489.021 11.797.124 12.046.099L85 88c.125 2.375.125 2.375 0 5l-2 2c-.25 2.542-.25 2.542 0 5l1 1 .125 4 .008 2.188C84 109 84 109 83 110v7h2v7l-2 2c-.25 2.542-.25 2.542 0 5l1 1c.3 4.194.14 8.244-.625 12.375-.705 2.852-.705 2.852 1.625 5.625v3l-25.557.259-11.868.118-11.457.097-4.367.054-6.125.039-3.519.034c-4.047-.783-5.535-2.459-8.107-5.601-.568-2.036-.568-2.036-.488-3.988l.049-2.139.127-2.186.068-2.244L14 132l3.379-1.398c4.329-1.825 4.329-1.825 6.621-5.602.68-4.532.615-7.888-1.625-11.937-2.694-2.34-4.995-3.03-8.375-4.062l-.25-7.687-.102-2.186-.039-2.139-.063-1.952c.957-4.291 3.189-6.785 7.479-7.638z" fill="#e03851"/><path d="M44 88h41v5l-2 2c-.25 2.542-.25 2.542 0 5l1 1 .125 4 .008 2.188C84 109 84 109 83 110v7h2v7l-2 2c-.25 2.542-.25 2.542 0 5l1 1c.3 4.194.14 8.244-.625 12.375-.705 2.852-.705 2.852 1.625 5.625v3l-21-1 1-4a132.5 132.5 0 0 0-1-5c-.04-1.666-.044-3.334 0-5v-3l1-6 2.438.063c2.496.234 2.496.234 3.563-1.062h-8l1-5h4l-3-5-6 14h-6l3-9h-2l-1 3c-.687-2.491-1-4.379-1-7l-1-3-1.898 1.969-2.477 2.531-2.461 2.531C42 125 42 125 40 125v2h12l-2 5H31c0-5 0-5 2.406-7.895l3.094-2.918 1.59-1.521L42 116l-11-1v-5l13-1 1-3-1-2c.299-2.005.634-4.006 1-6 .071-3.684.071-3.684-1-10z" fill="#ea6b41"/><path d="M44 88h18l-1 3v3h2l3 4h-2c-1.149 1.925-1.149 1.925-1 4 1.458 1.625 1.458 1.625 3 3l-3 2v2h6v1l-3.187-.25c-1.993.12-1.993.12-3.812 1.25-2.201 3.818-3.632 7.82-5 12h-3l-1 3c-.687-2.491-1-4.379-1-7l-1-3-1.898 1.969-2.477 2.531-2.461 2.531C42 125 42 125 40 125v2h12l-2 5H31c0-5 0-5 2.406-7.895l3.094-2.918 1.59-1.521L42 116l-11-1v-5l13-1 1-3-1-2c.299-2.005.634-4.006 1-6 .071-3.684.071-3.684-1-10z" fill="#ea6149"/><path d="M51 115l2 1c.612 2.386 1 4.535 1 7h2l-3 9h6l.551-2.012C60.895 125.265 62.15 121.072 65 117c3 3.75 3 3.75 3 6h-4l-1 5h8l-1 2c-2.062.625-2.062.625-4 1-1.108 3.325-.845 5.622 0 9h-2l.5 3.313c.82 6.048.82 6.048-.5 8.688h17v1l-17.352.11-5.904.041-8.482.044-2.671.031h-2.487l-2.187.013C40 153 40 153 37 151c-.221-2.951-.281-5.684-.187-8.625l.041-2.43L37 134c3.015-1.005 5.042-1.103 8.188-1.062l2.73.027L50 133l2-6H40v-2c1.645-1.621 1.645-1.621 3.813-3.437 2.499-2.107 4.912-4.215 7.188-6.562z" fill="#e96241"/><path d="M178.914 109.805l4.711.07 2.43.027L192 110v5h-13v4h11v5h-11v3h13v5l-8.375.125-2.406.051c-2.074.018-4.148-.072-6.219-.176-2.366-2.366-2.256-2.852-2.266-6.062l-.008-2.414.023-2.523-.023-2.523.008-2.414.007-2.215c.557-3.979 2.469-3.858 6.173-4.043z" fill="#f2f1f1"/><path d="M48.188 132.938l2.271.014L56 133l-1 3h-2v3.313c0 4.398-.23 8.356-1 12.688-4.014 1.338-7.814 1.199-12 1l-3-2c-.221-2.951-.281-5.684-.187-8.625l.041-2.43L37 134c3.763-1.254 7.272-1.107 11.188-1.062z" fill="#e85747"/><path d="M149 110h6v8c3.132-1.608 4.744-2.499 6.375-5.687L163 110c3.688-.312 3.688-.312 7 0-1.196 2.591-2.491 4.674-4.187 7-2.038 2.694-2.038 2.694-1.617 4.922.956 2.469 2.236 4.246 3.867 6.328l1.66 2.141L171 132c-3.125.438-3.125.438-7 0-1.834-1.648-3.202-3.371-4.641-5.371-1.362-1.922-1.362-1.922-4.359-2.629v8h-6v-22z" fill="#ededed"/><path d="M137.688 109.75l2.416.055L146 110v6h-13v11h13v5l-8.312.188-2.381.076-2.295.029-2.111.048c-2.52-.451-3.378-1.313-4.901-3.341-.299-2.58-.419-4.865-.375-7.437l-.023-3.996C126 114 126 114 126.98 111.543c3.286-2.51 6.704-1.964 10.707-1.793z" fill="#e4e4e4"/><path d="M31 111h20c0 5 0 5-1.898 7.457l-2.477 2.355-2.461 2.395C42 125 42 125 40 125v2h12l-2 5H31c0-5 0-5 2.406-7.895l3.094-2.918 1.59-1.521L42 116l-11-1v-4z" fill="#fdf7f7"/><path d="M61 111h8c9 17.668 9 17.668 9 21h-6l-1-4h-8l1-5h4l-3-5-6 14h-6c2.274-7.182 5.036-14.076 8-21z" fill="#fcf4f3"/><path d="M24 125c1.876 3.182 2.23 5.461 2.16 9.133l-.033 2.941-.064 3.051-.09 6.008-.054 2.684c-.067 2.23-.067 2.23 1.082 4.183-7.165.607-7.165.607-10.75-2-2.963-3.951-2.84-6.531-2.562-11.312l.068-2.244L14 132l3.379-1.363c3.49-1.577 4.736-2.422 6.621-5.637z" fill="#da2857"/><path d="M26 88l.125 12.313.051 3.537.02 3.389.032 3.126C26 113 26 113 24 116l-1.625-2.375c-2.702-2.987-4.583-3.513-8.375-4.625l-.25-7.687-.102-2.186c-.067-3.674.189-5.804 1.867-9.146C19.122 87.106 21.474 87.623 26 88z" fill="#da2858"/><path d="M94 110h21v6h-8v16h-6v-16h-7v-6z" fill="#e7e7e7"/><path d="M193 110h21v6h-7v16h-6v-17h-8v-5z" fill="#ebeaea"/><path d="M148 112h1v19l-2-4h-14v-11h14l1-4z" fill="#171715"/><path d="M37 88h7c1.908 6.321 1.928 10.505 1 17v3l3 2H37V88z" fill="#e54c4a"/><path d="M44 133l2 4-1 1-.062 4.375.027 2.398L45 147v3l1 3-9-1v-18c3-1 3-1 7-1z" fill="#e54d4c"/><path d="M117 110h6v22h-6v-22z" fill="#ececec"/><path d="M18 88l3 1 .063 9.375.025 2.695.01 2.578.016 2.38C21 108 21 108 20 110l-6-1-.25-7.687-.102-2.186c-.073-4.009.066-5.699 2.367-9.146L18 88zm2 43c2.8 15.4 2.8 15.4 0 21-1.875-.312-1.875-.312-4-1-2.528-3.792-2.224-6.809-2.125-11.187l.027-2.271L14 132c2.076-.553 3.844-1 6-1z" fill="#d71b5c"/><path d="M172 112h1l1 20c-4.205-1.051-5.051-1.657-7.812-4.75l-1.895-2.047C163 123 163 123 163.117 120.379c1.316-3.546 3.654-4.6 6.883-6.379h2v-2z" fill="#151715"/><path d="M51 115l2 1c.612 2.386 1 4.535 1 7h2l-1 4H40v-2l3.813-3.437L51 115z" fill="#e7503d"/><path d="M31 115h12c-3.711 4.595-6.928 7.981-12 11l-2-2h2l-1-3c0-3 0-3 1-6z" fill="#e44c57"/><path d="M65 117c3 4 3 4 3 6h-4v3h-2v2l-2-1 5-10z" fill="#eb6c48"/></svg>