<?xml version="1.0" encoding="UTF-8"?>
<svg version="1.1" xmlns="http://www.w3.org/2000/svg" width="240" height="240">
<path d="M0 0 C79.2 0 158.4 0 240 0 C240 79.2 240 158.4 240 240 C160.8 240 81.6 240 0 240 C0 160.8 0 81.6 0 0 Z " fill="#1C1D1A" transform="translate(0,0)"/>
<path d="M0 0 C1.18136536 0.01110306 2.36273071 0.02220612 3.57989502 0.03364563 C4.23396835 0.0329155 4.88804169 0.03218536 5.56193542 0.03143311 C7.71623717 0.03490684 9.86835565 0.07375013 12.02227783 0.11299133 C13.51870543 0.12232041 15.01514833 0.12943608 16.51159668 0.13442993 C20.44440095 0.15349285 24.37627738 0.20258585 28.30871582 0.25794983 C32.32378589 0.30915858 36.33900636 0.33194734 40.35430908 0.35713196 C48.22843212 0.41070677 56.10180196 0.49600926 63.97540283 0.60127258 C64.10040283 2.97627258 64.10040283 2.97627258 63.97540283 5.60127258 C63.31540283 6.26127258 62.65540283 6.92127258 61.97540283 7.60127258 C61.72532553 10.1431726 61.72532553 10.1431726 61.97540283 12.60127258 C62.47040283 13.09627258 62.47040283 13.09627258 62.97540283 13.60127258 C63.10821533 15.41377258 63.10821533 15.41377258 63.10040283 17.60127258 C63.10427002 18.68408508 63.10427002 18.68408508 63.10821533 19.78877258 C62.97540283 21.60127258 62.97540283 21.60127258 61.97540283 22.60127258 C61.93447346 24.93424691 61.9329856 27.26832483 61.97540283 29.60127258 C62.63540283 29.60127258 63.29540283 29.60127258 63.97540283 29.60127258 C64.10040283 32.97627258 64.10040283 32.97627258 63.97540283 36.60127258 C62.98540283 37.59127258 62.98540283 37.59127258 61.97540283 38.60127258 C61.72532553 41.1431726 61.72532553 41.1431726 61.97540283 43.60127258 C62.30540283 43.93127258 62.63540283 44.26127258 62.97540283 44.60127258 C63.2755803 48.79492845 63.11547437 52.8448863 62.35040283 56.97627258 C61.645274 59.82844044 61.645274 59.82844044 63.97540283 62.60127258 C63.97540283 63.59127258 63.97540283 64.58127258 63.97540283 65.60127258 C55.45651296 65.71722199 46.93795381 65.80601494 38.41846943 65.86033344 C34.46230981 65.8864064 30.50669078 65.92176067 26.55084229 65.97846985 C22.73177481 66.03287437 18.91322664 66.06271044 15.0938015 66.0756588 C13.63811252 66.08488378 12.18245137 66.10289876 10.72698402 66.12992287 C8.68457704 66.16633001 6.64430381 66.17121374 4.60162354 66.16889954 C3.44024368 66.18000259 2.27886383 66.19110565 1.08229065 66.20254517 C-2.96502594 65.41927244 -4.45236422 63.74396162 -7.02459717 60.60127258 C-7.59222412 58.56489563 -7.59222412 58.56489563 -7.51287842 56.61299133 C-7.49676514 55.90722961 -7.48065186 55.2014679 -7.46405029 54.47431946 C-7.42215576 53.75308899 -7.38026123 53.03185852 -7.33709717 52.28877258 C-7.31453857 51.54820618 -7.29197998 50.80763977 -7.26873779 50.04463196 C-7.21017867 48.22929901 -7.12050603 46.41501578 -7.02459717 44.60127258 C-5.90955811 44.13978821 -4.79451904 43.67830383 -3.64569092 43.20283508 C0.68339452 41.37813604 0.68339452 41.37813604 2.97540283 37.60127258 C3.65556481 33.06969342 3.59080715 29.71373424 1.35040283 25.66377258 C-1.34367822 23.32417588 -3.64498329 22.63367518 -7.02459717 21.60127258 C-7.13304748 19.03762776 -7.21209461 16.47860979 -7.27459717 13.91377258 C-7.30811279 13.19254211 -7.34162842 12.47131165 -7.37615967 11.72822571 C-7.38905029 11.02246399 -7.40194092 10.31670227 -7.41522217 9.58955383 C-7.43616943 8.94542542 -7.4571167 8.301297 -7.47869873 7.63764954 C-6.52193787 3.34714289 -4.28927328 0.85268295 0 0 Z " fill="#E03851" transform="translate(21.02459716796875,87.39872741699219)"/>
<path d="M0 0 C13.53 0 27.06 0 41 0 C41 1.65 41 3.3 41 5 C40.34 5.66 39.68 6.32 39 7 C38.7499227 9.54190002 38.7499227 9.54190002 39 12 C39.495 12.495 39.495 12.495 40 13 C40.1328125 14.8125 40.1328125 14.8125 40.125 17 C40.12886719 18.0828125 40.12886719 18.0828125 40.1328125 19.1875 C40 21 40 21 39 22 C38.95907063 24.33297433 38.95758277 26.66705225 39 29 C39.66 29 40.32 29 41 29 C41.125 32.375 41.125 32.375 41 36 C40.34 36.66 39.68 37.32 39 38 C38.7499227 40.54190002 38.7499227 40.54190002 39 43 C39.33 43.33 39.66 43.66 40 44 C40.30017747 48.19365586 40.14007153 52.24361372 39.375 56.375 C38.66987117 59.22716786 38.66987117 59.22716786 41 62 C41 62.99 41 63.98 41 65 C34.07 64.67 27.14 64.34 20 64 C20.33 62.68 20.66 61.36 21 60 C20.69972883 58.32706064 20.36442233 56.66014616 20 55 C19.9603287 53.33380554 19.95615553 51.66608987 20 50 C20 49.01 20 48.02 20 47 C20.31421071 44.99690671 20.6451046 42.99628664 21 41 C21.804375 41.020625 22.60875 41.04125 23.4375 41.0625 C25.93354885 41.29633621 25.93354885 41.29633621 27 40 C24.36 40 21.72 40 19 40 C19.33 38.35 19.66 36.7 20 35 C21.32 35 22.64 35 24 35 C23.01 33.35 22.02 31.7 21 30 C19.02 34.62 17.04 39.24 15 44 C13.02 44 11.04 44 9 44 C9.99 41.03 10.98 38.06 12 35 C11.34 35 10.68 35 10 35 C9.67 35.99 9.34 36.98 9 38 C8.31292445 35.50935112 8 33.62113708 8 31 C7.67 30.01 7.34 29.02 7 28 C6.37351562 28.6496875 5.74703125 29.299375 5.1015625 29.96875 C4.28429687 30.8040625 3.46703125 31.639375 2.625 32.5 C1.81289063 33.3353125 1.00078125 34.170625 0.1640625 35.03125 C-2 37 -2 37 -4 37 C-4 37.66 -4 38.32 -4 39 C-0.04 39 3.92 39 8 39 C7.01 41.475 7.01 41.475 6 44 C-0.27 44 -6.54 44 -13 44 C-13 39 -13 39 -10.59375 36.10546875 C-9.5749664 35.11976254 -8.54316541 34.14736596 -7.5 33.1875 C-6.97535156 32.68541016 -6.45070313 32.18332031 -5.91015625 31.66601562 C-4.61777468 30.43237867 -3.31030401 29.21458375 -2 28 C-5.63 27.67 -9.26 27.34 -13 27 C-13 25.35 -13 23.7 -13 22 C-6.565 21.505 -6.565 21.505 0 21 C0.33 20.01 0.66 19.02 1 18 C0.67 17.34 0.34 16.68 0 16 C0.29868656 13.99453311 0.63371323 11.99422795 1 10 C1.07071068 6.31646344 1.07071068 6.31646344 0 0 Z " fill="#EA6B41" transform="translate(44,88)"/>
<path d="M0 0 C5.94 0 11.88 0 18 0 C17.67 0.99 17.34 1.98 17 3 C17 3.99 17 4.98 17 6 C17.66 6 18.32 6 19 6 C20.625 8 20.625 8 22 10 C21.34 10 20.68 10 20 10 C18.8509288 11.9254644 18.8509288 11.9254644 19 14 C20.45833358 15.62514468 20.45833358 15.62514468 22 17 C21.01 17.66 20.02 18.32 19 19 C19 19.66 19 20.32 19 21 C20.98 21 22.96 21 25 21 C25 21.33 25 21.66 25 22 C23.948125 21.9175 22.89625 21.835 21.8125 21.75 C19.81912382 21.86997125 19.81912382 21.86997125 18 23 C15.79936039 26.81843654 14.36817075 30.81982854 13 35 C12.01 35 11.02 35 10 35 C9.67 35.99 9.34 36.98 9 38 C8.31292445 35.50935112 8 33.62113708 8 31 C7.67 30.01 7.34 29.02 7 28 C6.37351562 28.6496875 5.74703125 29.299375 5.1015625 29.96875 C4.28429687 30.8040625 3.46703125 31.639375 2.625 32.5 C1.81289063 33.3353125 1.00078125 34.170625 0.1640625 35.03125 C-2 37 -2 37 -4 37 C-4 37.66 -4 38.32 -4 39 C-0.04 39 3.92 39 8 39 C7.01 41.475 7.01 41.475 6 44 C-0.27 44 -6.54 44 -13 44 C-13 39 -13 39 -10.59375 36.10546875 C-9.5749664 35.11976254 -8.54316541 34.14736596 -7.5 33.1875 C-6.97535156 32.68541016 -6.45070313 32.18332031 -5.91015625 31.66601562 C-4.61777468 30.43237867 -3.31030401 29.21458375 -2 28 C-5.63 27.67 -9.26 27.34 -13 27 C-13 25.35 -13 23.7 -13 22 C-6.565 21.505 -6.565 21.505 0 21 C0.33 20.01 0.66 19.02 1 18 C0.67 17.34 0.34 16.68 0 16 C0.29868656 13.99453311 0.63371323 11.99422795 1 10 C1.07071068 6.31646344 1.07071068 6.31646344 0 0 Z " fill="#EA6149" transform="translate(44,88)"/>
<path d="M0 0 C0.66 0.33 1.32 0.66 2 1 C2.61187038 3.38629447 3 5.53540571 3 8 C3.66 8 4.32 8 5 8 C4.01 10.97 3.02 13.94 2 17 C3.98 17 5.96 17 8 17 C8.18175781 16.33613281 8.36351563 15.67226562 8.55078125 14.98828125 C9.89523291 10.26546387 11.14984737 6.07164661 14 2 C17 5.75 17 5.75 17 8 C15.68 8 14.36 8 13 8 C12.67 9.65 12.34 11.3 12 13 C14.64 13 17.28 13 20 13 C19.67 13.66 19.34 14.32 19 15 C16.9375 15.625 16.9375 15.625 15 16 C13.89155081 19.32534757 14.15545644 21.62182575 15 25 C14.34 25 13.68 25 13 25 C13.2475 26.6396875 13.2475 26.6396875 13.5 28.3125 C14.32 34.36 14.32 34.36 13 37 C18.61 37 24.22 37 30 37 C30 37.33 30 37.66 30 38 C24.21591441 38.0494009 18.43195136 38.08572 12.64770508 38.10986328 C10.67958436 38.11992707 8.71147862 38.13357934 6.7434082 38.15087891 C3.91614082 38.17511059 1.08907095 38.18647923 -1.73828125 38.1953125 C-2.61962234 38.20563507 -3.50096344 38.21595764 -4.40901184 38.22659302 C-5.22963608 38.22674408 -6.05026031 38.22689514 -6.89575195 38.22705078 C-7.61745071 38.231492 -8.33914948 38.23593323 -9.0827179 38.24050903 C-11 38 -11 38 -14 36 C-14.2208564 33.04935852 -14.28060989 30.31631769 -14.1875 27.375 C-14.17396484 26.57320312 -14.16042969 25.77140625 -14.14648438 24.9453125 C-14.11109051 22.96325622 -14.05728234 20.98154449 -14 19 C-10.98509443 17.99503148 -8.95818308 17.89664697 -5.8125 17.9375 C-4.91144531 17.94652344 -4.01039062 17.95554688 -3.08203125 17.96484375 C-2.39496094 17.97644531 -1.70789062 17.98804688 -1 18 C-0.34 16.02 0.32 14.04 1 12 C-2.96 12 -6.92 12 -11 12 C-11 11.34 -11 10.68 -11 10 C-9.35546875 8.37890625 -9.35546875 8.37890625 -7.1875 6.5625 C-4.68897282 4.45536324 -2.2757944 2.34758602 0 0 Z " fill="#E96241" transform="translate(51,115)"/>
<path d="M0 0 C1.57043101 0.01330874 3.14079971 0.03717648 4.7109375 0.0703125 C5.51273438 0.07933594 6.31453125 0.08835937 7.140625 0.09765625 C9.12252273 0.12125027 11.10426731 0.15712185 13.0859375 0.1953125 C13.0859375 1.8453125 13.0859375 3.4953125 13.0859375 5.1953125 C8.7959375 5.1953125 4.5059375 5.1953125 0.0859375 5.1953125 C0.0859375 6.5153125 0.0859375 7.8353125 0.0859375 9.1953125 C3.7159375 9.1953125 7.3459375 9.1953125 11.0859375 9.1953125 C11.0859375 10.8453125 11.0859375 12.4953125 11.0859375 14.1953125 C7.4559375 14.1953125 3.8259375 14.1953125 0.0859375 14.1953125 C0.0859375 15.1853125 0.0859375 16.1753125 0.0859375 17.1953125 C4.3759375 17.1953125 8.6659375 17.1953125 13.0859375 17.1953125 C13.0859375 18.8453125 13.0859375 20.4953125 13.0859375 22.1953125 C10.29401545 22.24911828 7.5031234 22.28888919 4.7109375 22.3203125 C3.916875 22.33707031 3.1228125 22.35382813 2.3046875 22.37109375 C0.23101735 22.38866723 -1.84289491 22.29866418 -3.9140625 22.1953125 C-6.27974472 19.82963028 -6.16977954 19.34299024 -6.1796875 16.1328125 C-6.18226563 15.33617188 -6.18484375 14.53953125 -6.1875 13.71875 C-6.17976562 12.88601562 -6.17203125 12.05328125 -6.1640625 11.1953125 C-6.17179688 10.36257812 -6.17953125 9.52984375 -6.1875 8.671875 C-6.18492187 7.87523438 -6.18234375 7.07859375 -6.1796875 6.2578125 C-6.17743164 5.52691406 -6.17517578 4.79601562 -6.17285156 4.04296875 C-5.61549164 0.06362926 -3.70399031 0.18482986 0 0 Z " fill="#F2F1F1" transform="translate(178.9140625,109.8046875)"/>
<path d="M0 0 C0.74958984 0.00451172 1.49917969 0.00902344 2.27148438 0.01367188 C4.11852383 0.02543646 5.96552213 0.04337135 7.8125 0.0625 C7.4825 1.0525 7.1525 2.0425 6.8125 3.0625 C6.1525 3.0625 5.4925 3.0625 4.8125 3.0625 C4.8125 4.155625 4.8125 5.24875 4.8125 6.375 C4.8125 10.77290646 4.58257627 14.73082097 3.8125 19.0625 C-0.20174265 20.40058088 -4.00176024 20.26182094 -8.1875 20.0625 C-9.1775 19.4025 -10.1675 18.7425 -11.1875 18.0625 C-11.4083564 15.11185852 -11.46810989 12.37881769 -11.375 9.4375 C-11.36146484 8.63570312 -11.34792969 7.83390625 -11.33398438 7.0078125 C-11.29859051 5.02575622 -11.24478234 3.04404449 -11.1875 1.0625 C-7.42449626 -0.19183458 -3.91539091 -0.04445422 0 0 Z " fill="#E85747" transform="translate(48.1875,132.9375)"/>
<path d="M0 0 C1.98 0 3.96 0 6 0 C6 2.64 6 5.28 6 8 C9.13193619 6.39170845 10.74377082 5.50081157 12.375 2.3125 C12.91125 1.549375 13.4475 0.78625 14 0 C17.6875 -0.3125 17.6875 -0.3125 21 0 C19.8041536 2.59100054 18.50878367 4.67366812 16.8125 7 C14.77444561 9.69439621 14.77444561 9.69439621 15.1953125 11.921875 C16.15127776 14.39067849 17.43156345 16.16795334 19.0625 18.25 C19.88427734 19.30960938 19.88427734 19.30960938 20.72265625 20.390625 C21.35494141 21.18726563 21.35494141 21.18726563 22 22 C18.875 22.4375 18.875 22.4375 15 22 C13.16558371 20.3515614 11.7976815 18.62879871 10.359375 16.62890625 C8.99776319 14.70716931 8.99776319 14.70716931 6 14 C6 16.64 6 19.28 6 22 C4.02 22 2.04 22 0 22 C0 14.74 0 7.48 0 0 Z " fill="#EDEDED" transform="translate(149,110)"/>
<path d="M0 0 C0.79728516 0.01804687 1.59457031 0.03609375 2.41601562 0.0546875 C4.38202449 0.10177753 6.34741494 0.17352101 8.3125 0.25 C8.3125 2.23 8.3125 4.21 8.3125 6.25 C4.0225 6.25 -0.2675 6.25 -4.6875 6.25 C-4.6875 9.88 -4.6875 13.51 -4.6875 17.25 C-0.3975 17.25 3.8925 17.25 8.3125 17.25 C8.3125 18.9 8.3125 20.55 8.3125 22.25 C5.54108283 22.33089542 2.77202181 22.39044062 0 22.4375 C-0.78568359 22.46263672 -1.57136719 22.48777344 -2.38085938 22.51367188 C-3.13818359 22.52333984 -3.89550781 22.53300781 -4.67578125 22.54296875 C-5.37227783 22.5586792 -6.06877441 22.57438965 -6.78637695 22.59057617 C-9.30603254 22.13919316 -10.16434363 21.27776211 -11.6875 19.25 C-11.98689499 16.66991966 -12.10690289 14.38540077 -12.0625 11.8125 C-12.07023437 10.49378906 -12.07796875 9.17507812 -12.0859375 7.81640625 C-11.6875 4.25 -11.6875 4.25 -10.70703125 1.79296875 C-7.42127025 -0.71742892 -4.0032397 -0.17076986 0 0 Z " fill="#E4E4E4" transform="translate(137.6875,109.75)"/>
<path d="M0 0 C6.6 0 13.2 0 20 0 C20 5 20 5 18.1015625 7.45703125 C17.28429687 8.23433594 16.46703125 9.01164062 15.625 9.8125 C14.40683594 10.99779297 14.40683594 10.99779297 13.1640625 12.20703125 C11 14 11 14 9 14 C9 14.66 9 15.32 9 16 C12.96 16 16.92 16 21 16 C20.01 18.475 20.01 18.475 19 21 C12.73 21 6.46 21 0 21 C0 16 0 16 2.40625 13.10546875 C3.4250336 12.11976254 4.45683459 11.14736596 5.5 10.1875 C6.28697266 9.43436523 6.28697266 9.43436523 7.08984375 8.66601562 C8.38222532 7.43237867 9.68969599 6.21458375 11 5 C7.37 4.67 3.74 4.34 0 4 C0 2.68 0 1.36 0 0 Z " fill="#FDF7F7" transform="translate(31,111)"/>
<path d="M0 0 C2.64 0 5.28 0 8 0 C17 17.66803279 17 17.66803279 17 21 C15.02 21 13.04 21 11 21 C10.67 19.68 10.34 18.36 10 17 C7.36 17 4.72 17 2 17 C2.33 15.35 2.66 13.7 3 12 C4.32 12 5.64 12 7 12 C6.01 10.35 5.02 8.7 4 7 C2.02 11.62 0.04 16.24 -2 21 C-3.98 21 -5.96 21 -8 21 C-5.72564796 13.81783567 -2.96415819 6.9241798 0 0 Z " fill="#FCF4F3" transform="translate(61,111)"/>
<path d="M0 0 C1.8756931 3.18150855 2.22979021 5.46053744 2.16015625 9.1328125 C2.14919922 10.10347656 2.13824219 11.07414063 2.12695312 12.07421875 C2.10568359 13.08097656 2.08441406 14.08773437 2.0625 15.125 C2.02814904 17.12753348 1.9979896 19.13014464 1.97265625 21.1328125 C1.95468994 22.01855957 1.93672363 22.90430664 1.91821289 23.81689453 C1.85111887 26.04675029 1.85111887 26.04675029 3 28 C-4.16508539 28.60721063 -4.16508539 28.60721063 -7.75 26 C-10.71338937 22.04881418 -10.59024043 19.46890838 -10.3125 14.6875 C-10.28994141 13.94693359 -10.26738281 13.20636719 -10.24414062 12.44335938 C-10.1855815 10.62802643 -10.09590886 8.81374319 -10 7 C-8.88496094 6.55011719 -7.76992188 6.10023438 -6.62109375 5.63671875 C-3.13156387 4.0594663 -1.88464219 3.21497785 0 0 Z " fill="#DA2857" transform="translate(24,125)"/>
<path d="M0 0 C0.05796132 4.10410755 0.09358313 8.20811016 0.125 12.3125 C0.14175781 13.47974609 0.15851562 14.64699219 0.17578125 15.84960938 C0.18222656 16.96787109 0.18867188 18.08613281 0.1953125 19.23828125 C0.20578613 20.26993408 0.21625977 21.30158691 0.22705078 22.36450195 C0 25 0 25 -2 28 C-2.804375 26.824375 -2.804375 26.824375 -3.625 25.625 C-6.32742347 22.6381109 -8.20789058 22.11165947 -12 21 C-12.10845031 18.43635517 -12.18749744 15.87733721 -12.25 13.3125 C-12.28351562 12.59126953 -12.31703125 11.87003906 -12.3515625 11.12695312 C-12.41866676 7.45299513 -12.16213502 5.32301642 -10.484375 1.98046875 C-6.87823594 -0.89423644 -4.52612663 -0.37717722 0 0 Z " fill="#DA2858" transform="translate(26,88)"/>
<path d="M0 0 C6.93 0 13.86 0 21 0 C21 1.98 21 3.96 21 6 C18.36 6 15.72 6 13 6 C13 11.28 13 16.56 13 22 C11.02 22 9.04 22 7 22 C7 16.72 7 11.44 7 6 C4.69 6 2.38 6 0 6 C0 4.02 0 2.04 0 0 Z " fill="#E7E7E7" transform="translate(94,110)"/>
<path d="M0 0 C6.93 0 13.86 0 21 0 C21 1.98 21 3.96 21 6 C18.69 6 16.38 6 14 6 C14 11.28 14 16.56 14 22 C12.02 22 10.04 22 8 22 C8 16.39 8 10.78 8 5 C5.36 5 2.72 5 0 5 C0 3.35 0 1.7 0 0 Z " fill="#EBEAEA" transform="translate(193,110)"/>
<path d="M0 0 C0.33 0 0.66 0 1 0 C1 6.27 1 12.54 1 19 C0.34 17.68 -0.32 16.36 -1 15 C-5.62 15 -10.24 15 -15 15 C-15 11.37 -15 7.74 -15 4 C-10.38 4 -5.76 4 -1 4 C-0.67 2.68 -0.34 1.36 0 0 Z " fill="#171715" transform="translate(148,112)"/>
<path d="M0 0 C2.31 0 4.62 0 7 0 C8.90819728 6.3209035 8.92781975 10.50526176 8 17 C8 17.99 8 18.98 8 20 C8.99 20.66 9.98 21.32 11 22 C7.37 22 3.74 22 0 22 C0 14.74 0 7.48 0 0 Z " fill="#E54C4A" transform="translate(37,88)"/>
<path d="M0 0 C0.66 1.32 1.32 2.64 2 4 C1.67 4.33 1.34 4.66 1 5 C0.92745633 6.45667689 0.91626222 7.9166725 0.9375 9.375 C0.95103516 10.56222656 0.95103516 10.56222656 0.96484375 11.7734375 C0.97644531 12.50820312 0.98804688 13.24296875 1 14 C1 14.99 1 15.98 1 17 C1.33 17.99 1.66 18.98 2 20 C-0.97 19.67 -3.94 19.34 -7 19 C-7 13.06 -7 7.12 -7 1 C-4 0 -4 0 0 0 Z " fill="#E54D4C" transform="translate(44,133)"/>
<path d="M0 0 C1.98 0 3.96 0 6 0 C6 7.26 6 14.52 6 22 C4.02 22 2.04 22 0 22 C0 14.74 0 7.48 0 0 Z " fill="#ECECEC" transform="translate(117,110)"/>
<path d="M0 0 C0.99 0.33 1.98 0.66 3 1 C3.02895976 4.12498063 3.04678483 7.2499269 3.0625 10.375 C3.07087891 11.26445313 3.07925781 12.15390625 3.08789062 13.0703125 C3.09111328 13.92109375 3.09433594 14.771875 3.09765625 15.6484375 C3.10289307 16.43395996 3.10812988 17.21948242 3.11352539 18.02880859 C3 20 3 20 2 22 C0.02 21.67 -1.96 21.34 -4 21 C-4.10845031 18.43635517 -4.18749744 15.87733721 -4.25 13.3125 C-4.28351562 12.59126953 -4.31703125 11.87003906 -4.3515625 11.12695312 C-4.42478439 7.11805482 -4.28590487 5.42830322 -1.984375 1.98046875 C-1.00210937 1.00013672 -1.00210937 1.00013672 0 0 Z " fill="#D71B5C" transform="translate(18,88)"/>
<path d="M0 0 C2.8 15.4 2.8 15.4 0 21 C-1.875 20.6875 -1.875 20.6875 -4 20 C-6.52775351 16.20836973 -6.22443035 13.19125969 -6.125 8.8125 C-6.11597656 8.06291016 -6.10695313 7.31332031 -6.09765625 6.54101562 C-6.07412578 4.69387346 -6.03825561 2.84689588 -6 1 C-3.92446352 0.4465236 -2.15634036 0 0 0 Z " fill="#D71B5C" transform="translate(20,131)"/>
<path d="M0 0 C0.33 0 0.66 0 1 0 C1.33 6.6 1.66 13.2 2 20 C-2.20503456 18.94874136 -3.05108752 18.34278198 -5.8125 15.25 C-6.75029297 14.23679687 -6.75029297 14.23679687 -7.70703125 13.203125 C-9 11 -9 11 -8.8828125 8.37890625 C-7.56670994 4.83241749 -5.22887777 3.77917754 -2 2 C-1.34 2 -0.68 2 0 2 C0 1.34 0 0.68 0 0 Z " fill="#151715" transform="translate(172,112)"/>
<path d="M0 0 C0.66 0.33 1.32 0.66 2 1 C2.61187038 3.38629447 3 5.53540571 3 8 C3.66 8 4.32 8 5 8 C4.67 9.32 4.34 10.64 4 12 C-0.95 12 -5.9 12 -11 12 C-11 11.34 -11 10.68 -11 10 C-9.35546875 8.37890625 -9.35546875 8.37890625 -7.1875 6.5625 C-4.68897282 4.45536324 -2.2757944 2.34758602 0 0 Z " fill="#E7503D" transform="translate(51,115)"/>
<path d="M0 0 C3.96 0 7.92 0 12 0 C8.28860856 4.59505607 5.07188155 7.98102289 0 11 C-0.66 10.34 -1.32 9.68 -2 9 C-1.34 9 -0.68 9 0 9 C-0.33 8.01 -0.66 7.02 -1 6 C-1 3 -1 3 0 0 Z " fill="#E44C57" transform="translate(31,115)"/>
<path d="M0 0 C3 4 3 4 3 6 C1.68 6 0.36 6 -1 6 C-1 6.99 -1 7.98 -1 9 C-1.66 9 -2.32 9 -3 9 C-3 9.66 -3 10.32 -3 11 C-3.66 10.67 -4.32 10.34 -5 10 C-3.35 6.7 -1.7 3.4 0 0 Z " fill="#EB6C48" transform="translate(65,117)"/>
</svg>
